<svg xmlns="http://www.w3.org/2000/svg" viewBox="0 0 165 165"><defs><style>.cls-1{fill:#292723;}.cls-2{fill:#fff;}</style></defs><g id="Capa_2" data-name="Capa 2"><g id="Capa_1-2" data-name="Capa 1"><rect class="cls-1" width="165" height="165"/><path class="cls-2" d="M39.18,71.86h5L51.64,93H46.86l-1.4-4.34H37.69L36.26,93H31.65ZM38.89,85H44.3l-2.67-8.3Z"/><path class="cls-2" d="M69.47,74.11a5.32,5.32,0,0,1,1,3.22,4.7,4.7,0,0,1-1,3.1,4.93,4.93,0,0,1-1.61,1.2,4.79,4.79,0,0,1,2.44,1.86,5.58,5.58,0,0,1,.82,3.1A6.12,6.12,0,0,1,70.17,90a5.94,5.94,0,0,1-1.49,1.66,5.78,5.78,0,0,1-2.39,1.06,14.62,14.62,0,0,1-3,.29h-9.5V71.86H64C66.57,71.9,68.4,72.65,69.47,74.11ZM58,75.52v4.65h5.13a4.21,4.21,0,0,0,2.23-.52,2,2,0,0,0,.86-1.85,1.91,1.91,0,0,0-1.13-2,8,8,0,0,0-2.5-.33Zm0,8.15v5.62h5.13a4.94,4.94,0,0,0,2.13-.37,2.65,2.65,0,0,0,1.39-2.63A2.28,2.28,0,0,0,65.32,84a5.56,5.56,0,0,0-2.11-.35Z"/><path class="cls-2" d="M76.33,74.06a8.71,8.71,0,0,1,6.49-2.6q5.27,0,7.7,3.49A7.64,7.64,0,0,1,92,78.89H87.56a5.89,5.89,0,0,0-1.08-2.29,4.78,4.78,0,0,0-7.21.56,9.44,9.44,0,0,0-1.36,5.49A8.3,8.3,0,0,0,79.35,88,4.48,4.48,0,0,0,83,89.74a4.14,4.14,0,0,0,3.46-1.52,6.69,6.69,0,0,0,1.09-2.45h4.38A9.46,9.46,0,0,1,89,91.38a8.46,8.46,0,0,1-6,2.16A9,9,0,0,1,76,90.62q-2.58-2.93-2.58-8Q73.4,77.06,76.33,74.06Z"/><path class="cls-2" d="M95.2,84.14a10.2,10.2,0,0,1,3.09-2.69l.45-.28a8.65,8.65,0,0,1-1.42-2.1,5.3,5.3,0,0,1-.5-2.24,4.41,4.41,0,0,1,1.56-3.6,6.14,6.14,0,0,1,4.06-1.3,5.4,5.4,0,0,1,3.76,1.33,4.33,4.33,0,0,1,1.48,3.39,4.79,4.79,0,0,1-.89,3,8.54,8.54,0,0,1-2.61,2.16l3,3.67A5.94,5.94,0,0,0,108,83.9a6.63,6.63,0,0,0,.29-1.85h3.62a11.41,11.41,0,0,1-.92,3.89,11,11,0,0,1-1.49,2.44L113.35,93h-4.94L107,91.17a9.53,9.53,0,0,1-2,1.47,8.29,8.29,0,0,1-3.81.85,6.69,6.69,0,0,1-5.06-1.89,5.9,5.9,0,0,1-1.82-4.2A5.55,5.55,0,0,1,95.2,84.14Zm4,5a3,3,0,0,0,2.22.87,4.19,4.19,0,0,0,1.93-.46,5.5,5.5,0,0,0,1.48-1l-3.95-4.81a7.26,7.26,0,0,0-2.05,1.79,3.13,3.13,0,0,0-.5,1.71A2.67,2.67,0,0,0,99.19,89.19ZM101,77.89c.18.28.57.77,1.16,1.48a7.4,7.4,0,0,0,1.28-1,2.42,2.42,0,0,0,.74-1.68,1.8,1.8,0,0,0-.44-1.18,1.71,1.71,0,0,0-1.35-.51,2,2,0,0,0-1.06.3,1.53,1.53,0,0,0-.74,1.41A2.24,2.24,0,0,0,101,77.89Z"/><path class="cls-2" d="M127.85,72.32A7,7,0,0,1,131.44,75,9.39,9.39,0,0,1,133,78.4a16.77,16.77,0,0,1,.4,3.49A14.09,14.09,0,0,1,131.66,89,7.65,7.65,0,0,1,124.58,93h-9.1V71.86h9.1A11,11,0,0,1,127.85,72.32Zm-8.09,3.2V89.29h4.08a4.38,4.38,0,0,0,4.35-3.08,10.77,10.77,0,0,0,.68-4,9.93,9.93,0,0,0-1-4.94c-.68-1.15-2-1.73-4-1.73Z"/></g></g></svg>