<svg xmlns="http://www.w3.org/2000/svg" xmlns:xlink="http://www.w3.org/1999/xlink" viewBox="0 0 165 165"><defs><style>.cls-1{fill:#fff;}.cls-2{fill:url(#radial-gradient);}.cls-3{fill:#2c4a82;}.cls-4{fill:#477ab7;}.cls-5{fill:#5da3c9;}.cls-6{fill:#97c1df;}</style><radialGradient id="radial-gradient" cx="92.3" cy="72.17" r="46.4" gradientUnits="userSpaceOnUse"><stop offset="0.31" stop-color="#bacd75"/><stop offset="0.73" stop-color="#768742"/></radialGradient></defs><g id="Capa_2" data-name="Capa 2"><g id="Capa_1-2" data-name="Capa 1"><rect width="165" height="165"/><path class="cls-1" d="M35.41,117.22h-.89v-2a5.86,5.86,0,0,1-.57.66,5.45,5.45,0,1,1,0-7.69,5.86,5.86,0,0,1,.57.66V107.5h.89Zm-.89-4.28v-1.76a4.39,4.39,0,0,0-1.24-2.3,4.46,4.46,0,1,0,1.24,4.06Z"/><path class="cls-1" d="M46.72,114.88l.94.34a6.14,6.14,0,0,1-.58.68,5.45,5.45,0,1,1,0-7.69,7.12,7.12,0,0,1,.58.67l-.94.35-.32-.36a4.5,4.5,0,1,0,0,6.36C46.51,115.12,46.62,115,46.72,114.88Z"/><path class="cls-1" d="M60.28,120.93h-.89v-5.69a7,7,0,0,1-.56.66,5.44,5.44,0,1,1,0-7.69,7,7,0,0,1,.56.66V107.5h.89Zm-.89-8v-1.76a4.5,4.5,0,1,0,0,1.76Z"/><path class="cls-1" d="M67.27,117.36a3.93,3.93,0,0,1-2.91-1.08,3.75,3.75,0,0,1-1.1-2.72V107.5h.89v6a2.85,2.85,0,0,0,.9,2.11,3,3,0,0,0,2.21.88,3,3,0,0,0,2.12-.88,2.84,2.84,0,0,0,.9-2.11v-6h.89v6.06a3.74,3.74,0,0,1-3.9,3.8Z"/><path class="cls-1" d="M84.63,117.22h-.89v-2a7,7,0,0,1-.56.66,5.44,5.44,0,0,1-7.7-7.69,5.43,5.43,0,0,1,7.7,0,7,7,0,0,1,.56.66V107.5h.89Zm-.89-4.28v-1.76a4.45,4.45,0,1,0,0,1.76Z"/><path class="cls-1" d="M91.48,117.22,86.61,107h2.32L92,113.64,95.06,107h2.32l-4.87,10.19Z"/><path class="cls-1" d="M101.58,103.26a1.36,1.36,0,0,1,.42,1,1.39,1.39,0,0,1-.42,1,1.45,1.45,0,0,1-1,.41,1.41,1.41,0,0,1-1-.41,1.36,1.36,0,0,1-.43-1,1.33,1.33,0,0,1,.43-1,1.38,1.38,0,0,1,1-.42A1.42,1.42,0,0,1,101.58,103.26Zm0,3.77v10.19h-2V107Z"/><path class="cls-1" d="M107.89,114.91a2.87,2.87,0,0,0,1.88.46,3.45,3.45,0,0,0,2.5-1c.09-.09.26-.3.53-.62l2,.74a14.71,14.71,0,0,1-1.09,1.37,5.64,5.64,0,1,1-.49-8.42,5,5,0,0,1,.49.44l.56.63-1,1Zm3.43-6.34a3,3,0,0,0-1.55-.26,3.41,3.41,0,0,0-2.5,1,3.45,3.45,0,0,0-1,2.5,2.93,2.93,0,0,0,.27,1.56Z"/><path class="cls-1" d="M119.43,103.26a1.37,1.37,0,0,1,.43,1,1.4,1.4,0,0,1-.43,1,1.46,1.46,0,0,1-2,0,1.4,1.4,0,0,1-.43-1,1.37,1.37,0,0,1,.43-1,1.44,1.44,0,0,1,2,0Zm0,3.77v10.19h-2V107Z"/><path class="cls-1" d="M124.63,108.41a3.65,3.65,0,0,1,2.82-1.64v2.13a2.61,2.61,0,0,0-1.78.72,3.32,3.32,0,0,0-1,2.36v5.24h-2V107h2Z"/><path class="cls-1" d="M138.27,107.74V107h2.06v10.2h-2.06V116a4.62,4.62,0,0,1-3.44,1.54,5.64,5.64,0,1,1,0-11.27A4.67,4.67,0,0,1,138.27,107.74Zm0,4.86v-1.5a3.28,3.28,0,0,0-1-1.74,3.52,3.52,0,1,0-2.49,6,3.43,3.43,0,0,0,2.49-1A3.27,3.27,0,0,0,138.27,112.6Z"/><path class="cls-2" d="M60.07,62.13s2.37,3.11,2.51,4.4C64,79.25,77.35,96.69,94.28,95.74c33.82-1.88,27.52-43.5,28.15-37.38,0,0,.31-3.3-1.73-3S115.52,54,115.52,54s-3.93-2.51-1,1.57,5,8.17,3.19,14.77c-2.2,7.9-8.53,24.34-25.49,22.77s-26.07-15.7-25.92-27c0,0-.47-.94,5.34-2.2S91.26,59.3,91.26,59.3,69,58.52,68.87,63.8c0,0-1.42.84-6.13.37a3.73,3.73,0,0,1-1.1-3.61c.47-2.36.16-15.08-1.57-16.49a23.6,23.6,0,0,0,0,14.45s-11.62-7.23-17.59-9.27C42.48,49.25,53.79,58.2,60.07,62.13Z"/><path class="cls-3" d="M70.91,76.27s8.48.94,20.42,6.91c10.38,5.19,15.72,1.18,18.69-.24,0,0-6.35,10.44-21.68,7C77.42,87.48,70.91,77.37,70.91,76.27Z"/><path class="cls-4" d="M70.91,75a4.57,4.57,0,0,1-1.1-2.2s15.23.63,22.77,4.24,18.38,4.39,21-.48c0,0,.24,2.54-3.37,5.05a18,18,0,0,1-12.34,2.66C94.47,83.65,76.66,74.66,70.91,75Z"/><path class="cls-5" d="M69.45,71.76s-.9-1.62-.58-2.56S87.71,71,93.53,71.76s19,2.1,22.61-3c0,0-.22,11.78-14.76,9.88C91.72,77.37,95.68,73.17,69.45,71.76Z"/><path class="cls-6" d="M68.45,66.84s22.41-.15,26.49,0,18.94-1,21.2-1.72c0,0,2.7,7.43-19.47,5.81S85.1,67.7,68.82,68.14Z"/></g></g></svg>