<svg xmlns="http://www.w3.org/2000/svg" viewBox="0 0 165 165"><defs><style>.cls-1{fill:#373737;}.cls-2{fill:#c0502e;}</style></defs><g id="Capa_2" data-name="Capa 2"><g id="Capa_1-2" data-name="Capa 1"><rect class="cls-1" width="165" height="165"/><path class="cls-2" d="M82.5,39.66A42.84,42.84,0,1,0,125.34,82.5,42.89,42.89,0,0,0,82.5,39.66Zm0,81.27A38.43,38.43,0,1,1,120.93,82.5,38.47,38.47,0,0,1,82.5,120.93Z"/><path class="cls-2" d="M99.1,68.67l7.17-.34A12.43,12.43,0,1,0,85.14,78.68l12.5,12.64a5.5,5.5,0,0,1-3.9,9.39A5.46,5.46,0,0,1,90,99.2L67.44,73.69a5.58,5.58,0,0,1,0-7.77,5.52,5.52,0,0,1,5.15-1.47l2.87-6.58a12.5,12.5,0,0,0-13,3,12.68,12.68,0,0,0-.11,17.76l22.52,25.52A12.64,12.64,0,0,0,102.7,86.29L90.2,73.66a5.3,5.3,0,1,1,8.9-5Z"/><path class="cls-2" d="M58.66,96c.61,11.34,11.71,11.48,11.83,11.48a8.38,8.38,0,0,0,3.27-.63L64,95.94Z"/></g></g></svg>