<svg xmlns="http://www.w3.org/2000/svg" viewBox="0 0 165 165"><defs><style>.cls-1{fill:#fff;}.cls-2{fill:#0a0000;}</style></defs><g id="Capa_2" data-name="Capa 2"><g id="Capa_1-2" data-name="Capa 1"><rect class="cls-1" width="165" height="165"/><path class="cls-2" d="M90.33,92H43.68a2,2,0,0,1-1.44-3.43L57.49,73h47.33A14.57,14.57,0,0,0,90.33,60H43.68a2,2,0,0,1-1.44-3.43L57.49,41h48.56a17.47,17.47,0,0,1,1.73,34.85A17.52,17.52,0,0,1,90.33,92Zm-46-1.37h0ZM45.89,89H90.33A14.58,14.58,0,0,0,104.82,76H58.73Zm0-32H90.33a17.5,17.5,0,0,1,17.43,15.89,14.52,14.52,0,0,0-1.71-29H58.73Z"/><path class="cls-2" d="M90.33,124h-47A1.85,1.85,0,0,1,42,120.81L57.49,105h47.33A14.57,14.57,0,0,0,90.33,92V89a17.5,17.5,0,0,1,17.43,15.89A14.52,14.52,0,0,0,106.05,76V73a17.47,17.47,0,0,1,1.73,34.85A17.52,17.52,0,0,1,90.33,124ZM45.89,121H90.33A14.58,14.58,0,0,0,104.82,108H58.73Z"/></g></g></svg>