<svg xmlns="http://www.w3.org/2000/svg" viewBox="0 0 165 165"><defs><style>.cls-1{fill:#74152a;}.cls-2,.cls-3,.cls-4{fill:#fff;}.cls-3{fill-rule:evenodd;}.cls-4{font-size:5.98px;font-family:MyriadPro-Semibold, Myriad Pro;font-weight:600;letter-spacing:0.3em;}.cls-5{letter-spacing:0.3em;}.cls-6{letter-spacing:0.72em;}.cls-7{letter-spacing:0.72em;}.cls-8{letter-spacing:0.29em;}</style></defs><g id="Capa_2" data-name="Capa 2"><g id="Capa_1-2" data-name="Capa 1"><rect class="cls-1" width="165" height="165"/><path class="cls-2" d="M95.51,56.88v8.68l1.73-1.74V56.88a5.76,5.76,0,0,0-5.76-5.59h-2L87.7,53h4.07A4,4,0,0,1,95.51,56.88Z"/><path class="cls-2" d="M87.23,68h0A5.74,5.74,0,0,0,83,69.87h0l-4.26,4.27,0,2.45,5.3-5.3.31-.29a4,4,0,0,1,2.89-1.22h7.56V68Z"/><path class="cls-2" d="M69.49,75.06v-10l-1.73,1.74v8.24a5.75,5.75,0,0,0,5.76,5.58h2l1.73-1.73H73.23A4,4,0,0,1,69.49,75.06Z"/><path class="cls-2" d="M80.22,60.46h0l6.64-6.64v9h0a3.47,3.47,0,0,0,3.38,3.32h4.64V57.11h0a3.46,3.46,0,0,0-3.37-3.46H79s0,0-.38.09a4,4,0,0,0-1.56.93h0L70.2,61.48H78A3.54,3.54,0,0,0,80.22,60.46Zm11.16-5.08a1.71,1.71,0,0,1,1.73,1.71v0h0v7.34H90.36a1.71,1.71,0,0,1-1.73-1.71v0h0V55.38ZM77.77,59.71H74.45l3.81-3.81h0a1.78,1.78,0,0,1,.84-.46h3.66L79,59.2h0a1.71,1.71,0,0,1-1.2.51Z"/><path class="cls-2" d="M77.73,63.84h0A5.94,5.94,0,0,0,82,62h0l4.19-4.2V55.31l-5.3,5.29-.31.29a4,4,0,0,1-2.89,1.22H70.17v1.73Z"/><path class="cls-2" d="M84.8,71.42h0l-6.66,6.66V67.78h0a3.47,3.47,0,0,0-3.38-3.32H70.12V74.83h0a3.45,3.45,0,0,0,3.37,3.45H86.05l.38-.08A4,4,0,0,0,88,77.26h0l6.91-6.91H87A3.58,3.58,0,0,0,84.8,71.42ZM73.62,76.55a1.71,1.71,0,0,1-1.73-1.7v0h0V66.19h2.75a1.71,1.71,0,0,1,1.73,1.71v0h0v8.63Zm13.67-4.42h3.33L86.71,76h0a1.7,1.7,0,0,1-.85.47H82.19l3.87-3.87h0a1.71,1.71,0,0,1,1.2-.51Z"/><path class="cls-3" d="M133.46,86.08a.85.85,0,0,1,.43.12.76.76,0,0,1,.32.32.82.82,0,0,1,.12.43.85.85,0,0,1-.12.43.71.71,0,0,1-.32.32.83.83,0,0,1-.86,0,.71.71,0,0,1-.32-.32.85.85,0,0,1-.12-.43.89.89,0,0,1,.44-.75.88.88,0,0,1,.43-.12Zm0,.15a.8.8,0,0,0-.36.09.7.7,0,0,0-.27.27.76.76,0,0,0,0,.72.87.87,0,0,0,.27.27.8.8,0,0,0,.36.09.74.74,0,0,0,.36-.09.78.78,0,0,0,.27-.27.77.77,0,0,0,0-.72.7.7,0,0,0-.27-.27.8.8,0,0,0-.36-.09Zm-.38,1.2V86.5h.32l.24,0a.27.27,0,0,1,.12.09.37.37,0,0,1,0,.14.29.29,0,0,1-.07.18.28.28,0,0,1-.2.08l.08,0a.84.84,0,0,1,.14.19l.11.18h-.18l-.08-.15a.71.71,0,0,0-.16-.21.16.16,0,0,0-.12,0h-.09v.4Zm.15-.53h.18a.36.36,0,0,0,.18,0,.14.14,0,0,0,0-.18.18.18,0,0,0-.07,0,.4.4,0,0,0-.15,0h-.17v.28Z"/><path class="cls-3" d="M133.46,104.29a.84.84,0,0,1,.43.11.76.76,0,0,1,.32.32.85.85,0,0,1,.12.43.82.82,0,0,1-.12.43.78.78,0,0,1-.32.33.9.9,0,0,1-.86,0,.78.78,0,0,1-.32-.33.82.82,0,0,1-.12-.43.85.85,0,0,1,.12-.43.82.82,0,0,1,.32-.32.86.86,0,0,1,.43-.11Zm0,.14a.8.8,0,0,0-.36.09.78.78,0,0,0-.27.27.8.8,0,0,0-.09.36.74.74,0,0,0,.09.36.7.7,0,0,0,.27.27.81.81,0,0,0,.36.1.75.75,0,0,0,.36-.1.64.64,0,0,0,.27-.27.74.74,0,0,0,.09-.36.8.8,0,0,0-.09-.36.78.78,0,0,0-.27-.27.8.8,0,0,0-.36-.09Zm-.38,1.2v-.93h.32a.7.7,0,0,1,.24,0,.18.18,0,0,1,.12.09.28.28,0,0,1,0,.13.29.29,0,0,1-.07.18.28.28,0,0,1-.2.08l.08.05a.84.84,0,0,1,.14.19l.11.18h-.18l-.08-.15a.9.9,0,0,0-.16-.21.21.21,0,0,0-.12,0h-.09v.39Zm.15-.52h.18a.34.34,0,0,0,.18,0,.14.14,0,0,0,0-.11.19.19,0,0,0,0-.07.18.18,0,0,0-.07,0h-.32v.28Z"/><path class="cls-2" d="M55.89,86.12H54.12a1.75,1.75,0,0,0-1.25.51h0L42.35,97.15H32.78a.44.44,0,0,1-.34-.43h0V88.33h0a.44.44,0,0,1,.44-.44H43.07V86.12H32.44a1.77,1.77,0,0,0-1.77,1.77v9.26h0a1.77,1.77,0,0,0,1.62,1.76H43.08L46.6,95.4h5.74l1.77-1.77H48.37l5.74-5.74h0v11H55.9V86.12Z"/><path class="cls-2" d="M63.62,87.71a1.76,1.76,0,0,0-1.76-1.59H56.54V87.9h5.32v11h1.77v-11h5.31V86.13H63.62Z"/><path class="cls-2" d="M116.33,86.63h0l-9.78,9.78V86.12h-1.77a1.75,1.75,0,0,0-1.24.51h0l-9.78,9.79V86.12H92a1.77,1.77,0,0,0-1.28.54L80.2,97.15H71.69a.44.44,0,0,1-.34-.43h0V93.4h7.08l1.77-1.76H71.35V88.33h0a.44.44,0,0,1,.44-.44h8.4V86.12H71.35a1.77,1.77,0,0,0-1.77,1.77v9.28a1.77,1.77,0,0,0,1.57,1.75h9.78l11-11h0v11h1.77l11-11h0v11h1.76l3.52-3.51h5.74l1.77-1.77h-5.74l5.74-5.74h0v11h1.77V86.12h-1.77A1.75,1.75,0,0,0,116.33,86.63Z"/><path class="cls-2" d="M126,93.62h3.45A1.6,1.6,0,0,0,131,92V87.89a1.76,1.76,0,0,0-1.76-1.77H120v12.8h1.77V91.86l6.89,6.88h2.5Zm-4.27-5.73h7.07a.44.44,0,0,1,.45.44h0v3.09a.44.44,0,0,1-.35.43h-7.17Z"/><text class="cls-4" transform="translate(30.74 108.49)">L<tspan class="cls-5" x="4.77" y="0">A</tspan><tspan class="cls-6" x="10.36" y="0"> </tspan><tspan class="cls-5" x="15.88" y="0">GENTE</tspan><tspan class="cls-7" x="42.17" y="0"> </tspan><tspan class="cls-5" x="47.68" y="0">DEL</tspan><tspan class="cls-7" x="63.18" y="0"> </tspan><tspan class="cls-8" x="68.69" y="0">M</tspan><tspan class="cls-5" x="75.4" y="0">ÁRMOL</tspan></text></g></g></svg>