<svg xmlns="http://www.w3.org/2000/svg" viewBox="0 0 165 165"><defs><style>.cls-1{fill:#fff;}.cls-2{fill:#272525;}.cls-3{fill:none;}</style></defs><g id="Capa_2" data-name="Capa 2"><g id="Capa_1-2" data-name="Capa 1"><rect class="cls-1" width="165" height="165"/><path class="cls-2" d="M40.73,77a.51.51,0,0,0-.58.58v14a.63.63,0,0,0,.71.71h.31v.31H32.9v-.31h.31a.63.63,0,0,0,.71-.71V62.52a.62.62,0,0,0-.71-.71H32.9V61.5h8.27v.31h-.31a.63.63,0,0,0-.71.71V76.08a.51.51,0,0,0,.58.58H50c.41,0,.62-.19.62-.58V62.52a.63.63,0,0,0-.71-.71h-.36V61.5h8.32v.31h-.31a.62.62,0,0,0-.71.71V91.6a.63.63,0,0,0,.71.71h.31v.31H49.53v-.31h.36a.63.63,0,0,0,.71-.71v-14A.51.51,0,0,0,50,77Z"/><path class="cls-2" d="M70,62a1.65,1.65,0,0,0-1.25-.53A1.81,1.81,0,0,0,67,63.29a1.65,1.65,0,0,0,.53,1.25,1.77,1.77,0,0,0,1.28.51,1.74,1.74,0,0,0,1.76-1.76A1.77,1.77,0,0,0,70,62Zm4.85,0a1.69,1.69,0,0,0-1.26-.53,1.81,1.81,0,0,0-1.8,1.81,1.62,1.62,0,0,0,.53,1.25,1.75,1.75,0,0,0,1.27.51,1.71,1.71,0,0,0,1.26-.51,1.67,1.67,0,0,0,.51-1.25A1.77,1.77,0,0,0,74.88,62Z"/><path class="cls-2" d="M101.31,74.73V90.28a1,1,0,0,1-.53,1,9.47,9.47,0,0,1-3.08,1c-.35,0-.7,0-1.06,0a7.91,7.91,0,0,1-1.14-.09,4.94,4.94,0,0,1-1.22-.34,4.28,4.28,0,0,1-1.12-.66A2.93,2.93,0,0,1,92.32,90a9.39,9.39,0,0,1-.68-3.64c0-1.55-.07-3.36-.07-5.45V69a.63.63,0,0,1,.71-.71h.31V68H84.38v.31h.31a.62.62,0,0,1,.7.71V81.3a10.94,10.94,0,0,0,.89,4.39,11.32,11.32,0,0,0,2.4,3.58,11.49,11.49,0,0,0,3.58,2.4,11,11,0,0,0,4.25.88l0,0a10.23,10.23,0,0,0,1.25-.08,10.64,10.64,0,0,0,3.26-.83c.09,0,.17-.1.27-.14v.16c0,.39-.21.58-.62.58h-.26v.31h7.9v-.31h-.27a.51.51,0,0,1-.57-.58v-17"/><path class="cls-2" d="M82.15,91.77c0,.38.21.57.62.57H83v.31h-7.9v-.31h.27a.5.5,0,0,0,.57-.57V89.83c0-.21-.07-.24-.22-.09a10.41,10.41,0,0,1-3.06,2.12,9.27,9.27,0,0,1-7.35.06,9.42,9.42,0,0,1-3-2,9.94,9.94,0,0,1-2.08-3,10.27,10.27,0,0,1-.77-3.7c-.29-4.54.25-8.35.75-9.47a10.16,10.16,0,0,1,2-3,9.36,9.36,0,0,1,3-2.05A9.08,9.08,0,0,1,68.91,68a9.44,9.44,0,0,1,3.75.75,9,9,0,0,1,3.09,2.16c.06.06.11.07.16,0a.14.14,0,0,0,.06-.13V68h.31a9.62,9.62,0,0,0,2.92,2.58A9.42,9.42,0,0,0,83,71.75v.31h-.26c-.41,0-.62.19-.62.58ZM76,72.28a1.67,1.67,0,0,0-.48-1.23,9.12,9.12,0,0,0-6.58-2.78h-.09a2.35,2.35,0,0,0-1.72.66,4.51,4.51,0,0,0-1,2.89c-.1,1.34-.14,2.83-.11,4.48v8c0,1.68,0,3.18.11,4.5a4.65,4.65,0,0,0,1,2.91,2.49,2.49,0,0,0,1.72.62h.09a8.76,8.76,0,0,0,3.62-.75,9.23,9.23,0,0,0,2.92-2A1.5,1.5,0,0,0,76,88.33Z"/><path class="cls-3" d="M111.8,65.07c0,.08,0,.14.07.21S111.82,65.14,111.8,65.07Z"/><path d="M111.8,65.07a5.14,5.14,0,0,1,.22-3.55s0,0,0,0H112a10.93,10.93,0,0,0-2,3.05,10.83,10.83,0,0,0,.8,9.95,10.74,10.74,0,0,0,4.29,3.91l0,0,12.32,6.1a5,5,0,0,1,1.87,1.71,4.57,4.57,0,0,1,.71,2.53,1.94,1.94,0,0,1,0,.24,6.12,6.12,0,0,1-1.51,3.59h.24A12.43,12.43,0,0,0,131.14,89a11.73,11.73,0,0,0,1-4.73,11.59,11.59,0,0,0-1.9-6.52,12.72,12.72,0,0,0-4.86-4.42L113.9,67.67a4.59,4.59,0,0,1-1.62-1.51,3.23,3.23,0,0,1-.26-.57c0-.1-.11-.21-.15-.31S111.82,65.15,111.8,65.07Z"/><path d="M130,68.17V61.49h-.38v1.07a.38.38,0,0,1-.28.41.33.33,0,0,1-.43-.19,12.76,12.76,0,0,0-1-1.29h-.52A10.68,10.68,0,0,1,129,63.66a5.5,5.5,0,0,1,.44.88,3.22,3.22,0,0,1,.22,1.15v2.48Z"/><rect class="cls-1" x="129.63" y="61.46" width="0.38" height="0.03"/><path class="cls-1" d="M112,65.59a3,3,0,0,1-.15-.31C111.91,65.38,112,65.49,112,65.59Z"/><path class="cls-2" d="M107.49,81.07V69a.62.62,0,0,1,.7-.7h.31V68h-8.21v.31h.31a.62.62,0,0,1,.71.7V81.42"/><path d="M98,103.54H67V98.17H98Zm-30.71-.38H97.67V98.54H67.33Z"/><path class="cls-2" d="M71.35,100.07c0-.4-.19-.64-.58-.64a.56.56,0,0,0-.61.58c0,1,1.56.43,1.56,1.57a.87.87,0,0,1-1,.94.85.85,0,0,1-.94-1v-.09h.29v.12a.67.67,0,1,0,1.33,0c0-1-1.56-.41-1.56-1.58a.81.81,0,0,1,.89-.85.78.78,0,0,1,.88.88Z"/><path class="cls-2" d="M75.42,99.48h-.84v-.24h2v.24h-.83v3h-.29Z"/><path class="cls-2" d="M79.48,99.24h.29v2.32q0,.72.63.72t.63-.72V99.24h.29v2.32c0,.68-.33,1-.92,1s-.92-.28-.92-1Z"/><path class="cls-2" d="M84.49,99.24h.78c.94,0,1.16.56,1.16,1.62s-.22,1.61-1.16,1.61h-.78Zm.29,3h.47c.63,0,.9-.32.9-1.37s-.27-1.38-.9-1.38h-.47Z"/><path class="cls-2" d="M89.64,99.24h.29v3.23h-.29Z"/><path class="cls-2" d="M94.16,99.19c.66,0,1,.51,1,1.67s-.37,1.66-1,1.66-1-.51-1-1.66S93.5,99.19,94.16,99.19Zm0,3.09c.47,0,.74-.38.74-1.42s-.27-1.43-.74-1.43-.74.38-.74,1.43S93.7,102.28,94.16,102.28Z"/></g></g></svg>