<svg xmlns="http://www.w3.org/2000/svg" viewBox="0 0 165 165"><defs><style>.cls-1{fill:#fff;}</style></defs><g id="Capa_2" data-name="Capa 2"><g id="Capa_1-2" data-name="Capa 1"><rect width="165" height="165"/><polygon class="cls-1" points="32.87 50.78 36.93 50.78 36.93 89.44 47.35 89.44 47.35 93.44 32.88 93.44 32.87 50.78"/><polygon class="cls-1" points="132.13 71.56 128.07 71.56 128.07 110.23 117.65 110.22 117.65 114.23 132.13 114.23 132.13 71.56"/><polygon class="cls-1" points="51.39 50.78 67.86 50.78 67.86 54.78 55.45 54.78 55.45 72.66 65.32 72.66 65.32 76.67 55.45 76.67 55.45 89.45 67.86 89.44 67.86 93.45 51.39 93.45 51.39 50.78"/><polygon class="cls-1" points="113.61 71.56 97.14 71.56 97.14 75.56 109.55 75.56 109.55 93.44 99.68 93.44 99.68 97.45 109.55 97.45 109.55 110.24 97.14 110.23 97.14 114.23 113.61 114.23 113.61 71.56"/><polygon class="cls-1" points="71.9 50.77 75.97 50.78 82.4 89.44 83.14 89.44 89.07 50.78 93.11 50.78 86.59 93.44 79.04 93.44 71.9 50.77"/><path class="cls-1" d="M83.81,105.41a2.81,2.81,0,0,0,0-4.28,3.39,3.39,0,0,0-1.91-.49H79.34v5.25H81.9A3.44,3.44,0,0,0,83.81,105.41Z"/><path class="cls-1" d="M32.87,114.23H93.1V97.49H32.87ZM78.12,99.46H81.9a4.57,4.57,0,0,1,2.6.7,4,4,0,0,1,0,6.23,4.69,4.69,0,0,1-2.6.69H79.34v5H78.12Zm-9.54.12H69.8v8.83a2.5,2.5,0,0,0,.79,1.87,2.66,2.66,0,0,0,1.94.77,2.6,2.6,0,0,0,1.92-.77,2.47,2.47,0,0,0,.8-1.87V99.58h1.23v8.83a3.64,3.64,0,0,1-1.16,2.7,4.07,4.07,0,0,1-5.59,0,3.65,3.65,0,0,1-1.15-2.7ZM59,103.27a3.61,3.61,0,0,1,1.15-2.7,4.07,4.07,0,0,1,5.59,0,3.63,3.63,0,0,1,1.15,2.7v5.14a3.63,3.63,0,0,1-1.15,2.7,4.07,4.07,0,0,1-5.59,0,3.61,3.61,0,0,1-1.15-2.7Zm-9.55-3.81h3.78a4.59,4.59,0,0,1,2.6.7,3.47,3.47,0,0,1,1.52,3.11A3.38,3.38,0,0,1,55,106.81l2.54,5-1.1.48-2.68-5.23h-.08l-.41,0H50.71v5H49.49ZM40,103.27a3.56,3.56,0,0,1,1.29-2.84,4.06,4.06,0,0,1,2.66-1h3.81v1.18H43.9a2.73,2.73,0,0,0-1.85.68,2.41,2.41,0,0,0-.88,2v5.14a2.49,2.49,0,0,0,.77,1.89,2.65,2.65,0,0,0,2,.75h2.72v-5.26H44.76V104.6h3.09v7.62h-4a3.93,3.93,0,0,1-2.82-1.09A3.65,3.65,0,0,1,40,108.41Z"/><path class="cls-1" d="M55.18,105.41a2.82,2.82,0,0,0,0-4.28,3.35,3.35,0,0,0-1.9-.49H50.71v5.25h2.56A3.47,3.47,0,0,0,55.18,105.41Z"/><path class="cls-1" d="M63,111.05a2.62,2.62,0,0,0,1.92-.77,2.47,2.47,0,0,0,.8-1.87v-5.14a2.44,2.44,0,0,0-.8-1.86,2.62,2.62,0,0,0-1.92-.77,2.66,2.66,0,0,0-1.94.77,2.44,2.44,0,0,0-.8,1.86v5.14a2.47,2.47,0,0,0,.8,1.87A2.66,2.66,0,0,0,63,111.05Z"/></g></g></svg>