<svg xmlns="http://www.w3.org/2000/svg" viewBox="0 0 165 165"><defs><style>.cls-1{fill:#f05b2d;}.cls-2{fill:none;}.cls-3{fill:#fff;}</style></defs><g id="Capa_2" data-name="Capa 2"><g id="Capa_1-2" data-name="Capa 1"><rect class="cls-1" width="165" height="165"/><g id="Layer_2" data-name="Layer 2"><g id="Layer_1-2" data-name="Layer 1-2"><path class="cls-2" d="M142.71,138.72H22.29V26.28H142.71Zm-24.1-86.28a8.4,8.4,0,0,0-4.3-7.62,7.79,7.79,0,0,0-2.69-1,8.61,8.61,0,0,0-3.5.14,9.23,9.23,0,0,0-3,1.41,7.76,7.76,0,0,0-1.93,2,11.78,11.78,0,0,0-1,2.16,7.17,7.17,0,0,0-.43,2.83,8.56,8.56,0,0,0,.6,2.87.4.4,0,0,1-.15.51l-1.91,1.63c-1.66,1.44-3.31,2.87-5,4.33a.42.42,0,0,1-.59,0A15.69,15.69,0,0,0,93,60.67c-1-.48-2-.9-3-1.3a20.92,20.92,0,0,0-2.49-.72A14.89,14.89,0,0,0,84,58.21a32.86,32.86,0,0,0-3.59.13,14.83,14.83,0,0,0-2.64.51A25.75,25.75,0,0,0,74.54,60c-1,.42-1.89,1-2.83,1.49a.31.31,0,0,1-.43-.05l0,0c-1.16-1.32-2.33-2.64-3.49-4l-6.16-7c-.34-.39-.36-.42-.07-.9A9.59,9.59,0,0,0,63,44.66a9.91,9.91,0,0,0-1.15-4.92,11.53,11.53,0,0,0-2.06-2.84,10.5,10.5,0,0,0-3.11-2.11A9.35,9.35,0,0,0,53.25,34c-.24,0-.47-.1-.72-.1s-.54.08-.81.1a9.14,9.14,0,0,0-3.44.9,10.57,10.57,0,0,0-2.94,2,9.79,9.79,0,0,0-2,2.69,15.11,15.11,0,0,0-.77,1.69A11.14,11.14,0,0,0,42,44.9a9.91,9.91,0,0,0,1.79,5.2A10.63,10.63,0,0,0,52,54.78a9.68,9.68,0,0,0,4.71-.9.41.41,0,0,1,.55.07c.63.73,1.28,1.46,1.92,2.19l4.93,5.62L67,65.07a.28.28,0,0,1,0,.4l0,0c-.69.9-1.43,1.85-2,2.83a22.61,22.61,0,0,0-1.49,2.79,28.42,28.42,0,0,0-.89,2.7,16,16,0,0,0-.7,4,20.82,20.82,0,0,0,.52,6.39A20,20,0,0,0,64,88.6a.4.4,0,0,1-.09.56h0l-2.25,2c-.74.66-1.68,1.42-2.46,2.21a2.74,2.74,0,0,0,.09,3.77,2.79,2.79,0,0,0,3.92.12c1.32-1.09,2.61-2.24,3.89-3.38.24-.22.36-.2.57,0a27.43,27.43,0,0,0,2,1.88,17.61,17.61,0,0,0,3.9,2.5,28.16,28.16,0,0,0,3.13,1.28,26.73,26.73,0,0,0,3,.78,19.6,19.6,0,0,0,6,.09.26.26,0,0,1,.34.17.13.13,0,0,1,0,.06c.19.83.39,1.64.58,2.47l1,4.18c.17.75.33,1.51.51,2.25,0,.18,0,.31-.17.39s-.2.13-.31.18A11.15,11.15,0,0,0,84,125.92a11.11,11.11,0,0,0,9.72,4.9,11.16,11.16,0,0,0,7.95-3.81,11.42,11.42,0,0,0,2.1-3.64,11.12,11.12,0,0,0,.63-3.71,10.47,10.47,0,0,0-.64-3.67,12,12,0,0,0-1.32-2.6,11,11,0,0,0-4.16-3.58,10.25,10.25,0,0,0-4.26-1.21.36.36,0,0,1-.41-.31c-.18-.74-.35-1.48-.52-2.22-.3-1.28-.59-2.56-.9-3.83-.24-1-.49-2.07-.74-3.09a.41.41,0,0,1,.24-.51h0c.54-.25,1.08-.51,1.6-.81A20.9,20.9,0,0,0,98,94.24a19.74,19.74,0,0,0,3.82-5.38,24.89,24.89,0,0,0,1.27-3A21.29,21.29,0,0,0,103.69,75a20,20,0,0,0-1.52-4.57,21.89,21.89,0,0,0-2.52-4.11c-.42-.54-.42-.53.1-1,2-1.74,4.06-3.49,6.06-5.26a.9.9,0,0,1,1.15-.23,8.05,8.05,0,0,0,3.85.63,8.37,8.37,0,0,0,7.78-8.08ZM31.68,112.32h-.09c.11.8.21,1.61.37,2.4a9.19,9.19,0,0,0,.9,2.39,10.12,10.12,0,0,0,1.86,2.55,10,10,0,0,0,2.52,1.85,10.1,10.1,0,0,0,2.81,1,10.38,10.38,0,0,0,5.16-.26,10.68,10.68,0,0,0,6.47-5.84,10.28,10.28,0,0,0-.11-8.53.41.41,0,0,1,.1-.57l0,0c1.16-1,2.29-2,3.47-2.89a2.88,2.88,0,0,0,1-3.69,2.75,2.75,0,0,0-3.66-1.32l-.2.11a10.6,10.6,0,0,0-1.55,1.21c-1,.8-1.92,1.61-2.88,2.44-.21.17-.38.26-.65.08a5.14,5.14,0,0,0-1.16-.61c-.82-.26-1.68-.5-2.53-.68a9,9,0,0,0-4.48.35,10.47,10.47,0,0,0-3.32,1.79A10.59,10.59,0,0,0,32,110q-.13.77-.24,1.53A6.45,6.45,0,0,0,31.68,112.32Zm81.63-35.77h-1.72a2.93,2.93,0,0,0-2.87,2.2,2.8,2.8,0,0,0,2.12,3.36,2.57,2.57,0,0,0,.4.06H115a.39.39,0,0,1,.45.29c.15.43.33.84.51,1.24a9.58,9.58,0,0,0,5.38,4.8,13.52,13.52,0,0,0,1.53.47,6.89,6.89,0,0,0,1.43.16,11.76,11.76,0,0,0,2.45-.22,10.42,10.42,0,0,0,2.49-.89,9.7,9.7,0,0,0,2.46-1.9A9.22,9.22,0,0,0,134,82.25a8.13,8.13,0,0,0,.29-4.61c-.2-.62-.31-1.27-.55-1.87A8.31,8.31,0,0,0,132,72.89a16,16,0,0,0-2-1.76A8.57,8.57,0,0,0,127.42,70a9.23,9.23,0,0,0-2.91-.41,9.48,9.48,0,0,0-2.69.45,10.57,10.57,0,0,0-3,1.52,8.81,8.81,0,0,0-2.37,2.57,17.78,17.78,0,0,0-1,2.16.37.37,0,0,1-.4.27Z"/><path class="cls-3" d="M118.61,52.44a8.49,8.49,0,0,1-5.3,7.53,8.17,8.17,0,0,1-2.49.55,7.91,7.91,0,0,1-3.84-.63.91.91,0,0,0-1.15.24c-2,1.79-4,3.51-6.06,5.25-.52.45-.52.44-.1,1a21.89,21.89,0,0,1,2.52,4.11,20.53,20.53,0,0,1,1.52,4.58,21.29,21.29,0,0,1-.58,10.86,24.75,24.75,0,0,1-1.27,3A19.63,19.63,0,0,1,98,94.3a21.4,21.4,0,0,1-4.67,3.58c-.52.3-1.06.56-1.6.81a.4.4,0,0,0-.27.49v0c.25,1,.49,2.06.74,3.09.29,1.27.58,2.56.89,3.84.17.73.34,1.48.52,2.21a.39.39,0,0,0,.42.32,10.12,10.12,0,0,1,4.26,1.16,11.06,11.06,0,0,1,4.16,3.58,12.56,12.56,0,0,1,1.3,2.59,10.47,10.47,0,0,1,.64,3.67,11.12,11.12,0,0,1-.63,3.71,11.42,11.42,0,0,1-2.1,3.64,11.16,11.16,0,0,1-7.95,3.81,11.09,11.09,0,0,1-4.19-.62,11,11,0,0,1-5.52-4.28,11.15,11.15,0,0,1,3.61-15.84c.11,0,.2-.13.31-.18a.36.36,0,0,0,.17-.39c-.18-.74-.34-1.5-.51-2.25l-1-4.18c-.19-.83-.39-1.64-.58-2.47a.26.26,0,0,0-.29-.24h-.06a19.67,19.67,0,0,1-6-.09,26.08,26.08,0,0,1-3.06-.69,26.68,26.68,0,0,1-3.13-1.28,17.44,17.44,0,0,1-3.91-2.5,27.43,27.43,0,0,1-2-1.88c-.21-.23-.33-.24-.57,0-1.28,1.14-2.57,2.28-3.89,3.38a2.81,2.81,0,0,1-4-3.95c.77-.79,1.63-1.48,2.45-2.2l2.25-2a.4.4,0,0,0,.11-.56h0a19.78,19.78,0,0,1-1.58-4.38,20.56,20.56,0,0,1-.53-6.4,16,16,0,0,1,.7-4,28.23,28.23,0,0,1,.89-2.69,24,24,0,0,1,1.47-2.8c.62-1,1.36-1.89,2-2.82a.29.29,0,0,0,0-.41l0,0-2.9-3.31-4.92-5.65c-.65-.72-1.29-1.45-1.93-2.19a.42.42,0,0,0-.55-.06,9.8,9.8,0,0,1-4.71.9,10.62,10.62,0,0,1-8.12-4.7A9.91,9.91,0,0,1,42,44.9a11.07,11.07,0,0,1,.48-3.79,15.18,15.18,0,0,1,.78-1.69,9.81,9.81,0,0,1,2-2.69,10.85,10.85,0,0,1,3-1.94,9.07,9.07,0,0,1,3.43-.89c.27,0,.55-.1.82-.1s.48.09.72.1a9.15,9.15,0,0,1,3.41.84,10.44,10.44,0,0,1,3.11,2.11,11.68,11.68,0,0,1,2,2.89,9.89,9.89,0,0,1,1.1,5,9.59,9.59,0,0,1-1.43,4.86c-.29.44-.27.47.07.89l6.16,7c1.16,1.32,2.32,2.69,3.49,4a.31.31,0,0,0,.42.09l0,0c.94-.5,1.85-1.06,2.82-1.49A26.42,26.42,0,0,1,77.7,59a14.73,14.73,0,0,1,2.63-.51c1.19-.12,2.39-.13,3.59-.14a15.58,15.58,0,0,1,3.53.44,21.36,21.36,0,0,1,2.48.73c1,.38,2,.82,3,1.29.61.34,1.21.71,1.79,1.11a.39.39,0,0,0,.58,0c1.7-1.52,3.35-3,5-4.44l1.91-1.66a.39.39,0,0,0,.15-.51,8.51,8.51,0,0,1-.6-2.87,7,7,0,0,1,.43-2.8,11.91,11.91,0,0,1,1-2.13,7.81,7.81,0,0,1,1.94-2,9,9,0,0,1,3-1.42,8.61,8.61,0,0,1,3.5-.13,7.79,7.79,0,0,1,2.69,1,8.41,8.41,0,0,1,4.3,7.62ZM87.78,119.7a5.52,5.52,0,1,0,5.52-5.51h0a5.5,5.5,0,0,0-5.5,5.5ZM113,52.14a3.32,3.32,0,1,0,0,.07v-.07Z"/><path class="cls-3" d="M31.68,112.32a5,5,0,0,1,0-.77c.06-.51.14-1,.24-1.54a10.92,10.92,0,0,1,7.15-7.71,9,9,0,0,1,4.48-.34,23.36,23.36,0,0,1,2.53.67,5.14,5.14,0,0,1,1.16.61c.27.18.44.09.65-.08,1-.83,1.92-1.64,2.89-2.44a10.53,10.53,0,0,1,1.54-1.19,2.76,2.76,0,0,1,3.77,1,2.4,2.4,0,0,1,.11.23,2.88,2.88,0,0,1-1,3.67c-1.18.9-2.31,1.93-3.47,2.89a.41.41,0,0,0-.15.57l0,0a10.32,10.32,0,0,1,.13,8.53,10.8,10.8,0,0,1-6.47,5.84,10.62,10.62,0,0,1-5.16.26,10.32,10.32,0,0,1-2.81-1,9.59,9.59,0,0,1-2.52-1.85,10.12,10.12,0,0,1-1.86-2.55,9.19,9.19,0,0,1-.9-2.39c-.16-.79-.26-1.6-.37-2.4Z"/><path class="cls-3" d="M113.28,76.52h1.8a.38.38,0,0,0,.4-.27,17.19,17.19,0,0,1,1-2.13,9,9,0,0,1,2.37-2.54,10.69,10.69,0,0,1,3-1.51,9.42,9.42,0,0,1,2.69-.45,9.2,9.2,0,0,1,2.9.4,8.93,8.93,0,0,1,2.48,1.11,14.86,14.86,0,0,1,2,1.8,8,8,0,0,1,1.79,2.88c.24.6.35,1.24.55,1.86a8.25,8.25,0,0,1,.13,2.93,8.1,8.1,0,0,1-.42,1.68,9.19,9.19,0,0,1-2.26,3.84,10,10,0,0,1-2.52,1.9,10.34,10.34,0,0,1-2.48.89,11.88,11.88,0,0,1-2.45.22,7.06,7.06,0,0,1-1.44-.16,14,14,0,0,1-1.52-.47,9.58,9.58,0,0,1-5.38-4.8c-.18-.4-.36-.81-.51-1.24a.39.39,0,0,0-.45-.29h-3.8a2.81,2.81,0,0,1-2.58-3,2.76,2.76,0,0,1,.06-.4,2.93,2.93,0,0,1,2.93-2.23Z"/><path class="cls-2" d="M87.78,119.7a5.52,5.52,0,1,1,5.52,5.52h0a5.5,5.5,0,0,1-5.5-5.5Z"/><path class="cls-2" d="M113,52.14a2.8,2.8,0,1,1-5.6.32,1.71,1.71,0,0,1,0-.32,2.8,2.8,0,0,1,5.6,0Z"/></g></g></g></g></svg>