<svg xmlns="http://www.w3.org/2000/svg" viewBox="0 0 165 165"><defs><style>.cls-1{fill:#1b2b30;}.cls-2{fill:#fff;}</style></defs><g id="Capa_2" data-name="Capa 2"><g id="Capa_1-2" data-name="Capa 1"><rect class="cls-1" width="165" height="165"/><path class="cls-2" d="M83.62,74.46V65.59l10.82-6.27V47.81L83.62,54.43V48.86H82.23V63.6L71.42,57v11.5l10.81,6.28V87.45L59.5,74.05V87.39l22.73,13.73v.25h1.39V88.13l18.07-10.91h.16v-.08l4.51-2.73V61.06Zm-10.81-6.8V59.49l9.42,5.77v7.87Zm9.42,21.43V99.47L60.88,86.57V76.51ZM93.05,50.32v8.17L83.62,64V56.08ZM85.91,74.73V85.08l-2.29,1.38V76.08Zm3.84-2.26V82.76l-2.44,1.47V73.91Zm3.85-2.26V80.44l-2.44,1.47V71.64Zm3.84-2.27V78.12L95,79.59V69.38Zm3.84-2.26V75.8l-2.44,1.47V67.11ZM105,63.5V73.57L102.69,75V64.85Z"/><polygon class="cls-2" points="47.09 109.56 46.17 109.56 46.17 117.07 50.82 117.07 50.82 116.15 47.09 116.15 47.09 109.56"/><path class="cls-2" d="M55.16,109.56,52,117.07h1l.71-1.74h3.69l.73,1.74h1L56,109.56Zm-1.07,4.85,1.48-3.59L57,114.41Z"/><polygon class="cls-2" points="71.42 115.58 69.54 109.56 68.96 109.56 67.07 115.58 65.18 109.56 64.21 109.56 66.66 117.09 67.51 117.09 68.61 113.6 69.25 111.46 69.89 113.62 70.99 117.09 71.83 117.09 74.3 109.56 73.33 109.56 71.42 115.58"/><rect class="cls-2" x="76.14" y="109.56" width="0.91" height="7.51"/><path class="cls-2" d="M82.34,112.77l-.07,0c-1.16-.23-1.87-.42-1.87-1.14,0-1.2,1.62-1.24,1.8-1.24a1.88,1.88,0,0,1,1.84.86l.11.19.76-.49-.11-.17a2.66,2.66,0,0,0-2.59-1.3,3.15,3.15,0,0,0-2.19.77,1.85,1.85,0,0,0-.53,1.4c0,1.48,1.38,1.77,2.61,2s2,.48,2,1.32c0,1.18-1.34,1.3-1.91,1.3a2.35,2.35,0,0,1-2.08-1.17l-.09-.19-.82.43.09.18a3.13,3.13,0,0,0,2.9,1.66c.66,0,2.81-.16,2.82-2.2C85,113.32,83.6,113,82.34,112.77Z"/><polygon class="cls-2" points="86.62 110.46 89.01 110.46 89.01 117.07 89.93 117.07 89.93 110.46 92.33 110.46 92.33 109.57 86.62 109.57 86.62 110.46"/><polygon class="cls-2" points="95.22 113.74 99.1 113.74 99.1 112.84 95.22 112.84 95.22 110.48 99.29 110.48 99.29 109.56 94.31 109.56 94.31 117.07 99.4 117.07 99.4 116.14 95.22 116.14 95.22 113.74"/><path class="cls-2" d="M106.4,113.71a2.38,2.38,0,0,0,.65-1.74,2.33,2.33,0,0,0-2.38-2.41h-3.12v7.51h.92v-2.69H104l2.29,2.69h1.21l-2.36-2.75A2.2,2.2,0,0,0,106.4,113.71Zm-1.79-.25h-2.14v-3h2.2a1.33,1.33,0,0,1,1,.39,1.55,1.55,0,0,1,.42,1.1A1.35,1.35,0,0,1,104.61,113.46Z"/><polygon class="cls-2" points="109.1 108.88 109.1 109.18 109.86 109.18 110.8 107.85 110.83 107.78 110.83 107.52 109.9 107.52 109.1 108.88"/><rect class="cls-2" x="109.12" y="109.56" width="0.91" height="7.51"/><path class="cls-2" d="M115.69,109.56h-.83l-3.14,7.51h1l.72-1.74h3.68l.73,1.74h1Zm-1.9,4.85,1.48-3.59,1.48,3.59Z"/></g></g></svg>