<svg width="260" height="260" viewBox="0 0 260 260" fill="none" xmlns="http://www.w3.org/2000/svg">
<rect width="260" height="260" rx="60" fill="#2E2EE5"/>
<path d="M190.885 93.6462H171.487H121.009V67.2655H171.487V56H108.147V130.367H58.8621V56H46V141.767H108.251V216H138.511C164.489 216 183.723 197.736 183.723 173.236C183.802 164.798 181.366 156.528 176.725 149.481H190.959C207.686 149.481 220.309 137.544 220.309 121.623C220.309 105.703 207.611 93.6462 190.885 93.6462ZM121.039 104.628H171.517V143.244C167.138 138.995 161.959 135.657 156.281 133.424C150.602 131.19 144.537 130.106 138.437 130.233H121.039V104.628ZM138.676 204.496H121.039V141.767H138.676C142.847 141.679 146.994 142.431 150.869 143.98C154.744 145.528 158.268 147.841 161.229 150.781C164.191 153.72 166.531 157.226 168.108 161.089C169.686 164.952 170.47 169.093 170.413 173.266C170.413 190.903 156.566 204.511 138.676 204.511V204.496ZM191.034 139.126H182.708V104.091H191.034C193.374 104.028 195.703 104.44 197.879 105.302C200.056 106.164 202.035 107.459 203.697 109.107C205.36 110.756 206.671 112.724 207.551 114.893C208.432 117.062 208.863 119.387 208.82 121.728C208.817 124.045 208.351 126.339 207.452 128.474C206.552 130.609 205.236 132.544 203.58 134.165C201.924 135.787 199.962 137.061 197.808 137.916C195.654 138.77 193.351 139.187 191.034 139.141V139.126Z" fill="white"/>
</svg>
