<?xml version="1.0" standalone="no"?>
<!DOCTYPE svg PUBLIC "-//W3C//DTD SVG 20010904//EN"
 "http://www.w3.org/TR/2001/REC-SVG-20010904/DTD/svg10.dtd">
<svg version="1.0" xmlns="http://www.w3.org/2000/svg"
 width="700.000000pt" height="700.000000pt" viewBox="0 0 700.000000 700.000000"
 preserveAspectRatio="xMidYMid meet">
<metadata>
Created by potrace 1.14, written by Peter Selinger 2001-2017
</metadata>
<g transform="translate(0.000000,700.000000) scale(0.100000,-0.100000)"
fill="#000000" stroke="none">
<path d="M1469 6996 c-2 -2 -24 -6 -49 -9 -141 -18 -176 -26 -325 -74 -150
-48 -370 -167 -489 -264 -330 -271 -536 -639 -594 -1064 -9 -68 -9 -4106 0
-4175 14 -101 51 -252 88 -355 25 -71 111 -249 122 -253 4 -2 8 -8 8 -13 0
-18 97 -153 169 -236 214 -247 507 -424 836 -507 65 -17 93 -21 200 -35 76
-10 4116 -8 4175 2 30 5 119 24 195 42 122 28 333 123 462 207 392 256 661
683 721 1148 4 30 7 980 7 2110 0 1942 -1 2060 -18 2140 -10 47 -20 96 -23
110 -5 28 -41 143 -54 175 -71 176 -127 279 -218 402 -242 325 -589 544 -995
625 l-112 23 -2051 2 c-1128 2 -2053 1 -2055 -1z"/>
</g>
</svg>
