<svg xmlns="http://www.w3.org/2000/svg" viewBox="0 0 165 165"><defs><style>.cls-1{fill:#192e2d;}.cls-2{fill:#b7857d;}</style></defs><g id="Capa_2" data-name="Capa 2"><g id="Capa_1-2" data-name="Capa 1"><rect class="cls-1" width="165" height="165"/><path class="cls-2" d="M43.63,86.44c-.59-.3-1.22-.53-1.87-.8l.65-.37c4.81-2.8,5.27-9.88.84-13a10.5,10.5,0,0,0-5.92-1.86c-3.76-.1-7.52-.07-11.28-.1a1.83,1.83,0,0,0-.39.09l-.09.16a4.55,4.55,0,0,1,.43.28,3,3,0,0,1,1,2.25v29.84a3,3,0,0,1-.89,2.16,3.38,3.38,0,0,1-.54.36l.15.22.5,0c3.72,0,7.44,0,11.16,0a17.76,17.76,0,0,0,2.9-.26c5.1-.83,8.2-4.08,8.72-9.06A9.73,9.73,0,0,0,43.63,86.44Zm-12-12a58.66,58.66,0,0,1,6.4.38A4,4,0,0,1,41.64,79a4.33,4.33,0,0,1-3.46,4.61,21.81,21.81,0,0,1-3.72.36c-.92.06-1.84,0-2.79,0ZM42.91,99.08A5.88,5.88,0,0,1,39,101.19c-2.41.26-4.85.29-7.32.42V88.12c2.61.17,5.19-.28,7.72.42A6.55,6.55,0,0,1,42.91,99.08Z"/><path class="cls-2" d="M139.44,70.33h-7.29a4.15,4.15,0,0,1,1.28,3.57c0,6.51,0,13,0,19.53a21.39,21.39,0,0,1-.14,2.65c-.39,2.94-1.71,5.73-5.5,6.12-3.13.33-5.89-.86-6.84-4.28a17.22,17.22,0,0,1-.58-4.41c-.06-6.53,0-13.06,0-19.59a4,4,0,0,1,1.35-3.47s0-.08,0-.16h-7.36c.06.16.07.24.11.27a3.44,3.44,0,0,1,1.25,3c0,6.68,0,13.36,0,20a19.53,19.53,0,0,0,.65,5.38,9.55,9.55,0,0,0,6.55,7,14.09,14.09,0,0,0,6.29.41,9.54,9.54,0,0,0,8.11-6.55,18.39,18.39,0,0,0,1-6.37c0-6.57,0-13.15,0-19.72a3.8,3.8,0,0,1,1.27-3.3S139.44,70.37,139.44,70.33Z"/><path class="cls-2" d="M77.84,88.07c-1.89-1.71-3.9-3.29-5.83-5a9.29,9.29,0,0,1-3.07-3.86,3.34,3.34,0,0,1,2.33-4.52,5.26,5.26,0,0,1,2.81,0,10,10,0,0,1,5.13,3.56c.17.2.36.37.66.68V71.82c-.89,1.19-1.63.56-2.38.15l-.68-.38a9.1,9.1,0,0,0-4.43-1.3,7.78,7.78,0,0,0-6.93,12.3,19.4,19.4,0,0,0,4,4.18c1.87,1.57,3.77,3.1,5.56,4.76a8.78,8.78,0,0,1,2.77,5c.66,3.58-1.39,6.44-4.88,6.79a4.89,4.89,0,0,1-5.5-4.46c-.16-2.44,1.6-4.68,4.35-3.74.5.17.69-.06.5-.57a2.88,2.88,0,0,0-1.65-1.56,5.22,5.22,0,0,0-6.08,1.6,7.33,7.33,0,0,0-.37,8.64c2.56,4,8.54,5.52,13,3.32a10.21,10.21,0,0,0,5-11.91A13.75,13.75,0,0,0,77.84,88.07Z"/><path class="cls-2" d="M59.2,70.76a2,2,0,0,1,.51-.26l-.18-.21H52.3c1.37,1.1,1.31,2.58,1.31,4.07,0,9.24,0,9.79,0,19a3.87,3.87,0,0,1-1.28,3.3s0,.12,0,.2h7.23l.14-.18a3.07,3.07,0,0,1-.51-.35,2.91,2.91,0,0,1-.89-2.09V72.9A2.86,2.86,0,0,1,59.2,70.76Z"/><path class="cls-2" d="M97.74,70.3h-.13A13.06,13.06,0,0,0,84.54,83.41,12.89,12.89,0,0,0,97.28,96.75h.41a13,13,0,0,0,13.2-13A13,13,0,0,0,97.74,70.3Zm0,23.84h-.34a10.6,10.6,0,0,1-10.47-11A12.13,12.13,0,0,1,87,81.67,3.46,3.46,0,0,0,90.19,83c4.63-.34,4,4,4,4s-.14,1,.91.7c0,0,4-1.64,4.84,2.93a3.45,3.45,0,0,0,2.07,2.74A11.38,11.38,0,0,1,97.72,94.14Z"/><path class="cls-2" d="M48.94,65.83V57.59h5v1.17H50.2V61.2h3.23v1.16H50.2v2.31H54v1.16Z"/><path class="cls-2" d="M62.35,63.44a1.37,1.37,0,0,0,.48.94,1.65,1.65,0,0,0,1.16.41,1.41,1.41,0,0,0,1.56-1.13c0-.68-.4-1.12-1.31-1.34l-1-.26c-1.36-.37-2-1.1-2-2.21a2.08,2.08,0,0,1,.8-1.69,2.93,2.93,0,0,1,1.91-.67,2.82,2.82,0,0,1,1.92.67,2.22,2.22,0,0,1,.76,1.77H65.28a1.45,1.45,0,0,0-2.85-.11c0,.53.37.89,1.1,1.08l1,.27c1.63.44,2.36,1.36,2.22,2.56a2.28,2.28,0,0,1-.87,1.61A3.06,3.06,0,0,1,64,66a3,3,0,0,1-2.08-.74,2.3,2.3,0,0,1-.82-1.77Z"/><path class="cls-2" d="M73.61,58.77V57.59h6.15v1.18H77.33v7.06H76V58.77Z"/><path class="cls-2" d="M87.14,65.83V57.59h1.27v8.24Z"/><path class="cls-2" d="M96.54,65.83V57.59h1.27v7.08h3.3v1.16Z"/><path class="cls-2" d="M108.92,58.72a4.18,4.18,0,0,1,5.92,0,4.3,4.3,0,0,1,0,6,4.18,4.18,0,0,1-5.92,0,4.32,4.32,0,0,1,0-6Zm.06,3a2.94,2.94,0,0,0,.84,2.11,2.73,2.73,0,0,0,2.06.86,2.76,2.76,0,0,0,2.06-.86,3.08,3.08,0,0,0,0-4.23,2.75,2.75,0,0,0-2.06-.88,2.72,2.72,0,0,0-2.06.88A2.94,2.94,0,0,0,109,61.73Z"/></g></g></svg>