<svg xmlns="http://www.w3.org/2000/svg" viewBox="0 0 165 165"><defs><style>.cls-1{fill:#fff;}.cls-2{font-size:6.65px;font-family:CenturyGothic, Century Gothic;letter-spacing:0.5em;}.cls-2,.cls-3{fill:#4f4f4f;}</style></defs><g id="Capa_2" data-name="Capa 2"><g id="Capa_1-2" data-name="Capa 1"><rect class="cls-1" width="165" height="165"/><text class="cls-2" transform="translate(40.83 113.62)">CARLOS VELEZ</text><polygon class="cls-3" points="117.58 50.62 100.42 89.97 90.03 66.25 84.49 66.25 99.85 101.55 100.96 101.55 123.12 50.62 117.58 50.62"/><path class="cls-3" d="M65.67,98a22.16,22.16,0,0,1-16.12-6.23,20.84,20.84,0,0,1-6.39-15.55A21.7,21.7,0,0,1,46,65.14a21,21,0,0,1,8-7.86,22.6,22.6,0,0,1,11.29-2.92c3.42,0,12.64.88,17.15,7.09h6A13.85,13.85,0,0,0,87,59.29l0,0a25,25,0,0,0-8.79-7.1,28.86,28.86,0,0,0-12.88-2.82q-11.81,0-19.65,7.63A25.22,25.22,0,0,0,37.8,75.79a26.8,26.8,0,0,0,6.47,18.14q7.73,8.91,21.09,8.9a29.76,29.76,0,0,0,12.72-2.65,25.61,25.61,0,0,0,9.51-7.49l-4-3A22.65,22.65,0,0,1,65.67,98Z"/></g></g></svg>