<svg xmlns="http://www.w3.org/2000/svg" viewBox="0 0 165 165"><defs><style>.cls-1{fill:#fff;}.cls-2{fill:#221a17;}</style></defs><g id="Capa_2" data-name="Capa 2"><g id="Capa_1-2" data-name="Capa 1"><rect class="cls-1" width="165" height="165"/><path class="cls-2" d="M67.45,94a.77.77,0,0,1-.77-.78V64.37l36.11-21.24L138,63.62a.79.79,0,0,1,.28,1.07.78.78,0,0,1-1.07.28l-34.42-20L68.23,65.26V93.19A.77.77,0,0,1,67.45,94Z"/><path class="cls-2" d="M97.55,94a.77.77,0,0,1-.78-.78V65.26L62.21,44.94,27.79,65a.78.78,0,0,1-1.07-.28A.79.79,0,0,1,27,63.62L62.21,43.13,98.32,64.37V93.19A.77.77,0,0,1,97.55,94Z"/><path class="cls-2" d="M27.4,94a.77.77,0,0,1-.78-.78V69a.78.78,0,0,1,1.56,0V93.19A.78.78,0,0,1,27.4,94Z"/><path class="cls-2" d="M137.6,94a.78.78,0,0,1-.78-.78V69a.78.78,0,0,1,1.56,0V93.19A.77.77,0,0,1,137.6,94Z"/><path class="cls-2" d="M62.71,107.56a4.73,4.73,0,0,1-3.89,2.15c-2.52,0-4.57-2.38-4.57-5.31s2-5.32,4.57-5.32a4.56,4.56,0,0,1,3.86,2.19l.29.48h2.08l-.66-1.42a6.55,6.55,0,0,0-5.57-3.18c-3.59,0-6.51,3.25-6.51,7.25s2.92,7.25,6.51,7.25a6.79,6.79,0,0,0,5.6-3.15l.77-1.44H63Z"/><path class="cls-2" d="M71.58,97.15c-3.58,0-6.5,3.25-6.5,7.25s2.92,7.25,6.5,7.25,6.49-3.25,6.49-7.25S75.15,97.15,71.58,97.15Zm0,1.93c2.51,0,4.55,2.39,4.55,5.32s-2,5.31-4.55,5.31S67,107.33,67,104.4,69.07,99.08,71.58,99.08Z"/><path class="cls-2" d="M83.85,97.73a1,1,0,0,0-1.77,0L76.56,110.3,76,111.65h2.17l.18-.53v-.05L83,100.53,87.57,111l.22.65H90l-.47-1.09Z"/><path class="cls-2" d="M98.76,104.93a4.1,4.1,0,0,0,2.5-3.66,4.37,4.37,0,0,0-4.57-4.12H91.17a1,1,0,0,0-1,1v6.21l0,.91h0v6.39h1.94v-6.28h4.27c1,.72,1.76,1.63,3,5.59V111l.27.64h2l-.38-1.26C100.3,107.41,99.57,105.9,98.76,104.93Zm-5.15-1.49H92.12V99.08h4.57a2.45,2.45,0,0,1,2.63,2.19,2.42,2.42,0,0,1-2.61,2.16h-3.1Z"/><polygon class="cls-2" points="101.23 97.14 101.23 99.08 106.01 99.08 106.01 111.65 107.95 111.65 107.95 99.08 112.69 99.08 112.69 97.14 101.23 97.14"/><path class="cls-2" d="M28.72,121.65v.1h-.19v-6.41a.1.1,0,0,1,.18,0l2.78,6.12,2.78-6.12a.1.1,0,0,1,.18,0v6.41h-.19v-6l-2.68,5.91a.1.1,0,0,1-.17,0l-2.69-5.91Z"/><path class="cls-2" d="M36.08,119.45a2.15,2.15,0,0,1,2-2.29,1.91,1.91,0,0,1,1.72,1.29v-1.29H40v4.59h-.2v-1.29a1.91,1.91,0,0,1-1.72,1.29A2.16,2.16,0,0,1,36.08,119.45Zm.2,0a2,2,0,0,0,1.79,2.11,2.15,2.15,0,0,0,0-4.21A2,2,0,0,0,36.28,119.45Z"/><path class="cls-2" d="M42.26,117.35v3.19c0,.67.51,1,1.36,1h.1v.19h-.1c-1,0-1.54-.44-1.55-1.21v-3.19h-.84v-.19h.84v-1.1h.19v1.1h1.46v.19H42.26Z"/><path class="cls-2" d="M48.36,120.71l.16.11a2.15,2.15,0,0,1-1.84.93,2.3,2.3,0,1,1,2.1-2.3v.1h-4a2,2,0,0,0,1.91,2A1.94,1.94,0,0,0,48.36,120.71Zm-3.59-1.35h3.82a1.91,1.91,0,1,0-3.82,0Z"/><path class="cls-2" d="M50.41,118.41a2.12,2.12,0,0,1,2.08-1.25h.1v.19h-.1a1.94,1.94,0,0,0-2.08,2.06v2.34h-.19v-4.59h.19v1.25Z"/><path class="cls-2" d="M53.93,116.29h-.1v-.19H54v.19h-.1Zm-.1,1v-.09H54v4.59h-.19v-4.5Z"/><path class="cls-2" d="M55.55,119.45a2.15,2.15,0,0,1,2-2.29,1.91,1.91,0,0,1,1.72,1.29v-1.29h.19v4.59h-.19v-1.29a1.91,1.91,0,0,1-1.72,1.29A2.16,2.16,0,0,1,55.55,119.45Zm.19,0a2,2,0,0,0,1.8,2.11,2.15,2.15,0,0,0,0-4.21A2,2,0,0,0,55.74,119.45Z"/><path class="cls-2" d="M61.27,115.25v-.1h.19v6.6h-.19v-6.5Z"/><path class="cls-2" d="M63.6,116.29h-.1v-.19h.2v.19Zm-.1,1v-.09h.19v4.59H63.5v-4.5Z"/><path class="cls-2" d="M65.52,117.35h-.1v-.19h3.13l-.11.15-2.94,4.25h3.16v.19H65.13l.11-.15,3-4.25Z"/><path class="cls-2" d="M69.71,119.45a2.15,2.15,0,0,1,2-2.29,1.94,1.94,0,0,1,1.73,1.29v-1.29h.19v4.59h-.19v-1.29a1.94,1.94,0,0,1-1.73,1.29A2.16,2.16,0,0,1,69.71,119.45Zm.2,0a1.79,1.79,0,1,0,1.79-2.1A2,2,0,0,0,69.91,119.45Z"/><path class="cls-2" d="M78.46,118.31a1.56,1.56,0,0,1,1.46-1.15,1.66,1.66,0,0,1,1.56,1.77v2.83H81.3v-2.83a1.38,1.38,0,1,0-2.74,0v2.83h-.18V119h0v-.09a1.38,1.38,0,1,0-2.74,0v2.82h-.19v-4.59h.19v.91a1.54,1.54,0,0,1,1.37-.91A1.58,1.58,0,0,1,78.46,118.31Z"/><path class="cls-2" d="M82.91,119.45a2.11,2.11,0,1,1,2.11,2.3A2.21,2.21,0,0,1,82.91,119.45Zm.19,0a1.92,1.92,0,1,0,1.92-2.1A2,2,0,0,0,83.1,119.45Z"/><path class="cls-2" d="M91.56,118.34h-.2c0-.56-.66-1-1.41-1s-1.42.43-1.42,1c0,1.09,3.21.94,3.2,2.22,0,.64-.76,1.19-1.78,1.19s-1.78-.55-1.78-1.19h.19c0,.57.74,1,1.59,1s1.59-.43,1.59-1c0-1.09-3.19-.92-3.2-2.22,0-.64.7-1.18,1.61-1.18S91.56,117.7,91.56,118.34Z"/><path class="cls-2" d="M98,117.35v3.19c0,.67.51,1,1.36,1h.09v.19h-.09c-1,0-1.54-.44-1.55-1.21v-3.19H97v-.19h.84v-1.1H98v1.1h1.45v.19H98Z"/><path class="cls-2" d="M100.52,117.25v-.08h.22v2.9a1.66,1.66,0,0,0,3.31,0v-2.9h.21v2.9a1.86,1.86,0,0,1-3.71,0Z"/><path class="cls-2" d="M108.85,118.34h-.19c0-.56-.66-1-1.41-1s-1.42.43-1.42,1c0,1.09,3.21.94,3.2,2.22,0,.64-.76,1.19-1.78,1.19s-1.78-.55-1.78-1.19h.19c0,.57.74,1,1.59,1s1.58-.43,1.58-1c0-1.09-3.18-.92-3.19-2.22,0-.64.7-1.18,1.61-1.18S108.85,117.7,108.85,118.34Z"/><path class="cls-2" d="M115.05,116.29H115v-.19h.21v.19h-.11Zm-.1,1v-.09h.2v4.59H115v-4.5Z"/><path class="cls-2" d="M116.68,119.45a2.2,2.2,0,0,1,2.1-2.29,2.09,2.09,0,0,1,1.91,1.33v-3.34h.19v6.6h-.19v-1.34a2.08,2.08,0,0,1-1.91,1.34A2.21,2.21,0,0,1,116.68,119.45Zm.19,0a1.92,1.92,0,1,0,1.91-2.1A2,2,0,0,0,116.87,119.45Z"/><path class="cls-2" d="M126.1,120.71l.16.11a2.14,2.14,0,0,1-1.84.93,2.3,2.3,0,1,1,2.1-2.3v.1h-4a2,2,0,0,0,1.91,2A1.94,1.94,0,0,0,126.1,120.71Zm-3.59-1.35h3.82a1.91,1.91,0,1,0-3.82,0Z"/><path class="cls-2" d="M127.58,119.45a2.15,2.15,0,0,1,2-2.29,1.94,1.94,0,0,1,1.72,1.29v-1.29h.19v4.59h-.19v-1.29a1.94,1.94,0,0,1-1.72,1.29A2.16,2.16,0,0,1,127.58,119.45Zm.19,0a1.79,1.79,0,1,0,1.8-2.1A2,2,0,0,0,127.77,119.45Z"/><path class="cls-2" d="M34.35,115.14a.21.21,0,0,0-.19.12l-2.67,5.89-2.68-5.89a.18.18,0,0,0-.18-.12.2.2,0,0,0-.21.2v6.52h.41V116.3l2.47,5.44a.21.21,0,0,0,.19.11.19.19,0,0,0,.19-.11l2.47-5.44v5.56h.42v-6.52A.2.2,0,0,0,34.35,115.14Z"/><path class="cls-2" d="M39.68,118a1.93,1.93,0,0,0-1.61-.94,2.43,2.43,0,0,0,0,4.81,2,2,0,0,0,1.61-.94v.94h.42v-4.81h-.42Zm-1.61,3.45a2,2,0,0,1,0-4,2,2,0,0,1,0,4Z"/><path class="cls-2" d="M42.37,116H42v1.1h-.84v.41H42v3.08c0,.84.61,1.32,1.66,1.32h.21v-.42h-.21c-.56,0-1.23-.15-1.25-.9v-3.08h1.46v-.41H42.37Z"/><path class="cls-2" d="M46.68,117.05a2.41,2.41,0,0,0,0,4.81h0a2.25,2.25,0,0,0,1.9-1l.06-.09-.33-.25-.07.09a1.84,1.84,0,0,1-1.56.8h0a1.87,1.87,0,0,1-1.79-1.78h4v-.21A2.32,2.32,0,0,0,46.68,117.05Zm-1.79,2.2a1.8,1.8,0,0,1,3.59,0Z"/><path class="cls-2" d="M50.52,118v-.92H50.1v4.81h.42v-2.45a1.83,1.83,0,0,1,2-2h.21v-.41h-.21A2.32,2.32,0,0,0,50.52,118Z"/><rect class="cls-2" x="53.72" y="115.98" width="0.43" height="0.42"/><rect class="cls-2" x="53.72" y="117.05" width="0.42" height="4.82"/><path class="cls-2" d="M59.15,118a1.93,1.93,0,0,0-1.61-.94,2.43,2.43,0,0,0,0,4.81,2,2,0,0,0,1.61-.94v.94h.42v-4.81h-.42Zm-1.61,3.45a2,2,0,1,1,1.61-2A1.83,1.83,0,0,1,57.54,121.44Z"/><rect class="cls-2" x="61.16" y="115.04" width="0.42" height="6.82"/><rect class="cls-2" x="63.39" y="117.05" width="0.42" height="4.82"/><rect class="cls-2" x="63.39" y="115.98" width="0.43" height="0.42"/><polygon class="cls-2" points="68.54 117.38 68.76 117.05 65.31 117.05 65.31 117.46 67.97 117.46 65.15 121.53 64.92 121.86 68.78 121.86 68.78 121.44 65.71 121.44 68.54 117.38"/><path class="cls-2" d="M73.31,118a1.93,1.93,0,0,0-1.61-.94,2.43,2.43,0,0,0,0,4.81,2,2,0,0,0,1.61-.94v.94h.42v-4.81h-.42Zm-1.61,3.45a2,2,0,1,1,1.61-2A1.83,1.83,0,0,1,71.7,121.44Z"/><path class="cls-2" d="M81.59,118.93a1.76,1.76,0,0,0-1.67-1.88,1.62,1.62,0,0,0-1.46,1,1.65,1.65,0,0,0-1.47-1,1.57,1.57,0,0,0-1.25.63v-.63h-.42v4.81h.42v-2.93a1.27,1.27,0,1,1,2.51,0v2.74l0,.2h.4l0-.22v-2.72a1.27,1.27,0,1,1,2.51,0v2.74l0,.2h.41l0-.22Z"/><path class="cls-2" d="M85,117.05a2.41,2.41,0,1,0,2.21,2.4A2.32,2.32,0,0,0,85,117.05Zm0,4.39a2,2,0,1,1,1.79-2A1.9,1.9,0,0,1,85,121.44Z"/><path class="cls-2" d="M90.07,119.24c-.73-.23-1.42-.46-1.42-.9s.58-.88,1.3-.88,1.3.4,1.3.88v.12h.42v-.12c0-.71-.77-1.29-1.72-1.29s-1.72.58-1.72,1.3.91,1,1.78,1.32,1.41.45,1.41.89-.67.88-1.47.88-1.48-.4-1.48-.88v-.11h-.41v.11c0,.73.83,1.3,1.89,1.3s1.89-.57,1.89-1.3S90.94,119.52,90.07,119.24Z"/><path class="cls-2" d="M98.13,116h-.41v1.1h-.85v.41h.85v3.08c0,.84.61,1.32,1.66,1.32h.21v-.42h-.21c-.56,0-1.24-.15-1.25-.9v-3.08h1.46v-.41H98.13Z"/><path class="cls-2" d="M103.92,120.07a1.56,1.56,0,0,1-3.09,0v-2.8l0-.22h-.45v3a2,2,0,0,0,3.93,0v-2.81l0-.21h-.45Z"/><path class="cls-2" d="M107.37,119.24c-.73-.23-1.43-.46-1.43-.9s.59-.88,1.31-.88,1.3.4,1.3.88v.12H109v-.12c0-.71-.77-1.29-1.72-1.29s-1.72.58-1.72,1.3.91,1,1.78,1.32,1.41.45,1.41.89-.67.88-1.47.88-1.48-.4-1.48-.88v-.11h-.41v.11c0,.73.83,1.3,1.89,1.3s1.89-.57,1.89-1.3S108.24,119.52,107.37,119.24Z"/><rect class="cls-2" x="114.84" y="115.98" width="0.43" height="0.42"/><rect class="cls-2" x="114.84" y="117.05" width="0.42" height="4.82"/><path class="cls-2" d="M120.58,118a2.19,2.19,0,0,0-1.8-1,2.41,2.41,0,0,0,0,4.81,2.17,2.17,0,0,0,1.8-1v1H121V115h-.42Zm-1.8,3.4a2,2,0,1,1,1.8-2A1.9,1.9,0,0,1,118.78,121.44Z"/><path class="cls-2" d="M124.42,117.05a2.41,2.41,0,0,0,0,4.81h0a2.25,2.25,0,0,0,1.9-1l.06-.09-.33-.25-.07.09a1.83,1.83,0,0,1-1.56.8h0a1.87,1.87,0,0,1-1.79-1.78h4v-.21A2.32,2.32,0,0,0,124.42,117.05Zm-1.79,2.2a1.8,1.8,0,0,1,3.59,0Z"/><path class="cls-2" d="M131.17,118a1.91,1.91,0,0,0-1.6-.94,2.43,2.43,0,0,0,0,4.81,1.93,1.93,0,0,0,1.6-.94v.94h.42v-4.81h-.42Zm-1.6,3.45a2,2,0,0,1,0-4,2,2,0,0,1,0,4Z"/><path class="cls-2" d="M134.81,119.24c-.73-.23-1.42-.46-1.42-.9s.58-.88,1.3-.88,1.3.4,1.3.88v.12h.42v-.12c0-.71-.77-1.29-1.72-1.29s-1.72.58-1.72,1.3.91,1,1.78,1.32,1.42.45,1.42.89-.68.88-1.48.88-1.47-.4-1.47-.88v-.11h-.42v.11c0,.73.83,1.3,1.89,1.3s1.89-.57,1.89-1.3S135.69,119.52,134.81,119.24Z"/><path class="cls-2" d="M136.3,118.34h-.19c0-.56-.66-1-1.42-1s-1.41.43-1.41,1c0,1.09,3.2.94,3.19,2.22,0,.64-.76,1.19-1.78,1.19s-1.78-.55-1.78-1.19h.19c0,.57.74,1,1.59,1s1.59-.43,1.59-1c0-1.09-3.19-.92-3.2-2.22,0-.64.7-1.18,1.61-1.18S136.3,117.7,136.3,118.34Z"/></g></g></svg>