<svg xmlns="http://www.w3.org/2000/svg" viewBox="0 0 165 165"><defs><style>.cls-1{fill:#fff;}.cls-2{fill:#acacb1;}.cls-3{fill:#5581bd;}.cls-4,.cls-7{fill:#999;}.cls-5{fill:#e4b100;}.cls-5,.cls-6,.cls-7{fill-rule:evenodd;}.cls-6{fill:#5c8ac2;}</style></defs><g id="Capa_2" data-name="Capa 2"><g id="Capa_1-2" data-name="Capa 1"><rect class="cls-1" width="165" height="165"/><path class="cls-2" d="M94,91.31s0,0,0,0v0Z"/><polyline class="cls-2" points="58.34 84.23 58.34 84.23 58.34 83.86 58.34 83.86"/><path class="cls-3" d="M55.28,96.1h.78a2.47,2.47,0,0,1,.91.12.9.9,0,0,1,.44.38,1.12,1.12,0,0,1,.16.62,1.05,1.05,0,0,1-.21.67,1,1,0,0,1-.57.37,2.7,2.7,0,0,1-.77.07V100h-.74ZM56,97.61h.23a1.13,1.13,0,0,0,.38,0,.37.37,0,0,0,.17-.13.38.38,0,0,0,.06-.22.32.32,0,0,0-.17-.32.87.87,0,0,0-.47-.08H56Z"/><path class="cls-3" d="M57.94,97.11h.61v.36a.8.8,0,0,1,.26-.33.7.7,0,0,1,.37-.11.67.67,0,0,1,.29.08l-.23.61a.49.49,0,0,0-.2-.06.33.33,0,0,0-.28.2,1.83,1.83,0,0,0-.12.81V100h-.71Z"/><path class="cls-3" d="M61.05,97a1.48,1.48,0,0,1,.76.21,1.36,1.36,0,0,1,.55.54,1.51,1.51,0,0,1,0,1.5,1.36,1.36,0,0,1-.54.55,1.55,1.55,0,0,1-.77.2,1.39,1.39,0,0,1-1-.44,1.44,1.44,0,0,1-.44-1.06,1.47,1.47,0,0,1,.49-1.11A1.44,1.44,0,0,1,61.05,97Zm0,.68a.71.71,0,0,0-.55.23.8.8,0,0,0-.22.59.81.81,0,0,0,.22.6.71.71,0,0,0,.55.24.74.74,0,0,0,.56-.24.81.81,0,0,0,.22-.6.8.8,0,0,0-.22-.59A.7.7,0,0,0,61.06,97.71Z"/><path class="cls-3" d="M65.14,96h.72V100h-.72v-.3a1.46,1.46,0,0,1-.42.28,1.13,1.13,0,0,1-.45.09,1.26,1.26,0,0,1-1-.43,1.47,1.47,0,0,1-.4-1.06,1.52,1.52,0,0,1,.39-1.08,1.21,1.21,0,0,1,1-.43,1.22,1.22,0,0,1,.89.39Zm-.75,1.68a.72.72,0,0,0-.55.24.82.82,0,0,0-.22.6.89.89,0,0,0,.22.61.74.74,0,0,0,.55.24.71.71,0,0,0,.56-.24,1,1,0,0,0,0-1.22A.74.74,0,0,0,64.39,97.69Z"/><path class="cls-3" d="M66.47,97.11h.72v1.37a1.79,1.79,0,0,0,.06.56.55.55,0,0,0,.18.24.55.55,0,0,0,.6,0,.54.54,0,0,0,.19-.25,2,2,0,0,0,0-.53V97.11H69v1.2a3,3,0,0,1-.12,1,1.14,1.14,0,0,1-.43.51,1.27,1.27,0,0,1-.71.18,1.29,1.29,0,0,1-.76-.21,1.06,1.06,0,0,1-.4-.58,3.38,3.38,0,0,1-.09-.95Z"/><path class="cls-3" d="M72.38,97.68l-.6.33a.86.86,0,0,0-.33-.24.94.94,0,0,0-.39-.07.88.88,0,0,0-.64.24.79.79,0,0,0-.25.61.81.81,0,0,0,.24.6.86.86,0,0,0,.62.23.92.92,0,0,0,.75-.33l.56.38a1.52,1.52,0,0,1-1.29.6,1.59,1.59,0,0,1-1.18-.44,1.49,1.49,0,0,1-.42-1,1.54,1.54,0,0,1,.2-.76,1.61,1.61,0,0,1,.58-.55,1.78,1.78,0,0,1,.83-.2,1.7,1.7,0,0,1,.76.17A1.63,1.63,0,0,1,72.38,97.68Z"/><path class="cls-3" d="M75.7,97.68l-.59.33a.86.86,0,0,0-.33-.24.94.94,0,0,0-.39-.07.9.9,0,0,0-.65.24.83.83,0,0,0-.25.61.81.81,0,0,0,.24.6.89.89,0,0,0,.63.23.92.92,0,0,0,.75-.33l.56.38a1.53,1.53,0,0,1-1.29.6,1.58,1.58,0,0,1-1.18-.44,1.5,1.5,0,0,1-.43-1,1.45,1.45,0,0,1,.21-.76,1.54,1.54,0,0,1,.58-.55,1.76,1.76,0,0,1,.83-.2,1.7,1.7,0,0,1,.76.17A1.51,1.51,0,0,1,75.7,97.68Z"/><path class="cls-3" d="M76.52,95.93a.45.45,0,0,1,.32.14.46.46,0,0,1,0,.66.42.42,0,0,1-.32.13.41.41,0,0,1-.32-.14.45.45,0,0,1-.14-.33.48.48,0,0,1,.46-.46Zm-.36,1.18h.72V100h-.72Z"/><path class="cls-3" d="M78.76,97a1.48,1.48,0,0,1,.76.21,1.43,1.43,0,0,1,.55.54,1.51,1.51,0,0,1,0,1.5,1.45,1.45,0,0,1-.55.55,1.51,1.51,0,0,1-.76.2,1.4,1.4,0,0,1-1.05-.44A1.5,1.5,0,0,1,78.76,97Zm0,.68a.73.73,0,0,0-.56.23.91.91,0,0,0,0,1.19.73.73,0,0,0,.56.24.74.74,0,0,0,.56-.24.85.85,0,0,0,.22-.6.8.8,0,0,0-.22-.59A.72.72,0,0,0,78.77,97.71Zm.12-2.15h.85l-1,1h-.51Z"/><path class="cls-3" d="M80.75,97.11h.71v.29a1.83,1.83,0,0,1,.44-.29,1.15,1.15,0,0,1,.41-.08,1,1,0,0,1,.72.3,1,1,0,0,1,.24.74V100h-.7V98.71a3.12,3.12,0,0,0,0-.68.41.41,0,0,0-.16-.25.43.43,0,0,0-.28-.09.55.55,0,0,0-.37.14.74.74,0,0,0-.22.41,3.25,3.25,0,0,0,0,.57V100h-.71Z"/><path class="cls-3" d="M85.33,96.1h.78a2.51,2.51,0,0,1,.91.12,1,1,0,0,1,.44.38,1.21,1.21,0,0,1,.16.62,1,1,0,0,1-.79,1,2.7,2.7,0,0,1-.77.07V100h-.73Zm.73,1.51h.23a1.17,1.17,0,0,0,.39,0,.43.43,0,0,0,.17-.13.38.38,0,0,0,.06-.22.33.33,0,0,0-.18-.32.85.85,0,0,0-.46-.08h-.21Z"/><path class="cls-3" d="M88.15,97.11h.72v1.37a2.29,2.29,0,0,0,0,.56.55.55,0,0,0,.18.24.49.49,0,0,0,.3.09.54.54,0,0,0,.31-.09.52.52,0,0,0,.18-.25,1.85,1.85,0,0,0,0-.53V97.11h.71v1.2a3,3,0,0,1-.12,1,1.06,1.06,0,0,1-.42.51,1.31,1.31,0,0,1-.71.18,1.25,1.25,0,0,1-.76-.21,1.07,1.07,0,0,1-.41-.58,3.49,3.49,0,0,1-.08-.95Z"/><path class="cls-3" d="M92,96v1.41a1.44,1.44,0,0,1,.42-.29,1.29,1.29,0,0,1,.48-.1,1.23,1.23,0,0,1,.95.43,1.52,1.52,0,0,1,.39,1.08,1.47,1.47,0,0,1-.4,1.06,1.26,1.26,0,0,1-1,.43,1.18,1.18,0,0,1-.46-.09,1.46,1.46,0,0,1-.42-.28v.3h-.71V96Zm.75,1.68a.77.77,0,0,0-.56.23,1,1,0,0,0,0,1.22.74.74,0,0,0,.56.24.72.72,0,0,0,.55-.24.85.85,0,0,0,.23-.61.87.87,0,0,0-.22-.6A.73.73,0,0,0,92.72,97.69Z"/><path class="cls-3" d="M94.62,96h.71V100h-.71Z"/><path class="cls-3" d="M96.15,95.93a.45.45,0,0,1,.33.14.48.48,0,0,1,0,.66.44.44,0,0,1-.32.13.42.42,0,0,1-.33-.14.44.44,0,0,1-.13-.33.42.42,0,0,1,.13-.32A.45.45,0,0,1,96.15,95.93Zm-.35,1.18h.71V100H95.8Z"/><path class="cls-3" d="M99.84,97.68l-.59.33a.9.9,0,0,0-.72-.31.9.9,0,0,0-.65.24.83.83,0,0,0-.25.61.81.81,0,0,0,.24.6.89.89,0,0,0,.63.23.92.92,0,0,0,.75-.33l.56.38a1.53,1.53,0,0,1-1.29.6,1.58,1.58,0,0,1-1.18-.44,1.5,1.5,0,0,1-.43-1,1.45,1.45,0,0,1,.21-.76,1.54,1.54,0,0,1,.58-.55,1.76,1.76,0,0,1,.83-.2,1.73,1.73,0,0,1,.76.17A1.51,1.51,0,0,1,99.84,97.68Z"/><path class="cls-3" d="M100.66,95.93a.45.45,0,0,1,.32.14.46.46,0,0,1,0,.66.42.42,0,0,1-.32.13.41.41,0,0,1-.32-.14.45.45,0,0,1-.14-.33.48.48,0,0,1,.46-.46Zm-.36,1.18H101V100h-.72Z"/><path class="cls-3" d="M101.65,96.06h.71v1h.42v.61h-.42V100h-.71V97.72h-.37v-.61h.37Z"/><path class="cls-3" d="M105.16,97.11h.72V100h-.72v-.3a1.46,1.46,0,0,1-.42.28,1.13,1.13,0,0,1-.45.09,1.26,1.26,0,0,1-1-.43,1.47,1.47,0,0,1-.4-1.06,1.52,1.52,0,0,1,.39-1.08,1.21,1.21,0,0,1,1-.43,1.22,1.22,0,0,1,.89.39Zm-.75.58a.72.72,0,0,0-.55.24.82.82,0,0,0-.22.6.89.89,0,0,0,.22.61.74.74,0,0,0,.55.24.73.73,0,0,0,.56-.24,1,1,0,0,0,0-1.22A.75.75,0,0,0,104.41,97.69Z"/><path class="cls-3" d="M106.33,97.11h.61v.36a.8.8,0,0,1,.26-.33.67.67,0,0,1,.37-.11.71.71,0,0,1,.29.08l-.23.61a.49.49,0,0,0-.2-.06.33.33,0,0,0-.28.2,1.83,1.83,0,0,0-.12.81V100h-.71Z"/><path class="cls-3" d="M108.38,95.93a.43.43,0,0,1,.32.14.45.45,0,0,1,.14.33.49.49,0,0,1-.13.33.44.44,0,0,1-.32.13.42.42,0,0,1-.33-.14.44.44,0,0,1-.13-.33.42.42,0,0,1,.13-.32A.45.45,0,0,1,108.38,95.93ZM108,97.11h.72V100H108Z"/><path class="cls-3" d="M111.38,97.11h.72V100h-.72v-.3a1.3,1.3,0,0,1-.41.28,1.22,1.22,0,0,1-.46.09,1.26,1.26,0,0,1-1-.43,1.47,1.47,0,0,1-.4-1.06,1.52,1.52,0,0,1,.39-1.08,1.23,1.23,0,0,1,.95-.43,1.22,1.22,0,0,1,.89.39Zm-.75.58a.72.72,0,0,0-.55.24.87.87,0,0,0-.22.6.85.85,0,0,0,.23.61.75.75,0,0,0,1.1,0,.92.92,0,0,0,0-1.22A.74.74,0,0,0,110.63,97.69Z"/><path class="cls-3" d="M114.14,96.1h.72V100h-.72Z"/><path class="cls-3" d="M115.5,97.11h.72v.29a1.83,1.83,0,0,1,.44-.29,1.14,1.14,0,0,1,.4-.08,1,1,0,0,1,.72.3,1,1,0,0,1,.25.74V100h-.71V98.71a3.34,3.34,0,0,0,0-.68.45.45,0,0,0-.16-.25.45.45,0,0,0-.28-.09.57.57,0,0,0-.38.14.8.8,0,0,0-.21.41,3.25,3.25,0,0,0,0,.57V100h-.72Z"/><path class="cls-3" d="M118.61,97.11h.72v.29a1.83,1.83,0,0,1,.44-.29,1.14,1.14,0,0,1,.4-.08,1,1,0,0,1,.72.3,1,1,0,0,1,.25.74V100h-.7V98.71a3.12,3.12,0,0,0,0-.68.41.41,0,0,0-.16-.25.45.45,0,0,0-.28-.09.53.53,0,0,0-.37.14.74.74,0,0,0-.22.41,3.25,3.25,0,0,0,0,.57V100h-.72Z"/><path class="cls-3" d="M123.07,97a1.44,1.44,0,0,1,.75.21,1.39,1.39,0,0,1,.56.54,1.51,1.51,0,0,1,0,1.5,1.45,1.45,0,0,1-.55.55,1.51,1.51,0,0,1-.76.2,1.4,1.4,0,0,1-1-.44,1.51,1.51,0,0,1,.06-2.17A1.41,1.41,0,0,1,123.07,97Zm0,.68a.73.73,0,0,0-.56.23.8.8,0,0,0-.22.59.81.81,0,0,0,.22.6.72.72,0,0,0,.55.24.71.71,0,0,0,.56-.24.81.81,0,0,0,.23-.6.84.84,0,0,0-.22-.59A.73.73,0,0,0,123.08,97.71Z"/><path class="cls-3" d="M124.75,97.11h.73l.72,1.68.72-1.68h.72L126.43,100H126Z"/><path class="cls-3" d="M130.05,97.11h.72V100h-.72v-.3a1.24,1.24,0,0,1-.42.28,1.13,1.13,0,0,1-.45.09,1.26,1.26,0,0,1-1-.43,1.47,1.47,0,0,1-.4-1.06,1.52,1.52,0,0,1,.39-1.08,1.23,1.23,0,0,1,.95-.43,1.22,1.22,0,0,1,.89.39Zm-.75.58a.72.72,0,0,0-.55.24.87.87,0,0,0-.22.6.85.85,0,0,0,.23.61.75.75,0,0,0,1.1,0,.92.92,0,0,0,0-1.22A.74.74,0,0,0,129.3,97.69Z"/><path class="cls-3" d="M133.49,96h.71V100h-.71v-.3a1.46,1.46,0,0,1-.42.28,1.14,1.14,0,0,1-.46.09,1.24,1.24,0,0,1-1-.43,1.48,1.48,0,0,1-.41-1.06,1.52,1.52,0,0,1,.39-1.08,1.23,1.23,0,0,1,1-.43,1.29,1.29,0,0,1,.48.1,1.44,1.44,0,0,1,.42.29Zm-.75,1.68a.71.71,0,0,0-.55.24.82.82,0,0,0-.22.6.85.85,0,0,0,.22.61.72.72,0,0,0,.55.24.74.74,0,0,0,.56-.24,1,1,0,0,0,0-1.22A.77.77,0,0,0,132.74,97.69Z"/><path class="cls-3" d="M136.16,97a1.48,1.48,0,0,1,.76.21,1.43,1.43,0,0,1,.55.54,1.51,1.51,0,0,1,0,1.5,1.39,1.39,0,0,1-.55.55,1.51,1.51,0,0,1-.76.2,1.4,1.4,0,0,1-1-.44,1.47,1.47,0,0,1-.43-1.06,1.5,1.5,0,0,1,1.48-1.5Zm0,.68a.7.7,0,0,0-.55.23.81.81,0,0,0-.23.59.85.85,0,0,0,.22.6.73.73,0,0,0,.56.24.74.74,0,0,0,.56-.24.81.81,0,0,0,.22-.6.8.8,0,0,0-.22-.59A.72.72,0,0,0,136.17,97.71Z"/><path class="cls-3" d="M138,97.11h.61v.36a.82.82,0,0,1,.27-.33.61.61,0,0,1,.65,0l-.22.61a.57.57,0,0,0-.21-.06.34.34,0,0,0-.28.2,1.87,1.87,0,0,0-.11.81V100H138Z"/><path class="cls-3" d="M141.86,97.11h.71V100h-.71v-.3a1.46,1.46,0,0,1-.42.28,1.14,1.14,0,0,1-.46.09,1.24,1.24,0,0,1-.95-.43,1.48,1.48,0,0,1-.41-1.06,1.52,1.52,0,0,1,.39-1.08,1.23,1.23,0,0,1,1-.43,1.29,1.29,0,0,1,.48.1,1.44,1.44,0,0,1,.42.29Zm-.75.58a.71.71,0,0,0-.55.24.82.82,0,0,0-.22.6.85.85,0,0,0,.22.61.72.72,0,0,0,.55.24.74.74,0,0,0,.56-.24,1,1,0,0,0,0-1.22A.77.77,0,0,0,141.11,97.69Z"/><path class="cls-4" d="M95.28,75.05a2,2,0,0,1,.62,1.49,2.09,2.09,0,0,1-.6,1.51,2,2,0,0,1-1.5.62,2.12,2.12,0,0,1-2.13-2.13,2,2,0,0,1,.62-1.5,2.08,2.08,0,0,1,1.51-.61A2,2,0,0,1,95.28,75.05Zm-28,1.52v7.91A4,4,0,0,1,66,87.41a4.09,4.09,0,0,1-3,1.2,4,4,0,0,1-2.94-1.2,4,4,0,0,1-1.21-2.93V76.57H54.69v7.91a8.05,8.05,0,0,0,2.44,5.94,8.41,8.41,0,0,0,14.36-5.94V76.57Zm20.28,1.81A8,8,0,0,1,90,84.31v8.54l-4.23,0V84.31a3.94,3.94,0,0,0-1.23-2.9,4,4,0,0,0-2.93-1.22,4.09,4.09,0,0,0-3,1.2,4,4,0,0,0-1.22,2.92v8.47l-4.24,0V84.31a8,8,0,0,1,2.45-5.93,8.51,8.51,0,0,1,11.91,0Zm4.13,1.5H95.9V92.75H91.67ZM109,87.13l2.69,3.32a8.39,8.39,0,0,1-11.75-12,8.15,8.15,0,0,1,5.95-2.42,8,8,0,0,1,5.58,2.15l-2.53,3.4a4.15,4.15,0,1,0-3.05,7A3.91,3.91,0,0,0,109,87.13Zm33.72.46v.1a4.21,4.21,0,0,1-1,2.75,6.75,6.75,0,0,1-5.75,2.38,10.27,10.27,0,0,1-3.25-.66,9.12,9.12,0,0,1-2.86-1.58l2.37-3.07a5.26,5.26,0,0,0,3.64,1.61h.1a3.43,3.43,0,0,0,1.42-.28,1.18,1.18,0,0,0,.82-1.08v-.12a1.29,1.29,0,0,0-1-1l-1.49-.28a13.14,13.14,0,0,1-2.4-.7,4.37,4.37,0,0,1-2.88-4.33,4.76,4.76,0,0,1,2.94-4.46,6.32,6.32,0,0,1,2.82-.7,9.81,9.81,0,0,1,3.29.54,5.65,5.65,0,0,1,2.78,1.74L139.42,81A3.32,3.32,0,0,0,137,79.82c-1.35,0-2,.45-2,1.33v.07c0,.42.55.78,1.64,1.07.09,0,.78.16,2.09.42Q142.71,83.46,142.71,87.59Zm-16.82-9.17A8.34,8.34,0,1,0,124,91.68V92.8h4.23l.05-8.47A8,8,0,0,0,125.89,78.42Zm-3,8.84A4,4,0,0,1,120,88.47a4.15,4.15,0,0,1-4.16-4.14A3.94,3.94,0,0,1,117,81.42a4.06,4.06,0,0,1,2.94-1.2,4.15,4.15,0,0,1,4.13,4.11A4,4,0,0,1,122.89,87.26ZM64.61,75.05a2,2,0,0,1,.62,1.49,2.09,2.09,0,0,1-.6,1.51A2.13,2.13,0,0,1,61,76.54a2,2,0,0,1,.62-1.5,2.08,2.08,0,0,1,1.51-.61A2,2,0,0,1,64.61,75.05Z"/><path class="cls-5" d="M37.6,65H29.88V80.3a6.89,6.89,0,0,0,6.88,6.89,7,7,0,0,0,.8,0,6.9,6.9,0,0,0,6.09-6.84V66.84A13.92,13.92,0,0,0,37.6,65Z"/><path class="cls-6" d="M46.67,69V80.3a9.91,9.91,0,0,1-8.76,9.84,9.09,9.09,0,0,1-1.15.07,9.91,9.91,0,0,1-9.9-9.91V65c-2.56,0-4.57,0-4.57,0V92.85H36.37C42.61,92.85,50.48,89,50.7,79A12.68,12.68,0,0,0,46.67,69Z"/><path class="cls-7" d="M45.16,67.93V80.3a8.39,8.39,0,0,1-7.43,8.34,8,8,0,0,1-1,.06,8.4,8.4,0,0,1-8.39-8.4V65H26.86V80.3a9.91,9.91,0,0,0,9.9,9.91,9.09,9.09,0,0,0,1.15-.07,9.91,9.91,0,0,0,8.76-9.84V69C46.38,68.79,45.92,68.44,45.16,67.93Z"/><path class="cls-3" d="M142.63,71.39a2,2,0,0,1-.48,1.31,3.2,3.2,0,0,1-2.74,1.13,4.9,4.9,0,0,1-1.54-.31,4.27,4.27,0,0,1-1.36-.75l1.13-1.46a2.47,2.47,0,0,0,1.73.76h0a1.65,1.65,0,0,0,.68-.13.56.56,0,0,0,.39-.51v-.06a.63.63,0,0,0-.47-.5l-.7-.13a6.69,6.69,0,0,1-1.15-.34,2.08,2.08,0,0,1-1.37-2.06,2.27,2.27,0,0,1,1.4-2.12,3,3,0,0,1,1.34-.33,4.7,4.7,0,0,1,1.57.26,2.7,2.7,0,0,1,1.32.82l-1.35,1.22a1.59,1.59,0,0,0-1.15-.54q-1,0-1,.63v0c0,.21.26.38.78.52l1,.19a2.13,2.13,0,0,1,1.89,2.33Z"/><path class="cls-3" d="M60.79,66.39l0,0a4.43,4.43,0,0,0-.63-.53,4.19,4.19,0,0,0-2.42-.73H55v8.65l2.71,0a4.22,4.22,0,0,0,3.07-1.27A4.11,4.11,0,0,0,62,69.39,4.28,4.28,0,0,0,60.79,66.39Z"/><path class="cls-1" d="M59.48,71.11a2.31,2.31,0,0,1-1.72.71h-.88V67h.87a2.29,2.29,0,0,1,1.33.39l.34.28,0,0a2.32,2.32,0,0,1,.7,1.69A2.21,2.21,0,0,1,59.48,71.11Z"/><path class="cls-3" d="M80.06,73.7H78V69.9a2,2,0,0,0-3.68-1h0V73.7h-2V69.9a1.9,1.9,0,0,0-.59-1.39,1.93,1.93,0,0,0-1.41-.59,2,2,0,0,0-1.42.58,1.89,1.89,0,0,0-.59,1.4v3.8h-2V69.9a3.85,3.85,0,0,1,1.18-2.85,4.06,4.06,0,0,1,5.71,0,4.07,4.07,0,0,1,5.72,0,3.88,3.88,0,0,1,1.17,2.85Z"/><path class="cls-3" d="M89.17,69.89a4,4,0,0,1,0,.6H83.24a2,2,0,0,0,1.92,1.4,1.89,1.89,0,0,0,1.51-.7l1.24,1.64a4,4,0,0,1-5.61-5.78,4,4,0,0,1,6.87,2.84Z"/><path class="cls-1" d="M87.18,69a2,2,0,0,0-3.51,0Z"/><path class="cls-3" d="M98.21,73.7h-2V69.9a1.9,1.9,0,0,0-.59-1.39,2,2,0,0,0-2.82,0,1.85,1.85,0,0,0-.59,1.4v3.8h-2V69.9a4,4,0,0,1,4-4A4,4,0,0,1,97,67.05a3.88,3.88,0,0,1,1.17,2.85Z"/><path class="cls-3" d="M105.28,71.39a2,2,0,0,1-.48,1.31,3.21,3.21,0,0,1-2.74,1.13,4.9,4.9,0,0,1-1.54-.31,4.27,4.27,0,0,1-1.36-.75l1.13-1.46a2.47,2.47,0,0,0,1.73.76h0a1.65,1.65,0,0,0,.68-.13.56.56,0,0,0,.39-.51v-.06a.63.63,0,0,0-.47-.5l-.7-.13a6.69,6.69,0,0,1-1.15-.34,2.08,2.08,0,0,1-1.37-2.06,2.27,2.27,0,0,1,1.4-2.12,3,3,0,0,1,1.34-.33,4.74,4.74,0,0,1,1.57.26,2.7,2.7,0,0,1,1.32.82l-1.35,1.22a1.61,1.61,0,0,0-1.15-.54q-1,0-1,.63v0c0,.21.26.38.78.52l1,.19a2.13,2.13,0,0,1,1.9,2.33Z"/><path class="cls-3" d="M117.66,69.9a4,4,0,1,1-6.88-2.85,4.09,4.09,0,0,1,5.71,0A3.88,3.88,0,0,1,117.66,69.9Z"/><path class="cls-1" d="M115.63,69.9a1.9,1.9,0,0,0-.59-1.39,2,2,0,0,0-2.81,0,1.85,1.85,0,0,0-.59,1.4,1.89,1.89,0,0,0,.59,1.41,2,2,0,0,0,2.82,0A2,2,0,0,0,115.63,69.9Z"/><path class="cls-3" d="M126.76,73.7h-2V69.9a1.86,1.86,0,0,0-.59-1.39,2,2,0,0,0-2.82,0,1.89,1.89,0,0,0-.59,1.4v3.8h-2V69.9a3.88,3.88,0,0,1,1.17-2.85,4.11,4.11,0,0,1,5.72,0,3.88,3.88,0,0,1,1.17,2.85Z"/><path class="cls-3" d="M135.84,69.89a4,4,0,0,1,0,.6h-5.88a1.92,1.92,0,0,0,.72,1,1.94,1.94,0,0,0,1.19.38,1.91,1.91,0,0,0,1.52-.7l1.23,1.64A4,4,0,0,1,129,67.05a4.09,4.09,0,0,1,5.71,0A3.86,3.86,0,0,1,135.84,69.89Z"/><path class="cls-1" d="M133.57,69a2,2,0,0,0-3.5,0Z"/><rect class="cls-3" x="63.07" y="67.65" width="1.99" height="6.04"/><path class="cls-3" d="M64.06,65.09a1,1,0,0,0-.72.29,1,1,0,0,0,.72,1.72.94.94,0,0,0,.71-.3,1,1,0,0,0,.28-.71,1,1,0,0,0-1-1Z"/><rect class="cls-3" x="106.54" y="67.65" width="1.99" height="6.04"/><path class="cls-3" d="M107.53,65.09a1,1,0,0,0-.72.29,1,1,0,0,0,.72,1.72.92.92,0,0,0,.7-.3.94.94,0,0,0,.29-.71,1,1,0,0,0-.29-.7A1,1,0,0,0,107.53,65.09Z"/></g></g></svg>