<svg xmlns="http://www.w3.org/2000/svg" viewBox="0 0 165 165"><defs><style>.cls-1,.cls-3{fill:#fff;}.cls-2{fill:#e2dbf9;}.cls-3{stroke:#fff;stroke-width:0.06px;}</style></defs><g id="Capa_2" data-name="Capa 2"><g id="Capa_1-2" data-name="Capa 1"><rect class="cls-1" width="165" height="165"/><polygon class="cls-2" points="82.5 22.43 89.17 31.84 98.05 24.48 102.05 35.29 112.54 30.48 113.61 41.96 124.98 40.02 123.04 51.4 134.52 52.47 129.71 62.95 140.53 66.96 133.16 75.83 142.57 82.5 133.16 89.17 140.53 98.05 129.71 102.06 134.52 112.54 123.04 113.61 124.98 124.98 113.61 123.04 112.54 134.53 102.05 129.71 98.05 140.53 89.17 133.16 82.5 142.57 75.83 133.16 66.95 140.53 62.94 129.71 52.46 134.53 51.39 123.04 40.02 124.98 41.96 113.61 30.47 112.54 35.29 102.06 24.47 98.05 31.83 89.17 22.43 82.5 31.83 75.83 24.47 66.96 35.29 62.95 30.47 52.47 41.96 51.4 40.02 40.02 51.39 41.96 52.46 30.48 62.94 35.29 66.95 24.48 75.83 31.84 82.5 22.43"/><path class="cls-3" d="M42.29,94.27c-.28.41-.53.63-.74.67s-.43-.07-.48-.36a1.66,1.66,0,0,1,.32-.93c.25-.43.56-.91.92-1.43s.74-1,1.15-1.59.75-1,1-1.43c.28-2.52.65-5,1.13-7.42a46.63,46.63,0,0,1,1.72-6.55,19.89,19.89,0,0,1,2.31-4.8,4.63,4.63,0,0,1,2.86-2.17,1.86,1.86,0,0,1,1.25.32,2.48,2.48,0,0,1,1,1.82,7.5,7.5,0,0,1-.18,3.15,22.83,22.83,0,0,1-1.53,4,54.56,54.56,0,0,1-2.88,5.11c-1.19,1.9-2.59,4-4.22,6.39q0,.5-.09,1c0,.31-.07.62-.1.93a24.34,24.34,0,0,1,1.67-3.16,16.23,16.23,0,0,1,2-2.62,12.94,12.94,0,0,1,2.23-1.87,6.26,6.26,0,0,1,2.26-1,2.53,2.53,0,0,1,2.2.51,3.77,3.77,0,0,1,1.16,2.26,10.73,10.73,0,0,1,.15,1.47c0,.54,0,1.07,0,1.6s0,1.06,0,1.56a8.85,8.85,0,0,0,.13,1.36,6.88,6.88,0,0,0,1.55,3.49,3,3,0,0,0,3,.92,8,8,0,0,0,3.86-2.14,20.39,20.39,0,0,0,3.72-4.87c.29-.49.56-.76.8-.81s.55,0,.6.35a1.22,1.22,0,0,1-.31.79,27.12,27.12,0,0,1-4.5,5.87,9.75,9.75,0,0,1-4.85,2.71A3.86,3.86,0,0,1,58,96.5a6.89,6.89,0,0,1-1.92-4,20.18,20.18,0,0,1-.23-4.33c0-.3,0-.59,0-.88s-.05-.55-.07-.79a3,3,0,0,0-.91-1.83,2.05,2.05,0,0,0-1.72-.37,5.64,5.64,0,0,0-2.55,1.4,12.38,12.38,0,0,0-2.47,3.12,20.62,20.62,0,0,0-2.67,10.14,1.9,1.9,0,0,1-.37.92,1.36,1.36,0,0,1-.91.64c-.16,0-.26,0-.29-.24a.67.67,0,0,1,0-.24v-.08c0-1.34,0-2.71.07-4.1s.18-2.84.31-4.35c-.32.48-.65,1-1,1.42S42.62,93.82,42.29,94.27Zm4-7.62q1.3-1.89,2.52-3.78c.81-1.27,1.54-2.47,2.18-3.62a33.61,33.61,0,0,0,1.56-3.14,8.47,8.47,0,0,0,.72-2.38,6.51,6.51,0,0,0,0-2,2.15,2.15,0,0,0-.56-1.17,1,1,0,0,0-.88-.38c-.61.11-1.19.66-1.74,1.62a19.66,19.66,0,0,0-1.54,3.73,48.12,48.12,0,0,0-1.29,5.17C46.83,82.65,46.51,84.62,46.25,86.65Z"/><path class="cls-3" d="M87.32,85.47c.29-.49.58-.77.88-.82s.46,0,.5.28a1.14,1.14,0,0,1-.22.78c-.56,1-1.15,2-1.78,2.9a22.66,22.66,0,0,1-1.93,2.51,13.49,13.49,0,0,1-2,1.85,4.64,4.64,0,0,1-2,.91,1.84,1.84,0,0,1-1.41-.25,2,2,0,0,1-.83-1.15,8.58,8.58,0,0,1-2.14,1.7,7.91,7.91,0,0,1-2.37.91q-3.42.47-4.11-3.29a8.83,8.83,0,0,1,.26-4.5,11.85,11.85,0,0,1,2.19-3.87A16.57,16.57,0,0,1,76,80.32a25,25,0,0,1,4.39-2.27l2.17-13.73a2,2,0,0,1,.43-.94,1.29,1.29,0,0,1,.79-.48.25.25,0,0,1,.33.23,1.18,1.18,0,0,1,0,.37L79.92,89.85l0,.12a1.66,1.66,0,0,0,0,.58,1.59,1.59,0,0,0,.72,1.22,1.72,1.72,0,0,0,1.07.18,7,7,0,0,0,2.74-2.22A25.88,25.88,0,0,0,87.32,85.47Zm-8.95,5.4a.16.16,0,0,1,0-.08l1.69-11a22.52,22.52,0,0,0-3.73,1.78A12.49,12.49,0,0,0,73.44,84a8.52,8.52,0,0,0-1.74,3,6.81,6.81,0,0,0-.21,3.46,3.69,3.69,0,0,0,1.3,2.34,2.63,2.63,0,0,0,2,.38,5.31,5.31,0,0,0,1.38-.44,8,8,0,0,0,1.1-.63,3.55,3.55,0,0,0,.74-.68A1.25,1.25,0,0,0,78.37,90.87Z"/><path class="cls-3" d="M88.51,85.66q-.42.66-.78.72a.36.36,0,0,1-.47-.32,1.7,1.7,0,0,1,.29-.92,45.38,45.38,0,0,1,2.8-3.94,34.43,34.43,0,0,1,2.76-3.13,17.55,17.55,0,0,1,2.57-2.17,6.19,6.19,0,0,1,2.23-1,1.38,1.38,0,0,1,1.39.42,3,3,0,0,1,.69,1.5,9.63,9.63,0,0,1,.09,2.46,20.55,20.55,0,0,1,1.7-2.48,18,18,0,0,1,2-2.08,13.69,13.69,0,0,1,2.06-1.49,6.16,6.16,0,0,1,2-.77,2.87,2.87,0,0,1,2.48.49,3.77,3.77,0,0,1,1.21,2.29,10.69,10.69,0,0,1,.16,1.46c0,.51,0,1,0,1.56s0,1,0,1.52a10.07,10.07,0,0,0,.14,1.33,7,7,0,0,0,1.55,3.51,3.05,3.05,0,0,0,3,.9,7.83,7.83,0,0,0,3.83-2.15,21.58,21.58,0,0,0,3.71-4.85c.29-.5.57-.77.84-.82a.62.62,0,0,1,.36,0,.35.35,0,0,1,.19.27,1.54,1.54,0,0,1-.3.84,27,27,0,0,1-4.49,5.86,9.49,9.49,0,0,1-4.82,2.7,3.77,3.77,0,0,1-3.58-.94,7.5,7.5,0,0,1-1.82-4,20.18,20.18,0,0,1-.23-4.33,6.59,6.59,0,0,0-.12-1.54,2.84,2.84,0,0,0-1-1.86,2.31,2.31,0,0,0-1.88-.38,5.54,5.54,0,0,0-2,.91,10.91,10.91,0,0,0-2.13,2,16.92,16.92,0,0,0-2,2.9,19.83,19.83,0,0,0-1.54,3.69l-.79,5.55a2.25,2.25,0,0,1-.4.9,1.25,1.25,0,0,1-.83.52c-.21,0-.33,0-.37-.22a.48.48,0,0,1,0-.21,21.91,21.91,0,0,1,.88-5.93l.63-4.2a9,9,0,0,0-.06-2.1c-.18-1-.67-1.4-1.47-1.25a4.44,4.44,0,0,0-1.79.89,15.39,15.39,0,0,0-2.1,1.91c-.74.78-1.5,1.69-2.29,2.71S89.26,84.51,88.51,85.66Z"/></g></g></svg>