<svg xmlns="http://www.w3.org/2000/svg" xmlns:xlink="http://www.w3.org/1999/xlink" viewBox="0 0 165 165"><defs><style>.cls-1{isolation:isolate;}.cls-2{fill:#fff;}.cls-3{fill:url(#linear-gradient);}.cls-4{fill:url(#linear-gradient-2);}.cls-5{fill:url(#linear-gradient-3);}.cls-6{fill:url(#linear-gradient-4);}.cls-7{fill:url(#linear-gradient-5);}.cls-8{fill:url(#linear-gradient-6);}.cls-9{fill:url(#linear-gradient-7);}.cls-10{fill:url(#linear-gradient-8);}.cls-11{fill:url(#linear-gradient-9);}.cls-12{fill:url(#linear-gradient-10);}.cls-13{fill:url(#linear-gradient-11);}.cls-14{fill:url(#linear-gradient-12);}.cls-15,.cls-16,.cls-17{mix-blend-mode:multiply;}.cls-15{fill:url(#linear-gradient-13);}.cls-16{fill:url(#linear-gradient-14);}.cls-18{fill:#cc5a1c;}</style><linearGradient id="linear-gradient" x1="37.25" y1="82" x2="127.75" y2="82" gradientUnits="userSpaceOnUse"><stop offset="0.01" stop-color="#a21c26"/><stop offset="0.12" stop-color="#b43325"/><stop offset="0.24" stop-color="#c44824"/><stop offset="0.33" stop-color="#ca4f24"/><stop offset="0.76" stop-color="#d67b1e"/><stop offset="1" stop-color="#db8f1b"/></linearGradient><linearGradient id="linear-gradient-2" x1="89.93" y1="79.56" x2="120.39" y2="79.56" xlink:href="#linear-gradient"/><linearGradient id="linear-gradient-3" x1="74.19" y1="83.75" x2="74.19" y2="64.04" gradientUnits="userSpaceOnUse"><stop offset="0.01" stop-color="#a21c26"/><stop offset="0.32" stop-color="#b43325"/><stop offset="0.68" stop-color="#c44824"/><stop offset="0.92" stop-color="#ca4f24"/></linearGradient><linearGradient id="linear-gradient-4" x1="89.02" y1="79.58" x2="63.78" y2="79.58" gradientUnits="userSpaceOnUse"><stop offset="0.01" stop-color="#a21c26"/><stop offset="0.29" stop-color="#a52026"/><stop offset="0.56" stop-color="#ae2b25"/><stop offset="0.82" stop-color="#bd3e25"/><stop offset="0.99" stop-color="#ca4f24"/></linearGradient><linearGradient id="linear-gradient-5" x1="86.13" y1="111.84" x2="66.12" y2="77.18" gradientUnits="userSpaceOnUse"><stop offset="0.01" stop-color="#a21c26"/><stop offset="0.16" stop-color="#b43325"/><stop offset="0.33" stop-color="#c44824"/><stop offset="0.44" stop-color="#ca4f24"/><stop offset="0.77" stop-color="#d4741f"/><stop offset="1" stop-color="#db8f1b"/></linearGradient><linearGradient id="linear-gradient-6" x1="107.26" y1="77.56" x2="107.26" y2="66.14" gradientUnits="userSpaceOnUse"><stop offset="0.01" stop-color="#a21c26"/><stop offset="0.07" stop-color="#ad2925"/><stop offset="0.18" stop-color="#ba3a25"/><stop offset="0.31" stop-color="#c34624"/><stop offset="0.5" stop-color="#c94d24"/><stop offset="1" stop-color="#ca4f24"/></linearGradient><linearGradient id="linear-gradient-7" x1="100.57" y1="80.29" x2="106.79" y2="80.29" xlink:href="#linear-gradient"/><linearGradient id="linear-gradient-8" x1="92.43" y1="88.5" x2="115.35" y2="88.5" xlink:href="#linear-gradient-6"/><linearGradient id="linear-gradient-9" x1="106.31" y1="69.37" x2="120.39" y2="69.37" xlink:href="#linear-gradient-6"/><linearGradient id="linear-gradient-10" x1="97.79" y1="86.59" x2="104.07" y2="86.59" xlink:href="#linear-gradient-6"/><linearGradient id="linear-gradient-11" x1="85.87" y1="107.25" x2="123.56" y2="85.49" xlink:href="#linear-gradient"/><linearGradient id="linear-gradient-12" x1="46.35" y1="82.91" x2="83.92" y2="61.21" gradientUnits="userSpaceOnUse"><stop offset="0.01" stop-color="#a21c26"/><stop offset="0.21" stop-color="#ad2a25"/><stop offset="0.59" stop-color="#c94e24"/><stop offset="0.59" stop-color="#ca4f24"/><stop offset="0.85" stop-color="#d67b1e"/><stop offset="1" stop-color="#db8f1b"/></linearGradient><linearGradient id="linear-gradient-13" x1="81.28" y1="100.72" x2="96.67" y2="109.6" gradientUnits="userSpaceOnUse"><stop offset="0" stop-color="#5a2b1d" stop-opacity="0.8"/><stop offset="0.04" stop-color="#693e31" stop-opacity="0.8"/><stop offset="0.19" stop-color="#9e827a" stop-opacity="0.82"/><stop offset="0.32" stop-color="#c8b8b3" stop-opacity="0.83"/><stop offset="0.44" stop-color="#e6dfdc" stop-opacity="0.84"/><stop offset="0.54" stop-color="#f8f6f6" stop-opacity="0.85"/><stop offset="0.6" stop-color="#fff" stop-opacity="0.85"/></linearGradient><linearGradient id="linear-gradient-14" x1="71.63" y1="101.8" x2="62.6" y2="92.77" xlink:href="#linear-gradient-13"/></defs><g class="cls-1"><g id="Capa_2" data-name="Capa 2"><g id="Capa_1-2" data-name="Capa 1"><rect class="cls-2" width="165" height="165"/><path class="cls-3" d="M123.06,84c-1.43-.34-1.39.33-1.26.94a7.21,7.21,0,0,1,.1.74c.51,11.4-14.87,19.9-33.28,14.68-2.2-.62-4.22-1.21-6.09-1.76,1.88-3.65,3.81-7.44,4.7-9.55q2.53-6,4.82-11.5c.08-.29.3-.9.65-1.83s.7-2,1-3.18.65-2.44.9-3.74a13.18,13.18,0,0,0,.25-3.49A4.15,4.15,0,0,0,94,62.82a2.2,2.2,0,0,0-3.08-.07C89.81,63.86,89.19,64.6,88,66l-3.52,4.2C83.31,71.6,82.14,73,81,74.36S78.74,76.93,77.74,78A23.75,23.75,0,0,1,75,80.54a3.58,3.58,0,0,1-1.94.93c-.42,0-.53-.34-.34-.9a11.41,11.41,0,0,1,1-2.16c.51-.89,1.11-1.89,1.79-3s1.3-2.23,1.86-3.34a15.58,15.58,0,0,0,1.2-3.25,4.12,4.12,0,0,0-.15-2.72,3.43,3.43,0,0,0-2.17-1.7,12.42,12.42,0,0,0-4.85-.25,4.88,4.88,0,0,1-.22,3.65A54.55,54.55,0,0,1,69.05,73q-1.36,2.81-2.82,5.75a28.4,28.4,0,0,0-2.1,5.41A7.33,7.33,0,0,0,64,88.27q.55,1.67,3.27,2,1.68,0,4.33-2.1a53.54,53.54,0,0,0,5.69-5.32q3-3.22,6.12-7t5.57-7c-.86,2.11-1.9,4.38-3.09,6.84s-2.49,4.93-3.87,7.45-2.8,5-4.26,7.45l-3.26,5.47c-10.74-3.4-14.22-5-19.37-6,1.57-9.47,12.65-30.82,13-31.47.69-1.34,1.35-2.69,2-4s1.3-2.64,1.9-3.92a18,18,0,0,0,1.44-3.9c0-.17.06-.34.09-.49a4.57,4.57,0,0,0,0-.52,6.52,6.52,0,0,0,0-1A7.81,7.81,0,0,0,73.26,43a7.09,7.09,0,0,0-.42-1h0a5.32,5.32,0,0,0-1.16-1.5,5,5,0,0,0-2.53-1.2l-.12,0-.33-.05h0a2.68,2.68,0,0,0-.54,0,9.37,9.37,0,0,0-1.18,0c-.87.06-1.11.32-1.16.45s0,.52.41.94a3.2,3.2,0,0,1,.51.58l.12.26a1.66,1.66,0,0,1,.12.51.31.31,0,0,1,0,.1,1.79,1.79,0,0,1,0,.21v.12a.89.89,0,0,1,0,.15,1.84,1.84,0,0,1-.07.3c0,.1-.06.21-.09.32a23.19,23.19,0,0,1-1,2.57c-.39.83-.83,1.68-1.25,2.52l-1.26,2.52C61.66,53.91,48.13,79.56,45.59,89L44.67,89h-.35a5.93,5.93,0,0,0-4,1.19l-1.76,1.62S35,94.89,39.62,94.84c11.92-.26,22.2,4.72,27.61,7,1,.44,2,.87,3.06,1.29l-.36.57q-1.37,2.16-3.06,4.42A21.68,21.68,0,0,1,63.16,112a10.91,10.91,0,0,1-4.36,2.17,7.4,7.4,0,0,1-5-.74c-.25-.13-.4.1-.47.68a8,8,0,0,0,.16,2.22,15.7,15.7,0,0,0,.89,3,11.63,11.63,0,0,0,1.77,3,7.29,7.29,0,0,0,1.76,1.48,6.66,6.66,0,0,0,2.44.93,7.35,7.35,0,0,0,3-.12,9.66,9.66,0,0,0,3.43-1.67,24.6,24.6,0,0,0,5.88-6.43,91.61,91.61,0,0,0,5.66-9.81q.07-.14.15-.3c12.82,4.75,24.88,7.11,37,1.39C131.85,100,129.07,85.42,123.06,84Z"/><path class="cls-4" d="M102.76,84.52c.53-.39.79-.52,1.11-.81a.49.49,0,0,0,.2-.46.46.46,0,0,0-.22-.35,7.81,7.81,0,0,0-3-.83,6.45,6.45,0,0,0-3.15.49c-3.12,1.33-4.51,2.27-5.8,3.77A9.59,9.59,0,0,0,90.68,88h0a3.3,3.3,0,0,0-.16.33,5.56,5.56,0,0,0-.58,2.39,3.79,3.79,0,0,0,.94,2.53c3.74,4.4,14,5.26,20.14.39,3.65-2.89,4.26-5.73,4.34-7.5a5.44,5.44,0,0,0-.67-2.66,6.32,6.32,0,0,0-.86-1.27q-.22-.26-.45-.48l-.07-.07-.17-.15a8,8,0,0,0-.61-.53s0,0,0,0a19.44,19.44,0,0,0-5.73-2.7,3.59,3.59,0,0,1-.44-.18,3.49,3.49,0,0,1-2.27-3.2,7.09,7.09,0,0,1,1.27-3.56,11,11,0,0,1,3.19-3.69,5.09,5.09,0,0,1,2.47-1,1.33,1.33,0,0,1,1.44,1.19,5.69,5.69,0,0,1-1.12,2.87c-.82,1.17-1.88,2.26-4.76,3.27a.58.58,0,0,0-.28.42.36.36,0,0,0,.17.31,1.21,1.21,0,0,0,.33.15,11.46,11.46,0,0,0,1.67.44,10.05,10.05,0,0,0,1.88.18,8.13,8.13,0,0,0,1.5-.13,5.42,5.42,0,0,0,1.33-.39,14.28,14.28,0,0,0,5.27-3.69,6.81,6.81,0,0,0,1.94-4.41,3.84,3.84,0,0,0-.94-2.53,5.79,5.79,0,0,0-3-1.71,14.88,14.88,0,0,0-3.89-.51,13.51,13.51,0,0,0-5.35,1.05,15.59,15.59,0,0,0-7.35,6.41,10.64,10.64,0,0,0-1.44,3.84c0,.21-.07.42-.09.62s0,.4,0,.57a4.84,4.84,0,0,0,.61,2.53,5.45,5.45,0,0,0,1.58,1.73,8.72,8.72,0,0,0,2.16,1.14c.8.29,1.58.56,2.36.8a3.21,3.21,0,0,1,.57.22c5.68,2.27,3.41,5.65,3.41,5.65-4.78,6.59-9.93,5-10.93,3.66a.57.57,0,0,1-.11-.29C97.55,88.25,102.76,84.52,102.76,84.52Z"/><path class="cls-5" d="M72.18,76.5S68,83.13,69.89,83.69s5.83-3.25,9.09-7l0,0L77.74,78A23.75,23.75,0,0,1,75,80.54a3.58,3.58,0,0,1-1.94.93c-.42,0-.53-.34-.34-.9a11.41,11.41,0,0,1,1-2.16c.51-.89,1.11-1.89,1.79-3s1.3-2.23,1.86-3.34a15.58,15.58,0,0,0,1.2-3.25,4.12,4.12,0,0,0-.15-2.72,3.43,3.43,0,0,0-2.17-1.7,12.42,12.42,0,0,0-4.85-.25,9.5,9.5,0,0,1,3.91,1.9C77,67.67,76.6,69.24,72.18,76.5Z"/><path class="cls-6" d="M67.31,90.25q1.68,0,4.33-2.1a53.54,53.54,0,0,0,5.69-5.32q3-3.22,6.12-7c.62-.75,5-6.24,5.57-7-8.17,9.54-14.41,16.1-17.12,18-1.77,1.21-3.06,1.94-4.86,2a3.43,3.43,0,0,1-3-2.34,4.7,4.7,0,0,1-.2-1A6.13,6.13,0,0,0,64,88.27Q64.6,89.94,67.31,90.25Z"/><path class="cls-7" d="M94.9,65.27A4.15,4.15,0,0,0,94,62.82a2.34,2.34,0,0,0-1.84-.66c6.45,1.72-4.51,21.25-6.11,25S79.31,100.5,77.57,104a84.7,84.7,0,0,1-5.36,9.28,23.35,23.35,0,0,1-5.56,6.1,9.23,9.23,0,0,1-3.25,1.58,7.14,7.14,0,0,1-2.85.11,6.37,6.37,0,0,1-2.31-.87,7.19,7.19,0,0,1-1.67-1.41,10.67,10.67,0,0,1-1.67-2.84,16.7,16.7,0,0,1-.74-2.33l-.37-.16c-.25-.13-.4.1-.47.68a8,8,0,0,0,.16,2.22,15.7,15.7,0,0,0,.89,3,11.63,11.63,0,0,0,1.77,3,7.29,7.29,0,0,0,1.76,1.48,6.66,6.66,0,0,0,2.44.93,7.35,7.35,0,0,0,3-.12,9.66,9.66,0,0,0,3.43-1.67,24.6,24.6,0,0,0,5.88-6.43,91.61,91.61,0,0,0,5.66-9.81C80.14,103.06,85.54,93,87.23,89s3.3-7.83,4.82-11.5c.08-.29.3-.9.65-1.83s.7-2,1-3.18.65-2.44.9-3.74A13.18,13.18,0,0,0,94.9,65.27Z"/><path class="cls-8" d="M110.11,66.14a5.06,5.06,0,0,0-2.46,1,10.85,10.85,0,0,0-3.19,3.69,7.05,7.05,0,0,0-1.28,3.56,3.5,3.5,0,0,0,2.27,3.2h0a3.2,3.2,0,0,1-1.38-2.65,7.09,7.09,0,0,1,1.27-3.56,11,11,0,0,1,3.19-3.69,5.09,5.09,0,0,1,2.47-1,2.91,2.91,0,0,1,.32,0A1.38,1.38,0,0,0,110.11,66.14Z"/><path class="cls-9" d="M104.12,80.29c-.77-.24-1.56-.51-2.35-.8a9.32,9.32,0,0,1-1.2-.54,8.73,8.73,0,0,0,2.1,1.1c.8.29,1.58.56,2.36.8a3.21,3.21,0,0,1,.57.22,12.16,12.16,0,0,1,1.19.56,9.4,9.4,0,0,0-2.1-1.12A2.94,2.94,0,0,0,104.12,80.29Z"/><path class="cls-10" d="M113.82,82.24q-.22-.26-.45-.48l-.07-.07-.17-.15a8,8,0,0,0-.61-.53s0,0,0,0A10.14,10.14,0,0,0,111.1,80c.18.13.36.26.52.4h0c.22.17.42.35.62.53l.16.15a.46.46,0,0,0,.07.07q.23.22.45.48a5.76,5.76,0,0,1,1,1.78,6.62,6.62,0,0,1,.3,2.48c-.08,1.77-1,4-4.6,6.88-5.1,4-12.46,4.42-17.15,1.84,4.51,3.14,13.14,3.32,18.58-1,3.65-2.89,4.26-5.73,4.34-7.5a5.44,5.44,0,0,0-.67-2.66A6.32,6.32,0,0,0,113.82,82.24Z"/><path class="cls-11" d="M119.45,64.38a4.56,4.56,0,0,0-1.54-1.16,3.19,3.19,0,0,1,.71.85,3.9,3.9,0,0,1,.41,2.28,7.45,7.45,0,0,1-1.94,4.41,12.59,12.59,0,0,1-4.81,3.7,6,6,0,0,1-1.33.38,8.13,8.13,0,0,1-1.5.13,10.08,10.08,0,0,1-1.89-.18c-.45-.09-.87-.19-1.25-.3a.37.37,0,0,0,.16.27,1.21,1.21,0,0,0,.33.15,11.46,11.46,0,0,0,1.67.44,10.05,10.05,0,0,0,1.88.18,8.13,8.13,0,0,0,1.5-.13,5.42,5.42,0,0,0,1.33-.39,14.28,14.28,0,0,0,5.27-3.69,6.81,6.81,0,0,0,1.94-4.41A3.84,3.84,0,0,0,119.45,64.38Z"/><path class="cls-12" d="M98.28,90.6a1.37,1.37,0,0,1-.2-.22.57.57,0,0,1-.11-.29c-.42-1.84,4.79-5.57,4.79-5.57.53-.39.79-.52,1.11-.81a.49.49,0,0,0,.2-.46.46.46,0,0,0-.22-.35,4.56,4.56,0,0,0-.71-.32l0,.11a.51.51,0,0,1-.2.46c-.32.29-.59.42-1.11.81C101.86,84,96.12,87.78,98.28,90.6Z"/><path class="cls-13" d="M122.82,86a6.2,6.2,0,0,0-.38-1.49c-.14-.34-.07-.62.19-.67-1-.11-.94.47-.83,1,.07.36.1.75.1.75.51,11.39-14.87,19.9-33.28,14.68l-6.09-1.76-.79,1.54c2.27.77,4.85,1.62,7.77,2.59C108,108.8,124.3,99.78,122.82,86Z"/><path class="cls-14" d="M73.79,97.37q.38-.65.75-1.26c-10.73-3.4-14.22-5-19.37-6,1.58-9.47,12.65-30.8,13-31.45.69-1.34,1.35-2.69,2-4s1.3-2.64,1.9-3.92a18,18,0,0,0,1.44-3.9c0-.17.06-.34.09-.49a4.57,4.57,0,0,0,0-.52,6.52,6.52,0,0,0,0-1A7.81,7.81,0,0,0,73.26,43a7.09,7.09,0,0,0-.42-1h0a5.32,5.32,0,0,0-1.16-1.5,4.82,4.82,0,0,0-2.36-1.16,3.63,3.63,0,0,1,.71.52,5.44,5.44,0,0,1,1.17,1.51h0a6.15,6.15,0,0,1,.42,1A8.25,8.25,0,0,1,72,44.19c0,.32,0,.65,0,1,0,.16,0,.35-.06.52s-.06.32-.09.49a17.42,17.42,0,0,1-1.44,3.89c-.6,1.29-1.25,2.59-1.9,3.92s-1.32,2.68-2,4c-.34.66-11.7,22.53-13.05,31.8h0c-.62-.1-1.28-.19-2-.28-.9-.11-2.16,0-.42.29a22.66,22.66,0,0,1,2.68.66C63.85,93.36,60.82,92.83,73.79,97.37ZM54.28,90h0Z"/><path class="cls-15" d="M82.53,98.56c-1.6,3.08-3.17,6.06-4.07,7.84a82.19,82.19,0,0,0,13.71,4c4.21-1,9.61-3.44,3.41-8.69a41.2,41.2,0,0,1-7-1.35C86.42,99.7,84.4,99.11,82.53,98.56Z"/><path class="cls-16" d="M70.29,103.14c.93-1.49,2.65-4.35,4.25-7-5-1.57-8.36-2.75-11.1-3.67a5.87,5.87,0,0,0-3.31,6.44c2.85,1.09,5.26,2.18,7.1,3C68.26,102.29,69.27,102.72,70.29,103.14Z"/><g class="cls-17"><path class="cls-18" d="M79.43,118.38l.44.39a2.71,2.71,0,0,1-1.86.77,2.51,2.51,0,0,1-1.86-.76,2.56,2.56,0,0,1,0-3.62A2.51,2.51,0,0,1,78,114.4a2.66,2.66,0,0,1,1.86.77l-.44.39A2.16,2.16,0,0,0,78,115a1.9,1.9,0,0,0-1.39.59,2,2,0,0,0,0,2.86A1.9,1.9,0,0,0,78,119,2.16,2.16,0,0,0,79.43,118.38Z"/><path class="cls-18" d="M84.78,115.15a2.55,2.55,0,0,1,0,3.63,2.64,2.64,0,0,1-3.71,0,2.55,2.55,0,0,1,0-3.63,2.64,2.64,0,0,1,3.71,0Zm-1.86-.21a1.89,1.89,0,0,0-1.39.59A2,2,0,0,0,82.92,119a1.92,1.92,0,0,0,1.4-.59,2,2,0,0,0,0-2.87A1.88,1.88,0,0,0,82.92,114.94Z"/><path class="cls-18" d="M90.66,114.46v5H90V115.4l-1.66,2.16-1.65-2.16v4.08h-.63v-5h.67l1.61,2.11L90,114.46Z"/><path class="cls-18" d="M94.2,114.46h.63V118a1.73,1.73,0,0,1-.5,1,1.78,1.78,0,0,1-2.46,0,1.63,1.63,0,0,1-.5-1.19v-3.37H92v3.37a1.16,1.16,0,0,0,.32.82,1.07,1.07,0,0,0,.78.33,1,1,0,0,0,.76-.33,1.12,1.12,0,0,0,.33-.82Z"/><path class="cls-18" d="M96.23,114.46l2.86,4v-4h.64v5H99l-2.79-3.91v3.91H95.6v-5Z"/><path class="cls-18" d="M101.16,114.46v5h-.63v-5Z"/><path class="cls-18" d="M105.89,118.38l.44.39a2.75,2.75,0,0,1-1.87.77,2.49,2.49,0,0,1-1.85-.76,2.54,2.54,0,0,1,0-3.62,2.49,2.49,0,0,1,1.85-.76,2.7,2.7,0,0,1,1.87.77l-.44.39a2.19,2.19,0,0,0-1.43-.61,1.9,1.9,0,0,0-1.39.59,2.05,2.05,0,0,0,0,2.86,1.9,1.9,0,0,0,1.39.59A2.19,2.19,0,0,0,105.89,118.38Z"/><path class="cls-18" d="M108.94,114.46l1.82,5h-.66l-.76-2.09H108l-.78,2.09h-.66l1.85-5Zm.2,2.39-.48-1.34-.48,1.34Z"/><path class="cls-18" d="M115.06,118.38l.44.39a2.71,2.71,0,0,1-1.86.77,2.51,2.51,0,0,1-1.86-.76,2.56,2.56,0,0,1,0-3.62,2.51,2.51,0,0,1,1.86-.76,2.66,2.66,0,0,1,1.86.77l-.44.39a2.16,2.16,0,0,0-1.42-.61,1.9,1.9,0,0,0-1.39.59,2,2,0,0,0,0,2.86,1.9,1.9,0,0,0,1.39.59A2.16,2.16,0,0,0,115.06,118.38Z"/><path class="cls-18" d="M116.78,114.46v5h-.63v-5Z"/><path class="cls-18" d="M121.89,115.15a2.55,2.55,0,0,1,0,3.63,2.61,2.61,0,0,1-4.46-1.82,2.46,2.46,0,0,1,.76-1.81,2.63,2.63,0,0,1,3.7,0Zm-1.85-.21a1.86,1.86,0,0,0-1.39.59,2,2,0,0,0,0,2.87,1.93,1.93,0,0,0,2.78,0,2,2,0,0,0,0-2.87A1.86,1.86,0,0,0,120,114.94Zm1.17-1.74-1.09.84h-.66l.72-.84Z"/><path class="cls-18" d="M123.88,114.46l2.86,4v-4h.63v5h-.69l-2.8-3.91v3.91h-.63v-5Z"/><path class="cls-18" d="M79.8,125.09a2.6,2.6,0,0,1-3.65,0,2.46,2.46,0,0,1-.75-1.81A2.58,2.58,0,0,1,78,120.69a2.71,2.71,0,0,1,1.86.77l-.44.4a2.13,2.13,0,0,0-1.42-.62,1.9,1.9,0,0,0-1.39.59,2,2,0,0,0,0,2.87,1.93,1.93,0,0,0,1.39.58,1.84,1.84,0,0,0,1.16-.38v-1.54h.63Z"/><path class="cls-18" d="M81.75,124.13h-.59v1.65h-.63v-5H82a1.69,1.69,0,0,1,1,.51,1.6,1.6,0,0,1,.49,1.18,1.64,1.64,0,0,1-.51,1.19,1.3,1.3,0,0,1-.59.4l1.13,1.75h-.73Zm-.59-2.83v2.28h.62a1,1,0,0,0,.77-.33,1.1,1.1,0,0,0,.33-.81,1.07,1.07,0,0,0-.33-.81,1,1,0,0,0-.77-.33Z"/><path class="cls-18" d="M86.16,120.75l1.82,5h-.65l-.76-2.09H85.2l-.77,2.09h-.66l1.84-5Zm.89-1.26-1.1.84h-.66l.73-.84Zm-.68,3.65-.48-1.33-.49,1.33Z"/><path class="cls-18" d="M90.82,120.75v.55H89V123h1.8v.55H89v2.24h-.64v-5Z"/><path class="cls-18" d="M92.06,120.75v5h-.63v-5Z"/><path class="cls-18" d="M96.78,124.67l.45.39a2.75,2.75,0,0,1-1.87.77,2.53,2.53,0,0,1-1.86-.76,2.46,2.46,0,0,1-.75-1.81,2.49,2.49,0,0,1,.75-1.81,2.53,2.53,0,0,1,1.86-.76,2.75,2.75,0,0,1,1.87.77l-.45.4a2.13,2.13,0,0,0-1.42-.62,1.9,1.9,0,0,0-1.39.59,2,2,0,0,0,0,2.87,1.93,1.93,0,0,0,1.39.58A2.11,2.11,0,0,0,96.78,124.67Z"/><path class="cls-18" d="M99.83,120.75l1.82,5H101l-.76-2.09H98.87l-.77,2.09h-.66l1.85-5Zm.21,2.39-.48-1.33-.49,1.33Z"/></g></g></g></g></svg>