<svg xmlns="http://www.w3.org/2000/svg" viewBox="0 0 165 165"><defs><style>.cls-1{fill:#010200;}.cls-2{fill:#fff;}.cls-3{fill:#c8002d;}</style></defs><g id="Capa_2" data-name="Capa 2"><g id="Capa_1-2" data-name="Capa 1"><rect class="cls-1" width="165" height="165"/><path class="cls-2" d="M39.91,117.44a.47.47,0,0,0,.47.46h0a.47.47,0,0,0,.46-.46V112.1h0c0-.78.33-1,1.1-1h3.47a4.14,4.14,0,0,0,0-8.24H40.94a.45.45,0,0,0-.46.46h0a.46.46,0,0,0,.46.46h4.4a3.22,3.22,0,0,1,0,6.42h-4a1.45,1.45,0,0,0-1.45,1.4Z"/><path class="cls-2" d="M39.58,117.44a.8.8,0,0,0,.8.8.79.79,0,0,0,.79-.8V112.1c0-.57.15-.71.77-.71h3.47a4.48,4.48,0,0,0,0-8.92H40.94a.8.8,0,0,0,0,1.6h4.4a2.89,2.89,0,0,1,0,5.75h-4a1.78,1.78,0,0,0-1.78,1.74Zm.67-5.88a1.11,1.11,0,0,1,1.11-1.07h4a3.56,3.56,0,0,0,0-7.09h-4.4a.12.12,0,0,1-.13-.12.13.13,0,0,1,.13-.13h4.44a3.8,3.8,0,0,1,0,7.57H41.94c-1,0-1.44.44-1.44,1.38v5.34a.12.12,0,0,1-.12.12.12.12,0,0,1-.13-.12Z"/><path class="cls-2" d="M75,107.49a.46.46,0,0,0-.46-.46.47.47,0,0,0-.46.46v3.28a3.17,3.17,0,0,1-6.32,0v-3.28a.47.47,0,0,0-.46-.46.46.46,0,0,0-.46.46v3.32a3.94,3.94,0,0,0,4.08,3.79h0A3.94,3.94,0,0,0,75,110.81Z"/><path class="cls-2" d="M75.33,107.49a.8.8,0,0,0-.8-.8.79.79,0,0,0-.79.8v3.28a2.84,2.84,0,0,1-5.66,0v-3.28a.8.8,0,0,0-.8-.8.79.79,0,0,0-.79.8v3.32a4.43,4.43,0,0,0,8.84,0Zm-.67,3.32a3.76,3.76,0,0,1-7.5,0v-3.32a.12.12,0,0,1,.12-.13.13.13,0,0,1,.13.13v3.28a3.51,3.51,0,0,0,7,0v-3.28a.12.12,0,0,1,.12-.13.13.13,0,0,1,.13.13Z"/><path class="cls-2" d="M96.75,107.94a3,3,0,0,0-3.16,2.92v3.27a.46.46,0,0,1-.46.47.47.47,0,0,1-.46-.47v-3.32A3.93,3.93,0,0,1,96.75,107h.15a.47.47,0,0,1,.47.46.45.45,0,0,1-.47.45Z"/><path class="cls-2" d="M96.75,107.6a3.37,3.37,0,0,0-3.5,3.26v3.27a.13.13,0,0,1-.13.13.12.12,0,0,1-.12-.13v-3.32a3.61,3.61,0,0,1,3.75-3.45h.14c.09,0,.14,0,.14.12s0,.11-.13.11Zm.15.67a.79.79,0,0,0,.8-.78.8.8,0,0,0-.8-.8h-.13a4.29,4.29,0,0,0-4.44,4.12v3.32a.79.79,0,0,0,.79.8.8.8,0,0,0,.8-.8v-3.27a2.7,2.7,0,0,1,2.82-2.59Z"/><path class="cls-2" d="M118.85,106.74a3.88,3.88,0,1,0,3.81,3.87A3.84,3.84,0,0,0,118.85,106.74Zm0,6.94a3.07,3.07,0,1,1,3-3.07A3,3,0,0,1,118.85,113.68Z"/><path class="cls-2" d="M118.85,106.41a4.21,4.21,0,1,0,4.14,4.2A4.17,4.17,0,0,0,118.85,106.41Zm3.47,4.2a3.48,3.48,0,1,1-3.47-3.53A3.51,3.51,0,0,1,122.32,110.61Z"/><path class="cls-2" d="M118.85,113.34a2.73,2.73,0,1,1,2.68-2.73A2.71,2.71,0,0,1,118.85,113.34Zm3.35-2.73a3.35,3.35,0,1,0-3.35,3.41A3.38,3.38,0,0,0,122.2,110.61Z"/><path class="cls-2" d="M64.44,129.51a.47.47,0,0,0-.93,0v3.28a3.17,3.17,0,0,1-6.33,0v-3.28a.46.46,0,0,0-.46-.46.47.47,0,0,0-.46.46v3.32a4,4,0,0,0,4.09,3.79h0a4,4,0,0,0,4.08-3.79Z"/><path class="cls-2" d="M64.77,129.51a.79.79,0,0,0-.79-.8.8.8,0,0,0-.8.8v3.28a2.83,2.83,0,0,1-5.65,0v-3.28a.8.8,0,1,0-1.59,0v3.32a4.43,4.43,0,0,0,8.84,0Zm-.67,3.32a3.76,3.76,0,0,1-7.5,0v-3.32a.12.12,0,0,1,.12-.13.13.13,0,0,1,.13.13v3.27a3.5,3.5,0,0,0,7,0v-3.28a.13.13,0,0,1,.13-.13.13.13,0,0,1,.12.13Z"/><path class="cls-2" d="M108.58,130a3,3,0,0,0-3.15,2.92v3.28a.47.47,0,0,1-.93,0v-3.32a4,4,0,0,1,4.08-3.79h.16a.47.47,0,0,1,.46.47.45.45,0,0,1-.46.44Z"/><path class="cls-2" d="M108.58,129.62a3.37,3.37,0,0,0-3.49,3.26v3.28a.13.13,0,0,1-.13.12.13.13,0,0,1-.12-.12v-3.32a3.62,3.62,0,0,1,3.75-3.46h.15a.12.12,0,0,1,.13.13.11.11,0,0,1-.12.1Zm.16.68a.79.79,0,0,0,.79-.78.8.8,0,0,0-.79-.81h-.14a4.3,4.3,0,0,0-4.44,4.13v3.32a.8.8,0,0,0,1.59,0v-3.28a2.69,2.69,0,0,1,2.82-2.58Z"/><path class="cls-2" d="M86.19,133.33h.16a.58.58,0,0,0,.19,0l.07-.05a.44.44,0,0,0,.22-.38.46.46,0,0,0-.46-.46h-.16c-1.74,0-3.14-.93-3.16-2.54s1.42-2.53,3.16-2.55h.16a.45.45,0,0,0,.46-.44.47.47,0,0,0-.46-.47h-.16c-2.26,0-4.09,1.37-4.09,3.46a3.3,3.3,0,0,0,2.14,3,3.31,3.31,0,0,0-2.15,3c0,2.09,1.83,3.46,4.08,3.46h.16a.46.46,0,1,0,0-.91h-.16c-1.73,0-3.13-.94-3.15-2.55S84.46,133.34,86.19,133.33Z"/><path class="cls-2" d="M86.19,133.67h.16a.85.85,0,0,0,.31-.06l.11-.06a.8.8,0,0,0,.39-.68.79.79,0,0,0-.79-.79h-.16c-1.39,0-2.8-.7-2.82-2.21s1.43-2.2,2.82-2.21h.15a.78.78,0,0,0,.8-.78.8.8,0,0,0-.79-.81h-.16c-2.56,0-4.42,1.6-4.42,3.8a3.59,3.59,0,0,0,2.32,3.3.33.33,0,0,1,0-.6,3.61,3.61,0,0,0-2.33,3.31c0,2.2,1.85,3.79,4.41,3.79h.16a.79.79,0,0,0,.79-.8.78.78,0,0,0-.79-.78h-.16c-1.38,0-2.8-.71-2.82-2.22S84.81,133.68,86.19,133.67Zm-3.49,2.21c0,1.71,1.43,2.86,3.49,2.88h.16a.11.11,0,0,1,.12.11.12.12,0,0,1-.12.12h-.16c-2.17,0-3.75-1.31-3.75-3.12a3,3,0,0,1,2-2.71.33.33,0,0,0,.18-.3.35.35,0,0,0-.18-.3,2.94,2.94,0,0,1-2-2.7c0-1.81,1.58-3.12,3.75-3.12h.16a.12.12,0,0,1,.12.13c0,.07-.06.1-.12.1h-.16c-2.06,0-3.47,1.18-3.49,2.89s1.43,2.87,3.49,2.88h.16a.12.12,0,0,1,.12.12.11.11,0,0,1-.06.1l0,0h-.2C84.13,133,82.73,134.17,82.7,135.88Z"/><path class="cls-2" d="M130.68,128.77a3.87,3.87,0,1,0,3.8,3.87A3.83,3.83,0,0,0,130.68,128.77Zm0,6.94a3.07,3.07,0,1,1,3-3.07A3,3,0,0,1,130.68,135.71Z"/><path class="cls-2" d="M130.68,128.43a4.21,4.21,0,1,0,4.14,4.21A4.18,4.18,0,0,0,130.68,128.43Zm3.47,4.21a3.47,3.47,0,1,1-3.47-3.54A3.51,3.51,0,0,1,134.15,132.64Z"/><path class="cls-2" d="M130.68,135.37a2.74,2.74,0,1,1,2.68-2.73A2.72,2.72,0,0,1,130.68,135.37Zm3.35-2.73a3.36,3.36,0,1,0-3.35,3.4A3.38,3.38,0,0,0,134,132.64Z"/><path class="cls-2" d="M37.83,124.74a7.63,7.63,0,0,0,0,15.25h.3a.47.47,0,0,0,.47-.47.49.49,0,0,0-.48-.47l-.49-.07a6.64,6.64,0,0,1,0-13.25l.49-.06a.49.49,0,0,0,.48-.46.47.47,0,0,0-.47-.48Z"/><path class="cls-2" d="M37.82,124.4a8,8,0,0,0,0,15.93h.3a.81.81,0,0,0,.81-.81.83.83,0,0,0-.78-.81l-.48-.06a6.3,6.3,0,0,1,0-12.58l.48-.06a.82.82,0,0,0,.77-.8.8.8,0,0,0-.8-.81Zm.31.67a.13.13,0,0,1,.13.14c0,.06-.07.12-.17.13l-.5.07a7,7,0,0,0,0,13.91l.51.06c.11,0,.18.07.18.14a.13.13,0,0,1-.13.13h-.3a7.29,7.29,0,0,1,0-14.57Z"/><path class="cls-3" d="M91.36,79a12.73,12.73,0,0,1-8.66,7.19A8.26,8.26,0,0,1,75.35,84c-3-3.21-1.08-8.6,1.11-11.7A42,42,0,0,0,92,71.42l.72-.2A14,14,0,0,1,91.36,79ZM89.57,67a5.68,5.68,0,0,1,2.09,1.68,5.14,5.14,0,0,1,.35.55,33.39,33.39,0,0,1-13.94,1.07C81.05,67.1,85.22,65,89.57,67Zm29.29-41.57c-.21-1.21-2.22-.83-2,.36,2.58,17.85-5.5,36-22.77,42.73a7.09,7.09,0,0,0-1.31-2.34A7,7,0,0,0,90,64.32C84.3,62.24,79.27,65.54,76,70a50.35,50.35,0,0,1-11-3.34c-9.79-4.2-20-15.39-19-26.5,0-.42-.28-.3-.3-.08-1,10.36,6,20.81,14.33,26.3A38.84,38.84,0,0,0,74.6,72c-2.39,4-4.29,10.86-.27,14.5a10.16,10.16,0,0,0,9.2,2,15.65,15.65,0,0,0,9.86-9.65,18.72,18.72,0,0,0,1.14-8.14C112.9,64.49,122.13,44,118.86,25.41Z"/></g></g></svg>