<svg xmlns="http://www.w3.org/2000/svg" viewBox="0 0 221.76 70"><defs><style>.cls-1{fill:#fff;}</style></defs><g id="Capa_2" data-name="Capa 2"><g id="Capa_2-2" data-name="Capa 2"><path class="cls-1" d="M41.27,43H1.89A1.7,1.7,0,0,1,.68,40.1L13.55,27h40A12.31,12.31,0,0,0,41.27,16H1.89A1.7,1.7,0,0,1,.68,13.1L13.55,0h41A14.74,14.74,0,0,1,56,29.42,14.79,14.79,0,0,1,41.27,43ZM2.45,41.84Zm1.31-1.33H41.27a12.31,12.31,0,0,0,12.24-11H14.59Zm0-27H41.27A14.79,14.79,0,0,1,56,26.92,12.26,12.26,0,0,0,54.55,2.48h-40Z"/><path class="cls-1" d="M41.27,70H1.56A1.56,1.56,0,0,1,.45,67.34L13.55,54h40A12.31,12.31,0,0,0,41.27,43V40.51A14.79,14.79,0,0,1,56,53.93a12.26,12.26,0,0,0-1.44-24.44V27A14.74,14.74,0,0,1,56,56.43,14.79,14.79,0,0,1,41.27,70ZM3.76,67.52H41.27a12.31,12.31,0,0,0,12.24-11H14.59Z"/><path class="cls-1" d="M103.81,33.52a4.74,4.74,0,0,0-4-1.92,4,4,0,0,0-3.73,1.86l-.46.75V27.52H93.49V43.74H95.6V41l.46.78a4,4,0,0,0,3.73,2,4.85,4.85,0,0,0,4-1.89A7,7,0,0,0,105,37.7a7.13,7.13,0,0,0-1.23-4.18Zm-1.4,6.16a3.7,3.7,0,0,1-1.17,1.63,3.23,3.23,0,0,1-2.06.68,3.13,3.13,0,0,1-2.05-.68,4.47,4.47,0,0,1-1.49-3.68,6,6,0,0,1,.33-2A3.79,3.79,0,0,1,97.13,34a3.41,3.41,0,0,1,4.11,0,4.38,4.38,0,0,1,1.51,3.67A6,6,0,0,1,102.41,39.68Z"/><path class="cls-1" d="M108.89,26.26a1.49,1.49,0,0,0-1.07.44,1.37,1.37,0,0,0-.44,1.06,1.44,1.44,0,0,0,.44,1.07,1.48,1.48,0,0,0,1.07.45,1.55,1.55,0,0,0,1.52-1.52A1.38,1.38,0,0,0,110,26.7,1.51,1.51,0,0,0,108.89,26.26Z"/><rect class="cls-1" x="107.85" y="31.83" width="2.09" height="11.91"/><path class="cls-1" d="M121.54,32.12a6.66,6.66,0,0,0-2.67-.52,6.78,6.78,0,0,0-2.68.52,5.34,5.34,0,0,0-2.88,3.34,7.22,7.22,0,0,0,0,4.41,5.37,5.37,0,0,0,2.89,3.34,6.49,6.49,0,0,0,2.67.53,6.43,6.43,0,0,0,2.67-.53,5.38,5.38,0,0,0,2.9-3.35,6.9,6.9,0,0,0,0-4.4A5.34,5.34,0,0,0,121.54,32.12Zm.55,7.56a3.7,3.7,0,0,1-1.17,1.63,3.42,3.42,0,0,1-4.09,0,4.47,4.47,0,0,1-1.52-3.67,6,6,0,0,1,.34-2A3.62,3.62,0,0,1,116.83,34a3.09,3.09,0,0,1,2-.69,3.14,3.14,0,0,1,2,.69,4.38,4.38,0,0,1,1.51,3.68A5.78,5.78,0,0,1,122.09,39.68Z"/><path class="cls-1" d="M134.82,34a3.32,3.32,0,0,1,1,1.66l2-.45a5,5,0,0,0-1.42-2.42,5.25,5.25,0,0,0-3.76-1.23A5.64,5.64,0,0,0,128,33.48a6.62,6.62,0,0,0-1.37,4.15A6.69,6.69,0,0,0,128,41.82a5.81,5.81,0,0,0,4.66,1.92,5.58,5.58,0,0,0,3.77-1.25A4.24,4.24,0,0,0,137.78,40l-2-.46A2.88,2.88,0,0,1,132.7,42a3.32,3.32,0,0,1-2.88-1.42,5.26,5.26,0,0,1-.79-2.94,5.36,5.36,0,0,1,.77-2.94,3.23,3.23,0,0,1,2.78-1.42A3.1,3.1,0,0,1,134.82,34Z"/><rect class="cls-1" x="140.33" y="27.48" width="2.11" height="16.26"/><path class="cls-1" d="M146.91,26.28a1.55,1.55,0,0,0-1.07.44,1.41,1.41,0,0,0-.44,1.07A1.51,1.51,0,0,0,148,28.86a1.49,1.49,0,0,0,0-2.14A1.5,1.5,0,0,0,146.91,26.28Z"/><rect class="cls-1" x="145.87" y="31.85" width="2.09" height="11.89"/><path class="cls-1" d="M164.71,31.6A4,4,0,0,0,161,33.9l-.24.44-.2-.46a3.71,3.71,0,0,0-3.79-2.28h0a3.43,3.43,0,0,0-3,1.67l-.45.69V31.85h-2.11V43.74h2.11V38.22c0-3.19,1-4.8,3-4.8a2.37,2.37,0,0,1,2.21,1.09,6.5,6.5,0,0,1,.62,3.24v6h2V38.22c0-1.92.38-3.28,1.14-4a2.66,2.66,0,0,1,2-.75c2.49,0,2.81,2.07,2.81,3.88v6.44h2.09V37.48C169.19,33.52,167.73,31.6,164.71,31.6Z"/><path class="cls-1" d="M187.85,28.33H186v1.06a2.64,2.64,0,0,1-.44,1.86c-.37.46-1,.58-1.92.6v1.78h2.18v6a4.47,4.47,0,0,0,.93,3.07,2.8,2.8,0,0,0,1,.65,5.53,5.53,0,0,0,1.17.29,10.21,10.21,0,0,0,1.32.07h.47V42h-.38a2.45,2.45,0,0,1-1.91-.64,3.87,3.87,0,0,1-.55-2.43V33.63h2.84V31.85h-2.84Z"/><path class="cls-1" d="M195.18,26.28a1.55,1.55,0,0,0-1.08.44,1.51,1.51,0,0,0,0,2.14,1.51,1.51,0,0,0,2.13,0,1.42,1.42,0,0,0,.46-1.07,1.39,1.39,0,0,0-.46-1.07A1.49,1.49,0,0,0,195.18,26.28Z"/><rect class="cls-1" x="194.14" y="31.85" width="2.09" height="11.89"/><path class="cls-1" d="M206.58,34a3.4,3.4,0,0,1,1,1.66l2-.45a5,5,0,0,0-1.42-2.42,5.25,5.25,0,0,0-3.76-1.23,5.64,5.64,0,0,0-4.54,1.88,6.62,6.62,0,0,0-1.37,4.15,6.69,6.69,0,0,0,1.37,4.19,5.81,5.81,0,0,0,4.66,1.92,5.62,5.62,0,0,0,3.77-1.25A4.24,4.24,0,0,0,209.54,40l-2-.46A2.88,2.88,0,0,1,204.46,42a3.35,3.35,0,0,1-2.89-1.42,5.9,5.9,0,0,1,0-5.88,3.23,3.23,0,0,1,2.78-1.42A3.1,3.1,0,0,1,206.58,34Z"/><path class="cls-1" d="M219.59,32.09h0a5.86,5.86,0,0,0-2.53-.48A4.88,4.88,0,0,0,213.36,33,4.65,4.65,0,0,0,212.22,35l1.92.41a2.57,2.57,0,0,1,2.79-2.17,2.43,2.43,0,0,1,2.73,2.7v.23l-4,.42a5.14,5.14,0,0,0-2.9,1.15,2.63,2.63,0,0,0-.63.88,3.6,3.6,0,0,0-.37,1.74,3.32,3.32,0,0,0,.42,1.62,3.25,3.25,0,0,0,.65.85,4.2,4.2,0,0,0,2.76.88,3.82,3.82,0,0,0,3.61-1.92l.47-.81v2.73h2.1v-8a4,4,0,0,0-1.06-2.93A3.63,3.63,0,0,0,219.59,32.09Zm.07,5.82a5.09,5.09,0,0,1-.88,3,3.05,3.05,0,0,1-2.66,1.28,2.07,2.07,0,0,1-1.64-3.51,3.33,3.33,0,0,1,2-.73l3.14-.31Z"/><path class="cls-1" d="M179.23,32.09h0a5.94,5.94,0,0,0-2.54-.48A4.92,4.92,0,0,0,173,33,4.74,4.74,0,0,0,171.86,35l1.93.41a2.56,2.56,0,0,1,2.78-2.17A2.42,2.42,0,0,1,179.3,36v.23l-4,.42a5.11,5.11,0,0,0-2.9,1.15,2.66,2.66,0,0,0-.64.88,3.72,3.72,0,0,0-.37,1.74,3.43,3.43,0,0,0,.42,1.62,3.48,3.48,0,0,0,.65.85,4.26,4.26,0,0,0,2.77.88,3.83,3.83,0,0,0,3.61-1.92l.46-.81v2.73h2.1v-8a4,4,0,0,0-1.05-2.93A3.68,3.68,0,0,0,179.23,32.09Zm.07,5.82a5.08,5.08,0,0,1-.87,3,3.07,3.07,0,0,1-2.66,1.28,2.07,2.07,0,0,1-1.64-3.51,3.33,3.33,0,0,1,2-.73l3.13-.31Z"/><polygon class="cls-1" points="177.88 26.35 175.62 29.75 177.38 29.75 179.6 27.16 177.88 26.35"/></g></g></svg>