<svg xmlns="http://www.w3.org/2000/svg" viewBox="0 0 259.18 50"><defs><style>.cls-1{fill:#fff;}</style></defs><g id="Capa_2" data-name="Capa 2"><g id="Capa_2-2" data-name="Capa 2"><path class="cls-1" d="M0,11.27H14.26c10.82,0,20.86,5.91,20.86,18.94s-10,18.95-20.86,18.95H0ZM14,43.48c7.29,0,15-3.07,15-13.27S21.32,17,14,17H5.83V43.48Z"/><path class="cls-1" d="M42,33V11.27h5.91V32.9c0,7.21,4.37,11.5,11.42,11.5s11.43-4.29,11.43-11.5V11.27h5.9V33c0,10.58-7.51,17-17.33,17S42,43.56,42,33Z"/><path class="cls-1" d="M86.42,11.27h5.83v7.29c2.45-4.68,7-7.44,13.42-7.44v6c-6.83-.15-13.42,3.68-13.42,14v18H86.42Z"/><path class="cls-1" d="M108.89,30.21a19.73,19.73,0,0,1,19.55-19.78,18,18,0,0,1,14.65,6.9V11.27h5.83V49.16h-5.83V43.1A18,18,0,0,1,128.44,50,19.73,19.73,0,0,1,108.89,30.21Zm34.12,0a13.62,13.62,0,0,0-14-14,13.9,13.9,0,0,0-14,14,14,14,0,1,0,28.07,0Z"/><path class="cls-1" d="M165.4,0V11.27h11V17H159.57V0Zm0,22.32V37.5c0,6.29,4,8,11.58,6.21v5.37c-10.66,2.22-17.41-1.61-17.41-11V22.32Z"/><path class="cls-1" d="M220.84,31.52H187.72A13.53,13.53,0,0,0,201.6,44.17c6.44,0,10.58-2.91,12.42-7.05h6.36C218,45,210.11,50,201.52,50a19.79,19.79,0,1,1,0-39.57A19.1,19.1,0,0,1,221,29.37,11.78,11.78,0,0,1,220.84,31.52Zm-32.59-5.6h26.08c-1.61-6.36-6.75-9.66-13-9.66A13.68,13.68,0,0,0,188.25,25.92Z"/><path class="cls-1" d="M237.71,29.91l-14-18.64h7l10.51,14.19,10.58-14.19h7l-14,18.64,14.34,19.25h-7l-11-14.8-11,14.8h-7Z"/></g></g></svg>