<svg xmlns="http://www.w3.org/2000/svg" viewBox="0 0 192.24 50"><defs><style>.cls-1{fill:#fff;}</style></defs><g id="Capa_2" data-name="Capa 2"><g id="Capa_2-2" data-name="Capa 2"><polygon class="cls-1" points="25.66 39.97 2.05 11.11 2.05 38.9 0 38.9 0 7.56 1.78 7.56 25.39 36.42 25.39 8.33 27.44 8.33 27.44 39.97 25.66 39.97"/><path class="cls-1" d="M98.3,23.78a16,16,0,1,1-16-16.17,16.08,16.08,0,0,1,16,16.17m-16-14a14,14,0,1,0,13.87,14,13.94,13.94,0,0,0-13.87-14"/><path class="cls-1" d="M33.36,20.71a13.85,13.85,0,0,1,27.1,0Zm25.55,10.1a13.85,13.85,0,0,1-25.88-7c0-.32,0-.63,0-.94H62.88A16,16,0,1,0,46.9,40a16,16,0,0,0,13.85-8.06Z"/><polygon class="cls-1" points="104.27 38.9 104.27 8.33 109.69 8.33 109.69 33.34 126.22 33.34 126.22 38.9 104.27 38.9"/><polygon class="cls-1" points="126.22 0.84 126.22 0 137.2 0 137.2 7.56 126.22 0.84"/><polygon class="cls-1" points="131.72 38.9 131.72 8.33 132.22 8.33 137.19 11.37 137.19 35.85 132.22 38.9 131.72 38.9"/><polygon class="cls-1" points="148.17 38.9 153.66 38.9 153.66 13.94 161.89 13.94 161.89 8.33 139.94 8.33 139.94 13.94 148.17 13.94 148.17 38.9"/><polygon class="cls-1" points="164.63 38.9 170.12 38.9 170.12 24.51 186.59 24.51 186.59 38.9 192.07 38.9 192.07 8.33 186.59 8.33 186.59 19.09 170.12 19.09 170.12 8.33 164.63 8.33 164.63 38.9"/><path class="cls-1" d="M133.69,44.68a2.32,2.32,0,0,0-1.1-.27c-.74,0-1,.42-1,.82s.35.79,1.13,1.13c1,.43,1.47,1,1.47,1.83,0,1-.77,1.81-2.16,1.81a3.06,3.06,0,0,1-1.5-.37l.21-.79a2.78,2.78,0,0,0,1.35.37c.74,0,1.15-.38,1.15-.94s-.32-.85-1-1.16c-.93-.37-1.55-.93-1.55-1.77a1.8,1.8,0,0,1,2-1.72,3,3,0,0,1,1.3.28Z"/><path class="cls-1" d="M135.16,43.72h.94v6.19h-.94Z"/><path class="cls-1" d="M141.82,49.91h-.95L139.24,47a20.12,20.12,0,0,1-1-2.09h0c0,.79.07,1.59.07,2.68v2.31h-.87V43.72h1L140,46.58a18.45,18.45,0,0,1,1,2.05h0C141,47.78,141,47,141,46V43.72h.87Z"/><path class="cls-1" d="M146.8,44.52h-1.68v5.39h-.94V44.52h-1.67v-.8h4.29Z"/><path class="cls-1" d="M150.87,49.91h-3.38V43.72h3.24v.78h-2.3v1.79h2.17v.78h-2.17v2.06h2.44Z"/><path class="cls-1" d="M154.48,47a1.54,1.54,0,0,1,.86,1.27,9.69,9.69,0,0,0,.47,1.68h-1a9,9,0,0,1-.39-1.48c-.17-.83-.46-1.14-1.12-1.14h-.57v2.62h-.93V43.8a8.17,8.17,0,0,1,1.51-.13,2.52,2.52,0,0,1,1.76.49,1.56,1.56,0,0,1,.5,1.22A1.65,1.65,0,0,1,154.48,47Zm-1.1-.38a1.12,1.12,0,0,0,1.27-1.11c0-.8-.57-1.07-1.24-1.07a3.09,3.09,0,0,0-.66.05v2.13Z"/><path class="cls-1" d="M160,49.91h-3.37V43.72h3.24v.78h-2.3v1.79h2.17v.78h-2.17v2.06H160Z"/><path class="cls-1" d="M161,43.8a9.08,9.08,0,0,1,1.58-.13c2.64,0,3.19,1.63,3.19,3h0a3.33,3.33,0,0,1-.89,2.47,3.61,3.61,0,0,1-2.54.82,9.61,9.61,0,0,1-1.34-.08Zm.94,5.38a3.7,3.7,0,0,0,.6,0c1.4,0,2.24-.81,2.24-2.51,0-1.51-.78-2.29-2.11-2.29a3.79,3.79,0,0,0-.73.07Z"/><path class="cls-1" d="M171.41,44.68a2.32,2.32,0,0,0-1.1-.27c-.74,0-1.05.42-1.05.82s.35.79,1.14,1.13c1,.43,1.47,1,1.47,1.83,0,1-.77,1.81-2.16,1.81a3.06,3.06,0,0,1-1.5-.37l.21-.79a2.75,2.75,0,0,0,1.35.37c.73,0,1.15-.38,1.15-.94s-.32-.85-1.06-1.16c-.92-.37-1.54-.93-1.54-1.77a1.79,1.79,0,0,1,2-1.72,3,3,0,0,1,1.31.28Z"/><path class="cls-1" d="M176.56,44.52h-1.68v5.39h-.94V44.52h-1.67v-.8h4.29Z"/><path class="cls-1" d="M182.17,46.75c0,2.16-1.15,3.25-2.66,3.25s-2.59-1.28-2.59-3.15,1.08-3.23,2.67-3.23S182.17,45,182.17,46.75Zm-4.26.08c0,1.25.56,2.4,1.63,2.4s1.65-1.12,1.65-2.44-.52-2.4-1.63-2.4S177.91,45.61,177.91,46.83Z"/><path class="cls-1" d="M187.57,49.91h-.94L185,47a20.22,20.22,0,0,1-1-2.09h0c.05.79.06,1.59.06,2.68v2.31h-.86V43.72h1l1.62,2.86a20.24,20.24,0,0,1,1,2.05h0c-.07-.84-.09-1.63-.09-2.62V43.72h.86Z"/><path class="cls-1" d="M192.24,49.91h-3.37V43.72h3.23v.78h-2.29v1.79H192v.78h-2.17v2.06h2.43Z"/></g></g></svg>