<svg xmlns="http://www.w3.org/2000/svg" viewBox="0 0 117.18 70"><defs><style>.cls-1{fill:#fff;}</style></defs><g id="Capa_2" data-name="Capa 2"><g id="Capa_2-2" data-name="Capa 2"><polygon class="cls-1" points="48.88 31.04 52.18 31.04 68.12 8.51 64.82 8.51 48.88 31.04"/><polygon class="cls-1" points="59.75 0 57.43 0 47.55 0 39.85 10.89 45.84 14.83 47.39 12.63 43.66 10.17 48.94 2.7 57.43 2.7 59.75 2.7 79.08 2.7 74.32 9.77 59.27 31.04 62.57 31.04 76.53 11.31 84.14 0 59.75 0"/><polygon class="cls-1" points="69.79 26.93 73.52 29.38 68.24 36.86 59.75 36.86 57.43 36.86 38.11 36.86 42.87 29.79 57.91 8.51 54.62 8.51 40.66 28.25 33.04 39.55 57.43 39.55 59.75 39.55 69.64 39.55 77.33 28.66 71.35 24.73 69.79 26.93"/><path class="cls-1" d="M8.28,62.32H1.91v7.35H0V51.44H8.28a5.44,5.44,0,0,1,0,10.88Zm0-9.07H1.91v7.27h6.4a3.65,3.65,0,0,0,0-7.27Z"/><path class="cls-1" d="M23.86,70c-4.21,0-7.27-2.81-7.27-7.11V51.44h1.92V62.89a5.09,5.09,0,0,0,5.35,5.28,5.13,5.13,0,0,0,5.39-5.28V51.44h1.94V62.89C31.19,67.19,28.05,70,23.86,70Z"/><path class="cls-1" d="M47.07,69.67l-4.23-7.73H37.4v7.73H35.48V51.44h7.9a5,5,0,0,1,5.3,5.25,5,5,0,0,1-3.8,5l4.43,8ZM43.41,53.25h-6v6.88h6a3.45,3.45,0,0,0,0-6.88Z"/><path class="cls-1" d="M52.51,69.67V51.44H65.33v1.81H54.45v5.87h9.24V60.9H54.45v7H65.33v1.8Z"/><path class="cls-1" d="M67.93,69.67v-1.8L79,53.25H68.37V51.44H81.43v1.81L70.33,67.87H81.65v1.8Z"/><path class="cls-1" d="M84.05,69.67v-1.8l11.1-14.62H84.49V51.44H97.56v1.81L86.46,67.87H97.78v1.8Z"/><polygon class="cls-1" points="109.67 51.44 107.04 51.44 99.52 69.67 101.44 69.67 103.71 64.18 104.45 62.38 104.45 62.38 108.33 52.95 112.86 64.18 115.13 69.67 117.18 69.67 109.67 51.44"/><path class="cls-1" d="M81.39,37.87l-.63-1.26h-.64v1.26h-.86V34.21H81a1.17,1.17,0,0,1,1.3,1.18,1.11,1.11,0,0,1-.64,1l.79,1.43ZM80.94,35h-.82v.9h.82a.45.45,0,0,0,0-.9Z"/><path class="cls-1" d="M80.84,32.54a3.51,3.51,0,1,0,3.5,3.51A3.51,3.51,0,0,0,80.84,32.54Zm0,6.39a2.89,2.89,0,1,1,2.88-2.88A2.88,2.88,0,0,1,80.84,38.93Z"/></g></g></svg>