<svg xmlns="http://www.w3.org/2000/svg" viewBox="0 0 566.97 44.5"><defs><style>.cls-1{fill:#fff;}</style></defs><g id="Capa_2" data-name="Capa 2"><g id="Capa_1-2" data-name="Capa 1"><path class="cls-1" d="M24.53,17.05l-1.38-.27c-4.38-.8-8.77-1.14-8.77-3.53,0-1.93,2.43-2.79,5.52-2.79a25.4,25.4,0,0,1,12.39,3.59l5-9.54A34.76,34.76,0,0,0,19.19,0C8.86,0,2,5.49,1.78,13.71c-.25,7.63,3.89,11.84,13.77,13.55l1.62.28c5.31.89,8,1.35,8,3.55s-2.34,3-5.43,3c-6.56,0-10.61-2.39-14-4.41L0,39.16c4.94,3.52,11.87,5.34,19.59,5.34,9.14,0,18.31-4,18.31-14.88C37.9,23,33.46,18.77,24.53,17.05Z"/><polygon class="cls-1" points="418.58 0 406.79 0 406.79 16.35 390.44 16.35 390.44 28.15 406.79 28.15 406.79 44.49 418.58 44.49 418.58 28.15 434.93 28.15 434.93 16.35 418.58 16.35 418.58 0"/><path class="cls-1" d="M545,0a22,22,0,1,0,22,22A22,22,0,0,0,545,0Zm0,32.27A10.26,10.26,0,1,1,555.21,22,10.26,10.26,0,0,1,545,32.27Z"/><path class="cls-1" d="M158.13,2.52a22,22,0,1,0,0,39v3h11.8V0h-11.8ZM147.92,32.27a10.26,10.26,0,1,1,10.21-11V22.8A10.25,10.25,0,0,1,147.92,32.27Z"/><polygon class="cls-1" points="286.08 0 274.29 0 274.29 16.35 257.94 16.35 257.94 28.15 274.29 28.15 274.29 44.49 286.08 44.49 286.08 28.15 302.43 28.15 302.43 16.35 286.08 16.35 286.08 0"/></g></g></svg>