<svg xmlns="http://www.w3.org/2000/svg" viewBox="0 0 194.37 70"><defs><style>.cls-1,.cls-4{fill:#f4d110;}.cls-2{fill:#c10e1a;}.cls-2,.cls-4,.cls-5{fill-rule:evenodd;}.cls-3,.cls-5{fill:#222221;}.cls-6{fill:#fff;}</style></defs><g id="Capa_2" data-name="Capa 2"><g id="Capa_2-2" data-name="Capa 2"><rect class="cls-1" x="28.37" y="5.08" width="7.45" height="8.67"/><rect class="cls-1" x="28.37" y="56.03" width="7.45" height="8.67"/><rect class="cls-1" x="49.81" y="31.85" width="8.67" height="7.45"/><rect class="cls-1" x="4.8" y="31.85" width="8.67" height="7.45"/><polygon class="cls-2" points="13.38 0.5 50.68 0.5 37.07 6.95 37.07 12.66 33.85 12.66 33.85 6.95 30.31 6.95 30.31 12.66 26.99 12.66 26.99 6.95 13.38 0.5"/><path class="cls-3" d="M37.57,13.16H33.34V7.45H30.82v5.71H26.49V7.27L13.17,1l.22-1H50.68l.21,1L37.57,7.27Zm-3.22-1h2.21V6.63L48.43,1H15.63L27.49,6.63v5.52h2.32V6.44h4.54Z"/><polygon class="cls-2" points="13.38 69.27 50.68 69.27 37.07 62.83 37.07 57.12 33.85 57.12 33.85 62.83 30.31 62.83 30.31 57.12 26.99 57.12 26.99 62.83 13.38 69.27"/><path class="cls-3" d="M50.68,69.77H13.39l-.22-1,13.32-6.3v-5.9h4.33v5.71h2.52V56.61h4.23v5.9l13.32,6.3Zm-35-1h32.8L36.56,63.15V57.62H34.35v5.71H29.81V57.62H27.49v5.53Z"/><polygon class="cls-2" points="0.5 17.02 6.94 30.63 12.66 30.63 12.66 33.85 6.94 33.85 6.94 37.38 12.66 37.38 12.66 40.71 6.94 40.71 0.5 52.86 0.5 17.02"/><path class="cls-3" d="M1,53.09,0,52.86V17l1-.22,6.3,13.32h5.9v4.23H7.45v2.53h5.71v4.33H7.25ZM1,19.26V50.83L6.64,40.2h5.51V37.88H6.44V33.34h5.71V31.13H6.62Z"/><polygon class="cls-2" points="63.55 17.02 57.12 30.63 51.4 30.63 51.4 33.85 57.12 33.85 57.12 37.38 51.4 37.38 51.4 40.71 57.12 40.71 63.55 52.86 63.55 17.02"/><path class="cls-3" d="M63.11,53.09l-6.3-11.88H50.9V36.88h5.71V34.35H50.9V30.12h5.9L63.1,16.8l1,.22V52.86ZM51.91,40.2h5.51l5.63,10.63V19.26L57.43,31.13H51.91v2.21h5.71v4.54H51.91Z"/><path class="cls-4" d="M12.66,12.66H51.4V50c0,2.91-4.67,7.17-7.89,7.17H33.85a2,2,0,0,0-1.77,1.45,2.36,2.36,0,0,0-1.77-1.45H20.55c-3.12,0-7.89-4.26-7.89-7.17Z"/><path class="cls-3" d="M32.58,58.59l-1,0a2.2,2.2,0,0,0-1.27-1H20.55c-3.45,0-8.4-4.52-8.4-7.67V12.15H51.91V50c0,3.22-4.87,7.67-8.4,7.67H33.85A1.64,1.64,0,0,0,32.58,58.59ZM13.16,13.16V50c0,2.61,4.49,6.66,7.39,6.66h9.76a2.69,2.69,0,0,1,1.74.94,2.49,2.49,0,0,1,1.8-.94h9.66c2.9,0,7.39-4,7.39-6.66V13.16Z"/><path class="cls-5" d="M17.33,17h29.4V50a3.12,3.12,0,0,1-3.22,2.91H33.85a2.18,2.18,0,0,0-1.77,1.45,2.35,2.35,0,0,0-1.77-1.45H20.55c-1.46,0-3.22-1.46-3.22-2.91Z"/><path class="cls-4" d="M31.56,31.36c-.62-.84,4.05,2,4.05,4.67a2.67,2.67,0,0,1-2.8,2.49A2.77,2.77,0,0,1,29.9,36C29.9,34.06,33,34,31.56,31.36Z"/><path class="cls-3" d="M32.81,38.36a2.43,2.43,0,0,1-2.54-2.23,3,3,0,0,1,1.24-2.06l.31.39a2.56,2.56,0,0,0-1,1.67,1.94,1.94,0,0,0,2,1.73A2,2,0,0,0,35,36c0-1.67-2.34-3.64-2.94-3.81l.14-.48c.77.22,3.3,2.37,3.3,4.29A2.47,2.47,0,0,1,32.81,38.36Z"/><path class="cls-3" d="M32.8,37.92c-1-.49-1.58-1-1.77-1.5a1.84,1.84,0,0,1,.2-1.44,3.77,3.77,0,0,1,.32-.58c.11-.16.18-.25.18-.34h.5a1.14,1.14,0,0,1-.26.63,2.28,2.28,0,0,0-.28.5,1.33,1.33,0,0,0-.18,1.06c.14.41.62.8,1.51,1.21Z"/><path class="cls-3" d="M33.26,37.9,33,37.48a2.11,2.11,0,0,0,1.07-1.33c.09-.71-.55-1.45-1.22-2.24-.29-.34-.59-.69-.85-1.06l.41-.29c.25.35.54.69.82,1,.75.88,1.46,1.71,1.34,2.64A2.54,2.54,0,0,1,33.26,37.9Z"/><path class="cls-3" d="M33.21,37.54l-.39-.31c.91-1.17.35-2.1-.3-3.17l-.24-.4.43-.25.24.39C33.63,34.93,34.34,36.1,33.21,37.54Z"/><path class="cls-3" d="M32.56,37.59c-1.08-.72-.83-2.55-.51-3.51l.48.16c-.3.9-.46,2.41.31,2.93Z"/><path class="cls-4" d="M43.4,27.72H40.6l.1-1.46a1.6,1.6,0,0,0,1-.83,2.86,2.86,0,0,0,.31-1.55,3.26,3.26,0,0,0-.62-2.08,2.28,2.28,0,0,0-1.77-.73,1.85,1.85,0,0,0-1.55.73,2.78,2.78,0,0,0-.73,2.08,3.4,3.4,0,0,0,.31,1.55,1.9,1.9,0,0,0,1,.83l.21,1.46H36V26.26h.2c0,.21.11.42.22.42.1.21.3.21.62.21h1.35v-.31a3,3,0,0,1-1.56-1,2.86,2.86,0,0,1-.63-1.77,3,3,0,0,1,.94-2.18,3.32,3.32,0,0,1,2.49-.83,5.07,5.07,0,0,1,1.88.31,3.34,3.34,0,0,1,1.24,1.15,2.49,2.49,0,0,1,.42,1.55,3.52,3.52,0,0,1-.52,1.77,3.52,3.52,0,0,1-1.67,1v.31h1.35c.32,0,.52,0,.63-.1a.85.85,0,0,0,.21-.53h.2Z"/><path class="cls-6" d="M69.87,16.63h5V28.77a4.1,4.1,0,0,0,.72,2.63,2.65,2.65,0,0,0,2.16.88,3,3,0,0,0,2.36-1A3.87,3.87,0,0,0,81,28.62V18.09H79.5V16.63h5V32.51h1.45V34H81.08L81,32.2a6.85,6.85,0,0,1-2.17,1.59,6,6,0,0,1-2.5.53,4.82,4.82,0,0,1-3.72-1.38,5.74,5.74,0,0,1-1.27-4V18.09H69.87Z"/><path class="cls-6" d="M88.21,28.75V19.58l-1.13.31v-1.2l4.11-1.22h.15l0,2.06a12.16,12.16,0,0,1,2.4-1.6,4.86,4.86,0,0,1,2.07-.52,3.37,3.37,0,0,1,2.56,1,3.8,3.8,0,0,1,1,2.72v7.62h1.13V30H95V28.75H96.2V21.51a2,2,0,0,0-.47-1.42,1.8,1.8,0,0,0-1.36-.48,3.64,3.64,0,0,0-1.53.37,6,6,0,0,0-1.52,1v7.75h1.16V30h-5.4V28.75Z"/><path class="cls-6" d="M105.67,17.41h.14c0,.34-.06.67-.08,1s0,.58,0,.83v9.54h1.16V30h-5.39V28.75h1.13V19.56l-1.13.3V18.68Zm-3.39-2.56a1.68,1.68,0,0,1,.52-1.22,1.71,1.71,0,0,1,1.25-.52,1.69,1.69,0,0,1,1.25.51,1.66,1.66,0,0,1,.51,1.23,1.75,1.75,0,0,1-.52,1.26,1.69,1.69,0,0,1-1.24.52,1.66,1.66,0,0,1-1.23-.54A1.68,1.68,0,0,1,102.28,14.85Z"/><path class="cls-6" d="M110.3,17.41a10.66,10.66,0,0,0,.32,1.23c.14.42.31.85.51,1.3A9.2,9.2,0,0,1,113,18a2.78,2.78,0,0,1,1.62-.53,7.41,7.41,0,0,1,1.64.25,7.85,7.85,0,0,0,1.51.24,2,2,0,0,0,.61-.09,3.15,3.15,0,0,0,.66-.31l.53.51a13.61,13.61,0,0,0-.79,1.64l-.14.35-3.34,8c-.13.34-.25.67-.35,1s-.19.64-.26,1h-2.49a10.41,10.41,0,0,0-.58-1.57l-.08-.18-3.65-8.31-1,.43-.43-1Zm6.91,2.53a1.33,1.33,0,0,1-.41.21,1.65,1.65,0,0,1-.54.07,5.65,5.65,0,0,1-1.32-.27,5.4,5.4,0,0,0-1.37-.28,2.11,2.11,0,0,0-1.06.3,4,4,0,0,0-1,.91l2.67,6.31Z"/><path class="cls-6" d="M129,22.78l-6.36,2.06a4.85,4.85,0,0,0,1.48,2.34,3.72,3.72,0,0,0,2.4.8,4.65,4.65,0,0,0,1.82-.36,5.45,5.45,0,0,0,1.63-1.1l.77.79a8,8,0,0,1-2.64,2.25,6.92,6.92,0,0,1-3.21.78,5.23,5.23,0,0,1-4.09-1.8A6.68,6.68,0,0,1,119.19,24,6.57,6.57,0,0,1,121,19.29a5.67,5.67,0,0,1,4.28-1.88,4.83,4.83,0,0,1,2.2.5,5.67,5.67,0,0,1,1.85,1.46,7.88,7.88,0,0,1,1,1.59,3.81,3.81,0,0,1,.41,1.18c0,.13-.26.26-.77.39S129.23,22.7,129,22.78Zm-1.48-1a5.46,5.46,0,0,0-1.24-2.19,2.44,2.44,0,0,0-1.75-.77,2.07,2.07,0,0,0-1.74.94,3.72,3.72,0,0,0-.7,2.32q0,.35,0,.69c0,.23.06.45.1.68Z"/><path class="cls-6" d="M139.66,17.34l1,.44-1.49,3.3a5.55,5.55,0,0,0-1.1-.59,2.48,2.48,0,0,0-.88-.16,1.4,1.4,0,0,0-1.16.55,2.4,2.4,0,0,0-.44,1.53v6.35H137V30h-5.69V28.76h1.14V21.42a1.9,1.9,0,0,0-.11-.73.91.91,0,0,0-.35-.31l-.54.55-.85-.76,2.17-2.75a6.59,6.59,0,0,1,1.54,1,3.25,3.25,0,0,1,.79,1.22,7,7,0,0,1,1.22-1.76,1.67,1.67,0,0,1,1.16-.51,2.59,2.59,0,0,1,.8.15,5.21,5.21,0,0,1,.95.43Z"/><path class="cls-6" d="M148.54,18.64l-1.35,2a9.51,9.51,0,0,0-1.79-1.38,3.26,3.26,0,0,0-1.52-.43,1.33,1.33,0,0,0-.92.33,1.06,1.06,0,0,0-.36.81c0,.65,1,1.42,3,2.31l.11.05A6.93,6.93,0,0,1,148.27,24a3.27,3.27,0,0,1,.63,2.09,3.82,3.82,0,0,1-1.43,3,5.18,5.18,0,0,1-3.53,1.24,6.64,6.64,0,0,1-2.49-.48,6.58,6.58,0,0,1-2.12-1.36L141,26.2a11.28,11.28,0,0,0,2.2,1.92,3.61,3.61,0,0,0,1.89.6,1.64,1.64,0,0,0,1.13-.41,1.4,1.4,0,0,0,.45-1.07q0-1-2.34-2.07l-.18-.09a9.81,9.81,0,0,1-3.1-2,3.14,3.14,0,0,1-.65-2,3.32,3.32,0,0,1,1.2-2.62,4.57,4.57,0,0,1,3.07-1,6.52,6.52,0,0,1,2,.3A8.18,8.18,0,0,1,148.54,18.64Z"/><path class="cls-6" d="M153.6,17.41h.14c0,.34-.06.67-.08,1s0,.58,0,.83v9.54h1.16V30h-5.39V28.75h1.13V19.56l-1.13.3V18.68Zm-3.39-2.56a1.68,1.68,0,0,1,.52-1.22,1.71,1.71,0,0,1,1.25-.52,1.69,1.69,0,0,1,1.25.51,1.66,1.66,0,0,1,.51,1.23,1.71,1.71,0,0,1-.52,1.26,1.69,1.69,0,0,1-1.24.52,1.66,1.66,0,0,1-1.23-.54A1.68,1.68,0,0,1,150.21,14.85Z"/><path class="cls-6" d="M168.3,12.43v1.26l-1.09.39V28.75h1.13V30h-4l-.25-1.44a6.81,6.81,0,0,1-1.86,1.34,4.44,4.44,0,0,1-1.93.46,4.3,4.3,0,0,1-3.51-1.66,6.63,6.63,0,0,1-1.36-4.34,7.39,7.39,0,0,1,1.68-4.95,5.15,5.15,0,0,1,5.58-1.75,5.73,5.73,0,0,1,1.4.7V15.11l-1.13.38V14.2Zm-4.19,9.15a2.93,2.93,0,0,0-.68-2,2.44,2.44,0,0,0-1.88-.73A2.53,2.53,0,0,0,159.4,20a5.55,5.55,0,0,0-.85,3.21,6.33,6.33,0,0,0,.94,3.59,2.8,2.8,0,0,0,2.37,1.4,2.55,2.55,0,0,0,1.2-.31,3.22,3.22,0,0,0,1.05-.83Z"/><path class="cls-6" d="M171.57,17.15l1.09.32-.22.87a7.44,7.44,0,0,1,1.58-.69,5.68,5.68,0,0,1,1.57-.23,4.21,4.21,0,0,1,3.13,1.06,4.34,4.34,0,0,1,1,3.16v7.13h1.13V30h-3.95l-.28-1.41a5.82,5.82,0,0,1-1.74,1.32,4.42,4.42,0,0,1-2,.44,3.81,3.81,0,0,1-2.83-1.15A3.89,3.89,0,0,1,169,26.35a3.72,3.72,0,0,1,1.57-3.24A7.81,7.81,0,0,1,175.13,22l.76,0,.77.05v-.87a1.88,1.88,0,0,0-.54-1.43,2,2,0,0,0-1.5-.52,3.17,3.17,0,0,0-1.74.52,4.17,4.17,0,0,0-1.34,1.52l-1.17-.41Zm5.09,6.08-.57-.07-.63,0a3.82,3.82,0,0,0-2.5.79,2.52,2.52,0,0,0-1,2,2.39,2.39,0,0,0,.65,1.74,2.21,2.21,0,0,0,1.67.67,2.16,2.16,0,0,0,1.72-.71,3,3,0,0,0,.62-2Z"/><path class="cls-6" d="M194.33,12.43v1.26l-1.09.39V28.75h1.13V30h-4l-.25-1.44a6.81,6.81,0,0,1-1.86,1.34,4.44,4.44,0,0,1-1.93.46,4.3,4.3,0,0,1-3.51-1.66,6.63,6.63,0,0,1-1.36-4.34,7.39,7.39,0,0,1,1.68-4.95,5.15,5.15,0,0,1,5.58-1.75,5.73,5.73,0,0,1,1.4.7V15.11l-1.13.38V14.2Zm-4.19,9.15a2.93,2.93,0,0,0-.68-2,2.44,2.44,0,0,0-1.88-.73A2.53,2.53,0,0,0,185.43,20a5.55,5.55,0,0,0-.85,3.21,6.33,6.33,0,0,0,.94,3.59,2.8,2.8,0,0,0,2.37,1.4,2.55,2.55,0,0,0,1.2-.31,3.22,3.22,0,0,0,1-.83Z"/><path class="cls-6" d="M87.1,32.49h6.44a8.59,8.59,0,0,1,5.65,1.67,5.68,5.68,0,0,1,2,4.63,6.06,6.06,0,0,1-1.85,4.54,6.42,6.42,0,0,1-4.65,1.8A8.87,8.87,0,0,1,93.31,45a6,6,0,0,1-1.24-.35v3.69h1.72v1.45H87.1V48.36h1.45V33.94H87.1Zm5,1.58V41.2a3.16,3.16,0,0,0,.46,1.93,1.87,1.87,0,0,0,1.53.57,2.93,2.93,0,0,0,2.48-1.23,5.33,5.33,0,0,0,.93-3.31,5.4,5.4,0,0,0-1.21-3.75,4.36,4.36,0,0,0-3.4-1.34Z"/><path class="cls-6" d="M107.63,50.17a6.64,6.64,0,0,1-4.79-1.83,6.6,6.6,0,0,1,0-9.27,7.18,7.18,0,0,1,9.58,0,6.59,6.59,0,0,1,0,9.28A6.64,6.64,0,0,1,107.63,50.17Zm-3.42-7.41A7.55,7.55,0,0,0,105.37,47a3.3,3.3,0,0,0,2.74,1.76,2.55,2.55,0,0,0,2.16-1.09,5.06,5.06,0,0,0,.79-3,7.57,7.57,0,0,0-1.17-4.28,3.35,3.35,0,0,0-2.79-1.76,2.44,2.44,0,0,0-2.1,1.11A5.1,5.1,0,0,0,104.21,42.76Z"/><path class="cls-6" d="M116.17,48.59V39.41l-1.13.31v-1.2l4.11-1.22h.15l0,2.06a12.2,12.2,0,0,1,2.41-1.6,4.82,4.82,0,0,1,2.06-.52,3.35,3.35,0,0,1,2.56,1,3.76,3.76,0,0,1,1,2.72v7.63h1.13v1.22H123V48.59h1.16V41.34a1.91,1.91,0,0,0-.47-1.41,1.76,1.76,0,0,0-1.35-.49,3.65,3.65,0,0,0-1.54.37,6.14,6.14,0,0,0-1.52,1v7.76h1.17v1.22H115V48.59Z"/><path class="cls-6" d="M132.71,34.78l.86.2v2.74H136l-.16,1a.77.77,0,0,1-.16.43.73.73,0,0,1-.47.11h-1.63v7.24a2.49,2.49,0,0,0,.28,1.36,1,1,0,0,0,.89.41,1.81,1.81,0,0,0,.55-.09,3.83,3.83,0,0,0,.68-.36l.54.79a5.79,5.79,0,0,1-1.68,1.15,4.36,4.36,0,0,1-1.8.39,2.47,2.47,0,0,1-2-.72,3.58,3.58,0,0,1-.62-2.34V39.28h-1.29v-1a7,7,0,0,0,2.23-1.43A5.65,5.65,0,0,0,132.71,34.78Z"/><path class="cls-6" d="M140.82,37.24H141c0,.35-.06.67-.07,1s0,.58,0,.83v9.55H142v1.22h-5.4V48.59h1.13v-9.2l-1.13.31V38.51Zm-3.39-2.56a1.66,1.66,0,0,1,.52-1.22,1.75,1.75,0,0,1,3,1.22,1.71,1.71,0,0,1-.52,1.26,1.65,1.65,0,0,1-1.23.52,1.73,1.73,0,0,1-1.24-.53A1.75,1.75,0,0,1,137.43,34.68Z"/><path class="cls-6" d="M143.08,49.81V48.59h1.13V39.53h-1.64l.56-1.58h1.26a4,4,0,0,1-.57-1,2.53,2.53,0,0,1-.19-1A3.48,3.48,0,0,1,145,33.38a4.53,4.53,0,0,1,3-1.22,4,4,0,0,1,1.55.31,3.38,3.38,0,0,1,1.22.88l-2,1.63a4.88,4.88,0,0,0-.93-1,1.23,1.23,0,0,0-.76-.28,1.19,1.19,0,0,0-.94.42,1.58,1.58,0,0,0-.37,1.07,2.6,2.6,0,0,0,.87,2,3,3,0,0,0,2.13.81h1.17l-.59,1.58h-2.15v9.06H149v1.22Z"/><path class="cls-6" d="M154.22,37.24h.14c0,.35-.06.67-.08,1s0,.58,0,.83v9.55h1.16v1.22H150V48.59h1.13v-9.2L150,39.7V38.51Zm-3.39-2.56a1.78,1.78,0,0,1,3-1.23,1.66,1.66,0,0,1,.51,1.23,1.71,1.71,0,0,1-.52,1.26,1.72,1.72,0,0,1-2.47,0A1.72,1.72,0,0,1,150.83,34.68Z"/><path class="cls-6" d="M167.15,39.52l-2.21,2a6,6,0,0,0-1.37-2.14,2.59,2.59,0,0,0-3.86.36,4.36,4.36,0,0,0-.83,2.74,6,6,0,0,0,1.27,3.8,3.68,3.68,0,0,0,2.93,1.61,3.57,3.57,0,0,0,1.72-.43,5.14,5.14,0,0,0,1.52-1.28l.7.61a6.45,6.45,0,0,1-2.24,2.44,5.55,5.55,0,0,1-3,.89,5.46,5.46,0,0,1-4.14-1.66A6,6,0,0,1,156,44.19a7,7,0,0,1,1.91-4.91,6,6,0,0,1,4.53-2,5.74,5.74,0,0,1,2.55.57A6.54,6.54,0,0,1,167.15,39.52Z"/><path class="cls-6" d="M171.87,37.24H172c0,.35-.06.67-.08,1s0,.58,0,.83v9.55h1.17v1.22h-5.4V48.59h1.13v-9.2l-1.13.31V38.51Zm-3.39-2.56a1.78,1.78,0,0,1,3-1.23,1.66,1.66,0,0,1,.51,1.23,1.71,1.71,0,0,1-.52,1.26,1.72,1.72,0,0,1-2.47,0A1.72,1.72,0,0,1,168.48,34.68Z"/><path class="cls-6" d="M176.29,37l1.09.32-.22.87a7.74,7.74,0,0,1,1.59-.69,5.61,5.61,0,0,1,1.56-.23,4.25,4.25,0,0,1,3.13,1.06,4.34,4.34,0,0,1,1,3.16V48.6h1.13v1.23h-4l-.28-1.41a5.82,5.82,0,0,1-1.74,1.32,4.42,4.42,0,0,1-2,.44A3.79,3.79,0,0,1,174.86,49a3.9,3.9,0,0,1-1.14-2.85,3.71,3.71,0,0,1,1.58-3.24,7.78,7.78,0,0,1,4.55-1.13l.76,0c.26,0,.51,0,.77.06V41a1.88,1.88,0,0,0-.54-1.43,2,2,0,0,0-1.5-.52,3.1,3.1,0,0,0-1.74.53,4.14,4.14,0,0,0-1.34,1.51l-1.17-.41Zm5.09,6.08-.57-.07-.62,0a3.85,3.85,0,0,0-2.51.79,2.52,2.52,0,0,0-1,2.05,2.42,2.42,0,0,0,.65,1.74,2.24,2.24,0,0,0,1.67.66,2.16,2.16,0,0,0,1.72-.71,3,3,0,0,0,.62-2Z"/><path class="cls-6" d="M81.55,59a5.88,5.88,0,0,1,3.68,1.59A4.7,4.7,0,0,1,86.56,64a5.23,5.23,0,0,1-1.7,4.06,6.37,6.37,0,0,1-4.47,1.55H72.73V68.18h1.45V53.76H72.73V52.3h6.74a6.91,6.91,0,0,1,3.91.9,3,3,0,0,1,1.31,2.66,2.67,2.67,0,0,1-.84,2A4.28,4.28,0,0,1,81.55,59Zm-3.94-.61h1.11a3.12,3.12,0,0,0,2-.57,2,2,0,0,0,.69-1.65,1.94,1.94,0,0,0-.74-1.65,3.58,3.58,0,0,0-2.17-.56h-.9Zm0,1.62v8.08h1.23A4.4,4.4,0,0,0,82,67,4,4,0,0,0,83,64a4.11,4.11,0,0,0-1-3A4,4,0,0,0,79,60Z"/><path class="cls-6" d="M93.41,70a6.6,6.6,0,0,1-4.78-1.83,6.6,6.6,0,0,1,0-9.27,7.18,7.18,0,0,1,9.58,0,6.6,6.6,0,0,1,0,9.27A6.65,6.65,0,0,1,93.41,70ZM90,62.57a7.58,7.58,0,0,0,1.16,4.26,3.29,3.29,0,0,0,2.74,1.77,2.53,2.53,0,0,0,2.16-1.1,5,5,0,0,0,.79-3,7.55,7.55,0,0,0-1.17-4.28,3.33,3.33,0,0,0-2.79-1.76,2.44,2.44,0,0,0-2.1,1.11A5.09,5.09,0,0,0,90,62.57Z"/><path class="cls-6" d="M106.06,52.08v1.26l-1.1.38V68.4h1.13v1.23h-5.37V68.4h1.13V54.74l-1.13.39V53.85Z"/><path class="cls-6" d="M111.35,57.06h.14c0,.34-.07.67-.08,1s0,.58,0,.84V68.4h1.16v1.23h-5.4V68.4h1.14V59.2l-1.14.31V58.33ZM108,54.5a1.64,1.64,0,0,1,.52-1.22,1.69,1.69,0,0,1,1.25-.52,1.74,1.74,0,0,1,1.25.5,1.68,1.68,0,0,1,.51,1.24,1.77,1.77,0,0,1-.52,1.26,1.72,1.72,0,0,1-2.48,0A1.73,1.73,0,0,1,108,54.5Z"/><path class="cls-6" d="M116,57.06a8.83,8.83,0,0,0,.32,1.22,13.54,13.54,0,0,0,.51,1.31,9.47,9.47,0,0,1,1.83-1.94,2.83,2.83,0,0,1,1.63-.53,8,8,0,0,1,1.64.24,8,8,0,0,0,1.51.25,2,2,0,0,0,.61-.09,3,3,0,0,0,.65-.32l.54.52a15,15,0,0,0-.8,1.64,3.57,3.57,0,0,1-.13.35l-3.34,8c-.14.34-.25.67-.35,1s-.19.64-.26,1h-2.49a10.45,10.45,0,0,0-.58-1.58c0-.08-.06-.14-.08-.17l-3.65-8.32-1,.43-.44-1Zm6.9,2.53a1.14,1.14,0,0,1-.41.21,1.58,1.58,0,0,1-.53.07,5.22,5.22,0,0,1-1.32-.28,5.74,5.74,0,0,0-1.37-.27,2.08,2.08,0,0,0-1.06.3,3.62,3.62,0,0,0-1,.91l2.67,6.31Z"/><path class="cls-6" d="M127.44,56.8l1.09.32-.22.87a7.23,7.23,0,0,1,1.59-.69,5.61,5.61,0,0,1,1.56-.23,4.21,4.21,0,0,1,3.13,1.06,4.29,4.29,0,0,1,1,3.16v7.13h1.13v1.22h-3.94l-.29-1.4a5.82,5.82,0,0,1-1.74,1.32,4.55,4.55,0,0,1-1.95.44A3.79,3.79,0,0,1,126,68.85,3.9,3.9,0,0,1,124.87,66a3.72,3.72,0,0,1,1.58-3.25A7.78,7.78,0,0,1,131,61.63c.26,0,.51,0,.77,0l.76.05v-.87A1.91,1.91,0,0,0,132,59.4a2.07,2.07,0,0,0-1.51-.52,3.09,3.09,0,0,0-1.74.52,4.26,4.26,0,0,0-1.34,1.52l-1.17-.41Zm5.09,6.08a5.54,5.54,0,0,0-.57-.07l-.62,0a3.79,3.79,0,0,0-2.51.79,2.5,2.5,0,0,0-1,2,2.39,2.39,0,0,0,.65,1.74,2.21,2.21,0,0,0,1.68.67,2.15,2.15,0,0,0,1.71-.71,3,3,0,0,0,.62-2Z"/><path class="cls-6" d="M146.09,57l1,.44-1.5,3.3a5,5,0,0,0-1.09-.59,2.5,2.5,0,0,0-.89-.16,1.41,1.41,0,0,0-1.16.55,2.37,2.37,0,0,0-.44,1.52v6.36h1.46v1.23h-5.69V68.41h1.13V61.06a2,2,0,0,0-.1-.72,1,1,0,0,0-.36-.32l-.53.56-.85-.77,2.17-2.74a6.14,6.14,0,0,1,1.53,1,3.16,3.16,0,0,1,.8,1.22,6.86,6.86,0,0,1,1.21-1.76,1.68,1.68,0,0,1,1.17-.51,2.81,2.81,0,0,1,.79.14,5.7,5.7,0,0,1,1,.44Z"/><path class="cls-6" d="M151.09,57.06h.14c0,.34-.06.67-.08,1s0,.58,0,.84V68.4h1.17v1.23h-5.4V68.4H148V59.2l-1.13.31V58.33Zm-3.38-2.56a1.64,1.64,0,0,1,.52-1.22,1.67,1.67,0,0,1,1.24-.52,1.7,1.7,0,0,1,1.25.5,1.68,1.68,0,0,1,.51,1.24,1.73,1.73,0,0,1-.52,1.26,1.69,1.69,0,0,1-1.24.52,1.66,1.66,0,0,1-1.23-.54A1.69,1.69,0,0,1,147.71,54.5Z"/><path class="cls-6" d="M155.51,56.8l1.09.32-.22.87A7.23,7.23,0,0,1,158,57.3a5.61,5.61,0,0,1,1.56-.23,4.19,4.19,0,0,1,3.13,1.06,4.29,4.29,0,0,1,1,3.16v7.13h1.14v1.22h-4l-.29-1.4a5.82,5.82,0,0,1-1.74,1.32,4.52,4.52,0,0,1-2,.44,3.81,3.81,0,0,1-2.83-1.15A3.9,3.9,0,0,1,152.94,66a3.72,3.72,0,0,1,1.58-3.25,7.78,7.78,0,0,1,4.55-1.12c.26,0,.51,0,.76,0l.77.05v-.87a1.91,1.91,0,0,0-.53-1.43,2.07,2.07,0,0,0-1.51-.52,3.09,3.09,0,0,0-1.74.52,4.26,4.26,0,0,0-1.34,1.52l-1.17-.41Zm5.09,6.08c-.19,0-.38-.06-.56-.07l-.63,0a3.79,3.79,0,0,0-2.51.79,2.49,2.49,0,0,0-1,2,2.38,2.38,0,0,0,.64,1.74,2.21,2.21,0,0,0,1.68.67,2.17,2.17,0,0,0,1.72-.71,3.06,3.06,0,0,0,.61-2Z"/><path class="cls-6" d="M167,68.4V59.23l-1.13.31v-1.2L170,57.12h.15l0,2.06a11.47,11.47,0,0,1,2.4-1.6,4.85,4.85,0,0,1,2.06-.52,3.37,3.37,0,0,1,2.57,1,3.79,3.79,0,0,1,.95,2.71V68.4h1.13v1.23h-5.4V68.4H175V61.16a2,2,0,0,0-.47-1.42,1.84,1.84,0,0,0-1.36-.49,3.66,3.66,0,0,0-1.53.38,5.48,5.48,0,0,0-1.52,1V68.4h1.16v1.23h-5.4V68.4Z"/><path class="cls-6" d="M182.38,56.8l1.1.32-.23.87a7.23,7.23,0,0,1,1.59-.69,5.63,5.63,0,0,1,1.57-.23,4.16,4.16,0,0,1,3.12,1.06,4.29,4.29,0,0,1,1.05,3.16v7.13h1.13v1.22h-4l-.29-1.4a5.58,5.58,0,0,1-1.74,1.32,4.49,4.49,0,0,1-1.95.44A3.81,3.81,0,0,1,181,68.85,3.9,3.9,0,0,1,179.81,66a3.75,3.75,0,0,1,1.58-3.25,7.78,7.78,0,0,1,4.55-1.12c.26,0,.52,0,.77,0l.76.05v-.87a1.87,1.87,0,0,0-.53-1.43,2.06,2.06,0,0,0-1.5-.52,3.09,3.09,0,0,0-1.74.52,4.17,4.17,0,0,0-1.34,1.52l-1.17-.41Zm5.09,6.08a5.35,5.35,0,0,0-.56-.07l-.63,0a3.81,3.81,0,0,0-2.51.79,2.52,2.52,0,0,0-1,2,2.38,2.38,0,0,0,.64,1.74,2.21,2.21,0,0,0,1.68.67,2.16,2.16,0,0,0,1.72-.71,3,3,0,0,0,.61-2Z"/><path class="cls-4" d="M25.4,25.62H22.68l-.48,1.09a1.83,1.83,0,0,0-.17.61.34.34,0,0,0,.15.27,1.27,1.27,0,0,0,.65.16v.19H20.64v-.19a1.24,1.24,0,0,0,.57-.2,3.46,3.46,0,0,0,.58-1l2.48-5.7h.17l2.42,5.78a2.58,2.58,0,0,0,.53.9,1.09,1.09,0,0,0,.66.23v.19H25.31v-.19a1,1,0,0,0,.56-.14.35.35,0,0,0,.15-.28,2.15,2.15,0,0,0-.21-.72Zm-.16-.38-1.17-2.81-1.22,2.81Z"/><path class="cls-4" d="M24.71,41.59V41.4h2.48v.19h-.27a.72.72,0,0,0-.63.33,1.45,1.45,0,0,0-.11.73v2.78A4.73,4.73,0,0,1,26,47a2,2,0,0,1-.83,1,3,3,0,0,1-1.68.4A3.2,3.2,0,0,1,21.71,48,2.09,2.09,0,0,1,20.86,47a5.64,5.64,0,0,1-.17-1.69V42.61a1.31,1.31,0,0,0-.18-.83.71.71,0,0,0-.57-.19h-.26V41.4h3v.19h-.27a.68.68,0,0,0-.61.26,1.44,1.44,0,0,0-.13.76v3a6.36,6.36,0,0,0,.07.92,1.92,1.92,0,0,0,.28.8,1.52,1.52,0,0,0,.57.48,2.13,2.13,0,0,0,.92.18,2.55,2.55,0,0,0,1.24-.29,1.52,1.52,0,0,0,.75-.75,4.29,4.29,0,0,0,.2-1.55V42.61a1.31,1.31,0,0,0-.15-.8.75.75,0,0,0-.6-.22Z"/><path class="cls-4" d="M32.17,45v2a1.37,1.37,0,0,0,.15.81.82.82,0,0,0,.61.22h.28v.19H30.12v-.19h.27a.77.77,0,0,0,.66-.29,1.61,1.61,0,0,0,.1-.74V42.61a1.42,1.42,0,0,0-.14-.8.81.81,0,0,0-.62-.22h-.27V41.4h2.63a4.77,4.77,0,0,1,1.52.19,2,2,0,0,1,.94.64,1.55,1.55,0,0,1,.38,1.06A1.75,1.75,0,0,1,35,44.66a2.33,2.33,0,0,1-1.63.52l-.56,0A5.89,5.89,0,0,1,32.17,45Zm0-.28c.19,0,.35.06.5.07l.36,0a1.29,1.29,0,0,0,.95-.41,1.46,1.46,0,0,0,.39-1.06,1.84,1.84,0,0,0-.19-.83,1.27,1.27,0,0,0-.53-.57,1.59,1.59,0,0,0-.79-.19,2.92,2.92,0,0,0-.69.1Z"/><path class="cls-4" d="M42.87,44.75a2.11,2.11,0,0,1,1,.48,1.59,1.59,0,0,1,.47,1.15,1.83,1.83,0,0,1-.31,1,1.79,1.79,0,0,1-.85.68,4.8,4.8,0,0,1-1.65.22H38.45v-.19h.25a.63.63,0,0,0,.58-.27A1.55,1.55,0,0,0,39.4,47V42.61a1.47,1.47,0,0,0-.14-.8.7.7,0,0,0-.56-.22h-.25V41.4h2.84a5.55,5.55,0,0,1,1.28.12,2,2,0,0,1,1.1.64,1.6,1.6,0,0,1,.39,1.06,1.49,1.49,0,0,1-.3.92A1.78,1.78,0,0,1,42.87,44.75Zm-2.54-.28.41.05.51,0a2.84,2.84,0,0,0,1.06-.16,1.19,1.19,0,0,0,.55-.49,1.45,1.45,0,0,0,.19-.71,1.33,1.33,0,0,0-.47-1,2,2,0,0,0-1.38-.43,3.34,3.34,0,0,0-.87.11Zm0,3.29a4.82,4.82,0,0,0,1.12.13,1.94,1.94,0,0,0,1.34-.41,1.29,1.29,0,0,0,.46-1,1.57,1.57,0,0,0-.21-.77,1.44,1.44,0,0,0-.69-.58,2.83,2.83,0,0,0-1.16-.21h-.52l-.34,0Z"/></g></g></svg>