<svg xmlns="http://www.w3.org/2000/svg" viewBox="0 0 289.57 103.8"><defs><style>.cls-1,.cls-3,.cls-5{fill:#fff;}.cls-1{fill-rule:evenodd;}.cls-2{fill:#fdfdfd;}.cls-3{stroke:#222221;stroke-miterlimit:10;stroke-width:0.3px;}.cls-4{fill:#222221;}</style></defs><g id="Capa_2" data-name="Capa 2"><g id="Capa_1-2" data-name="Capa 1"><path class="cls-1" d="M25.13,24.67V73.85c0,2.17,2.64,4.35,4.81,4.35H44.52a3.5,3.5,0,0,1,2.64,2.17A3.27,3.27,0,0,1,49.8,78.2H64.23A4.67,4.67,0,0,0,69,73.85V24.67ZM39.86,61.36h-.4a1.08,1.08,0,0,0-1,.5A2.27,2.27,0,0,0,38.35,63V67.1A7.06,7.06,0,0,1,38,69.48a3,3,0,0,1-1.23,1.46,4.57,4.57,0,0,1-2.51.61A4.89,4.89,0,0,1,31.67,71,3.16,3.16,0,0,1,30.4,69.4a8.17,8.17,0,0,1-.25-2.51v-4a2,2,0,0,0-.26-1.23,1.09,1.09,0,0,0-.86-.3h-.39v-.28h4.51v.28h-.4a1,1,0,0,0-.92.4,2.18,2.18,0,0,0-.19,1.13v4.46a8.85,8.85,0,0,0,.12,1.36,2.81,2.81,0,0,0,.4,1.2,2.18,2.18,0,0,0,.86.71,3,3,0,0,0,1.37.28,3.75,3.75,0,0,0,1.85-.44,2.34,2.34,0,0,0,1.12-1.12,6.25,6.25,0,0,0,.3-2.31V62.89a2.12,2.12,0,0,0-.21-1.2,1.16,1.16,0,0,0-.9-.33h-.4v-.28h3.71ZM41.15,41h-4.1V40.7a1.51,1.51,0,0,0,.84-.21.53.53,0,0,0,.22-.43A3,3,0,0,0,37.8,39l-.62-1.49H33.12l-.71,1.64a2.64,2.64,0,0,0-.26.9.52.52,0,0,0,.23.41,2,2,0,0,0,1,.24V41H30.08V40.7a1.8,1.8,0,0,0,.84-.3,4.83,4.83,0,0,0,.87-1.51l3.71-8.52h.25L39.37,39a4,4,0,0,0,.79,1.35,1.7,1.7,0,0,0,1,.35ZM51.54,66a3.51,3.51,0,0,1-2.44.79,6.23,6.23,0,0,1-.83-.06,9.19,9.19,0,0,1-1-.15v3a2.07,2.07,0,0,0,.22,1.2,1.19,1.19,0,0,0,.92.33h.41v.28H44.23V71h.41a1.12,1.12,0,0,0,1-.42,2.45,2.45,0,0,0,.16-1.11V62.89a2.09,2.09,0,0,0-.22-1.2,1.2,1.2,0,0,0-.92-.33h-.41v-.28h3.94a7.28,7.28,0,0,1,2.27.28,3.15,3.15,0,0,1,1.4,1,2.39,2.39,0,0,1,.57,1.59A2.61,2.61,0,0,1,51.54,66Zm1.52-27.47h.31c0,.31.16.62.31.62.16.31.47.31.93.31h2v-.47a4.42,4.42,0,0,1-2.33-1.55,4.19,4.19,0,0,1-.93-2.63,4.5,4.5,0,0,1,1.4-3.27,5,5,0,0,1,3.72-1.24,7.6,7.6,0,0,1,2.8.47,4.83,4.83,0,0,1,1.85,1.71,3.7,3.7,0,0,1,.63,2.33A5.15,5.15,0,0,1,63,37.39a5.15,5.15,0,0,1-2.49,1.55v.47h2c.46,0,.77,0,.93-.15a1.24,1.24,0,0,0,.31-.78h.31v2.17H59.89L60,38.48a2.46,2.46,0,0,0,1.56-1.24,4.48,4.48,0,0,0,.46-2.33,4.93,4.93,0,0,0-.93-3.1,3.4,3.4,0,0,0-2.64-1.09,2.79,2.79,0,0,0-2.33,1.09,4.25,4.25,0,0,0-1.08,3.1,5.2,5.2,0,0,0,.46,2.33,2.91,2.91,0,0,0,1.56,1.24l.3,2.17H53.06Zm12,31.5a2.62,2.62,0,0,1-1.27,1,6.94,6.94,0,0,1-2.46.32H56.68V71h.37a.94.94,0,0,0,.87-.4,2.33,2.33,0,0,0,.17-1.13V62.89a2.17,2.17,0,0,0-.21-1.2,1,1,0,0,0-.83-.33h-.37v-.28h4.24a8,8,0,0,1,1.9.18,3,3,0,0,1,1.66,1,2.42,2.42,0,0,1,.57,1.59,2.29,2.29,0,0,1-.44,1.37,2.55,2.55,0,0,1-1.33.9,3.21,3.21,0,0,1,1.54.73,2.34,2.34,0,0,1,.7,1.7A2.64,2.64,0,0,1,65.05,70Z"/><path class="cls-1" d="M49.51,62a2.43,2.43,0,0,0-1.18-.29,4.62,4.62,0,0,0-1,.15V66.1c.28.05.52.09.74.11a3.94,3.94,0,0,0,.55,0,1.87,1.87,0,0,0,1.4-.61,2.14,2.14,0,0,0,.6-1.58,2.76,2.76,0,0,0-.29-1.24A1.87,1.87,0,0,0,49.51,62Z"/><path class="cls-1" d="M62.51,66.63a4.26,4.26,0,0,0-1.74-.32l-.77,0a5.1,5.1,0,0,0-.52,0v4.2a7.46,7.46,0,0,0,1.67.2,2.93,2.93,0,0,0,2-.61,2,2,0,0,0,.69-1.53,2.17,2.17,0,0,0-.32-1.14A2.11,2.11,0,0,0,62.51,66.63Z"/><path class="cls-1" d="M60.85,65.77a4.1,4.1,0,0,0,1.6-.24,1.78,1.78,0,0,0,.81-.72,2.09,2.09,0,0,0,.28-1.07,2,2,0,0,0-.7-1.53,3,3,0,0,0-2.05-.63,4.83,4.83,0,0,0-1.31.17v3.91a5,5,0,0,0,.62.08Q60.44,65.77,60.85,65.77Z"/><polygon class="cls-1" points="33.37 36.94 36.95 36.94 35.2 32.75 33.37 36.94"/><polygon class="cls-1" points="19.24 0 74.94 0 54.61 9.62 54.61 18.15 49.8 18.15 49.8 9.62 44.52 9.62 44.52 18.15 39.56 18.15 39.56 9.62 19.24 0"/><polygon class="cls-1" points="19.24 102.71 74.94 102.71 54.61 93.09 54.61 84.56 49.8 84.56 49.8 93.09 44.52 93.09 44.52 84.56 39.56 84.56 39.56 93.09 19.24 102.71"/><polygon class="cls-1" points="0 24.67 9.62 44.99 18.15 44.99 18.15 49.8 9.62 49.8 9.62 55.08 18.15 55.08 18.15 60.05 9.62 60.05 0 78.2 0 24.67"/><polygon class="cls-1" points="94.17 24.67 84.56 44.99 76.02 44.99 76.02 49.8 84.56 49.8 84.56 55.08 76.02 55.08 76.02 60.05 84.56 60.05 94.17 78.2 94.17 24.67"/><path class="cls-2" d="M47.92,86.76l-1.51,0a3.23,3.23,0,0,0-1.89-1.42H29.94c-5.15,0-12.54-6.75-12.54-11.46V17.4H76.78V73.85c0,4.82-7.27,11.46-12.55,11.46H49.8A2.43,2.43,0,0,0,47.92,86.76Zm-29-67.86v55c0,3.91,6.7,10,11,10H44.52a4.05,4.05,0,0,1,2.6,1.4,3.74,3.74,0,0,1,2.68-1.4H64.23c4.33,0,11-6,11-10V18.9Z"/><path class="cls-3" d="M46.26,45.7c-1-1.33,6.49,3.16,6.49,7.49a4.29,4.29,0,0,1-4.5,4c-2.49,0-4.65-1.83-4.65-4C43.6,50,48.59,49.86,46.26,45.7Z"/><path class="cls-4" d="M48.25,56.54a3.63,3.63,0,0,1-3.79-3.32,4.47,4.47,0,0,1,1.85-3.09l.47.59a3.81,3.81,0,0,0-1.56,2.5,2.9,2.9,0,0,0,3,2.57,3,3,0,0,0,3.19-2.73c0-2.49-3.49-5.43-4.38-5.69l.21-.72c1.15.33,4.93,3.54,4.93,6.41A3.69,3.69,0,0,1,48.25,56.54Z"/><path class="cls-4" d="M48.25,55.88c-1.55-.72-2.37-1.41-2.65-2.24a2.67,2.67,0,0,1,.3-2.14,4.18,4.18,0,0,1,.48-.86,1.16,1.16,0,0,0,.25-.52h.76a1.67,1.67,0,0,1-.39.94,3.93,3.93,0,0,0-.42.75,2,2,0,0,0-.27,1.58c.21.61.93,1.19,2.26,1.81Z"/><path class="cls-4" d="M48.93,55.86l-.43-.63a3.15,3.15,0,0,0,1.6-2c.14-1.05-.81-2.16-1.82-3.34-.43-.51-.88-1-1.27-1.58l.62-.44c.37.52.8,1,1.23,1.53C50,50.72,51,52,50.85,53.34A3.84,3.84,0,0,1,48.93,55.86Z"/><path class="cls-4" d="M48.86,55.31l-.59-.46c1.36-1.74.52-3.13-.46-4.73-.11-.2-.23-.39-.35-.59l.65-.38.35.58C49.48,51.42,50.54,53.16,48.86,55.31Z"/><path class="cls-4" d="M47.89,55.39c-1.63-1.08-1.25-3.8-.77-5.24l.71.24c-.44,1.34-.69,3.6.47,4.38Z"/><path class="cls-5" d="M103.6,24.09H111V42.21a6.06,6.06,0,0,0,1.08,3.93,3.93,3.93,0,0,0,3.23,1.32A4.45,4.45,0,0,0,118.88,46a5.82,5.82,0,0,0,1.29-4V26.26H118V24.09h7.44V47.8h2.17V50h-7.25l-.15-2.62A10.41,10.41,0,0,1,117,49.71a8.87,8.87,0,0,1-3.74.79,7.2,7.2,0,0,1-5.56-2q-1.89-2-1.89-6V26.26H103.6Z"/><path class="cls-5" d="M131,42.2V28.49l-1.69.47v-1.8l6.14-1.81h.22l0,3.07a18.29,18.29,0,0,1,3.6-2.39,7.26,7.26,0,0,1,3.08-.78,5,5,0,0,1,3.83,1.5,5.62,5.62,0,0,1,1.42,4.05V42.2h1.69V44H141.2V42.2h1.73V31.38a3,3,0,0,0-.69-2.12,2.72,2.72,0,0,0-2-.73,5.49,5.49,0,0,0-2.29.56,8.77,8.77,0,0,0-2.28,1.53V42.2h1.74V44h-8.06V42.2Z"/><path class="cls-5" d="M157.08,25.25h.21c-.06.52-.1,1-.12,1.45s0,.86,0,1.24V42.2h1.74V44h-8.06V42.2h1.69V28.46l-1.69.46V27.15ZM152,21.43a2.51,2.51,0,0,1,.78-1.83,2.62,2.62,0,1,1,3.71,3.71,2.55,2.55,0,0,1-3.69,0A2.59,2.59,0,0,1,152,21.43Z"/><path class="cls-5" d="M164,25.25a13.79,13.79,0,0,0,.48,1.83c.21.63.46,1.28.76,2a13.71,13.71,0,0,1,2.74-2.9,4.17,4.17,0,0,1,2.42-.78,11.84,11.84,0,0,1,2.45.36,11.75,11.75,0,0,0,2.26.36,3,3,0,0,0,.91-.13,5,5,0,0,0,1-.47l.8.77a21.15,21.15,0,0,0-1.19,2.45c-.09.24-.15.41-.2.52l-5,11.89c-.2.51-.37,1-.52,1.48s-.28,1-.39,1.45h-3.72a15.75,15.75,0,0,0-.87-2.35c0-.13-.09-.21-.11-.26L160.36,29l-1.52.65-.64-1.44ZM174.31,29a2.11,2.11,0,0,1-.61.32,2.6,2.6,0,0,1-.8.1,8.61,8.61,0,0,1-2-.41,8.56,8.56,0,0,0-2-.41,3.09,3.09,0,0,0-1.58.45,5.58,5.58,0,0,0-1.49,1.35l4,9.43Z"/><path class="cls-5" d="M191.9,33.27l-9.51,3.08a7.22,7.22,0,0,0,2.23,3.49,5.46,5.46,0,0,0,3.57,1.2,6.83,6.83,0,0,0,2.73-.55,7.92,7.92,0,0,0,2.43-1.63l1.14,1.19a12,12,0,0,1-3.94,3.35,10.36,10.36,0,0,1-4.79,1.16,7.75,7.75,0,0,1-6.1-2.69A9.91,9.91,0,0,1,177.28,35a9.78,9.78,0,0,1,2.63-7,8.43,8.43,0,0,1,6.39-2.81,7.51,7.51,0,0,1,3.29.74,8.59,8.59,0,0,1,2.75,2.19,10.84,10.84,0,0,1,1.46,2.37,5.6,5.6,0,0,1,.62,1.77c0,.19-.38.38-1.14.58C192.73,33,192.27,33.16,191.9,33.27Zm-2.22-1.43a7.88,7.88,0,0,0-1.85-3.27,3.63,3.63,0,0,0-2.6-1.15,3.15,3.15,0,0,0-2.61,1.39,5.68,5.68,0,0,0-1,3.48c0,.34,0,.69,0,1a8.75,8.75,0,0,0,.14,1Z"/><path class="cls-5" d="M207.84,25.15l1.48.65-2.23,4.94a8.11,8.11,0,0,0-1.64-.89,3.84,3.84,0,0,0-1.32-.24,2.08,2.08,0,0,0-1.73.82,3.56,3.56,0,0,0-.66,2.28v9.5h2.17V44h-8.49V42.21h1.68v-11a2.85,2.85,0,0,0-.15-1.08,1.47,1.47,0,0,0-.53-.47l-.8.83-1.27-1.14,3.24-4.11a10.14,10.14,0,0,1,2.3,1.57,4.84,4.84,0,0,1,1.18,1.83A10.46,10.46,0,0,1,202.88,26a2.54,2.54,0,0,1,1.74-.77,3.87,3.87,0,0,1,1.2.23,7.64,7.64,0,0,1,1.42.65Z"/><path class="cls-5" d="M221.12,27.08l-2,3.05a13.56,13.56,0,0,0-2.67-2.06,4.71,4.71,0,0,0-2.27-.65,2,2,0,0,0-1.37.49,1.57,1.57,0,0,0-.54,1.21q0,1.47,4.51,3.46l.17.07a10.36,10.36,0,0,1,3.79,2.45,4.9,4.9,0,0,1,.94,3.13,5.73,5.73,0,0,1-2.13,4.49,7.79,7.79,0,0,1-5.27,1.84,10,10,0,0,1-3.72-.71,9.8,9.8,0,0,1-3.17-2l2.5-3.43a16.69,16.69,0,0,0,3.28,2.87,5.36,5.36,0,0,0,2.82.9,2.41,2.41,0,0,0,1.69-.62,2.08,2.08,0,0,0,.67-1.59c0-1-1.16-2-3.49-3.1l-.28-.13a14.57,14.57,0,0,1-4.62-3,4.69,4.69,0,0,1-1-3,5,5,0,0,1,1.8-3.91,6.79,6.79,0,0,1,4.58-1.55,9.53,9.53,0,0,1,2.92.45A12.74,12.74,0,0,1,221.12,27.08Z"/><path class="cls-5" d="M228.67,25.25h.21c-.06.52-.09,1-.12,1.45s0,.86,0,1.24V42.2h1.74V44h-8.06V42.2h1.69V28.46l-1.69.46V27.15Zm-5.06-3.82a2.51,2.51,0,0,1,.78-1.83,2.62,2.62,0,1,1,3.71,3.71,2.55,2.55,0,0,1-3.69,0A2.59,2.59,0,0,1,223.61,21.43Z"/><path class="cls-5" d="M250.62,17.81V19.7l-1.62.58V42.2h1.69V44h-5.95l-.37-2.15a10.08,10.08,0,0,1-2.78,2,6.78,6.78,0,0,1-2.88.68,6.44,6.44,0,0,1-5.25-2.48,9.91,9.91,0,0,1-2-6.48,11.07,11.07,0,0,1,2.51-7.39,7.69,7.69,0,0,1,6.05-3,7.07,7.07,0,0,1,2.28.35,8.18,8.18,0,0,1,2.1,1V21.81l-1.69.58V20.46Zm-6.25,13.67a4.33,4.33,0,0,0-1-3.06,3.64,3.64,0,0,0-2.81-1.09,3.77,3.77,0,0,0-3.2,1.85A8.29,8.29,0,0,0,236.06,34a9.41,9.41,0,0,0,1.41,5.36A4.14,4.14,0,0,0,241,41.42a4,4,0,0,0,1.81-.45,5,5,0,0,0,1.56-1.24Z"/><path class="cls-5" d="M255.51,24.86l1.63.48-.33,1.3a11,11,0,0,1,2.37-1,8.21,8.21,0,0,1,2.33-.34,6.32,6.32,0,0,1,4.68,1.58,6.48,6.48,0,0,1,1.55,4.72V42.22h1.69v1.83h-5.89l-.43-2.1a8.73,8.73,0,0,1-2.6,2,6.81,6.81,0,0,1-2.92.65,5.68,5.68,0,0,1-4.22-1.72,5.8,5.8,0,0,1-1.7-4.25A5.58,5.58,0,0,1,254,33.76c1.58-1.12,3.84-1.68,6.8-1.68.39,0,.77,0,1.15,0s.76,0,1.14.08v-1.3a2.87,2.87,0,0,0-.8-2.15,3.11,3.11,0,0,0-2.24-.77,4.64,4.64,0,0,0-2.6.78,6.2,6.2,0,0,0-2,2.27l-1.75-.61Zm7.6,9.09c-.29-.05-.57-.09-.84-.11l-.94,0A5.74,5.74,0,0,0,257.58,35a3.76,3.76,0,0,0-1.42,3,3.58,3.58,0,0,0,1,2.6,3.31,3.31,0,0,0,2.5,1,3.24,3.24,0,0,0,2.57-1.06,4.5,4.5,0,0,0,.92-3Z"/><path class="cls-5" d="M289.5,17.81V19.7l-1.62.58V42.2h1.69V44h-5.95l-.37-2.15a10.08,10.08,0,0,1-2.78,2,6.81,6.81,0,0,1-2.88.68,6.44,6.44,0,0,1-5.25-2.48,9.91,9.91,0,0,1-2-6.48,11,11,0,0,1,2.51-7.39,7.68,7.68,0,0,1,6.05-3,7.07,7.07,0,0,1,2.28.35,8.18,8.18,0,0,1,2.1,1V21.81l-1.69.58V20.46Zm-6.25,13.67a4.33,4.33,0,0,0-1-3.06,3.65,3.65,0,0,0-2.81-1.09,3.77,3.77,0,0,0-3.2,1.85A8.29,8.29,0,0,0,274.94,34a9.41,9.41,0,0,0,1.41,5.36,4.13,4.13,0,0,0,3.53,2.09,4,4,0,0,0,1.81-.45,5,5,0,0,0,1.56-1.24Z"/><path class="cls-5" d="M129.34,47.77H139q5.41,0,8.45,2.5a8.47,8.47,0,0,1,3,6.92A9.07,9.07,0,0,1,147.67,64a9.57,9.57,0,0,1-6.94,2.68,12.92,12.92,0,0,1-2.12-.17,8.89,8.89,0,0,1-1.84-.51v5.51h2.56v2.17h-10V71.48h2.17V49.94h-2.17Zm7.43,2.37V60.78a4.66,4.66,0,0,0,.69,2.89,2.76,2.76,0,0,0,2.28.85,4.41,4.41,0,0,0,3.71-1.83,8,8,0,0,0,1.39-4.95,8.09,8.09,0,0,0-1.81-5.6,6.48,6.48,0,0,0-5.08-2Z"/><path class="cls-5" d="M160,74.18a9.9,9.9,0,0,1-7.15-2.73,9.85,9.85,0,0,1,0-13.84,10.71,10.71,0,0,1,14.31,0,9.86,9.86,0,0,1,0,13.85A10,10,0,0,1,160,74.18ZM154.9,63.11a11.25,11.25,0,0,0,1.73,6.36q1.73,2.64,4.1,2.64A3.77,3.77,0,0,0,164,70.47a7.54,7.54,0,0,0,1.18-4.5,11.23,11.23,0,0,0-1.75-6.39A5,5,0,0,0,159.21,57a3.66,3.66,0,0,0-3.14,1.66A7.7,7.7,0,0,0,154.9,63.11Z"/><path class="cls-5" d="M172.76,71.82V58.11l-1.69.47v-1.8L177.21,55h.22l0,3.07A17.54,17.54,0,0,1,181,55.65a7.26,7.26,0,0,1,3.08-.78,5.07,5.07,0,0,1,3.83,1.49,5.64,5.64,0,0,1,1.42,4.06v11.4H191v1.83H183V71.82h1.74V61a3,3,0,0,0-.7-2.12,2.72,2.72,0,0,0-2-.73,5.49,5.49,0,0,0-2.29.56,8.72,8.72,0,0,0-2.27,1.53V71.82h1.73v1.83h-8.06V71.82Z"/><path class="cls-5" d="M197.47,51.2l1.28.3v4.09h3.62l-.24,1.52a1.11,1.11,0,0,1-.24.64,1.07,1.07,0,0,1-.71.16h-2.43V68.74a3.69,3.69,0,0,0,.42,2,1.47,1.47,0,0,0,1.33.62,2.42,2.42,0,0,0,.82-.15,4.32,4.32,0,0,0,1-.53l.81,1.19a8.45,8.45,0,0,1-2.5,1.71,6.52,6.52,0,0,1-2.69.58,3.68,3.68,0,0,1-3-1.08,5.3,5.3,0,0,1-.92-3.49V57.91h-1.94V56.43a10.49,10.49,0,0,0,3.34-2.14A8.54,8.54,0,0,0,197.47,51.2Z"/><path class="cls-5" d="M209.58,54.87h.2c-.05.52-.09,1-.11,1.45s0,.86,0,1.24V71.82h1.73v1.83h-8.06V71.82H205V58.08l-1.69.46V56.77Zm-5.06-3.82a2.53,2.53,0,0,1,.77-1.83,2.58,2.58,0,0,1,1.87-.77,2.58,2.58,0,0,1,2.62,2.6,2.61,2.61,0,0,1-.77,1.88,2.56,2.56,0,0,1-3.7,0A2.58,2.58,0,0,1,204.52,51.05Z"/><path class="cls-5" d="M213,73.65V71.82h1.69V58.3h-2.46l.84-2.37h1.88a6.14,6.14,0,0,1-.85-1.45,4.09,4.09,0,0,1-.28-1.44,5.22,5.22,0,0,1,2.1-3.94,6.8,6.8,0,0,1,4.53-1.81,5.79,5.79,0,0,1,2.32.46,4.92,4.92,0,0,1,1.82,1.31l-2.91,2.43A8.12,8.12,0,0,0,220.25,50a1.86,1.86,0,0,0-1.14-.41,1.79,1.79,0,0,0-1.4.62,2.31,2.31,0,0,0-.55,1.6,3.87,3.87,0,0,0,1.3,2.94,4.46,4.46,0,0,0,3.18,1.21h1.75l-.88,2.37h-3.22V71.82h2.56v1.83Z"/><path class="cls-5" d="M229.6,54.87h.2c-.05.52-.09,1-.11,1.45s0,.86,0,1.24V71.82h1.74v1.83h-8.07V71.82H225V58.08l-1.69.46V56.77Zm-5.06-3.82a2.51,2.51,0,0,1,.78-1.83A2.62,2.62,0,1,1,229,52.93a2.55,2.55,0,0,1-3.69,0A2.59,2.59,0,0,1,224.54,51.05Z"/><path class="cls-5" d="M248.92,58.28l-3.32,3.06a8.75,8.75,0,0,0-2-3.2,3.85,3.85,0,0,0-5.76.54,6.46,6.46,0,0,0-1.24,4.1,8.88,8.88,0,0,0,1.89,5.66,5.49,5.49,0,0,0,4.38,2.41,5.42,5.42,0,0,0,2.58-.64,7.4,7.4,0,0,0,2.25-1.92l1.06.92a9.69,9.69,0,0,1-3.35,3.65,8.3,8.3,0,0,1-4.52,1.32,8.14,8.14,0,0,1-6.18-2.47,8.93,8.93,0,0,1-2.36-6.45,10.4,10.4,0,0,1,2.85-7.34,8.94,8.94,0,0,1,6.76-3.05,8.51,8.51,0,0,1,3.8.85A9.78,9.78,0,0,1,248.92,58.28Z"/><path class="cls-5" d="M256,54.87h.21c-.06.52-.09,1-.12,1.45s0,.86,0,1.24V71.82h1.74v1.83H249.7V71.82h1.69V58.08l-1.69.46V56.77Zm-5.06-3.82a2.51,2.51,0,0,1,.78-1.83,2.62,2.62,0,1,1,3.71,3.71,2.55,2.55,0,0,1-3.69,0A2.59,2.59,0,0,1,250.9,51.05Z"/><path class="cls-5" d="M262.56,54.48l1.63.48-.33,1.3a11,11,0,0,1,2.37-1,8.23,8.23,0,0,1,2.34-.34,6.31,6.31,0,0,1,4.67,1.58,6.44,6.44,0,0,1,1.56,4.72V71.84h1.69v1.83h-5.9l-.43-2.1a8.73,8.73,0,0,1-2.6,2,6.76,6.76,0,0,1-2.91.65,5.68,5.68,0,0,1-4.23-1.72,5.84,5.84,0,0,1-1.7-4.25,5.56,5.56,0,0,1,2.36-4.85q2.35-1.68,6.8-1.68l1.14,0c.38,0,.76,0,1.14.08v-1.3a2.83,2.83,0,0,0-.8-2.15,3.11,3.11,0,0,0-2.24-.77,4.64,4.64,0,0,0-2.6.78,6.2,6.2,0,0,0-2,2.27L260.77,60Zm7.6,9.09a8,8,0,0,0-.84-.11l-.94,0a5.71,5.71,0,0,0-3.74,1.17,3.77,3.77,0,0,0-1.43,3,3.58,3.58,0,0,0,1,2.6,3.33,3.33,0,0,0,2.51,1,3.22,3.22,0,0,0,2.56-1.06,4.45,4.45,0,0,0,.92-3Z"/><path class="cls-5" d="M121.05,87.32a8.72,8.72,0,0,1,5.51,2.37,7,7,0,0,1,2,5.19,7.79,7.79,0,0,1-2.55,6.06,9.53,9.53,0,0,1-6.67,2.31H107.88v-2.17h2.17V79.54h-2.17V77.37H118a10.46,10.46,0,0,1,5.84,1.33,4.52,4.52,0,0,1,1.95,4,4,4,0,0,1-1.25,2.94A6.61,6.61,0,0,1,121.05,87.32Zm-5.88-.92h1.66a4.54,4.54,0,0,0,3-.86,3,3,0,0,0,1-2.46,2.89,2.89,0,0,0-1.1-2.46,5.32,5.32,0,0,0-3.25-.83h-1.34Zm0,2.41v12.07H117a6.55,6.55,0,0,0,4.7-1.5,5.93,5.93,0,0,0,1.57-4.5,6.15,6.15,0,0,0-1.55-4.49,5.93,5.93,0,0,0-4.42-1.58Z"/><path class="cls-5" d="M138.77,103.78a9.92,9.92,0,0,1-7.15-2.73,9.85,9.85,0,0,1,0-13.84,10.71,10.71,0,0,1,14.31,0,9.86,9.86,0,0,1,0,13.85A10,10,0,0,1,138.77,103.78Zm-5.11-11.07a11.33,11.33,0,0,0,1.73,6.36c1.15,1.76,2.52,2.63,4.1,2.63a3.76,3.76,0,0,0,3.22-1.63,7.54,7.54,0,0,0,1.19-4.5,11.37,11.37,0,0,0-1.75-6.4q-1.76-2.62-4.18-2.63a3.66,3.66,0,0,0-3.13,1.67A7.62,7.62,0,0,0,133.66,92.71Z"/><path class="cls-5" d="M157.67,77v1.89l-1.66.57v21.93h1.69v1.83h-8v-1.83h1.69V81l-1.69.58V79.68Z"/><path class="cls-5" d="M165.56,84.47h.21c-.06.51-.09,1-.12,1.45s0,.86,0,1.24v14.26h1.74v1.83H159.3v-1.83H161V87.68l-1.69.46V86.37Zm-5.05-3.82a2.5,2.5,0,0,1,.77-1.83,2.67,2.67,0,0,1,3.73,0,2.51,2.51,0,0,1,.76,1.85,2.58,2.58,0,0,1-.78,1.88,2.55,2.55,0,0,1-3.69,0A2.58,2.58,0,0,1,160.51,80.65Z"/><path class="cls-5" d="M172.48,84.47A13.79,13.79,0,0,0,173,86.3c.21.63.46,1.28.76,2a13.71,13.71,0,0,1,2.74-2.9,4.18,4.18,0,0,1,2.43-.78,11.77,11.77,0,0,1,2.44.36,11.75,11.75,0,0,0,2.26.36,3,3,0,0,0,.91-.13,5,5,0,0,0,1-.47l.8.77a23,23,0,0,0-1.19,2.45,5.37,5.37,0,0,1-.2.52l-5,11.89c-.2.51-.37,1-.52,1.47s-.28,1-.39,1.46h-3.72a16.21,16.21,0,0,0-.87-2.36c-.05-.12-.08-.21-.11-.26l-5.45-12.42-1.52.64-.64-1.44Zm10.31,3.78a2,2,0,0,1-.61.32,2.53,2.53,0,0,1-.79.1,8.57,8.57,0,0,1-2-.41,8.6,8.6,0,0,0-2-.41,3.09,3.09,0,0,0-1.59.45,5.58,5.58,0,0,0-1.49,1.35l4,9.43Z"/><path class="cls-5" d="M189.59,84.08l1.64.48-.34,1.3a11.28,11.28,0,0,1,2.38-1,8.21,8.21,0,0,1,2.33-.34,6.32,6.32,0,0,1,4.68,1.58,6.44,6.44,0,0,1,1.55,4.72v10.65h1.7v1.83h-5.9l-.43-2.1a8.86,8.86,0,0,1-2.6,2,6.81,6.81,0,0,1-2.92.65,5.68,5.68,0,0,1-4.22-1.72,5.8,5.8,0,0,1-1.7-4.25A5.56,5.56,0,0,1,188.12,93q2.35-1.68,6.79-1.68c.39,0,.77,0,1.15,0s.76,0,1.14.08v-1.3a2.87,2.87,0,0,0-.8-2.15,3.11,3.11,0,0,0-2.24-.77,4.64,4.64,0,0,0-2.6.78,6.2,6.2,0,0,0-2,2.27l-1.75-.61Zm7.61,9.09a8.41,8.41,0,0,0-.84-.11c-.28,0-.59,0-.94,0a5.74,5.74,0,0,0-3.75,1.18,3.76,3.76,0,0,0-1.42,3.05,3.58,3.58,0,0,0,1,2.6,3.31,3.31,0,0,0,2.5,1,3.24,3.24,0,0,0,2.57-1.06,4.5,4.5,0,0,0,.92-3Z"/><path class="cls-5" d="M217.46,84.37l1.47.65L216.7,90a9.11,9.11,0,0,0-1.64-.88,3.84,3.84,0,0,0-1.32-.24,2.1,2.1,0,0,0-1.73.82,3.56,3.56,0,0,0-.66,2.28v9.5h2.17v1.83H205v-1.83h1.69v-11a3,3,0,0,0-.16-1.08,1.39,1.39,0,0,0-.53-.47l-.8.83L204,88.59l3.24-4.11a10.14,10.14,0,0,1,2.3,1.57,4.84,4.84,0,0,1,1.18,1.83,10.19,10.19,0,0,1,1.82-2.63,2.51,2.51,0,0,1,1.74-.77,3.87,3.87,0,0,1,1.19.23,7.64,7.64,0,0,1,1.42.65Z"/><path class="cls-5" d="M224.93,84.47h.2c0,.51-.09,1-.11,1.45s0,.86,0,1.24v14.26h1.74v1.83h-8.07v-1.83h1.69V87.68l-1.69.46V86.37Zm-5.06-3.82a2.53,2.53,0,0,1,.77-1.83,2.58,2.58,0,0,1,1.87-.77,2.58,2.58,0,0,1,2.62,2.6,2.61,2.61,0,0,1-.77,1.88,2.56,2.56,0,0,1-3.7,0A2.58,2.58,0,0,1,219.87,80.65Z"/><path class="cls-5" d="M231.52,84.08l1.64.48-.34,1.3a11.44,11.44,0,0,1,2.37-1,8.23,8.23,0,0,1,2.34-.34,6.28,6.28,0,0,1,4.67,1.58,6.44,6.44,0,0,1,1.56,4.72v10.65h1.69v1.83h-5.9l-.42-2.1a8.86,8.86,0,0,1-2.6,2,6.81,6.81,0,0,1-2.92.65,5.72,5.72,0,0,1-4.23-1.72,5.84,5.84,0,0,1-1.7-4.25A5.59,5.59,0,0,1,230,93q2.36-1.68,6.8-1.68.58,0,1.14,0c.38,0,.76,0,1.15.08v-1.3a2.87,2.87,0,0,0-.8-2.15,3.11,3.11,0,0,0-2.24-.77,4.62,4.62,0,0,0-2.6.78,6.32,6.32,0,0,0-2,2.27l-1.75-.61Zm7.61,9.09c-.29,0-.57-.09-.85-.11s-.59,0-.93,0a5.73,5.73,0,0,0-3.75,1.18,3.77,3.77,0,0,0-1.43,3.05,3.59,3.59,0,0,0,1,2.6,3.31,3.31,0,0,0,2.5,1,3.24,3.24,0,0,0,2.57-1.06,4.5,4.5,0,0,0,.92-3Z"/><path class="cls-5" d="M248.64,101.42V87.71l-1.69.47v-1.8l6.14-1.81h.23l0,3.07a17.54,17.54,0,0,1,3.59-2.39,7.3,7.3,0,0,1,3.08-.78A5.05,5.05,0,0,1,263.78,86,5.65,5.65,0,0,1,265.21,90v11.4h1.68v1.83h-8.06v-1.83h1.74V90.6a3,3,0,0,0-.7-2.12,2.7,2.7,0,0,0-2-.73,5.53,5.53,0,0,0-2.3.56,8.89,8.89,0,0,0-2.27,1.53v11.58H255v1.83H247v-1.83Z"/><path class="cls-5" d="M271.66,84.08l1.64.48-.34,1.3a11.28,11.28,0,0,1,2.38-1,8.11,8.11,0,0,1,2.33-.34,6.28,6.28,0,0,1,4.67,1.58,6.44,6.44,0,0,1,1.56,4.72v10.65h1.69v1.83h-5.9l-.42-2.1a8.86,8.86,0,0,1-2.6,2,6.81,6.81,0,0,1-2.92.65,5.72,5.72,0,0,1-4.23-1.72,5.84,5.84,0,0,1-1.7-4.25A5.59,5.59,0,0,1,270.18,93q2.35-1.68,6.8-1.68c.39,0,.77,0,1.15,0s.75,0,1.14.08v-1.3a2.87,2.87,0,0,0-.8-2.15,3.12,3.12,0,0,0-2.25-.77,4.63,4.63,0,0,0-2.59.78,6.32,6.32,0,0,0-2,2.27l-1.75-.61Zm7.61,9.09c-.29,0-.57-.09-.85-.11s-.59,0-.93,0a5.73,5.73,0,0,0-3.75,1.18,3.77,3.77,0,0,0-1.43,3.05,3.59,3.59,0,0,0,1,2.6,3.31,3.31,0,0,0,2.5,1,3.24,3.24,0,0,0,2.57-1.06,4.5,4.5,0,0,0,.92-3Z"/></g></g></svg>