<svg xmlns="http://www.w3.org/2000/svg" viewBox="0 0 165 165"><defs><style>.cls-1{fill:#fff;}.cls-2{fill:#001d85;}</style></defs><g id="Capa_2" data-name="Capa 2"><g id="Capa_1-2" data-name="Capa 1"><rect class="cls-1" width="165" height="165"/><path class="cls-2" d="M96.28,77.94V76.26a2.24,2.24,0,0,0,0-.47.25.25,0,0,0-.09-.16L96,75.54c-.09,0-.13-.07-.13-.13s.08-.16.22-.27a.69.69,0,0,1,.37-.16c.07,0,.13,0,.19.15a1.54,1.54,0,0,1,.15.46,1.71,1.71,0,0,1,.55-.46A1.5,1.5,0,0,1,98,75a1.06,1.06,0,0,1,.93.41,2,2,0,0,1,.31,1.24V78a.3.3,0,0,0,.17.29l.07,0a.14.14,0,0,1,.08.12.11.11,0,0,1-.06.11.44.44,0,0,1-.19,0h-.75a.46.46,0,0,1-.2,0,.08.08,0,0,1-.06-.09c0-.06,0-.11.13-.15l0,0a.33.33,0,0,0,.16-.17.88.88,0,0,0,0-.16V76.62a1.53,1.53,0,0,0-.21-.9.77.77,0,0,0-.66-.29.88.88,0,0,0-.94.92V78a.49.49,0,0,0,0,.2.29.29,0,0,0,.14.13.18.18,0,0,1,.12.15.1.1,0,0,1-.06.1.54.54,0,0,1-.22,0h-.7l-.19,0a.09.09,0,0,1,0-.09.2.2,0,0,1,0-.09.29.29,0,0,1,.13-.09l0,0A.32.32,0,0,0,96.28,77.94Z"/><path class="cls-2" d="M67.27,77.71a.86.86,0,0,0,0,.25.5.5,0,0,0,0,.13.73.73,0,0,0,.23.12c.13.05.19.11.19.19a.13.13,0,0,1-.07.13.54.54,0,0,1-.26,0h-1a.58.58,0,0,1-.27,0,.13.13,0,0,1-.07-.13c0-.08.07-.14.21-.2l.16-.07a.24.24,0,0,0,.09-.14,1,1,0,0,0,0-.28V74a.86.86,0,0,0,0-.25.33.33,0,0,0,0-.12.8.8,0,0,0-.2-.14c-.11,0-.16-.12-.16-.19a.13.13,0,0,1,.06-.12.51.51,0,0,1,.25,0h3q.43,0,.54.15a1.07,1.07,0,0,1,.11.61.22.22,0,0,1,0,.14.11.11,0,0,1-.1,0,.35.35,0,0,1-.22-.14.73.73,0,0,0-.26-.2,2.31,2.31,0,0,0-.64-.17,8.77,8.77,0,0,0-1-.05.85.85,0,0,0-.52.11.72.72,0,0,0-.12.5v1.46h1.35a1.14,1.14,0,0,0,.28,0,1.05,1.05,0,0,0,.27-.09.7.7,0,0,1,.24-.07.2.2,0,0,1,.14,0,.4.4,0,0,1,0,.2V76a.38.38,0,0,1,0,.19.16.16,0,0,1-.14,0,.77.77,0,0,1-.23-.08A.93.93,0,0,0,68.9,76l-.31,0-.39,0h-.93Z"/><path class="cls-2" d="M73.26,75.34V77.4c0,.18,0,.32,0,.43a1.05,1.05,0,0,0,0,.2.73.73,0,0,0,.09.13.48.48,0,0,0,.19.1l0,0c.09,0,.13.09.13.15a.13.13,0,0,1-.13.14H73.1c-.13,0-.23,0-.29,0a.53.53,0,0,1-.08-.33.15.15,0,0,1,0-.06v-.07a1.44,1.44,0,0,1-.53.46,1.48,1.48,0,0,1-.68.15,1.13,1.13,0,0,1-1-.39A2.17,2.17,0,0,1,70.29,77V75.86a.63.63,0,0,0,0-.25.92.92,0,0,0-.17-.15h0q-.15-.09-.15-.18c0-.07.07-.14.22-.2a1.19,1.19,0,0,1,.51-.1.19.19,0,0,1,.17.09.69.69,0,0,1,.05.31V77a1.59,1.59,0,0,0,.21.91.77.77,0,0,0,.66.29.93.93,0,0,0,.68-.25.87.87,0,0,0,.26-.66V75.8a.34.34,0,0,0,0-.17.25.25,0,0,0-.08-.1l-.07,0c-.11-.06-.16-.12-.16-.18s.07-.15.22-.23A1.12,1.12,0,0,1,73,75a.19.19,0,0,1,.17.08A.5.5,0,0,1,73.26,75.34Z"/><path class="cls-2" d="M74.6,77.94V76.26a4,4,0,0,0,0-.47.26.26,0,0,0-.1-.16l-.17-.09c-.08,0-.12-.07-.12-.13s.07-.16.22-.27a.67.67,0,0,1,.37-.16q.1,0,.18.15a1.84,1.84,0,0,1,.16.46,1.68,1.68,0,0,1,.54-.46,1.54,1.54,0,0,1,.68-.15,1.08,1.08,0,0,1,.93.41,2.07,2.07,0,0,1,.31,1.24V78a.31.31,0,0,0,.16.29l.07,0a.12.12,0,0,1,.08.12s0,.09,0,.11a.49.49,0,0,1-.2,0h-.75a.41.41,0,0,1-.19,0,.08.08,0,0,1-.06-.09q0-.09.12-.15l0,0,.08,0,.06-.08a.33.33,0,0,0,0-.2V76.62a1.53,1.53,0,0,0-.21-.9.74.74,0,0,0-.66-.29.92.92,0,0,0-.68.25.9.9,0,0,0-.25.67v1.36a2.09,2.09,0,0,0,0,.25.48.48,0,0,0,0,.2.32.32,0,0,0,.15.13.19.19,0,0,1,.11.15.1.1,0,0,1-.06.1.51.51,0,0,1-.21,0h-.71l-.19,0a.11.11,0,0,1,0-.09.12.12,0,0,1,0-.09s.06-.06.12-.09l0,0C74.56,78.2,74.6,78.1,74.6,77.94Z"/><path class="cls-2" d="M81.19,78.17a1.76,1.76,0,0,1-.58.38,1.67,1.67,0,0,1-.67.13,1.5,1.5,0,0,1-1.16-.49,1.81,1.81,0,0,1-.46-1.26,2,2,0,0,1,.5-1.4,1.81,1.81,0,0,1,2.29-.24V74a.47.47,0,0,0,0-.23.31.31,0,0,0-.15-.12l-.12,0c-.11,0-.16-.09-.16-.14a.16.16,0,0,1,0-.08.32.32,0,0,1,.1-.1,1.86,1.86,0,0,1,.39-.21.88.88,0,0,1,.31-.08.17.17,0,0,1,.17.1.66.66,0,0,1,.06.34v4.23a2.45,2.45,0,0,0,0,.3.39.39,0,0,0,0,.15l.09.08c.06,0,.14,0,.2.09s.12.09.12.16a.13.13,0,0,1-.06.11.44.44,0,0,1-.19,0h-.37c-.12,0-.2,0-.23-.06A1,1,0,0,1,81.19,78.17Zm-.08-2.41a1.19,1.19,0,0,0-.43-.3,1.3,1.3,0,0,0-.52-.1,1.05,1.05,0,0,0-.86.41A1.71,1.71,0,0,0,79,76.88a1.55,1.55,0,0,0,.3,1,1,1,0,0,0,.82.36,1.62,1.62,0,0,0,.49-.08,1.21,1.21,0,0,0,.39-.22.33.33,0,0,0,.1-.14.91.91,0,0,0,0-.27V75.76Z"/><path class="cls-2" d="M85.13,78.05a1.36,1.36,0,0,1-.55.46,1.94,1.94,0,0,1-.82.17,1.25,1.25,0,0,1-.87-.29,1,1,0,0,1-.33-.79,1.15,1.15,0,0,1,.6-1,3.4,3.4,0,0,1,1.73-.36h.24a.78.78,0,0,0-.33-.61,1.35,1.35,0,0,0-.77-.24,1.41,1.41,0,0,0-.63.19,1.12,1.12,0,0,1-.39.18.25.25,0,0,1-.17-.06.16.16,0,0,1-.07-.14c0-.16.12-.29.35-.39A2.2,2.2,0,0,1,84,75a1.73,1.73,0,0,1,1.32.43,2,2,0,0,1,.4,1.39v1.13a.25.25,0,0,0,0,.13.37.37,0,0,0,.11.13l.11,0c.11.05.16.11.16.18s0,.15-.12.15h-.58a1,1,0,0,1-.25,0s-.06-.1-.06-.2Zm0-1.51H85a2.7,2.7,0,0,0-1.33.27.84.84,0,0,0-.47.77.61.61,0,0,0,.2.48.76.76,0,0,0,.54.19,1.47,1.47,0,0,0,.36,0,1,1,0,0,0,.32-.14,1,1,0,0,0,.38-.36,1.16,1.16,0,0,0,.1-.54Z"/><path class="cls-2" d="M89.33,77.66a.23.23,0,0,1,.13,0,.09.09,0,0,1,.05.09.48.48,0,0,1-.11.27,1.61,1.61,0,0,1-.29.3,1.63,1.63,0,0,1-.47.25,2,2,0,0,1-.56.08,1.47,1.47,0,0,1-1.14-.49A1.77,1.77,0,0,1,86.49,77,2,2,0,0,1,87,75.54a1.7,1.7,0,0,1,2.08-.35.58.58,0,0,1,.34.49.29.29,0,0,1-.09.21.31.31,0,0,1-.22.09.44.44,0,0,1-.32-.22l0-.05a.86.86,0,0,0-.28-.27.71.71,0,0,0-.31-.06.85.85,0,0,0-.72.41,1.9,1.9,0,0,0-.28,1.09,1.51,1.51,0,0,0,.3,1,1,1,0,0,0,.8.37,1,1,0,0,0,.29,0,1,1,0,0,0,.28-.11,2.33,2.33,0,0,0,.32-.25A.62.62,0,0,1,89.33,77.66Z"/><path class="cls-2" d="M90.24,75.91a.44.44,0,0,0,0-.19.37.37,0,0,0-.11-.1l-.1-.05c-.09,0-.13-.1-.13-.15a.11.11,0,0,1,0-.09.36.36,0,0,1,.13-.1l0,0a1.74,1.74,0,0,1,.6-.24.12.12,0,0,1,.11.07,1.11,1.11,0,0,1,0,.33V78a.63.63,0,0,0,0,.16.22.22,0,0,0,.07.09l.12,0c.13,0,.2.11.2.18a.12.12,0,0,1-.07.11.6.6,0,0,1-.23,0h-.8a.48.48,0,0,1-.21,0,.11.11,0,0,1-.06-.1.17.17,0,0,1,0-.1.26.26,0,0,1,.11-.08l.08,0a.26.26,0,0,0,.15-.26Zm-.2-2a.38.38,0,0,1,.11-.28.48.48,0,0,1,.32-.11.44.44,0,0,1,.3.11.35.35,0,0,1,.12.28.36.36,0,0,1-.12.28.53.53,0,0,1-.62,0A.36.36,0,0,1,90,73.9Z"/><path class="cls-2" d="M91.67,76.83a1.78,1.78,0,0,1,.52-1.33,2,2,0,0,1,2.68,0,1.85,1.85,0,0,1,.51,1.34,1.89,1.89,0,0,1-3.19,1.33A1.76,1.76,0,0,1,91.67,76.83Zm.65,0a1.62,1.62,0,0,0,.33,1.06,1.12,1.12,0,0,0,.88.39,1.08,1.08,0,0,0,.87-.39,1.87,1.87,0,0,0,0-2.12,1.09,1.09,0,0,0-.87-.4,1.07,1.07,0,0,0-.87.41A1.54,1.54,0,0,0,92.32,76.83Zm.56-2.26L94,73.47a1,1,0,0,1,.2-.18.3.3,0,0,1,.15-.05.28.28,0,0,1,.2.08.25.25,0,0,1,.07.19.23.23,0,0,1,0,.15.63.63,0,0,1-.17.15l-1.22.76Z"/><path class="cls-2" d="M102.44,73.11h.82a.82.82,0,0,1,.32,0,.16.16,0,0,1,.09.15c0,.09-.06.16-.18.22a.58.58,0,0,0-.2.12,2.33,2.33,0,0,0-.17.85A14.43,14.43,0,0,0,103,76.2a4.88,4.88,0,0,0,.08,1,1.53,1.53,0,0,0,.29.6,1.37,1.37,0,0,0,.51.38,1.68,1.68,0,0,0,.68.13,1.93,1.93,0,0,0,.63-.1,1.57,1.57,0,0,0,.49-.3,1.41,1.41,0,0,0,.36-.63,4,4,0,0,0,.11-1c0-.71,0-1.29,0-1.75a2.49,2.49,0,0,0-.14-.79.81.81,0,0,0-.25-.16c-.13-.07-.2-.15-.2-.24a.13.13,0,0,1,.07-.12.82.82,0,0,1,.27,0h.76a.6.6,0,0,1,.29,0,.13.13,0,0,1,.08.13c0,.08,0,.14-.15.19l0,0a.46.46,0,0,0-.16.13.22.22,0,0,0,0,.15c0,.06,0,.36.05.92s.06,1.08.06,1.58a2.69,2.69,0,0,1-.56,1.85,2.18,2.18,0,0,1-1.68.61,2,2,0,0,1-1.61-.61,2.92,2.92,0,0,1-.51-1.9c0-.51,0-1,.06-1.58s0-.83,0-.86a.28.28,0,0,0,0-.13.24.24,0,0,0-.08-.09l0,0c-.16-.07-.24-.16-.24-.26a.14.14,0,0,1,.08-.13A.58.58,0,0,1,102.44,73.11Z"/><path class="cls-2" d="M107.92,77.94V76.26a2.24,2.24,0,0,0,0-.47.26.26,0,0,0-.1-.16l-.17-.09c-.08,0-.12-.07-.12-.13s.07-.16.22-.27a.67.67,0,0,1,.37-.16c.07,0,.13,0,.19.15a1.54,1.54,0,0,1,.15.46,1.71,1.71,0,0,1,.55-.46,1.47,1.47,0,0,1,.67-.15,1.06,1.06,0,0,1,.93.41,2,2,0,0,1,.31,1.24V78c0,.08,0,.14,0,.17a.17.17,0,0,0,.06.08l.1,0c.1.06.15.11.15.17a.1.1,0,0,1-.06.1.44.44,0,0,1-.19,0h-.76a.44.44,0,0,1-.19,0,.08.08,0,0,1-.06-.09q0-.09.12-.15l.06,0c.08,0,.13-.08.15-.12a.51.51,0,0,0,0-.21V76.62a1.53,1.53,0,0,0-.21-.9.77.77,0,0,0-.66-.29.91.91,0,0,0-.68.25.87.87,0,0,0-.26.67V78a.31.31,0,0,0,0,.11.16.16,0,0,0,0,.07l.11.06c.1,0,.14.1.14.16a.11.11,0,0,1,0,.1.54.54,0,0,1-.22,0h-.7a.66.66,0,0,1-.19,0,.1.1,0,0,1-.06-.09.12.12,0,0,1,0-.09.29.29,0,0,1,.13-.09l0,0A.32.32,0,0,0,107.92,77.94Z"/><path class="cls-2" d="M112.11,75.91a.44.44,0,0,0,0-.19.37.37,0,0,0-.11-.1l-.1-.05c-.09,0-.13-.1-.13-.15a.11.11,0,0,1,0-.09.36.36,0,0,1,.13-.1l.06,0a1.8,1.8,0,0,1,.59-.24.11.11,0,0,1,.11.07,1.11,1.11,0,0,1,0,.33V78a.63.63,0,0,0,0,.16.22.22,0,0,0,.07.09l.13,0c.12,0,.19.11.19.18a.11.11,0,0,1-.06.11.7.7,0,0,1-.24,0H112a.51.51,0,0,1-.21,0,.11.11,0,0,1-.06-.1.17.17,0,0,1,0-.1.35.35,0,0,1,.11-.08l.08,0a.26.26,0,0,0,.15-.26Zm-.2-2a.35.35,0,0,1,.12-.28.45.45,0,0,1,.31-.11.41.41,0,0,1,.3.11.35.35,0,0,1,.12.28.36.36,0,0,1-.12.28.53.53,0,0,1-.62,0A.36.36,0,0,1,111.91,73.9Z"/><path class="cls-2" d="M113.52,75.07h.71a.93.93,0,0,1,.29,0,.12.12,0,0,1,.07.11.19.19,0,0,1,0,.07l0,.06h0c-.17.11-.26.22-.26.32a2.24,2.24,0,0,0,.15.66,7.17,7.17,0,0,0,.4,1,2.48,2.48,0,0,0,.24.44,1,1,0,0,0,.22.26,2,2,0,0,0,.23-.29c.07-.12.15-.26.23-.42a7,7,0,0,0,.4-1,2.55,2.55,0,0,0,.15-.68.32.32,0,0,0-.16-.21l0,0a.3.3,0,0,1-.1-.09.24.24,0,0,1,0-.09.1.1,0,0,1,.06-.09.43.43,0,0,1,.2,0h.54a.51.51,0,0,1,.21,0,.11.11,0,0,1,.07.11.26.26,0,0,1-.09.17.35.35,0,0,0-.11.11,2.86,2.86,0,0,0-.14.44,5.39,5.39,0,0,1-.18.59,8.12,8.12,0,0,1-.71,1.55c-.25.41-.46.61-.61.61s-.3-.16-.52-.49a8,8,0,0,1-.64-1.28,8.22,8.22,0,0,1-.3-.88,4.91,4.91,0,0,0-.17-.52.63.63,0,0,0-.14-.12c-.08,0-.12-.1-.12-.16a.12.12,0,0,1,.06-.12A.35.35,0,0,1,113.52,75.07Z"/><path class="cls-2" d="M117.94,77.27a1.15,1.15,0,0,0,.4.69,1.07,1.07,0,0,0,.72.25,1.42,1.42,0,0,0,.42-.06,1.27,1.27,0,0,0,.4-.17l.22-.16a.63.63,0,0,1,.25-.13.13.13,0,0,1,.1,0,.15.15,0,0,1,0,.11.46.46,0,0,1-.15.28,2,2,0,0,1-.41.31,2.34,2.34,0,0,1-.46.19,2,2,0,0,1-.5.06,1.67,1.67,0,0,1-1.24-.46,1.69,1.69,0,0,1-.47-1.24,2,2,0,0,1,.56-1.43,1.8,1.8,0,0,1,1.36-.57,1.54,1.54,0,0,1,.95.25.86.86,0,0,1,.33.72,1,1,0,0,1-.62.87A5.22,5.22,0,0,1,117.94,77.27Zm-.06-.38a4.24,4.24,0,0,0,1.48-.34.73.73,0,0,0,.47-.65.53.53,0,0,0-.19-.43.82.82,0,0,0-.52-.15,1.1,1.1,0,0,0-.89.42,1.66,1.66,0,0,0-.35,1.09Z"/><path class="cls-2" d="M121.39,77.82V76.19a.85.85,0,0,0,0-.33.28.28,0,0,0-.11-.15.5.5,0,0,0-.18-.1c-.11-.06-.17-.12-.17-.19a.21.21,0,0,1,0-.11.53.53,0,0,1,.13-.13,1.13,1.13,0,0,1,.22-.14.33.33,0,0,1,.15-.06c.11,0,.21.1.29.28a2.16,2.16,0,0,1,.15.72,2.22,2.22,0,0,1,.44-.75.74.74,0,0,1,.54-.27.34.34,0,0,1,.3.15.69.69,0,0,1,.11.41.2.2,0,0,1-.06.15.19.19,0,0,1-.13,0,.69.69,0,0,1-.25-.08.55.55,0,0,0-.21-.07c-.17,0-.31.14-.45.41a2.36,2.36,0,0,0-.2,1v.81a.92.92,0,0,0,0,.3.17.17,0,0,0,.1.1.71.71,0,0,0,.17,0c.15,0,.23.1.23.19a.11.11,0,0,1-.06.1.54.54,0,0,1-.22,0h-.94a.45.45,0,0,1-.21,0s0-.05,0-.1,0-.12.16-.17l.13-.07a.15.15,0,0,0,.06-.09.88.88,0,0,0,0-.2Z"/><path class="cls-2" d="M123.39,77.89a.23.23,0,0,1,.07-.18.21.21,0,0,1,.17-.07c.08,0,.17.07.27.2l.08.09a.91.91,0,0,0,.34.25.93.93,0,0,0,.42.09.9.9,0,0,0,.55-.17.57.57,0,0,0,.21-.45q0-.39-.87-.6l-.08,0a1.67,1.67,0,0,1-.78-.35.84.84,0,0,1-.23-.61,1,1,0,0,1,.33-.79,1.28,1.28,0,0,1,.89-.3,1.86,1.86,0,0,1,.83.15.48.48,0,0,1,.29.43.75.75,0,0,1,0,.27.11.11,0,0,1-.12.07c-.06,0-.14-.05-.23-.16l-.09-.1a1.11,1.11,0,0,0-.34-.22,1.07,1.07,0,0,0-.41-.08.6.6,0,0,0-.44.16.48.48,0,0,0-.18.38.38.38,0,0,0,.12.3,1,1,0,0,0,.44.21l.31.07a2.48,2.48,0,0,1,.64.22,1,1,0,0,1,.34.35.84.84,0,0,1,.11.45,1.12,1.12,0,0,1-.36.87,1.33,1.33,0,0,1-.94.33,1.6,1.6,0,0,1-.91-.27C123.52,78.23,123.39,78.06,123.39,77.89Z"/><path class="cls-2" d="M126.84,75.91a.78.78,0,0,0,0-.19.57.57,0,0,0-.11-.1l-.1-.05c-.09,0-.14-.1-.14-.15a.15.15,0,0,1,0-.09.42.42,0,0,1,.14-.1l0,0a1.74,1.74,0,0,1,.6-.24.12.12,0,0,1,.11.07,2,2,0,0,1,0,.33V78a.35.35,0,0,0,0,.16.15.15,0,0,0,.06.09l.13,0c.13,0,.19.11.19.18a.11.11,0,0,1-.06.11.62.62,0,0,1-.24,0h-.79a.54.54,0,0,1-.22,0,.11.11,0,0,1-.06-.1.17.17,0,0,1,0-.1.35.35,0,0,1,.11-.08l.08,0a.26.26,0,0,0,.15-.26Zm-.2-2a.35.35,0,0,1,.12-.28.49.49,0,0,1,.62,0,.38.38,0,0,1,.11.28.39.39,0,0,1-.11.28.46.46,0,0,1-.31.1.46.46,0,0,1-.32-.1A.39.39,0,0,1,126.64,73.9Z"/><path class="cls-2" d="M128.67,78.1V75.5h-.23a.44.44,0,0,1-.27,0,.17.17,0,0,1-.08-.16.2.2,0,0,1,0-.14.24.24,0,0,1,.13-.07h.09a.43.43,0,0,0,.3-.1,1.63,1.63,0,0,0,.15-.61c0-.1,0-.17,0-.23a.57.57,0,0,1,0-.12c0-.25.11-.37.24-.37a.12.12,0,0,1,.12.06.81.81,0,0,1,0,.32v1h.52a.56.56,0,0,1,.27.05.17.17,0,0,1,.08.17.18.18,0,0,1-.08.16.5.5,0,0,1-.27,0h-.52v2.2a1.22,1.22,0,0,0,0,.32.18.18,0,0,0,.12.13,2,2,0,0,0,.41.06q.3,0,.3.15a.18.18,0,0,1-.07.17.78.78,0,0,1-.34,0H129c-.13,0-.22,0-.26-.07A.75.75,0,0,1,128.67,78.1Z"/><path class="cls-2" d="M132.94,78a1.74,1.74,0,0,1-.6.52,1.94,1.94,0,0,1-.82.17,1.25,1.25,0,0,1-.87-.29,1,1,0,0,1-.33-.79,1.15,1.15,0,0,1,.6-1,3.4,3.4,0,0,1,1.73-.36h.16a.85.85,0,0,0-.33-.61,1.17,1.17,0,0,0-.75-.22,1.09,1.09,0,0,0-.57.17,1.12,1.12,0,0,1-.39.18.24.24,0,0,1-.17-.06.16.16,0,0,1-.07-.14c0-.16.12-.29.34-.39a2.28,2.28,0,0,1,.9-.15,1.73,1.73,0,0,1,1.32.43,2,2,0,0,1,.4,1.39v1.13a.25.25,0,0,0,0,.13.37.37,0,0,0,.11.13l.11,0c.11.05.16.11.16.18s0,.15-.12.15H133s-.05-.1-.05-.2Zm-.05-1.45h-.1a2.7,2.7,0,0,0-1.33.27.84.84,0,0,0-.47.77.61.61,0,0,0,.2.48.73.73,0,0,0,.53.19,1.5,1.5,0,0,0,.37,0,1.15,1.15,0,0,0,.32-.14,1,1,0,0,0,.38-.36,1.16,1.16,0,0,0,.1-.54Z"/><path class="cls-2" d="M134.6,77.82V76.19a1.21,1.21,0,0,0,0-.33.36.36,0,0,0-.12-.15.5.5,0,0,0-.18-.1c-.11-.06-.17-.12-.17-.19a.21.21,0,0,1,.05-.11.53.53,0,0,1,.13-.13l.22-.14a.37.37,0,0,1,.15-.06c.12,0,.21.1.29.28a2.16,2.16,0,0,1,.15.72,2.22,2.22,0,0,1,.44-.75.76.76,0,0,1,.54-.27.34.34,0,0,1,.3.15.69.69,0,0,1,.11.41.25.25,0,0,1,0,.15.24.24,0,0,1-.14,0,.69.69,0,0,1-.25-.08.55.55,0,0,0-.21-.07c-.16,0-.31.14-.45.41a2.36,2.36,0,0,0-.2,1v.81a.92.92,0,0,0,0,.3.17.17,0,0,0,.1.1.71.71,0,0,0,.17,0c.15,0,.23.1.23.19a.11.11,0,0,1-.06.1.54.54,0,0,1-.22,0h-.94a.45.45,0,0,1-.21,0,.1.1,0,0,1-.05-.1c0-.06.05-.12.16-.17l.14-.07a.35.35,0,0,0,.06-.09,1,1,0,0,0,0-.2Z"/><path class="cls-2" d="M137.16,75.91a.44.44,0,0,0,0-.19.37.37,0,0,0-.11-.1l-.1-.05c-.09,0-.13-.1-.13-.15a.11.11,0,0,1,0-.09.36.36,0,0,1,.13-.1l0,0a1.82,1.82,0,0,1,.6-.24.11.11,0,0,1,.11.07,1.11,1.11,0,0,1,0,.33V78a.63.63,0,0,0,0,.16.22.22,0,0,0,.07.09l.12,0c.13,0,.2.11.2.18a.11.11,0,0,1-.07.11.6.6,0,0,1-.23,0h-.8a.48.48,0,0,1-.21,0,.11.11,0,0,1-.06-.1.17.17,0,0,1,0-.1.26.26,0,0,1,.11-.08l.08,0a.26.26,0,0,0,.15-.26Zm-.2-2a.38.38,0,0,1,.11-.28.48.48,0,0,1,.32-.11.44.44,0,0,1,.3.11.35.35,0,0,1,.12.28.36.36,0,0,1-.12.28.53.53,0,0,1-.62,0A.36.36,0,0,1,137,73.9Z"/><path class="cls-2" d="M141.17,78a1.58,1.58,0,0,1-.6.52,1.89,1.89,0,0,1-.81.17,1.3,1.3,0,0,1-.88-.29,1,1,0,0,1-.32-.79,1.15,1.15,0,0,1,.6-1,3.36,3.36,0,0,1,1.72-.36h.17a.85.85,0,0,0-.33-.61,1.17,1.17,0,0,0-.75-.22,1.09,1.09,0,0,0-.57.17,1.2,1.2,0,0,1-.39.18.28.28,0,0,1-.18-.06.18.18,0,0,1-.06-.14c0-.16.11-.29.34-.39A2.28,2.28,0,0,1,140,75a1.71,1.71,0,0,1,1.31.43,2,2,0,0,1,.41,1.39v1.13a.44.44,0,0,0,0,.13.53.53,0,0,0,.11.13l.11,0c.11.05.17.11.17.18s0,.15-.12.15h-.61a.54.54,0,0,1-.19,0s-.05-.1-.05-.2Zm0-1.45H141a2.74,2.74,0,0,0-1.34.27.86.86,0,0,0-.47.77.61.61,0,0,0,.21.48.72.72,0,0,0,.53.19,1.47,1.47,0,0,0,.36,0,1,1,0,0,0,.32-.14,1,1,0,0,0,.38-.36,1.15,1.15,0,0,0,.11-.54Z"/><path class="cls-2" d="M66.82,92.14a1.16,1.16,0,0,1-.51-.08.27.27,0,0,1-.14-.27c0-.13.12-.27.38-.41l.25-.15A.5.5,0,0,0,67,91a2.12,2.12,0,0,0,.06-.59v-7.7a3,3,0,0,0,0-.5.57.57,0,0,0-.12-.26,1.42,1.42,0,0,0-.41-.28q-.33-.18-.33-.39a.26.26,0,0,1,.14-.26,1.16,1.16,0,0,1,.51-.08h4.49a4.44,4.44,0,0,1,2.62.63,2.29,2.29,0,0,1,.22,3.4A4.4,4.4,0,0,1,72.33,86a4,4,0,0,1,2.36,1,2.72,2.72,0,0,1,.88,2.06,2.88,2.88,0,0,1-.34,1.38,3,3,0,0,1-.94,1.06,3.27,3.27,0,0,1-1.11.47,10.87,10.87,0,0,1-2.08.14Zm1.63-5.84a10.79,10.79,0,0,0,3.66-1.12,2.07,2.07,0,0,0,1.2-1.78,1.37,1.37,0,0,0-.69-1.28,4.65,4.65,0,0,0-2.24-.4,3.93,3.93,0,0,0-1.64.19c-.19.12-.29.51-.29,1.15Zm0,.86V90a1.47,1.47,0,0,0,.27,1.07,3.13,3.13,0,0,0,1.63.24,5.49,5.49,0,0,0,2.77-.56A1.86,1.86,0,0,0,74,89a2.08,2.08,0,0,0-.73-1.6,4,4,0,0,0-2-.88c-.7.17-1.28.3-1.75.4Z"/><path class="cls-2" d="M77.75,89.46a2.5,2.5,0,0,0,.81,1.41,2.26,2.26,0,0,0,1.49.52,3.6,3.6,0,0,0,.88-.11,3.34,3.34,0,0,0,.8-.36,4.72,4.72,0,0,0,.48-.33,1.21,1.21,0,0,1,.5-.28.27.27,0,0,1,.21.09.36.36,0,0,1,.08.24.93.93,0,0,1-.32.56,3.69,3.69,0,0,1-.84.64,3.82,3.82,0,0,1-.93.39,4.34,4.34,0,0,1-1,.13,3.45,3.45,0,0,1-2.56-1,3.42,3.42,0,0,1-1-2.55,4.07,4.07,0,0,1,1.14-2.93,3.71,3.71,0,0,1,2.8-1.18,3.16,3.16,0,0,1,2,.52,1.77,1.77,0,0,1,.69,1.49,2,2,0,0,1-1.27,1.79A11.41,11.41,0,0,1,77.75,89.46Zm-.11-.78a9,9,0,0,0,3-.7,1.49,1.49,0,0,0,1-1.34,1.08,1.08,0,0,0-.39-.88,1.61,1.61,0,0,0-1.07-.32,2.25,2.25,0,0,0-1.83.87,3.37,3.37,0,0,0-.71,2.25Z"/><path class="cls-2" d="M84.72,82.53a.88.88,0,0,0-.06-.38.59.59,0,0,0-.21-.21l-.2-.11q-.27-.14-.27-.3a.33.33,0,0,1,.08-.22,1.35,1.35,0,0,1,.27-.2l0,0a3.67,3.67,0,0,1,1.28-.51.23.23,0,0,1,.22.14,2.22,2.22,0,0,1,.06.66v9.48a1,1,0,0,0,0,.33.31.31,0,0,0,.14.17l.23.09c.29.11.44.24.44.39a.24.24,0,0,1-.14.23,1.29,1.29,0,0,1-.49.07H84.54a1.09,1.09,0,0,1-.45-.07.21.21,0,0,1-.13-.22.28.28,0,0,1,.07-.19.65.65,0,0,1,.23-.16.84.84,0,0,1,.16-.07.52.52,0,0,0,.3-.54Z"/><path class="cls-2" d="M88.2,82.53a.88.88,0,0,0-.06-.38.64.64,0,0,0-.22-.21l-.2-.11q-.27-.14-.27-.3a.4.4,0,0,1,.08-.22,1.2,1.2,0,0,1,.28-.2l0,0a3.74,3.74,0,0,1,1.28-.51.22.22,0,0,1,.22.14,2.22,2.22,0,0,1,.06.66v9.48a.81.81,0,0,0,.06.33.3.3,0,0,0,.13.17l.24.09c.29.11.43.24.43.39a.24.24,0,0,1-.13.23,1.29,1.29,0,0,1-.49.07H88a1.13,1.13,0,0,1-.45-.07.22.22,0,0,1-.12-.22.33.33,0,0,1,.06-.19.65.65,0,0,1,.23-.16l.16-.07a.52.52,0,0,0,.31-.54Z"/><path class="cls-2" d="M96.38,90.93A3.25,3.25,0,0,1,95.14,92a3.71,3.71,0,0,1-1.68.36,2.52,2.52,0,0,1-1.79-.61A2.05,2.05,0,0,1,91,90.13,2.37,2.37,0,0,1,92.23,88a7,7,0,0,1,3.55-.74h.34A1.73,1.73,0,0,0,95.44,86a2.45,2.45,0,0,0-1.54-.45,2.33,2.33,0,0,0-1.17.36,2.34,2.34,0,0,1-.81.37.51.51,0,0,1-.35-.12.36.36,0,0,1-.14-.3c0-.32.23-.58.7-.8A4.63,4.63,0,0,1,94,84.74a3.58,3.58,0,0,1,2.71.88,4.05,4.05,0,0,1,.83,2.87v2.32a.68.68,0,0,0,0,.27,1,1,0,0,0,.23.27l.23.11c.22.1.34.22.34.36a.3.3,0,0,1-.25.31,5.06,5.06,0,0,1-1.23.08.56.56,0,0,1-.41-.11.57.57,0,0,1-.1-.4Zm-.09-3h-.21a5.48,5.48,0,0,0-2.75.56,1.72,1.72,0,0,0-1,1.57,1.32,1.32,0,0,0,.42,1,1.56,1.56,0,0,0,1.1.39,2.71,2.71,0,0,0,.75-.1,2.39,2.39,0,0,0,1.44-1,2.37,2.37,0,0,0,.22-1.11Z"/><path class="cls-2" d="M98.76,90.72a.48.48,0,0,1,.5-.5c.15,0,.34.14.56.41l.15.18a2.06,2.06,0,0,0,.7.53,2.23,2.23,0,0,0,.88.17,1.78,1.78,0,0,0,1.12-.35,1.14,1.14,0,0,0,.43-.92c0-.53-.59-.94-1.79-1.23l-.16,0a3.62,3.62,0,0,1-1.6-.73A1.67,1.67,0,0,1,99.07,87a2.07,2.07,0,0,1,.69-1.63,2.63,2.63,0,0,1,1.83-.61,3.69,3.69,0,0,1,1.69.31,1,1,0,0,1,.6.89,1.67,1.67,0,0,1-.06.56.24.24,0,0,1-.24.14c-.13,0-.3-.11-.48-.33a2,2,0,0,0-.19-.2,2,2,0,0,0-.68-.46,2.18,2.18,0,0,0-.85-.16,1.33,1.33,0,0,0-.91.32,1,1,0,0,0-.37.78.82.82,0,0,0,.24.63,2.4,2.4,0,0,0,.92.42l.63.15a5,5,0,0,1,1.32.45,2.08,2.08,0,0,1,.7.72,1.79,1.79,0,0,1,.24.93,2.31,2.31,0,0,1-.75,1.79,2.77,2.77,0,0,1-2,.68,3.32,3.32,0,0,1-1.85-.55C99,91.44,98.76,91.08,98.76,90.72Z"/><path class="cls-2" d="M111.31,88.23c-.23.63-.41,1.17-.52,1.61a4.34,4.34,0,0,0-.18,1,.48.48,0,0,0,.07.26.72.72,0,0,0,.22.2,1.27,1.27,0,0,0,.22.13.43.43,0,0,1,.29.39.27.27,0,0,1-.16.25,1.42,1.42,0,0,1-.54.08h-1.35a1.38,1.38,0,0,1-.55-.08.28.28,0,0,1-.16-.27c0-.1.06-.19.2-.28a1.19,1.19,0,0,0,.24-.2c.07-.12.32-.77.73-2s.84-2.31,1.25-3.35a42.59,42.59,0,0,1,1.74-3.92c.49-.95.83-1.42,1-1.42s.69.58,1.3,1.76a39.73,39.73,0,0,1,2,4.56c.28.75.57,1.59.86,2.52a13.92,13.92,0,0,0,.54,1.59,1.43,1.43,0,0,0,.35.32.62.62,0,0,1,.28.44.23.23,0,0,1-.18.23,2.37,2.37,0,0,1-.68.07h-1.42a1.38,1.38,0,0,1-.55-.08.29.29,0,0,1-.16-.28c0-.18.14-.34.43-.49l.21-.12a.25.25,0,0,0,.09-.13.75.75,0,0,0,0-.23,3.71,3.71,0,0,0-.21-.88c-.13-.43-.33-1-.6-1.7Zm.31-.91h4.13q-.39-1.17-.9-2.37c-.35-.8-.73-1.63-1.15-2.47-.4.78-.78,1.57-1.12,2.37S111.91,86.48,111.62,87.32Z"/><path class="cls-2" d="M120.29,90.58V87.23a2.1,2.1,0,0,0-.07-.67.65.65,0,0,0-.24-.32,1.42,1.42,0,0,0-.36-.21c-.24-.11-.35-.23-.35-.39a.42.42,0,0,1,.09-.22,1.18,1.18,0,0,1,.28-.26,2.88,2.88,0,0,1,.44-.3.8.8,0,0,1,.32-.11q.34,0,.6.57a4.36,4.36,0,0,1,.29,1.49,4.45,4.45,0,0,1,.92-1.55,1.52,1.52,0,0,1,1.1-.55.71.71,0,0,1,.62.3,1.39,1.39,0,0,1,.22.85.36.36,0,0,1-.11.29.35.35,0,0,1-.28.12,1.17,1.17,0,0,1-.5-.16,1.29,1.29,0,0,0-.44-.15c-.34,0-.64.28-.92.85a4.63,4.63,0,0,0-.41,2.07v1.67a2.1,2.1,0,0,0,.05.62.41.41,0,0,0,.2.21l.36.1c.31.08.46.21.46.37a.21.21,0,0,1-.11.22,1.09,1.09,0,0,1-.45.07h-1.94a1,1,0,0,1-.43-.06.22.22,0,0,1-.11-.21c0-.13.12-.25.35-.37l.26-.14a.35.35,0,0,0,.13-.18,1.94,1.94,0,0,0,0-.41Z"/><path class="cls-2" d="M126,91.16V85.82h-.48a1.07,1.07,0,0,1-.56-.1.38.38,0,0,1-.15-.34.41.41,0,0,1,.1-.29.43.43,0,0,1,.27-.13l.18,0a.9.9,0,0,0,.62-.19,3,3,0,0,0,.3-1.25c0-.21,0-.37.06-.49s0-.14,0-.24c.06-.51.23-.77.5-.77a.27.27,0,0,1,.25.12,2.08,2.08,0,0,1,.06.67v2.14h1.09a1,1,0,0,1,.55.1.38.38,0,0,1,.16.35.35.35,0,0,1-.17.33,1,1,0,0,1-.54.11h-1.09v4.52a2.41,2.41,0,0,0,.07.66.42.42,0,0,0,.26.26,3,3,0,0,0,.84.12c.41,0,.62.13.62.32a.38.38,0,0,1-.14.34,1.48,1.48,0,0,1-.71.1h-1.46a.68.68,0,0,1-.53-.15A1.48,1.48,0,0,1,126,91.16Z"/><path class="cls-2" d="M130.74,89.46a2.44,2.44,0,0,0,.81,1.41,2.24,2.24,0,0,0,1.49.52,3.6,3.6,0,0,0,.88-.11,3.34,3.34,0,0,0,.8-.36,3.81,3.81,0,0,0,.47-.33,1.28,1.28,0,0,1,.51-.28.25.25,0,0,1,.2.09.32.32,0,0,1,.08.24.91.91,0,0,1-.31.56,3.69,3.69,0,0,1-.84.64,4.17,4.17,0,0,1-.93.39,4.34,4.34,0,0,1-1,.13,3.29,3.29,0,0,1-3.52-3.51,4.1,4.1,0,0,1,1.13-2.93,3.72,3.72,0,0,1,2.8-1.18,3.18,3.18,0,0,1,2,.52,1.79,1.79,0,0,1,.68,1.49,2,2,0,0,1-1.26,1.79A11.47,11.47,0,0,1,130.74,89.46Zm-.12-.78a9.12,9.12,0,0,0,3-.7,1.49,1.49,0,0,0,1-1.34,1.08,1.08,0,0,0-.39-.88,1.62,1.62,0,0,0-1.08-.32,2.27,2.27,0,0,0-1.83.87,3.43,3.43,0,0,0-.71,2.25Z"/><path class="cls-2" d="M136.8,90.72a.47.47,0,0,1,.14-.36.48.48,0,0,1,.35-.14c.16,0,.35.14.56.41l.16.18a2,2,0,0,0,.7.53,2.14,2.14,0,0,0,.87.17,1.76,1.76,0,0,0,1.12-.35,1.15,1.15,0,0,0,.44-.92q0-.8-1.8-1.23l-.16,0a3.57,3.57,0,0,1-1.59-.73,1.67,1.67,0,0,1-.48-1.26,2.1,2.1,0,0,1,.68-1.63,2.65,2.65,0,0,1,1.83-.61,3.74,3.74,0,0,1,1.7.31,1,1,0,0,1,.59.89,1.67,1.67,0,0,1-.06.56.23.23,0,0,1-.23.14c-.14,0-.3-.11-.49-.33l-.18-.2a1.94,1.94,0,0,0-.69-.46,2.15,2.15,0,0,0-.85-.16,1.35,1.35,0,0,0-.91.32,1,1,0,0,0-.37.78.82.82,0,0,0,.24.63,2.39,2.39,0,0,0,.93.42l.62.15a4.75,4.75,0,0,1,1.32.45A2.12,2.12,0,0,1,142,89a1.89,1.89,0,0,1,.23.93,2.34,2.34,0,0,1-.74,1.79,2.81,2.81,0,0,1-1.95.68,3.33,3.33,0,0,1-1.86-.55C137.07,91.44,136.8,91.08,136.8,90.72Z"/><path class="cls-2" d="M45.4,65.79h0a16.71,16.71,0,0,0,0,33.42h0a16.71,16.71,0,0,0,0-33.42m0,32.38h0a15.66,15.66,0,0,1,0-31.32h0a15.66,15.66,0,1,1,0,31.32"/><path class="cls-2" d="M45.36,69.74a11.35,11.35,0,0,0-6.47,1.89l0,10.39c2.07-2.18,4.58-2.56,6.51-1.49,2.46,1.36,3.94,5.08,2.23,10.39a2.66,2.66,0,0,1-1.92-.67,10.12,10.12,0,0,0-.31-6.49,3.26,3.26,0,0,0-3.67-1.85,4.17,4.17,0,0,0-2.89,2.17c0,3.31-.07,5.45.37,7.16.79,1.94,2.59,2.5,4.74,1.65a4.16,4.16,0,0,0,1.56.83,5.4,5.4,0,0,1-3,1.08c-3,.25-5.17-.85-5.61-4.88l0-15.93c0-1.15-.63-1-1.16-1.39-.22-.15-.45-.27-.43-.57,0-.52.6-.81,1-1a8.84,8.84,0,0,1,1.54-.69c-.41-.78-2.48.42-3.25,1-.51.52-.23,1.06.35,1.26.78.22,1,.56,1,1.51a12.71,12.71,0,0,0,.23,17c.46,2.7,2.12,4.37,6.36,3.77a12.63,12.63,0,0,0,2.92.37,12.83,12.83,0,0,0,9.71-4.46c-1.83.86-1.79-.74-2.24-2-.14-.44-.39-.7-.47-.19,0,.18-.07.35-.11.53a5.81,5.81,0,0,1-3.41,4,4.77,4.77,0,0,1-4.78-.49c-3.25-2.59-3.92-7.51-.67-10.41a2.54,2.54,0,0,1,1.66,1.47,8.61,8.61,0,0,1-.51.84,6,6,0,0,0-.36.86A4.47,4.47,0,0,0,44,87.15,5.18,5.18,0,0,0,44.46,89a5.93,5.93,0,0,0,.49.84,3.17,3.17,0,0,0,1.61,1.25,2.65,2.65,0,0,0,1.67,0,3.69,3.69,0,0,0,.8-.31,4.91,4.91,0,0,0,2.34-5.58c-.43-1.33-.92-2.8-1.47-4.3A26.29,26.29,0,0,0,47.29,82a4.84,4.84,0,0,0-1.41-1.44,17.55,17.55,0,0,1,2.47-1c1.23-.34,1.16-1.41.12-3.28a4.62,4.62,0,0,0-3.11-1.94C43,74,43.74,76.18,42.79,76.92c-1.94,1.15-3.74-.41-2.61-2.15l.23-.35c1.36-1.93,3.7-2.16,5.83-1.55a5.18,5.18,0,0,1,1,.38,6.35,6.35,0,0,1,1.31.87,12.33,12.33,0,0,1,2.92,4.18,46,46,0,0,1,1.9,5.06,31.39,31.39,0,0,0,1.47,4,2,2,0,0,0,1.76,1.06c4.82-10.14-3.07-18.61-11.23-18.68"/><path class="cls-2" d="M22.94,97.17l2.06.91v.21l-2.06.91V99l1.79-.79-1.79-.79Z"/><path class="cls-2" d="M23,97a.16.16,0,0,1-.15-.16.15.15,0,1,1,.3,0A.16.16,0,0,1,23,97Zm.48,0v-.21H25v.21Z"/><path class="cls-2" d="M23.45,94.71h1.36a.68.68,0,0,1,.77.78,1.07,1.07,0,0,1-.24.71l-.16-.1a.89.89,0,0,0,.21-.61c0-.39-.17-.57-.56-.57h-.19a.71.71,0,0,1,.3.6.75.75,0,1,1-1.5,0,.71.71,0,0,1,.31-.61h-.3Zm.74.21a.55.55,0,0,0-.57.58.57.57,0,1,0,1.13,0A.55.55,0,0,0,24.19,94.92Z"/><path class="cls-2" d="M23,94.18a.15.15,0,0,1-.15-.15.15.15,0,1,1,.3,0A.15.15,0,0,1,23,94.18Zm.48-.05v-.21H25v.21Z"/><path class="cls-2" d="M22.82,93.34v-.2H25v.2Z"/><path class="cls-2" d="M24,91.39h1v.2h-.24a.61.61,0,0,1,.25.53c0,.35-.18.57-.45.57s-.43-.16-.43-.6V91.6H24a.38.38,0,0,0-.41.44.75.75,0,0,0,.19.51l-.16.09a1,1,0,0,1-.21-.62A.55.55,0,0,1,24,91.39Zm.49.21h-.25v.48c0,.3.12.4.28.4s.29-.14.29-.39A.5.5,0,0,0,24.53,91.6Z"/><path class="cls-2" d="M22.82,89.42H25v.19h-.31a.67.67,0,0,1,.32.6.79.79,0,0,1-1.57,0,.68.68,0,0,1,.31-.59h-.93Zm1.4.2a.58.58,0,1,0,.61.57A.57.57,0,0,0,24.22,89.62Z"/><path class="cls-2" d="M24,87.67h1v.2h-.24a.61.61,0,0,1,.25.53c0,.35-.18.56-.45.56s-.43-.15-.43-.59v-.49H24a.38.38,0,0,0-.41.44.75.75,0,0,0,.19.51l-.16.09a1,1,0,0,1-.21-.62A.55.55,0,0,1,24,87.67Zm.49.21h-.25v.48c0,.3.12.4.28.4s.29-.14.29-.39A.5.5,0,0,0,24.53,87.88Z"/><path class="cls-2" d="M22.94,84.16H25v.21H23.35l1.38.81v.1l-1.37.81H25v.21H22.94v-.18l1.53-.89-1.53-.89Z"/><path class="cls-2" d="M23,83.59a.15.15,0,0,1-.15-.15.15.15,0,1,1,.3,0A.15.15,0,0,1,23,83.59Zm.48,0v-.21H25v.21Z"/><path class="cls-2" d="M24.1,81.34H25v.2h-.88a.43.43,0,0,0-.49.47.51.51,0,0,0,.56.54H25v.2H23.45v-.2h.29a.63.63,0,0,1-.3-.58A.59.59,0,0,1,24.1,81.34Z"/><path class="cls-2" d="M24.81,79.28H25v1.45H22.94V79.32h.19v1.19h.73V79.45h.19v1.06h.76Z"/><path class="cls-2" d="M22.82,77.43H25v.2h-.31a.66.66,0,0,1,.32.59.79.79,0,0,1-1.57,0,.65.65,0,0,1,.31-.58h-.93Zm1.4.2a.58.58,0,1,0,.61.57A.57.57,0,0,0,24.22,77.63Z"/><path class="cls-2" d="M23.45,75.46H25v.2h-.29a.61.61,0,0,1,.3.55.6.6,0,0,1-.66.65h-.9v-.21h.88c.33,0,.49-.17.49-.46a.5.5,0,0,0-.56-.52h-.81Z"/><path class="cls-2" d="M24.22,75a.75.75,0,0,1-.78-.79.68.68,0,0,1,.31-.61l.1.16a.53.53,0,0,0-.23.45.61.61,0,0,0,1.21,0,.51.51,0,0,0-.23-.45l.11-.16a.69.69,0,0,1,.3.61A.76.76,0,0,1,24.22,75Z"/><path class="cls-2" d="M24,72.06h1v.2h-.24a.61.61,0,0,1,.25.53c0,.35-.18.57-.45.57s-.43-.16-.43-.6v-.49H24a.38.38,0,0,0-.41.44.75.75,0,0,0,.19.51l-.16.09a1,1,0,0,1-.21-.62A.55.55,0,0,1,24,72.06Zm.49.21h-.25v.48c0,.3.12.4.28.4s.29-.14.29-.39A.5.5,0,0,0,24.53,72.27Z"/><path class="cls-2" d="M24.22,71.65a.76.76,0,0,1-.78-.8.65.65,0,0,1,.31-.6l.1.16a.52.52,0,0,0-.23.44.61.61,0,0,0,1.21,0,.49.49,0,0,0-.23-.44l.11-.16a.67.67,0,0,1,.3.6A.76.76,0,0,1,24.22,71.65Z"/><path class="cls-2" d="M23,69.89a.15.15,0,0,1-.15-.15.15.15,0,0,1,.3,0A.15.15,0,0,1,23,69.89Zm.48,0v-.2H25v.2Z"/><path class="cls-2" d="M24.22,69.21a.79.79,0,1,1,.79-.78A.76.76,0,0,1,24.22,69.21Zm0-1.36a.58.58,0,1,0,.61.58A.57.57,0,0,0,24.22,67.85Zm-1.37.37v-.28l.37.47v.21Z"/><path class="cls-2" d="M24.1,65.8H25V66h-.88a.43.43,0,0,0-.49.46.51.51,0,0,0,.56.54H25v.21H23.45V67h.29a.65.65,0,0,1-.3-.59A.59.59,0,0,1,24.1,65.8Z"/></g></g></svg>