<svg xmlns="http://www.w3.org/2000/svg" viewBox="0 0 165 165"><defs><style>.cls-1{fill:#fff;}.cls-2{fill:#f2cd50;}.cls-3{fill:#565656;}</style></defs><g id="Capa_2" data-name="Capa 2"><g id="Capa_1-2" data-name="Capa 1"><rect class="cls-1" width="165" height="165"/><path class="cls-2" d="M117.58,93.77a2.67,2.67,0,0,0-.59-1c-.84-.82-1.9-.23-2.84,0a31.62,31.62,0,0,1-9.57,1.36l-1.4,0a40,40,0,0,1-9.52-1.93L90.41,91h-.12L90.2,91l-.13-.06-.51-.24-.34-.18-.11-.06c-.33-.16-.66-.34-1-.53l-.29-.16c-.22-.12-.43-.25-.64-.38l-.4-.25c-.26-.16-.53-.33-.79-.51l-.45-.31L85.11,88l-.45-.33L83.9,87l-.31-.26L83,86.25c-.08-.07-.16-.13-.24-.21a31.66,31.66,0,0,1-2.88-2.91l-.3-.36-.77-1c-.1-.14-.31-.42-.37-.52s0,0,0,0,0,0,0,0,0,0,0-.06L78.19,81c-.11-.14-.29-.44-.34-.51l0,0,0-.07-.14-.2c-.07-.1-.22-.32-.3-.45l-.07-.12,0,0a2.51,2.51,0,0,0-.14-.21l-.33-.54a.41.41,0,0,1,0-.09l0,0a1.45,1.45,0,0,0-.16-.27c-.12-.21-.22-.4-.26-.46a.05.05,0,0,0,0,0l-.05-.08-.14-.23c0-.12-.19-.37-.26-.51s0,0-.07-.14,0,0,0,0-.06-.13-.11-.22-.22-.44-.37-.73L75,75.49l0-.06,0-.06c-.1-.23-.21-.47-.31-.71a.41.41,0,0,1,0-.08l-.05-.11,0-.07a.5.5,0,0,1-.05-.13l-.22-.52s0,0,0,0l0,0a0,0,0,0,0,0,0c0-.14-.09-.26-.14-.38s-.18-.48-.27-.74l-.36-1.11-.12-.4c0-.16-.09-.32-.13-.47L73,69.91c0-.09,0-.18-.07-.28a22.66,22.66,0,0,1-.59-2.95c-.13-1.45-.24-2.74-.28-3.31,0-.2,0-.26,0-.35V61q0-.09,0-.48v-.21a.44.44,0,0,1,0-.18v-.22c0-.12,0-.22,0-.31v0c0-.1,0-.19,0-.33s0-.31,0-.42,0-.06,0-.12,0-.12,0-.18,0-.29.05-.4,0,0,0-.08v0s0-.1,0-.17,0-.33.07-.54l0-.37c0-.15,0-.31.08-.47a34.38,34.38,0,0,1,4.2-11.58.12.12,0,0,1,0-.05l.27-.44h0a3.31,3.31,0,0,1,.18-.29A28.13,28.13,0,0,1,79,41.5a37.74,37.74,0,0,1,8.17-7.83c-1,.55-1.94,1-2.51,1.29l0,0h0a22.31,22.31,0,0,0-2.17,1.12c-.94.57-1.86,1.17-2.74,1.79A28.56,28.56,0,0,0,74,43.18,37.78,37.78,0,0,0,66.06,62a38.31,38.31,0,0,0-.32,4.42s.08,0,.08,0v0c0,.48,0,1,0,1.45h-.05c0,.75.06,1.51.11,2.26,0,.27,0,.52.07.76v0c0,.42.09.83.14,1.25v.07s0,.12,0,.21.07.43.13.75c.11.63.25,1.5.42,2.46a.39.39,0,0,1,0,.1l.1.41c.09.38.26,1,.54,2A36.82,36.82,0,0,0,73.8,90.72v0c.29.34.57.69.87,1l.21.23c.23.27.47.53.71.78l.37.39.6.59.5.47c.17.17.35.32.52.48s.38.32.59.49l.47.4.64.49.37.29.09.07,1,.68.41.28.19.13c.36.23.72.45,1.09.66l.2.13,1.21.69.48.24.65.33.8.38.19.1,1.06.46.67.27.08,0,.14.06h0l.06,0,.23.09.75.27a44.07,44.07,0,0,0,9.64,2,50.41,50.41,0,0,0,8,.26,24.26,24.26,0,0,0,7.83-1.39,7.51,7.51,0,0,0,2.35-1.34c1.7-1.55,1.49-5,.86-6.95Z"/><path class="cls-3" d="M65.1,80.1a43.06,43.06,0,0,1-2.16-13.51,42.58,42.58,0,0,1,1.52-11.33c.18-.7.42-1.39.64-2.07a40.43,40.43,0,0,1,6.5-12,32.5,32.5,0,0,1,7.14-6.54l-2.91-.07-6.75-.16-7-.17L51.58,34h-.07a2.93,2.93,0,0,0-2.93,3v0c0,1.92.93,18.12.93,26.94S48.85,96,48.85,96v.06a3.26,3.26,0,0,0,3,3.21L62.1,100l7,.48c1.9.13,5,.25,6.87.27l6,0h.2a5.9,5.9,0,0,0-1-.63,22.42,22.42,0,0,1-2-1.34A35.73,35.73,0,0,1,72.42,93h0A36.77,36.77,0,0,1,65.1,80.1"/><path class="cls-2" d="M112.17,44.93a9.36,9.36,0,1,1-9.37-9.43,9.4,9.4,0,0,1,9.37,9.43"/><path class="cls-3" d="M102.91,57.27c6.58.06,9.84-6,9.84-6,.77-1,1.5-.75,1.63.47l.15,1.88c.12,1.77,1.42,14.67,1.79,21.44a101.75,101.75,0,0,1,0,11.77,4.58,4.58,0,0,1-3,4.08s-1.16.35-2.9.7a33.47,33.47,0,0,1-6.37.69h-.82c-6.92-.3-14.51-3.22-22-11.58-.52-.57-1-1.14-1.42-1.72a27.12,27.12,0,0,1-5-16.17,32.37,32.37,0,0,1,5.06-17.34A24.59,24.59,0,0,1,82.43,42a27.75,27.75,0,0,1,4.1-3.75c1.26-1,2.17-1.51,2.17-1.52a11.87,11.87,0,0,1,3.57-1.38,11.44,11.44,0,0,1,1.92-.3c.55,0,1.38,0,1.07.64-.17.36-.91.8-1.21,1.11a12.19,12.19,0,0,0,8.86,20.45"/><path class="cls-3" d="M30.33,127.43a1.25,1.25,0,0,0-.32,0,5.67,5.67,0,0,1-1,.22,2.72,2.72,0,0,1-2.29-1.2,6.63,6.63,0,0,1-1.08-2.87,27.79,27.79,0,0,1-.28-3.67c0-.8.06-1.67.15-2.59a22.65,22.65,0,0,1,.33-2.32,6,6,0,0,1,.39-1.31,3.75,3.75,0,0,1,1.13-1.54,2.32,2.32,0,0,1,1.44-.49,2.85,2.85,0,0,1,1.07.22,1.06,1.06,0,0,0,.45.11.92.92,0,0,0,.9-1v-1.22s.07-1.18-1.44-1.57a6.59,6.59,0,0,0-1.69-.24,5.41,5.41,0,0,0-2.17.45,5.64,5.64,0,0,0-1.84,1.29,6.77,6.77,0,0,0-1.33,2.06,16.21,16.21,0,0,0-.92,3.51,31.72,31.72,0,0,0-.39,4.53,28.43,28.43,0,0,0,.24,3.45,19.92,19.92,0,0,0,.66,3.19,9.25,9.25,0,0,0,1,2.39,5.37,5.37,0,0,0,2.18,1.79,6.56,6.56,0,0,0,2.81.66,4.79,4.79,0,0,0,1.88-.37,1.73,1.73,0,0,0,1-1.51v-1.23A.91.91,0,0,0,30.33,127.43Z"/><path class="cls-3" d="M43.9,115.07a11.88,11.88,0,0,0-.74-3.42A6.23,6.23,0,0,0,41.29,109a4.79,4.79,0,0,0-3.1-1,5.66,5.66,0,0,0-1.3.13,4.12,4.12,0,0,0-2.52,1.44,7.54,7.54,0,0,0-1.44,2.69,17.81,17.81,0,0,0-.67,3.4c-.12,1.24-.2,2.53-.22,3.82v.06c0,.37.05.89.05,1.54a21,21,0,0,0,.75,5.74,7,7,0,0,0,2,3.35,4.84,4.84,0,0,0,3.19,1.09,4.86,4.86,0,0,0,4.77-3,19.39,19.39,0,0,0,1.3-7.83C44.14,119.1,44.06,117.31,43.9,115.07Zm-3.71,4v.47q0,.91,0,2.22a23.77,23.77,0,0,1-.2,3,6.08,6.08,0,0,1-.63,2.08,1.32,1.32,0,0,1-1,.77,1.17,1.17,0,0,0-.26,0,1.26,1.26,0,0,1-.89-.56,5.56,5.56,0,0,1-.79-2.24,25.68,25.68,0,0,1-.31-4.38,10.3,10.3,0,0,0,0-1.21,31,31,0,0,1,.52-5.69c.39-1.84,1.24-1.94,1.55-2h.1C39.48,111.58,40.19,114.25,40.19,119.09Z"/><path class="cls-3" d="M53.87,127.47H50.2a.07.07,0,0,1-.08-.08V109.31a1.06,1.06,0,0,0-1-1.06H47.4a1.06,1.06,0,0,0-1,1.06v20.62a1.05,1.05,0,0,0,1,1.06h6.47a1.05,1.05,0,0,0,1-1.06v-1.4A1.06,1.06,0,0,0,53.87,127.47Z"/><path class="cls-3" d="M59.94,111.71h3.3a1.24,1.24,0,0,0,1.23-1.25v-1a1.24,1.24,0,0,0-1.23-1.25h-6.1a1.24,1.24,0,0,0-1.22,1.25v20.24A1.24,1.24,0,0,0,57.14,131h6.1a1.24,1.24,0,0,0,1.23-1.25v-1a1.25,1.25,0,0,0-1.23-1.26h-3.3a.26.26,0,0,1-.26-.27v-5.87a.26.26,0,0,1,.26-.27h2.82A1.25,1.25,0,0,0,64,119.8v-1a1.24,1.24,0,0,0-1.22-1.26H59.94a.26.26,0,0,1-.26-.27V112A.26.26,0,0,1,59.94,111.71Z"/><path class="cls-3" d="M75.9,118.52H72.19A1.25,1.25,0,0,0,71,119.78v1A1.25,1.25,0,0,0,72.19,122h.89a.27.27,0,0,1,.26.27v.82c0,3-.61,4.46-1.79,4.46a1.57,1.57,0,0,1-1-.39,3.66,3.66,0,0,1-.67-1.76,39,39,0,0,1-.5-6.35,30.39,30.39,0,0,1,.5-6,2.24,2.24,0,0,1,.63-1.14,1.35,1.35,0,0,1,1.73-.12,2.23,2.23,0,0,1,.73.83,2.5,2.5,0,0,1,.27.67,1.1,1.1,0,0,0,1,.91,1.07,1.07,0,0,0,.43-.09l1.48-.62a1.17,1.17,0,0,0,.64-.58,1.08,1.08,0,0,0,0-.83,9,9,0,0,0-1-2.11A4.48,4.48,0,0,0,74,108.45a5.58,5.58,0,0,0-2.39-.5,5.67,5.67,0,0,0-3.58,1,6.16,6.16,0,0,0-2,3.43,37.94,37.94,0,0,0-.57,5.33c0,.44,0,1.13,0,1.55v.51a41.27,41.27,0,0,0,.24,4.79,12.7,12.7,0,0,0,.9,3.54,5.16,5.16,0,0,0,1.93,2.33,5.6,5.6,0,0,0,3.08.79,5.07,5.07,0,0,0,3-.86,5.5,5.5,0,0,0,1.88-3,29.25,29.25,0,0,0,.58-4.85c0-.45,0-1.14,0-1.54v-1.21A1.25,1.25,0,0,0,75.9,118.52Z"/><path class="cls-3" d="M81.76,108.25h-1.3a1.24,1.24,0,0,0-1.23,1.25v20.24A1.24,1.24,0,0,0,80.46,131h1.3A1.24,1.24,0,0,0,83,129.74V109.5A1.24,1.24,0,0,0,81.76,108.25Z"/><path class="cls-3" d="M96.89,129.66l-4.25-20.28a1.46,1.46,0,0,0-1.37-1.13H90.5a1.47,1.47,0,0,0-1.37,1.13l-4.3,20.28a1.12,1.12,0,0,0,.2.93,1.09,1.09,0,0,0,.86.4h1.27a1.43,1.43,0,0,0,1.36-1.14l.52-2.72a.48.48,0,0,1,.42-.35h2.68a.47.47,0,0,1,.42.35l.55,2.73A1.45,1.45,0,0,0,94.48,131h1.36a1.05,1.05,0,0,0,.85-.4A1.13,1.13,0,0,0,96.89,129.66Zm-5-6.2a.18.18,0,0,1-.13.05H89.86a.14.14,0,0,1-.13-.05.21.21,0,0,1,0-.13L90.83,116l1.11,7.37A.22.22,0,0,1,91.91,123.46Z"/><path class="cls-3" d="M105.45,108.25H97.58a1.24,1.24,0,0,0-1.23,1.25v1a1.24,1.24,0,0,0,1.23,1.25h1.8a.27.27,0,0,1,.26.27v17.76a1.24,1.24,0,0,0,1.22,1.25h1.4a1.24,1.24,0,0,0,1.22-1.25V112a.27.27,0,0,1,.26-.27h1.71a1.24,1.24,0,0,0,1.22-1.25v-1A1.24,1.24,0,0,0,105.45,108.25Z"/><path class="cls-3" d="M117.9,108.62a1.21,1.21,0,0,0-.87-.37h-1.36a1.24,1.24,0,0,0-1.23,1.25v15a12,12,0,0,1-.13,2.1,1.08,1.08,0,0,1-.42.73,2.15,2.15,0,0,1-1.17.23,1,1,0,0,1-1.13-.72,11.38,11.38,0,0,1-.29-2.23c0-.39,0-1.07,0-1.5V109.5a1.24,1.24,0,0,0-1.22-1.25h-1.31a1.24,1.24,0,0,0-1.22,1.25v14.74a12.63,12.63,0,0,0,.49,3.86,4.35,4.35,0,0,0,1.75,2.39,5.72,5.72,0,0,0,3.17.78h0a7.38,7.38,0,0,0,2.54-.44,3.68,3.68,0,0,0,1.66-1.31,5.58,5.58,0,0,0,.83-2.09,18.92,18.92,0,0,0,.2-2.24c0-.42,0-1.11,0-1.54l.06-14.15A1.26,1.26,0,0,0,117.9,108.62Z"/><path class="cls-3" d="M143.53,129.66l-4.25-20.27a1.45,1.45,0,0,0-1.37-1.14h-.76a1.47,1.47,0,0,0-1.38,1.13l-4.3,20.27a1.13,1.13,0,0,0,.2.94,1.06,1.06,0,0,0,.86.4h1.27a1.43,1.43,0,0,0,1.36-1.14l.52-2.72a.48.48,0,0,1,.42-.35h2.68a.47.47,0,0,1,.42.35l.55,2.73a1.44,1.44,0,0,0,1.37,1.13h1.36a1.07,1.07,0,0,0,.85-.39A1.15,1.15,0,0,0,143.53,129.66Zm-5-6.2a.14.14,0,0,1-.13.05H136.5a.14.14,0,0,1-.13-.05.15.15,0,0,1,0-.13l1.12-7.38,1.11,7.37A.22.22,0,0,1,138.55,123.46Z"/><path class="cls-3" d="M130.73,129.62l-3.38-9.24c0-.08,0-.14,0-.16a3.16,3.16,0,0,0,1.2-.89,5.5,5.5,0,0,0,1.12-2.2,10.23,10.23,0,0,0,.37-2.82c0-.41,0-.69,0-.88a6.13,6.13,0,0,0-1.48-3.88,5.11,5.11,0,0,0-3.8-1.3h-3.23a1.27,1.27,0,0,0-1.07,1.14v20.35a1.24,1.24,0,0,0,1.23,1.25H123a1.24,1.24,0,0,0,1.22-1.25v-7.3l2.72,7.52a1.64,1.64,0,0,0,1.45,1h1.42a1,1,0,0,0,.84-.42A1,1,0,0,0,130.73,129.62Zm-4.61-14.9a4.39,4.39,0,0,1-.55,2.41,2.14,2.14,0,0,1-1.23.64c-.11,0-.13-.08-.13-.15V112a.76.76,0,0,1,.05-.27,1.45,1.45,0,0,1,1.37.76A4.55,4.55,0,0,1,126.12,114.72Z"/></g></g></svg>