<svg xmlns="http://www.w3.org/2000/svg" viewBox="0 0 165 165"><defs><style>.cls-1{fill:#475ed5;}.cls-2{fill:#fff;}</style></defs><g id="Capa_2" data-name="Capa 2"><g id="Capa_1-2" data-name="Capa 1"><rect class="cls-1" width="165" height="165"/><path class="cls-2" d="M26.89,76.22a3.22,3.22,0,0,1,2.8,1.17,1.41,1.41,0,0,0-.92,1.3,1.39,1.39,0,0,0,1.37,1.38c.76,0,1.4-.57,1.4-1.73,0-1.8-2.3-3.13-4.75-3.13a6.15,6.15,0,0,0-1.71.25l-.32,1.19A4.76,4.76,0,0,1,26.89,76.22Z"/><path class="cls-2" d="M143.66,74.32A1.66,1.66,0,1,1,142,72.68,1.65,1.65,0,0,1,143.66,74.32Zm-3.09,0A1.44,1.44,0,1,0,142,72.89,1.44,1.44,0,0,0,140.57,74.32Zm2.06.7c0,.06,0,.09.07.09s0,0,0-.07a.09.09,0,0,1,.09-.08.07.07,0,0,1,.08.07.22.22,0,0,1-.23.22c-.22,0-.37-.09-.37-.51,0-.27,0-.38-.34-.38h-.15V75h.26a.11.11,0,0,1,.09.1.11.11,0,0,1-.09.09,2.62,2.62,0,0,0-.42,0h0a2.7,2.7,0,0,0-.41,0,.09.09,0,0,1-.09-.09.09.09,0,0,1,.09-.1h.25V73.59h-.25a.09.09,0,0,1-.09-.09.09.09,0,0,1,.09-.1,1.7,1.7,0,0,0,.39,0H142c.47,0,.69.2.69.44a.48.48,0,0,1-.36.39.54.54,0,0,1,.36.49C142.66,74.91,142.63,74.93,142.63,75Zm-.81-1.44v.61h.08c.27,0,.4-.08.4-.32s-.1-.29-.38-.29Z"/><path class="cls-2" d="M41.54,75.21c4.06,0,6.12,3.11,5.84,6.82H37.91c0,.5,0,1,0,1.62,0,5,1.55,7.42,4.33,7.42,2.23,0,3.56-1.2,4.31-3.48,0-.23.2-.53.45-.53a.44.44,0,0,1,.48.43,3,3,0,0,1-.15.67,5.57,5.57,0,0,1-5.54,3.94C38,92.1,35,89,35,83.65,35,78.64,38.11,75.21,41.54,75.21ZM66.82,91.77c-.48,0-1-.12-3.38-.12h-.93c-2.28,0-2.48.12-3,.12a.41.41,0,0,1-.38-.43.43.43,0,0,1,.38-.45c.43,0,.63,0,2.13,0V79.67c0-2.33-.5-3.26-2.13-3.26-2.36,0-4.89,3.43-4.89,7.65v6.86c1.51,0,1.68,0,2.13,0a.41.41,0,0,1,.38.45.39.39,0,0,1-.38.43c-.47,0-.77-.12-3-.12h-.93c-2.38,0-2.91.12-3.38.12a.39.39,0,0,1-.38-.43.41.41,0,0,1,.38-.45c.4,0,.77,0,2.53,0V76.39l-2.53,0a.41.41,0,0,1-.38-.45.4.4,0,0,1,.38-.42c.18,0,1.25.09,2.73.09.93,0,1.65-.17,2-.17.22,0,.37.2.37.52v4c.68-2.28,2.84-4.76,5.24-4.76,3.18,0,4.41,2.51,4.41,5.86v9.85c1.55,0,2.08,0,2.53,0a.41.41,0,0,1,.38.45A.39.39,0,0,1,66.82,91.77ZM86,92.18c3.73,0,6.81-3.41,6.81-8.45S89.77,75.29,86,75.29s-6.84,3.44-6.84,8.44S82.28,92.18,86,92.18Zm0-16c2.65,0,3.91,2,3.91,7.56S88.69,91.3,86,91.3s-3.91-2-3.91-7.57S83.36,76.17,86,76.17Z"/><path class="cls-2" d="M26.59,92.15c3.1,0,5.64-1.83,5.64-5,0-2.73-1.71-4-4.72-5l-1.8-.55a4.45,4.45,0,0,1-2-1.1L23,83.22a7.18,7.18,0,0,0,2.9,1.51l1.57.48c1.46.42,3.16,1.07,3.16,2.7,0,2.11-2,3.16-3.91,3.16a4.5,4.5,0,0,1-4-2,1.38,1.38,0,0,0,1-1.33,1.4,1.4,0,0,0-1.38-1.38l-.21,0-.8,3A5.84,5.84,0,0,0,26.59,92.15Z"/><path class="cls-2" d="M41.74,92.1a5.57,5.57,0,0,0,5.54-3.94,3,3,0,0,0,.15-.67.44.44,0,0,0-.48-.43c-.25,0-.4.3-.45.53-.75,2.28-2.08,3.48-4.31,3.48-2.78,0-4.33-2.38-4.33-7.42,0-.57,0-1.12,0-1.62h9.47c.28-3.71-1.78-6.82-5.84-6.82-3.43,0-6.59,3.43-6.59,8.44C35,89,38,92.1,41.74,92.1Z"/><path class="cls-2" d="M66.82,90.89c-.45,0-1,0-2.53,0V81.07c0-3.35-1.23-5.86-4.41-5.86-2.4,0-4.56,2.48-5.24,4.76V76c0-.32-.15-.52-.37-.52-.38,0-1.1.17-2,.17-1.48,0-2.55-.09-2.73-.09a.4.4,0,0,0-.38.42.41.41,0,0,0,.38.45l2.53,0V90.92c-1.76,0-2.13,0-2.53,0a.41.41,0,0,0-.38.45.39.39,0,0,0,.38.43c.47,0,1-.12,3.38-.12h.93c2.18,0,2.48.12,3,.12a.39.39,0,0,0,.38-.43.41.41,0,0,0-.38-.45c-.45,0-.62,0-2.13,0V84.06c0-4.22,2.53-7.65,4.89-7.65,1.63,0,2.13.93,2.13,3.26V90.92c-1.5,0-1.7,0-2.13,0a.43.43,0,0,0-.38.45.41.41,0,0,0,.38.43c.5,0,.7-.12,3-.12h.93c2.35,0,2.9.12,3.38.12a.39.39,0,0,0,.38-.43A.41.41,0,0,0,66.82,90.89Z"/><path class="cls-2" d="M72,84.79l1.58.47C75,85.69,76.7,86.34,76.7,88c0,2.11-2,3.16-3.91,3.16a4.5,4.5,0,0,1-4-2,1.38,1.38,0,0,0,1-1.33,1.4,1.4,0,0,0-1.38-1.38c-.83,0-1.38.58-1.38,1.63,0,1.73,2.13,4.18,5.61,4.18,3.11,0,5.64-1.82,5.64-5,0-2.73-1.7-4-4.71-5l-1.8-.55c-1.43-.45-2.51-1.1-2.51-2.45,0-2,1.48-3,3.68-3a3.23,3.23,0,0,1,2.81,1.18,1.38,1.38,0,0,0,.45,2.68c.75,0,1.4-.58,1.4-1.73,0-1.8-2.3-3.13-4.76-3.13a5.73,5.73,0,0,0-3.4,1.1L68,81.71C68.48,83,69.6,84.08,72,84.79Z"/><path class="cls-2" d="M95.42,91.22c-1.75,0-2.12,0-2.52,0a.41.41,0,0,0-.38.45.38.38,0,0,0,.38.42c.47,0,1-.12,3.38-.12h.92c2.34,0,2.91.12,3.39.12a.38.38,0,0,0,.37-.42.4.4,0,0,0-.37-.45c-.45,0-1,0-2.56,0v-8c0-4.84,2.41-7,4-6.62a1.71,1.71,0,0,0-.55,1.25,1.64,1.64,0,0,0,1.66,1.66,1.72,1.72,0,0,0,1.63-1.88c0-1.15-1-2.16-2.71-2.16S98.73,77,98,79V76.29c0-.32-.15-.53-.37-.53-.38,0-1.11.18-2,.18l-1.06,0-.21.78h1.06Z"/><path class="cls-2" d="M113.94,76.71a.44.44,0,0,0,0-.87c-.48,0-1,.13-3.38.13h-.93c-2.38,0-2.9-.13-3.38-.13a.44.44,0,0,0,0,.87c.4,0,.78,0,2.53,0V91.22c-1.75,0-2.13,0-2.53,0a.41.41,0,0,0-.38.45.38.38,0,0,0,.38.42c.48,0,1-.12,3.38-.12h.93c2.33,0,2.9.12,3.38.12a.38.38,0,0,0,.38-.42.41.41,0,0,0-.38-.45c-.45,0-1,0-2.55,0V76.69C113,76.69,113.49,76.71,113.94,76.71Z"/><path class="cls-2" d="M128.87,90.27a.3.3,0,0,0-.25.15c-.33.27-.48,1-1.1,1-.4,0-.63-.25-.63-1.17V80.6c0-3.46-1.78-5-4.88-5-2.19,0-4.61,1.5-4.61,3.23a1.5,1.5,0,1,0,3,0,1.55,1.55,0,0,0-.77-1.35,2.66,2.66,0,0,1,2.38-1c1.5,0,2.27.87,2.27,2.63v4.33c-3.3,0-8.09,1.23-8.09,5.34a3.34,3.34,0,0,0,3.49,3.45,7,7,0,0,0,4.68-2.15,2.32,2.32,0,0,0,2.33,2.1,3.29,3.29,0,0,0,2.48-1,.85.85,0,0,0,.25-.55A.51.51,0,0,0,128.87,90.27Z"/><path class="cls-2" d="M143,87.49a.38.38,0,0,0-.43.38c0,2-.67,3.2-2.1,3.2h-4.49V76.69c1.58,0,2.11,0,2.56,0a.44.44,0,0,0,0-.87c-.48,0-1.05.13-3.38.13h-.93c-2.38,0-2.91-.13-3.38-.13a.44.44,0,0,0,0,.87c.4,0,.78,0,2.53,0V91.22c-1.75,0-2.13,0-2.53,0a.41.41,0,0,0-.38.45.38.38,0,0,0,.38.42c.47,0,1-.12,3.38-.12l7.27,0c.37,0,1.15.1,1.37.1a.41.41,0,0,0,.38-.43V90.9c0-1,.12-2.78.12-3A.35.35,0,0,0,143,87.49Z"/></g></g></svg>