<svg xmlns="http://www.w3.org/2000/svg" viewBox="0 0 165 165"><defs><style>.cls-1{fill:#fff;}.cls-2{fill:#7856a4;}.cls-3{fill:#3d8d84;}.cls-4{fill:#46494b;}</style></defs><g id="Capa_2" data-name="Capa 2"><g id="Capa_1-2" data-name="Capa 1"><rect class="cls-1" width="165" height="165"/><path class="cls-2" d="M109.22,122.2V75.8a46.5,46.5,0,0,0-1.33-11.07,24.82,24.82,0,0,0-4.83-9.8A24.26,24.26,0,0,0,93.6,48c-4-1.74-9.07-2.6-15.33-2.6v1.26a10.09,10.09,0,0,1,5.6,2.81,20,20,0,0,1,3.92,6.44C89,58.8,89.61,63,89.61,68.51v50.38a27.14,27.14,0,0,0,2.56,1.35C97.49,122.64,103.36,122.91,109.22,122.2Z"/><path class="cls-2" d="M73.2,99.4a17.54,17.54,0,0,0,1,6.33,11.55,11.55,0,0,0,2.53,4.07,9.89,9.89,0,0,0,3.3,2.26,8.91,8.91,0,0,0,3.31.7l.14,1.26H69.82c-6.18,0-10.71-1.14-13.56-3.44s-4.29-6-4.29-11a16,16,0,0,1,3.37-9.92A33.21,33.21,0,0,1,63.5,82a51.48,51.48,0,0,1,10.12-5.2,54.1,54.1,0,0,1,9.14-2.74v1.26a17.62,17.62,0,0,0-7,8.65C74,88,73.2,93.13,73.2,99.4Z"/><path class="cls-3" d="M63.85,70.72a8.91,8.91,0,0,1-6.52-2.67,9.11,9.11,0,0,1,0-12.93,9.3,9.3,0,0,1,13,0,9.11,9.11,0,0,1,0,12.93A9,9,0,0,1,63.85,70.72Z"/><path class="cls-4" d="M106.77,121.41A28.85,28.85,0,0,1,94.71,119a24.55,24.55,0,0,1-2.64-1.39.9.9,0,0,1-.45-.78V66.47c0-5.37-.59-9.49-1.75-12.25a19.23,19.23,0,0,0-3.73-6.15,9.17,9.17,0,0,0-5.08-2.55.9.9,0,0,1-.78-.9V43.36a.91.91,0,0,1,.91-.91c6.35,0,11.63.91,15.69,2.68a25.36,25.36,0,0,1,9.8,7.19,26,26,0,0,1,5,10.16A47.88,47.88,0,0,1,113,73.76v46.4a.9.9,0,0,1-.79.9A45.81,45.81,0,0,1,106.77,121.41Zm5.36-1.25h0Zm-18.7-3.83c.73.42,1.38.75,2,1,4.41,2,9.57,2.64,15.78,2V73.76a45.89,45.89,0,0,0-1.3-10.85,24.11,24.11,0,0,0-4.66-9.46,23.46,23.46,0,0,0-9.12-6.66,34.82,34.82,0,0,0-12.59-2.48,11.41,11.41,0,0,1,3.84,2.46,21.06,21.06,0,0,1,4.14,6.75c1.25,3,1.89,7.34,1.89,12.95Z"/><path class="cls-4" d="M86.37,112.89H72.74c-6.38,0-11.14-1.23-14.14-3.65S54,102.83,54,97.51a16.89,16.89,0,0,1,3.55-10.46,34.25,34.25,0,0,1,8.38-7.8A52.77,52.77,0,0,1,76.21,74a56,56,0,0,1,9.29-2.78.89.89,0,0,1,1.07.89v1.26a.9.9,0,0,1-.44.78,16.87,16.87,0,0,0-6.66,8.22c-1.63,3.85-2.45,8.91-2.45,15a16.74,16.74,0,0,0,.92,6,10.58,10.58,0,0,0,2.33,3.76,8.89,8.89,0,0,0,3,2.06,8.08,8.08,0,0,0,3,.64.89.89,0,0,1,.9.8l.14,1.26a.89.89,0,0,1-.22.7A.91.91,0,0,1,86.37,112.89ZM84,73.34a64.83,64.83,0,0,0-7.15,2.3,51,51,0,0,0-9.94,5.11A32.37,32.37,0,0,0,59,88.14a15.19,15.19,0,0,0-3.19,9.37c0,4.75,1.33,8.22,3.95,10.33s7.05,3.24,13,3.24H83.19c-.2-.07-.4-.14-.6-.23A10.64,10.64,0,0,1,79,108.4,12.52,12.52,0,0,1,76.25,104a18.62,18.62,0,0,1-1-6.66c0-6.37.87-11.67,2.6-15.74A19.46,19.46,0,0,1,84,73.34ZM66.76,69.59a9.84,9.84,0,0,1-7.16-2.94,10,10,0,0,1,0-14.21,10.19,10.19,0,0,1,14.31,0,10,10,0,0,1,0,14.22A9.82,9.82,0,0,1,66.76,69.59Zm0-18.28a8,8,0,0,0-5.88,2.41,8.2,8.2,0,0,0,0,11.65,8.38,8.38,0,0,0,11.76,0,8.2,8.2,0,0,0,0-11.65A8,8,0,0,0,66.76,51.31Z"/></g></g></svg>