<svg xmlns="http://www.w3.org/2000/svg" xmlns:xlink="http://www.w3.org/1999/xlink" viewBox="0 0 165 165"><defs><style>.cls-1{fill:none;clip-rule:evenodd;}.cls-11,.cls-2{fill:#bb151c;}.cls-3,.cls-5{fill:#fff;}.cls-4{fill:#5da1a2;}.cls-10,.cls-11,.cls-12,.cls-13,.cls-215,.cls-216,.cls-217,.cls-220,.cls-221,.cls-222,.cls-223,.cls-224,.cls-225,.cls-226,.cls-4,.cls-5,.cls-6,.cls-7,.cls-8{fill-rule:evenodd;}.cls-227,.cls-6{fill:#e9bb2d;}.cls-219,.cls-7{fill:#b6c4cf;}.cls-8{fill:#f4d934;}.cls-9{fill:#040504;}.cls-10{fill:#375da2;}.cls-12{fill:#ba151b;}.cls-13{fill:#3e3f3e;}.cls-14{clip-path:url(#clip-path);}.cls-15{fill:#fcffff;}.cls-16{fill:#fcfcfc;}.cls-17{fill:#fbfbfb;}.cls-18{fill:#fafafa;}.cls-19{fill:#f9f9f9;}.cls-20{fill:#f8f8f8;}.cls-21{fill:#f7f7f7;}.cls-22{fill:#f6f6f7;}.cls-23{fill:#f5f5f6;}.cls-24{fill:#f4f4f4;}.cls-25{fill:#f3f3f3;}.cls-26{fill:#f3f2f2;}.cls-27{fill:#f2f1f1;}.cls-28{fill:#f1f0f0;}.cls-29{fill:#f0eff0;}.cls-30{fill:#efeeef;}.cls-31{fill:#eeeded;}.cls-32{fill:#edecec;}.cls-33{fill:#ecebec;}.cls-34{fill:#ebeaea;}.cls-35{fill:#eae9e9;}.cls-36{fill:#eae8e8;}.cls-37{fill:#e9e7e8;}.cls-38{fill:#e8e6e6;}.cls-39{fill:#e7e6e6;}.cls-40{fill:#e6e5e5;}.cls-41{fill:#e5e4e3;}.cls-42{fill:#e4e2e2;}.cls-43{fill:#e3e1e1;}.cls-44{fill:#e2e1e0;}.cls-45{fill:#e1e0e0;}.cls-46{fill:#e0dfdf;}.cls-47{fill:#dfdddd;}.cls-48{fill:#dedcdc;}.cls-49{fill:#dddbdb;}.cls-50{fill:#dcdada;}.cls-51{fill:#dbd9d9;}.cls-52{fill:#dad8d9;}.cls-53{fill:#dad7d7;}.cls-54{fill:#d9d6d6;}.cls-55{fill:#d8d5d5;}.cls-56{fill:#d6d4d4;}.cls-57{fill:#d6d3d3;}.cls-58{fill:#d5d2d2;}.cls-59{fill:#d4d1d1;}.cls-60{fill:#d3d0d0;}.cls-61{fill:#d2cfcf;}.cls-62{fill:#d1cece;}.cls-63{fill:#d0cdcd;}.cls-64{fill:#cfcccc;}.cls-65{fill:#cecbcb;}.cls-66{fill:#cecaca;}.cls-67{fill:#cbc8c8;}.cls-68{fill:#cac7c7;}.cls-69{fill:#c8c6c6;}.cls-70{fill:#c8c5c5;}.cls-71{fill:#c6c4c4;}.cls-72{fill:#c6c3c3;}.cls-73{fill:#c5c2c2;}.cls-74{fill:#c3c0c1;}.cls-75{fill:#c1bebf;}.cls-76{fill:#c0bebf;}.cls-77{fill:#bfbdbe;}.cls-78{fill:#bebcbd;}.cls-79{fill:#bdbbbc;}.cls-80{fill:#bcb9ba;}.cls-81{fill:#bbb8ba;}.cls-82{fill:#bab8b9;}.cls-83{fill:#b9b7b8;}.cls-84{fill:#b8b6b7;}.cls-85{fill:#b7b5b6;}.cls-86{fill:#b6b4b5;}.cls-87{fill:#b5b3b4;}.cls-88{fill:#b3b1b3;}.cls-89{fill:#b3b0b2;}.cls-90{fill:#b1b0b2;}.cls-91{fill:#b0afb1;}.cls-92{fill:#b0aeb0;}.cls-93{fill:#aeacaf;}.cls-94{fill:#aeacae;}.cls-95{fill:#acabad;}.cls-96{fill:#abaaac;}.cls-97{fill:#aaa9ab;}.cls-98{fill:#a9a8ab;}.cls-99{fill:#a8a7aa;}.cls-100{fill:#a7a6a8;}.cls-101{fill:#a6a5a8;}.cls-102{fill:#a5a4a7;}.cls-103{fill:#a4a3a6;}.cls-104{fill:#a3a2a5;}.cls-105{fill:#a1a0a4;}.cls-106{clip-path:url(#clip-path-2);}.cls-107{clip-path:url(#clip-path-3);}.cls-108{fill:#e8e6e5;}.cls-109{fill:#dedddd;}.cls-110{fill:#dddcdc;}.cls-111{fill:#dbdad9;}.cls-112{fill:#dad9d9;}.cls-113{fill:#d9d8d8;}.cls-114{fill:#d8d7d7;}.cls-115{fill:#d8d6d6;}.cls-116{fill:#d7d6d5;}.cls-117{fill:#d5d4d4;}.cls-118{fill:#d4d3d3;}.cls-119{fill:#d4d2d2;}.cls-120{fill:#d3d2d1;}.cls-121{fill:#d2d1d1;}.cls-122{fill:#d1d0d0;}.cls-123{fill:#d0cece;}.cls-124{fill:#cfcece;}.cls-125{fill:#cecdcd;}.cls-126{fill:#cdcccc;}.cls-127{fill:#cdcbcb;}.cls-128{fill:#cccaca;}.cls-129{fill:#cbcac9;}.cls-130{fill:#c9c8c8;}.cls-131{fill:#c8c7c7;}.cls-132{fill:#c7c6c5;}.cls-133{fill:#c6c5c5;}.cls-134{fill:#c5c4c4;}.cls-135{fill:#c4c3c3;}.cls-136{fill:#c3c2c2;}.cls-137{fill:#c2c1c1;}.cls-138{fill:#c1c0c0;}.cls-139{fill:#c0bfbe;}.cls-140{fill:#bebdbd;}.cls-141{fill:#bdbdbd;}.cls-142{fill:#bcbcbc;}.cls-143{fill:#bbbabb;}.cls-144{fill:#bab9ba;}.cls-145{fill:#b8b8b8;}.cls-146{fill:#b7b7b8;}.cls-147{fill:#b6b5b6;}.cls-148{fill:#b5b4b6;}.cls-149{fill:#b4b3b4;}.cls-150{fill:#b3b2b4;}.cls-151{fill:#afafb0;}.cls-152{fill:#aeaeaf;}.cls-153{fill:#adacae;}.cls-154{fill:#aaa9ac;}.cls-155{fill:#a9a8aa;}.cls-156{fill:#a8a7a9;}.cls-157{fill:#a1a0a3;}.cls-158{fill:#a09fa2;}.cls-159{fill:#a09ea1;}.cls-160{fill:#9e9d9f;}.cls-161{fill:#9e9c9e;}.cls-162{fill:#9d9b9d;}.cls-163{fill:#9c9a9c;}.cls-164{fill:#9b9a9b;}.cls-165{fill:#9b999a;}.cls-166{fill:#9a9899;}.cls-167{fill:#999797;}.cls-168{fill:#999696;}.cls-169{fill:#979595;}.cls-170{fill:#979494;}.cls-171{fill:#969393;}.cls-172{fill:#959292;}.cls-173{fill:#959191;}.cls-174{fill:#949190;}.cls-175{fill:#938f8e;}.cls-176{fill:#928f8e;}.cls-177{fill:#928e8d;}.cls-178{fill:#918d8b;}.cls-179{fill:#908c8a;}.cls-180{fill:#908b89;}.cls-181{fill:#8f8a88;}.cls-182{fill:#8e8987;}.cls-183{fill:#8d8886;}.cls-184{fill:#8c8885;}.cls-185{fill:#8c8784;}.cls-186{fill:#8b8683;}.cls-187{fill:#8b8582;}.cls-188{fill:#8a8581;}.cls-189{fill:#898480;}.cls-190{fill:#888380;}.cls-191{fill:#878280;}.cls-192{fill:#87817f;}.cls-193{fill:#86807e;}.cls-194{fill:#85807c;}.cls-195{fill:#85807b;}.cls-196{fill:#84807b;}.cls-197{fill:#837f7a;}.cls-198{fill:#837e79;}.cls-199{fill:#827d78;}.cls-200{fill:#817c76;}.cls-201{fill:#807b75;}.cls-202{fill:#807a74;}.cls-203{fill:#807973;}.cls-204{fill:#807872;}.cls-205{fill:#7f7771;}.cls-206{fill:#7e7670;}.cls-207{fill:#7d766f;}.cls-208{fill:#7c756e;}.cls-209{fill:#7c746d;}.cls-210{fill:#7b736c;}.cls-211{fill:#7a726b;}.cls-212{fill:#7a726a;}.cls-213{fill:#797169;}.cls-214{fill:#786f68;}.cls-215{fill:#999c9e;}.cls-216{fill:#c0d9f2;}.cls-217{fill:#92c2b4;}.cls-218,.cls-225{fill:#bda36d;}.cls-220{fill:#2d415d;}.cls-221{fill:#e6af2d;}.cls-222{fill:#921f1d;}.cls-223{fill:#f3d675;}.cls-224{fill:#c4c3c2;}.cls-226{fill:#a3a4a3;}.cls-228{fill:#c5c5cb;}.cls-229{fill:#eac7bb;}</style><clipPath id="clip-path"><path class="cls-1" d="M33.24,83.84c-.76-.23-1.73.6-1.73.6l1.41,2.92a2.45,2.45,0,0,1,1.69-.69Z"/></clipPath><clipPath id="clip-path-2"><path class="cls-1" d="M34.83,83.19s-1.41.06-1.59.65l1.37,2.83h0C35,86,36.3,86,36.3,86Z"/></clipPath><clipPath id="clip-path-3"><path class="cls-1" d="M33,87.56a2.72,2.72,0,0,1,1.73-.71,2.13,2.13,0,0,1,1.62-.61V86a2.27,2.27,0,0,0-1.69.65,2.45,2.45,0,0,0-1.69.69Z"/></clipPath></defs><g id="Capa_2" data-name="Capa 2"><g id="Capa_1-2" data-name="Capa 1"><rect class="cls-2" width="165" height="165"/><path class="cls-3" d="M62.68,99.38a2.89,2.89,0,0,1-1.22.21,2.23,2.23,0,0,1-2.41-2.37,2.37,2.37,0,0,1,2.52-2.49,2.71,2.71,0,0,1,1.15.21l-.19.68a2.23,2.23,0,0,0-.92-.18A1.57,1.57,0,0,0,60,97.18a1.55,1.55,0,0,0,1.64,1.7,2.31,2.31,0,0,0,.94-.18Z"/><path class="cls-3" d="M66.24,95.16a.49.49,0,0,1-1,0,.49.49,0,0,1,1,0Zm-.92,4.36V96.11h.87v3.41Z"/><path class="cls-3" d="M69.67,98.06a.92.92,0,0,0,1,.88,2.56,2.56,0,0,0,1-.15l.12.59a3.17,3.17,0,0,1-1.19.21,1.61,1.61,0,0,1-1.75-1.72A1.68,1.68,0,0,1,70.51,96,1.48,1.48,0,0,1,72,97.7a1.6,1.6,0,0,1,0,.36Zm1.5-.6a.73.73,0,0,0-.71-.84.85.85,0,0,0-.79.84Z"/><path class="cls-3" d="M74.64,97.13c0-.39,0-.72,0-1h.75l0,.51h0A1.21,1.21,0,0,1,76.51,96c.6,0,1.21.38,1.21,1.46v2h-.86V97.6c0-.49-.18-.86-.65-.86a.72.72,0,0,0-.67.5.82.82,0,0,0,0,.28v2h-.86Z"/><path class="cls-3" d="M83.1,99.42a2.59,2.59,0,0,1-1,.17,1.64,1.64,0,0,1-1.76-1.73A1.76,1.76,0,0,1,82.27,96a2.2,2.2,0,0,1,.84.16l-.16.64a1.56,1.56,0,0,0-.65-.13,1.1,1.1,0,0,0,0,2.2,1.71,1.71,0,0,0,.68-.13Z"/><path class="cls-3" d="M86.61,95.16a.45.45,0,0,1-.49.46.44.44,0,0,1-.47-.46.45.45,0,0,1,.48-.47A.46.46,0,0,1,86.61,95.16Zm-.92,4.36V96.11h.87v3.41Z"/><path class="cls-3" d="M91.36,99.52l-.06-.38h0a1.26,1.26,0,0,1-1,.46,1,1,0,0,1-1.07-1c0-.86.76-1.29,2-1.28v-.06c0-.22-.09-.59-.69-.59a1.83,1.83,0,0,0-.92.25l-.16-.56a2.38,2.38,0,0,1,1.23-.3,1.28,1.28,0,0,1,1.41,1.43V98.7a6.4,6.4,0,0,0,0,.82Zm-.11-1.66c-.61,0-1.19.12-1.19.63a.45.45,0,0,0,.49.49.7.7,0,0,0,.67-.47.62.62,0,0,0,0-.18Z"/><path class="cls-3" d="M98.9,96.11l.61,1.83c.07.21.14.47.19.67h0c.06-.2.12-.45.18-.68l.54-1.82h.92l-.85,2.33a5.21,5.21,0,0,1-1.19,2.19,1.77,1.77,0,0,1-.91.44l-.19-.73a1.33,1.33,0,0,0,.5-.24,1.41,1.41,0,0,0,.47-.54.29.29,0,0,0,.06-.15.45.45,0,0,0,0-.17L98,96.11Z"/><path class="cls-3" d="M107.25,94.8h.86v4h1.94v.72h-2.8Z"/><path class="cls-3" d="M113.55,95.16a.49.49,0,0,1-1,0,.49.49,0,0,1,1,0Zm-.92,4.36V96.11h.87v3.41Z"/><path class="cls-3" d="M116.35,99.52c0-.23,0-.61,0-1v-4h.87v2h0a1.22,1.22,0,0,1,1.09-.54c.83,0,1.43.69,1.42,1.73a1.63,1.63,0,0,1-1.54,1.83,1.16,1.16,0,0,1-1.08-.59h0l0,.51Zm.89-1.4a.65.65,0,0,0,0,.2.79.79,0,0,0,.76.6c.54,0,.87-.43.87-1.12s-.29-1.09-.86-1.09a.81.81,0,0,0-.77.63,1.38,1.38,0,0,0,0,.22Z"/><path class="cls-3" d="M123,98.06c0,.62.5.88,1,.88a2.5,2.5,0,0,0,.94-.15l.13.59a3.17,3.17,0,0,1-1.19.21,1.61,1.61,0,0,1-1.76-1.72A1.69,1.69,0,0,1,123.88,96a1.49,1.49,0,0,1,1.47,1.66,2.55,2.55,0,0,1,0,.36Zm1.5-.6a.75.75,0,0,0-.71-.84.85.85,0,0,0-.79.84Z"/><path class="cls-3" d="M128,97.21c0-.46,0-.79,0-1.1h.75l0,.65h0a1,1,0,0,1,.93-.72.65.65,0,0,1,.2,0v.81a1.42,1.42,0,0,0-.25,0,.77.77,0,0,0-.77.65,2,2,0,0,0,0,.27v1.76H128Z"/><path class="cls-3" d="M133.61,95.14v1h.82v.65h-.82v1.5c0,.42.11.63.44.63a1.22,1.22,0,0,0,.33,0l0,.66a1.89,1.89,0,0,1-.62.08,1,1,0,0,1-.75-.28,1.35,1.35,0,0,1-.26-1v-1.6h-.49v-.65h.49v-.77Z"/><path class="cls-3" d="M139,99.52l-.06-.38h0a1.26,1.26,0,0,1-1,.46,1,1,0,0,1-1.07-1c0-.86.77-1.29,2-1.28v-.06c0-.22-.1-.59-.7-.59a1.76,1.76,0,0,0-.91.25l-.17-.56a2.38,2.38,0,0,1,1.23-.3,1.28,1.28,0,0,1,1.41,1.43V98.7a4.86,4.86,0,0,0,0,.82Zm-.11-1.66c-.61,0-1.19.12-1.19.63a.45.45,0,0,0,.49.49.7.7,0,0,0,.67-.47.62.62,0,0,0,0-.18Z"/><path class="cls-3" d="M145.68,94.55v4c0,.35,0,.73,0,1h-.77l0-.54h0a1.21,1.21,0,0,1-1.11.62,1.56,1.56,0,0,1-1.46-1.74A1.62,1.62,0,0,1,143.85,96a1.1,1.1,0,0,1,1,.44h0V94.55Zm-.86,3a1.64,1.64,0,0,0,0-.22.75.75,0,0,0-.74-.61c-.55,0-.86.49-.86,1.13s.31,1.08.85,1.08a.76.76,0,0,0,.74-.61,1,1,0,0,0,0-.25Z"/><path class="cls-3" d="M58.8,67.77h2.37v6.86a3.88,3.88,0,0,0,.27,1.68,1.81,1.81,0,0,0,1.85.94,1.78,1.78,0,0,0,1.83-.94,3.88,3.88,0,0,0,.27-1.68V67.77h2.38v6.87a5.73,5.73,0,0,1-.56,2.77c-.68,1.21-2,1.82-3.92,1.82s-3.25-.61-3.94-1.82a5.74,5.74,0,0,1-.55-2.77Z"/><path class="cls-3" d="M76.49,71.15a2.75,2.75,0,0,1,.81,2.23v5.56H75.09v-5a2.37,2.37,0,0,0-.17-1,1.21,1.21,0,0,0-1.21-.64,1.49,1.49,0,0,0-1.49.93A3.25,3.25,0,0,0,72,74.47v4.47H69.85V70.7h2.09v1.2a4.06,4.06,0,0,1,.78-.92,2.78,2.78,0,0,1,1.69-.5,3.19,3.19,0,0,1,2.08.67"/><path class="cls-3" d="M81.53,69.7H79.34v-2h2.19Zm-2.19,1h2.19v8.26H79.34Z"/><polygon class="cls-3" points="88.71 70.68 91.03 70.68 88.05 78.94 85.77 78.94 82.81 70.68 85.23 70.68 86.95 76.77 88.71 70.68"/><path class="cls-3" d="M97.63,70.85a3.3,3.3,0,0,1,1.43,1.22,4,4,0,0,1,.66,1.71,10.4,10.4,0,0,1,.07,1.64h-6a2,2,0,0,0,.86,1.74,2.15,2.15,0,0,0,1.19.31,1.85,1.85,0,0,0,1.2-.38,1.87,1.87,0,0,0,.44-.57h2.21a2.72,2.72,0,0,1-.8,1.49,4,4,0,0,1-3.11,1.21,4.49,4.49,0,0,1-2.91-1,4,4,0,0,1-1.26-3.3,4.46,4.46,0,0,1,1.14-3.29,4,4,0,0,1,3-1.15,4.64,4.64,0,0,1,1.94.39M94.4,72.71A2.3,2.3,0,0,0,93.83,74h3.72a1.77,1.77,0,0,0-.58-1.3,1.87,1.87,0,0,0-1.28-.45,1.75,1.75,0,0,0-1.29.47"/><path class="cls-3" d="M105.47,70.49h.19v2.21l-.37,0H105a1.81,1.81,0,0,0-1.75.85A3.41,3.41,0,0,0,103,75v4h-2.17V70.68h2.06v1.44a4.41,4.41,0,0,1,.87-1.13,2.38,2.38,0,0,1,1.58-.51h.1"/><path class="cls-3" d="M108.6,76.3a1.4,1.4,0,0,0,.29.82,2,2,0,0,0,1.49.43,2.24,2.24,0,0,0,1-.19.63.63,0,0,0,.07-1.12,13,13,0,0,0-2.26-.65,4.72,4.72,0,0,1-2-.87,1.9,1.9,0,0,1-.57-1.49,2.53,2.53,0,0,1,.9-2,3.6,3.6,0,0,1,2.53-.82,4.66,4.66,0,0,1,2.52.61,2.64,2.64,0,0,1,1.12,2.14h-2.16a1.32,1.32,0,0,0-.23-.66,1.48,1.48,0,0,0-1.22-.44,1.7,1.7,0,0,0-1,.22.64.64,0,0,0-.31.51.57.57,0,0,0,.32.54,13.42,13.42,0,0,0,2.26.6,4.1,4.1,0,0,1,1.93.92,2.05,2.05,0,0,1,.64,1.55,2.49,2.49,0,0,1-.92,2,5.48,5.48,0,0,1-5.7,0,2.68,2.68,0,0,1-.93-2.1Z"/><path class="cls-3" d="M117.77,69.7h-2.19v-2h2.19Zm-2.19,1h2.19v8.26h-2.19Z"/><path class="cls-3" d="M124.24,70.81a2.62,2.62,0,0,1,1,.92V67.79h2.19V78.94h-2.1V77.79a3.08,3.08,0,0,1-1,1.07,2.91,2.91,0,0,1-1.47.34A3.07,3.07,0,0,1,120.32,78a4.51,4.51,0,0,1-1-3,5.19,5.19,0,0,1,1-3.32,3.18,3.18,0,0,1,2.61-1.22,2.65,2.65,0,0,1,1.33.33m.53,5.89a3,3,0,0,0,.48-1.77,2.72,2.72,0,0,0-.77-2.17,1.64,1.64,0,0,0-1.09-.39,1.52,1.52,0,0,0-1.39.72,3.34,3.34,0,0,0-.44,1.77,3.26,3.26,0,0,0,.45,1.83,1.53,1.53,0,0,0,1.37.69,1.6,1.6,0,0,0,1.39-.68"/><path class="cls-3" d="M132.61,73.92a3.62,3.62,0,0,0,.86-.19.67.67,0,0,0,.47-.62.72.72,0,0,0-.36-.7,2.26,2.26,0,0,0-1.05-.19,1.34,1.34,0,0,0-1.09.38,1.47,1.47,0,0,0-.31.76h-2.08a3.14,3.14,0,0,1,.6-1.79,3.59,3.59,0,0,1,3-1.09A5.29,5.29,0,0,1,135,71a2.07,2.07,0,0,1,1.05,2v3.79c0,.26,0,.58,0,1a1.14,1.14,0,0,0,.13.58.69.69,0,0,0,.32.25v.32H134.2a2.46,2.46,0,0,1-.14-.47c0-.15,0-.31-.06-.5a4.38,4.38,0,0,1-1,.82,3.07,3.07,0,0,1-1.58.41,2.81,2.81,0,0,1-1.87-.64,2.29,2.29,0,0,1-.73-1.82,2.34,2.34,0,0,1,1.18-2.2,5.11,5.11,0,0,1,1.91-.53Zm1.32,1a2.06,2.06,0,0,1-.42.21,4.27,4.27,0,0,1-.58.15l-.49.09a3.07,3.07,0,0,0-1,.3,1,1,0,0,0-.51.91,1,1,0,0,0,.31.8,1.16,1.16,0,0,0,.76.25,2.25,2.25,0,0,0,1.3-.41,1.71,1.71,0,0,0,.62-1.49Z"/><path class="cls-3" d="M142.35,70.81a2.7,2.7,0,0,1,1,.92V67.79h2.19V78.94h-2.1V77.79a3,3,0,0,1-1.06,1.07,2.86,2.86,0,0,1-1.47.34A3.07,3.07,0,0,1,138.43,78a4.51,4.51,0,0,1-1-3,5.13,5.13,0,0,1,1-3.32A3.18,3.18,0,0,1,141,70.48a2.65,2.65,0,0,1,1.33.33m.53,5.89a3,3,0,0,0,.48-1.77,2.72,2.72,0,0,0-.77-2.17,1.66,1.66,0,0,0-1.09-.39,1.52,1.52,0,0,0-1.39.72,3.34,3.34,0,0,0-.44,1.77,3.26,3.26,0,0,0,.45,1.83,1.52,1.52,0,0,0,1.37.69,1.6,1.6,0,0,0,1.39-.68"/><path class="cls-3" d="M63.94,84.34a2.84,2.84,0,0,1,1,1V81.18h2.29V92.84H65V91.65a3.15,3.15,0,0,1-1.1,1.11,3,3,0,0,1-1.54.35,3.19,3.19,0,0,1-2.54-1.22,4.72,4.72,0,0,1-1-3.14,5.38,5.38,0,0,1,1-3.48A3.31,3.31,0,0,1,62.54,84a2.79,2.79,0,0,1,1.4.34m.55,6.16a3.11,3.11,0,0,0,.5-1.85,2.86,2.86,0,0,0-.8-2.27A1.75,1.75,0,0,0,63.05,86a1.58,1.58,0,0,0-1.45.75,4,4,0,0,0,0,3.77,1.6,1.6,0,0,0,1.43.72,1.68,1.68,0,0,0,1.46-.71"/><path class="cls-3" d="M74.9,84.38a3.46,3.46,0,0,1,1.49,1.28,4.05,4.05,0,0,1,.69,1.78,11.22,11.22,0,0,1,.08,1.72h-6.3A2.09,2.09,0,0,0,71.77,91a2.25,2.25,0,0,0,1.24.33,1.94,1.94,0,0,0,1.26-.4,1.83,1.83,0,0,0,.46-.6H77a2.81,2.81,0,0,1-.84,1.57A4.2,4.2,0,0,1,73,93.14a4.7,4.7,0,0,1-3-1.07,4.19,4.19,0,0,1-1.32-3.46,4.7,4.7,0,0,1,1.19-3.44A4.15,4.15,0,0,1,72.87,84a4.91,4.91,0,0,1,2,.41m-3.38,2a2.32,2.32,0,0,0-.6,1.34h3.89a1.89,1.89,0,0,0-.6-1.37,2,2,0,0,0-1.34-.46,1.79,1.79,0,0,0-1.35.49"/><path class="cls-3" d="M90.58,81.16h3.51V92.84H91.82v-7.9c0-.23,0-.54,0-1s0-.73,0-.95l-2.22,9.8H87.25L85.05,83c0,.22,0,.54,0,.95s0,.72,0,1v7.9H82.79V81.16h3.55l2.13,9.19Z"/><path class="cls-3" d="M101.8,84.38a3.46,3.46,0,0,1,1.49,1.28,4.05,4.05,0,0,1,.69,1.78,11.22,11.22,0,0,1,.08,1.72h-6.3A2.09,2.09,0,0,0,98.67,91a2.25,2.25,0,0,0,1.24.33,1.94,1.94,0,0,0,1.26-.4,1.83,1.83,0,0,0,.46-.6h2.31a2.81,2.81,0,0,1-.84,1.57,4.2,4.2,0,0,1-3.25,1.26,4.7,4.7,0,0,1-3-1.07,4.19,4.19,0,0,1-1.32-3.46,4.7,4.7,0,0,1,1.19-3.44A4.15,4.15,0,0,1,99.77,84a4.91,4.91,0,0,1,2,.41m-3.38,2a2.32,2.32,0,0,0-.6,1.34h3.89a1.89,1.89,0,0,0-.6-1.37,2,2,0,0,0-1.34-.46,1.79,1.79,0,0,0-1.35.49"/><path class="cls-3" d="M109.78,84.34a2.68,2.68,0,0,1,1,1V81.18h2.29V92.84h-2.19V91.65a3.18,3.18,0,0,1-1.11,1.11,3,3,0,0,1-1.53.35,3.23,3.23,0,0,1-2.55-1.22,4.72,4.72,0,0,1-1-3.14,5.38,5.38,0,0,1,1-3.48A3.31,3.31,0,0,1,108.39,84a2.78,2.78,0,0,1,1.39.34m.55,6.16a3.11,3.11,0,0,0,.5-1.85,2.82,2.82,0,0,0-.8-2.27,1.72,1.72,0,0,0-1.14-.41,1.58,1.58,0,0,0-1.45.75,3.47,3.47,0,0,0-.47,1.86,3.38,3.38,0,0,0,.48,1.91,1.59,1.59,0,0,0,1.43.72,1.66,1.66,0,0,0,1.45-.71"/><path class="cls-3" d="M120.74,84.38a3.48,3.48,0,0,1,1.5,1.28,4.31,4.31,0,0,1,.69,1.78,11.48,11.48,0,0,1,.07,1.72h-6.29a2.06,2.06,0,0,0,.9,1.82,2.28,2.28,0,0,0,1.25.33,1.93,1.93,0,0,0,1.25-.4,1.85,1.85,0,0,0,.47-.6h2.3a2.81,2.81,0,0,1-.84,1.57,4.18,4.18,0,0,1-3.25,1.26,4.7,4.7,0,0,1-3-1.07,4.19,4.19,0,0,1-1.32-3.46,4.7,4.7,0,0,1,1.19-3.44,4.18,4.18,0,0,1,3.09-1.2,4.91,4.91,0,0,1,2,.41m-3.38,2a2.38,2.38,0,0,0-.6,1.34h3.89a1.89,1.89,0,0,0-.6-1.37,2,2,0,0,0-1.34-.46,1.79,1.79,0,0,0-1.35.49"/><rect class="cls-3" x="124.19" y="81.16" width="2.26" height="11.68"/><rect class="cls-3" x="128.7" y="81.16" width="2.26" height="11.68"/><path class="cls-3" d="M137.08,80.67,134.67,83H133l1.52-2.37Zm-3.89,3.53h2.29v8.64h-2.29Z"/><path class="cls-3" d="M144.64,84.7a2.88,2.88,0,0,1,.85,2.33v5.81h-2.32V87.59a2.42,2.42,0,0,0-.18-1,1.27,1.27,0,0,0-1.26-.66,1.55,1.55,0,0,0-1.56,1,3.3,3.3,0,0,0-.22,1.32v4.67h-2.26V84.22h2.18v1.26a4,4,0,0,1,.83-1,2.83,2.83,0,0,1,1.76-.52,3.3,3.3,0,0,1,2.18.7"/><path class="cls-4" d="M36.92,99.6A17.84,17.84,0,1,0,19.29,81.77,17.77,17.77,0,0,0,36.92,99.6"/><path class="cls-5" d="M36.92,98.79a17,17,0,1,0-16.83-17,16.95,16.95,0,0,0,16.83,17"/><path class="cls-6" d="M36.88,93.68V82H28.65a23.08,23.08,0,0,0,8.23,11.7"/><path class="cls-7" d="M36.88,92.9c-2.77-1.86-6-6.13-7.61-10.92h7.61Z"/><path class="cls-8" d="M28,78.82c-2.07,1.11-2.62,4.44-4.36,5.2.69.84,1.32,1.8,2,2.64,1.89-.82,2.17-2.72,3.36-3.69a17,17,0,0,1-1-4.15"/><path class="cls-9" d="M25.65,86.7l0,0c-.36-.44-.72-.91-1.06-1.37s-.63-.86-1-1.26l0,0,0,0a5.32,5.32,0,0,0,2-2.38A6.84,6.84,0,0,1,28,78.79l.05,0v0a16.74,16.74,0,0,0,1,4.14v0h0a5.48,5.48,0,0,0-1.13,1.45,4.9,4.9,0,0,1-2.24,2.24Zm-2-2.66c.33.39.64.81.94,1.22s.68.93,1,1.36a4.89,4.89,0,0,0,2.18-2.21A6,6,0,0,1,29,83a16.91,16.91,0,0,1-1-4.08,6.83,6.83,0,0,0-2.29,2.77A5.56,5.56,0,0,1,23.69,84Z"/><path class="cls-10" d="M25.66,86.66C27.5,85.91,28,83.63,29,83c.24.63.43,1.07.68,1.7-1.09.9-1.36,2.56-3.05,3.22C26.32,87.45,25.66,86.66,25.66,86.66Z"/><path class="cls-9" d="M26.63,87.93v0c-.33-.43-1-1.22-1-1.23l0,0h0a5.21,5.21,0,0,0,2.28-2.34A4.42,4.42,0,0,1,29,82.94l0,0,0,0c.15.39.28.71.42,1s.17.42.27.65v0h0a5.27,5.27,0,0,0-1,1.29,4.29,4.29,0,0,1-2,1.94Zm-.91-1.26c.13.16.65.8.94,1.18a4.27,4.27,0,0,0,2-1.91,5.38,5.38,0,0,1,1-1.28c-.09-.23-.18-.43-.26-.63s-.26-.63-.4-1a4.35,4.35,0,0,0-1,1.3A5.28,5.28,0,0,1,25.72,86.67Z"/><path class="cls-11" d="M26.58,89.12a1.32,1.32,0,0,1,.69-.43c.33.58-.05.67-.18.72s-.39-.09-.51-.29"/><path class="cls-11" d="M27.27,88.69c-.51.14-.88.51-.84.9-.51-.48-1.07-.88-1.57-1.37A3.15,3.15,0,0,1,26,87.14C26.45,87.66,27.18,88.5,27.27,88.69Z"/><path class="cls-9" d="M26.43,89.63h0c-.23-.22-.48-.42-.72-.62s-.58-.49-.85-.76a0,0,0,0,1,0,0A3.27,3.27,0,0,1,26,87.1h0c.16.21.37.47.58.72a8.26,8.26,0,0,1,.65.84,0,0,0,0,1,0,0l0,0c-.51.14-.85.51-.81.87,0,0,0,0,0,0Zm-1.52-1.42c.26.26.55.5.83.73s.44.37.65.57a1,1,0,0,1,.83-.84c-.09-.14-.35-.46-.63-.8L26,87.18A3.12,3.12,0,0,0,24.91,88.21Z"/><path class="cls-10" d="M26.05,87.14c-.42-.54-.86-1.06-1.28-1.6a4.09,4.09,0,0,0-1.45,1.3c.49.48,1.05.9,1.54,1.38a3.27,3.27,0,0,1,1.19-1.08"/><path class="cls-9" d="M24.87,88.27l0,0c-.25-.24-.52-.47-.78-.69s-.52-.45-.77-.69l0,0,0,0a4.29,4.29,0,0,1,1.47-1.32h0l0,0,.66.83.61.78,0,0,0,0a3.33,3.33,0,0,0-1.17,1.07Zm-1.51-1.44c.24.23.5.45.75.67s.51.43.75.66a3.27,3.27,0,0,1,1.13-1c-.19-.25-.39-.5-.59-.74l-.64-.81A4.26,4.26,0,0,0,23.36,86.83Z"/><path class="cls-8" d="M22.82,83A2.74,2.74,0,0,0,21,84.7c.76.7,1.52,1.42,2.29,2.14a3.61,3.61,0,0,1,1.45-1.3Z"/><path class="cls-9" d="M23.32,86.89l0,0L21,84.72h0v0a2.75,2.75,0,0,1,1.82-1.75h0v0l1.95,2.57,0,0,0,0a3.59,3.59,0,0,0-1.44,1.29Zm-2.25-2.2,2.24,2.09a3.8,3.8,0,0,1,1.41-1.26c-.19-.24-1.3-1.72-1.91-2.5A2.62,2.62,0,0,0,21.07,84.69Z"/><path class="cls-11" d="M29.7,84.67c-1.13,1-1.41,2.57-3.05,3.22a5.19,5.19,0,0,1,.69.93c.13.3.05.58-.33.6a.68.68,0,0,1-.43-.29.66.66,0,0,0-.15.46c1.37.09,2.91-1.46,4.05-3.38-.27-.49-.52-1-.78-1.54"/><path class="cls-9" d="M26.55,89.63H26.4v0a.64.64,0,0,1,.15-.49l0,0,0,0a.7.7,0,0,0,.41.29.36.36,0,0,0,.31-.16.44.44,0,0,0,0-.4,2.45,2.45,0,0,0-.48-.67l-.2-.25,0,0h0a4.36,4.36,0,0,0,2-1.89,5.85,5.85,0,0,1,1.06-1.33l0,0,0,0c.06.14.13.27.2.41.18.38.38.77.57,1.13v0C29.25,88.36,27.76,89.63,26.55,89.63Zm-.08-.07h.08a3.2,3.2,0,0,0,2-1,10.68,10.68,0,0,0,1.86-2.37c-.19-.36-.38-.75-.57-1.12l-.18-.37a6.53,6.53,0,0,0-1,1.29,4.38,4.38,0,0,1-2,1.89l.18.21a3.12,3.12,0,0,1,.49.69.52.52,0,0,1,0,.47.44.44,0,0,1-.36.19h0a.67.67,0,0,1-.44-.28A.61.61,0,0,0,26.47,89.56Z"/><path class="cls-8" d="M45.81,78.82c2.07,1.11,2.62,4.44,4.36,5.2-.69.84-1.32,1.8-2,2.64C46.26,85.84,46,83.94,44.79,83a17,17,0,0,0,1-4.15"/><path class="cls-9" d="M48.16,86.7h0a4.92,4.92,0,0,1-2.23-2.24A5.69,5.69,0,0,0,44.77,83h0v0a17.09,17.09,0,0,0,1-4.14v0l0,0a7,7,0,0,1,2.36,2.82,5.3,5.3,0,0,0,2,2.38l0,0,0,0c-.33.4-.65.83-1,1.25s-.7.94-1.07,1.38ZM44.83,83A5.82,5.82,0,0,1,46,84.41a4.89,4.89,0,0,0,2.18,2.21c.36-.43.7-.9,1-1.36s.61-.83.93-1.22a5.61,5.61,0,0,1-2-2.39,6.91,6.91,0,0,0-2.29-2.77A16.52,16.52,0,0,1,44.83,83Z"/><path class="cls-10" d="M48.15,86.66c-1.85-.75-2.37-3-3.36-3.69-.24.63-.43,1.07-.69,1.7,1.1.9,1.37,2.56,3.06,3.22C47.49,87.45,48.15,86.66,48.15,86.66Z"/><path class="cls-9" d="M47.17,87.93h0a4.24,4.24,0,0,1-2-1.94,5.27,5.27,0,0,0-1-1.29h0v0c.1-.23.18-.44.27-.64s.27-.66.42-1.05v0l0,0a4.42,4.42,0,0,1,1.07,1.35,5.16,5.16,0,0,0,2.28,2.34h.05l0,0s-.66.8-1,1.23Zm-3-3.27a5.64,5.64,0,0,1,1,1.28,4.23,4.23,0,0,0,2,1.91c.29-.38.81-1,.94-1.18a5.28,5.28,0,0,1-2.27-2.34,4.69,4.69,0,0,0-1-1.3c-.14.37-.27.68-.41,1Z"/><path class="cls-11" d="M47.23,89.12a1.36,1.36,0,0,0-.69-.43c-.33.58.05.67.18.72s.39-.09.51-.29"/><path class="cls-11" d="M46.54,88.69c.51.14.88.51.83.9.51-.48,1.08-.88,1.58-1.37a3.11,3.11,0,0,0-1.19-1.08C47.36,87.66,46.63,88.5,46.54,88.69Z"/><path class="cls-9" d="M47.37,89.63h0s0,0,0,0c0-.36-.3-.73-.81-.87l0,0a0,0,0,0,1,0,0,7.24,7.24,0,0,1,.65-.84c.2-.25.42-.51.58-.72h0A3.18,3.18,0,0,1,49,88.2a0,0,0,0,1,0,0c-.27.27-.57.52-.86.76s-.48.4-.71.62Zm-.78-1a1,1,0,0,1,.82.84c.22-.2.44-.38.66-.56s.57-.48.83-.74a3.13,3.13,0,0,0-1.13-1c-.15.2-.36.45-.55.69S46.68,88.53,46.59,88.67Z"/><path class="cls-10" d="M47.76,87.14c.42-.54.86-1.06,1.27-1.6a4.12,4.12,0,0,1,1.46,1.3c-.49.48-1.05.9-1.54,1.38a3.36,3.36,0,0,0-1.19-1.08"/><path class="cls-9" d="M48.94,88.27l0,0a3.16,3.16,0,0,0-1.17-1.07l0,0,0,0,.62-.78.66-.83v0h0a4.39,4.39,0,0,1,1.47,1.32l0,0,0,0c-.24.24-.51.47-.77.69s-.52.45-.77.69Zm-1.13-1.14a3.31,3.31,0,0,1,1.14,1c.24-.23.5-.45.75-.66s.5-.44.74-.67A4.16,4.16,0,0,0,49,85.58l-.63.8Z"/><path class="cls-8" d="M51,83a2.73,2.73,0,0,1,1.8,1.73c-.76.7-1.53,1.42-2.29,2.14A3.63,3.63,0,0,0,49,85.54Z"/><path class="cls-9" d="M50.48,86.89l0,0A3.65,3.65,0,0,0,49,85.57l0,0,0,0S50.3,83.8,51,83l0,0h0a2.75,2.75,0,0,1,1.82,1.75v0h0l-2.3,2.14Zm-1.39-1.37a3.78,3.78,0,0,1,1.4,1.26l2.25-2.09A2.64,2.64,0,0,0,51,83Z"/><path class="cls-12" d="M44.1,84.67c1.13,1,1.42,2.57,3.06,3.22a5.19,5.19,0,0,0-.69.93c-.13.3,0,.58.32.6a.73.73,0,0,0,.44-.29.6.6,0,0,1,.14.46c-1.36.09-2.91-1.46-4-3.38.26-.49.52-1,.77-1.54"/><path class="cls-9" d="M47.26,89.63c-1.22,0-2.7-1.27-4-3.4v0c.2-.36.39-.75.58-1.13.07-.14.14-.27.2-.41l0,0,0,0A6.14,6.14,0,0,1,45.19,86a4.38,4.38,0,0,0,2,1.89h0l0,0-.21.25a3,3,0,0,0-.48.67.43.43,0,0,0,0,.4.36.36,0,0,0,.31.16.65.65,0,0,0,.4-.29l0,0,0,0a.69.69,0,0,1,.15.49v0h-.15Zm-3.89-3.42a10.68,10.68,0,0,0,1.86,2.37,3.07,3.07,0,0,0,2.11,1,.61.61,0,0,0-.11-.38.67.67,0,0,1-.44.28.41.41,0,0,1-.36-.19.49.49,0,0,1,0-.47,2.82,2.82,0,0,1,.49-.69l.17-.21a4.31,4.31,0,0,1-2-1.89,6.53,6.53,0,0,0-1-1.29c-.06.12-.12.25-.19.37C43.75,85.46,43.56,85.85,43.37,86.21Z"/><polygon class="cls-13" points="31.51 84.44 31.51 84.66 32.95 87.56 32.92 87.36 31.51 84.44"/><g class="cls-14"><rect class="cls-3" x="31.51" y="83.61" width="0.43" height="3.75"/><rect class="cls-3" x="31.94" y="83.61" width="0.05" height="3.75"/><rect class="cls-15" x="31.99" y="83.61" width="0.05" height="3.75"/><rect class="cls-16" x="32.05" y="83.61" width="0.05" height="3.75"/><rect class="cls-17" x="32.1" y="83.61" width="0.05" height="3.75"/><rect class="cls-18" x="32.15" y="83.61" width="0.05" height="3.75"/><rect class="cls-19" x="32.21" y="83.61" width="0.05" height="3.75"/><rect class="cls-20" x="32.26" y="83.61" width="0.05" height="3.75"/><rect class="cls-21" x="32.31" y="83.61" width="0.05" height="3.75"/><rect class="cls-22" x="32.37" y="83.61" width="0.05" height="3.75"/><rect class="cls-23" x="32.42" y="83.61" width="0.05" height="3.75"/><rect class="cls-24" x="32.48" y="83.61" width="0.05" height="3.75"/><rect class="cls-25" x="32.53" y="83.61" width="0.05" height="3.75"/><rect class="cls-26" x="32.58" y="83.61" width="0.05" height="3.75"/><rect class="cls-27" x="32.64" y="83.61" width="0.05" height="3.75"/><rect class="cls-28" x="32.69" y="83.61" width="0.05" height="3.75"/><rect class="cls-29" x="32.74" y="83.61" width="0.05" height="3.75"/><rect class="cls-30" x="32.8" y="83.61" width="0.05" height="3.75"/><rect class="cls-31" x="32.85" y="83.61" width="0.05" height="3.75"/><rect class="cls-32" x="32.9" y="83.61" width="0.05" height="3.75"/><rect class="cls-33" x="32.96" y="83.61" width="0.05" height="3.75"/><rect class="cls-34" x="33.01" y="83.61" width="0.05" height="3.75"/><rect class="cls-35" x="33.07" y="83.61" width="0.05" height="3.75"/><rect class="cls-36" x="33.12" y="83.61" width="0.05" height="3.75"/><rect class="cls-37" x="33.17" y="83.61" width="0.05" height="3.75"/><rect class="cls-38" x="33.23" y="83.61" width="0.05" height="3.75"/><rect class="cls-39" x="33.28" y="83.61" width="0.05" height="3.75"/><rect class="cls-40" x="33.33" y="83.61" width="0.05" height="3.75"/><rect class="cls-41" x="33.39" y="83.61" width="0.05" height="3.75"/><rect class="cls-42" x="33.44" y="83.61" width="0.05" height="3.75"/><rect class="cls-43" x="33.5" y="83.61" width="0.05" height="3.75"/><rect class="cls-44" x="33.55" y="83.61" width="0.05" height="3.75"/><rect class="cls-44" x="33.6" y="83.61" width="0.03" height="3.75"/><rect class="cls-45" x="33.63" y="83.61" width="0.03" height="3.75"/><rect class="cls-46" x="33.66" y="83.61" width="0.03" height="3.75"/><rect class="cls-47" x="33.69" y="83.61" width="0.03" height="3.75"/><rect class="cls-48" x="33.73" y="83.61" width="0.03" height="3.75"/><rect class="cls-49" x="33.76" y="83.61" width="0.03" height="3.75"/><rect class="cls-50" x="33.79" y="83.61" width="0.03" height="3.75"/><rect class="cls-51" x="33.82" y="83.61" width="0.03" height="3.75"/><rect class="cls-52" x="33.85" y="83.61" width="0.03" height="3.75"/><rect class="cls-53" x="33.88" y="83.61" width="0.03" height="3.75"/><rect class="cls-54" x="33.91" y="83.61" width="0.03" height="3.75"/><rect class="cls-55" x="33.94" y="83.61" width="0.03" height="3.75"/><rect class="cls-56" x="33.97" y="83.61" width="0.03" height="3.75"/><rect class="cls-57" x="34" y="83.61" width="0.03" height="3.75"/><rect class="cls-58" x="34.03" y="83.61" width="0.03" height="3.75"/><rect class="cls-59" x="34.06" y="83.61" width="0.03" height="3.75"/><rect class="cls-60" x="34.09" y="83.61" width="0.03" height="3.75"/><rect class="cls-61" x="34.12" y="83.61" width="0.03" height="3.75"/><rect class="cls-62" x="34.15" y="83.61" width="0.03" height="3.75"/><rect class="cls-63" x="34.19" y="83.61" width="0.03" height="3.75"/><rect class="cls-64" x="34.22" y="83.61" width="0.03" height="3.75"/><rect class="cls-65" x="34.25" y="83.61" width="0.03" height="3.75"/><rect class="cls-66" x="34.28" y="83.61" width="0.03" height="3.75"/><rect class="cls-67" x="34.31" y="83.61" width="0.03" height="3.75"/><rect class="cls-67" x="34.34" y="83.61" width="0.01" height="3.75"/><rect class="cls-67" x="34.34" y="83.61" width="0.01" height="3.75"/><rect class="cls-68" x="34.35" y="83.61" width="0.01" height="3.75"/><rect class="cls-69" x="34.36" y="83.61" width="0.01" height="3.75"/><rect class="cls-70" x="34.37" y="83.61" width="0.01" height="3.75"/><rect class="cls-71" x="34.37" y="83.61" width="0.01" height="3.75"/><rect class="cls-72" x="34.38" y="83.61" width="0.01" height="3.75"/><rect class="cls-73" x="34.38" y="83.61" width="0.01" height="3.75"/><rect class="cls-74" x="34.39" y="83.61" width="0.01" height="3.75"/><rect class="cls-74" x="34.4" y="83.61" width="0.01" height="3.75"/><rect class="cls-75" x="34.4" y="83.61" width="0.01" height="3.75"/><rect class="cls-76" x="34.41" y="83.61" width="0.01" height="3.75"/><rect class="cls-77" x="34.42" y="83.61" width="0.01" height="3.75"/><rect class="cls-78" x="34.42" y="83.61" width="0.01" height="3.75"/><rect class="cls-79" x="34.43" y="83.61" width="0.01" height="3.75"/><rect class="cls-80" x="34.44" y="83.61" width="0.01" height="3.75"/><rect class="cls-81" x="34.44" y="83.61" width="0.01" height="3.75"/><rect class="cls-82" x="34.45" y="83.61" width="0.01" height="3.75"/><rect class="cls-83" x="34.46" y="83.61" width="0.01" height="3.75"/><rect class="cls-84" x="34.46" y="83.61" width="0.01" height="3.75"/><rect class="cls-85" x="34.47" y="83.61" width="0.01" height="3.75"/><rect class="cls-86" x="34.48" y="83.61" width="0.01" height="3.75"/><rect class="cls-87" x="34.48" y="83.61" width="0.01" height="3.75"/><rect class="cls-88" x="34.49" y="83.61" width="0.01" height="3.75"/><rect class="cls-89" x="34.5" y="83.61" width="0.01" height="3.75"/><rect class="cls-90" x="34.5" y="83.61" width="0.01" height="3.75"/><rect class="cls-91" x="34.51" y="83.61" width="0.01" height="3.75"/><rect class="cls-92" x="34.52" y="83.61" width="0.01" height="3.75"/><rect class="cls-93" x="34.52" y="83.61" width="0.01" height="3.75"/><rect class="cls-94" x="34.53" y="83.61" width="0.01" height="3.75"/><rect class="cls-95" x="34.54" y="83.61" width="0.01" height="3.75"/><rect class="cls-96" x="34.54" y="83.61" width="0.01" height="3.75"/><rect class="cls-97" x="34.55" y="83.61" width="0.01" height="3.75"/><rect class="cls-98" x="34.55" y="83.61" width="0.01" height="3.75"/><rect class="cls-99" x="34.56" y="83.61" width="0.01" height="3.75"/><rect class="cls-100" x="34.57" y="83.61" width="0.01" height="3.75"/><rect class="cls-101" x="34.57" y="83.61" width="0.01" height="3.75"/><rect class="cls-102" x="34.58" y="83.61" width="0.01" height="3.75"/><rect class="cls-103" x="34.59" y="83.61" width="0.01" height="3.75"/><rect class="cls-104" x="34.59" y="83.61" width="0.01" height="3.75"/><rect class="cls-105" x="34.6" y="83.61" width="0.01" height="3.75"/><path class="cls-105" d="M34.61,87.36v0Z"/></g><g class="cls-106"><polygon class="cls-3" points="33.24 83.76 34.92 86.67 33.24 86.67 33.24 83.76"/><polygon class="cls-3" points="33.24 83.69 34.95 86.67 34.92 86.67 33.24 83.76 33.24 83.69"/><polygon class="cls-15" points="33.24 83.62 34.99 86.67 34.95 86.67 33.24 83.69 33.24 83.62"/><polygon class="cls-16" points="33.24 83.56 35.03 86.67 34.99 86.67 33.24 83.62 33.24 83.56"/><polygon class="cls-17" points="33.24 83.49 35.07 86.67 35.03 86.67 33.24 83.56 33.24 83.49"/><polygon class="cls-18" points="33.24 83.42 35.11 86.67 35.07 86.67 33.24 83.49 33.24 83.42"/><polygon class="cls-19" points="33.24 83.36 35.15 86.67 35.11 86.67 33.24 83.42 33.24 83.36"/><polygon class="cls-20" points="33.24 83.29 35.19 86.67 35.15 86.67 33.24 83.36 33.24 83.29"/><polygon class="cls-21" points="33.24 83.22 35.23 86.67 35.19 86.67 33.24 83.29 33.24 83.22"/><polygon class="cls-22" points="33.25 83.19 35.26 86.67 35.23 86.67 33.24 83.22 33.24 83.19 33.25 83.19"/><polygon class="cls-23" points="33.29 83.19 35.3 86.67 35.26 86.67 33.25 83.19 33.29 83.19"/><polygon class="cls-24" points="33.33 83.19 35.34 86.67 35.3 86.67 33.29 83.19 33.33 83.19"/><polygon class="cls-25" points="33.37 83.19 35.38 86.67 35.34 86.67 33.33 83.19 33.37 83.19"/><polygon class="cls-26" points="33.41 83.19 35.42 86.67 35.38 86.67 33.37 83.19 33.41 83.19"/><polygon class="cls-27" points="33.45 83.19 35.46 86.67 35.42 86.67 33.41 83.19 33.45 83.19"/><polygon class="cls-28" points="33.49 83.19 35.5 86.67 35.46 86.67 33.45 83.19 33.49 83.19"/><polygon class="cls-29" points="33.52 83.19 35.53 86.67 35.5 86.67 33.49 83.19 33.52 83.19"/><polygon class="cls-30" points="33.56 83.19 35.57 86.67 35.53 86.67 33.52 83.19 33.56 83.19"/><polygon class="cls-31" points="33.6 83.19 35.61 86.67 35.57 86.67 33.56 83.19 33.6 83.19"/><polygon class="cls-32" points="33.64 83.19 35.65 86.67 35.61 86.67 33.6 83.19 33.64 83.19"/><polygon class="cls-33" points="33.68 83.19 35.69 86.67 35.65 86.67 33.64 83.19 33.68 83.19"/><polygon class="cls-34" points="33.72 83.19 35.73 86.67 35.69 86.67 33.68 83.19 33.72 83.19"/><polygon class="cls-35" points="33.76 83.19 35.77 86.67 35.73 86.67 33.72 83.19 33.76 83.19"/><polygon class="cls-36" points="33.79 83.19 35.8 86.67 35.77 86.67 33.76 83.19 33.79 83.19"/><polygon class="cls-37" points="33.83 83.19 35.84 86.67 35.8 86.67 33.79 83.19 33.83 83.19"/><polygon class="cls-38" points="33.87 83.19 35.88 86.67 35.84 86.67 33.83 83.19 33.87 83.19"/><polygon class="cls-39" points="33.91 83.19 35.92 86.67 35.88 86.67 33.87 83.19 33.91 83.19"/><polygon class="cls-40" points="33.95 83.19 35.96 86.67 35.92 86.67 33.91 83.19 33.95 83.19"/><polygon class="cls-41" points="33.99 83.19 36 86.67 35.96 86.67 33.95 83.19 33.99 83.19"/><polygon class="cls-42" points="34.03 83.19 36.04 86.67 36 86.67 33.99 83.19 34.03 83.19"/><polygon class="cls-43" points="34.06 83.19 36.07 86.67 36.04 86.67 34.03 83.19 34.06 83.19"/><polygon class="cls-44" points="34.1 83.19 36.11 86.67 36.07 86.67 34.06 83.19 34.1 83.19"/><polygon class="cls-44" points="34.13 83.19 36.13 86.67 36.11 86.67 34.1 83.19 34.13 83.19"/><polygon class="cls-45" points="36.16 86.67 34.15 83.19 34.13 83.19 36.13 86.67 36.16 86.67"/><polygon class="cls-46" points="34.17 83.19 36.18 86.66 36.17 86.67 36.16 86.67 34.15 83.19 34.17 83.19"/><polygon class="cls-47" points="34.19 83.19 36.19 86.65 36.18 86.66 34.17 83.19 34.19 83.19"/><polygon class="cls-48" points="34.21 83.19 36.21 86.64 36.19 86.65 34.19 83.19 34.21 83.19"/><polygon class="cls-49" points="34.24 83.19 36.23 86.63 36.21 86.64 34.21 83.19 34.24 83.19"/><polygon class="cls-50" points="34.26 83.19 36.24 86.62 36.23 86.63 34.24 83.19 34.26 83.19"/><polygon class="cls-51" points="34.28 83.19 36.26 86.62 36.24 86.62 34.26 83.19 34.28 83.19"/><polygon class="cls-52" points="34.3 83.19 36.28 86.61 36.26 86.62 34.28 83.19 34.3 83.19"/><polygon class="cls-53" points="34.32 83.19 36.29 86.6 36.28 86.61 34.3 83.19 34.32 83.19"/><polygon class="cls-54" points="34.35 83.19 36.3 86.57 36.3 86.59 36.29 86.6 34.32 83.19 34.35 83.19"/><polygon class="cls-55" points="34.37 83.19 36.3 86.53 36.3 86.57 34.35 83.19 34.37 83.19"/><polygon class="cls-56" points="34.39 83.19 36.3 86.5 36.3 86.53 34.37 83.19 34.39 83.19"/><polygon class="cls-57" points="34.41 83.19 36.3 86.46 36.3 86.5 34.39 83.19 34.41 83.19"/><polygon class="cls-58" points="34.44 83.19 36.3 86.42 36.3 86.46 34.41 83.19 34.44 83.19"/><polygon class="cls-59" points="34.46 83.19 36.3 86.38 36.3 86.42 34.44 83.19 34.46 83.19"/><polygon class="cls-60" points="34.48 83.19 36.3 86.34 36.3 86.38 34.46 83.19 34.48 83.19"/><polygon class="cls-61" points="34.5 83.19 36.3 86.31 36.3 86.34 34.48 83.19 34.5 83.19"/><polygon class="cls-62" points="34.52 83.19 36.3 86.27 36.3 86.31 34.5 83.19 34.52 83.19"/><polygon class="cls-63" points="34.55 83.19 36.3 86.23 36.3 86.27 34.52 83.19 34.55 83.19"/><polygon class="cls-64" points="34.57 83.19 36.3 86.19 36.3 86.23 34.55 83.19 34.57 83.19"/><polygon class="cls-65" points="34.59 83.19 36.3 86.15 36.3 86.19 34.57 83.19 34.59 83.19"/><polygon class="cls-66" points="34.61 83.19 36.3 86.11 36.3 86.15 34.59 83.19 34.61 83.19"/><polygon class="cls-67" points="34.63 83.19 36.3 86.08 36.3 86.11 34.61 83.19 34.63 83.19"/><polygon class="cls-67" points="34.64 83.19 36.3 86.07 36.3 86.08 34.63 83.19 34.64 83.19"/><polygon class="cls-67" points="36.3 86.06 34.64 83.19 34.64 83.19 36.3 86.07 36.3 86.06"/><polygon class="cls-68" points="34.65 83.19 36.3 86.05 36.3 86.06 34.64 83.19 34.65 83.19"/><polygon class="cls-69" points="34.65 83.19 36.3 86.04 36.3 86.05 34.65 83.19 34.65 83.19"/><polygon class="cls-70" points="34.66 83.19 36.3 86.03 36.3 86.04 34.65 83.19 34.66 83.19"/><polygon class="cls-71" points="34.66 83.19 36.3 86.03 36.3 86.03 34.66 83.19 34.66 83.19"/><polygon class="cls-72" points="34.67 83.19 36.3 86.02 36.3 86.03 34.66 83.19 34.67 83.19"/><polygon class="cls-73" points="36.3 86.01 34.67 83.19 34.67 83.19 36.3 86.02 36.3 86.01"/><polygon class="cls-74" points="34.68 83.19 36.3 86 36.3 86.01 34.67 83.19 34.68 83.19"/><polygon class="cls-74" points="34.68 83.19 36.3 85.99 36.3 86 34.68 83.19 34.68 83.19"/><polygon class="cls-75" points="34.69 83.19 36.3 85.99 36.3 85.99 34.68 83.19 34.69 83.19"/><polygon class="cls-76" points="34.69 83.19 36.3 85.98 36.3 85.99 34.69 83.19 34.69 83.19"/><polygon class="cls-77" points="34.69 83.19 36.3 85.97 36.3 85.98 34.69 83.19 34.69 83.19"/><polygon class="cls-78" points="34.7 83.19 36.3 85.96 36.3 85.97 34.69 83.19 34.7 83.19"/><polygon class="cls-79" points="34.7 83.19 36.3 85.95 36.3 85.96 34.7 83.19 34.7 83.19"/><polygon class="cls-80" points="34.71 83.19 36.3 85.95 36.3 85.95 34.7 83.19 34.71 83.19"/><polygon class="cls-81" points="34.71 83.19 36.3 85.94 36.3 85.95 34.71 83.19 34.71 83.19"/><polygon class="cls-82" points="34.72 83.19 36.3 85.93 36.3 85.94 34.71 83.19 34.72 83.19"/><polygon class="cls-83" points="34.72 83.19 36.3 85.92 36.3 85.93 34.72 83.19 34.72 83.19"/><polygon class="cls-84" points="34.73 83.19 36.3 85.91 36.3 85.92 34.72 83.19 34.73 83.19"/><polygon class="cls-85" points="34.73 83.19 36.3 85.91 36.3 85.91 34.73 83.19 34.73 83.19"/><polygon class="cls-86" points="34.74 83.19 36.3 85.9 36.3 85.91 34.73 83.19 34.74 83.19"/><polygon class="cls-87" points="34.74 83.19 36.3 85.89 36.3 85.9 34.74 83.19 34.74 83.19"/><polygon class="cls-88" points="36.3 85.88 34.75 83.19 34.74 83.19 36.3 85.89 36.3 85.88"/><polygon class="cls-89" points="36.3 85.87 34.75 83.19 34.75 83.19 36.3 85.88 36.3 85.87"/><polygon class="cls-90" points="34.76 83.19 36.3 85.86 36.3 85.87 34.75 83.19 34.76 83.19"/><polygon class="cls-91" points="34.76 83.19 36.3 85.86 36.3 85.86 34.76 83.19 34.76 83.19"/><polygon class="cls-92" points="34.77 83.19 36.3 85.85 36.3 85.86 34.76 83.19 34.77 83.19"/><polygon class="cls-93" points="34.77 83.19 36.3 85.84 36.3 85.85 34.77 83.19 34.77 83.19"/><polygon class="cls-94" points="34.77 83.19 36.3 85.83 36.3 85.84 34.77 83.19 34.77 83.19"/><polygon class="cls-95" points="34.78 83.19 36.3 85.82 36.3 85.83 34.77 83.19 34.78 83.19"/><polygon class="cls-96" points="34.78 83.19 36.3 85.82 36.3 85.82 34.78 83.19 34.78 83.19"/><polygon class="cls-97" points="36.3 85.81 34.79 83.19 34.78 83.19 36.3 85.82 36.3 85.81"/><polygon class="cls-98" points="34.79 83.19 36.3 85.8 36.3 85.81 34.79 83.19 34.79 83.19"/><polygon class="cls-99" points="34.8 83.19 36.3 85.79 36.3 85.8 34.79 83.19 34.8 83.19"/><polygon class="cls-100" points="34.8 83.19 36.3 85.78 36.3 85.79 34.8 83.19 34.8 83.19"/><polygon class="cls-101" points="34.81 83.19 36.3 85.78 36.3 85.78 34.8 83.19 34.81 83.19"/><polygon class="cls-102" points="34.81 83.19 36.3 85.77 36.3 85.78 34.81 83.19 34.81 83.19"/><polygon class="cls-103" points="34.82 83.19 36.3 85.76 36.3 85.77 34.81 83.19 34.82 83.19"/><polygon class="cls-104" points="34.82 83.19 36.3 85.75 36.3 85.76 34.82 83.19 34.82 83.19"/><polygon class="cls-105" points="34.83 83.19 36.3 85.74 36.3 85.75 34.82 83.19 34.83 83.19"/><polygon class="cls-105" points="36.3 85.74 34.83 83.19 36.3 83.19 36.3 85.74"/></g><g class="cls-107"><rect class="cls-108" x="32.92" y="85.97" width="0.17" height="1.6"/><rect class="cls-108" x="33.08" y="85.97" width="0.06" height="1.6"/><rect class="cls-40" x="33.14" y="85.97" width="0.05" height="1.6"/><rect class="cls-41" x="33.19" y="85.97" width="0.05" height="1.6"/><rect class="cls-42" x="33.25" y="85.97" width="0.06" height="1.6"/><rect class="cls-43" x="33.3" y="85.97" width="0.05" height="1.6"/><rect class="cls-44" x="33.36" y="85.97" width="0.05" height="1.6"/><rect class="cls-44" x="33.41" y="85.97" width="0.03" height="1.6"/><rect class="cls-45" x="33.44" y="85.97" width="0.03" height="1.6"/><rect class="cls-46" x="33.47" y="85.97" width="0.03" height="1.6"/><rect class="cls-47" x="33.49" y="85.97" width="0.03" height="1.6"/><rect class="cls-109" x="33.52" y="85.97" width="0.03" height="1.6"/><rect class="cls-110" x="33.55" y="85.97" width="0.03" height="1.6"/><rect class="cls-49" x="33.58" y="85.97" width="0.03" height="1.6"/><rect class="cls-111" x="33.6" y="85.97" width="0.03" height="1.6"/><rect class="cls-112" x="33.63" y="85.97" width="0.03" height="1.6"/><rect class="cls-113" x="33.66" y="85.97" width="0.03" height="1.6"/><rect class="cls-114" x="33.69" y="85.97" width="0.03" height="1.6"/><rect class="cls-115" x="33.71" y="85.97" width="0.03" height="1.6"/><rect class="cls-116" x="33.74" y="85.97" width="0.03" height="1.6"/><rect class="cls-117" x="33.77" y="85.97" width="0.03" height="1.6"/><rect class="cls-118" x="33.8" y="85.97" width="0.03" height="1.6"/><rect class="cls-119" x="33.82" y="85.97" width="0.03" height="1.6"/><rect class="cls-120" x="33.85" y="85.97" width="0.03" height="1.6"/><rect class="cls-121" x="33.88" y="85.97" width="0.03" height="1.6"/><rect class="cls-122" x="33.91" y="85.97" width="0.03" height="1.6"/><rect class="cls-123" x="33.93" y="85.97" width="0.03" height="1.6"/><rect class="cls-124" x="33.96" y="85.97" width="0.03" height="1.6"/><rect class="cls-125" x="33.99" y="85.97" width="0.03" height="1.6"/><rect class="cls-126" x="34.02" y="85.97" width="0.03" height="1.6"/><rect class="cls-127" x="34.04" y="85.97" width="0.03" height="1.6"/><rect class="cls-128" x="34.07" y="85.97" width="0.03" height="1.6"/><rect class="cls-129" x="34.1" y="85.97" width="0.03" height="1.6"/><rect class="cls-130" x="34.13" y="85.97" width="0.03" height="1.6"/><rect class="cls-130" x="34.15" y="85.97" width="0.03" height="1.6"/><rect class="cls-131" x="34.18" y="85.97" width="0.03" height="1.6"/><rect class="cls-132" x="34.21" y="85.97" width="0.03" height="1.6"/><rect class="cls-133" x="34.24" y="85.97" width="0.03" height="1.6"/><rect class="cls-134" x="34.26" y="85.97" width="0.03" height="1.6"/><rect class="cls-135" x="34.29" y="85.97" width="0.03" height="1.6"/><rect class="cls-136" x="34.32" y="85.97" width="0.03" height="1.6"/><rect class="cls-137" x="34.35" y="85.97" width="0.03" height="1.6"/><rect class="cls-137" x="34.37" y="85.97" width="0.03" height="1.6"/><rect class="cls-138" x="34.4" y="85.97" width="0.03" height="1.6"/><rect class="cls-139" x="34.43" y="85.97" width="0.03" height="1.6"/><rect class="cls-140" x="34.46" y="85.97" width="0.03" height="1.6"/><rect class="cls-140" x="34.48" y="85.97" width="0.04" height="1.6"/><rect class="cls-141" x="34.52" y="85.97" width="0.04" height="1.6"/><rect class="cls-142" x="34.56" y="85.97" width="0.04" height="1.6"/><rect class="cls-143" x="34.59" y="85.97" width="0.04" height="1.6"/><rect class="cls-144" x="34.63" y="85.97" width="0.04" height="1.6"/><rect class="cls-145" x="34.67" y="85.97" width="0.04" height="1.6"/><rect class="cls-146" x="34.71" y="85.97" width="0.04" height="1.6"/><rect class="cls-147" x="34.74" y="85.97" width="0.04" height="1.6"/><rect class="cls-148" x="34.78" y="85.97" width="0.04" height="1.6"/><rect class="cls-149" x="34.82" y="85.97" width="0.04" height="1.6"/><rect class="cls-150" x="34.85" y="85.97" width="0.04" height="1.6"/><rect class="cls-90" x="34.89" y="85.97" width="0.04" height="1.6"/><rect class="cls-91" x="34.93" y="85.97" width="0.04" height="1.6"/><rect class="cls-151" x="34.97" y="85.97" width="0.04" height="1.6"/><rect class="cls-152" x="35" y="85.97" width="0.04" height="1.6"/><rect class="cls-153" x="35.04" y="85.97" width="0.04" height="1.6"/><rect class="cls-95" x="35.08" y="85.97" width="0.04" height="1.6"/><rect class="cls-96" x="35.11" y="85.97" width="0.04" height="1.6"/><rect class="cls-154" x="35.15" y="85.97" width="0.04" height="1.6"/><rect class="cls-155" x="35.19" y="85.97" width="0.04" height="1.6"/><rect class="cls-156" x="35.23" y="85.97" width="0.04" height="1.6"/><rect class="cls-101" x="35.26" y="85.97" width="0.04" height="1.6"/><rect class="cls-102" x="35.3" y="85.97" width="0.04" height="1.6"/><rect class="cls-103" x="35.34" y="85.97" width="0.04" height="1.6"/><rect class="cls-104" x="35.37" y="85.97" width="0.04" height="1.6"/><rect class="cls-105" x="35.41" y="85.97" width="0.04" height="1.6"/><rect class="cls-105" x="35.45" y="85.97" width="0.01" height="1.6"/><rect class="cls-157" x="35.46" y="85.97" width="0.01" height="1.6"/><rect class="cls-158" x="35.48" y="85.97" width="0.01" height="1.6"/><rect class="cls-159" x="35.49" y="85.97" width="0.01" height="1.6"/><rect class="cls-160" x="35.5" y="85.97" width="0.01" height="1.6"/><rect class="cls-161" x="35.52" y="85.97" width="0.01" height="1.6"/><rect class="cls-162" x="35.53" y="85.97" width="0.01" height="1.6"/><rect class="cls-163" x="35.55" y="85.97" width="0.01" height="1.6"/><rect class="cls-164" x="35.56" y="85.97" width="0.01" height="1.6"/><rect class="cls-165" x="35.58" y="85.97" width="0.01" height="1.6"/><rect class="cls-166" x="35.59" y="85.97" width="0.01" height="1.6"/><rect class="cls-167" x="35.6" y="85.97" width="0.01" height="1.6"/><rect class="cls-168" x="35.62" y="85.97" width="0.01" height="1.6"/><rect class="cls-169" x="35.63" y="85.97" width="0.01" height="1.6"/><rect class="cls-170" x="35.65" y="85.97" width="0.01" height="1.6"/><rect class="cls-171" x="35.66" y="85.97" width="0.01" height="1.6"/><rect class="cls-172" x="35.68" y="85.97" width="0.01" height="1.6"/><rect class="cls-173" x="35.69" y="85.97" width="0.01" height="1.6"/><rect class="cls-174" x="35.7" y="85.97" width="0.01" height="1.6"/><rect class="cls-175" x="35.72" y="85.97" width="0.01" height="1.6"/><rect class="cls-176" x="35.73" y="85.97" width="0.01" height="1.6"/><rect class="cls-177" x="35.75" y="85.97" width="0.01" height="1.6"/><rect class="cls-178" x="35.76" y="85.97" width="0.01" height="1.6"/><rect class="cls-179" x="35.78" y="85.97" width="0.01" height="1.6"/><rect class="cls-180" x="35.79" y="85.97" width="0.01" height="1.6"/><rect class="cls-181" x="35.8" y="85.97" width="0.01" height="1.6"/><rect class="cls-182" x="35.82" y="85.97" width="0.01" height="1.6"/><rect class="cls-183" x="35.83" y="85.97" width="0.01" height="1.6"/><rect class="cls-184" x="35.85" y="85.97" width="0.01" height="1.6"/><rect class="cls-185" x="35.86" y="85.97" width="0.01" height="1.6"/><rect class="cls-186" x="35.88" y="85.97" width="0.01" height="1.6"/><rect class="cls-187" x="35.89" y="85.97" width="0.01" height="1.6"/><rect class="cls-188" x="35.9" y="85.97" width="0.01" height="1.6"/><rect class="cls-189" x="35.92" y="85.97" width="0.01" height="1.6"/><rect class="cls-190" x="35.93" y="85.97" width="0.01" height="1.6"/><rect class="cls-191" x="35.95" y="85.97" width="0.01" height="1.6"/><rect class="cls-192" x="35.96" y="85.97" width="0.01" height="1.6"/><rect class="cls-193" x="35.97" y="85.97" width="0.01" height="1.6"/><rect class="cls-194" x="35.99" y="85.97" width="0.01" height="1.6"/><rect class="cls-195" x="36" y="85.97" width="0.01" height="1.6"/><rect class="cls-196" x="36.02" y="85.97" width="0.01" height="1.6"/><rect class="cls-197" x="36.03" y="85.97" width="0.01" height="1.6"/><rect class="cls-198" x="36.05" y="85.97" width="0.01" height="1.6"/><rect class="cls-199" x="36.06" y="85.97" width="0.01" height="1.6"/><rect class="cls-200" x="36.07" y="85.97" width="0.01" height="1.6"/><rect class="cls-201" x="36.09" y="85.97" width="0.01" height="1.6"/><rect class="cls-201" x="36.1" y="85.97" width="0.01" height="1.6"/><rect class="cls-202" x="36.12" y="85.97" width="0.01" height="1.6"/><rect class="cls-203" x="36.13" y="85.97" width="0.01" height="1.6"/><rect class="cls-204" x="36.15" y="85.97" width="0.01" height="1.6"/><rect class="cls-205" x="36.16" y="85.97" width="0.01" height="1.6"/><rect class="cls-206" x="36.17" y="85.97" width="0.01" height="1.6"/><rect class="cls-207" x="36.19" y="85.97" width="0.01" height="1.6"/><rect class="cls-208" x="36.2" y="85.97" width="0.01" height="1.6"/><rect class="cls-209" x="36.22" y="85.97" width="0.01" height="1.6"/><rect class="cls-210" x="36.23" y="85.97" width="0.01" height="1.6"/><rect class="cls-211" x="36.25" y="85.97" width="0.01" height="1.6"/><rect class="cls-212" x="36.26" y="85.97" width="0.01" height="1.6"/><rect class="cls-213" x="36.27" y="85.97" width="0.01" height="1.6"/><rect class="cls-214" x="36.29" y="85.97" width="0.01" height="1.6"/><path class="cls-214" d="M36.3,87.56v0Z"/></g><path class="cls-6" d="M33.2,84.67c-.22.39-.61.45-.77.64s0,.21,0,.12.07-.09.16-.12a.88.88,0,0,1,.19.6s0,.11.08.14a1,1,0,0,0-.19-.8A2.28,2.28,0,0,1,33,85c.15.3.31.62.69.63a.92.92,0,0,1-.57-.72c.1-.13.1-.21.07-.28"/><path class="cls-215" d="M36.9,70.88a9.13,9.13,0,0,1-8.72.75A22.07,22.07,0,0,0,28.66,82H36.9Z"/><path class="cls-216" d="M36.9,71.5a9.21,9.21,0,0,1-8.28.85A21.74,21.74,0,0,0,29.28,82H36.9Z"/><path class="cls-217" d="M28.93,80.77A12.08,12.08,0,0,0,29.28,82H36.9V80.65c-2.65.18-5.36-.17-8,.12"/><path class="cls-218" d="M34.92,81l0-.46-.13-.16-.13-2.92.23-.22,0-.63-.4-.11v.25l-.38-.07v-.25c-.17,0-.36-.06-.58-.08v.25l-.38,0v-.26l-.32,0-.31,0v.26l-.38,0V76.3c-.22,0-.41,0-.58.08v.25l-.38.07v-.25a4,4,0,0,0-.4.11l0,.63.23.22-.13,2.92-.13.16,0,.46a5.46,5.46,0,0,0,2.06.39h0A5.46,5.46,0,0,0,34.92,81Z"/><path class="cls-2" d="M32.83,78.2c-1,0-1,2-.94,3.07a6.27,6.27,0,0,0,.92.07h0a6.27,6.27,0,0,0,.92-.07C33.83,80.2,33.8,78.2,32.83,78.2Z"/><path class="cls-219" d="M32.83,78.48c-.86,0-.75,2.18-.7,2.82a4.88,4.88,0,0,0,.68,0h0a4.88,4.88,0,0,0,.68,0C33.59,80.66,33.7,78.48,32.83,78.48Z"/><path class="cls-215" d="M36.89,93.68V82h8.22a23.12,23.12,0,0,1-8.22,11.7"/><path class="cls-220" d="M36.91,92.9c2.75-1.86,6-6.13,7.59-10.92H36.91Z"/><path class="cls-221" d="M39.15,84.72s-1.13-1-.33-1.49,1.89-.28,2.31-.9c-.19.88.48,1.67-1,2.47Z"/><path class="cls-11" d="M39.26,84.73S38.41,84,39,83.6s1.43-.21,1.75-.68c-.14.67.36,1.26-.73,1.87Z"/><path class="cls-222" d="M39.49,84.75s-.48-.5.15-.76l.48-.14s0,.83-.34.92Z"/><path class="cls-4" d="M40.39,84.83l-.8-.09-.8,0s-.47.23-.25.61c.27.1.3.28.3.28l.1,3.94s0,.7.16.73.28-.69.28-.69l.8-3.86a.41.41,0,0,1,.34-.22C40.81,85.14,40.39,84.83,40.39,84.83Z"/><path class="cls-223" d="M38.88,87s-.45,0-.47.14a.46.46,0,0,0,.13.46c-.21,0-.47,0-.25.41-.17.22-.16.46.1.52,0,.24,0,.39.54.55v-.18s.42,0,.43-.16a.26.26,0,0,0-.05-.19.21.21,0,0,0,.14-.3c.09-.08.16-.45-.12-.44s-.32.06-.39-.18A4.3,4.3,0,0,1,38.88,87Z"/><path class="cls-223" d="M41.07,88.64c-.15-.16-.58-.77-.66-.84s-.28-.58-.41-.65a1.39,1.39,0,0,1-.31-.26s-.47-.55-.52-.51-.07.08-.09.43.29.35.29.33a.49.49,0,0,0,.26.39.91.91,0,0,0,0,.66l-.22,1.06a1.57,1.57,0,0,0,.55,0,2.38,2.38,0,0,1,.32.37l.42-.53C40.85,89,41,88.78,41.07,88.64Z"/><path class="cls-6" d="M36.92,70.88a9.11,9.11,0,0,0,8.71.75A22.34,22.34,0,0,1,45.15,82H36.92Z"/><path class="cls-5" d="M36.92,71.5a9.18,9.18,0,0,0,8.27.85A22,22,0,0,1,44.52,82h-7.6Z"/><path class="cls-11" d="M36.92,79.33l5.9-6.41a12.28,12.28,0,0,0,2.37-.57c.09.66.17,1.35.2,2.07l-7,7.56h-1.5Z"/><path class="cls-224" d="M41.37,75.45l1.65-.1a.11.11,0,0,1,.1.08.33.33,0,0,0,.3.18c.24,0,.41-.26.33-.31s-.1.18-.33.18-.22-.28-.36-.27H41.37V74.1c0-.31-.24-.72-.36-.72a1,1,0,0,0-.37.72v1.1H39.1c-.15,0-.13.27-.34.27s-.25-.23-.35-.18.1.31.33.31a.35.35,0,0,0,.3-.18.12.12,0,0,1,.09-.08l1.51.1v4a.22.22,0,0,0,.22.22h.29a.22.22,0,0,0,.22-.22Z"/><path class="cls-225" d="M41,81.13c.09-.08.18-.12.21-.08s0,.2-.09.21-.11-.1-.12-.13"/><path class="cls-225" d="M40.82,80.89c.07-.12.37-.2.46-.24a.19.19,0,0,1-.12.31c-.13,0-.16.11-.21.11a.13.13,0,0,1-.13-.06.13.13,0,0,1,0-.12"/><path class="cls-225" d="M40.77,80.54a2.17,2.17,0,0,1,.51-.24.19.19,0,0,1-.06.32,1.6,1.6,0,0,0-.37.18c-.09.07-.17-.15-.08-.26"/><path class="cls-225" d="M40.73,80.2a5.1,5.1,0,0,1,.6-.26.18.18,0,0,1,0,.3,2.31,2.31,0,0,0-.48.2c-.09.06-.18-.15-.09-.24"/><path class="cls-225" d="M42.56,79.37h1.55s0,.69-.76.69A.7.7,0,0,1,42.56,79.37Z"/><polygon class="cls-225" points="43.29 75.45 42.56 79.38 42.63 79.38 43.35 75.48 43.29 75.45"/><polygon class="cls-225" points="43.52 75.45 44.1 79.38 44.03 79.38 43.46 75.48 43.52 75.45"/><path class="cls-225" d="M37.91,79.37h1.55s0,.69-.76.69A.7.7,0,0,1,37.91,79.37Z"/><polygon class="cls-225" points="38.64 75.45 37.91 79.38 37.98 79.38 38.7 75.48 38.64 75.45"/><polygon class="cls-225" points="38.87 75.45 39.45 79.38 39.38 79.38 38.8 75.48 38.87 75.45"/><path class="cls-226" d="M41,73.38V79.7s-.37.06-.37-.12V74.05S40.8,73.42,41,73.38Z"/><path class="cls-225" d="M41.33,79.9s-.59.24-.59.21,0-.11,0-.2,0,0,0-.07c-.26-.12-.38-.17-.47-.35s0-.39.17-.39a.1.1,0,0,1,.1.11.09.09,0,0,1-.1.1s0,0-.06,0c0,.27.42.32.69-.07.24.39.78.36.66,0a.15.15,0,0,1-.11.06.11.11,0,0,1-.1-.1.13.13,0,0,1,.1-.11.31.31,0,0,1,.23.44.68.68,0,0,1-.47.3s0,0,0,.06"/><path class="cls-227" d="M33.24,73.69l.26,0-.26-.06.24-.1h-.27l.2-.18-.25.09.14-.23-.21.15.07-.25-.17.19V73l-.12.23h0V73h.07V73h-.07v-.07H32.8V73h-.08V73h.08v.2h0L32.67,73v.26l-.18-.2.09.25h0l-.22-.13.13.21-.24-.07.19.17h-.26l.24.1-.26.06.26.06h0l-.25.11.27,0-.19.17.25-.08h0l-.14.22.22-.14h0l-.09.25.2-.19h0l.12,0A.32.32,0,0,0,33,74h0l.2.2L33.08,74l.23.15-.16-.22.27.08-.21-.17h.27Z"/><path class="cls-3" d="M33.43,74.64l-.13-.21c0-.05,0-.13-.06-.12a.09.09,0,0,1,0-.06.12.12,0,0,0,0,0s0,0,0,0l.05-.11-.1,0,0-.08,0,.07-.08,0v0H33s0,0,0-.06a2.45,2.45,0,0,0-.06-.34l.09-.12a.14.14,0,0,0-.07,0s0,0,0,0l-.06.06a.08.08,0,0,0,0-.08c0-.07,0-.08,0-.08s0,0,0,.08a.09.09,0,0,0,0,.08l-.07-.06a.12.12,0,0,0,0,0,.14.14,0,0,0-.07,0,.62.62,0,0,1,.08.12,2.33,2.33,0,0,0-.05.34s0,.06,0,.06a.15.15,0,0,0-.14.08c0,.06-.22.34-.29.47s-.63,1.18-.63,1.18a.11.11,0,0,0,.11,0c0,.06.05.07.09,0s.05.08.09.06A.06.06,0,0,0,32,76a.06.06,0,0,0,.1,0,.08.08,0,0,0,.12,0c0,.06.06,0,.09,0s.09,0,.11,0a.09.09,0,0,0,.11,0,.09.09,0,0,0,.1,0s.11,0,.11,0a.29.29,0,0,0,.1,0,.3.3,0,0,0,.11,0s.07,0,.11,0a.09.09,0,0,0,.1,0,.09.09,0,0,0,.11,0s.06,0,.1,0,0,0,.1,0a.08.08,0,0,0,.12,0,.07.07,0,0,0,.1,0,.06.06,0,0,0,.09,0s.08,0,.09-.06.08,0,.09,0a.09.09,0,0,0,.1,0S33.49,74.77,33.43,74.64Z"/><path class="cls-228" d="M33.46,76.1s-.06,0,0-.09,0-.11,0-.11a.08.08,0,0,1,0-.11.08.08,0,0,1,0-.13.09.09,0,0,1,0-.13c-.08,0,0-.12,0-.12s-.09-.06,0-.13a.09.09,0,0,1,0-.13s-.08-.09,0-.14a.09.09,0,0,1,0-.13.08.08,0,0,1,0-.12s-.05-.08,0-.11,0,0,0-.08-.06-.08-.06-.08-.06,0,0-.09a.06.06,0,0,1-.05-.08.11.11,0,0,1,0-.09.11.11,0,0,1,0-.13.28.28,0,0,1-.18,0,.13.13,0,0,1,0,.13s0,.09,0,.09a.06.06,0,0,1-.05.08c0,.09,0,.09,0,.09s0,.08-.06.08,0,.08,0,.08,0,.11,0,.11a.08.08,0,0,1,0,.12.1.1,0,0,1,0,.13s0,.13,0,.14a.09.09,0,0,1,0,.13c.07.07,0,.13,0,.13s.06.08,0,.12a.09.09,0,0,1,0,.13.09.09,0,0,1,0,.13.09.09,0,0,1,0,.11s0,.08,0,.11,0,.07,0,.09.06,0,.09,0,.09,0,.11,0a.09.09,0,0,0,.11,0,.09.09,0,0,0,.1,0s.11,0,.11,0a.29.29,0,0,0,.1,0,.3.3,0,0,0,.11,0s.07,0,.11,0a.09.09,0,0,0,.1,0,.09.09,0,0,0,.11,0s.06,0,.1,0S33.41,76.15,33.46,76.1Z"/><path class="cls-229" d="M32.93,73.7h-.19s-.09.36.09.38S32.93,73.7,32.93,73.7Z"/></g></g></svg>