<svg xmlns="http://www.w3.org/2000/svg" viewBox="0 0 165 165"><defs><style>.cls-1{fill:#fff;}.cls-2,.cls-5{fill:#f4d110;}.cls-3{fill:#c10e1a;}.cls-3,.cls-5,.cls-6{fill-rule:evenodd;}.cls-4,.cls-6{fill:#222221;}</style></defs><g id="Capa_2" data-name="Capa 2"><g id="Capa_1-2" data-name="Capa 1"><rect class="cls-1" width="165" height="165"/><rect class="cls-2" x="37.48" y="62.93" width="4.87" height="5.67"/><rect class="cls-2" x="37.48" y="96.26" width="4.87" height="5.67"/><rect class="cls-2" x="51.51" y="80.44" width="5.67" height="4.88"/><rect class="cls-2" x="22.06" y="80.44" width="5.67" height="4.88"/><polygon class="cls-3" points="27.68 59.93 52.07 59.93 43.17 64.15 43.17 67.88 41.06 67.88 41.06 64.15 38.75 64.15 38.75 67.88 36.58 67.88 36.58 64.15 27.68 59.93"/><path class="cls-4" d="M43.5,68.21H40.74V64.48H39.08v3.73H36.25V64.36l-8.71-4.13.14-.63H52.07l.15.63L43.5,64.36Zm-2.11-.66h1.45V63.94l7.77-3.68H29.15l7.76,3.68v3.61h1.51V63.82h3Z"/><polygon class="cls-3" points="27.68 104.92 52.07 104.92 43.17 100.7 43.17 96.97 41.06 96.97 41.06 100.7 38.75 100.7 38.75 96.97 36.58 96.97 36.58 100.7 27.68 104.92"/><path class="cls-4" d="M52.07,105.25H27.68l-.14-.63,8.71-4.12V96.64h2.83v3.73h1.66V96.64H43.5v3.86l8.72,4.12Zm-22.92-.66H50.61l-7.77-3.68V97.3H41.39V101h-3V97.3H36.91v3.61Z"/><polygon class="cls-3" points="19.25 70.74 23.47 79.64 27.2 79.64 27.2 81.75 23.47 81.75 23.47 84.06 27.2 84.06 27.2 86.23 23.47 86.23 19.25 94.18 19.25 70.74"/><path class="cls-4" d="M19.55,94.34l-.63-.16V70.74l.63-.14,4.13,8.71h3.85v2.77H23.8v1.65h3.73v2.83H23.66Zm0-22.13V92.86l3.69-7h3.6V84.39H23.14v-3h3.73V80H23.26Z"/><polygon class="cls-3" points="60.5 70.74 56.29 79.64 52.55 79.64 52.55 81.75 56.29 81.75 56.29 84.06 52.55 84.06 52.55 86.23 56.29 86.23 60.5 94.18 60.5 70.74"/><path class="cls-4" d="M60.21,94.34l-4.12-7.78H52.22V83.73H56V82.08H52.22V79.31h3.86L60.2,70.6l.63.14V94.18ZM52.88,85.9h3.6l3.69,7V72.21L56.49,80H52.88v1.45h3.74v3H52.88Z"/><path class="cls-5" d="M27.2,67.88H52.55v24.4c0,1.9-3.06,4.69-5.17,4.69H41.06a1.33,1.33,0,0,0-1.15,1,1.54,1.54,0,0,0-1.16-1H32.37c-2,0-5.17-2.79-5.17-4.69Z"/><path class="cls-4" d="M40.24,97.93h-.66a1.37,1.37,0,0,0-.83-.62H32.37c-2.26,0-5.5-3-5.5-5V67.55h26V92.28c0,2.11-3.18,5-5.5,5H41.06A1.06,1.06,0,0,0,40.24,97.93ZM27.53,68.21V92.28c0,1.71,2.94,4.36,4.84,4.36h6.38a1.75,1.75,0,0,1,1.14.61,1.63,1.63,0,0,1,1.17-.61h6.32c1.9,0,4.84-2.65,4.84-4.36V68.21Z"/><path class="cls-6" d="M30.26,70.74H49.49V92.28a2,2,0,0,1-2.11,1.9H41.06a1.43,1.43,0,0,0-1.15.95,1.54,1.54,0,0,0-1.16-.95H32.37a2.25,2.25,0,0,1-2.11-1.9Z"/><path class="cls-5" d="M39.57,80.12c-.41-.55,2.65,1.29,2.65,3a1.75,1.75,0,0,1-1.84,1.63,1.81,1.81,0,0,1-1.9-1.63C38.48,81.88,40.52,81.81,39.57,80.12Z"/><path class="cls-4" d="M40.38,84.7a1.59,1.59,0,0,1-1.65-1.46,1.92,1.92,0,0,1,.81-1.35l.2.26a1.67,1.67,0,0,0-.68,1.09,1.27,1.27,0,0,0,1.32,1.13,1.3,1.3,0,0,0,1.4-1.2c0-1.09-1.53-2.38-1.92-2.49l.1-.32c.5.15,2.15,1.56,2.15,2.81A1.62,1.62,0,0,1,40.38,84.7Z"/><path class="cls-4" d="M40.38,84.41c-.67-.32-1-.62-1.16-1a1.21,1.21,0,0,1,.13-.94,2.13,2.13,0,0,1,.22-.38c.07-.11.11-.17.11-.23H40a.71.71,0,0,1-.17.42,1.59,1.59,0,0,0-.18.32.87.87,0,0,0-.12.7c.09.27.4.52,1,.79Z"/><path class="cls-4" d="M40.68,84.4l-.18-.28a1.37,1.37,0,0,0,.7-.87c.06-.46-.36-1-.8-1.46-.19-.22-.39-.46-.56-.7l.27-.19c.16.23.36.46.54.67.49.58,1,1.12.87,1.73A1.65,1.65,0,0,1,40.68,84.4Z"/><path class="cls-4" d="M40.65,84.16l-.26-.2c.6-.77.23-1.37-.2-2.07L40,81.63l.28-.17.16.25C40.93,82.45,41.39,83.22,40.65,84.16Z"/><path class="cls-4" d="M40.23,84.19c-.72-.47-.55-1.66-.34-2.29l.31.1c-.19.59-.3,1.58.21,1.92Z"/><path class="cls-5" d="M47.32,77.74H45.48l.07-.95a1.12,1.12,0,0,0,.68-.55,1.86,1.86,0,0,0,.2-1,2.19,2.19,0,0,0-.4-1.36,1.49,1.49,0,0,0-1.16-.47,1.21,1.21,0,0,0-1,.47,1.88,1.88,0,0,0-.48,1.36,2.2,2.2,0,0,0,.21,1,1.31,1.31,0,0,0,.68.55l.13.95h-1.9v-.95h.14c0,.13.07.27.14.27s.2.13.4.13h.89V77a2,2,0,0,1-1-.68,1.91,1.91,0,0,1-.4-1.15,2,2,0,0,1,.61-1.43,2.16,2.16,0,0,1,1.63-.55,3.17,3.17,0,0,1,1.22.21,2.19,2.19,0,0,1,.82.75,1.66,1.66,0,0,1,.27,1,2.24,2.24,0,0,1-.34,1.15,2.3,2.3,0,0,1-1.09.68v.2h.89c.2,0,.34,0,.41-.06a.58.58,0,0,0,.13-.34h.14Z"/><path class="cls-4" d="M64.63,70.49h3.26v7.93a2.62,2.62,0,0,0,.47,1.72,1.7,1.7,0,0,0,1.41.58,2,2,0,0,0,1.55-.64,2.58,2.58,0,0,0,.56-1.76V71.44h-.95v-1h3.26V80.87h1v.95H72l-.06-1.15a4.59,4.59,0,0,1-1.42,1,3.88,3.88,0,0,1-1.64.34,3.15,3.15,0,0,1-2.43-.9,3.74,3.74,0,0,1-.83-2.63V71.44h-1Z"/><path class="cls-4" d="M76.63,78.41v-6l-.74.21v-.79l2.69-.8h.1l0,1.35a7.22,7.22,0,0,1,1.58-1A3.15,3.15,0,0,1,81.58,71a2.2,2.2,0,0,1,1.68.66,2.44,2.44,0,0,1,.62,1.78v5h.74v.81H81.09v-.81h.76V73.68a1.3,1.3,0,0,0-.3-.93,1.2,1.2,0,0,0-.89-.32,2.4,2.4,0,0,0-1,.24,4.07,4.07,0,0,0-1,.67v5.07h.76v.81H75.89v-.81Z"/><path class="cls-4" d="M88.05,71h.09c0,.23,0,.44,0,.64s0,.37,0,.54v6.24h.76v.81H85.31v-.81h.74v-6l-.74.2v-.78Zm-2.22-1.67a1.17,1.17,0,0,1,2-.81,1.16,1.16,0,0,1,0,1.63,1.11,1.11,0,0,1-.81.35,1.09,1.09,0,0,1-.81-.36A1.11,1.11,0,0,1,85.83,69.32Z"/><path class="cls-4" d="M91.08,71a6.93,6.93,0,0,0,.21.81c.09.27.2.56.33.85a6,6,0,0,1,1.2-1.27A1.84,1.84,0,0,1,93.88,71a5.6,5.6,0,0,1,1.08.16,4.8,4.8,0,0,0,1,.16,1.23,1.23,0,0,0,.39-.06,1.47,1.47,0,0,0,.43-.2l.35.34a9.94,9.94,0,0,0-.52,1.07,2.23,2.23,0,0,1-.09.23l-2.18,5.2c-.09.23-.16.44-.23.65s-.12.42-.17.64H92.3a5.94,5.94,0,0,0-.38-1,.87.87,0,0,0,0-.12l-2.39-5.44-.66.28-.28-.63Zm4.52,1.66a.91.91,0,0,1-.62.18,3.65,3.65,0,0,1-.87-.18,3.67,3.67,0,0,0-.89-.18,1.41,1.41,0,0,0-.7.2,2.5,2.5,0,0,0-.65.59l1.74,4.13Z"/><path class="cls-4" d="M103.3,74.5l-4.17,1.36a3.22,3.22,0,0,0,1,1.52,2.4,2.4,0,0,0,1.56.53,3.06,3.06,0,0,0,1.2-.24,3.9,3.9,0,0,0,1.07-.71l.49.51a5.1,5.1,0,0,1-1.72,1.47,4.52,4.52,0,0,1-2.1.51,3.38,3.38,0,0,1-2.67-1.18,4.7,4.7,0,0,1,.11-6,3.68,3.68,0,0,1,2.8-1.23,3.24,3.24,0,0,1,1.44.33,3.59,3.59,0,0,1,1.2,1,4.84,4.84,0,0,1,.64,1,2.48,2.48,0,0,1,.27.78c0,.08-.17.17-.5.25Zm-1-.62a3.43,3.43,0,0,0-.81-1.43,1.58,1.58,0,0,0-1.14-.51,1.41,1.41,0,0,0-1.15.61,2.51,2.51,0,0,0-.45,1.52c0,.16,0,.31,0,.46a3.56,3.56,0,0,0,.06.44Z"/><path class="cls-4" d="M110.28,71l.65.28-1,2.17a3.8,3.8,0,0,0-.72-.39,1.66,1.66,0,0,0-.58-.11.91.91,0,0,0-.75.36,1.53,1.53,0,0,0-.29,1v4.16h1v.8h-3.72v-.8h.74V73.61a1.3,1.3,0,0,0-.07-.47.68.68,0,0,0-.23-.21l-.35.37-.56-.5,1.42-1.8a4.63,4.63,0,0,1,1,.69,2,2,0,0,1,.51.8,4.7,4.7,0,0,1,.8-1.16,1.11,1.11,0,0,1,.76-.33,1.53,1.53,0,0,1,.52.1,3.06,3.06,0,0,1,.62.28Z"/><path class="cls-4" d="M116.1,71.8l-.89,1.33a5.57,5.57,0,0,0-1.17-.9,2.1,2.1,0,0,0-1-.29.9.9,0,0,0-.6.22.7.7,0,0,0-.23.53c0,.42.65.93,2,1.51l.08,0a4.38,4.38,0,0,1,1.65,1.08,2.11,2.11,0,0,1,.42,1.37,2.47,2.47,0,0,1-.94,2,3.38,3.38,0,0,1-2.3.81,4.36,4.36,0,0,1-3-1.2l1.09-1.51A7.18,7.18,0,0,0,112.6,78a2.39,2.39,0,0,0,1.24.39,1.07,1.07,0,0,0,.74-.27.91.91,0,0,0,.29-.69c0-.43-.51-.88-1.53-1.36l-.12-.06a6.3,6.3,0,0,1-2-1.3,2.07,2.07,0,0,1-.42-1.32,2.18,2.18,0,0,1,.79-1.72,3,3,0,0,1,2-.68,4.23,4.23,0,0,1,1.28.2A5.39,5.39,0,0,1,116.1,71.8Z"/><path class="cls-4" d="M119.4,71h.09c0,.23,0,.44,0,.64s0,.37,0,.54v6.24h.76v.81h-3.53v-.81h.74v-6l-.74.2v-.78Zm-2.21-1.67a1.16,1.16,0,0,1,1.15-1.14,1.15,1.15,0,0,1,.81,2,1.16,1.16,0,0,1-2-.82Z"/><path class="cls-4" d="M129,67.74v.82l-.71.25v9.6h.74v.81h-2.61l-.16-1a4.42,4.42,0,0,1-1.22.88,2.91,2.91,0,0,1-1.26.3,2.82,2.82,0,0,1-2.3-1.09,4.34,4.34,0,0,1-.89-2.83,4.85,4.85,0,0,1,1.1-3.24,3.38,3.38,0,0,1,2.65-1.3,3.27,3.27,0,0,1,1,.15,4.16,4.16,0,0,1,.92.46V69.49l-.74.25V68.9Zm-2.74,6a1.89,1.89,0,0,0-.45-1.34,1.59,1.59,0,0,0-1.23-.48,1.65,1.65,0,0,0-1.4.81,3.66,3.66,0,0,0-.56,2.1,4.12,4.12,0,0,0,.62,2.35,1.81,1.81,0,0,0,1.54.92,1.75,1.75,0,0,0,.79-.2,2.15,2.15,0,0,0,.69-.55Z"/><path class="cls-4" d="M131.16,70.82l.71.21-.15.57a5.11,5.11,0,0,1,1-.45,3.67,3.67,0,0,1,1-.15,2.74,2.74,0,0,1,2,.69,2.81,2.81,0,0,1,.69,2.07v4.66h.74v.81h-2.59l-.18-.92a3.89,3.89,0,0,1-1.14.86,3,3,0,0,1-1.28.29,2.46,2.46,0,0,1-1.85-.76,2.53,2.53,0,0,1-.75-1.86,2.45,2.45,0,0,1,1-2.12,5.09,5.09,0,0,1,3-.74l.51,0,.5,0v-.57a1.27,1.27,0,0,0-.35-.94,1.39,1.39,0,0,0-1-.33,2,2,0,0,0-1.13.34,2.6,2.6,0,0,0-.88,1l-.77-.27Zm3.33,4-.37,0-.41,0a2.5,2.5,0,0,0-1.64.52,1.64,1.64,0,0,0-.63,1.34,1.56,1.56,0,0,0,.42,1.13,1.47,1.47,0,0,0,1.1.44,1.39,1.39,0,0,0,1.12-.46,2,2,0,0,0,.41-1.33Z"/><path class="cls-4" d="M146,67.74v.82l-.7.25v9.6h.74v.81h-2.61l-.16-1a4.42,4.42,0,0,1-1.22.88,2.91,2.91,0,0,1-1.26.3,2.82,2.82,0,0,1-2.3-1.09,4.28,4.28,0,0,1-.89-2.83,4.8,4.8,0,0,1,1.1-3.24,3.38,3.38,0,0,1,2.65-1.3,3.32,3.32,0,0,1,1,.15,4.16,4.16,0,0,1,.92.46V69.49l-.74.25V68.9Zm-2.73,6a1.89,1.89,0,0,0-.45-1.34,1.6,1.6,0,0,0-1.23-.48,1.65,1.65,0,0,0-1.4.81,3.59,3.59,0,0,0-.56,2.1,4.12,4.12,0,0,0,.61,2.35,1.83,1.83,0,0,0,1.55.92,1.75,1.75,0,0,0,.79-.2,2.27,2.27,0,0,0,.69-.55Z"/><path class="cls-4" d="M75.9,80.86h4.21A5.65,5.65,0,0,1,83.81,82a3.7,3.7,0,0,1,1.33,3,4,4,0,0,1-1.21,3,4.22,4.22,0,0,1-3,1.17,5.49,5.49,0,0,1-.93-.07,4,4,0,0,1-.81-.22v2.41h1.13v1H75.9v-1h.95V81.81H75.9Zm3.25,1v4.66a2,2,0,0,0,.31,1.27,1.2,1.2,0,0,0,1,.37,1.92,1.92,0,0,0,1.62-.8,3.56,3.56,0,0,0,.61-2.17,3.51,3.51,0,0,0-.8-2.45,2.83,2.83,0,0,0-2.22-.88Z"/><path class="cls-4" d="M89.33,92.42a4.36,4.36,0,0,1-3.13-1.19,4.33,4.33,0,0,1,0-6.07,4.7,4.7,0,0,1,6.27,0,4.06,4.06,0,0,1,1.24,3,4,4,0,0,1-1.24,3A4.34,4.34,0,0,1,89.33,92.42Zm-2.24-4.85a5,5,0,0,0,.76,2.79,2.16,2.16,0,0,0,1.8,1.15,1.65,1.65,0,0,0,1.41-.71,3.36,3.36,0,0,0,.52-2,4.93,4.93,0,0,0-.77-2.8A2.2,2.2,0,0,0,89,84.87a1.61,1.61,0,0,0-1.37.73A3.31,3.31,0,0,0,87.09,87.57Z"/><path class="cls-4" d="M94.92,91.39v-6l-.74.2V84.8L96.87,84H97v1.34a8,8,0,0,1,1.57-1A3.15,3.15,0,0,1,99.87,84a2.21,2.21,0,0,1,1.68.66,2.5,2.5,0,0,1,.62,1.78v5h.74v.8H99.38v-.8h.76V86.65a1.28,1.28,0,0,0-.31-.93A1.17,1.17,0,0,0,99,85.4a2.31,2.31,0,0,0-1,.25,3.68,3.68,0,0,0-1,.67v5.07h.76v.8H94.18v-.8Z"/><path class="cls-4" d="M105.74,82.36l.56.13v1.79h1.58l-.1.67a.49.49,0,0,1-.11.28.52.52,0,0,1-.31.07H106.3V90a1.69,1.69,0,0,0,.18.89.65.65,0,0,0,.58.27.92.92,0,0,0,.36-.07,2.13,2.13,0,0,0,.45-.23l.35.52a3.94,3.94,0,0,1-1.09.75,2.91,2.91,0,0,1-1.18.25,1.6,1.6,0,0,1-1.3-.47,2.32,2.32,0,0,1-.4-1.53V85.3h-.85v-.65a4.65,4.65,0,0,0,1.46-.94A3.72,3.72,0,0,0,105.74,82.36Z"/><path class="cls-4" d="M111,84h.09c0,.23,0,.44,0,.64s0,.38,0,.54v6.25h.76v.8H108.3v-.8H109v-6l-.74.2V84.8Zm-2.21-1.67a1.11,1.11,0,0,1,.33-.8,1.15,1.15,0,0,1,.82-.34,1.16,1.16,0,1,1-.81,2A1.14,1.14,0,0,1,108.83,82.29Z"/><path class="cls-4" d="M112.52,92.19v-.8h.74V85.47h-1.08l.37-1h.83a2.5,2.5,0,0,1-.37-.64,1.5,1.5,0,0,1-.13-.62,2.28,2.28,0,0,1,.92-1.73,3,3,0,0,1,2-.8,2.45,2.45,0,0,1,1,.21,2.09,2.09,0,0,1,.8.57l-1.28,1.06a3.41,3.41,0,0,0-.61-.66.8.8,0,0,0-.49-.18.78.78,0,0,0-.62.27,1,1,0,0,0-.24.7,1.7,1.7,0,0,0,.57,1.29,2,2,0,0,0,1.39.53h.77l-.39,1h-1.41v5.92h1.12v.8Z"/><path class="cls-4" d="M119.81,84h.09c0,.23,0,.44-.05.64s0,.38,0,.54v6.25h.76v.8h-3.53v-.8h.74v-6l-.74.2V84.8Zm-2.22-1.67a1.12,1.12,0,0,1,.34-.8,1.15,1.15,0,0,1,.82-.34,1.12,1.12,0,0,1,.82.33,1.16,1.16,0,0,1,0,1.63,1.11,1.11,0,0,1-1.62,0A1.15,1.15,0,0,1,117.59,82.29Z"/><path class="cls-4" d="M128.27,85.46l-1.45,1.34a3.76,3.76,0,0,0-.9-1.4,1.63,1.63,0,0,0-1.15-.46,1.67,1.67,0,0,0-1.37.69,2.88,2.88,0,0,0-.54,1.8,3.85,3.85,0,0,0,.83,2.48,2.4,2.4,0,0,0,1.92,1,2.33,2.33,0,0,0,1.12-.28,3.22,3.22,0,0,0,1-.84l.46.4a4.11,4.11,0,0,1-1.46,1.6,3.83,3.83,0,0,1-4.69-.5,3.91,3.91,0,0,1-1-2.83,4.57,4.57,0,0,1,1.24-3.21,3.93,3.93,0,0,1,3-1.34,3.71,3.71,0,0,1,1.66.38A4.18,4.18,0,0,1,128.27,85.46Z"/><path class="cls-4" d="M131.36,84h.09a5,5,0,0,0,0,.64c0,.2,0,.38,0,.54v6.25h.76v.8h-3.53v-.8h.74v-6l-.74.2V84.8Zm-2.22-1.67a1.08,1.08,0,0,1,.34-.8,1.15,1.15,0,0,1,.82-.34,1.14,1.14,0,0,1,1.15,1.14,1.15,1.15,0,0,1-.34.82,1.11,1.11,0,0,1-1.62,0A1.15,1.15,0,0,1,129.14,82.29Z"/><path class="cls-4" d="M134.24,83.8,135,84l-.15.56a5.11,5.11,0,0,1,1-.45,3.67,3.67,0,0,1,1-.15,2.74,2.74,0,0,1,2,.69,2.82,2.82,0,0,1,.68,2.08V91.4h.74v.8h-2.58l-.19-.92a3.58,3.58,0,0,1-1.13.86,2.85,2.85,0,0,1-1.28.29,2.49,2.49,0,0,1-1.85-.75,2.56,2.56,0,0,1-.75-1.86,2.45,2.45,0,0,1,1-2.13,5.07,5.07,0,0,1,3-.73h.5l.5,0v-.57a1.19,1.19,0,0,0-.35-.93,1.33,1.33,0,0,0-1-.34,2,2,0,0,0-1.14.34,2.83,2.83,0,0,0-.87,1l-.77-.26Zm3.33,4-.37,0h-.4a2.54,2.54,0,0,0-1.65.51,1.66,1.66,0,0,0-.62,1.34,1.57,1.57,0,0,0,.42,1.14,1.46,1.46,0,0,0,1.1.43,1.4,1.4,0,0,0,1.12-.46,2,2,0,0,0,.4-1.32Z"/><path class="cls-4" d="M72.27,98.18a3.81,3.81,0,0,1,2.41,1,3.1,3.1,0,0,1,.87,2.28,3.39,3.39,0,0,1-1.12,2.65,4.13,4.13,0,0,1-2.92,1h-5v-1h1V94.77h-1v-1h4.41a4.55,4.55,0,0,1,2.56.58,2,2,0,0,1,.85,1.75,1.76,1.76,0,0,1-.54,1.29A3,3,0,0,1,72.27,98.18Zm-2.58-.41h.73a2,2,0,0,0,1.31-.37,1.3,1.3,0,0,0,.46-1.08,1.27,1.27,0,0,0-.49-1.08,2.34,2.34,0,0,0-1.42-.36h-.59Zm0,1.06v5.29h.81a2.88,2.88,0,0,0,2.06-.66,2.61,2.61,0,0,0,.68-2,2.7,2.7,0,0,0-.67-2,2.61,2.61,0,0,0-1.94-.69Z"/><path class="cls-4" d="M80,105.39a4.32,4.32,0,0,1-3.13-1.2,4.32,4.32,0,0,1,0-6.06,4.7,4.7,0,0,1,6.27,0,4.32,4.32,0,0,1,0,6.06A4.35,4.35,0,0,1,80,105.39Zm-2.24-4.85a4.88,4.88,0,0,0,.76,2.78,2.16,2.16,0,0,0,1.8,1.16,1.66,1.66,0,0,0,1.41-.72,3.34,3.34,0,0,0,.51-2,5,5,0,0,0-.76-2.8,2.18,2.18,0,0,0-1.83-1.15,1.59,1.59,0,0,0-1.37.73A3.29,3.29,0,0,0,77.79,100.54Z"/><path class="cls-4" d="M88.31,93.67v.83l-.73.25v9.6h.74v.8H84.81v-.8h.74V95.41l-.74.26v-.84Z"/><path class="cls-4" d="M91.76,96.93h.09c0,.22,0,.44,0,.63s0,.38,0,.55v6.24h.76v.8H89v-.8h.74v-6l-.74.21v-.78Zm-2.21-1.67a1.07,1.07,0,0,1,.34-.8,1.09,1.09,0,0,1,.81-.34,1.13,1.13,0,0,1,1.15,1.14,1.13,1.13,0,0,1-.34.82,1.07,1.07,0,0,1-.81.34,1.2,1.2,0,0,1-1.15-1.16Z"/><path class="cls-4" d="M94.79,96.93a6.31,6.31,0,0,0,.21.8c.1.28.21.56.33.85a6.42,6.42,0,0,1,1.21-1.26A1.82,1.82,0,0,1,97.6,97a4.91,4.91,0,0,1,1.07.16,5.63,5.63,0,0,0,1,.16,1.34,1.34,0,0,0,.4-.06,2.09,2.09,0,0,0,.43-.21l.35.34a8.61,8.61,0,0,0-.52,1.08l-.09.22L98,103.87c-.08.22-.16.44-.23.65s-.12.42-.17.63H96a7.64,7.64,0,0,0-.39-1l0-.11L93.2,98.57l-.67.28-.28-.63Zm4.52,1.65a.87.87,0,0,1-.27.14,1.13,1.13,0,0,1-.35,0,3.69,3.69,0,0,1-.86-.18,3.72,3.72,0,0,0-.9-.18,1.28,1.28,0,0,0-.69.2,2.35,2.35,0,0,0-.65.59l1.74,4.13Z"/><path class="cls-4" d="M102.29,96.76,103,97l-.15.57a4.89,4.89,0,0,1,1-.45,3.6,3.6,0,0,1,1-.15,2.78,2.78,0,0,1,2,.69,2.85,2.85,0,0,1,.68,2.07v4.66h.74v.8h-2.58l-.19-.92a3.77,3.77,0,0,1-1.14.87,3,3,0,0,1-1.28.29,2.53,2.53,0,0,1-1.85-.76,2.56,2.56,0,0,1-.74-1.86,2.45,2.45,0,0,1,1-2.13,5.1,5.1,0,0,1,3-.73h.5l.5,0V99.4a1.25,1.25,0,0,0-.35-.94,1.33,1.33,0,0,0-1-.34,2.11,2.11,0,0,0-1.14.34,2.75,2.75,0,0,0-.88,1l-.76-.26Zm3.33,4-.37,0h-.41a2.51,2.51,0,0,0-1.64.51,1.66,1.66,0,0,0-.63,1.34,1.58,1.58,0,0,0,.43,1.14,1.45,1.45,0,0,0,1.09.44,1.41,1.41,0,0,0,1.13-.47,2,2,0,0,0,.4-1.32Z"/><path class="cls-4" d="M114.49,96.89l.65.28-1,2.16a3.8,3.8,0,0,0-.72-.39,1.65,1.65,0,0,0-.58-.1.94.94,0,0,0-.76.36,1.57,1.57,0,0,0-.28,1v4.16h1v.8h-3.72v-.8h.74V99.55a1.3,1.3,0,0,0-.07-.47.53.53,0,0,0-.23-.21l-.35.36-.56-.5,1.42-1.8a4.63,4.63,0,0,1,1,.69,2.07,2.07,0,0,1,.51.8,4.8,4.8,0,0,1,.8-1.15,1.12,1.12,0,0,1,.76-.34,1.82,1.82,0,0,1,.52.1,3.12,3.12,0,0,1,.62.29Z"/><path class="cls-4" d="M117.76,96.93h.09c0,.22,0,.44,0,.63s0,.38,0,.55v6.24h.76v.8H115v-.8h.74v-6l-.74.21v-.78Zm-2.21-1.67a1.07,1.07,0,0,1,.34-.8,1.09,1.09,0,0,1,.81-.34,1.13,1.13,0,0,1,1.15,1.14,1.13,1.13,0,0,1-.34.82,1.07,1.07,0,0,1-.81.34,1.2,1.2,0,0,1-1.15-1.16Z"/><path class="cls-4" d="M120.65,96.76l.72.21-.15.57a4.89,4.89,0,0,1,1-.45,3.6,3.6,0,0,1,1-.15,2.76,2.76,0,0,1,2,.69A2.85,2.85,0,0,1,126,99.7v4.66h.74v.8h-2.58l-.19-.92a3.77,3.77,0,0,1-1.14.87,2.92,2.92,0,0,1-1.27.29,2.5,2.5,0,0,1-1.85-.76,2.53,2.53,0,0,1-.75-1.86,2.45,2.45,0,0,1,1-2.13,5.1,5.1,0,0,1,3-.73h.5l.5,0V99.4a1.22,1.22,0,0,0-.35-.94,1.33,1.33,0,0,0-1-.34,2.11,2.11,0,0,0-1.14.34,2.73,2.73,0,0,0-.87,1l-.77-.26Zm3.33,4-.37,0h-.41a2.53,2.53,0,0,0-1.64.51,1.68,1.68,0,0,0-.62,1.34,1.57,1.57,0,0,0,.42,1.14,1.47,1.47,0,0,0,1.1.44,1.41,1.41,0,0,0,1.12-.47,2,2,0,0,0,.4-1.32Z"/><path class="cls-4" d="M128.15,104.35v-6l-.74.2v-.78l2.69-.8h.1l0,1.35a7.93,7.93,0,0,1,1.57-1,3.2,3.2,0,0,1,1.35-.34,2.23,2.23,0,0,1,1.68.65,2.46,2.46,0,0,1,.62,1.78v5h.74v.8h-3.53v-.8h.76V99.61a1.29,1.29,0,0,0-.3-.92,1.16,1.16,0,0,0-.89-.32,2.4,2.4,0,0,0-1,.24,3.58,3.58,0,0,0-1,.67v5.07h.76v.8h-3.53v-.8Z"/><path class="cls-4" d="M138.23,96.76,139,97l-.15.57a4.89,4.89,0,0,1,1-.45,3.6,3.6,0,0,1,1-.15,2.78,2.78,0,0,1,2,.69,2.85,2.85,0,0,1,.68,2.07v4.66h.74v.8h-2.58l-.19-.92a3.77,3.77,0,0,1-1.14.87,2.92,2.92,0,0,1-1.27.29,2.56,2.56,0,0,1-2.6-2.62,2.45,2.45,0,0,1,1-2.13,5.1,5.1,0,0,1,3-.73h.5l.5,0V99.4a1.22,1.22,0,0,0-.35-.94,1.33,1.33,0,0,0-1-.34,2.11,2.11,0,0,0-1.14.34,2.85,2.85,0,0,0-.88,1l-.76-.26Zm3.33,4-.37,0h-.41a2.53,2.53,0,0,0-1.64.51,1.68,1.68,0,0,0-.62,1.34,1.57,1.57,0,0,0,.42,1.14,1.47,1.47,0,0,0,1.1.44,1.41,1.41,0,0,0,1.12-.47,2,2,0,0,0,.4-1.32Z"/><path class="cls-5" d="M35.54,76.36H33.76l-.31.72a1.08,1.08,0,0,0-.12.39.28.28,0,0,0,.1.19,1,1,0,0,0,.43.1v.12H32.43v-.12a.94.94,0,0,0,.37-.13,2.23,2.23,0,0,0,.38-.66l1.62-3.73h.11L36.49,77a1.82,1.82,0,0,0,.35.6.72.72,0,0,0,.44.15v.12h-1.8v-.12a.73.73,0,0,0,.37-.09.25.25,0,0,0,.09-.19,1.39,1.39,0,0,0-.13-.47Zm-.11-.25-.76-1.83-.8,1.83Z"/><path class="cls-5" d="M35.09,86.81v-.13h1.62v.13h-.17a.47.47,0,0,0-.42.22,1,1,0,0,0-.07.47v1.82a3.2,3.2,0,0,1-.14,1.05,1.29,1.29,0,0,1-.54.63,2,2,0,0,1-1.1.27A2.13,2.13,0,0,1,33.12,91a1.36,1.36,0,0,1-.55-.68,3.76,3.76,0,0,1-.11-1.1V87.48a.82.82,0,0,0-.12-.54.45.45,0,0,0-.37-.13H31.8v-.13h2v.13H33.6a.46.46,0,0,0-.4.17.93.93,0,0,0-.09.5v2a4.83,4.83,0,0,0,0,.6,1.13,1.13,0,0,0,.18.52,1,1,0,0,0,.37.31,1.26,1.26,0,0,0,.6.13,1.69,1.69,0,0,0,.82-.2,1,1,0,0,0,.49-.49,2.65,2.65,0,0,0,.13-1V87.48a.86.86,0,0,0-.1-.53.5.5,0,0,0-.39-.14Z"/><path class="cls-5" d="M40,89.07v1.31c0,.28,0,.45.1.52a.51.51,0,0,0,.4.15h.18v.12h-2v-.12h.18a.47.47,0,0,0,.43-.19,1,1,0,0,0,.07-.48v-2.9a1,1,0,0,0-.09-.53.56.56,0,0,0-.41-.14h-.18v-.13h1.73a3.2,3.2,0,0,1,1,.13,1.32,1.32,0,0,1,.62.42,1.06,1.06,0,0,1,.25.69,1.17,1.17,0,0,1-.38.9,1.53,1.53,0,0,1-1.07.34l-.37,0Zm0-.19a2.3,2.3,0,0,0,.32.05l.24,0a.83.83,0,0,0,.62-.27,1,1,0,0,0,.26-.69,1.25,1.25,0,0,0-.12-.54.92.92,0,0,0-.35-.38,1.14,1.14,0,0,0-.52-.12A2.15,2.15,0,0,0,40,87Z"/><path class="cls-5" d="M47,88.88a1.35,1.35,0,0,1,.67.31,1,1,0,0,1,.31.75A1.24,1.24,0,0,1,47.19,91a3.24,3.24,0,0,1-1.08.14h-2v-.12h.16a.41.41,0,0,0,.38-.18,1,1,0,0,0,.08-.49v-2.9a1,1,0,0,0-.1-.53.46.46,0,0,0-.36-.14h-.16v-.13h1.85a3.72,3.72,0,0,1,.84.08,1.29,1.29,0,0,1,.72.42,1.07,1.07,0,0,1,.25.7,1,1,0,0,1-.19.6A1.19,1.19,0,0,1,47,88.88Zm-1.66-.19.26,0h.34a1.73,1.73,0,0,0,.69-.11.69.69,0,0,0,.36-.31,1,1,0,0,0,.12-.47.89.89,0,0,0-.3-.67,1.35,1.35,0,0,0-.9-.28,2,2,0,0,0-.57.08Zm0,2.15a3,3,0,0,0,.73.09,1.3,1.3,0,0,0,.88-.27.85.85,0,0,0,.3-.66,1,1,0,0,0-.14-.5.9.9,0,0,0-.45-.38,1.75,1.75,0,0,0-.76-.14h-.34l-.22,0Z"/></g></g></svg>