<svg xmlns="http://www.w3.org/2000/svg" viewBox="0 0 165 165"><defs><style>.cls-1{fill:#f0db00;}.cls-2{fill:#3c3835;}</style></defs><g id="Capa_2" data-name="Capa 2"><g id="Capa_1-2" data-name="Capa 1"><rect class="cls-1" width="165" height="165"/><path class="cls-2" d="M19,76.41a18.85,18.85,0,0,1,3-.25,20.36,20.36,0,0,1,3.14.25l1.57,15.27,4.55-9.82a12.46,12.46,0,0,0,1.11-3,9.6,9.6,0,0,0,.23-2v-.45c.45-.08,1-.12,1.52-.16s1.11-.09,1.71-.09a19.2,19.2,0,0,1,3.21.25v.2a6.57,6.57,0,0,1-.47,2.27,29.19,29.19,0,0,1-1.67,3.46L28.72,97.26c-.55.06-1.09.13-1.65.14s-1.05,0-1.43,0-.86,0-1.49,0a9,9,0,0,1-1.64-.17Z"/><path class="cls-2" d="M56.8,88.23c-.31,1.68-.51,3.16-.65,4.48s-.21,2.33-.21,3.05v.74a3.12,3.12,0,0,0,.05.66,14.91,14.91,0,0,1-2.61.24,14.7,14.7,0,0,1-2.51-.24c-.06-.21-.1-.45-.17-.76a9,9,0,0,1-.06-1.34v-.74a6.12,6.12,0,0,1,.06-.93,10.8,10.8,0,0,1-3,3.09,7.26,7.26,0,0,1-4.24,1.25,4.8,4.8,0,0,1-4-1.68,7.18,7.18,0,0,1-1.33-4.49,18.45,18.45,0,0,1,.92-5.85,15.24,15.24,0,0,1,2.68-5,13.17,13.17,0,0,1,4.47-3.48,13.73,13.73,0,0,1,6.19-1.32,21.33,21.33,0,0,1,3.31.23,21.58,21.58,0,0,1,3,.7Zm-4.18-7.5c-.23-.06-.46-.08-.68-.12h-.65a5.48,5.48,0,0,0-3.29,1A8.26,8.26,0,0,0,45.73,84a10.68,10.68,0,0,0-1.27,3.13,13.12,13.12,0,0,0-.4,3c0,2,.66,3,2,3s2.5-.81,3.6-2.38A16.52,16.52,0,0,0,52,84.15Z"/><path class="cls-2" d="M64,80.77H60.89a12.53,12.53,0,0,1,.18-2.14,10.31,10.31,0,0,1,.61-2.22h3.1L65,75.19a14.9,14.9,0,0,0,.25-1.89c0-.6,0-1.09,0-1.52a6.82,6.82,0,0,1,2.62-1,16.34,16.34,0,0,1,2.89-.29A4.76,4.76,0,0,1,71,72.06a10.42,10.42,0,0,1-.13,1.4c-.06.52-.13,1-.23,1.63l-.25,1.32h5a10.9,10.9,0,0,1-.2,2.22,17.14,17.14,0,0,1-.57,2.14h-5l-1.4,8c0,.35-.1.7-.13,1a6.16,6.16,0,0,0-.07.92,2.58,2.58,0,0,0,.5,1.67,2.23,2.23,0,0,0,1.8.58,5.76,5.76,0,0,0,1.21-.08c.36-.06.68-.15,1-.21A7.45,7.45,0,0,1,73,95.68v.65A4.36,4.36,0,0,1,73,97a13.7,13.7,0,0,1-4.15.54,8.28,8.28,0,0,1-5-1.24c-1.1-.84-1.64-2.24-1.64-4.2a10.18,10.18,0,0,1,.09-1.23c.07-.45.12-.91.2-1.44Z"/><path class="cls-2" d="M79.83,80.77H77.29a1.93,1.93,0,0,0,0-.24,1.23,1.23,0,0,1,0-.29,9,9,0,0,1,.2-1.94,14.14,14.14,0,0,1,.6-1.89H86.2L82.54,97.26a21.67,21.67,0,0,1-2.89.23,19.07,19.07,0,0,1-2.72-.23ZM81,72.91a15.55,15.55,0,0,1,.17-2.68,20.37,20.37,0,0,1,.72-2.68,9.06,9.06,0,0,1,1.54-.22c.52,0,1-.06,1.42-.06s.93,0,1.45.06a8.13,8.13,0,0,1,1.46.22,14.53,14.53,0,0,1-.23,2.7,19.62,19.62,0,0,1-.72,2.66c-.5.08-1,.12-1.52.16s-1,.05-1.43.05-.87,0-1.4-.05A13.57,13.57,0,0,1,81,72.91Z"/><path class="cls-2" d="M90.05,76.41c.51-.08,1-.12,1.51-.16s1-.09,1.43-.09a16.79,16.79,0,0,1,2.78.25l-2.25,12.8a6.6,6.6,0,0,0-.17,1.51,2.24,2.24,0,0,0,.54,1.71,2.15,2.15,0,0,0,1.48.47,4,4,0,0,0,1.26-.27,3.81,3.81,0,0,0,1.43-1.2,10.14,10.14,0,0,0,1.42-2.55,20.11,20.11,0,0,0,1.15-4.36l1.5-8.11a19.56,19.56,0,0,1,2.94-.25,16.63,16.63,0,0,1,2.79.25l-2.18,11.9c-.29,1.68-.51,3.21-.67,4.48a27.8,27.8,0,0,0-.21,3v.74a4.24,4.24,0,0,0,0,.68,14.57,14.57,0,0,1-5.16,0c-.06-.22-.11-.49-.16-.78a8.27,8.27,0,0,1-.09-1.34c0-.24,0-.45,0-.7s0-.54.1-.9a7.28,7.28,0,0,1-1.2,1.6,7.13,7.13,0,0,1-1.66,1.34,7.53,7.53,0,0,1-2,.89,7.71,7.71,0,0,1-2.15.31,4.58,4.58,0,0,1-5.12-5.3,11.84,11.84,0,0,1,.09-1.29c.06-.45.11-.93.19-1.47Z"/><path class="cls-2" d="M110.46,85.34c.27-1.67.51-3.17.66-4.48s.22-2.31.22-3v-.74a3.3,3.3,0,0,0,0-.68,15,15,0,0,1,2.67-.25,9.84,9.84,0,0,1,1.2.09c.41,0,.85.08,1.29.16a5.58,5.58,0,0,1,.16.78,7.35,7.35,0,0,1,.08,1.32c0,.24,0,.49,0,.72a4.48,4.48,0,0,1-.11.88,8.46,8.46,0,0,1,2.77-2.92A7.13,7.13,0,0,1,123.39,76a5.33,5.33,0,0,1,3.32.93A4.49,4.49,0,0,1,128.15,80,8.65,8.65,0,0,1,131,77.15,7.4,7.4,0,0,1,135,76a5.17,5.17,0,0,1,3.67,1.18,5.32,5.32,0,0,1,1.25,4,15.54,15.54,0,0,1-.28,2.9l-2.35,13.24a21.39,21.39,0,0,1-2.94.23,18.27,18.27,0,0,1-2.77-.23l2.26-12.78a11.11,11.11,0,0,0,.17-1.75,2,2,0,0,0-.47-1.51,1.74,1.74,0,0,0-1.34-.45,3,3,0,0,0-1.24.29,4.12,4.12,0,0,0-1.35,1.07,9.78,9.78,0,0,0-1.3,2.22,17.57,17.57,0,0,0-1,3.67l-1.6,9.24a22.15,22.15,0,0,1-3,.23,18.42,18.42,0,0,1-2.79-.23l2.27-12.78a12.37,12.37,0,0,0,.16-1.75,2.13,2.13,0,0,0-.45-1.51,1.81,1.81,0,0,0-1.37-.45,3.2,3.2,0,0,0-1.26.29A3.74,3.74,0,0,0,118,82.23a11,11,0,0,0-1.34,2.58,22.73,22.73,0,0,0-1.11,4.36L114,97.26a22.39,22.39,0,0,1-2.94.23,18.06,18.06,0,0,1-2.77-.23Z"/><path class="cls-2" d="M143.2,77.25c.1,0,.21,0,.31-.06h.3l.37,0a1.15,1.15,0,0,1,.32.14.61.61,0,0,1,.22.23.76.76,0,0,1,.1.37.93.93,0,0,1-.08.39,1,1,0,0,1-.18.29,1.2,1.2,0,0,1-.23.22l-.25.14.56,1.29a1.06,1.06,0,0,1-.24,0,.93.93,0,0,1-.24,0l-.59-1.41,0,0a.12.12,0,0,0,.1,0l.14,0,.18-.13a.56.56,0,0,0,.16-.15,1.48,1.48,0,0,0,.13-.21.8.8,0,0,0,0-.24.43.43,0,0,0-.14-.37.63.63,0,0,0-.4-.12h-.11a.18.18,0,0,0-.14,0l-.48,2.7a.18.18,0,0,1-.11,0h-.21a.2.2,0,0,1-.11,0Z"/><path class="cls-2" d="M143.74,76.45a2.3,2.3,0,1,0,2.3,2.3A2.29,2.29,0,0,0,143.74,76.45Zm0,4.32a2,2,0,1,1,2-2A2,2,0,0,1,143.74,80.77Z"/></g></g></svg>