<svg width="37" height="38" viewBox="0 0 37 38" fill="none" xmlns="http://www.w3.org/2000/svg">
<path d="M0 37.0858C0.0133473 36.9785 0.0343439 36.8722 0.0628297 36.7678C1.04454 33.8697 2.02626 30.9717 3.01975 28.0776C3.09372 27.892 3.12336 27.6918 3.10631 27.4927C3.08927 27.2936 3.02602 27.1013 2.92158 26.931C1.54195 24.4958 0.750359 21.772 0.609913 18.9768C0.469468 16.1815 0.984056 13.3921 2.11265 10.8309C3.76975 7.01075 6.70668 3.88774 10.4179 1.99939C12.3694 0.965509 14.5034 0.32131 16.7009 0.102714C22.5912 -0.470607 27.6411 1.35538 31.7683 5.60031C34.1447 8.05436 35.7642 11.1408 36.4334 14.4907C36.8247 16.4303 36.8804 18.4226 36.5983 20.381C36.3504 22.4605 35.7404 24.4807 34.7959 26.3498C33.5081 28.8546 31.6572 31.0267 29.3886 32.6956C27.2392 34.277 24.7595 35.351 22.1357 35.8371C18.3355 36.6051 14.388 36.0986 10.9049 34.3959C10.6011 34.2313 10.2658 34.1332 9.92113 34.1081C9.57651 34.0831 9.2305 34.1316 8.90611 34.2506C6.00809 35.2324 3.08651 36.1473 0.176708 37.0858C0.117979 37.0922 0.0587295 37.0922 0 37.0858H0ZM4.57871 32.5935C4.80647 32.5307 4.9714 32.4914 5.1324 32.4364C6.70314 31.9299 8.27388 31.4272 9.84463 30.9089C10.0134 30.8397 10.1969 30.8142 10.3781 30.8348C10.5593 30.8554 10.7324 30.9214 10.8813 31.0267C11.1699 31.217 11.4702 31.3888 11.7806 31.5411C14.6899 33.0562 18.0194 33.5644 21.2482 32.9862C25.9604 32.1537 29.4593 29.6013 31.8507 25.5487C33.9162 22.046 34.305 18.2369 33.3665 14.3022C32.7029 11.619 31.2859 9.18148 29.2826 7.27708C25.7759 3.82145 21.5192 2.53344 16.6891 3.04393C14.834 3.27546 13.0437 3.87488 11.4232 4.80709C8.72387 6.29025 6.54008 8.56015 5.16239 11.3148C3.7847 14.0695 3.27841 17.1784 3.71088 20.2278C4.01633 22.4461 4.83226 24.5632 6.09448 26.4126C6.21482 26.5715 6.29185 26.7589 6.31801 26.9564C6.34416 27.154 6.31856 27.355 6.2437 27.5397C5.70965 29.0593 5.20701 30.5908 4.71223 32.1184C4.65332 32.244 4.62584 32.3775 4.57871 32.5935Z" fill="#3A37E0"/>
<path d="M12.9073 9.26793C14.215 9.3072 14.215 9.3072 14.643 10.446C15.0357 11.4591 15.4009 12.4762 15.7975 13.4814C15.8985 13.6936 15.9338 13.931 15.8988 14.1633C15.8638 14.3957 15.7601 14.6122 15.6011 14.7852C15.2713 15.1778 14.9375 15.543 14.6037 15.92C14.2699 16.297 14.211 16.5365 14.4663 17.0078C15.8118 19.5232 17.9598 21.5164 20.5686 22.6703C20.7413 22.7843 20.952 22.8256 21.1549 22.7852C21.3579 22.7447 21.5367 22.6258 21.6524 22.4543C22.1354 21.9203 22.5988 21.3705 23.07 20.8247C23.4038 20.432 23.5727 20.3731 24.0203 20.6008C25.2808 21.237 26.5335 21.8888 27.7705 22.5643C27.8642 22.6354 27.9407 22.7267 27.9944 22.8313C28.0481 22.936 28.0776 23.0514 28.0807 23.169C28.116 24.9322 27.0636 26.2359 25.2573 26.8328C24.1627 27.2011 22.9749 27.183 21.892 26.7817C20.0852 26.2174 18.3667 25.4018 16.7871 24.3588C14.9122 22.9699 13.2994 21.2587 12.0238 19.305C11.07 18.0159 10.3399 16.5756 9.86401 15.0443C9.62059 14.0617 9.6575 13.0305 9.97054 12.0678C10.2836 11.105 10.8602 10.2493 11.635 9.59779C11.8134 9.45894 12.0183 9.35805 12.2371 9.30132C12.4559 9.2446 12.684 9.23323 12.9073 9.26793Z" fill="#3A37E0"/>
</svg>
