<svg width="38" height="43" viewBox="0 0 38 43" fill="none" xmlns="http://www.w3.org/2000/svg">
<path d="M32.2115 13.8965C32.2115 10.7414 30.8072 7.71544 28.3075 5.48441C25.8079 3.25338 22.4177 2 18.8827 2C15.3477 2 11.9574 3.25338 9.4578 5.48441C6.95817 7.71544 5.55389 10.7414 5.55389 13.8965" stroke="white" stroke-width="2.5"/>
<path d="M4.35294 15.1465H8.74659V29.9505H4.35294C2.63923 29.9505 1.25 28.5613 1.25 26.8476V18.2494C1.25 16.5357 2.63924 15.1465 4.35294 15.1465Z" stroke="white" stroke-width="2.5"/>
<path d="M33.412 15.1465H29.0183V29.9505H33.412C35.1257 29.9505 36.5149 28.5613 36.5149 26.8476V18.2494C36.5149 16.5357 35.1257 15.1465 33.412 15.1465Z" stroke="white" stroke-width="2.5"/>
<mask id="path-4-inside-1_780_1658" fill="white">
<rect x="12.9196" y="34.7959" width="12.9196" height="7.9505" rx="2.17647"/>
</mask>
<rect x="12.9196" y="34.7959" width="12.9196" height="7.9505" rx="2.17647" stroke="white" stroke-width="5" mask="url(#path-4-inside-1_780_1658)"/>
<path d="M32.2126 30.1187C32.2126 33.6812 31.6573 39.3114 23.8821 39.3114" stroke="white" stroke-width="2.5"/>
</svg>
