<svg width="22" height="35" viewBox="0 0 22 35" fill="none" xmlns="http://www.w3.org/2000/svg">
<path d="M3.6675 3.89098C5.53657 1.89806 8.10372 0.907227 11.369 0.907227C14.3865 0.907227 16.8073 1.75732 18.6257 3.46312C20.4441 5.16893 21.3505 7.34201 21.3505 9.99361C21.3505 11.5981 21.024 12.8985 20.3653 13.9006C19.7066 14.9027 18.3555 16.3665 16.3175 18.3087C14.8312 19.7162 13.8686 20.9097 13.4182 21.8836C12.9678 22.8575 12.7482 24.3044 12.7482 26.2072H8.7061C8.7061 24.0398 8.96507 22.2946 9.47738 20.9716C9.98968 19.6486 11.1381 18.1286 12.9115 16.4171L14.7637 14.6212C15.321 14.1089 15.7714 13.5685 16.1148 13.0111C16.7454 12.0259 17.0606 11.007 17.0606 9.94294C17.0606 8.45669 16.6102 7.17312 15.7039 6.08095C14.7975 4.98878 13.3056 4.44833 11.217 4.44833C8.63292 4.44833 6.84829 5.38849 5.86309 7.26319C5.30575 8.31032 4.99048 9.81346 4.91167 11.7839H0.863892C0.863892 8.51299 1.79843 5.88391 3.6675 3.89098ZM8.6104 29.9735H13.1311V34.6969H8.6104V29.9735Z" fill="#3A37E0"/>
</svg>
