<svg width="14" height="16" viewBox="0 0 14 16" fill="none" xmlns="http://www.w3.org/2000/svg">
<path d="M13 6.6665C13 11.3332 7 15.3332 7 15.3332C7 15.3332 1 11.3332 1 6.6665C1 5.07521 1.63214 3.54908 2.75736 2.42386C3.88258 1.29864 5.4087 0.666504 7 0.666504C8.5913 0.666504 10.1174 1.29864 11.2426 2.42386C12.3679 3.54908 13 5.07521 13 6.6665Z" stroke="white" stroke-linecap="round" stroke-linejoin="round"/>
<path d="M7 8.66602C8.10457 8.66602 9 7.77059 9 6.66602C9 5.56145 8.10457 4.66602 7 4.66602C5.89543 4.66602 5 5.56145 5 6.66602C5 7.77059 5.89543 8.66602 7 8.66602Z" stroke="white" stroke-linecap="round" stroke-linejoin="round"/>
</svg>
