<svg width="88" height="67" viewBox="0 0 88 67" fill="none" xmlns="http://www.w3.org/2000/svg">
<path d="M0 0.0717773H4.76794V30.8429H23.0497V35.5589H0V0.0717773Z" fill="white"/>
<path d="M23.0493 0.0722656H69.9665V4.73269H27.8118V15.6337H69.9665V20.1954H27.8118V35.5594H23.0493V0.0722656Z" fill="white"/>
<path d="M23.0493 30.7939H34.2593C43.8283 30.7939 50.9996 38.3432 50.9996 48.5838C50.9996 58.7194 43.8781 66.2748 34.2593 66.2748H23.0493V30.7939ZM27.8118 35.5593V61.4848H34.3477C40.9775 61.4848 46.0991 55.8614 46.0991 48.5591C46.1194 46.8335 45.8287 45.121 45.2441 43.5236C44.6596 41.9262 43.7932 40.4766 42.6966 39.2613C41.6001 38.0459 40.2957 37.0896 38.8614 36.4494C37.427 35.8091 35.8919 35.498 34.3477 35.5346L27.8118 35.5593Z" fill="white"/>
<path d="M77.1325 15.6523H69.9502V38.7569H77.1325C83.3314 38.7569 88 33.8187 88 27.2386C88 20.6584 83.3314 15.6523 77.1325 15.6523ZM83.7624 27.2386C83.7647 28.1998 83.5952 29.1519 83.2637 30.0389C82.9322 30.9259 82.4454 31.73 81.8319 32.4039C81.2184 33.0778 80.4906 33.608 79.6912 33.9633C78.8918 34.3186 78.0369 34.4919 77.1767 34.473H74.0938V19.9424H77.1712C78.0391 19.9138 78.9031 20.0824 79.7109 20.4379C80.5188 20.7934 81.2536 21.3285 81.8709 22.0107C82.4882 22.6929 82.9751 23.508 83.3021 24.4066C83.6292 25.3052 83.7895 26.2687 83.7734 27.2386H83.7624Z" fill="white"/>
</svg>
