<svg width="18" height="18" viewBox="0 0 18 18" fill="none" xmlns="http://www.w3.org/2000/svg">
<path d="M8.79893 1.80702C11.1422 1.80702 11.419 1.80702 12.3442 1.85437C12.8948 1.85762 13.4408 1.95601 13.9581 2.14519C14.3382 2.28977 14.6834 2.51341 14.9709 2.80137C15.2584 3.08932 15.4817 3.43505 15.626 3.81575C15.8211 4.33728 15.9239 4.88884 15.9299 5.44572C15.9704 6.3723 15.9772 6.6496 15.9772 8.9965C15.9772 11.3434 15.9772 11.6274 15.9299 12.554C15.9231 13.1108 15.8203 13.6623 15.626 14.184C15.481 14.5692 15.25 14.9162 14.9508 15.1985C14.6664 15.4952 14.3207 15.7261 13.9378 15.8749C13.4171 16.0702 12.8664 16.1732 12.3104 16.1792C11.3853 16.2198 11.1084 16.2265 8.76517 16.2265C6.42193 16.2265 6.13832 16.2265 5.21318 16.1792C4.65718 16.1732 4.10646 16.0702 3.58575 15.8749C3.20564 15.7303 2.86046 15.5066 2.57295 15.2187C2.28545 14.9307 2.06216 14.585 1.9178 14.2043C1.72356 13.6825 1.62076 13.1311 1.61392 12.5743C1.57341 11.6477 1.56666 11.3704 1.56666 9.01678C1.56666 6.66313 1.56666 6.39259 1.61392 5.46601C1.61995 4.90913 1.72277 4.35756 1.9178 3.83604C2.06634 3.4526 2.29682 3.10634 2.59308 2.82153C2.87494 2.52182 3.22138 2.2905 3.60601 2.14519C4.12672 1.94986 4.67743 1.84687 5.23344 1.84084C6.15858 1.80026 6.43544 1.79349 8.78542 1.79349L8.79893 1.80702ZM8.78542 0.204102C6.39492 0.204102 6.0843 0.2041 5.15916 0.258207C4.4315 0.270297 3.71158 0.409928 3.03202 0.670774C2.44951 0.897134 1.92048 1.24258 1.47867 1.68508C1.03686 2.12759 0.691949 2.65744 0.465941 3.24086C0.205503 3.92148 0.0660943 4.64253 0.0540238 5.37132C0.0135069 6.31143 0 6.60902 0 8.9965C0 11.384 1.23769e-06 11.7018 0.0540238 12.6284C0.0660943 13.3572 0.205503 14.0783 0.465941 14.7589C0.691949 15.3423 1.03686 15.8722 1.47867 16.3147C1.92048 16.7572 2.44951 17.1026 3.03202 17.329C3.71158 17.5898 4.4315 17.7295 5.15916 17.7415C6.0978 17.7821 6.39492 17.7957 8.78542 17.7957C11.1759 17.7957 11.4866 17.7956 12.4049 17.7415C13.1326 17.7295 13.8525 17.5898 14.5321 17.329C15.1146 17.1026 15.6436 16.7572 16.0854 16.3147C16.5272 15.8722 16.8721 15.3423 17.0982 14.7589C17.3586 14.0783 17.498 13.3572 17.5101 12.6284C17.5506 11.6883 17.5641 11.3907 17.5641 8.9965C17.5641 6.60226 17.5641 6.29114 17.5101 5.37132C17.498 4.64253 17.3586 3.92148 17.0982 3.24086C16.8721 2.65744 16.5272 2.12759 16.0854 1.68508C15.6436 1.24258 15.1146 0.897134 14.5321 0.670774C13.8525 0.409928 13.1326 0.270297 12.4049 0.258207C11.4663 0.217627 11.1692 0.204102 8.78542 0.204102Z" fill="white"/>
<path d="M8.79959 4.79305C7.90601 4.78769 7.03097 5.04826 6.28547 5.54171C5.53997 6.03516 4.9576 6.73926 4.61224 7.56468C4.26687 8.3901 4.17408 9.29966 4.34561 10.178C4.51715 11.0563 4.9453 11.8638 5.57575 12.4981C6.20619 13.1323 7.01051 13.5648 7.88671 13.7405C8.76291 13.9163 9.67149 13.8274 10.4972 13.4853C11.3229 13.1431 12.0285 12.563 12.5246 11.8186C13.0206 11.0742 13.2848 10.199 13.2834 9.30405C13.2816 8.10821 12.8065 6.96186 11.9622 6.11627C11.1179 5.27068 9.97334 4.79484 8.77933 4.79305H8.79959ZM8.77933 12.2325C8.1994 12.2338 7.63212 12.0628 7.14928 11.7411C6.66644 11.4194 6.28975 10.9615 6.06689 10.4252C5.84404 9.88902 5.78505 9.29864 5.89736 8.72882C6.00968 8.159 6.28827 7.63537 6.69787 7.2242C7.10746 6.81303 7.62965 6.5328 8.19833 6.419C8.76702 6.30519 9.35663 6.36292 9.89254 6.58488C10.4285 6.80684 10.8866 7.18305 11.2089 7.66588C11.5312 8.14872 11.7033 8.71648 11.7033 9.29729C11.7033 10.0746 11.3954 10.8201 10.8473 11.3704C10.2991 11.9207 9.55543 12.2307 8.77933 12.2325Z" fill="white"/>
<path d="M14.5385 4.31626C14.5385 4.52492 14.4767 4.7289 14.361 4.9024C14.2452 5.0759 14.0807 5.21113 13.8882 5.29098C13.6957 5.37083 13.4839 5.39173 13.2796 5.35102C13.0752 5.31031 12.8875 5.20983 12.7402 5.06228C12.5929 4.91473 12.4925 4.72674 12.4519 4.52208C12.4112 4.31743 12.4321 4.1053 12.5118 3.91252C12.5916 3.71974 12.7266 3.55496 12.8998 3.43903C13.0731 3.32311 13.2767 3.26123 13.4851 3.26123C13.7645 3.26123 14.0324 3.37238 14.23 3.57024C14.4275 3.7681 14.5385 4.03645 14.5385 4.31626Z" fill="white"/>
</svg>
