<svg width="20" height="18" viewBox="0 0 20 18" fill="none" xmlns="http://www.w3.org/2000/svg">
<path d="M4.66629 1.96111C4.66234 2.34415 4.54514 2.71741 4.32947 3.03397C4.11379 3.35054 3.80931 3.59627 3.45429 3.74012C3.09928 3.88397 2.70962 3.91955 2.33442 3.84241C1.95922 3.76527 1.61525 3.57883 1.34579 3.30659C1.07632 3.03434 0.893429 2.68842 0.82014 2.31244C0.746852 1.93647 0.786427 1.54724 0.933911 1.19372C1.08139 0.840196 1.3302 0.538221 1.64896 0.325804C1.96772 0.113387 2.34218 2.03562e-05 2.72523 0C2.98145 0.00131059 3.23491 0.0531035 3.47112 0.152367C3.70733 0.251631 3.92168 0.396403 4.10192 0.578508C4.28217 0.760612 4.42478 0.976467 4.52162 1.21369C4.61845 1.45091 4.66761 1.70489 4.66629 1.96111ZM4.66629 5.46306H0.744141V18H4.66629V5.46306ZM10.9197 5.46306H7.02756V18H10.9197V11.4164C10.9197 7.75935 15.6423 7.45918 15.6423 11.4164V18H19.5494V10.0856C19.5494 3.91219 12.5456 4.13728 10.9197 7.17397V5.46306Z" fill="white"/>
</svg>
