<svg width="88" height="60" viewBox="0 0 88 60" fill="none" xmlns="http://www.w3.org/2000/svg">
<path d="M0 0H4.76794V27.5414H23.0497V31.7624H0V0Z" fill="white"/>
<path d="M23.0498 0H69.9669V4.17127H27.8123V13.9282H69.9669V18.0111H27.8123V31.7624H23.0498V0Z" fill="white"/>
<path d="M23.0498 27.4971H34.2598C43.8288 27.4971 51.0001 34.254 51.0001 43.4197C51.0001 52.4915 43.8785 59.254 34.2598 59.254H23.0498V27.4971ZM27.8123 31.7623V54.9667H34.3482C40.978 54.9667 46.0995 49.9335 46.0995 43.3976C46.1199 41.8531 45.8292 40.3204 45.2446 38.8907C44.6601 37.4609 43.7937 36.1635 42.6971 35.0757C41.6005 33.9879 40.2962 33.132 38.8618 32.5589C37.4275 31.9858 35.8924 31.7074 34.3482 31.7402L27.8123 31.7623Z" fill="white"/>
<path d="M77.1325 13.9448H69.9502V34.6244H77.1325C83.3314 34.6244 87.9999 30.2045 87.9999 24.315C87.9999 18.4255 83.3314 13.9448 77.1325 13.9448ZM83.7623 24.315C83.7647 25.1753 83.5952 26.0275 83.2637 26.8214C82.9322 27.6153 82.4454 28.335 81.8319 28.9382C81.2184 29.5414 80.4906 30.0159 79.6912 30.3339C78.8918 30.652 78.0369 30.8071 77.1767 30.7901H74.0938V17.7846H77.1712C78.0391 17.759 78.9031 17.9099 79.7109 18.2281C80.5188 18.5463 81.2536 19.0252 81.8709 19.6358C82.4882 20.2464 82.9751 20.9759 83.3021 21.7802C83.6291 22.5846 83.7895 23.4469 83.7734 24.315H83.7623Z" fill="white"/>
</svg>
