<svg width="72" height="24" viewBox="0 0 72 24" fill="none" xmlns="http://www.w3.org/2000/svg">
<path d="M6.38513 9.93981H0.139993L0 9.80085V0.36162L0.139993 0.222656H1.80447L1.94343 0.36162V8.13329L2.0824 8.27122H6.38513L6.52306 8.41019V9.80085L6.38513 9.93981Z" fill="white"/>
<path d="M15.5433 9.94013H14.2947L14.1557 9.80117L13.4619 7.99773L13.184 7.85876H9.71505L9.43713 7.99773L8.74334 9.80117L8.60437 9.94013H7.35576L7.2168 9.80117V8.41359L10.4078 0.365038L10.5468 0.226074H12.3502L12.4892 0.365038L15.6802 8.41359V9.80117L15.5433 9.94013ZM11.5185 2.72947H11.3806L10.1319 6.0543L10.2699 6.19326H12.6333L12.7712 6.0543L11.5185 2.72947Z" fill="white"/>
<path d="M27.1331 1.89123H22.8304L22.6914 2.02916V4.11153L22.8304 4.25049H26.8552L26.9942 4.38843V5.77702L26.8552 5.9201H22.8304L22.6914 6.05906V9.80692L22.5525 9.94485H20.888L20.749 9.80692V0.361619L20.888 0.222656H27.1331L27.2711 0.361619V1.74918L27.1331 1.89123Z" fill="white"/>
<path d="M35.5965 9.93981H29.0745L28.9355 9.80188V0.36162L29.0745 0.222656H35.5965L35.7365 0.36162V1.7492L35.5965 1.88816H31.0179L30.879 2.0261V3.96953L31.0179 4.10849H35.3196L35.4586 4.24745V5.63503L35.3196 5.774H31.0179L30.879 5.92017V8.14152L31.0179 8.27946H35.5965L35.7365 8.41842V9.80703L35.5965 9.93981Z" fill="white"/>
<path d="M43.645 5.9201V6.05906L45.4484 8.41832V9.80692L45.3095 9.94485H44.4777L44.1998 9.80692L41.4205 6.19802L41.1457 6.05391H39.7592L39.6202 6.19287V9.80177L39.4812 9.9397H37.8167L37.6768 9.80177V0.361619L37.8167 0.222656H42.3964C44.3388 0.222656 45.7264 1.19436 45.7264 3.13674C45.7264 4.66635 44.7546 5.63806 43.645 5.9201ZM42.3964 1.89638H39.7592L39.6202 2.03431V4.25564L39.7592 4.39357H42.3964C43.2291 4.39357 43.784 4.11668 43.784 3.14497C43.784 2.17327 43.2291 1.89123 42.3964 1.89123V1.89638Z" fill="white"/>
<path d="M49.1962 9.93981H47.5287L47.3887 9.80188V0.36162L47.5287 0.222656H49.1962L49.3352 0.36162V9.79879L49.1962 9.93981Z" fill="white"/>
<path d="M59.0493 9.93981H57.8007L57.6617 9.80188L56.9679 7.99741L56.69 7.85845H53.2211L52.9431 7.99741L52.2494 9.80188L52.1114 9.93981H50.8618L50.7197 9.80188V8.41327L53.9107 0.36162L54.0497 0.222656H55.8542L55.9921 0.36162L59.1831 8.41019V9.79879L59.0493 9.93981ZM55.0255 2.72915H54.8855L53.6369 6.05398L53.7759 6.19294H56.1352L56.2783 6.05398L55.0255 2.72915Z" fill="white"/>
<path d="M3.19308 23.1906H0.139993L0 23.0516V13.6155L0.139993 13.4766H3.19308C6.66202 13.4766 7.91064 15.281 7.91064 18.3331C7.91064 21.3851 6.66305 23.1906 3.19308 23.1906ZM3.33101 15.1421H2.0824L1.94343 15.281V21.3871L2.0824 21.5251H3.33101C5.27444 21.5251 5.96823 20.5544 5.96823 18.3341C5.96823 16.1138 5.27444 15.1421 3.33101 15.1421Z" fill="white"/>
<path d="M16.2342 23.1906H9.71318L9.57422 23.0516V13.6155L9.71318 13.4766H16.2342L16.3721 13.6155V15.0031L16.2342 15.1421H11.6535L11.5146 15.281V17.2234L11.6535 17.3634H15.9552L16.0942 17.5003V18.891L15.9552 19.0299H11.6556L11.5166 19.1679V21.3892L11.6556 21.5271H16.2342L16.3721 21.6661V23.0537L16.2342 23.1906Z" fill="white"/>
<path d="M23.9411 23.2145H20.888L20.749 23.0755V13.6414L20.888 13.5024H23.9411C27.41 13.5024 28.6597 15.3059 28.6597 18.36C28.6597 21.4141 27.41 23.2145 23.9411 23.2145ZM24.08 15.1649H22.8304L22.6914 15.3028V21.41L22.8304 21.5479H24.08C26.0224 21.5479 26.7162 20.5762 26.7162 18.3569C26.7162 16.1376 26.0224 15.1628 24.08 15.1628V15.1649Z" fill="white"/>
<path d="M32.1277 23.2145H30.4622L30.3232 23.0755V13.6414L30.4622 13.5024H32.1277L32.2656 13.6414V23.0786L32.1277 23.2145Z" fill="white"/>
<path d="M38.0248 23.7771C35.2455 23.7771 34 22.3895 34 20.5861L34.139 20.4471H35.8045L35.9434 20.5861C35.9434 21.5578 36.4983 22.1126 38.1638 22.1126C39.4124 22.1126 40.1062 21.7009 40.1062 20.864C40.1062 19.8923 39.5513 19.6154 37.6089 19.3375C35.6665 19.0596 34.139 18.3668 34.139 16.4234C34.139 15.0347 35.2486 13.7861 37.8869 13.7861C40.5251 13.7861 41.6327 15.0347 41.6327 16.7013L41.4948 16.8392H39.8282L39.6903 16.7013C39.6903 15.8675 39.2786 15.4516 37.7469 15.4516C36.4983 15.4516 36.0814 15.8634 36.0814 16.4234C36.0814 17.2561 36.6372 17.534 38.5796 17.8109C40.522 18.0878 42.0486 18.9206 42.0486 20.864C42.0486 22.3895 40.9389 23.7771 38.0248 23.7771Z" fill="white"/>
<path d="M50.3076 23.2145H43.7835L43.6445 23.0755V13.6414L43.7835 13.5024H50.3076L50.4465 13.6414V15.029L50.3076 15.1628H45.7269L45.588 15.3007V17.2442L45.7269 17.3831H50.0276L50.1676 17.5221V18.9097L50.0276 19.0486H45.7269L45.588 19.1876V21.4079L45.7269 21.5459H50.3076L50.4465 21.6848V23.0734L50.3076 23.2145Z" fill="white"/>
<path d="M52.5287 13.4961H54.4711L54.749 13.6351L58.4948 20.017H58.6338V13.6402L58.7738 13.5012H60.4372L60.5772 13.6402V23.0773L60.4372 23.2132H58.4948L58.2179 23.0742L54.4711 16.6922H54.3321V23.0742L54.1931 23.2132H52.5287L52.3887 23.0742V13.6402L52.5287 13.4961ZM55.4428 11.9696C55.1649 11.9696 55.031 12.1085 55.031 12.5244L54.8921 12.6633H54.1983L54.0604 12.5244C54.0604 11.4147 54.7541 10.8589 55.5869 10.8589C56.6965 10.8589 56.9734 11.8306 57.5303 11.8306C57.8062 11.8306 57.9421 11.6916 57.9421 11.2758L58.081 11.1368H58.7759L58.9138 11.2758C58.9138 12.3854 58.22 12.9413 57.3872 12.9413C56.2797 12.9413 55.9976 11.9696 55.4428 11.9696Z" fill="white"/>
<path d="M66.9598 23.3495C64.0457 23.3495 62.2412 21.2681 62.2412 18.354C62.2412 15.4398 64.0457 13.3574 66.9598 13.3574C69.8739 13.3574 71.6784 15.4388 71.6784 18.354C71.6784 21.2691 69.875 23.3495 66.9598 23.3495ZM66.9598 15.0229C65.1564 15.0229 64.1805 16.4105 64.1805 18.354C64.1805 20.2974 65.1522 21.684 66.9598 21.684C68.7674 21.684 69.7391 20.2964 69.7391 18.354C69.7391 16.4116 68.7643 15.0229 66.9598 15.0229Z" fill="white"/>
<path d="M63.8784 4.32988H63.5212V1.6839L62.3508 3.65552H62.1099L60.9231 1.67875L60.9323 4.32988H60.5762V0.909668H60.852L62.2304 3.2231L63.6076 0.909668H63.8794L63.8784 4.32988Z" fill="white"/>
<path d="M66.5326 0.909668C67.5887 0.909668 68.3329 1.60874 68.3329 2.59507C68.3329 3.61537 67.5887 4.32988 66.5326 4.32988H65.3457V0.909668H66.5326ZM66.5326 3.99836C67.3725 3.99836 67.9654 3.41563 67.9654 2.59095C67.9654 1.80127 67.3725 1.23295 66.5326 1.23295H65.7029V3.99836H66.5326Z" fill="white"/>
<path d="M69.9832 2.46431H71.7979V2.79583H69.9832V4.00248H71.9997V4.32988H69.626V0.909668H71.9997V1.23707H69.9832V2.46431Z" fill="white"/>
<path d="M60.6215 8.57809L61.7229 7.5187C62.1089 7.13983 62.2252 6.95761 62.2252 6.69508C62.2252 6.36254 61.9432 6.12163 61.5602 6.12163C61.2741 6.12163 61.0538 6.22458 60.7542 6.47888L60.5762 6.26679C60.8412 6.00886 61.1946 5.86161 61.5644 5.85498C62.1254 5.85498 62.5247 6.19987 62.5247 6.6786C62.5247 7.0235 62.4002 7.2397 61.9226 7.69269L61.0373 8.53691H62.5814V8.80355H60.6256L60.6215 8.57809Z" fill="white"/>
<path d="M64.0693 7.34749C64.0693 6.4662 64.5603 5.85156 65.2541 5.85156C65.9479 5.85156 66.443 6.46929 66.443 7.34749C66.443 8.22569 65.952 8.84342 65.2541 8.84342C64.5562 8.84342 64.0693 8.22878 64.0693 7.34749ZM66.1394 7.34749C66.1394 6.60416 65.7945 6.1213 65.2541 6.1213C64.7137 6.1213 64.373 6.60416 64.373 7.34749C64.373 8.09082 64.7178 8.56956 65.2541 8.56956C65.7904 8.56956 66.1394 8.09185 66.1394 7.34749Z" fill="white"/>
<path d="M67.8285 8.57809L68.9289 7.5187C69.316 7.13983 69.4323 6.95761 69.4323 6.69508C69.4323 6.36254 69.1492 6.12163 68.7673 6.12163C68.4801 6.12163 68.2598 6.22458 67.9613 6.47888L67.7822 6.26679C68.0478 6.00897 68.4014 5.86176 68.7714 5.85498C69.3324 5.85498 69.7308 6.19987 69.7308 6.6786C69.7308 7.0235 69.6063 7.2397 69.1286 7.69269L68.2434 8.53691H69.7874V8.80355H67.8316L67.8285 8.57809Z" fill="white"/>
<path d="M72 8.8026H71.6911V6.21228L71.2012 6.42848V6.14947L71.7992 5.89209H71.9948L72 8.8026Z" fill="white"/>
</svg>
