<svg width="158" height="51" viewBox="0 0 158 51" fill="none" xmlns="http://www.w3.org/2000/svg">
<path d="M14.0119 21.3239H0.307208L0 21.0189V0.304951L0.307208 0H3.95982L4.26477 0.304951V17.3595L4.56972 17.6622H14.0119L14.3145 17.9672V21.0189L14.0119 21.3239Z" fill="white"/>
<path d="M34.1095 21.3239H31.3695L31.0645 21.019L29.542 17.0614L28.9321 16.7565H21.3197L20.7098 17.0614L19.1873 21.019L18.8824 21.3239H16.1424L15.8374 21.019V17.974L22.8399 0.311787L23.1449 0.00683594H27.1025L27.4074 0.311787L34.4099 17.974V21.019L34.1095 21.3239ZM25.2773 5.50044H24.9746L22.2346 12.7966L22.5373 13.1016H27.7236L28.0263 12.7966L25.2773 5.50044Z" fill="white"/>
<path d="M59.5399 3.66165H50.0977L49.7928 3.96434V8.53406L50.0977 8.83901H58.93L59.2349 9.1417V12.1889L58.93 12.5029H50.0977L49.7928 12.8079V21.0325L49.4878 21.3352H45.8352L45.5303 21.0325V0.304951L45.8352 0H59.5399L59.8426 0.304951V3.34992L59.5399 3.66165Z" fill="white"/>
<path d="M78.1148 21.3239H63.8025L63.4976 21.0212V0.304951L63.8025 0H78.1148L78.422 0.304951V3.34992L78.1148 3.65487H68.0673L67.7623 3.95756V8.22234L68.0673 8.52728H77.5072L77.8121 8.83224V11.8772L77.5072 12.1822H68.0673L67.7623 12.5029V17.3776L68.0673 17.6803H78.1148L78.422 17.9852V21.0325L78.1148 21.3239Z" fill="white"/>
<path d="M95.7791 12.5029V12.8079L99.7367 17.9852V21.0325L99.4318 21.3352H97.6066L96.9967 21.0325L90.8977 13.1128L90.2946 12.7966H87.2519L86.9469 13.1015V21.0212L86.642 21.3239H82.9893L82.6821 21.0212V0.304951L82.9893 0H93.0391C97.3016 0 100.347 2.13239 100.347 6.3949C100.347 9.7516 98.2142 11.884 95.7791 12.5029ZM93.0391 3.67295H87.2519L86.9469 3.97564V8.85031L87.2519 9.153H93.0391C94.8666 9.153 96.0841 8.54535 96.0841 6.41297C96.0841 4.28058 94.8666 3.66165 93.0391 3.66165V3.67295Z" fill="white"/>
<path d="M107.959 21.3239H104.299L103.992 21.0212V0.304951L104.299 0H107.959L108.264 0.304951V21.0144L107.959 21.3239Z" fill="white"/>
<path d="M129.581 21.3239H126.841L126.536 21.0212L125.014 17.0613L124.404 16.7564H116.791L116.181 17.0613L114.659 21.0212L114.356 21.3239H111.614L111.302 21.0212V17.9739L118.305 0.304951L118.61 0H122.57L122.872 0.304951L129.875 17.9672V21.0144L129.581 21.3239ZM120.751 5.50038H120.444L117.704 12.7966L118.009 13.1015H123.186L123.5 12.7966L120.751 5.50038Z" fill="white"/>
<path d="M7.00705 50.4001H0.307208L0 50.0951V29.388L0.307208 29.083H7.00705C14.6195 29.083 17.3595 33.0428 17.3595 39.7404C17.3595 46.438 14.6217 50.4001 7.00705 50.4001ZM7.30975 32.7379H4.56972L4.26477 33.0428V46.4425L4.56972 46.7452H7.30975C11.5745 46.7452 13.097 44.6151 13.097 39.7427C13.097 34.8703 11.5745 32.7379 7.30975 32.7379Z" fill="white"/>
<path d="M35.6291 50.4001H21.3191L21.0142 50.0951V29.388L21.3191 29.083H35.6291L35.9318 29.388V32.4329L35.6291 32.7379H25.5771L25.2722 33.0428V37.3053L25.5771 37.6126H35.017L35.3219 37.913V40.9647L35.017 41.2697H25.5816L25.2767 41.5724V46.447L25.5816 46.7497H35.6291L35.9318 47.0547V50.0997L35.6291 50.4001Z" fill="white"/>
<path d="M52.5351 50.4522H45.8352L45.5303 50.1473V29.4446L45.8352 29.1396H52.5351C60.1475 29.1396 62.8898 33.0972 62.8898 39.7993C62.8898 46.5014 60.1475 50.4522 52.5351 50.4522ZM52.84 32.7877H50.0977L49.7928 33.0904V46.4924L50.0977 46.7951H52.84C57.1025 46.7951 58.625 44.6627 58.625 39.7925C58.625 34.9224 57.1025 32.7832 52.84 32.7832V32.7877Z" fill="white"/>
<path d="M70.5023 50.4522H66.8474L66.5425 50.1473V29.4446L66.8474 29.1396H70.5023L70.805 29.4446V50.154L70.5023 50.4522Z" fill="white"/>
<path d="M83.2917 50.7504C77.1927 50.7504 74.4595 47.7054 74.4595 43.7479L74.7644 43.4429H78.4193L78.7242 43.7479C78.7242 45.8803 79.9418 47.0978 83.5966 47.0978C86.3367 47.0978 87.8592 46.1942 87.8592 44.3578C87.8592 42.2254 86.6416 41.6177 82.3791 41.0078C78.1166 40.3979 74.7644 38.8777 74.7644 34.6129C74.7644 31.5657 77.1995 28.8257 82.989 28.8257C88.7785 28.8257 91.2091 31.5657 91.2091 35.2228L90.9064 35.5255H87.2493L86.9466 35.2228C86.9466 33.3931 86.043 32.4806 82.6818 32.4806C79.9418 32.4806 79.0269 33.3841 79.0269 34.6129C79.0269 36.4404 80.2467 37.0503 84.5092 37.6579C88.7718 38.2656 92.1217 40.093 92.1217 44.3578C92.1217 47.7054 89.6866 50.7504 83.2917 50.7504Z" fill="white"/>
<path d="M110.399 50.4522H96.0818L95.7769 50.1473V29.4446L96.0818 29.1396H110.399L110.704 29.4446V32.4896L110.399 32.7832H100.347L100.042 33.0859V37.3507L100.347 37.6556H109.784L110.091 37.9606V41.0056L109.784 41.3105H100.347L100.042 41.6155V46.4879L100.347 46.7906H110.399L110.704 47.0955V50.1427L110.399 50.4522Z" fill="white"/>
<path d="M115.268 29.1281H119.531L120.141 29.433L128.361 43.4381H128.666V29.4443L128.973 29.1394H132.623L132.93 29.4443V50.1538L132.623 50.4519H128.361L127.753 50.147L119.531 36.1419H119.226V50.147L118.921 50.4519H115.268L114.961 50.147V29.4443L115.268 29.1281ZM121.663 25.7782C121.053 25.7782 120.759 26.0831 120.759 26.9957L120.455 27.3006H118.932L118.629 26.9957C118.629 24.5606 120.152 23.3408 121.979 23.3408C124.414 23.3408 125.022 25.4732 126.244 25.4732C126.849 25.4732 127.148 25.1683 127.148 24.2557L127.453 23.9507H128.977L129.28 24.2557C129.28 26.6907 127.758 27.9105 125.93 27.9105C123.5 27.9105 122.881 25.7782 121.663 25.7782Z" fill="white"/>
<path d="M146.938 50.7502C140.543 50.7502 136.583 46.1828 136.583 39.7879C136.583 33.393 140.543 28.8232 146.938 28.8232C153.333 28.8232 157.293 33.3907 157.293 39.7879C157.293 46.185 153.335 50.7502 146.938 50.7502ZM146.938 32.4781C142.981 32.4781 140.839 35.5231 140.839 39.7879C140.839 44.0526 142.972 47.0954 146.938 47.0954C150.905 47.0954 153.037 44.0504 153.037 39.7879C153.037 35.5254 150.898 32.4781 146.938 32.4781Z" fill="white"/>
<path d="M140.179 9.01329H139.395V3.20796L136.827 7.53372H136.298L133.694 3.19666L133.714 9.01329H132.933V1.50928H133.538L136.563 6.58499L139.585 1.50928H140.181L140.179 9.01329Z" fill="white"/>
<path d="M146.005 1.50928C148.323 1.50928 149.956 3.04306 149.956 5.20707C149.956 7.44562 148.323 9.01329 146.005 9.01329H143.4V1.50928H146.005ZM146.005 8.28593C147.848 8.28593 149.149 7.0074 149.149 5.19803C149.149 3.46547 147.848 2.21857 146.005 2.21857H144.184V8.28593H146.005Z" fill="white"/>
<path d="M153.575 4.92019H157.557V5.64755H153.575V8.29496H158V9.01329H152.791V1.50928H158V2.2276H153.575V4.92019Z" fill="white"/>
<path d="M133.031 18.3331L135.448 16.0088C136.295 15.1775 136.55 14.7777 136.55 14.2016C136.55 13.472 135.931 12.9434 135.091 12.9434C134.463 12.9434 133.979 13.1693 133.322 13.7273L132.931 13.262C133.513 12.696 134.288 12.3729 135.1 12.3584C136.331 12.3584 137.207 13.1151 137.207 14.1655C137.207 14.9222 136.934 15.3966 135.886 16.3905L133.943 18.2428H137.331V18.8278H133.04L133.031 18.3331Z" fill="white"/>
<path d="M140.595 15.6337C140.595 13.7001 141.672 12.3516 143.195 12.3516C144.717 12.3516 145.804 13.7069 145.804 15.6337C145.804 17.5605 144.726 18.9159 143.195 18.9159C141.663 18.9159 140.595 17.5673 140.595 15.6337ZM145.137 15.6337C145.137 14.0028 144.381 12.9434 143.195 12.9434C142.009 12.9434 141.261 14.0028 141.261 15.6337C141.261 17.2646 142.018 18.315 143.195 18.315C144.372 18.315 145.137 17.2669 145.137 15.6337Z" fill="white"/>
<path d="M148.847 18.3331L151.262 16.0088C152.111 15.1775 152.366 14.7777 152.366 14.2016C152.366 13.472 151.745 12.9434 150.907 12.9434C150.277 12.9434 149.793 13.1693 149.138 13.7273L148.745 13.262C149.328 12.6963 150.104 12.3733 150.916 12.3584C152.147 12.3584 153.021 13.1151 153.021 14.1655C153.021 14.9222 152.748 15.3966 151.7 16.3905L149.757 18.2428H153.145V18.8278H148.854L148.847 18.3331Z" fill="white"/>
<path d="M158 18.8278H157.322V13.1444L156.247 13.6188V13.0066L157.559 12.4419H157.989L158 18.8278Z" fill="white"/>
</svg>
