<svg width="17" height="18" viewBox="0 0 17 18" fill="none" xmlns="http://www.w3.org/2000/svg">
<path d="M8.95891 0.0151883C9.94053 0 10.9165 0.00900048 11.8914 0C11.9504 1.14812 12.3633 2.31762 13.2038 3.12935C14.0425 3.96134 15.2289 4.34217 16.3832 4.47099V7.49121C15.3014 7.45577 14.2146 7.23076 13.233 6.76499C12.8055 6.57148 12.4072 6.32227 12.0174 6.06745C12.0123 8.25907 12.0264 10.4479 12.0033 12.6305C11.9448 13.679 11.5989 14.7225 10.9891 15.5866C10.008 17.025 8.30525 17.9627 6.55635 17.992C5.4836 18.0533 4.41198 17.7608 3.49787 17.2219C1.98298 16.3286 0.916983 14.6933 0.761725 12.9382C0.743724 12.563 0.737536 12.1883 0.752724 11.8221C0.887732 10.395 1.59371 9.02973 2.68952 8.10099C3.93158 7.01925 5.67149 6.50397 7.30057 6.80886C7.31576 7.91986 7.27132 9.02973 7.27132 10.1407C6.52709 9.89997 5.65742 9.96747 5.00714 10.4192C4.53236 10.7269 4.17178 11.1983 3.9839 11.7316C3.82864 12.1118 3.87308 12.5343 3.88208 12.9382C4.0604 14.169 5.24396 15.2035 6.50741 15.0916C7.34501 15.0826 8.14774 14.5965 8.58427 13.8849C8.72546 13.6357 8.88353 13.3809 8.89197 13.0878C8.96566 11.7462 8.93641 10.4102 8.94541 9.06855C8.9516 6.04495 8.93641 3.02979 8.95947 0.0157508L8.95891 0.0151883Z" fill="white"/>
</svg>
