<svg xmlns="http://www.w3.org/2000/svg" xmlns:xlink="http://www.w3.org/1999/xlink" viewBox="0 0 165 165"><defs><style>.cls-1{fill:#fff;}.cls-2{fill:#262424;}.cls-3{fill:#a1a25e;}.cls-4{fill:url(#radial-gradient);}.cls-5{fill:#71502b;}</style><radialGradient id="radial-gradient" cx="89.5" cy="74.1" r="15.01" gradientTransform="matrix(1, 0.05, -0.05, 1, 13.31, -12.02)" gradientUnits="userSpaceOnUse"><stop offset="0" stop-color="#d5dc41"/><stop offset="1" stop-color="#9cc34d"/></radialGradient></defs><g id="Capa_2" data-name="Capa 2"><g id="Capa_1-2" data-name="Capa 1"><rect class="cls-1" width="165" height="165"/><path class="cls-2" d="M41,89.51a1.75,1.75,0,0,1-2,1.88c0-2.56-2.66-4.44-6.27-4.44-4.17,0-8.06,2.43-8.06,9.34,0,6.73,4.26,9.34,8.47,9.34,3.57,0,6.41-1.7,6.41-4.58a1.77,1.77,0,0,1,1.82,1.65c0,3-3.79,5.13-8.64,5.13-5.64,0-10.72-3.3-10.72-11.54,0-8.47,5.08-11.58,10.72-11.58C37.65,84.71,41,87,41,89.51Z"/><path class="cls-2" d="M62.6,92.12V104.8c0,.83.36,1.15,1,1.15a2.68,2.68,0,0,0,.82-.09,1.91,1.91,0,0,1-2.1,2c-1.83,0-2.48-1.43-2.48-2.84v-1.74c-1.28,1.78-3,4.58-7.55,4.58s-6.91-3.16-6.91-6.73c0-4.17,3.43-8.2,14.51-7.79V92.08c0-3-2.06-5.13-5.81-5.13-3.58,0-5.41,1.74-5.41,3.71-.68,0-1.83-.23-1.83-1.37,0-2.43,2.89-4.58,7.24-4.58C58.89,84.71,62.6,87.09,62.6,92.12Zm-10,13.46c4.3,0,7.32-3.89,7.32-7.64V95.28c-8.75-.45-11.86,2.29-11.86,5.82A4.33,4.33,0,0,0,52.62,105.58Z"/><path class="cls-2" d="M86.13,89.51a1.76,1.76,0,0,1-2,1.88c0-2.56-2.66-4.44-6.28-4.44-4.16,0-8,2.43-8,9.34,0,6.73,4.26,9.34,8.47,9.34,3.57,0,6.41-1.7,6.41-4.58a1.78,1.78,0,0,1,1.83,1.65c0,3-3.8,5.13-8.66,5.13-5.62,0-10.71-3.3-10.71-11.54,0-8.47,5.09-11.58,10.71-11.58C82.74,84.71,86.13,87,86.13,89.51Z"/><path class="cls-2" d="M100.13,105.63c3,0,5.81-1.15,5.81-4.08a1.89,1.89,0,0,1,1.83,1.79c0,2.56-2.83,4.49-7.87,4.49-5.63,0-10.44-3.48-10.44-11.54s5.18-11.58,10.26-11.58c5.58,0,8.65,3.21,8.65,7.23,0,4.44-4.21,6.32-9.84,6.32a18.78,18.78,0,0,1-6.36-1A8,8,0,0,0,100.13,105.63Zm-8-10.21a22.91,22.91,0,0,0,6.09.87c4.39,0,7.51-1.14,7.51-4.35,0-2.75-2.2-5-6-5C95.37,87,92.12,91.16,92.12,95.42Z"/><path class="cls-2" d="M124.8,86.86a1.56,1.56,0,0,1-1.74,1.6c0-.87-.77-1.51-2.15-1.51-3.29,0-5.81,4.17-5.9,10.71v8.56c0,.83-.37,1.19-1.2,1.19h-.27c-.83,0-1.19-.36-1.19-1.19v-20c0-.78.36-1.14,1.19-1.14h.27c.83,0,1.2.36,1.2,1.14v3.62c1.23-3.84,3.79-5.17,6.31-5.17C123.24,84.71,124.8,85.53,124.8,86.86Z"/><path class="cls-2" d="M129,85.16c.82,0,1.19.37,1.19,1.15v19.91c0,.83-.37,1.19-1.19,1.19h-.27c-.83,0-1.2-.36-1.2-1.19V86.31c0-.78.37-1.15,1.2-1.15Z"/><path class="cls-3" d="M81.05,64.4s2.15-6.52,15.53-16.27l.27-.19C70.22,43.43,66.16,81.85,66.16,81.85c7.77-1,18.39-5.9,18.39-5.9,14.79-6.64,16-18.78,15.74-24.37C98.4,52.17,86.74,56,81.05,64.4Z"/><path class="cls-4" d="M97.82,66.44s3.38-4.9,16.86-9.76l.28-.09C93.9,46.37,81.2,77.35,81.2,77.35c6.72,1,16.73-.45,16.73-.45,13.91-1.93,17.89-11.73,19-16.44C115.22,60.48,104.59,60.87,97.82,66.44Z"/><path class="cls-2" d="M128.32,83.82c-.42.23-.6.09-.6-.37v-.14a1.16,1.16,0,0,1,.55-1l7.64-5.17c.83-.55,1.14-.37,1.14.59v.46a2,2,0,0,1-1.23,2Z"/><path class="cls-2" d="M142.92,87.77a2.72,2.72,0,0,1-.38,1.41,2.75,2.75,0,0,1-1,1,2.82,2.82,0,0,1-2.83,0,2.75,2.75,0,0,1-1-1,2.82,2.82,0,0,1,0-2.83,2.75,2.75,0,0,1,1-1,2.82,2.82,0,0,1,2.83,0,2.83,2.83,0,0,1,1.41,2.45Zm-.54,0a2.29,2.29,0,0,0-4.57,0,2.24,2.24,0,0,0,.67,1.61,2.17,2.17,0,0,0,1.61.66,2.2,2.2,0,0,0,1.62-.66A2.24,2.24,0,0,0,142.38,87.77Zm-3.57-1.51h1.35a1.18,1.18,0,0,1,.83.23.76.76,0,0,1,.26.62.74.74,0,0,1-.19.52,1.11,1.11,0,0,1-.62.32,1.3,1.3,0,0,1,.25.14,1.19,1.19,0,0,1,.24.31s.18.3.5.87h-.89a7.29,7.29,0,0,0-.59-1,.41.41,0,0,0-.29-.17h-.1v1.18h-.75Zm.75,1.28h.33a.75.75,0,0,0,.46-.11.35.35,0,0,0,0-.54.67.67,0,0,0-.43-.11h-.36Z"/><path class="cls-5" d="M23.12,117.14c0,.24-.2.29-.38.29a.31.31,0,0,1-.33-.34,1.24,1.24,0,0,1,0-.3l.78-4.35a.53.53,0,0,1,.55-.51.46.46,0,0,1,.51.35l1.22,4h0l1.22-4a.46.46,0,0,1,.51-.35.53.53,0,0,1,.55.51l.78,4.35a2.08,2.08,0,0,1,0,.3.31.31,0,0,1-.33.34c-.18,0-.34-.05-.38-.29l-.66-4.34h0l-1.36,4.36a.38.38,0,0,1-.72,0L23.8,112.8h0Z"/><path class="cls-5" d="M30,117.18a.34.34,0,0,1-.34.25c-.19,0-.34-.1-.34-.28a1.15,1.15,0,0,1,.1-.33l1.77-4.48a.53.53,0,0,1,.5-.41.54.54,0,0,1,.51.41l1.77,4.48a1.59,1.59,0,0,1,.1.33.3.3,0,0,1-.34.28.35.35,0,0,1-.35-.25l-.36-1H30.32Zm1.7-4.47h0l-1.1,2.92h2.21Z"/><path class="cls-5" d="M34.92,112.34a.34.34,0,0,1,.38-.36h1.39a2.45,2.45,0,0,1,2.53,2.67c0,1.62-.9,2.74-2.43,2.74H35.3a.34.34,0,0,1-.38-.37Zm.71,4.47h1c1.33,0,1.83-1.06,1.83-2.16a1.84,1.84,0,0,0-1.88-2.1h-1Z"/><path class="cls-5" d="M41,116.76h1.7a.32.32,0,1,1,0,.63h-2a.34.34,0,0,1-.38-.37v-4.68a.34.34,0,0,1,.38-.36h2c.2,0,.34.09.34.31a.3.3,0,0,1-.34.31H41v1.77h1.54c.2,0,.35.1.35.31s-.15.31-.35.31H41Z"/><path class="cls-5" d="M44.85,117.07a.36.36,0,1,1-.71,0v-4.73a.34.34,0,0,1,.38-.36h1.31a1.61,1.61,0,0,1,1.75,1.46A1.43,1.43,0,0,1,46,115h-.3l1.82,1.89a.41.41,0,0,1,.13.3.29.29,0,0,1-.32.26.44.44,0,0,1-.32-.15L44.85,115Zm0-2.59h1c.74,0,1.06-.3,1.06-1a1,1,0,0,0-1.07-.93h-.95Z"/><path class="cls-5" d="M48.93,117.18a.35.35,0,0,1-.35.25.29.29,0,0,1-.33-.28,1.59,1.59,0,0,1,.09-.33l1.77-4.48a.54.54,0,0,1,.51-.41.53.53,0,0,1,.5.41l1.77,4.48a1.15,1.15,0,0,1,.1.33c0,.18-.15.28-.34.28a.34.34,0,0,1-.34-.25l-.37-1H49.29Zm1.7-4.47h0l-1.1,2.92h2.21Z"/><path class="cls-5" d="M57.15,112.6H56.08a.3.3,0,0,1-.34-.31c0-.22.14-.31.34-.31h2.84c.2,0,.35.09.35.31s-.15.31-.35.31H57.86v4.47a.36.36,0,1,1-.71,0Z"/><path class="cls-5" d="M60.78,117.07a.36.36,0,1,1-.71,0v-4.73a.34.34,0,0,1,.38-.36h1.3a1.61,1.61,0,0,1,1.75,1.46A1.42,1.42,0,0,1,62,115h-.31l1.82,1.89a.39.39,0,0,1,.14.3.29.29,0,0,1-.32.26.43.43,0,0,1-.32-.15L60.78,115Zm0-2.59h1c.74,0,1.06-.3,1.06-1a1,1,0,0,0-1.08-.93h-.94Z"/><path class="cls-5" d="M66.84,111.93a2.76,2.76,0,1,1-2.5,2.75A2.55,2.55,0,0,1,66.84,111.93Zm0,4.92c1.28,0,1.75-1.13,1.75-2.17s-.47-2.17-1.75-2.17-1.75,1.14-1.75,2.17S65.56,116.85,66.84,116.85Z"/><path class="cls-5" d="M71.09,117.07a.36.36,0,1,1-.71,0v-4.73a.34.34,0,0,1,.38-.36h1.39a1.71,1.71,0,0,1,1.86,1.7,1.74,1.74,0,0,1-1.83,1.69H71.09Zm0-2.28h1a1.11,1.11,0,0,0,1.17-1.11,1.09,1.09,0,0,0-1.2-1.13h-1Z"/><path class="cls-5" d="M75.57,117.07a.35.35,0,1,1-.7,0v-4.78a.35.35,0,1,1,.7,0Z"/><path class="cls-5" d="M79.11,116.85c.86,0,1.23-.48,1.53-.48a.28.28,0,0,1,.28.31c0,.34-.81.75-1.81.75a2.76,2.76,0,0,1,0-5.5c1,0,1.65.52,1.65.79a.29.29,0,0,1-.29.32c-.32,0-.48-.53-1.36-.53-1.27,0-1.79,1.14-1.79,2.17S77.9,116.85,79.11,116.85Z"/><path class="cls-5" d="M82.2,117.18a.34.34,0,0,1-.34.25c-.19,0-.34-.1-.34-.28a1.59,1.59,0,0,1,.09-.33l1.78-4.48a.52.52,0,0,1,.5-.41.54.54,0,0,1,.51.41l1.77,4.48a1.59,1.59,0,0,1,.09.33.29.29,0,0,1-.33.28.35.35,0,0,1-.35-.25l-.37-1H82.57Zm1.7-4.47h0l-1.1,2.92H85Z"/><path class="cls-5" d="M87.84,116.76h1.51a.32.32,0,1,1,0,.63H87.51a.34.34,0,0,1-.38-.37v-4.73a.36.36,0,1,1,.71,0Z"/><path class="cls-5" d="M93.61,117.07a.36.36,0,1,1-.71,0v-4.73a.34.34,0,0,1,.38-.36h1.31a1.6,1.6,0,0,1,1.74,1.46A1.42,1.42,0,0,1,94.78,115h-.31l1.82,1.89a.39.39,0,0,1,.14.3.29.29,0,0,1-.32.26.43.43,0,0,1-.32-.15L93.61,115Zm0-2.59h1c.74,0,1.06-.3,1.06-1a1,1,0,0,0-1.07-.93h-1Z"/><path class="cls-5" d="M98.09,116.76h1.7c.2,0,.35.1.35.31a.31.31,0,0,1-.35.32h-2a.34.34,0,0,1-.38-.37v-4.68a.34.34,0,0,1,.38-.36h2c.2,0,.35.09.35.31s-.15.31-.35.31h-1.7v1.77h1.55c.2,0,.35.1.35.31s-.15.31-.35.31H98.09Z"/><path class="cls-5" d="M102,117.07a.36.36,0,1,1-.71,0v-4.73a.34.34,0,0,1,.38-.36h2c.2,0,.35.09.35.31s-.15.31-.35.31H102v1.77h1.48a.31.31,0,1,1,0,.62H102Z"/><path class="cls-5" d="M107.14,111.93a2.76,2.76,0,1,1-2.5,2.75A2.55,2.55,0,0,1,107.14,111.93Zm0,4.92c1.29,0,1.75-1.13,1.75-2.17s-.46-2.17-1.75-2.17-1.75,1.14-1.75,2.17S105.86,116.85,107.14,116.85Z"/><path class="cls-5" d="M111.39,117.07a.36.36,0,1,1-.71,0v-4.73a.34.34,0,0,1,.38-.36h1.31a1.61,1.61,0,0,1,1.74,1.46,1.42,1.42,0,0,1-1.55,1.53h-.31l1.82,1.89a.39.39,0,0,1,.14.3.29.29,0,0,1-.32.26.44.44,0,0,1-.32-.15L111.39,115Zm0-2.59h1c.74,0,1.06-.3,1.06-1a1,1,0,0,0-1.08-.93h-.94Z"/><path class="cls-5" d="M115.87,116.76h1.7c.2,0,.35.1.35.31a.31.31,0,0,1-.35.32h-2a.34.34,0,0,1-.38-.37v-4.68a.34.34,0,0,1,.38-.36h2c.2,0,.35.09.35.31s-.15.31-.35.31h-1.7v1.77h1.55c.2,0,.35.1.35.31s-.15.31-.35.31h-1.55Z"/><path class="cls-5" d="M121.9,112.56a.3.3,0,0,1-.31.3c-.31,0-.41-.35-1.12-.35a.82.82,0,0,0-.91.77c0,1.19,2.71.62,2.71,2.44a1.75,1.75,0,0,1-1.93,1.71c-.75,0-1.58-.27-1.58-.65,0-.19.09-.34.29-.34s.58.41,1.3.41a1.09,1.09,0,0,0,1.17-1.1c0-1.28-2.71-.66-2.71-2.43a1.57,1.57,0,0,1,1.68-1.39C121.2,111.93,121.9,112.21,121.9,112.56Z"/><path class="cls-5" d="M124.19,112.6h-1.06c-.2,0-.35-.1-.35-.31s.15-.31.35-.31H126c.21,0,.35.09.35.31s-.14.31-.35.31H124.9v4.47a.36.36,0,1,1-.71,0Z"/><path class="cls-5" d="M126.82,117.18a.34.34,0,0,1-.35.25.29.29,0,0,1-.33-.28,1.59,1.59,0,0,1,.09-.33l1.77-4.48a.54.54,0,0,1,.51-.41.52.52,0,0,1,.5.41l1.78,4.48a1.59,1.59,0,0,1,.09.33.29.29,0,0,1-.33.28.34.34,0,0,1-.35-.25l-.37-1h-2.64Zm1.7-4.47h0l-1.1,2.92h2.22Z"/><path class="cls-5" d="M131.79,112.34a.34.34,0,0,1,.38-.36h1.39a2.72,2.72,0,0,1,.09,5.41h-1.48a.34.34,0,0,1-.38-.37Zm.71,4.47h1c1.33,0,1.83-1.06,1.83-2.16a1.84,1.84,0,0,0-1.88-2.1h-1Z"/><path class="cls-5" d="M137.42,117.18a.33.33,0,0,1-.34.25c-.19,0-.34-.1-.34-.28a1.59,1.59,0,0,1,.1-.33l1.77-4.48a.52.52,0,0,1,1,0l1.77,4.48a1.15,1.15,0,0,1,.1.33c0,.18-.15.28-.34.28a.33.33,0,0,1-.34-.25l-.37-1h-2.65Zm1.7-4.47h0l-1.1,2.92h2.21Z"/></g></g></svg>