<svg xmlns="http://www.w3.org/2000/svg" viewBox="0 0 165 165"><defs><style>.cls-1{fill:#fff;}.cls-2{fill:#737376;}.cls-2,.cls-3{fill-rule:evenodd;}.cls-3{fill:#fefefe;}</style></defs><g id="Capa_2" data-name="Capa 2"><g id="Capa_1-2" data-name="Capa 1"><rect class="cls-1" width="165" height="165"/><path class="cls-2" d="M107.72,56a16.43,16.43,0,0,1,3.79,1.42c3.37,1.84,5.79,4.45,6.54,8.33a9.59,9.59,0,0,1-2.7,8.72,14.61,14.61,0,0,1-8.88,4.35,17,17,0,0,1-2.47.13c-5.06,0-10.12,0-15.18,0-.56,0-.76-.1-.76-.73q0-19.6,0-39.2c0-.56.11-.73.7-.73,4.35,0,8.7,0,13,0a13.83,13.83,0,0,1,9.41,3.5c3.7,3.4,3.69,8.33,0,11.79a12.39,12.39,0,0,1-1.61,1.28A18.42,18.42,0,0,1,107.72,56Z"/><path class="cls-2" d="M67,37.75a21.14,21.14,0,0,1,13.21,4.62c.4.3.43.5.07.85a13.83,13.83,0,0,0-1.11,1.3c-.22.3-.38.32-.68.07a17.87,17.87,0,0,0-8.39-3.78A17.34,17.34,0,0,0,51.68,50,18.64,18.64,0,0,0,54,70.72a16.4,16.4,0,0,0,11.23,5.82,17.74,17.74,0,0,0,13.28-3.89c.28-.23.43-.2.65.07.39.49.81,1,1.24,1.42.25.25.19.38-.06.59a20.71,20.71,0,0,1-9.78,4.41,19.64,19.64,0,0,1-16.12-4.08A19.87,19.87,0,0,1,47,62a21.06,21.06,0,0,1,3.12-15.07,19.57,19.57,0,0,1,14.51-9.06A23.33,23.33,0,0,1,67,37.75Z"/><path class="cls-2" d="M85.57,56.74q0,13.79,0,27.58c0,.58-.15.73-.71.71-1.22,0-1.23,0-1.23-1.25q0-27.28,0-54.57c0-.89-.12-.77.79-.77,1.13,0,1.13,0,1.13,1.14Z"/><path class="cls-2" d="M66.15,127c2.13,2.53,1.1,5.45-.46,7.1-.16.16-.49.28-.4.51s.45.32.72.33c.85,0,1.69,0,2.54,0,.4,0,.59.06.59.54s-.2.54-.6.53c-.73,0-1.46,0-2.18,0a2.4,2.4,0,0,1-1.65-.52c-.33-.29-.55-.19-.87,0a9,9,0,0,1-9.61-.66,4.64,4.64,0,0,1,1.4-8.38c.57-.13.5-.31.24-.71A4.62,4.62,0,0,1,55.2,122a4,4,0,0,1,3.92-3,3.91,3.91,0,0,1,3.93,2.94c.05.22,0,.47.06.7.06.41-.17.45-.49.43s-.58.06-.56-.43c.07-1.69-1.72-2.77-3.22-2.57a3.1,3.1,0,0,0-2.41,4.56,11.34,11.34,0,0,0,2.12,2.89c1.84,2,3.72,4,5.57,6,.27.3.43.27.68,0A4.51,4.51,0,0,0,66.15,129a2.4,2.4,0,0,0-1.83-1.89c-.49-.11-.2-.51-.26-.78s.19-.28.39-.28c1.24,0,2.48,0,3.72,0,.37,0,.47.14.45.48s0,.59-.44.57C67.54,127,66.89,127,66.15,127Z"/><path class="cls-2" d="M59.25,101.72c1.9,1.24,2.64,3.28,3.84,5,.37.5.69,1,1,1.57a1.3,1.3,0,0,0,1.12.66c.57,0,.3.43.35.68s-.14.38-.41.38a2.48,2.48,0,0,1-2.06-1.3c-.88-1.35-1.82-2.67-2.59-4.08a4.84,4.84,0,0,0-4.8-2.65c-.89,0-1.77,0-2.66,0-.39,0-.49.11-.49.5,0,2.32,0,4.64,0,7,0,.41-.06.59-.53.58s-.51-.17-.51-.56q0-9,0-17.94c0-.43.1-.57.56-.56,2.24,0,4.48,0,6.72,0a5.85,5.85,0,0,1,5.56,4,5.21,5.21,0,0,1-4.74,6.74Z"/><path class="cls-2" d="M98.17,126.61a9.69,9.69,0,0,1,7.55-9.69,9.5,9.5,0,0,1,11.18,7.28A9.77,9.77,0,0,1,110,136a9.51,9.51,0,0,1-11.66-7.67A10.6,10.6,0,0,1,98.17,126.61Z"/><path class="cls-2" d="M99,106.54a12.24,12.24,0,0,1-1.44,1.68,8.16,8.16,0,0,1-9.36,1A9.73,9.73,0,0,1,83,99.5a9.57,9.57,0,0,1,15.6-6.69c.22.17.44.33.11.58s-.28.6-.76.23a8.34,8.34,0,0,0-8.61-1.29,8.17,8.17,0,0,0-5.23,6.82,8.61,8.61,0,0,0,6.39,9.8,7.06,7.06,0,0,0,8.23-3.81,4.58,4.58,0,0,0,.2-2c0-1.16,0-1.16-1.18-1.16-.8,0-1.61,0-2.42,0-.42,0-.42-.22-.42-.52s0-.48.4-.48c1.42,0,2.84,0,4.25,0,.3,0,.42.08.41.4,0,2.74,0,5.47,0,8.21,0,.31-.1.41-.41.4s-.47,0-.47-.4C99.09,108.59,99,107.62,99,106.54Z"/><path class="cls-2" d="M109.29,110.21a10.35,10.35,0,0,1-6.73-2.53c-.17-.15-.58-.27-.2-.62s.39-.58.88-.19a9.7,9.7,0,0,0,9.53,1.77,5.45,5.45,0,0,0,2.65-1.78,2.9,2.9,0,0,0-.23-4.1,9.86,9.86,0,0,0-4-2c-1.61-.55-3.27-1-4.84-1.67a8,8,0,0,1-1.73-1,3.53,3.53,0,0,1-.08-5.73,7.16,7.16,0,0,1,4-1.62,9.86,9.86,0,0,1,7.22,2c.14.1.43.19.32.42a1.67,1.67,0,0,1-.54.61c-.16.11-.3-.14-.43-.24A8.88,8.88,0,0,0,107.46,92a5.07,5.07,0,0,0-2.52,1.45,2.39,2.39,0,0,0,.2,3.68,8.56,8.56,0,0,0,2.93,1.49c1.55.52,3.1,1,4.64,1.54A10.24,10.24,0,0,1,115,101.3a4.18,4.18,0,0,1,.18,7.22A9.51,9.51,0,0,1,109.29,110.21Z"/><path class="cls-2" d="M67.82,97.61c0,2-.07,4,0,6a6,6,0,0,0,11.83.7,7.3,7.3,0,0,0,.11-1.23q0-5.79,0-11.57c0-.59.25-.76.84-.61.3.07.2.29.21.47v11.74a7,7,0,1,1-14,0V91.47c0-.35,0-.58.47-.57s.56.14.56.57c0,2,0,4.1,0,6.14Z"/><path class="cls-2" d="M80.46,126.47a9.57,9.57,0,0,1,15.32-7.84c.19.13.57.24.23.6s-.35.61-.85.25a8.57,8.57,0,0,0-13.45,8.92,8.06,8.06,0,0,0,6.55,6.65,8.54,8.54,0,0,0,6.89-1.47.65.65,0,0,1,1,.37c0,.21-.16.25-.27.34a9.32,9.32,0,0,1-4.52,1.87A9.48,9.48,0,0,1,80.46,126.47Z"/><path class="cls-3" d="M90.87,67V58.5c0-.3-.07-.58.41-.57,4.63,0,9.26-.14,13.87.1A10.62,10.62,0,0,1,114.57,64c1.75,3.43.8,7.06-2.33,9.5a12.29,12.29,0,0,1-7.72,2.63c-4.35,0-8.7,0-13,0-.49,0-.62-.12-.61-.62C90.88,72.66,90.87,69.83,90.87,67Z"/><path class="cls-3" d="M90.87,48.11c0-2.14,0-4.29,0-6.43,0-.44.07-.6.56-.6,3.45,0,6.89,0,10.33,0a11.11,11.11,0,0,1,7.45,2.65,5.06,5.06,0,0,1,.48,7.63,10.9,10.9,0,0,1-6.75,3.52,19.78,19.78,0,0,1-3.35.22c-2.7,0-5.39,0-8.09,0-.54,0-.64-.15-.63-.65C90.88,52.36,90.87,50.24,90.87,48.11Z"/><path class="cls-3" d="M59.43,135.48a7.69,7.69,0,0,1-4.7-1.54,3.57,3.57,0,0,1-1.53-3.76,3.93,3.93,0,0,1,3-3.05.75.75,0,0,1,.89.22c1.95,2.31,4.08,4.46,6.13,6.69.33.36.3.49-.12.69A8.29,8.29,0,0,1,59.43,135.48Z"/><path class="cls-3" d="M52.6,96.43c0-1.32,0-2.64,0-4,0-.37.09-.5.49-.5,1.87,0,3.74,0,5.6,0a4.9,4.9,0,0,1,4.63,3A4.37,4.37,0,0,1,60,100.73a7.52,7.52,0,0,1-1.63.22c-1.77,0-3.54,0-5.31,0-.37,0-.48-.11-.47-.47C52.61,99.14,52.6,97.79,52.6,96.43Z"/><path class="cls-3" d="M99.21,126.46a8.47,8.47,0,1,1,8.4,8.77A8.61,8.61,0,0,1,99.21,126.46Z"/></g></g></svg>