<svg xmlns="http://www.w3.org/2000/svg" xmlns:xlink="http://www.w3.org/1999/xlink" viewBox="0 0 165 165"><defs><style>.cls-1{fill:none;}.cls-2{fill:#222221;}.cls-3{clip-path:url(#clip-path);}.cls-4{fill:url(#Degradado_sin_nombre_37);}.cls-5{clip-path:url(#clip-path-2);}.cls-6{fill:url(#Degradado_sin_nombre_37-2);}.cls-7{clip-path:url(#clip-path-3);}.cls-8{fill:url(#Degradado_sin_nombre_37-3);}.cls-9{clip-path:url(#clip-path-4);}.cls-10{fill:url(#Degradado_sin_nombre_37-4);}.cls-11{clip-path:url(#clip-path-5);}.cls-12{fill:url(#Degradado_sin_nombre_37-5);}.cls-13{clip-path:url(#clip-path-6);}.cls-14{fill:url(#Degradado_sin_nombre_37-6);}.cls-15{clip-path:url(#clip-path-7);}.cls-16{fill:url(#Degradado_sin_nombre_37-7);}.cls-17{clip-path:url(#clip-path-8);}.cls-18{fill:url(#Degradado_sin_nombre_37-8);}.cls-19{clip-path:url(#clip-path-9);}.cls-20{fill:url(#Degradado_sin_nombre_37-9);}.cls-21{clip-path:url(#clip-path-10);}.cls-22{fill:url(#Degradado_sin_nombre_37-10);}.cls-23{clip-path:url(#clip-path-11);}.cls-24{fill:url(#Degradado_sin_nombre_37-11);}.cls-25{clip-path:url(#clip-path-12);}.cls-26{fill:url(#Degradado_sin_nombre_37-12);}.cls-27{clip-path:url(#clip-path-13);}.cls-28{fill:url(#Degradado_sin_nombre_37-13);}.cls-29{clip-path:url(#clip-path-14);}.cls-30{fill:url(#Degradado_sin_nombre_37-14);}.cls-31{clip-path:url(#clip-path-15);}.cls-32{fill:url(#Degradado_sin_nombre_37-15);}.cls-33{clip-path:url(#clip-path-16);}.cls-34{fill:url(#Degradado_sin_nombre_37-16);}.cls-35{clip-path:url(#clip-path-17);}.cls-36{fill:url(#Degradado_sin_nombre_37-17);}.cls-37{clip-path:url(#clip-path-18);}.cls-38{fill:url(#Degradado_sin_nombre_37-18);}.cls-39{clip-path:url(#clip-path-19);}.cls-40{fill:url(#Degradado_sin_nombre_22);}.cls-41{fill:url(#Degradado_sin_nombre_22-2);}.cls-42{clip-path:url(#clip-path-21);}.cls-43{fill:url(#Degradado_sin_nombre_22-3);}.cls-44{fill:url(#Degradado_sin_nombre_22-4);}.cls-45{clip-path:url(#clip-path-23);}.cls-46{fill:url(#Degradado_sin_nombre_37-19);}.cls-47{clip-path:url(#clip-path-24);}.cls-48{fill:url(#Degradado_sin_nombre_37-20);}.cls-49{clip-path:url(#clip-path-25);}.cls-50{fill:url(#Degradado_sin_nombre_37-21);}.cls-51{clip-path:url(#clip-path-26);}.cls-52{fill:url(#Degradado_sin_nombre_37-22);}.cls-53{clip-path:url(#clip-path-27);}.cls-54{fill:url(#Degradado_sin_nombre_37-23);}.cls-55{clip-path:url(#clip-path-28);}.cls-56{fill:url(#Degradado_sin_nombre_37-24);}.cls-57{clip-path:url(#clip-path-29);}.cls-58{fill:url(#Degradado_sin_nombre_37-25);}.cls-59{clip-path:url(#clip-path-30);}.cls-60{fill:url(#Degradado_sin_nombre_37-26);}.cls-61{clip-path:url(#clip-path-31);}.cls-62{fill:url(#Degradado_sin_nombre_37-27);}.cls-63{clip-path:url(#clip-path-32);}.cls-64{fill:url(#Degradado_sin_nombre_37-28);}.cls-65{clip-path:url(#clip-path-33);}.cls-66{fill:url(#Degradado_sin_nombre_37-29);}.cls-67{clip-path:url(#clip-path-34);}.cls-68{fill:url(#Degradado_sin_nombre_37-30);}.cls-69{clip-path:url(#clip-path-35);}.cls-70{fill:url(#Degradado_sin_nombre_37-31);}.cls-71{clip-path:url(#clip-path-36);}.cls-72{fill:url(#Degradado_sin_nombre_37-32);}.cls-73{clip-path:url(#clip-path-37);}.cls-74{fill:url(#Degradado_sin_nombre_37-33);}</style><clipPath id="clip-path"><path class="cls-1" d="M17.15,90.8h1.91a2,2,0,0,1,1.53,1.11,3.52,3.52,0,0,1,.43,2v0a3.42,3.42,0,0,1-.59,2.3,1.87,1.87,0,0,1-1.37.86H17.15Zm2-1H16.29v8.26h2.84a2.79,2.79,0,0,0,2-1.28A4.37,4.37,0,0,0,21.88,94a4.29,4.29,0,0,0-.75-2.88,2.84,2.84,0,0,0-2-1.25Z"/></clipPath><linearGradient id="Degradado_sin_nombre_37" x1="-2149.09" y1="942.14" x2="-2148.94" y2="942.14" gradientTransform="matrix(36.69, 0, 0, -36.69, 78863.9, 34660.08)" gradientUnits="userSpaceOnUse"><stop offset="0" stop-color="#8b7a4b"/><stop offset="0.01" stop-color="#8b7a4b"/><stop offset="0.03" stop-color="#a1905b"/><stop offset="0.07" stop-color="#bcab6f"/><stop offset="0.11" stop-color="#d2c17f"/><stop offset="0.15" stop-color="#e3d28b"/><stop offset="0.21" stop-color="#eedd94"/><stop offset="0.29" stop-color="#f5e499"/><stop offset="0.5" stop-color="#f7e69a"/><stop offset="0.7" stop-color="#f5e499"/><stop offset="0.77" stop-color="#eedd94"/><stop offset="0.82" stop-color="#e3d28b"/><stop offset="0.87" stop-color="#d2c17f"/><stop offset="0.9" stop-color="#bcab6f"/><stop offset="0.93" stop-color="#a1905b"/><stop offset="0.95" stop-color="#8b7a4b"/><stop offset="1" stop-color="#8b7a4b"/></linearGradient><clipPath id="clip-path-2"><polygon class="cls-1" points="28.65 89.83 24.35 89.83 23.92 89.83 23.92 90.32 23.92 93.48 23.92 94.45 23.92 97.61 23.92 98.09 24.35 98.09 28.65 98.09 29.08 98.09 29.08 97.12 28.65 97.12 24.78 97.12 24.78 94.45 27.49 94.45 27.92 94.45 27.92 93.48 27.49 93.48 24.78 93.48 24.78 90.8 28.65 90.8 29.08 90.8 29.08 89.83 28.65 89.83"/></clipPath><linearGradient id="Degradado_sin_nombre_37-2" x1="-2145.36" y1="943.02" x2="-2145.2" y2="943.02" gradientTransform="matrix(33.77, 0, 0, -33.77, 72466.56, 31937.24)" xlink:href="#Degradado_sin_nombre_37"/><clipPath id="clip-path-3"><path class="cls-1" d="M31.48,91a5,5,0,0,0,0,6,2.8,2.8,0,0,0,2.22,1.15,3,3,0,0,0,2.13-.92,3.21,3.21,0,0,0,.62-.83l-.75-.48a2.32,2.32,0,0,1-1.12,1.06,2.16,2.16,0,0,1-.88.2,2.06,2.06,0,0,1-1.74-1A3.77,3.77,0,0,1,31.34,94a3.55,3.55,0,0,1,.77-2.34,2.06,2.06,0,0,1,1.58-.82,2.23,2.23,0,0,1,2,1.25l.77-.43a3.07,3.07,0,0,0-1.31-1.39,2.84,2.84,0,0,0-1.43-.4A2.75,2.75,0,0,0,31.48,91"/></clipPath><linearGradient id="Degradado_sin_nombre_37-3" x1="-2154.59" y1="941.53" x2="-2154.43" y2="941.53" gradientTransform="matrix(39.04, 0, 0, -39.04, 84151.24, 36853.83)" xlink:href="#Degradado_sin_nombre_37"/><clipPath id="clip-path-4"><path class="cls-1" d="M39.38,96.1A3.7,3.7,0,0,1,38.75,94a3.51,3.51,0,0,1,.79-2.34,2,2,0,0,1,3.32.2A3.79,3.79,0,0,1,43.48,94a3.58,3.58,0,0,1-.78,2.35,2.07,2.07,0,0,1-1.58.81,2,2,0,0,1-1.74-1M38.89,91a4.63,4.63,0,0,0-1,3,4.56,4.56,0,0,0,1,3,2.85,2.85,0,0,0,2.24,1.15A2.79,2.79,0,0,0,43.34,97a5,5,0,0,0,0-6,2.86,2.86,0,0,0-2.23-1.15A2.82,2.82,0,0,0,38.89,91"/></clipPath><linearGradient id="Degradado_sin_nombre_37-4" x1="-2159.48" y1="940.81" x2="-2159.32" y2="940.81" gradientTransform="matrix(42.21, 0, 0, -42.21, 91186.29, 39804.41)" xlink:href="#Degradado_sin_nombre_37"/><clipPath id="clip-path-5"><path class="cls-1" d="M47.24,90.8h2.3a1.28,1.28,0,0,1,1.12.59,1.32,1.32,0,0,1,.24.76,1.25,1.25,0,0,1-.6,1.11,1.43,1.43,0,0,1-.75.22H47.24Zm-.42-1h-.43v8.25h.86V94.45H49.4a3.36,3.36,0,0,1,.87,1.26,17.09,17.09,0,0,1,.65,2l.08.35h.91l-.17-.62a10.61,10.61,0,0,0-1.26-3.23,2.18,2.18,0,0,0,1.15-1.32,2.54,2.54,0,0,0,.13-.77A2.25,2.25,0,0,0,51,90.41a2,2,0,0,0-1.46-.58Z"/></clipPath><linearGradient id="Degradado_sin_nombre_37-5" x1="-2152.86" y1="942.29" x2="-2152.71" y2="942.29" gradientTransform="matrix(36.16, 0, 0, -36.16, 77891.15, 34166.08)" xlink:href="#Degradado_sin_nombre_37"/><clipPath id="clip-path-6"><polygon class="cls-1" points="55.88 89.83 55.77 90.12 52.97 97.41 52.71 98.09 53.65 98.09 53.77 97.8 56.16 91.54 58.56 97.8 58.68 98.09 59.61 98.09 59.35 97.41 56.56 90.12 56.44 89.83 55.88 89.83"/></clipPath><linearGradient id="Degradado_sin_nombre_37-6" x1="-2164.39" y1="940.24" x2="-2164.24" y2="940.24" gradientTransform="matrix(45.16, 0, 0, -45.16, 97804.29, 42558.38)" xlink:href="#Degradado_sin_nombre_37"/><clipPath id="clip-path-7"><polygon class="cls-1" points="69.58 89.83 69.45 90.06 67.79 93.05 66.09 90.05 65.97 89.83 64.94 89.83 65.36 90.58 67.36 94.12 67.36 97.61 67.36 98.09 68.22 98.09 68.22 97.61 68.22 94.1 70.18 90.57 70.59 89.83 69.58 89.83"/></clipPath><linearGradient id="Degradado_sin_nombre_37-7" x1="-2156.78" y1="942.08" x2="-2156.63" y2="942.08" gradientTransform="matrix(36.93, 0, 0, -36.93, 79721.59, 34887.81)" xlink:href="#Degradado_sin_nombre_37"/><clipPath id="clip-path-8"><polygon class="cls-1" points="81.31 89.83 79.39 89.83 78.53 89.83 76.58 89.83 76.15 89.83 76.15 90.8 76.58 90.8 78.53 90.8 78.53 97.61 78.53 98.09 79.39 98.09 79.39 97.61 79.39 90.8 81.31 90.8 81.74 90.8 81.74 89.83 81.31 89.83"/></clipPath><linearGradient id="Degradado_sin_nombre_37-8" x1="-2158" y1="942.17" x2="-2157.85" y2="942.17" gradientTransform="matrix(36.58, 0, 0, -36.58, 79018.27, 34559.8)" xlink:href="#Degradado_sin_nombre_37"/><clipPath id="clip-path-9"><path class="cls-1" d="M84.21,90.8h2.3a1.28,1.28,0,0,1,1.12.59,1.32,1.32,0,0,1,.24.76,1.25,1.25,0,0,1-.6,1.11,1.43,1.43,0,0,1-.75.22H84.21Zm-.42-1h-.42v.49l0,3.63v4.13h.86V94.45h2.16a3.14,3.14,0,0,1,.87,1.26,17.09,17.09,0,0,1,.65,2l.09.35h.9l-.17-.62a10.61,10.61,0,0,0-1.26-3.23,2.15,2.15,0,0,0,1.15-1.32A2.38,2.38,0,0,0,88,90.41a2.09,2.09,0,0,0-1.47-.58Z"/></clipPath><linearGradient id="Degradado_sin_nombre_37-9" x1="-2158.53" y1="942.29" x2="-2158.38" y2="942.29" gradientTransform="matrix(36.16, 0, 0, -36.16, 78134.36, 34166.59)" xlink:href="#Degradado_sin_nombre_37"/><clipPath id="clip-path-10"><polygon class="cls-1" points="92.86 89.83 92.74 90.12 89.94 97.41 89.68 98.09 90.62 98.09 90.74 97.8 93.13 91.54 95.53 97.8 95.65 98.09 96.58 98.09 96.33 97.41 93.53 90.12 93.41 89.83 92.86 89.83"/></clipPath><linearGradient id="Degradado_sin_nombre_37-10" x1="-2168.93" y1="940.24" x2="-2168.78" y2="940.24" gradientTransform="matrix(45.16, 0, 0, -45.16, 98046.28, 42558.38)" xlink:href="#Degradado_sin_nombre_37"/><clipPath id="clip-path-11"><polygon class="cls-1" points="102.48 89.83 102.48 90.32 102.47 96.06 98.76 90.04 98.63 89.83 97.97 89.83 97.97 90.32 97.97 97.61 97.97 98.09 98.83 98.09 98.83 97.61 98.83 91.86 102.55 97.89 102.68 98.09 103.33 98.09 103.33 97.61 103.34 90.32 103.34 89.83 102.48 89.83"/></clipPath><linearGradient id="Degradado_sin_nombre_37-11" x1="-2159.49" y1="942.58" x2="-2159.33" y2="942.58" gradientTransform="matrix(35.17, 0, 0, -35.17, 76056.78, 33248.77)" xlink:href="#Degradado_sin_nombre_37"/><clipPath id="clip-path-12"><path class="cls-1" d="M105.88,90.71a2.22,2.22,0,0,0-.51,1.43,2.11,2.11,0,0,0,1.3,1.81c.16.09.67.32,1.51.69a2.4,2.4,0,0,1,1.23.88.65.65,0,0,1,.06.26,1.19,1.19,0,0,1-.7,1.07,2,2,0,0,1-1,.27,1.81,1.81,0,0,1-1.4-.56,1.23,1.23,0,0,1-.32-.78h-.86a2.19,2.19,0,0,0,.76,1.65,2.7,2.7,0,0,0,1.82.66,2.57,2.57,0,0,0,2-.87,2.22,2.22,0,0,0,.58-1.44A2.13,2.13,0,0,0,109,94c-.17-.09-.68-.32-1.54-.7a2.37,2.37,0,0,1-1.21-.86.57.57,0,0,1-.06-.25,1.2,1.2,0,0,1,.66-1.09,1.6,1.6,0,0,1,.87-.25,1.54,1.54,0,0,1,1.26.57,1.23,1.23,0,0,1,.27.77h.86a2.19,2.19,0,0,0-.78-1.7,2.33,2.33,0,0,0-1.61-.61,2.28,2.28,0,0,0-1.87.88"/></clipPath><linearGradient id="Degradado_sin_nombre_37-12" x1="-2158.7" y1="943.02" x2="-2158.55" y2="943.02" gradientTransform="matrix(33.77, 0, 0, -33.77, 72999.6, 31937.75)" xlink:href="#Degradado_sin_nombre_37"/><clipPath id="clip-path-13"><polygon class="cls-1" points="116.24 89.83 112.59 89.83 112.16 89.83 112.16 90.32 112.16 93.48 112.16 94.45 112.16 97.61 112.16 98.09 113.02 98.09 113.02 97.61 113.02 94.45 115.23 94.45 115.66 94.45 115.66 93.48 115.23 93.48 113.02 93.48 113.02 90.8 116.24 90.8 116.67 90.8 116.67 89.83 116.24 89.83"/></clipPath><linearGradient id="Degradado_sin_nombre_37-13" x1="-2153.14" y1="944.6" x2="-2152.99" y2="944.6" gradientTransform="matrix(29.55, 0, 0, -29.55, 63729.97, 28003.65)" xlink:href="#Degradado_sin_nombre_37"/><clipPath id="clip-path-14"><path class="cls-1" d="M119.34,96.1a3.7,3.7,0,0,1-.63-2.14,3.56,3.56,0,0,1,.79-2.34,2,2,0,0,1,3.32.2,3.79,3.79,0,0,1,.62,2.14,3.58,3.58,0,0,1-.78,2.35,2.07,2.07,0,0,1-1.58.81,2,2,0,0,1-1.74-1M118.85,91a4.63,4.63,0,0,0-1,3,4.56,4.56,0,0,0,1,3,2.85,2.85,0,0,0,2.24,1.15A2.79,2.79,0,0,0,123.3,97a5,5,0,0,0,0-6,2.86,2.86,0,0,0-2.23-1.15A2.82,2.82,0,0,0,118.85,91"/></clipPath><linearGradient id="Degradado_sin_nombre_37-14" x1="-2169.98" y1="940.81" x2="-2169.83" y2="940.81" gradientTransform="matrix(42.21, 0, 0, -42.21, 91708.46, 39803.9)" xlink:href="#Degradado_sin_nombre_37"/><clipPath id="clip-path-15"><path class="cls-1" d="M127.2,90.8h2.3a1.28,1.28,0,0,1,1.12.59,1.32,1.32,0,0,1,.24.76,1.25,1.25,0,0,1-.6,1.11,1.43,1.43,0,0,1-.75.22H127.2Zm-.42-1h-.43v8.25h.86V94.45h2.16a3.14,3.14,0,0,1,.87,1.26,17.09,17.09,0,0,1,.65,2l.09.35h.9l-.17-.62a10.61,10.61,0,0,0-1.26-3.23,2.18,2.18,0,0,0,1.15-1.32,2.54,2.54,0,0,0,.13-.77,2.28,2.28,0,0,0-.75-1.74,2.09,2.09,0,0,0-1.47-.58Z"/></clipPath><linearGradient id="Degradado_sin_nombre_37-15" x1="-2165.13" y1="942.29" x2="-2164.97" y2="942.29" gradientTransform="matrix(36.16, 0, 0, -36.16, 78415.75, 34166.59)" xlink:href="#Degradado_sin_nombre_37"/><clipPath id="clip-path-16"><polygon class="cls-1" points="139.7 89.83 139.6 90.12 137.09 96.42 134.58 90.12 134.47 89.83 133.76 89.83 133.76 90.32 133.76 97.61 133.76 98.09 134.62 98.09 134.62 97.61 134.62 92.58 136.71 97.8 136.81 98.09 137.37 98.09 137.48 97.8 139.55 92.58 139.56 97.61 139.56 98.09 140.42 98.09 140.42 97.61 140.41 90.32 140.41 89.83 139.7 89.83"/></clipPath><linearGradient id="Degradado_sin_nombre_37-16" x1="-2173.19" y1="940.53" x2="-2173.04" y2="940.53" gradientTransform="matrix(43.62, 0, 0, -43.62, 94919.31, 41115.95)" xlink:href="#Degradado_sin_nombre_37"/><clipPath id="clip-path-17"><polygon class="cls-1" points="144.98 89.83 144.86 90.12 142.07 97.41 141.81 98.09 142.75 98.09 142.86 97.8 145.26 91.54 147.66 97.8 147.78 98.09 148.71 98.09 148.45 97.41 145.66 90.12 145.54 89.83 144.98 89.83"/></clipPath><linearGradient id="Degradado_sin_nombre_37-17" x1="-2175.33" y1="940.24" x2="-2175.18" y2="940.24" gradientTransform="matrix(45.16, 0, 0, -45.16, 98387.46, 42558.38)" xlink:href="#Degradado_sin_nombre_37"/><clipPath id="clip-path-18"><path class="cls-1" d="M63.19,68.08l-.11.2v16a.24.24,0,1,0,.47,0V68.42L80.26,58.05q2.13,1.34,4.34,2.69l.75.51a.24.24,0,0,0,.33-.07.23.23,0,0,0-.06-.33l-.75-.51h0c-1.52-.92-3-1.85-4.47-2.77h-.25Z"/></clipPath><linearGradient id="Degradado_sin_nombre_37-18" x1="-2194.5" y1="930.35" x2="-2194.35" y2="930.35" gradientTransform="translate(332223.1 -140747.29) scale(151.36)" xlink:href="#Degradado_sin_nombre_37"/><clipPath id="clip-path-19"><path class="cls-1" d="M93.13,72.62V83.56a.9.9,0,0,1-.28.68,1,1,0,0,1-.71.26l-.17.29h4.3l-.18-.29a1,1,0,0,1-.71-.26.94.94,0,0,1-.28-.68V72.62Zm-4.86-.94-.33,2.44.31-.12a1.74,1.74,0,0,1,.36-.82,3,3,0,0,1,.7-.62,3.32,3.32,0,0,1,.88-.39,3.49,3.49,0,0,1,.94-.13h6a3.43,3.43,0,0,1,.94.13,3.54,3.54,0,0,1,.89.39,2.74,2.74,0,0,1,.69.62A1.66,1.66,0,0,1,100,74l.3.12L100,71.68Zm11.69,0h0Z"/></clipPath><linearGradient id="Degradado_sin_nombre_22" x1="-2185.51" y1="935.51" x2="-2185.36" y2="935.51" gradientTransform="matrix(80.84, 0, 0, -80.84, 176765.87, 75705.44)" gradientUnits="userSpaceOnUse"><stop offset="0" stop-color="#8b7a4b"/><stop offset="0.39" stop-color="#a38f5b"/><stop offset="0.61" stop-color="#f7e69a"/><stop offset="0.78" stop-color="#f5e499"/><stop offset="0.84" stop-color="#eedd94"/><stop offset="0.89" stop-color="#e3d28b"/><stop offset="0.92" stop-color="#d2c17f"/><stop offset="0.96" stop-color="#bcab6f"/><stop offset="0.98" stop-color="#a1905b"/><stop offset="1" stop-color="#8b7a4b"/></linearGradient><linearGradient id="Degradado_sin_nombre_22-2" x1="-2185.51" y1="935.51" x2="-2185.36" y2="935.51" gradientTransform="matrix(80.84, 0, 0, -80.84, 176765.77, 75705.4)" xlink:href="#Degradado_sin_nombre_22"/><clipPath id="clip-path-21"><path class="cls-1" d="M79.67,67l.18.29a1,1,0,0,1,.7.27.88.88,0,0,1,.28.68V78.87a.88.88,0,0,1-.28.68,1,1,0,0,1-.7.27l-.18.29h3.09V70.62h0V67.38H85a4.63,4.63,0,0,1,2.07.48,5.33,5.33,0,0,1,1.69,1.34,6.48,6.48,0,0,1,1.14,2,6.82,6.82,0,0,1,.42,2.41,7.1,7.1,0,0,1-.23,1.8A6.71,6.71,0,0,1,89.43,77a6.44,6.44,0,0,1-1,1.31,5.06,5.06,0,0,1-1.25.94,4.9,4.9,0,0,1-1.07.44,11,11,0,0,1-1.11.26c-.36.07-.66.12-.91.15l-.46,0h2l.23,0a7,7,0,0,0,2.52-.65,7.27,7.27,0,0,0,2-1.43,6.58,6.58,0,0,0,1.35-2,5.94,5.94,0,0,0,.49-2.41A5.81,5.81,0,0,0,91.69,71a7.13,7.13,0,0,0-1.54-2.1A7.43,7.43,0,0,0,88,67.5,6.68,6.68,0,0,0,85.39,67Z"/></clipPath><linearGradient id="Degradado_sin_nombre_22-3" x1="-2185.39" y1="935.13" x2="-2185.23" y2="935.13" gradientTransform="matrix(82.5, 0, 0, -82.5, 180372.78, 77220.94)" xlink:href="#Degradado_sin_nombre_22"/><linearGradient id="Degradado_sin_nombre_22-4" x1="-2185.39" y1="935.13" x2="-2185.23" y2="935.13" gradientTransform="matrix(82.5, 0, 0, -82.5, 180372.78, 77220.94)" xlink:href="#Degradado_sin_nombre_22"/><clipPath id="clip-path-23"><path class="cls-1" d="M74,68.08l-.12.2v16a.24.24,0,0,0,.24.24.24.24,0,0,0,.24-.24V68.42L91.05,58q2.13,1.35,4.35,2.7,3.1,1.9,6.15,3.66a.24.24,0,0,0,.33-.08.24.24,0,0,0-.09-.33c-2-1.17-4.08-2.39-6.15-3.66-1.51-.92-3-1.85-4.46-2.77h-.25Z"/></clipPath><linearGradient id="Degradado_sin_nombre_37-19" x1="-2197.15" y1="930.66" x2="-2196.99" y2="930.66" gradientTransform="translate(410305.76 -173693.66) scale(186.71)" xlink:href="#Degradado_sin_nombre_37"/><clipPath id="clip-path-24"><path class="cls-1" d="M54.33,106.59V103.9a1.79,1.79,0,0,1,.48-.07,1.19,1.19,0,0,1,.51.1,1.15,1.15,0,0,1,.41.28,1.24,1.24,0,0,1,.26.45,1.55,1.55,0,0,1,.1.59,1.54,1.54,0,0,1-.1.58,1.24,1.24,0,0,1-.26.45,1.22,1.22,0,0,1-.9.38,2.05,2.05,0,0,1-.5-.07m-.9-2.94v.09h.12a.34.34,0,0,1,.27.11.69.69,0,0,1,.06.37v2a1,1,0,0,1,0,.26.64.64,0,0,1-.06.14.24.24,0,0,1-.11.06l-.14,0h-.12v.08h1.41a2.24,2.24,0,0,0,.77-.11,1.5,1.5,0,0,0,.56-.34,1.43,1.43,0,0,0,.34-.5,1.93,1.93,0,0,0,.11-.65,1.62,1.62,0,0,0-.23-.87,1.26,1.26,0,0,0-.59-.53,2.76,2.76,0,0,0-1.08-.17Z"/></clipPath><linearGradient id="Degradado_sin_nombre_37-20" x1="-2115.44" y1="952.8" x2="-2115.29" y2="952.8" gradientTransform="matrix(20.92, 0, 0, -20.92, 44301.53, 20034.71)" xlink:href="#Degradado_sin_nombre_37"/><clipPath id="clip-path-25"><path class="cls-1" d="M58.14,103.65v.09h.11a.43.43,0,0,1,.22.06.18.18,0,0,1,.07,0,.11.11,0,0,1,0,.07.37.37,0,0,1,0,.12s0,.1,0,.18v2a.88.88,0,0,1,0,.26.3.3,0,0,1-.06.15.2.2,0,0,1-.11.06h-.26v.08H59.5v-.08h-.11a.37.37,0,0,1-.21-.06.18.18,0,0,1-.07-.05.16.16,0,0,1,0-.07.37.37,0,0,1,0-.12v-2.22a.94.94,0,0,1,0-.26.31.31,0,0,1,.06-.14.19.19,0,0,1,.11-.07h.26v-.09Z"/></clipPath><linearGradient id="Degradado_sin_nombre_37-21" x1="-1994.64" y1="981.01" x2="-1994.49" y2="981.01" gradientTransform="matrix(8.88, 0, 0, -8.88, 17776.09, 8819.34)" xlink:href="#Degradado_sin_nombre_37"/><clipPath id="clip-path-26"><path class="cls-1" d="M63,103.58a.37.37,0,0,1-.06.15.18.18,0,0,1-.1,0l-.08,0-.11,0a1.21,1.21,0,0,0-.53-.13,1.11,1.11,0,0,0-.37.07.83.83,0,0,0-.3.18,1,1,0,0,0-.19.27.71.71,0,0,0-.07.32.74.74,0,0,0,.09.36,1,1,0,0,0,.26.3c.2.14.44.28.7.43l.36.22a.64.64,0,0,1,.21.23.44.44,0,0,1,.07.24.71.71,0,0,1,0,.2.65.65,0,0,1-.13.16.43.43,0,0,1-.2.11.71.71,0,0,1-.26,0,1,1,0,0,1-.24,0,.73.73,0,0,1-.22-.09.76.76,0,0,1-.19-.12.65.65,0,0,1-.13-.16,1.61,1.61,0,0,1-.16-.51h-.09v1.09h.09c0-.08,0-.13.05-.15a.12.12,0,0,1,.09,0l.1,0,.19.05.19.06.11,0,.26,0a1.29,1.29,0,0,0,.4-.07,1.16,1.16,0,0,0,.32-.2,1,1,0,0,0,.2-.28.75.75,0,0,0,.07-.33.8.8,0,0,0-.08-.37.86.86,0,0,0-.25-.29c-.26-.17-.46-.29-.61-.37s-.34-.19-.54-.32a.76.76,0,0,1-.21-.25.29.29,0,0,1,0-.16.34.34,0,0,1,0-.18.61.61,0,0,1,.12-.16.78.78,0,0,1,.18-.11.54.54,0,0,1,.22,0,.82.82,0,0,1,.59.23,1.19,1.19,0,0,1,.29.68H63v-1.1Z"/></clipPath><linearGradient id="Degradado_sin_nombre_37-22" x1="-2071.14" y1="963.61" x2="-2070.98" y2="963.61" gradientTransform="matrix(13.77, 0, 0, -13.77, 28579.49, 13373.6)" xlink:href="#Degradado_sin_nombre_37"/><clipPath id="clip-path-27"><path class="cls-1" d="M64.82,103.65v.09h.11a.39.39,0,0,1,.29.09.74.74,0,0,1,.06.38v2.06a1,1,0,0,1,0,.3.22.22,0,0,1,0,.08l-.08,0-.09,0h-.21v.08h2.44l.28-.79h-.09a2.34,2.34,0,0,1-.3.44l-.11.09-.12.06-.17,0h-.92s-.06,0-.07,0a.15.15,0,0,1,0-.1v-1.24h.69l.24,0a.36.36,0,0,1,.15.08.52.52,0,0,1,.07.15c0,.06,0,.13,0,.22H67v-1.1h-.09q0,.12,0,.21a.37.37,0,0,1-.07.14.36.36,0,0,1-.15.08.9.9,0,0,1-.25,0h-.69v-1.25h1.13a.34.34,0,0,1,.17.08.33.33,0,0,1,.1.15,2,2,0,0,1,.08.28h.05v-.7Z"/></clipPath><linearGradient id="Degradado_sin_nombre_37-23" x1="-2102.93" y1="956.46" x2="-2102.78" y2="956.46" gradientTransform="matrix(17.79, 0, 0, -17.79, 37472.49, 17119.14)" xlink:href="#Degradado_sin_nombre_37"/><clipPath id="clip-path-28"><path class="cls-1" d="M71.15,103.65v.09h.26a.24.24,0,0,1,.11.06.37.37,0,0,1,.06.14.9.9,0,0,1,0,.25V106l-1.94-2.38h-.85v.09l.2,0,.12,0a.31.31,0,0,1,.1,0l.08.08a1.67,1.67,0,0,1,.12.13v2.21a1.44,1.44,0,0,1,0,.24.31.31,0,0,1-.06.14.24.24,0,0,1-.11.06l-.15,0H69v.08h1.1v-.08h-.25a.24.24,0,0,1-.11-.06.31.31,0,0,1-.06-.14.86.86,0,0,1,0-.25v-2l2.09,2.56h.08V104.2a1.44,1.44,0,0,1,0-.24.64.64,0,0,1,.06-.14.26.26,0,0,1,.11-.07h.26v-.09Zm.11-.86a.71.71,0,0,1,0,.17.31.31,0,0,1,0,.1l-.06,0H71a.57.57,0,0,1-.29-.13l-.15-.1-.12-.06-.1,0h-.1a.39.39,0,0,0-.3.14.73.73,0,0,0-.14.47h.08a1.27,1.27,0,0,1,0-.18.46.46,0,0,1,.05-.1.1.1,0,0,1,0,0h.12l0,0,.08,0,.12.08a.88.88,0,0,0,.46.19.33.33,0,0,0,.17,0,.27.27,0,0,0,.14-.12.39.39,0,0,0,.1-.19,1.1,1.1,0,0,0,0-.27Z"/></clipPath><linearGradient id="Degradado_sin_nombre_37-24" x1="-2126.04" y1="951.15" x2="-2125.89" y2="951.15" gradientTransform="matrix(22.61, 0, 0, -22.61, 48131.17, 21606.9)" xlink:href="#Degradado_sin_nombre_37"/><clipPath id="clip-path-29"><path class="cls-1" d="M74.83,106.62a.86.86,0,0,1-.32-.31,1.3,1.3,0,0,1-.19-.48,2.32,2.32,0,0,1-.07-.61,2.77,2.77,0,0,1,.07-.61,1.48,1.48,0,0,1,.19-.46.88.88,0,0,1,.32-.29.82.82,0,0,1,.42-.11.92.92,0,0,1,.78.41,1.5,1.5,0,0,1,.19.48,2.51,2.51,0,0,1,.07.64,2.54,2.54,0,0,1-.08.66,1.35,1.35,0,0,1-.22.45.93.93,0,0,1-.33.26,1.06,1.06,0,0,1-.4.08.86.86,0,0,1-.43-.11m-.16-2.91a1.8,1.8,0,0,0-.5.35,1.73,1.73,0,0,0-.45,1.17,1.81,1.81,0,0,0,.12.67,1.74,1.74,0,0,0,.32.53,1.69,1.69,0,0,0,.49.35,1.58,1.58,0,0,0,.61.12,1.39,1.39,0,0,0,.61-.13,1.42,1.42,0,0,0,.49-.35,1.93,1.93,0,0,0,.34-.53,1.85,1.85,0,0,0,.12-.67,1.75,1.75,0,0,0-.12-.65,1.87,1.87,0,0,0-.34-.52,1.61,1.61,0,0,0-.48-.34,1.48,1.48,0,0,0-.58-.13,1.61,1.61,0,0,0-.63.13"/></clipPath><linearGradient id="Degradado_sin_nombre_37-25" x1="-2118.31" y1="953.41" x2="-2118.16" y2="953.41" gradientTransform="matrix(20.32, 0, 0, -20.32, 43124.16, 19481.4)" xlink:href="#Degradado_sin_nombre_37"/><clipPath id="clip-path-30"><path class="cls-1" d="M80.76,103.65v.09h.12a.42.42,0,0,1,.21.06.18.18,0,0,1,.07,0,.21.21,0,0,1,0,.07s0,.07,0,.12a.87.87,0,0,1,0,.18v2a1.61,1.61,0,0,1,0,.26.42.42,0,0,1-.07.15.2.2,0,0,1-.11.06h-.26v.08h1.36v-.08H82a.37.37,0,0,1-.21-.06.18.18,0,0,1-.07-.05.16.16,0,0,1,0-.07.37.37,0,0,1,0-.12v-2.22a1.61,1.61,0,0,1,0-.26.3.3,0,0,1,.07-.14.14.14,0,0,1,.1-.07h.26v-.09Z"/></clipPath><linearGradient id="Degradado_sin_nombre_37-26" x1="-2008.77" y1="981.01" x2="-2008.61" y2="981.01" gradientTransform="matrix(8.88, 0, 0, -8.88, 17924.15, 8819.34)" xlink:href="#Degradado_sin_nombre_37"/><clipPath id="clip-path-31"><path class="cls-1" d="M85.75,103.65v.09H86a.24.24,0,0,1,.11.06.26.26,0,0,1,.06.14.85.85,0,0,1,0,.25V106l-1.94-2.38H83.4v.09l.2,0,.13,0,.09,0,.09.08.11.13v2.21a.82.82,0,0,1,0,.24.23.23,0,0,1-.06.14.24.24,0,0,1-.11.06l-.14,0h-.12v.08h1.11v-.08h-.26a.17.17,0,0,1-.1-.06.3.3,0,0,1-.07-.14,1.47,1.47,0,0,1,0-.25v-2l2.09,2.56h.08V104.2a1.44,1.44,0,0,1,0-.24.37.37,0,0,1,.07-.14.18.18,0,0,1,.1-.07h.26v-.09Z"/></clipPath><linearGradient id="Degradado_sin_nombre_37-27" x1="-2129.62" y1="951.25" x2="-2129.47" y2="951.25" gradientTransform="matrix(22.61, 0, 0, -22.61, 48226.69, 21609.72)" xlink:href="#Degradado_sin_nombre_37"/><clipPath id="clip-path-32"><path class="cls-1" d="M88.29,103.65v.75h.08a.9.9,0,0,1,.06-.27.45.45,0,0,1,.13-.17.41.41,0,0,1,.19-.08,1,1,0,0,1,.25,0h.38v2.43a.82.82,0,0,1,0,.24.31.31,0,0,1-.06.14.24.24,0,0,1-.11.06l-.15,0h-.11v.08h1.35v-.08H90a.17.17,0,0,1-.1-.06.37.37,0,0,1-.07-.14,1.57,1.57,0,0,1,0-.25v-2.43h.45a.55.55,0,0,1,.4.13.69.69,0,0,1,.18.42h0v-.75Z"/></clipPath><linearGradient id="Degradado_sin_nombre_37-28" x1="-2106.78" y1="957.34" x2="-2106.63" y2="957.34" gradientTransform="matrix(17.17, 0, 0, -17.17, 36265.51, 16544.54)" xlink:href="#Degradado_sin_nombre_37"/><clipPath id="clip-path-33"><path class="cls-1" d="M92.38,103.65v.09h.12a.38.38,0,0,1,.28.09.74.74,0,0,1,.06.38v2.06a1,1,0,0,1,0,.3.22.22,0,0,1,0,.08l-.08,0-.09,0h-.21v.08h2.45l.27-.79H95a2.34,2.34,0,0,1-.3.44l-.11.09-.12.06-.16,0H93.4s-.07,0-.08,0a.15.15,0,0,1,0-.1v-1.24H94l.25,0a.32.32,0,0,1,.14.08.35.35,0,0,1,.07.15,1.09,1.09,0,0,1,0,.22h.09v-1.1h-.09a.66.66,0,0,1,0,.21.37.37,0,0,1-.07.14.36.36,0,0,1-.15.08.85.85,0,0,1-.25,0h-.69v-1.25h1.13a.34.34,0,0,1,.17.08.45.45,0,0,1,.11.15,2.26,2.26,0,0,1,.07.28h.06v-.7Z"/></clipPath><linearGradient id="Degradado_sin_nombre_37-29" x1="-2111.52" y1="956.46" x2="-2111.37" y2="956.46" gradientTransform="matrix(17.79, 0, 0, -17.79, 37652.89, 17119.14)" xlink:href="#Degradado_sin_nombre_37"/><clipPath id="clip-path-34"><path class="cls-1" d="M97.49,105.2h-.07v-1.32a1.91,1.91,0,0,1,.36,0,.87.87,0,0,1,.28,0,.65.65,0,0,1,.4.62.67.67,0,0,1-.06.28.51.51,0,0,1-.17.22,1.06,1.06,0,0,1-.28.15,1.62,1.62,0,0,1-.4,0h-.06m-1-1.55v.09h.12a.34.34,0,0,1,.27.11c0,.05.07.17.07.37v2a.82.82,0,0,1,0,.35.35.35,0,0,1-.29.13h-.12v.08h1.36v-.08h-.26a.24.24,0,0,1-.11-.06.26.26,0,0,1-.06-.14,1.06,1.06,0,0,1,0-.27v-.92h.33l1.07,1.48h.85v-.08l-.24,0a.66.66,0,0,1-.19-.09.86.86,0,0,1-.18-.16l-.2-.26-.65-.91a1.14,1.14,0,0,0,.59-.3.76.76,0,0,0,.19-.51.66.66,0,0,0,0-.25.78.78,0,0,0-.12-.22,1,1,0,0,0-.19-.16.91.91,0,0,0-.22-.11,1.76,1.76,0,0,0-.3-.06l-.44,0Z"/></clipPath><linearGradient id="Degradado_sin_nombre_37-30" x1="-2125.8" y1="953.08" x2="-2125.65" y2="953.08" gradientTransform="matrix(20.64, 0, 0, -20.64, 43978.85, 19779.34)" xlink:href="#Degradado_sin_nombre_37"/><clipPath id="clip-path-35"><path class="cls-1" d="M101,103.65v.09h.12a.42.42,0,0,1,.21.06.18.18,0,0,1,.07,0,.11.11,0,0,1,0,.07.37.37,0,0,1,0,.12.87.87,0,0,1,0,.18v2a.88.88,0,0,1,0,.26.3.3,0,0,1-.06.15.2.2,0,0,1-.11.06H101v.08h1.36v-.08h-.11a.37.37,0,0,1-.21-.06.18.18,0,0,1-.07-.05.16.16,0,0,1,0-.07.37.37,0,0,1,0-.12v-2.22a.94.94,0,0,1,0-.26.48.48,0,0,1,.06-.14.19.19,0,0,1,.11-.07h.26v-.09Z"/></clipPath><linearGradient id="Degradado_sin_nombre_37-31" x1="-2021.38" y1="981.01" x2="-2021.22" y2="981.01" gradientTransform="matrix(8.88, 0, 0, -8.88, 18056.37, 8819.34)" xlink:href="#Degradado_sin_nombre_37"/><clipPath id="clip-path-36"><path class="cls-1" d="M104.94,106.62a1,1,0,0,1-.32-.31,1.5,1.5,0,0,1-.19-.48,2.87,2.87,0,0,1-.06-.61,2.8,2.8,0,0,1,.06-.61,1.49,1.49,0,0,1,.2-.46.87.87,0,0,1,.74-.4.94.94,0,0,1,.45.11,1,1,0,0,1,.32.3,1.51,1.51,0,0,1,.2.48,3.1,3.1,0,0,1,.06.64,2.54,2.54,0,0,1-.08.66,1.18,1.18,0,0,1-.22.45,1,1,0,0,1-.32.26,1.11,1.11,0,0,1-.41.08.86.86,0,0,1-.43-.11m-.16-2.91a1.8,1.8,0,0,0-.5.35,1.73,1.73,0,0,0-.45,1.17,1.81,1.81,0,0,0,.12.67,1.59,1.59,0,0,0,.33.53,1.57,1.57,0,0,0,.49.35,1.53,1.53,0,0,0,.6.12,1.39,1.39,0,0,0,.61-.13,1.42,1.42,0,0,0,.49-.35,1.55,1.55,0,0,0,.34-.53,1.85,1.85,0,0,0,.12-.67,1.75,1.75,0,0,0-.12-.65,1.65,1.65,0,0,0-.33-.52,1.54,1.54,0,0,0-.49-.34,1.44,1.44,0,0,0-.58-.13,1.61,1.61,0,0,0-.63.13"/></clipPath><linearGradient id="Degradado_sin_nombre_37-32" x1="-2126.53" y1="953.41" x2="-2126.37" y2="953.41" gradientTransform="matrix(20.32, 0, 0, -20.32, 43321.26, 19481.4)" xlink:href="#Degradado_sin_nombre_37"/><clipPath id="clip-path-37"><path class="cls-1" d="M109.4,105.2h-.08v-1.32a2,2,0,0,1,.37,0,.87.87,0,0,1,.28,0,.64.64,0,0,1,.35.35.76.76,0,0,1,.05.27.67.67,0,0,1-.06.28.6.6,0,0,1-.17.22,1,1,0,0,1-.29.15,1.48,1.48,0,0,1-.39,0h-.06m-1-1.55v.09h.12a.34.34,0,0,1,.27.11c0,.05.07.17.07.37v2a.82.82,0,0,1,0,.35.35.35,0,0,1-.29.13h-.12v.08h1.36v-.08h-.26a.24.24,0,0,1-.11-.06.26.26,0,0,1-.06-.14,1,1,0,0,1,0-.27v-.92h.34l1.07,1.48h.84v-.08l-.23,0a.66.66,0,0,1-.19-.09.86.86,0,0,1-.18-.16l-.2-.26-.65-.91a1.14,1.14,0,0,0,.59-.3.76.76,0,0,0,.18-.51.66.66,0,0,0,0-.25.61.61,0,0,0-.13-.22.69.69,0,0,0-.18-.16.91.91,0,0,0-.22-.11,1.7,1.7,0,0,0-.31-.06l-.43,0Z"/></clipPath><linearGradient id="Degradado_sin_nombre_37-33" x1="-2129" y1="953.08" x2="-2128.85" y2="953.08" gradientTransform="matrix(20.64, 0, 0, -20.64, 44056.8, 19779.34)" xlink:href="#Degradado_sin_nombre_37"/></defs><g id="Capa_2" data-name="Capa 2"><g id="Capa_1-2" data-name="Capa 1"><rect class="cls-2" width="165" height="165"/><g class="cls-3"><rect class="cls-4" x="16.29" y="89.83" width="5.67" height="8.26"/></g><g class="cls-5"><rect class="cls-6" x="23.92" y="89.83" width="5.16" height="8.26"/></g><g class="cls-7"><rect class="cls-8" x="30.48" y="89.83" width="5.96" height="8.26"/></g><g class="cls-9"><rect class="cls-10" x="37.89" y="89.83" width="6.45" height="8.26"/></g><g class="cls-11"><rect class="cls-12" x="46.38" y="89.83" width="5.52" height="8.26"/></g><g class="cls-13"><rect class="cls-14" x="52.71" y="89.83" width="6.9" height="8.26"/></g><g class="cls-15"><rect class="cls-16" x="64.94" y="89.83" width="5.64" height="8.26"/></g><g class="cls-17"><rect class="cls-18" x="76.15" y="89.83" width="5.59" height="8.26"/></g><g class="cls-19"><rect class="cls-20" x="83.35" y="89.83" width="5.52" height="8.26"/></g><g class="cls-21"><rect class="cls-22" x="89.68" y="89.83" width="6.9" height="8.26"/></g><g class="cls-23"><rect class="cls-24" x="97.97" y="89.83" width="5.37" height="8.26"/></g><g class="cls-25"><rect class="cls-26" x="105.17" y="89.83" width="5.16" height="8.26"/></g><g class="cls-27"><rect class="cls-28" x="112.16" y="89.83" width="4.51" height="8.26"/></g><g class="cls-29"><rect class="cls-30" x="117.85" y="89.83" width="6.45" height="8.26"/></g><g class="cls-31"><rect class="cls-32" x="126.34" y="89.83" width="5.52" height="8.26"/></g><g class="cls-33"><rect class="cls-34" x="133.76" y="89.83" width="6.66" height="8.26"/></g><g class="cls-35"><rect class="cls-36" x="141.81" y="89.83" width="6.9" height="8.26"/></g><g class="cls-37"><rect class="cls-38" x="63.08" y="57.56" width="22.68" height="26.92"/></g><g class="cls-39"><rect class="cls-40" x="87.94" y="71.68" width="12.35" height="13.12"/></g><g class="cls-39"><rect class="cls-41" x="87.94" y="71.68" width="12.35" height="13.12"/></g><g class="cls-42"><rect class="cls-43" x="79.67" y="66.99" width="12.6" height="13.11"/></g><g class="cls-42"><rect class="cls-44" x="79.67" y="66.99" width="12.6" height="13.11"/></g><g class="cls-45"><rect class="cls-46" x="73.86" y="57.56" width="28.08" height="26.92"/></g><g class="cls-47"><rect class="cls-48" x="53.43" y="103.65" width="3.2" height="3.17"/></g><g class="cls-49"><rect class="cls-50" x="58.14" y="103.65" width="1.36" height="3.17"/></g><g class="cls-51"><rect class="cls-52" x="61.14" y="103.58" width="2.1" height="3.31"/></g><g class="cls-53"><rect class="cls-54" x="64.82" y="103.65" width="2.72" height="3.17"/></g><g class="cls-55"><rect class="cls-56" x="68.81" y="102.79" width="3.45" height="4.09"/></g><g class="cls-57"><rect class="cls-58" x="73.72" y="103.58" width="3.1" height="3.31"/></g><g class="cls-59"><rect class="cls-60" x="80.76" y="103.65" width="1.36" height="3.17"/></g><g class="cls-61"><rect class="cls-62" x="83.4" y="103.65" width="3.45" height="3.22"/></g><g class="cls-63"><rect class="cls-64" x="88.29" y="103.65" width="2.62" height="3.17"/></g><g class="cls-65"><rect class="cls-66" x="92.38" y="103.65" width="2.72" height="3.17"/></g><g class="cls-67"><rect class="cls-68" x="96.51" y="103.65" width="3.15" height="3.17"/></g><g class="cls-69"><rect class="cls-70" x="100.96" y="103.65" width="1.36" height="3.17"/></g><g class="cls-71"><rect class="cls-72" x="103.83" y="103.58" width="3.11" height="3.31"/></g><g class="cls-73"><rect class="cls-74" x="108.42" y="103.65" width="3.15" height="3.17"/></g></g></g></svg>