<svg xmlns="http://www.w3.org/2000/svg" viewBox="0 0 165 165"><defs><style>.cls-1{fill:#fff;}.cls-2{fill:#82b56f;}.cls-3{fill:#1e4c62;}</style></defs><g id="Capa_2" data-name="Capa 2"><g id="Capa_1-2" data-name="Capa 1"><rect class="cls-1" width="165" height="165"/><path class="cls-2" d="M41.63,97.29a1.75,1.75,0,0,1,0-3.5,1.75,1.75,0,1,1,0,3.5Z"/><path class="cls-3" d="M45.78,110.71V93.79h3.5V108h2.9v2.71Z"/><path class="cls-3" d="M60.28,110.71v-17h3.35v17Z"/><path class="cls-3" d="M70.17,110.93c-2.71,0-4.35-1.09-4.35-4.17V99h3.34v8.11c0,.68.32,1.2,1.08,1.2a2.1,2.1,0,0,0,.87-.2V99h3.36v11A8.34,8.34,0,0,1,70.17,110.93Z"/><path class="cls-3" d="M87.37,110.71v-8.15c0-.83-.34-1.37-1.1-1.37a1.33,1.33,0,0,0-.94.33v9.19H82v-8.15c0-.81-.34-1.37-1.14-1.37a2,2,0,0,0-.89.17v9.35H76.64v-11a8.68,8.68,0,0,1,4.21-.87,4.21,4.21,0,0,1,3.23,1,4.39,4.39,0,0,1,3.19-1c2.08,0,3.42,1.37,3.42,3.76v8.15Z"/><path class="cls-3" d="M94.52,97.29a1.75,1.75,0,0,1,0-3.5,1.75,1.75,0,1,1,0,3.5Z"/><rect class="cls-3" x="92.88" y="99.02" width="3.32" height="11.69"/><rect class="cls-3" x="39.98" y="99.02" width="3.32" height="11.69"/><path class="cls-3" d="M103.75,110.71v-8.15c0-.85-.31-1.33-1.15-1.33a2.08,2.08,0,0,0-.89.13v9.35H98.39v-11a8.91,8.91,0,0,1,4.23-.87c3.21,0,4.47,1.26,4.47,3.76v8.15Z"/><path class="cls-3" d="M113.2,110.93c-2.9,0-4.4-1.32-4.4-3.75,0-2.93,2-3.89,5.27-4.3v-.32c0-.83-.54-1.3-1.47-1.3a5.57,5.57,0,0,0-2.54.58l-.67-2.17a8.25,8.25,0,0,1,3.9-.87c2.34,0,4,1.18,4,4.52v6.74A7.24,7.24,0,0,1,113.2,110.93Zm.87-6.12c-1.5.2-2.17.78-2.17,2.21,0,1.07.48,1.65,1.43,1.65a2.09,2.09,0,0,0,.74-.13Z"/><path class="cls-3" d="M124.52,101.49a2.06,2.06,0,0,0-1.75-.13v9.35h-3.32v-11c1.11-.65,2.88-1,5.66-.82Z"/><rect class="cls-3" x="52.85" y="101.42" width="4.65" height="2.91"/><path class="cls-2" d="M37.74,87.7A23,23,0,0,1,28.48,86V55.82a24.1,24.1,0,0,1,9.26-1.75c9.58,0,14.52,6.07,14.52,16.82S47.32,87.7,37.74,87.7Zm.45-27.24a6.09,6.09,0,0,0-2.07.31V81.05a6.24,6.24,0,0,0,2.07.27c4,0,6.43-3.06,6.43-10.43S42.15,60.46,38.19,60.46Z"/><path class="cls-2" d="M56.47,87.7V54.07H74.59v6.6H64.23v6.87h9.24V74H64.23v7.11H74.59V87.7Z"/><path class="cls-2" d="M91.09,88C83.75,88,78,82.39,78,71s5.8-16.95,13.14-16.95a13.77,13.77,0,0,1,7.16,1.77L95.9,62a6.63,6.63,0,0,0-3.81-1.17c-3.76,0-6.21,3.62-6.21,10.15s2.45,10.19,6.21,10.19A6.64,6.64,0,0,0,95.9,79.9l2.35,6.29A13.32,13.32,0,0,1,91.09,88Z"/><circle class="cls-2" cx="104.57" cy="71.02" r="5.47"/><path class="cls-3" d="M119.81,87.73A16.7,16.7,0,0,1,106,80.36a1.65,1.65,0,0,1,2.74-1.85,13.4,13.4,0,1,0-.12-14.81,1.65,1.65,0,0,1-2.77-1.81,16.72,16.72,0,1,1,14,25.84Z"/></g></g></svg>