<svg xmlns="http://www.w3.org/2000/svg" viewBox="0 0 165 165"><defs><style>.cls-1{fill:#fff;}.cls-2{fill:#425195;}.cls-3{fill:#193389;}.cls-4{fill:#bcdbf2;}.cls-5{fill:#be1886;}</style></defs><g id="Capa_2" data-name="Capa 2"><g id="Capa_1-2" data-name="Capa 1"><rect class="cls-1" width="165" height="165"/><path class="cls-2" d="M101.76,83.23l.44.23a4.69,4.69,0,0,1-1.32,8.7,2.37,2.37,0,0,1-.46,0H94.94c-.51,0-.68-.17-.68-.67V75.91c0-.5.18-.67.68-.67,1.25,0,2.5,0,3.75,0a5.17,5.17,0,0,1,2.69.61A4.43,4.43,0,0,1,102,83Zm-6.45,7.91.19,0h5a1.19,1.19,0,0,0,.32,0,3.64,3.64,0,0,0-.78-7.19H95.6c-.24,0-.31.06-.31.31,0,2.22,0,4.43,0,6.64C95.29,91,95.3,91,95.31,91.14Zm0-8.28.17,0H100a.93.93,0,0,0,.33-.07,3.38,3.38,0,0,0-1.09-6.55H95.6l-.29,0Z"/><path d="M30.23,92H27c-.53,0-.75-.22-.75-.74,0-1,0-2,0-2.93.24-4.19.08-8.39.13-12.59,0-.39.18-.57.58-.57,2.13,0,4.26,0,6.39,0a5.64,5.64,0,0,1,2.46.71,8.38,8.38,0,0,1,4.81,6.77A8.54,8.54,0,0,1,33.72,92H30.23Zm-2.82-8.44v7.07c0,.23.06.3.3.3h5.48a1.23,1.23,0,0,0,.27,0,8.17,8.17,0,0,0,5.44-4.06A5.86,5.86,0,0,0,39.68,84a7.5,7.5,0,0,0-4.62-7.33,5.53,5.53,0,0,0-1.86-.46c-1.82-.07-3.64,0-5.46,0-.28,0-.34.08-.33.35C27.42,78.87,27.41,81.22,27.41,83.57Z"/><path d="M42.78,86.15a5.82,5.82,0,0,0,5.14,5,5.89,5.89,0,0,0,5.73-2.93c.1-.15.2-.22.37-.14l.82.43a6.94,6.94,0,0,1-1.74,2.16A7.08,7.08,0,0,1,42,87.7a5.62,5.62,0,0,1,1-5.55,6.83,6.83,0,0,1,12.19,2.66c0,.24.09.48.11.72a.51.51,0,0,1-.58.62H42.78Zm11.4-1a5.79,5.79,0,0,0-6.26-4.72c-2.48.21-5.15,2.66-5.09,4.72Z"/><path class="cls-2" d="M126.46,86.55a5.89,5.89,0,0,0,7.92,4.71,5.9,5.9,0,0,0,3.2-2.82l.91.47a6.79,6.79,0,0,1-2.12,2.45,7,7,0,0,1-10.79-3.74A5.6,5.6,0,0,1,127.06,82a6.82,6.82,0,0,1,11.11,1.38,7.43,7.43,0,0,1,.74,2.34,1.53,1.53,0,0,1,0,.37.46.46,0,0,1-.43.44,1.08,1.08,0,0,1-.18,0l-11.53,0Zm0-1h11.35a5.77,5.77,0,0,0-11.35,0Z"/><path d="M77.94,92.26a6.66,6.66,0,0,1-6.51-5.08,6.81,6.81,0,0,1,1.91-6.33A6.45,6.45,0,0,1,78.11,79a6.64,6.64,0,0,1-.17,13.27ZM78,80l-.56,0-.35,0a5.63,5.63,0,0,0-2.51,10,5.35,5.35,0,0,0,5.2.74,6.06,6.06,0,0,0,3.67-4.06A4.13,4.13,0,0,0,83.52,85,5.59,5.59,0,0,0,78,80Z"/><path d="M69.43,83.42l-.89.37a5.79,5.79,0,0,0-6.82-3.37,5.72,5.72,0,0,0-.23,11,5.83,5.83,0,0,0,6.89-3.34l1.05.41A6.79,6.79,0,0,1,56.5,87.32a7,7,0,0,1,1.16-5.22,6.73,6.73,0,0,1,11.77,1.32Z"/><path class="cls-2" d="M122.15,80.42h1V92h-1V90.22l-.19.22a5.85,5.85,0,0,1-10.35-2.68,2.59,2.59,0,0,1,0-.56q0-3.24,0-6.48v-.34h1v.32c0,2.07,0,4.14,0,6.2a4.81,4.81,0,0,0,9.56.61,1.94,1.94,0,0,0,0-.34V80.42Z"/><path class="cls-3" d="M29.36,71.64a2.86,2.86,0,0,0,.42-.24c.36-.28.7-.58,1.06-.86a.27.27,0,0,1,.42.07.35.35,0,0,1-.07.46,2.18,2.18,0,0,1-.22.12h.08c.21,0,.37,0,.37.29a.34.34,0,0,1-.34.36l-.48.07c-.31.06-.58.14-.6.56a.65.65,0,0,1-.46.55c-.65.21-1.3.4-1.94.59-.33.1-.66.18-1,.29A3.6,3.6,0,0,0,25,75.05c-.05.06-.18.13-.23.11a.29.29,0,0,1-.14-.23,1.5,1.5,0,0,1,.16-.52,3,3,0,0,1,1.44-1c.62-.26,1.25-.46,1.88-.7.23-.1.46-.22.73-.35-.47-.37-.38-.77-.29-1.21.19-.86.36-1.72.47-2.58a14.34,14.34,0,0,0,.11-2.17A4.59,4.59,0,0,0,28.85,65a1.37,1.37,0,0,0-1.64-1,1.35,1.35,0,0,0-1.16,1.34c0,.49,0,1,0,1.47a1.36,1.36,0,0,1-.06.29c-.1,0-.23-.06-.29-.13a2.86,2.86,0,0,1-.52-1.77,2.63,2.63,0,0,1,2-2.56,2.06,2.06,0,0,1,2.23.93A4,4,0,0,1,30,65.7a19.53,19.53,0,0,1-.67,5.49c0,.12,0,.24-.06.36Z"/><path d="M88.06,91.48h-.89a.27.27,0,0,1-.29-.32c0-1.23-.07-2.46,0-3.68.23-2.4.06-4.8.13-7.2a.62.62,0,0,1,0-.13h1v1a5.74,5.74,0,0,1,2-1.49,5.3,5.3,0,0,1,2.45-.39l-.06.93c-.5.07-1,.1-1.43.21A4.26,4.26,0,0,0,88.14,83a1.08,1.08,0,0,0-.08.44v8Z"/><path class="cls-2" d="M106.86,75.52h1V91.94h-1Z"/><path d="M54.68,100a.59.59,0,0,0,.61-.37.72.72,0,0,0,.07-.25q0-1,0-2c0-.37-.09-.45-.46-.53-.07,0-.12-.08-.18-.12s.11-.09.17-.1c.38,0,.77-.06,1.15-.11s.38.07.35.34a1.25,1.25,0,0,0,0,.26,1.9,1.9,0,0,1,1.15-.6,1.28,1.28,0,0,1,1.12.5l.22-.15a1.91,1.91,0,0,1,1.27-.35c.58,0,.91.42.94,1.1s0,1.08,0,1.61c0,.12,0,.23,0,.35s0,.4.31.45c.07,0,.13.11.19.17a.87.87,0,0,1-.26.08H59.89a.35.35,0,0,1-.38-.2c.18-.14.35-.26.51-.4a.24.24,0,0,0,.07-.16c0-.7,0-1.4,0-2.09a.54.54,0,0,0-1-.39.79.79,0,0,0-.35.6c0,.64-.06,1.29-.08,1.93,0,.22.05.4.33.43.08,0,.16.08.33.17a1.47,1.47,0,0,1-.31.1c-.55,0-1.09,0-1.64,0-.11,0-.23-.1-.41-.19.21-.1.36-.12.43-.21a1.09,1.09,0,0,0,.26-.54c0-.57,0-1.14,0-1.71a.78.78,0,0,0,0-.16c0-.22-.06-.46-.32-.55a.61.61,0,0,0-.67.29,3.22,3.22,0,0,0-.32,1,11.94,11.94,0,0,0,0,1.34c0,.21,0,.38.3.43.07,0,.13.11.2.17a1,1,0,0,1-.28.09c-.49,0-1,0-1.47,0A.42.42,0,0,1,54.68,100Z"/><path d="M108.07,96.75a7.55,7.55,0,0,1,.93-.26.58.58,0,0,1,.41.19.38.38,0,0,1-.06.58.43.43,0,0,1-.58-.08l0-.07c-.18-.3-.18-.3-.46-.07a2.94,2.94,0,0,1,.16.58,1.27,1.27,0,0,1-1,1.42c-.33.09-.67.11-1,.17a.66.66,0,0,0-.28.09.48.48,0,0,0-.15.31s.16.15.25.16c.52,0,1,.06,1.55.11a2,2,0,0,1,.59.15,1,1,0,0,1,.43,1.65,1.73,1.73,0,0,1-1.24.68,8.57,8.57,0,0,1-1.68,0,1.86,1.86,0,0,1-.81-.37.67.67,0,0,1,0-1.15,4.07,4.07,0,0,1,.65-.35,4.14,4.14,0,0,1-.48-.34.35.35,0,0,1,0-.56L106,99a.35.35,0,0,0-.12-.09,1.19,1.19,0,0,1-.28-1.88,1.88,1.88,0,0,1,2.4-.27l.09.06Zm-.88,3.84a1.83,1.83,0,0,0-1.15.4.59.59,0,0,0-.2.58.57.57,0,0,0,.46.43,2,2,0,0,0,1.36-.14,1,1,0,0,0,.54-.6.39.39,0,0,0-.27-.53C107.69,100.66,107.44,100.64,107.19,100.59Zm.27-2.76a5.29,5.29,0,0,0-.27-.86c-.15-.3-.47-.29-.69,0a1.72,1.72,0,0,0,0,1.75.43.43,0,0,0,.76-.1A7.15,7.15,0,0,0,107.46,97.83Z"/><path d="M49,97a4.47,4.47,0,0,1,1-.46,1,1,0,0,1,1.36,1.08c0,.59,0,1.19,0,1.79,0,.29,0,.52.37.6.05,0,.1.11.1.16s-.1.09-.15.1a.81.81,0,0,1-.22,0c-.37,0-.75,0-1.12,0s-.46,0-.62-.18l.47-.42a.35.35,0,0,0,.12-.21c0-.6,0-1.2,0-1.8a.86.86,0,0,0,0-.16c0-.23,0-.5-.34-.58a.57.57,0,0,0-.66.31,2.75,2.75,0,0,0-.3,1,9.22,9.22,0,0,0,0,1.39.42.42,0,0,0,.33.48c.05,0,.09.09.13.14a.37.37,0,0,1-.16.07h-.38q-.49,0-1,0a.78.78,0,0,1-.77-.24,1.3,1.3,0,0,1,.19-.11.69.69,0,0,0,.55-.69c0-1.21.05-2.42.07-3.63,0-.38,0-.72-.49-.84,0,0-.07-.09-.1-.14s.09-.09.13-.09H49Z"/><path d="M46.19,95c.09-.11.16-.22.25-.31s.26-.09.28.09c0,.55.08,1.09.1,1.64,0,.06-.07.12-.11.19a1.39,1.39,0,0,1-.19-.15,12.22,12.22,0,0,0-.66-1,1.38,1.38,0,0,0-2.25.11,3.54,3.54,0,0,0,.25,3.79,1.43,1.43,0,0,0,1.43.44,2.12,2.12,0,0,0,1.34-.85c0-.07.18-.09.28-.13,0,.11,0,.24,0,.32a2.6,2.6,0,0,1-2,1.27,3.25,3.25,0,0,1-1.48-.18,2.59,2.59,0,0,1-1.71-2.39A2.93,2.93,0,0,1,42.92,95a2.83,2.83,0,0,1,3-.2Z"/><path d="M142.81,81a3.09,3.09,0,0,1,0-6.18,3.09,3.09,0,1,1,0,6.18Zm2.57-3.07a2.57,2.57,0,1,0-2.58,2.56A2.57,2.57,0,0,0,145.38,77.93Z"/><path d="M68.52,100a.68.68,0,0,0,.19-.08c.13-.13.33-.27.34-.41,0-.72,0-1.45,0-2.17a.43.43,0,0,0-.31-.45.54.54,0,0,0-.56.19,2,2,0,0,0-.5,1.3c0,.38,0,.77,0,1.15a.46.46,0,0,0,.35.48c.06,0,.1.1.15.15a.6.6,0,0,1-.21.08c-.55,0-1.1,0-1.66,0-.11,0-.22-.1-.37-.18.08-.06.11-.1.16-.11a.71.71,0,0,0,.53-.62c0-.63,0-1.27,0-1.9a.59.59,0,0,0-.41-.65s-.07,0-.1-.16l1.42-.12.21.74a2,2,0,0,1,.25-.33,1.42,1.42,0,0,1,1.56-.32,1,1,0,0,1,.55.94c0,.56,0,1.12,0,1.69,0,.1,0,.21,0,.32s.06.4.31.47c.07,0,.12.11.18.16a.73.73,0,0,1-.24.07c-.5,0-1,0-1.5,0a1.17,1.17,0,0,1-.38-.14Z"/><path d="M100.31,98.52a1.88,1.88,0,0,1,1.22-1.91,2.21,2.21,0,0,1,2.34.45,1.72,1.72,0,0,1,.32,2,1.87,1.87,0,0,1-1.74,1.27,2.9,2.9,0,0,1-1.09-.18A1.55,1.55,0,0,1,100.31,98.52Zm2.82,0a2.6,2.6,0,0,0-.31-1.4.62.62,0,0,0-1.15,0,3.18,3.18,0,0,0-.19.75,2.91,2.91,0,0,0,.27,1.69.5.5,0,0,0,.76.25,1,1,0,0,0,.6-.9C103.11,98.81,103.13,98.67,103.13,98.53Z"/><path d="M95,96.45a1.86,1.86,0,0,1,1.91,1.39A2,2,0,0,1,95,100.28a2.68,2.68,0,0,1-1.08-.22,1.66,1.66,0,0,1-1-1.88,1.88,1.88,0,0,1,1.47-1.65C94.6,96.49,94.8,96.48,95,96.45Zm.78,2.06a2.92,2.92,0,0,0-.34-1.39.63.63,0,0,0-.58-.37.58.58,0,0,0-.55.4,2.94,2.94,0,0,0,.11,2.51.46.46,0,0,0,.68.2.91.91,0,0,0,.61-.76C95.71,98.9,95.75,98.71,95.77,98.51Z"/><path d="M79,100a1.38,1.38,0,0,1-1,.29c-.34,0-.69,0-.86-.29a5.28,5.28,0,0,1-.91.29.94.94,0,0,1-1-.58,1.1,1.1,0,0,1,.53-1.19c.35-.18.72-.3,1.08-.45a.73.73,0,0,0,.45-.9.5.5,0,0,0-.49-.41c-.28,0-.37.18-.43.4-.1.39-.22.5-.51.51s-.56-.25-.42-.57a1,1,0,0,1,.41-.42,2.54,2.54,0,0,1,1.76-.11.8.8,0,0,1,.69.89c0,.6,0,1.2,0,1.8,0,.28,0,.61.41.62C78.83,99.87,78.9,99.93,79,100Zm-1.66-1.78-.09,0c-.24.14-.49.28-.72.44a.73.73,0,0,0-.21.93.37.37,0,0,0,.19.16c.22.05.67-.18.71-.4S77.32,98.58,77.36,98.21Z"/><path d="M120.42,100a1.45,1.45,0,0,1-1,.29.78.78,0,0,1-.88-.31,4.87,4.87,0,0,1-.69.29,1,1,0,0,1-1.2-.52,1.08,1.08,0,0,1,.52-1.23c.35-.18.72-.3,1.08-.46a.71.71,0,0,0,.44-.87.5.5,0,0,0-.5-.43c-.28,0-.35.19-.42.41a1.11,1.11,0,0,1-.23.41.5.5,0,0,1-.62,0,.42.42,0,0,1,0-.56,1,1,0,0,1,.43-.34,2.63,2.63,0,0,1,1.66-.11.83.83,0,0,1,.73.92c0,.64,0,1.29,0,1.93,0,.24,0,.48.37.46C120.19,99.84,120.27,99.92,120.42,100Zm-1.68-1.86c-.33.2-.59.34-.84.51a.72.72,0,0,0-.16.92.36.36,0,0,0,.23.15.63.63,0,0,0,.7-.51C118.72,98.87,118.71,98.53,118.74,98.13Z"/><path d="M63.35,98.26a1.77,1.77,0,0,0,.26,1.2.72.72,0,0,0,.83.35c.33-.1.63-.28,1-.41a2,2,0,0,1,.26-.05c0,.08,0,.19,0,.24a1.92,1.92,0,0,1-2,.67,1.62,1.62,0,0,1-1.43-1.21,2,2,0,0,1,2.41-2.53,1.67,1.67,0,0,1,1.13,1.39c0,.22,0,.31-.27.32l-2,0Zm0-.28h.94c.48,0,.6-.18.46-.65a.91.91,0,0,0-.13-.26.55.55,0,0,0-1,.06A7.31,7.31,0,0,0,63.32,98Z"/><path d="M72.27,98.25a1.83,1.83,0,0,0,.27,1.21.73.73,0,0,0,.86.34c.32-.1.61-.27.92-.4a.75.75,0,0,1,.26,0c0,.08,0,.18,0,.24a1.94,1.94,0,0,1-2,.66A1.58,1.58,0,0,1,71.16,99a2,2,0,0,1,2.41-2.52,1.71,1.71,0,0,1,1.13,1.34c0,.25,0,.37-.32.37-.59,0-1.19,0-1.79,0Zm0-.3.14,0h.8c.46,0,.57-.16.46-.61a.84.84,0,0,0-.13-.29.58.58,0,0,0-.54-.33.56.56,0,0,0-.5.39C72.39,97.39,72.33,97.66,72.25,98Z"/><path d="M85.82,98.23a1.77,1.77,0,0,0,.27,1.23.66.66,0,0,0,.75.35,7.34,7.34,0,0,0,1-.38l.3-.07a1,1,0,0,1-.09.3,2.09,2.09,0,0,1-2.92.1,1.82,1.82,0,0,1-.3-2.08,1.78,1.78,0,0,1,1.63-1.2,1.55,1.55,0,0,1,1.76,1.17l0,.13c.06.37,0,.44-.35.44C87.2,98.24,86.52,98.23,85.82,98.23Zm0-.25h.95c.46,0,.57-.16.46-.61a1.08,1.08,0,0,0-.13-.29.59.59,0,0,0-.54-.33.56.56,0,0,0-.5.39C85.93,97.39,85.88,97.66,85.79,98Z"/><path class="cls-4" d="M24.7,73.78a3.47,3.47,0,0,1-.21.37A13.76,13.76,0,0,1,22,76.82a1.77,1.77,0,0,1-2.86-1,1.74,1.74,0,0,1,.24-1.31,4.74,4.74,0,0,1,1.37-1.38c.06,0,.18,0,.26,0a.75.75,0,0,1,0,.26c-.28.43-.57.86-.85,1.3A2.06,2.06,0,0,0,20,75a.91.91,0,0,0,.18,1.11,1.09,1.09,0,0,0,1.28.14,9.07,9.07,0,0,0,1.26-1c.48-.41.92-.85,1.39-1.26a2.84,2.84,0,0,1,.56-.33Z"/><path d="M99.84,100.18a1,1,0,0,1-.25,0c-.64,0-1.28,0-1.93,0a1.3,1.3,0,0,1-.38-.15l0-.09a1.66,1.66,0,0,1,.21-.06.58.58,0,0,0,.59-.63c0-1.21,0-2.43,0-3.65,0-.59-.07-.73-.62-.8,0,0-.09,0-.13-.08v-.08l1.74-.24v.32c0,1.53,0,3.06,0,4.59,0,.1,0,.19,0,.29a.28.28,0,0,0,.29.29,1.63,1.63,0,0,1,.4.15Z"/><path d="M123.2,96.77l.26-.18a2.33,2.33,0,0,1,.11.28,5.34,5.34,0,0,1,.05.69c0,.07-.06.13-.09.2a.74.74,0,0,1-.17-.12c-.08-.12-.14-.27-.22-.39a.94.94,0,0,0-1-.48.63.63,0,0,0-.41.32c0,.08.12.31.24.38.35.21.73.38,1.1.57a1.06,1.06,0,0,1,.69,1.22,1.32,1.32,0,0,1-1.22,1,1.92,1.92,0,0,1-1.2-.29c-.15.06-.29.17-.37.14s-.2-.28-.15-.49a3.94,3.94,0,0,0,.06-.61.88.88,0,0,1,.09-.2c.06,0,.15.07.18.13.15.21.25.46.41.66a.74.74,0,0,0,1.2,0c.14-.16.12-.29,0-.4a4.31,4.31,0,0,0-.56-.39c-.28-.17-.57-.3-.83-.49a1,1,0,0,1,.06-1.66,1.43,1.43,0,0,1,1.48-.07Z"/><path d="M81.76,96.76l.27-.17a.75.75,0,0,1,.08.24c0,.3,0,.61.07.92l-.11,0a1.42,1.42,0,0,1-.22-.28,1.24,1.24,0,0,0-.8-.73.82.82,0,0,0-.27,0,.47.47,0,0,0-.49.31c-.06.22.12.34.29.43.35.19.7.35,1,.53.59.31.82.71.7,1.24a1.3,1.3,0,0,1-1.25,1,2,2,0,0,1-1.21-.32c-.14.13-.28.34-.45.06a.45.45,0,0,1,0-.26c0-.25,0-.49.08-.74,0-.06.05-.12.07-.19s.16.06.19.12.21.39.34.58a.79.79,0,0,0,.69.39.7.7,0,0,0,.64-.37.37.37,0,0,0-.07-.33,3.82,3.82,0,0,0-.57-.39c-.27-.17-.57-.3-.83-.49A1,1,0,0,1,80,96.71a1.47,1.47,0,0,1,1.51-.08l.27.13Z"/><path d="M88.86,98.44a1.91,1.91,0,0,1,2.73-1.8.82.82,0,0,1,.58.73.4.4,0,0,1-.27.42.41.41,0,0,1-.53-.15,4.27,4.27,0,0,1-.24-.53c-.07-.19-.17-.34-.39-.36a.5.5,0,0,0-.51.28,2.36,2.36,0,0,0-.19.64,2.76,2.76,0,0,0,.24,1.72.71.71,0,0,0,1.06.32,1,1,0,0,0,.55-.57c0-.08.16-.13.25-.19,0,.1.08.21.06.29a1.35,1.35,0,0,1-1.07,1A1.8,1.8,0,0,1,88.86,98.44Z"/><path d="M113.7,98.12a3.34,3.34,0,0,0,.37,1.33.71.71,0,0,0,1,.28,1,1,0,0,0,.58-.6c0-.08.15-.12.23-.18,0,.1.1.21.07.3a1.31,1.31,0,0,1-1,1,1.84,1.84,0,0,1-2-.66,1.91,1.91,0,0,1-.15-2,1.79,1.79,0,0,1,1.69-1.08,1.52,1.52,0,0,1,1.1.33,1.29,1.29,0,0,1,.31.56.35.35,0,0,1-.26.44.43.43,0,0,1-.54-.19,3.27,3.27,0,0,1-.22-.51c-.07-.18-.16-.33-.37-.34A.46.46,0,0,0,114,97C113.87,97.37,113.8,97.75,113.7,98.12Z"/><path d="M52.05,100a1.86,1.86,0,0,1,.26-.08.52.52,0,0,0,.48-.55c0-.65,0-1.3,0-2s-.08-.56-.47-.59c0,0-.08-.05-.12-.12a9.42,9.42,0,0,1,1.64-.21v.94c0,.67,0,1.34,0,2,0,.29,0,.52.37.56.09,0,.17.09.26.2a.71.71,0,0,1-.24.06c-.32,0-.64,0-1,0a5.78,5.78,0,0,0-.72,0A.4.4,0,0,1,52.05,100Z"/><path d="M112.08,100.2l-.29,0c-.58,0-1.16,0-1.74,0a1.54,1.54,0,0,1-.38-.16l0-.1a.85.85,0,0,1,.22-.09.53.53,0,0,0,.51-.58c0-.63,0-1.27,0-1.9s0-.48-.48-.61q-.06,0-.12-.12a9.67,9.67,0,0,1,1.64-.21V97.7c0,.56,0,1.13,0,1.69,0,.29,0,.54.38.58a1.58,1.58,0,0,1,.26.13Z"/><path class="cls-5" d="M24,70.43a1.26,1.26,0,0,1-.07-1.66c.13-.21.32-.4.43-.62a4.38,4.38,0,0,0,.22-.67,1.49,1.49,0,0,1,.14-.24c.06.06.16.12.18.19a1.84,1.84,0,0,1-.29,1.75.67.67,0,0,0-.08.73,4.15,4.15,0,0,0,.29.6c.12.23.08.33-.18.36s-.66.06-1,.13a3.28,3.28,0,0,0-2,1.09c0,.06-.15.07-.23.09a.57.57,0,0,1,0-.26,2.58,2.58,0,0,1,2.35-1.46H24Z"/><path d="M102.8,94.48c.39,0,.56.29.41.54a.78.78,0,0,1-.2.24c-.35.27-.69.54-1.05.79-.08.06-.22,0-.33,0a1.08,1.08,0,0,1,.05-.28c.25-.37.5-.73.77-1.07A1.43,1.43,0,0,1,102.8,94.48Z"/><path d="M53.14,95.61a.59.59,0,1,1,0-1.18.59.59,0,0,1,.6.59A.6.6,0,0,1,53.14,95.61Z"/><path d="M110.75,95.61a.59.59,0,0,1-.6-.62.59.59,0,0,1,.65-.56.59.59,0,0,1,.59.6A.6.6,0,0,1,110.75,95.61Z"/><path d="M141.26,76.16c.67,0,1.33,0,2,0a.84.84,0,0,1,.84.78.9.9,0,0,1-.64,1l-.18.06,1.12,1.58c-.44.13-.57.09-.78-.23s-.32-.46-.45-.71a1.2,1.2,0,0,0-1.42-.56v1.54h-.47Zm.48.4v1.11c.46,0,.91,0,1.35,0a.55.55,0,0,0,0-1.09C142.64,76.53,142.2,76.56,141.74,76.56Z"/></g></g></svg>