<svg xmlns="http://www.w3.org/2000/svg" xmlns:xlink="http://www.w3.org/1999/xlink" viewBox="0 0 165 165"><defs><style>.cls-1{fill:#fff;}.cls-2{fill:#2a2a2a;}.cls-3{stroke-miterlimit:10;stroke-width:0.26px;fill:url(#Degradado_sin_nombre_8);stroke:url(#Degradado_sin_nombre_8-2);}.cls-4{fill:url(#Degradado_sin_nombre_15);}.cls-5{fill:url(#Degradado_sin_nombre_15-2);}.cls-6{fill:url(#Degradado_sin_nombre_15-3);}.cls-7{fill:url(#Degradado_sin_nombre_15-4);}.cls-8{fill:url(#Degradado_sin_nombre_8-3);}.cls-9{fill:url(#Degradado_sin_nombre_8-4);}.cls-10{fill:url(#Degradado_sin_nombre_8-5);}.cls-11{fill:url(#Degradado_sin_nombre_8-6);}.cls-12{fill:url(#Degradado_sin_nombre_8-7);}.cls-13{fill:url(#Degradado_sin_nombre_8-8);}.cls-14{fill:url(#Degradado_sin_nombre_8-9);}</style><linearGradient id="Degradado_sin_nombre_8" x1="113.14" y1="77.52" x2="132.96" y2="77.52" gradientUnits="userSpaceOnUse"><stop offset="0" stop-color="#f8e79b"/><stop offset="1" stop-color="#503a1c"/></linearGradient><linearGradient id="Degradado_sin_nombre_8-2" x1="113.01" y1="77.52" x2="133.08" y2="77.52" xlink:href="#Degradado_sin_nombre_8"/><linearGradient id="Degradado_sin_nombre_15" x1="27" y1="73.52" x2="27.97" y2="73.52" gradientUnits="userSpaceOnUse"><stop offset="0" stop-color="#f8e79b"/><stop offset="0.4" stop-color="#f6e59a"/><stop offset="0.55" stop-color="#f0de95"/><stop offset="0.65" stop-color="#e4d38c"/><stop offset="0.74" stop-color="#d4c280"/><stop offset="0.81" stop-color="#beac6f"/><stop offset="0.87" stop-color="#a4905b"/><stop offset="0.93" stop-color="#857044"/><stop offset="0.98" stop-color="#614c29"/><stop offset="1" stop-color="#503a1c"/></linearGradient><linearGradient id="Degradado_sin_nombre_15-2" x1="28.5" y1="72.68" x2="29.22" y2="72.68" xlink:href="#Degradado_sin_nombre_15"/><linearGradient id="Degradado_sin_nombre_15-3" x1="26.82" y1="88.14" x2="28.14" y2="88.14" xlink:href="#Degradado_sin_nombre_15"/><linearGradient id="Degradado_sin_nombre_15-4" x1="28.29" y1="86.1" x2="29.43" y2="86.1" xlink:href="#Degradado_sin_nombre_15"/><linearGradient id="Degradado_sin_nombre_8-3" x1="26.64" y1="78.55" x2="52.27" y2="78.55" xlink:href="#Degradado_sin_nombre_8"/><linearGradient id="Degradado_sin_nombre_8-4" x1="26.64" y1="74.53" x2="53.06" y2="74.53" xlink:href="#Degradado_sin_nombre_8"/><linearGradient id="Degradado_sin_nombre_8-5" x1="26.64" y1="70.6" x2="53.24" y2="70.6" xlink:href="#Degradado_sin_nombre_8"/><linearGradient id="Degradado_sin_nombre_8-6" x1="26.64" y1="67.31" x2="53.08" y2="67.31" xlink:href="#Degradado_sin_nombre_8"/><linearGradient id="Degradado_sin_nombre_8-7" x1="35.23" y1="65.71" x2="52.41" y2="65.71" xlink:href="#Degradado_sin_nombre_8"/><linearGradient id="Degradado_sin_nombre_8-8" x1="41.86" y1="64.33" x2="50.77" y2="64.33" xlink:href="#Degradado_sin_nombre_8"/><linearGradient id="Degradado_sin_nombre_8-9" x1="30.6" y1="89.12" x2="50.72" y2="89.12" xlink:href="#Degradado_sin_nombre_8"/></defs><g id="Capa_2" data-name="Capa 2"><g id="Capa_1-2" data-name="Capa 1"><rect class="cls-1" width="165" height="165"/><path class="cls-2" d="M71.66,79l-.19-.36a4.49,4.49,0,0,0-4.15-2.42H60.39V92h8.85a8.07,8.07,0,0,0,6.2-3.74l.5-.73h.32C76,89,75.67,91,75.44,92.44h0l-.05.32H55.1v-.5l.37,0a2.37,2.37,0,0,0,2.1-2.56V64.08a2.36,2.36,0,0,0-2.1-2.55l-.37-.05V61h20v5.2H74.8l-.32-.73A6.4,6.4,0,0,0,69,61.71H60.48V75.44h6.94c1.82,0,3.6-.87,4.15-2.1l.18-.37h.36V79Z"/><path class="cls-2" d="M87.34,61.53l-.36,0a2.37,2.37,0,0,0-2.1,2.56V75.71l13-11.58c1.6-1.42,2.14-2.47,1.28-2.56l-.28,0V61h5.48v.5a9.23,9.23,0,0,0-5,2.23L87.57,74.34c1.14,1.19,4.15,4.38,8,8.39,6.74,6.93,9.94,9.76,11.76,9.76v.59h-1.09c-3.24,0-7.12-2.55-12.77-8.43-3.88-4-6.89-7.21-8-8.39l0,0-.51-.59v14A2.36,2.36,0,0,0,87,92.26l.37,0v.5H79.5v-.5l.36,0A2.36,2.36,0,0,0,82,89.71V64.13a2.37,2.37,0,0,0-2.1-2.56l-.36,0V61h7.89v.5Z"/><path class="cls-2" d="M122.35,60.8c10.21,0,16,7.7,16,16.14s-5.8,16.14-16,16.14-16-7.7-16-16.14S112.14,60.8,122.35,60.8Zm0,31.51c8.17,0,12.77-7.34,12.77-15.37s-4.6-15.37-12.77-15.37-12.72,7.34-12.72,15.37S114.19,92.31,122.3,92.31Z"/><path class="cls-3" d="M114.93,74h-.08a.54.54,0,0,0-.48.58V81h2.13a1.45,1.45,0,0,0,1.18-.78l.18-.36.13.06c0,.34-.14.82-.2,1.16v.08h-4.64V81h.09a.54.54,0,0,0,.48-.58V74.58a.54.54,0,0,0-.48-.58h-.09v-.12H115V74Zm10.59,0h-.08a.61.61,0,0,0-.56.66v4.49c0,1.17-.79,2-2.59,2s-2.7-1-2.7-2.37V74.57a.54.54,0,0,0-.48-.58H119v-.12h1.8V74h-.08a.54.54,0,0,0-.48.58V79a1.87,1.87,0,0,0,2.13,2c1.6,0,2.31-.78,2.31-1.87V74.66a.62.62,0,0,0-.59-.66H124v-.12h1.52Zm3,0h-.1c-.32,0-.39.26-.17.58h0l1.69,2.5,1.66-2.5c.2-.31.14-.56-.2-.58h-.18v-.12h1.6V74a1.34,1.34,0,0,0-.94.53L130,77.24l2.24,3.3a1.16,1.16,0,0,0,.74.5v.12H131.1V81h.1c.32,0,.39-.26.17-.58h0l-1.81-2.67-1.66,2.62c-.2.35-.09.61.25.63h.12v.12h-1.59V81a1.25,1.25,0,0,0,.89-.51l1.89-2.92-2.14-3.12a1.16,1.16,0,0,0-.74-.5v-.12h1.85Z"/><path class="cls-2" d="M46.07,100.85h-1.2v3.37h-.21V97.33H46a1.51,1.51,0,0,1,1.55,1.72C47.56,100.18,46.9,100.85,46.07,100.85Zm0-3.32H44.87v3.11h1.24c.6,0,1.23-.48,1.23-1.59S46.67,97.53,46.08,97.53Z"/><path class="cls-2" d="M48.79,104.22V97.33h2.49v.2H49v3h2.13v.2H49V104h2.33v.19Z"/><path class="cls-2" d="M55.39,104.22l-1.45-3.47H52.85v3.47h-.21V97.33H54A1.51,1.51,0,0,1,55.59,99c0,1.27-.77,1.71-1.42,1.72l1.47,3.48Zm-1.45-6.69H52.85v3H54c.89,0,1.37-.6,1.37-1.53A1.32,1.32,0,0,0,53.94,97.53Z"/><path class="cls-2" d="M58.09,104.38a1.67,1.67,0,0,1-1.51-.85l.17-.12a1.58,1.58,0,0,0,1.33.77,1.41,1.41,0,0,0,1.32-1.58,2,2,0,0,0-1.31-1.74,2.11,2.11,0,0,1-1.42-1.94,1.56,1.56,0,0,1,1.55-1.74,1.37,1.37,0,0,1,1.29.7l-.16.13a1.21,1.21,0,0,0-1.14-.64,1.38,1.38,0,0,0-1.33,1.57,1.83,1.83,0,0,0,1.22,1.68,2.23,2.23,0,0,1,1.51,2A1.58,1.58,0,0,1,58.09,104.38Z"/><path class="cls-2" d="M61,104.22V97.33h.21v6.89Z"/><path class="cls-2" d="M65.37,102.26H62.94l-.52,2H62.2L64,97.33h.37l1.73,6.89h-.22Zm-2.38-.2h2.33l-1.13-4.58h0Z"/><path class="cls-2" d="M70.19,104.22l-2.9-6.63h0v6.63h-.21V97.33h.35L70.3,104h0V97.33h.21v6.89Z"/><path class="cls-2" d="M74.68,102.26H72.25l-.52,2h-.21l1.78-6.89h.37l1.72,6.89h-.22Zm-2.38-.2h2.33L73.5,97.48h0Z"/><path class="cls-2" d="M77.54,104.38a1.67,1.67,0,0,1-1.51-.85l.18-.12a1.55,1.55,0,0,0,1.32.77,1.41,1.41,0,0,0,1.32-1.58,2,2,0,0,0-1.31-1.74,2.11,2.11,0,0,1-1.42-1.94,1.56,1.56,0,0,1,1.55-1.74,1.37,1.37,0,0,1,1.29.7L78.8,98a1.21,1.21,0,0,0-1.14-.64,1.38,1.38,0,0,0-1.33,1.57,1.83,1.83,0,0,0,1.22,1.68,2.22,2.22,0,0,1,1.52,2A1.58,1.58,0,0,1,77.54,104.38Z"/><path class="cls-2" d="M85.54,104.22l-.75-1.16c-.28.74-.68,1.34-1.49,1.34s-1.46-.73-1.46-1.92a2.4,2.4,0,0,1,1.23-2.07,3.14,3.14,0,0,1-.66-1.77c0-.93.43-1.48,1.11-1.48s1.06.56,1.06,1.36-.52,1.39-1.25,1.94l1.41,2.2.76-2h.22l-.84,2.19.91,1.4Zm-2.38-3.65a2.23,2.23,0,0,0-1.11,1.91c0,1.06.56,1.72,1.27,1.72s1.08-.6,1.32-1.34Zm.35-3.24c-.52,0-.88.54-.88,1.3a2.94,2.94,0,0,0,.61,1.67c.65-.49,1.13-.92,1.13-1.74S84,97.33,83.51,97.33Z"/><path class="cls-2" d="M90.67,104.38c-1.42,0-2.17-1.56-2.17-3.6s.75-3.6,2.17-3.6a1.62,1.62,0,0,1,1.46.9l-.17.11a1.48,1.48,0,0,0-1.29-.82c-1.32,0-2,1.51-2,3.41s.65,3.4,2,3.4a1.61,1.61,0,0,0,1.39-1l.17.11A1.71,1.71,0,0,1,90.67,104.38Z"/><path class="cls-2" d="M95,104.38c-1.32,0-2.09-1.5-2.09-3.6s.72-3.6,2.09-3.6,2.08,1.5,2.08,3.6S96.27,104.38,95,104.38Zm0-7c-1.27,0-1.87,1.51-1.87,3.41s.6,3.4,1.87,3.4,1.86-1.51,1.86-3.4S96.18,97.37,95,97.37Z"/><path class="cls-2" d="M101.22,104.22l-1.45-3.47H98.68v3.47h-.21V97.33h1.35a1.51,1.51,0,0,1,1.6,1.69c0,1.27-.77,1.71-1.42,1.72l1.47,3.48Zm-1.45-6.69H98.68v3h1.16c.89,0,1.37-.6,1.37-1.53A1.32,1.32,0,0,0,99.77,97.53Z"/><path class="cls-2" d="M103.4,97.53v6.69h-.21V97.53h-1.36v-.2h2.93v.2Z"/><path class="cls-2" d="M105.63,104.22V97.33h.21v6.89Z"/><path class="cls-2" d="M110.71,104.22l-2.9-6.63h0v6.63h-.21V97.33h.35l2.89,6.63h0V97.33h.21v6.89Z"/><path class="cls-2" d="M115.2,102.26h-2.43l-.52,2H112l1.78-6.89h.37l1.73,6.89h-.22Zm-2.38-.2h2.33L114,97.48h0Z"/><path class="cls-2" d="M118.06,104.38a1.66,1.66,0,0,1-1.51-.85l.17-.12a1.57,1.57,0,0,0,1.33.77,1.41,1.41,0,0,0,1.32-1.58,2,2,0,0,0-1.31-1.74,2.11,2.11,0,0,1-1.42-1.94,1.56,1.56,0,0,1,1.55-1.74,1.38,1.38,0,0,1,1.29.7l-.16.13a1.21,1.21,0,0,0-1.14-.64,1.38,1.38,0,0,0-1.33,1.57,1.83,1.83,0,0,0,1.22,1.68,2.23,2.23,0,0,1,1.51,2A1.58,1.58,0,0,1,118.06,104.38Z"/><rect class="cls-4" x="27" y="60.63" width="0.97" height="25.78"/><rect class="cls-5" x="28.5" y="60.63" width="0.72" height="24.11"/><rect class="cls-6" x="26.82" y="86.9" width="1.32" height="2.48" rx="0.16"/><rect class="cls-7" x="28.29" y="85.14" width="1.14" height="1.92" rx="0.14"/><path class="cls-8" d="M26.64,72.26h3.9L43.77,82.64h8.5a14.39,14.39,0,0,1-1,2.21H42.71l-13-10.1h-3Z"/><path class="cls-9" d="M26.64,67.6v2.5h2.78L44.09,81.45h8.53a17.18,17.18,0,0,0,.44-2.27H45L30.29,67.6Z"/><path class="cls-10" d="M26.64,63.27v2.5H30L45.66,77.93h7.52a17.74,17.74,0,0,0,0-2.5H46.31L30.83,63.27Z"/><path class="cls-11" d="M26.64,60.61h7l14.2,11.15h4.79a18.7,18.7,0,0,1,.4,2.26H47L31.09,61.74H26.64Z"/><path class="cls-12" d="M35.23,60.61l13.18,10.2h4a13.66,13.66,0,0,0-.93-2.26h-2.1l-9.76-7.66A25.7,25.7,0,0,0,35.23,60.61Z"/><path class="cls-13" d="M41.86,61.34l7.73,6h1.18A14.22,14.22,0,0,0,41.86,61.34Z"/><path class="cls-14" d="M50.72,85.75a14.31,14.31,0,0,1-6,5.08,21.6,21.6,0,0,1-5.51,1.39c-.95.13-1.67.18-2.57.22-1.89.09-6,0-6,0V91h4.49a26.46,26.46,0,0,0,5.44-.64,15.08,15.08,0,0,0,4.72-1.68,12.87,12.87,0,0,0,3.43-2.93Z"/></g></g></svg>