<svg xmlns="http://www.w3.org/2000/svg" viewBox="0 0 165 165"><defs><style>.cls-1{fill:#fff;}.cls-2{fill:#181f23;}</style></defs><g id="Capa_2" data-name="Capa 2"><g id="Capa_1-2" data-name="Capa 1"><rect class="cls-1" width="165" height="165"/><path class="cls-2" d="M112.09,121.38a1.6,1.6,0,0,1-1.12-.46l-37.3-37.3a1.58,1.58,0,0,1,0-2.24L111,44.08a1.59,1.59,0,0,1,2.23,0,54.39,54.39,0,0,1,0,76.84,1.57,1.57,0,0,1-1.11.46M77,82.5l35,35a51.22,51.22,0,0,0,0-70.08Z"/><path class="cls-2" d="M74.79,121.38a1.61,1.61,0,0,1-1.12-.46l-37.3-37.3a1.59,1.59,0,0,1,0-2.24l37.3-37.3a1.6,1.6,0,0,1,2.24,0,54.4,54.4,0,0,1,0,76.84,1.63,1.63,0,0,1-1.12.46M39.73,82.5l35,35a51.22,51.22,0,0,0,0-70.08Z"/><path class="cls-2" d="M66.83,84.08H37.49a1.58,1.58,0,0,1,0-3.16H66.83a1.58,1.58,0,1,1,0,3.16"/><path class="cls-2" d="M101.35,46.78H74.79a1.58,1.58,0,1,1,0-3.16h26.56a1.58,1.58,0,1,1,0,3.16"/><path class="cls-2" d="M112.09,121.38H84.66a1.59,1.59,0,1,1,0-3.17h27.43a1.59,1.59,0,0,1,0,3.17"/></g></g></svg>