<svg xmlns="http://www.w3.org/2000/svg" viewBox="0 0 165 165"><defs><style>.cls-1{fill:#fff;}</style></defs><g id="Capa_2" data-name="Capa 2"><g id="Capa_1-2" data-name="Capa 1"><rect width="165" height="165"/><path class="cls-1" d="M29.14,99.73h.17v.34H21.44v5.31h5.77v.34H21.44V111h7.87v.34h-8a.16.16,0,0,1-.17-.17V99.9a.16.16,0,0,1,.17-.17Z"/><path class="cls-1" d="M29.62,111.67H21.27a.47.47,0,0,1-.48-.48V99.9a.47.47,0,0,1,.48-.48h8.35v1H21.76v4.67h5.76v1H21.76v4.68h7.86Z"/><path class="cls-1" d="M38.32,102.73v.17H38v-.17c0-1.49-1.54-2.66-3.41-2.66s-3.4,1.17-3.4,2.66c0,2.63,7.53,2.63,7.51,5.64,0,1.59-1.83,3-4.11,3s-4.1-1.38-4.1-3v-.17h.34v.17c0,1.47,1.71,2.65,3.76,2.65s3.77-1.2,3.77-2.65c0-2.69-7.49-2.65-7.51-5.64,0-1.63,1.64-3,3.74-3S38.32,101.1,38.32,102.73Z"/><path class="cls-1" d="M34.57,111.67c-2.43,0-4.41-1.48-4.41-3.3v-.48h1v.48c0,1.27,1.58,2.34,3.45,2.34S38,109.62,38,108.37c0-1.09-1.65-1.71-3.4-2.36-2-.75-4.1-1.53-4.11-3.28s1.82-3.31,4.05-3.31,4.06,1.48,4.06,3.31v.48h-1v-.48c0-1.29-1.39-2.34-3.1-2.34s-3.09,1-3.09,2.34c0,1,1.72,1.69,3.37,2.31,2,.77,4.15,1.56,4.14,3.33S37,111.67,34.57,111.67Z"/><path class="cls-1" d="M39.85,105.7h0V99.92a.16.16,0,0,1,.17-.17l4.65,0a3,3,0,1,1,0,6h-4.5v5.64h-.34V105.7Zm.33-.31h4.5a2.68,2.68,0,1,0,0-5.31h-4.5Z"/><path class="cls-1" d="M40.49,111.67h-1V106h0l0-.46v-5.6a.47.47,0,0,1,.49-.48l4.65,0a3.33,3.33,0,1,1,0,6.61H40.49Zm0-11.28v4.69l4.19,0a2.36,2.36,0,1,0,0-4.67Z"/><path class="cls-1" d="M48.42,111.36H48l5.1-11.53a.18.18,0,0,1,.31,0l5.11,11.53h-.37l-4.89-11Z"/><path class="cls-1" d="M59,111.67H58L53.3,101.1l-4.68,10.57H47.56l5.3-12a.46.46,0,0,1,.44-.28h0a.48.48,0,0,1,.44.28Z"/><path class="cls-1" d="M67.54,108.73l0-.09H68l-.13.26a5.16,5.16,0,0,1-4.26,2.46c-2.74,0-5-2.58-5-5.81s2.23-5.82,5-5.82a5,5,0,0,1,4.22,2.48l.12.26h-.36l0-.09a4.62,4.62,0,0,0-3.93-2.31c-2.57,0-4.64,2.45-4.64,5.48S61,111,63.58,111A4.73,4.73,0,0,0,67.54,108.73Z"/><path class="cls-1" d="M63.58,111.67c-2.91,0-5.28-2.74-5.28-6.12s2.37-6.13,5.28-6.13a5.23,5.23,0,0,1,4.5,2.66l.32.7h-1l-.14-.24a4.32,4.32,0,0,0-3.66-2.15c-2.38,0-4.32,2.31-4.32,5.16s1.94,5.16,4.32,5.16a4.4,4.4,0,0,0,3.68-2.13l.15-.25h1.07l-.37.71A5.41,5.41,0,0,1,63.58,111.67Z"/><path class="cls-1" d="M69.08,99.9v-.17h.34v11.63h-.34V99.9Z"/><rect class="cls-1" x="68.77" y="99.42" width="0.97" height="12.25"/><path class="cls-1" d="M70.57,105.55c0-3.24,2.29-5.82,5-5.82s5,2.58,5,5.82-2.26,5.81-5,5.81S70.57,108.78,70.57,105.55Zm.34,0c0,3,2.11,5.47,4.7,5.47s4.7-2.45,4.7-5.47-2.1-5.48-4.7-5.48S70.91,102.52,70.91,105.55Z"/><path class="cls-1" d="M75.61,111.67c-3,0-5.35-2.74-5.35-6.12s2.4-6.13,5.35-6.13S81,102.17,81,105.55,78.56,111.67,75.61,111.67Zm0-11.28c-2.42,0-4.39,2.31-4.39,5.16s2,5.16,4.39,5.16S80,108.39,80,105.55,78,100.39,75.61,100.39Z"/><path class="cls-1" d="M89.77,105.44a3.09,3.09,0,0,1,2.55,2.93,3.13,3.13,0,0,1-3.23,3H84.28a.16.16,0,0,1-.17-.17c0-1.83,0-3.65,0-5.48h0V99.94a.16.16,0,0,1,.17-.18l4.09,0a3.15,3.15,0,0,1,3.25,3A3,3,0,0,1,89.77,105.44Zm-5.31,0h3.93a2.65,2.65,0,1,0,0-5.28H84.45Zm0,.34c0,1.77,0,3.53,0,5.3l4.62,0a2.65,2.65,0,1,0,0-5.28H84.46Z"/><path class="cls-1" d="M89.09,111.67H84.28a.47.47,0,0,1-.48-.48V106h0l0-.46V99.94a.48.48,0,0,1,.49-.49l4.08,0A3.45,3.45,0,0,1,92,102.74a3.27,3.27,0,0,1-1.4,2.62,3.32,3.32,0,0,1,2.08,3A3.43,3.43,0,0,1,89.09,111.67ZM84.77,106v4.67h4.31a2.34,2.34,0,1,0,0-4.66Zm0-5.63v4.67h3.61a2.34,2.34,0,1,0,0-4.66Z"/><path class="cls-1" d="M93.48,99.9v-.17h.34V111h6.5v.34H93.65a.16.16,0,0,1-.17-.17Z"/><path class="cls-1" d="M100.63,111.67h-7a.46.46,0,0,1-.48-.48V99.42h1v11.29h6.5Z"/><path class="cls-1" d="M101.89,111.26l0,.1h-.37l.1-.24,5-11.29a.18.18,0,0,1,.31,0l5,11.29.1.24h-.37l0-.1-4.81-10.93Z"/><path class="cls-1" d="M112.39,111.67h-1.08l-.11-.31-4.51-10.25-4.54,10.35-.07.21H101l.29-.67,5-11.29a.49.49,0,0,1,.44-.28h0a.49.49,0,0,1,.44.28Z"/><path class="cls-1" d="M113.41,111.19v.17h-.34V99.9a.18.18,0,0,1,.31-.1l7.88,10.86,0-10.76v-.17h.34v.17l0,11.29a.17.17,0,0,1-.3.1l-7.89-10.86Z"/><path class="cls-1" d="M113.72,111.67h-1V99.9a.48.48,0,0,1,.34-.45.47.47,0,0,1,.53.17L121,109.7l0-10.28h1v11.77a.47.47,0,0,1-.34.45.48.48,0,0,1-.54-.16l-7.32-10.08Z"/><path class="cls-1" d="M132,108.73l.05-.09h.4l-.14.26a5.38,5.38,0,0,1-4.41,2.46c-2.84,0-5.15-2.58-5.15-5.81s2.31-5.82,5.15-5.82a5.19,5.19,0,0,1,4.38,2.48l.12.26h-.38l-.05-.09a4.81,4.81,0,0,0-4.07-2.31c-2.67,0-4.81,2.45-4.81,5.48s2.14,5.47,4.81,5.47A4.93,4.93,0,0,0,132,108.73Z"/><path class="cls-1" d="M127.93,111.67c-3,0-5.46-2.74-5.46-6.12s2.45-6.13,5.46-6.13a5.49,5.49,0,0,1,4.66,2.65l.33.71h-1l-.14-.24a4.5,4.5,0,0,0-3.8-2.15c-2.48,0-4.49,2.31-4.49,5.16s2,5.16,4.49,5.16a4.62,4.62,0,0,0,3.83-2.13l.15-.25H133l-.38.72A5.69,5.69,0,0,1,127.93,111.67Z"/><path class="cls-1" d="M133.64,105.55c0-3.24,2.32-5.82,5.13-5.82s5.13,2.58,5.13,5.82-2.31,5.81-5.13,5.81S133.64,108.78,133.64,105.55Zm.34,0c0,3,2.15,5.47,4.79,5.47s4.79-2.45,4.79-5.47-2.14-5.48-4.79-5.48S134,102.52,134,105.55Z"/><path class="cls-1" d="M138.77,111.67c-3,0-5.45-2.74-5.45-6.12s2.45-6.13,5.45-6.13,5.44,2.75,5.44,6.13S141.77,111.67,138.77,111.67Zm0-11.28c-2.47,0-4.48,2.31-4.48,5.16s2,5.16,4.48,5.16,4.47-2.32,4.47-5.16S141.24,100.39,138.77,100.39Z"/><path class="cls-1" d="M80.64,53.64v1.15H54V72.71H73.47v1.16H54V91.78H80.64v1.16H53.42a.55.55,0,0,1-.58-.58V54.22a.55.55,0,0,1,.58-.58Z"/><path class="cls-1" d="M81,93.25H53.42a.86.86,0,0,1-.89-.89V54.22a.86.86,0,0,1,.89-.89H81v1.78H54.31V72.4H73.79v1.78H54.31V91.47H81ZM53.42,54a.24.24,0,0,0-.27.27V92.36a.25.25,0,0,0,.27.27H80.33v-.54H53.68V73.55H73.16V73H53.68V54.48H80.33V54Z"/><path class="cls-1" d="M103,72.92c5.07,1,8.89,5.08,8.89,9.9,0,5.54-5.06,10.12-11.25,10.12h-16a.56.56,0,0,1-.6-.59l0-18.52h0l0-.57,0-19a.56.56,0,0,1,.6-.59h13.5c6.26,0,11.32,4.58,11.32,10.12A10.15,10.15,0,0,1,103,72.92Zm-17.69-.17,12.88-.06c5.54,0,10.13-4,10.13-8.93s-4.59-8.93-10.13-8.93H85.3Zm0,1.14,0,17.92,15.3-.06c5.47,0,10.06-4,10.06-8.93s-4.59-8.93-10.06-8.93Z"/><path class="cls-1" d="M100.66,93.26h-16a.88.88,0,0,1-.91-.91l0-18.24h0v-.3l0-.57,0-19a.87.87,0,0,1,.91-.9h13.5c6.42,0,11.63,4.68,11.63,10.43A10.37,10.37,0,0,1,104,72.82c4.83,1.32,8.25,5.4,8.25,10C112.22,88.57,107,93.26,100.66,93.26ZM84.43,73.64l0,.19,0,18.52a.26.26,0,0,0,.29.28h16c6,0,10.94-4.4,10.94-9.81,0-4.58-3.63-8.61-8.64-9.59l-1-.2.94-.4a9.85,9.85,0,0,0,6.32-8.87c0-5.41-4.94-9.81-11-9.81H84.71a.26.26,0,0,0-.29.28l0,19Zm.62,18.48,0-18.55h15.64c5.72,0,10.37,4.15,10.37,9.25s-4.65,9.24-10.37,9.24Zm.59-17.92,0,17.3,15-.06c5.38,0,9.76-3.87,9.76-8.62S106,74.2,100.66,74.2ZM85,73.07l0-18.55H98.21c5.76,0,10.44,4.14,10.44,9.24S104,73,98.21,73Zm.59-17.93,0,17.3,12.57-.06c5.41,0,9.82-3.86,9.82-8.62s-4.41-8.62-9.82-8.62Z"/><rect class="cls-1" x="21.1" y="96.16" width="122.8" height="0.35"/><rect class="cls-1" x="20.79" y="95.85" width="123.42" height="0.98"/></g></g></svg>