<svg xmlns="http://www.w3.org/2000/svg" viewBox="0 0 165 165"><defs><style>.cls-1{fill:#fff;}.cls-2{fill:#272425;}.cls-3{fill:#d7dd3f;}.cls-4{fill:#d7dd41;}</style></defs><g id="Capa_2" data-name="Capa 2"><g id="Capa_1-2" data-name="Capa 1"><rect width="165" height="165"/><path class="cls-1" d="M54.56,91A11.62,11.62,0,1,1,66.19,79.37,11.64,11.64,0,0,1,54.56,91"/><path class="cls-1" d="M83,90.61H79.77a.68.68,0,0,1-.51-.23l-8.06-9v8.57a.67.67,0,0,1-.68.68H68.17a.67.67,0,0,1-.68-.68V68.81a.67.67,0,0,1,.68-.68h2.35a.67.67,0,0,1,.68.68v7.4L79,68.33a.67.67,0,0,1,.48-.2h3.17a.68.68,0,0,1,.48,1.16l-9.45,9.37,9.81,10.81A.68.68,0,0,1,83,90.61"/><path class="cls-1" d="M108.59,91a7.19,7.19,0,0,1-7.25-6,.67.67,0,0,1,.48-.79l2.3-.65a.67.67,0,0,1,.55.09.71.71,0,0,1,.3.47,3.65,3.65,0,0,0,3.56,3.34A3.56,3.56,0,0,0,112.19,84c0-1.89-1.29-2.57-3.39-3.54l-1.38-.6c-2.54-1.15-5-2.56-5-6s2.84-6.06,6.6-6.06a6.75,6.75,0,0,1,6.06,3.64.68.68,0,0,1-.24.89L113,73.5a.7.7,0,0,1-.53.09.68.68,0,0,1-.43-.33,3.21,3.21,0,0,0-3-2,2.69,2.69,0,0,0-2.82,2.6c0,1.27,1.25,1.93,2.88,2.67l1.42.63c2.77,1.21,5.48,2.72,5.48,6.56a7.18,7.18,0,0,1-7.32,7.2"/><path class="cls-1" d="M123.92,91a7.2,7.2,0,0,1-7.25-6,.68.68,0,0,1,.48-.79l2.3-.65a.7.7,0,0,1,.56.09.71.71,0,0,1,.3.47,3.65,3.65,0,0,0,3.55,3.34A3.56,3.56,0,0,0,127.52,84c0-1.89-1.29-2.58-3.4-3.54l-.09,0-1.28-.55c-2.54-1.15-5-2.56-5-6s2.83-6.06,6.59-6.06a6.73,6.73,0,0,1,6.06,3.64.67.67,0,0,1-.23.89L128.3,73.5a.71.71,0,0,1-.53.09.68.68,0,0,1-.43-.33,3.21,3.21,0,0,0-3.06-2,2.7,2.7,0,0,0-2.82,2.6c0,1.27,1.25,1.93,2.89,2.67l1.41.63c2.78,1.21,5.48,2.72,5.48,6.56a7.18,7.18,0,0,1-7.32,7.2"/><path class="cls-2" d="M54.56,68.43a10.94,10.94,0,1,0,11,10.94,10.94,10.94,0,0,0-11-10.94m0,19.64a8.7,8.7,0,1,1,8.7-8.7,8.71,8.71,0,0,1-8.7,8.7"/><path class="cls-1" d="M34.18,90.61H31.82a.68.68,0,0,1-.68-.68V68.81a.68.68,0,0,1,.68-.68h9.61a.67.67,0,0,1,.68.68V71a.67.67,0,0,1-.68.68H34.86v4.92h6.35a.67.67,0,0,1,.68.68v2.18a.67.67,0,0,1-.68.68H34.86v9.8a.68.68,0,0,1-.68.68"/><polygon class="cls-2" points="34.18 70.99 34.18 77.27 41.21 77.27 41.21 79.45 34.18 79.45 34.18 89.93 31.82 89.93 31.82 68.81 41.43 68.81 41.43 70.99 34.18 70.99"/><polygon class="cls-2" points="79.52 68.81 82.68 68.81 72.76 78.64 83.02 89.93 79.77 89.93 71.11 80.24 70.52 80.83 70.52 89.93 68.17 89.93 68.17 68.81 70.52 68.81 70.52 77.86 79.52 68.81"/><path class="cls-1" d="M92.44,91a8.64,8.64,0,0,1-5.94-2.35c-2.1-2-2.28-4.26-2.28-6.59V68.81a.68.68,0,0,1,.68-.68h2.36a.68.68,0,0,1,.68.68V81.63c0,1.46,0,3,.79,4.06a4.75,4.75,0,0,0,3.71,1.74,5,5,0,0,0,3.63-1.63c.88-1.07.88-2.61.87-4.09V68.81a.68.68,0,0,1,.68-.68H100a.68.68,0,0,1,.68.68V82c0,2.31-.15,4.38-2,6.33A8.45,8.45,0,0,1,92.44,91"/><path class="cls-2" d="M87.26,81.39c0,1.56-.06,3.36.92,4.7a5.45,5.45,0,0,0,4.26,2,5.59,5.59,0,0,0,4.15-1.88c1.12-1.34,1-3.19,1-4.84V68.81H100V82c0,2.3-.17,4.12-1.85,5.86a7.81,7.81,0,0,1-5.69,2.4A7.9,7.9,0,0,1,87,88.14c-1.85-1.77-2.08-3.7-2.08-6.11V68.81h2.36Z"/><path class="cls-2" d="M112.59,72.92A3.88,3.88,0,0,0,109,70.63a3.35,3.35,0,0,0-3.5,3.28c0,1.82,1.87,2.66,3.3,3.3l1.4.62c2.75,1.2,5.08,2.57,5.08,5.94A6.67,6.67,0,0,1,102,84.83l2.3-.64a4.35,4.35,0,0,0,4.23,3.92A4.25,4.25,0,0,0,112.87,84c0-2.46-1.93-3.31-3.89-4.2l-1.29-.56c-2.47-1.12-4.59-2.38-4.59-5.41,0-3.27,2.77-5.38,5.9-5.38a6.07,6.07,0,0,1,5.47,3.28Z"/><path class="cls-2" d="M127.93,72.92a3.89,3.89,0,0,0-3.65-2.29,3.35,3.35,0,0,0-3.5,3.28c0,1.82,1.88,2.66,3.31,3.3l1.4.62c2.75,1.2,5.07,2.57,5.07,5.94a6.67,6.67,0,0,1-13.22,1.06l2.29-.64a4.35,4.35,0,0,0,4.23,3.92A4.25,4.25,0,0,0,128.2,84c0-2.46-1.93-3.31-3.89-4.2L123,79.23c-2.46-1.12-4.59-2.38-4.59-5.41,0-3.27,2.77-5.38,5.91-5.38a6.07,6.07,0,0,1,5.46,3.28Z"/><path class="cls-3" d="M62.27,79.37a7.71,7.71,0,1,1-7.71-7.71,7.71,7.71,0,0,1,7.71,7.71"/><path class="cls-1" d="M60.09,81.5l-5.08-5-.37-.18V71.66h-.19V76.3l-.36.19L49,81.5h4a1.69,1.69,0,0,0,1.52.94,1.72,1.72,0,0,0,1.53-.94Z"/><path class="cls-1" d="M133.3,68A1.91,1.91,0,0,1,130,66.68a1.91,1.91,0,0,1,1.91-1.92A1.92,1.92,0,0,1,133.3,68m-2.53-2.53a1.67,1.67,0,0,0,0,2.34,1.56,1.56,0,0,0,1.17.49,1.54,1.54,0,0,0,1.16-.49,1.64,1.64,0,0,0,0-2.34,1.63,1.63,0,0,0-2.33,0m1.13.11a1.71,1.71,0,0,1,.58.07.53.53,0,0,1,.32.54.44.44,0,0,1-.2.41.81.81,0,0,1-.31.1.5.5,0,0,1,.36.21.56.56,0,0,1,.12.33v.31a.75.75,0,0,0,0,.11l0,0h-.35a0,0,0,0,0,0,0v-.26a.52.52,0,0,0-.2-.48.94.94,0,0,0-.41-.07h-.29v.83h-.38v-2.1Zm.4.33a1,1,0,0,0-.45-.08h-.31v.76h.33a.86.86,0,0,0,.36,0,.31.31,0,0,0,.21-.32.32.32,0,0,0-.14-.31"/><rect class="cls-4" x="55.08" y="97.26" width="4.48" height="0.6" transform="translate(-40.75 154.01) rotate(-89.49)"/><polygon class="cls-4" points="62.4 95.37 63 95.37 62.96 99.35 65.33 99.37 65.33 99.87 62.36 99.84 62.4 95.37"/><path class="cls-4" d="M73.2,98.33A1.58,1.58,0,0,1,71.42,100c-1.15,0-1.83-.55-1.82-1.75l0-2.86h.6l0,2.86a1.11,1.11,0,0,0,1.23,1.23,1.07,1.07,0,0,0,1.18-1.21l0-2.86h.59Z"/><polygon class="cls-4" points="77.95 95.51 78.77 95.52 80.14 99.3 81.6 95.55 82.41 95.55 82.37 100.03 81.8 100.03 81.84 96.3 81.83 96.3 80.39 100.01 79.89 100.01 78.52 96.27 78.51 96.27 78.47 99.99 77.91 99.99 77.95 95.51"/><rect class="cls-4" x="85.23" y="97.54" width="4.48" height="0.6" transform="translate(-11.19 184.39) rotate(-89.46)"/><polygon class="cls-4" points="92.55 95.65 93.18 95.65 95.5 99.31 95.52 99.31 95.55 95.68 96.11 95.68 96.07 100.16 95.42 100.15 93.11 96.54 93.1 96.54 93.07 100.13 92.5 100.13 92.55 95.65"/><path class="cls-4" d="M102.06,95.74h.66l1.7,4.5h-.65l-.48-1.35-1.89,0-.52,1.34h-.61Zm-.47,2.62h1.52l-.73-2.09h0Z"/></g></g></svg>