<svg xmlns="http://www.w3.org/2000/svg" viewBox="0 0 165 165"><defs><style>.cls-1{fill:#00543b;}.cls-2{fill:#fff;}</style></defs><g id="Capa_2" data-name="Capa 2"><g id="Capa_1-2" data-name="Capa 1"><rect class="cls-1" width="165" height="165"/><path class="cls-2" d="M100.56,57.11a20.4,20.4,0,0,0-4.37-6.33,18.7,18.7,0,0,0-13.66-5.66,19.42,19.42,0,0,0-14,5.67A18.89,18.89,0,0,0,63,64.62V89.07a20.37,20.37,0,0,0,1.37,7.56,17.84,17.84,0,0,0,4.23,6.27,19.2,19.2,0,0,0,14,5.73,18.5,18.5,0,0,0,11.09-3.52v9.07a10.55,10.55,0,0,1-.9,4.3,11.42,11.42,0,0,1-2.4,3.5,11.54,11.54,0,0,1-3.5,2.4,10.56,10.56,0,0,1-3.44.87v2.38A18.58,18.58,0,0,0,90,126.19a20.89,20.89,0,0,0,6.38-4.37A18.76,18.76,0,0,0,102,108.1V64.62A19,19,0,0,0,100.56,57.11Zm-7,38.05a10.85,10.85,0,0,1-.86,4.29,11.43,11.43,0,0,1-2.34,3.5,11.24,11.24,0,0,1-3.48,2.41,10.59,10.59,0,0,1-4.3.9,10.8,10.8,0,0,1-4.33-.9,11.49,11.49,0,0,1-5.93-5.9,10.55,10.55,0,0,1-.9-4.3V58.48a10.55,10.55,0,0,1,.9-4.3,11.07,11.07,0,0,1,2.41-3.48,11.39,11.39,0,0,1,3.53-2.34,11.07,11.07,0,0,1,4.32-.86,10.85,10.85,0,0,1,4.29.86A11,11,0,0,1,90.3,50.7a11.41,11.41,0,0,1,2.35,3.49,10.85,10.85,0,0,1,.86,4.29Z"/><path class="cls-2" d="M93.57,37.37v4.47A9.32,9.32,0,0,0,102,51.11V46.64A9.33,9.33,0,0,0,93.57,37.37Z"/></g></g></svg>