<svg xmlns="http://www.w3.org/2000/svg" xmlns:xlink="http://www.w3.org/1999/xlink" viewBox="0 0 165 168.06"><defs><style>.cls-1{fill:#636363;}.cls-2{fill:#9c1328;}.cls-3{fill:#fff;}</style></defs><g id="Capa_2" data-name="Capa 2"><g id="Capa_1-2" data-name="Capa 1"><image width="108" height="110" transform="scale(1.53)" xlink:href="../../../lacarpinteria.png"/><path class="cls-1" d="M48.23,124.94a.66.66,0,0,1-.75.75H45.37a.66.66,0,0,1-.74-.75v-5c0-.51.24-.76.74-.76h2.11a.67.67,0,0,1,.75.76v1.29h-.88V120H45.51v4.93h1.84v-1.45h.88Z"/><path class="cls-1" d="M53.39,124.94a.66.66,0,0,1-.75.75H50.41a.66.66,0,0,1-.74-.75v-5a.66.66,0,0,1,.74-.76h2.23a.67.67,0,0,1,.75.76Zm-.88-5h-2v4.93h2Z"/><path class="cls-1" d="M58.44,124.94a.66.66,0,0,1-.74.75H55.59a.66.66,0,0,1-.75-.75v-5a.67.67,0,0,1,.75-.76H57.7a.66.66,0,0,1,.74.76v1.29h-.87V120H55.73v4.93h1.84v-1.45h.87Z"/><path class="cls-1" d="M60.82,117.78h-.9v-1.12h.9Zm0,7.91h-.88V119.2h.88Z"/><path class="cls-1" d="M66,125.69h-.88V120l-2,.06v5.64h-.88V119.2h.88v.18l1-.14a9.68,9.68,0,0,1,1-.08.65.65,0,0,1,.74.73Z"/><path class="cls-1" d="M71.15,125.69h-.88v-.18l-1,.14a10,10,0,0,1-1,.08.64.64,0,0,1-.73-.72v-2.37a.66.66,0,0,1,.76-.74h2.08v-2h-1.9v1.11h-.86V120a.66.66,0,0,1,.74-.76H70.4a.67.67,0,0,1,.75.76Zm-.87-.81v-2.29h-2v2.33Z"/><path class="cls-1" d="M76.09,124.94a.66.66,0,0,1-.75.75h-2a.66.66,0,0,1-.75-.75v-1.48h.88v1.46h1.79v-1.29l-2.32-1.9a.86.86,0,0,1-.33-.7V120a.66.66,0,0,1,.75-.76h2a.67.67,0,0,1,.75.76v1.29h-.86V120H73.43v1.13l2.34,1.9a.87.87,0,0,1,.32.71Z"/><rect class="cls-1" x="83.09" y="115.25" width="0.85" height="12.72"/><path class="cls-1" d="M97.5,125.69h-.88V120l-1.94.06v5.64H93.8V120l-1.93.06v5.64H91V119.2h.89v.18l1-.14a9.33,9.33,0,0,1,1-.08.7.7,0,0,1,.6.25l1.11-.16a9.65,9.65,0,0,1,1.1-.09.64.64,0,0,1,.73.73Z"/><path class="cls-1" d="M102.66,125.69h-.88v-.18l-1.06.14a9.49,9.49,0,0,1-1.06.08A.63.63,0,0,1,99,125V119.2h.87v5.7l2-.06V119.2h.88Z"/><path class="cls-1" d="M107.73,124.94a.66.66,0,0,1-.74.75h-2.14a.66.66,0,0,1-.75-.75v-5a.67.67,0,0,1,.75-.76H107a.66.66,0,0,1,.74.76v2.33l-.3.31H105V125h1.9v-1.19h.86Zm-.86-5H105v2h1.9Z"/><path class="cls-1" d="M112.92,124.3a1.34,1.34,0,0,1-.39,1,1.31,1.31,0,0,1-1,.4H109.2V115.25h.89v4.13l1-.13a8.2,8.2,0,0,1,1-.09.64.64,0,0,1,.73.73Zm-.88-.14V120l-2,.06v4.86h1.22a.65.65,0,0,0,.73-.75"/><rect class="cls-1" x="114.43" y="115.25" width="0.87" height="10.44"/><path class="cls-1" d="M120.43,124.94a.66.66,0,0,1-.74.75h-2.13a.66.66,0,0,1-.75-.75v-5a.67.67,0,0,1,.75-.76h2.13c.5,0,.74.25.74.76v2.33l-.3.31h-2.46V125h1.91v-1.19h.85Zm-.85-5h-1.91v2h1.91Z"/><path class="cls-1" d="M125.4,124.94a.67.67,0,0,1-.76.75h-2a.67.67,0,0,1-.76-.75v-1.48h.88v1.46h1.79v-1.29l-2.32-1.9a.86.86,0,0,1-.33-.7V120a.67.67,0,0,1,.75-.76h2a.67.67,0,0,1,.75.76v1.29h-.86V120h-1.79v1.13l2.34,1.9a.85.85,0,0,1,.33.71Z"/><path class="cls-2" d="M118.32,43.82h0l0-.06,0,0A26.33,26.33,0,0,0,110,41C76.38,35,35.16,60.74,35.83,71c.59,9,24.76,28.8,51.49,31.08v0a55.71,55.71,0,0,0,10.8-.09,28.53,28.53,0,0,0,3.84-.68v0a.08.08,0,0,1,0,0l.09,0c25.14-6.34,37.51-45.53,16.25-57.42"/><polygon class="cls-3" points="55.44 60.98 55.44 67.83 65.83 67.83 65.83 60.98 71.17 60.98 71.17 79.44 65.83 79.44 65.83 72.46 55.44 72.46 55.44 79.44 50.26 79.44 50.26 60.98 55.44 60.98"/><polygon class="cls-3" points="78.55 60.8 90.95 79.44 85.3 79.44 78.59 69.55 71.77 79.43 66.14 79.44 78.55 60.8"/></g></g></svg>