<svg xmlns="http://www.w3.org/2000/svg" viewBox="0 0 165 165"><defs><style>.cls-1{fill:#2b2b2b;}.cls-2{fill:#1c1d1d;}.cls-2,.cls-3,.cls-4{fill-rule:evenodd;}.cls-3{fill:#e5e7e9;}.cls-4{fill:#c5421b;}</style></defs><g id="Capa_2" data-name="Capa 2"><g id="Capa_1-2" data-name="Capa 1"><rect class="cls-1" width="165" height="165"/><path class="cls-2" d="M105.86,85.39h-2.17v.34h6.55v-.34h-1.81L102.86,70.3h-.22L97.46,83.93a1.86,1.86,0,0,1-2,1.46h-.4v.34h4.66v-.34h-.24c-1.54,0-1.74-.34-1.74-.81a10,10,0,0,1,.78-2.33l3.17-8.45h0Z"/><path class="cls-2" d="M85,69.09H82.83v.34H95.44V64.55H95.1c0,4-1.27,4.54-5.34,4.54H87.11V54.84h2.12v-.33h-6.4v.33H85Z"/><path class="cls-2" d="M110.4,85.73c0-.35.07-.79.57-.79.84,0,2,1.1,4.32,1.1,3.29,0,4.93-2.07,4.93-4.85s-1.37-3.75-4.68-4.3c-3.78-.64-4.55-1.06-4.55-3a3,3,0,0,1,3.3-3.14c3,0,4.45,2.19,4.65,4.6h.37V70.93h-.37c-.06.28-.13.81-.66.81-.77,0-1.65-1.3-4-1.3A4,4,0,0,0,110,74.62c0,3.56,1.68,4.11,5.25,4.64,2.61.38,3.84,1,3.84,3.24,0,1.91-1.57,3.2-3.75,3.2-2.73,0-5-1.67-5-5.23H110v5.26Z"/><path class="cls-2" d="M129.59,101.58h-2.17v.34H134v-.34h-1.81L126.6,86.49h-.23l-5.18,13.63a1.85,1.85,0,0,1-2,1.46h-.6v.34h4.87v-.34h-.25c-1.54,0-1.74-.34-1.74-.8a10,10,0,0,1,.78-2.34L125.43,90h0Z"/><polygon class="cls-2" points="84.95 101.58 83.02 101.58 83.02 101.92 89.04 101.92 89.04 101.58 87.11 101.58 87.11 87.34 89.04 87.34 89.04 87 83.02 87 83.02 87.34 84.95 87.34 84.95 101.58"/><path class="cls-2" d="M92.37,101.58h-2v.34h6.93c4.34,0,7.2-2.84,7.2-7.46,0-2.82-1.59-7.46-7.22-7.46H90.35v.34h2v14.24Zm2.16-14.24h1.31c5.19,0,6.23,3.5,6.23,7.12,0,6.4-3.54,7.12-5.45,7.12H94.53Z"/><path class="cls-2" d="M106.87,101.58H105v.34h12.85V97.58h-.34c0,3.6-1.65,4-5.09,4H109V94.5h2.06c2.22,0,2.44,1,2.44,2.59h.33V91.45h-.33c0,1.38-.22,2.71-2.42,2.71H109V87.34h3.82c2.24,0,3.85.83,3.85,3.26H117l-.25-3.6h-13.1v.34h3.18Z"/><path class="cls-2" d="M136.76,101.58h-2.12v.34h12.61V97.05h-.34c0,4-1.27,4.53-5.34,4.53h-2.64V87.34H141V87h-6.4v.34h2.12Z"/><path class="cls-2" d="M105.86,69.09h-2.17v.34h6.55v-.34h-1.81L102.86,54h-.22L97.46,67.62a1.86,1.86,0,0,1-2,1.47h-.61v.34h4.87v-.34h-.24c-1.54,0-1.74-.34-1.74-.81A10,10,0,0,1,98.53,66l3.17-8.46h0Z"/><path class="cls-2" d="M129.59,85.39h-2.17v.34H134v-.34h-1.81L126.6,70.3h-.23l-5.18,13.63a1.86,1.86,0,0,1-2,1.46h-.6v.34h4.87v-.34h-.25c-1.54,0-1.74-.34-1.74-.81a10,10,0,0,1,.78-2.33l3.17-8.45h0Z"/><path class="cls-2" d="M95.44,71.08h-.37c0,.51-.2.91-.84.91-.85,0-1.85-1.55-4.18-1.55-3.86,0-7.22,3.46-7.22,7.8S86.19,86,90.05,86c2.35,0,3.56-1.65,4.24-1.65.53,0,.76.58.78,1h0v.06h.37v-5h-.37a5.25,5.25,0,0,1-5,5.27c-4.07,0-4.62-4.68-4.62-7.46s.55-7.46,4.62-7.46a5.06,5.06,0,0,1,5,4.84h.37Z"/><path class="cls-3" d="M59.14,85.39h2.17v.34H54.76v-.34h1.81L62.14,70.3h.22l5.18,13.63a1.86,1.86,0,0,0,2,1.46h.61v.34H65.27v-.34h.24c1.54,0,1.74-.34,1.74-.81a10,10,0,0,0-.78-2.33L63.3,73.8h0Z"/><path class="cls-3" d="M80.05,69.09h2.12v.34H69.56V64.55h.34c0,4,1.27,4.54,5.34,4.54h2.65V54.84H75.77v-.33h6.4v.33H80.05Z"/><path class="cls-3" d="M55,85.83H54.6c0-.36,0-.89-.57-.89-.84,0-2,1.1-4.32,1.1-3.29,0-4.93-2.07-4.93-4.85s1.37-3.75,4.68-4.3c3.78-.64,4.55-1.06,4.55-3a3,3,0,0,0-3.3-3.14c-3,0-4.45,2.19-4.65,4.6h-.37V70.93h.37c.06.28.13.81.66.81.77,0,1.65-1.3,4-1.3A4,4,0,0,1,55,74.62c0,3.56-1.68,4.11-5.25,4.64-2.61.38-3.84,1-3.84,3.24,0,1.91,1.57,3.2,3.75,3.2,2.73,0,5-1.67,5-5.23H55Z"/><path class="cls-3" d="M35.41,101.58h2.17v.34H31v-.34h1.81L38.4,86.49h.23l5.18,13.63a1.85,1.85,0,0,0,2,1.46h.6v.34H41.53v-.34h.25c1.54,0,1.74-.34,1.74-.8a10,10,0,0,0-.78-2.34L39.57,90h0Z"/><polygon class="cls-3" points="80.05 101.58 81.98 101.58 81.98 101.92 75.96 101.92 75.96 101.58 77.89 101.58 77.89 87.34 75.96 87.34 75.96 87 81.98 87 81.98 87.34 80.05 87.34 80.05 101.58"/><path class="cls-3" d="M72.63,101.58h2v.34H67.72c-4.34,0-7.2-2.84-7.2-7.46,0-2.82,1.59-7.46,7.22-7.46h6.91v.34h-2v14.24ZM70.47,87.34H69.16c-5.19,0-6.23,3.5-6.23,7.12,0,6.4,3.54,7.12,5.45,7.12h2.09Z"/><path class="cls-3" d="M58.13,101.58H60v.34H47.15V97.58h.34c0,3.6,1.65,4,5.09,4H56V94.5H53.91c-2.22,0-2.44,1-2.44,2.59h-.33V91.45h.33c0,1.38.22,2.71,2.42,2.71H56V87.34H52.15c-2.24,0-3.85.83-3.85,3.26H48l.25-3.6h13.1v.34H58.13Z"/><path class="cls-3" d="M28.24,101.58h2.12v.34H17.75V97.05h.34c0,4,1.27,4.53,5.34,4.53h2.64V87.34H24V87h6.4v.34H28.24Z"/><path class="cls-3" d="M59.14,69.09h2.17v.34H54.76v-.34h1.81L62.14,54h.22l5.18,13.62a1.86,1.86,0,0,0,2,1.47h.61v.34H65.27v-.34h.24c1.54,0,1.74-.34,1.74-.81A10,10,0,0,0,66.47,66L63.3,57.49h0Z"/><path class="cls-3" d="M35.41,85.39h2.17v.34H31v-.34h1.81L38.4,70.3h.23l5.18,13.63a1.86,1.86,0,0,0,2,1.46h.6v.34H41.53v-.34h.25c1.54,0,1.74-.34,1.74-.81a10,10,0,0,0-.78-2.33L39.57,73.8h0Z"/><path class="cls-3" d="M69.56,71.08h.37c0,.51.2.91.84.91.85,0,1.85-1.55,4.18-1.55,3.86,0,7.22,3.46,7.22,7.8S78.81,86,75,86c-2.35,0-3.56-1.65-4.24-1.65s-.78.64-.78,1.06h-.37v-5h.37a5.25,5.25,0,0,0,5,5.27c4.07,0,4.62-4.68,4.62-7.46S79,70.78,75,70.78a5.06,5.06,0,0,0-5,4.84h-.37Z"/><path class="cls-4" d="M50.16,110.55h.55a3.28,3.28,0,0,0,.62,0,.87.87,0,0,0,.36-.18,1,1,0,0,0,.27-.55,7.1,7.1,0,0,0,.08-1.25,10.11,10.11,0,0,0,0-1.11,1.43,1.43,0,0,0-.17-.57.7.7,0,0,0-.37-.31,2.27,2.27,0,0,0-.74-.09h-.55v4.11Zm-.43-4.47h1.08a2.87,2.87,0,0,1,.74.08,1.09,1.09,0,0,1,.46.25,1.42,1.42,0,0,1,.38.71,6.76,6.76,0,0,1,.11,1.4,5.77,5.77,0,0,1-.12,1.37,1.34,1.34,0,0,1-.37.7,1.09,1.09,0,0,1-.46.25,2.48,2.48,0,0,1-.74.08H49.73v-4.84Zm5.54,4.84v-4.84h.43v4.84Zm3.21-1.36h.45a.13.13,0,0,0,0,.06v.1a.93.93,0,0,0,.22.68.85.85,0,0,0,.65.23.92.92,0,0,0,.65-.23.91.91,0,0,0,.08-1.13,3.49,3.49,0,0,0-.78-.61l-.17-.11a5.06,5.06,0,0,1-.68-.48,1.11,1.11,0,0,1-.28-.39,1.46,1.46,0,0,1-.09-.52,1.11,1.11,0,0,1,.35-.85,1.41,1.41,0,0,1,1-.31,1.26,1.26,0,0,1,.93.32,1.23,1.23,0,0,1,.32.91v.1h-.44v0a1,1,0,0,0-.21-.7.79.79,0,0,0-.63-.22.91.91,0,0,0-.62.21.72.72,0,0,0-.23.56.83.83,0,0,0,.19.54,4.42,4.42,0,0,0,.93.7,3.11,3.11,0,0,1,.85.67,1.12,1.12,0,0,1,.19.66,1.26,1.26,0,0,1-.35,1,1.38,1.38,0,0,1-1,.34,1.35,1.35,0,0,1-1-.32,1.3,1.3,0,0,1-.33-1v-.1a.13.13,0,0,1,0-.06ZM66,110.92H63.87v-4.84H66v.38H64.31v1.79h1.63v.35H64.31v1.92H66v.4Zm2.66,0v-4.84h.68l2.05,4.57a4.78,4.78,0,0,1-.06-.53,4.87,4.87,0,0,1,0-.54v-3.5h.42v4.84h-.65l-2.05-4.53c0,.14,0,.29.05.45s0,.34,0,.52v3.56Zm2.41-6.14a1,1,0,0,1-.22.44.47.47,0,0,1-.35.15h-.13l-.07,0-.2-.09-.1,0H70a.29.29,0,0,0-.19.06.42.42,0,0,0-.13.18h-.26a.91.91,0,0,1,.22-.44.45.45,0,0,1,.34-.15h.13l.07,0,.21.09.1,0h.08a.28.28,0,0,0,.18-.06.35.35,0,0,0,.13-.18Zm3.43,3.72a9,9,0,0,1,.08-1.41,1.44,1.44,0,0,1,.3-.66,1.09,1.09,0,0,1,.46-.32A1.79,1.79,0,0,1,76,106a1.89,1.89,0,0,1,.65.1,1.06,1.06,0,0,1,.45.32,1.54,1.54,0,0,1,.3.67,10.93,10.93,0,0,1,0,2.8,1.44,1.44,0,0,1-.3.67,1.12,1.12,0,0,1-.46.32A1.87,1.87,0,0,1,76,111a1.81,1.81,0,0,1-.63-.11,1.15,1.15,0,0,1-.47-.32,1.44,1.44,0,0,1-.3-.67,7.8,7.8,0,0,1-.08-1.4Zm.45,0a4.27,4.27,0,0,0,.22,1.7,1,1,0,0,0,1.62,0,6.68,6.68,0,0,0,0-3.4,1,1,0,0,0-1.62,0,4.27,4.27,0,0,0-.22,1.7Zm6.81,2.42v-4.84h.65v4.84Zm4.38,0v-4.34H85v-.5h3v.5H86.82v4.34ZM91,109.17h1.38l-.68-2.34-.7,2.34Zm1.88,1.75-.33-1.17H90.81l-.34,1.17h-.69l1.52-4.84h.77l1.48,4.84Zm3.26,0v-4.84h.63v4.28h1.65v.56Zm4.86,0v-4.84h.65v4.84Zm4.4-1.75h1.38l-.68-2.34-.7,2.34Zm1.87,1.75-.32-1.17h-1.71l-.34,1.17h-.69l1.52-4.84h.76l1.48,4.84Zm6-.56c0-.15,0-.3,0-.45v-3.83h.59v4.84h-.87l-1.86-4.4c0,.21,0,.39,0,.54s0,.27,0,.37v3.49h-.58v-4.84h.92l1.77,4.28Zm6.49-1.81a8.37,8.37,0,0,1-.06,1.17,1.87,1.87,0,0,1-.19.64,1.18,1.18,0,0,1-.51.48,1.73,1.73,0,0,1-.78.16,2,2,0,0,1-.66-.11,1.28,1.28,0,0,1-.48-.33,1.36,1.36,0,0,1-.31-.65,7.62,7.62,0,0,1-.09-1.41,9,9,0,0,1,.06-1.23,1.68,1.68,0,0,1,.19-.63,1.14,1.14,0,0,1,.5-.47,2,2,0,0,1,1.45,0,1.23,1.23,0,0,1,.48.32,1.44,1.44,0,0,1,.31.67,7.85,7.85,0,0,1,.09,1.44Zm-.65,0a4,4,0,0,0-.2-1.59.72.72,0,0,0-.7-.36.92.92,0,0,0-.38.08.66.66,0,0,0-.28.24,1.34,1.34,0,0,0-.17.48,9,9,0,0,0,0,1.15c0,.49,0,.82,0,1a1.55,1.55,0,0,0,.11.46.81.81,0,0,0,.29.36.79.79,0,0,0,.45.12.71.71,0,0,0,.7-.37A4,4,0,0,0,119,108.5Z"/></g></g></svg>