<svg xmlns="http://www.w3.org/2000/svg" viewBox="0 0 165 165"><defs><style>.cls-1,.cls-3{fill:none;stroke:#c6d420;stroke-miterlimit:10;}.cls-1{stroke-width:3.39px;}.cls-1,.cls-3,.cls-4{fill-rule:evenodd;}.cls-2,.cls-4{fill:#c6d420;}.cls-3{stroke-width:0.26px;}</style></defs><g id="Capa_2" data-name="Capa 2"><g id="Capa_1-2" data-name="Capa 1"><rect width="165" height="165"/><path class="cls-1" d="M136.55,82.5A54.05,54.05,0,1,1,82.5,28.72,53.92,53.92,0,0,1,136.55,82.5Z"/><path class="cls-2" d="M106.07,105a11.16,11.16,0,0,1,1.13-.06,2.31,2.31,0,0,1,1.27.25.69.69,0,0,1,.36.61.9.9,0,0,1-.75.78h0a.86.86,0,0,1,.58.6,4.31,4.31,0,0,0,.32.86h-.78a4.58,4.58,0,0,1-.27-.73.66.66,0,0,0-.74-.54h-.38V108h-.74Zm.74,1.37h.45c.51,0,.82-.21.82-.51s-.31-.5-.8-.5a3.43,3.43,0,0,0-.47,0Z"/><path class="cls-3" d="M109.81,106.48a2.44,2.44,0,1,1-2.44-2.44A2.44,2.44,0,0,1,109.81,106.48Z"/><path class="cls-4" d="M62.27,70.78c.51,0,.94.18.66.77s-1.38-.06-.66-.77m6.48,2.93a1.43,1.43,0,0,1,.93.16,1,1,0,0,1,.08,1.31c-1,.93-2.1-.62-1-1.47m3.33,0c.55,0,1.13.09,1.16.79a.92.92,0,0,1-.75.94.75.75,0,0,1-.87-.59c-.18-.59,0-.8.46-1.14M62.27,74c.57,0,1.14.42.63,1s-1.32-.43-.63-1m4.87,1.36c.68,0,1.13.09,1.13.88a.72.72,0,0,1-.75.82c-1.13.13-1.14-1.2-.38-1.7m3.26,0c.61,0,.76,0,1.17.47,0,.48.12.89-.36,1.14-1.17.61-1.71-.91-.81-1.61M64,75.5c.46,0,.73,0,.9.49a.69.69,0,0,1-.39.9.93.93,0,0,1-.95-.29c0-.6,0-.72.44-1.1m14.79,1.94c.69,0,1,.33.51,1-.73,0-.94-.35-.51-1m-10-.44c.61,0,.76,0,1.17.48,0,.48.12.88-.36,1.14-1.16.61-1.71-.91-.81-1.62m-3.26,0c.55,0,1,0,1.12.61a.83.83,0,0,1-.42,1c-1.17.36-1.5-1-.7-1.61m-3.22.26c.56,0,1,.19.77.81s-1.74,0-.77-.81m4.83,1.35c.69,0,1.17.07,1.17.88a.73.73,0,0,1-.75.83c-1.14.12-1.08-1.15-.42-1.71m3.3,0c.61,0,.76,0,1.17.48,0,.48.12.88-.36,1.14-1.17.61-1.71-.91-.81-1.62m3.33,0c.91,0,1.73,1.13.66,1.61-.58,0-1.2,0-1.17-.73a1,1,0,0,1,.51-.88m-9.89.15c.6,0,1.61.46.85,1.18s-1.63-.5-.85-1.18M77.06,79c.81,0,1.09.48.52,1.13-.78-.06-1.07-.5-.52-1.13M68.75,80.3c.62,0,.76,0,1.17.48,0,.47.12.88-.36,1.13-1.16.62-1.71-.9-.81-1.61m3.3,0c.58,0,1.08,0,1.19.71a.81.81,0,0,1-.87,1c-1.08,0-1-1.22-.32-1.71m-6.49,0a1.16,1.16,0,0,1,1.06.44c0,.54,0,1.16-.7,1.23-1.09.1-1.11-1.24-.36-1.67m-3.29.25c.8.06,1,.52.47,1.14-.72-.06-1.07-.54-.47-1.14m16.48.08c.56,0,.84.21.59.79s-1.27-.11-.59-.79M67.14,82a1.19,1.19,0,0,1,1.13.48c0,.55,0,1.21-.69,1.26-1.13.06-1.23-1.21-.44-1.74m3.26,0c.61,0,.76,0,1.17.48,0,.47.12.88-.36,1.13-1.17.62-1.71-.91-.81-1.61m3.29,0c.93,0,1.57.57.86,1.48s-1.92-.59-.86-1.48m-9.81.14c.51,0,.59,0,.95.37a.75.75,0,0,1-.33,1c-.94,0-1.3-.56-.62-1.32m13.18.11c.55,0,1.07.2.79.86s-1.53,0-.79-.86M68.75,83.6c.61,0,.76,0,1.17.47,0,.48.12.89-.36,1.14-1.16.62-1.71-.91-.81-1.61m3.3,0c.5,0,1.17,0,1.19.66,0,.44-.12,1-.62,1.12-1.23.24-1.35-1.19-.57-1.78m-6.45,0c.71,0,1.42.67.86,1.34-.82,1-2.14-.57-.86-1.34m9.74.11c.51,0,.68,0,1,.37,0,.4.06.83-.37,1-1,.34-1.26-.79-.66-1.4m-13.07.19c.64,0,.81.17.76.77-.54.73-1.41,0-.76-.77M78.71,84c.48,0,1.05.28.61.79s-1.17-.22-.61-.79M67.14,85.25a1.47,1.47,0,0,1,1.13.4c0,.51.15,1-.44,1.24-1.16.44-1.61-1-.69-1.64m3.26,0c.61,0,.76,0,1.17.47,0,.48.12.88-.36,1.14-1.17.61-1.71-.91-.81-1.61m3.29,0c.86,0,1.67.66.86,1.49a.84.84,0,0,1-1.27-.26c-.27-.55,0-.89.41-1.23m-9.81.15c.87,0,1.38.69.58,1.32-.92,0-1.23-.6-.58-1.32m13.18.11c.76,0,.85.21.85.88-.75.65-1.51-.12-.85-.88m-8.31,1.35c.61,0,.76,0,1.17.48,0,.48.12.88-.36,1.14-1.16.61-1.71-.91-.81-1.62m3.3,0a1.43,1.43,0,0,1,1.17.41c0,.49.14.94-.37,1.21-1.16.61-1.7-.91-.8-1.62m-6.45,0c1.12,0,1.24.9.59,1.61a1.37,1.37,0,0,1-1.14-.4c0-.62,0-.9.55-1.21m9.74.11c.73,0,1.49.5.83,1.25s-1.59-.49-.83-1.25m-13.07.18c.74,0,1.13.48.47,1.07-.74-.06-1-.47-.47-1.07m16.52,0c.55,0,.86.22.57.79s-1.32-.14-.57-.79M67.14,88.54a1.54,1.54,0,0,1,1.13.4c0,.57.11,1.16-.59,1.3-1.23.26-1.39-1.11-.54-1.7m3.26,0c.61,0,.76,0,1.17.48,0,.48.12.88-.36,1.14-1.17.61-1.71-.91-.81-1.62m3.29,0c.8,0,1.47.51,1,1.31-.62,1-2.19-.31-1-1.31m-9.78.15a1,1,0,0,1,.92.36c0,.39,0,.8-.4,1-1,.46-1-.85-.52-1.31m13.15.1c.76,0,.85.22.81.88-.72.73-1.47-.11-.81-.88m-8.31,1.36c.61,0,.76,0,1.17.48,0,.47.12.88-.36,1.13-1.16.62-1.71-.9-.81-1.61m3.3,0c.56,0,1,0,1.19.65a.83.83,0,0,1-.72,1.07c-1.13.21-1.17-1.19-.47-1.72m-6.6.07c1.11.06,1.55.69.74,1.58-1.11,0-1.49-.75-.74-1.58m9.85.08c.69,0,1.68.55.89,1.26s-1.54-.53-.89-1.26m-13,.18c.67,0,.76.22.76.81-.69.61-1.39-.1-.76-.81m16.48,0c.52,0,.94.18.66.77s-1.37-.06-.66-.77m3.3,0c.51,0,.94.18.66.77s-1.38-.06-.66-.77m3.29,0c.52,0,1,.18.67.77s-1.38-.06-.67-.77m3.3,0c.52,0,1,.18.66.77s-1.37-.06-.66-.77m3.26,0c.62,0,1.11.4.51,1-.6,0-1-.46-.51-1M67.14,91.84c.25,0,1.13.07,1.13.48,0,.58,0,1.23-.74,1.27-1.07,0-1.15-1.26-.39-1.75m3.26,0c.61,0,.76,0,1.17.48,0,.47.12.88-.36,1.13-1.17.62-1.71-.9-.81-1.61m3.26,0c.41,0,.93,0,1.13.4a.86.86,0,0,1-.63,1.27c-1.09.2-1.16-1.14-.5-1.67M63.91,92c.44,0,.63,0,.92.33,0,.54,0,.66-.37,1-.5,0-.55.08-.91-.33,0-.53,0-.64.36-1m13.12,0c.89,0,1.33.64.58,1.32-.78,0-1.34-.65-.58-1.32m3.37,0c.71,0,1.19.61.58,1.21-.48,0-.61.09-1-.29,0-.43,0-.65.37-.92m3.29,0c.78,0,1.18.63.52,1.21-.8,0-1.27-.64-.52-1.21m3.19,0c.8,0,.91.15,1,.88-.78.7-1.54,0-1-.88m3.3,0c.75,0,1,.18.91.88-.7.8-1.48-.09-.91-.88m3.37,0c.76,0,.85.21.8.88-.33.76-1.58,0-.8-.88m3.33.08c.54,0,.94.19.67.79s-1.47-.09-.67-.79M68.75,93.49c.61,0,.76,0,1.17.47,0,.48.12.88-.36,1.14-1.16.61-1.71-.91-.81-1.61m3.3,0c.61,0,.76,0,1.17.47,0,.48.12.88-.37,1.14-1.16.61-1.7-.91-.8-1.61m-6.49,0c1.57-.09,1.3,2-.18,1.58C64.86,94.46,64.85,94,65.56,93.52Zm9.74,0a1.42,1.42,0,0,1,1.18.44c0,.53,0,1.19-.73,1.17-1,0-1-1-.45-1.61m3.45,0c1.06,0,1.23.83.59,1.53-1,0-1.59-.93-.59-1.53m3.18,0A1.33,1.33,0,0,1,83,94c0,.38.07.81-.34,1-1.12.56-1.36-.75-.76-1.42m3.3,0a1.35,1.35,0,0,1,1.1.41c0,.31,0,.73-.23.95A.93.93,0,0,1,85,94.92c-.42-.43-.13-.94.22-1.29m3.3,0a1.35,1.35,0,0,1,1.1.41c0,.37,0,.84-.37,1a.77.77,0,0,1-1-.21c-.3-.5-.11-.85.26-1.22m3.33,0c.41,0,.87,0,1,.44,0,.53,0,1.06-.65,1.05-.92,0-1.09-1-.38-1.49m3.34,0c.69,0,1.35.54.75,1.21a.75.75,0,0,1-1,0c-.43-.46-.1-.89.26-1.21m-32.93.15c.55,0,1,.22.7.83s-1.41,0-.7-.83m36.19,0c.7,0,.85.17.8.8-.63.72-1.45-.16-.8-.8M67.14,95.13c.68,0,1.13.1,1.13.88a.73.73,0,0,1-.75.83c-1.11.13-1.15-1.2-.38-1.71m3.26,0c.61,0,.76,0,1.17.48,0,.48.12.88-.36,1.14-1.17.61-1.71-.91-.81-1.62m3.33,0c.73,0,1.79.72,1,1.48-1,.93-2.17-.71-1-1.48m3.37,0c1.13,0,1.6,1.4.39,1.68s-1.29-1.21-.39-1.68m3.19,0c.52,0,.92-.06,1.12.49a.81.81,0,0,1-.57,1.17c-1.11.33-1.31-1.12-.55-1.66m3.29,0c.92,0,1.92,1.09.72,1.57s-1.53-.89-.72-1.57m3.3,0c1-.06,2,1.15.7,1.65a.86.86,0,0,1-1.07-.32c-.33-.57-.06-1,.37-1.33m3.3,0c.57,0,.93,0,1.17.56a.84.84,0,0,1-.48,1.09.85.85,0,0,1-1.06-.31c-.32-.58-.07-1,.37-1.34m3.33,0c1,0,1.69,1.06.63,1.64a.77.77,0,0,1-.92-.12c-.51-.52-.14-1.16.29-1.52m3.22.11c.31,0,.73-.06,1,.2a1,1,0,0,1,0,1.1.93.93,0,0,1-1.12,0c-.42-.37-.11-.9.18-1.26m-32.85,0c.76,0,1.13.33.91,1.1-1,.71-1.65-.29-.91-1.1m36.3.15c.67,0,.77.21.77.8-.7.61-1.4-.09-.77-.8M68.75,96.78c.62,0,.76,0,1.17.48,0,.48.12.88-.36,1.14-1.16.61-1.71-.91-.81-1.62m3.3,0c.61,0,.76,0,1.17.48,0,.48.12.88-.37,1.14-1.16.61-1.7-.91-.8-1.62m3.29,0c.62,0,.76,0,1.17.48,0,.48.13.88-.36,1.14-1.16.61-1.71-.91-.81-1.62m3.3,0c.61,0,.76,0,1.17.48,0,.48.12.88-.36,1.14-1.16.61-1.71-.91-.81-1.62m3.29,0c.62,0,.77,0,1.18.48,0,.48.12.88-.37,1.14-1.16.61-1.7-.91-.81-1.62m3.3,0c.62,0,.76,0,1.18.48,0,.48.11.88-.37,1.14-1.16.61-1.71-.91-.81-1.62m3.3,0c.62,0,.76,0,1.17.48,0,.48.12.88-.36,1.14-1.16.61-1.71-.91-.81-1.62m3.3,0c.61,0,.76,0,1.17.48,0,.48.12.88-.37,1.14-1.16.61-1.7-.91-.8-1.62m3.33,0c.81,0,1.71.68,1,1.5a.93.93,0,0,1-1.24.09c-.62-.54-.2-1.18.27-1.59m-29.6,0c1.21-.07,1.3.87.63,1.61-1.09,0-1.63-1-.63-1.61m33,.11c.93.06,1.19.72.55,1.43-.92,0-1.58-.79-.55-1.43m-36.26.18c.67,0,.76.22.76.81-.69.61-1.39-.09-.76-.81m4.87,1.32a1.51,1.51,0,0,1,1.13.41c.06.53.1,1-.45,1.21-1.21.52-1.52-1-.68-1.62m3.26,0c.61,0,.76,0,1.17.48,0,.48.12.88-.36,1.14-1.17.61-1.71-.91-.81-1.62m3.29,0c.62,0,.76,0,1.18.48,0,.48.12.88-.37,1.14-1.16.61-1.7-.91-.81-1.62m3.3,0c.62,0,.76,0,1.17.48,0,.48.12.88-.36,1.14-1.16.61-1.71-.91-.81-1.62m3.3,0c.61,0,.76,0,1.17.48,0,.48.12.88-.37,1.14-1.16.61-1.7-.91-.8-1.62m3.29,0c.62,0,.76,0,1.18.48,0,.48.12.88-.37,1.14-1.16.61-1.7-.91-.81-1.62m3.3,0c.62,0,.76,0,1.17.48,0,.48.12.88-.36,1.14-1.16.61-1.71-.91-.81-1.62m3.3,0c.61,0,.76,0,1.17.48,0,.48.12.88-.36,1.14-1.17.61-1.71-.91-.81-1.62m3.29,0c.62,0,.76,0,1.18.48,0,.48.12.88-.37,1.14-1.16.61-1.71-.91-.81-1.62m3.41,0c.55.06.9.07,1,.68a.85.85,0,0,1-.72,1.07c-1.17.11-1.16-1.32-.32-1.75m-33,.22c.76,0,.88.27.88.95-.85.76-1.73-.19-.88-.95m36.27,0c.59,0,1.32.8.51,1.17-.78,0-1.28-.61-.51-1.17m-31.39,1.39a1.36,1.36,0,0,1,1.13.4c.06.54.1,1-.45,1.22-1.14.49-1.6-1-.68-1.62m3.26,0c.61,0,.76,0,1.17.48,0,.47.12.88-.37,1.14-1.16.61-1.7-.91-.8-1.62m3.29,0c.62,0,.76,0,1.17.48,0,.47.13.88-.36,1.14-1.16.61-1.71-.91-.81-1.62m3.3,0c.61,0,.76,0,1.17.48,0,.47.12.88-.36,1.14-1.16.61-1.71-.91-.81-1.62m3.29,0c.62,0,.77,0,1.18.48,0,.47.12.88-.37,1.14-1.16.61-1.7-.91-.81-1.62m3.3,0c.62,0,.76,0,1.18.48,0,.47.11.88-.37,1.14-1.16.61-1.71-.91-.81-1.62m3.3,0c.61,0,.76,0,1.17.48,0,.47.12.88-.36,1.14-1.16.61-1.71-.91-.81-1.62m3.3,0c.61,0,.76,0,1.17.48,0,.47.12.88-.37,1.14-1.16.61-1.7-.91-.8-1.62m3.29,0c.56,0,1.18,0,1.23.76a.9.9,0,0,1-.91,1c-1.07,0-1-1.26-.32-1.78m-29.6.15c1,0,1.32.62.63,1.39-.4,0-.83.06-1-.4a.8.8,0,0,1,.36-1m32.86,0c.67,0,1.66.54.9,1.26a.86.86,0,0,1-1.06,0c-.42-.39-.14-.84.16-1.21m-36.11.22c.51,0,.94.18.66.77s-1.38-.06-.66-.77m8.24,1.28c1.21,0,1.48,1.67.32,1.65s-1.18-1.16-.32-1.65m3.26,0c1-.06,1.82,1.41.6,1.66s-1.52-1.09-.6-1.66m3.29,0c1-.06,1.82,1.41.61,1.66s-1.53-1.09-.61-1.66m3.3,0c.84,0,1.74,1,.76,1.53s-1.78-.9-.76-1.53m3.26,0c.73,0,1.85.84.89,1.47-.35.23-1,.35-1.21,0-.39-.6-.16-1,.32-1.42m3.3,0c.91,0,1.84,1.14.69,1.65s-1.6-1-.69-1.65m3.29,0c.92,0,1.87,1.15.7,1.65-.56,0-1.16,0-1.27-.69a1,1,0,0,1,.57-1m3.3,0c.42,0,.9,0,1.1.44a.89.89,0,0,1-.4,1.21c-.59,0-1,.08-1.21-.53s.12-.85.51-1.12m3.22.07c1.06,0,1.53.78.7,1.54-1.07.06-1.45-.76-.7-1.54m-29.59.07c1,0,1.37.6.66,1.4-.94-.06-1.37-.6-.66-1.4m33,.15c.64,0,.77.21.77.84-.79.7-1.5-.2-.77-.84m-36.27,0c.52,0,.94.18.74.75s-1.4.13-.74-.75m24.73,1.39c1.11-.06,1.41,1.46.29,1.52s-1-1.11-.29-1.52m3.22,0c.77,0,1.53.55.85,1.3a.73.73,0,0,1-1.08,0c-.4-.49-.16-.94.23-1.3m-19.78,0c1,.05,1.36.64.66,1.42-.54,0-.69,0-1-.4a.91.91,0,0,1,.36-1m3.3,0c.72,0,1.45.48.84,1.24a.76.76,0,0,1-1.06,0c-.46-.41-.14-.89.22-1.22m3.3,0c.45,0,.87-.06,1,.48s-.07.68-.4.94c-1.07.32-1.28-.83-.62-1.42m3.22,0c.69,0,1.69.52.9,1.24s-1.53-.46-.9-1.24m3.3,0c.7,0,1.77.6.88,1.32s-1.48-.58-.88-1.32m10,0c.92.05,1.41.67.66,1.42-.43,0-.89.06-1.06-.43s.11-.78.4-1m-26.34.07c.86,0,1.29.66.59,1.28-.49,0-.94.08-.94-.55a.93.93,0,0,1,.35-.73m29.67.11c.71,0,.85.17.81.81-.69.77-1.47,0-.81-.81m-32.93,0c.68,0,.77.22.77.8-.71.62-1.47-.21-.77-.8m28,1.54c.78,0,1.19.6.52,1.2-.83,0-1.23-.57-.52-1.2m-19.78,0c.78.06,1.14.59.48,1.17-.79-.06-1-.52-.48-1.17m3.3,0c.62,0,1,.3.72.94s-1.59-.18-.72-.94m3.3,0c.74,0,1.19.57.51,1.17-.76,0-1.2-.56-.51-1.17m3.26,0c.69,0,.84.2.84.84-.7.79-1.53-.06-.84-.84m3.29,0c.73,0,.85.2.85.84-.7.79-1.53-.06-.85-.84m3.26,0c.79,0,.93.22.88.92-.65.77-1.62-.17-.88-.92m-19.7,0c.47,0,1.21.42.67,1s-1.36-.36-.67-1m26.37,0c.72.05,1.1.55.48,1.1-.72-.06-1.12-.54-.48-1.1m-29.67.07c.52,0,1,.19.66.77s-1.37,0-.66-.77"/><path class="cls-4" d="M62.27,64.18c.51,0,.94.18.66.77s-1.38-.06-.66-.77"/><path class="cls-4" d="M70.4,65.53c.81,0,1.64.59.9,1.39s-1.91-.6-.9-1.39"/><path class="cls-4" d="M77.1,65.83c.42,0,.73,0,.73.49,0,.94-1.63.4-.73-.49"/><path class="cls-4" d="M68.75,67.11a1.43,1.43,0,0,1,.93.16,1,1,0,0,1,.08,1.31c-1,.93-2.1-.62-1-1.47"/><path class="cls-4" d="M65.49,67.18c.42,0,.9,0,1.1.44s.15.88-.29,1.06c-1.1.46-1.66-.8-.81-1.5"/><path class="cls-4" d="M62.27,67.4c.57,0,1.14.42.63,1s-1.32-.43-.63-1"/><path class="cls-4" d="M70.4,68.76c.61,0,.76,0,1.17.47,0,.48.12.89-.36,1.14-1.17.61-1.71-.91-.81-1.61"/><path class="cls-4" d="M73.66,68.83c1.1,0,1.48.75.73,1.57-.42,0-.88.07-1.09-.38a.94.94,0,0,1,.36-1.19"/><path class="cls-4" d="M64,68.9c.46,0,.73,0,.9.49a.69.69,0,0,1-.39.9.93.93,0,0,1-.95-.29c0-.6,0-.72.44-1.1"/><path class="cls-4" d="M78.74,70.84c.69,0,1,.33.51,1-.73,0-.94-.35-.51-1"/><path class="cls-4" d="M68.75,70.4c.61,0,.76,0,1.17.48,0,.48.12.88-.36,1.14-1.16.61-1.71-.91-.81-1.62"/><path class="cls-4" d="M65.49,70.44c.55,0,1,0,1.12.61a.83.83,0,0,1-.42,1c-1.17.36-1.5-1-.7-1.61"/><path class="cls-4" d="M67.1,72.05c.69,0,1.17.07,1.17.88a.73.73,0,0,1-.75.83c-1.14.13-1.08-1.15-.42-1.71"/><path class="cls-4" d="M70.4,72.05c.61,0,.76,0,1.17.48,0,.48.12.88-.36,1.14-1.17.61-1.71-.91-.81-1.62"/><path class="cls-4" d="M63.84,72.24c.6,0,1.61.47.85,1.18s-1.63-.5-.85-1.18"/><path class="cls-4" d="M65.56,73.74a1.16,1.16,0,0,1,1.06.44c0,.54,0,1.16-.7,1.23-1.09.1-1.11-1.24-.36-1.67"/><path class="cls-4" d="M78.75,74.07c.56,0,.84.21.59.79s-1.27-.11-.59-.79"/><path class="cls-4" d="M70.4,75.35c.61,0,.76,0,1.17.48,0,.47.12.88-.36,1.13-1.17.62-1.71-.9-.81-1.61"/><path class="cls-4" d="M73.69,75.39c.93,0,1.57.57.86,1.48s-1.92-.59-.86-1.48"/><path class="cls-4" d="M77.06,75.64c.55,0,1.07.2.79.86s-1.53,0-.79-.86"/><path class="cls-4" d="M72.05,77c.5,0,1.17,0,1.19.66,0,.44-.12,1-.62,1.12-1.23.24-1.35-1.19-.57-1.78"/><path class="cls-4" d="M75.34,77.14c.51,0,.68,0,1,.37,0,.4.06.83-.37,1-1,.34-1.26-.79-.66-1.4"/><path class="cls-4" d="M78.71,77.4c.48,0,1.05.28.61.79s-1.17-.22-.61-.79"/><path class="cls-4" d="M68.75,80.29c.61,0,.76,0,1.17.48,0,.48.12.88-.36,1.14-1.16.61-1.71-.91-.81-1.62"/><path class="cls-4" d="M75.34,80.44c.73,0,1.49.5.83,1.25s-1.59-.49-.83-1.25"/><path class="cls-4" d="M70.4,81.94c.61,0,.76,0,1.17.48,0,.47.12.88-.36,1.14-1.17.61-1.71-.91-.81-1.62"/><path class="cls-4" d="M67.21,55.88c.71,0,.81.24.81.88-.74.65-1.59-.18-.81-.88"/><path class="cls-4" d="M70.51,55.88c.7,0,.8.24.8.88-.74.65-1.59-.18-.8-.88"/><path class="cls-4" d="M73.8,56c.52,0,1,.19.67.77s-1.38,0-.67-.77"/><path class="cls-4" d="M68.75,57.42c1-.05,1.36.66.66,1.43-.89-.05-1.45-.71-.66-1.43"/><path class="cls-4" d="M65.56,57.46c.82,0,1.27.65.55,1.28-.5,0-.56.07-.91-.33,0-.4,0-.74.36-.95"/><path class="cls-4" d="M72.15,57.46c.48,0,.5,0,.85.36,0,.34.09.66-.27.84-.92.46-1.29-.68-.58-1.2"/><path class="cls-4" d="M75.45,57.6c.52,0,1,.19.67.77s-1.38,0-.67-.77"/><path class="cls-4" d="M67.14,59c.75,0,1.7.66.9,1.39-1,.86-1.89-.59-.9-1.39"/><path class="cls-4" d="M70.4,59c.81,0,1.64.58.9,1.39s-1.91-.61-.9-1.39"/><path class="cls-4" d="M73.69,59.1c.9,0,1.4.63.63,1.32-.79,0-1.39-.63-.63-1.32"/><path class="cls-4" d="M63.84,59.14c.61,0,1.48.44.77,1.08s-1.28-.42-.77-1.08"/><path class="cls-4" d="M77.1,59.25c.42,0,.73.06.73.5,0,.93-1.63.39-.73-.5"/><path class="cls-4" d="M68.75,60.53a1.5,1.5,0,0,1,.93.17,1,1,0,0,1,.08,1.3c-1,.93-2.1-.61-1-1.47"/><path class="cls-4" d="M72.08,60.57c.55,0,1.13.09,1.16.78a.92.92,0,0,1-.75.95.76.76,0,0,1-.87-.59c-.18-.59,0-.8.46-1.14"/><path class="cls-4" d="M65.49,60.61c.42,0,.9,0,1.1.44s.15.88-.29,1.06c-1.1.46-1.66-.8-.81-1.5"/><path class="cls-4" d="M75.34,60.79c.8,0,1,.2,1,.92-.83.73-1.63-.06-1-.92"/><path class="cls-4" d="M62.27,60.83c.57,0,1.14.42.63,1s-1.32-.43-.63-1"/><path class="cls-4" d="M67.14,62.18c.68,0,1.13.09,1.13.88a.73.73,0,0,1-.75.83c-1.13.12-1.14-1.21-.38-1.71"/><path class="cls-4" d="M70.4,62.18c.61,0,.76,0,1.17.48,0,.47.12.88-.36,1.14-1.17.61-1.71-.91-.81-1.62"/><path class="cls-4" d="M73.66,62.25c1.1,0,1.48.75.73,1.58-.42,0-.88.07-1.09-.39a.94.94,0,0,1,.36-1.19"/><path class="cls-4" d="M64,62.33c.46.05.73,0,.9.49a.7.7,0,0,1-.39.9,1,1,0,0,1-.95-.29c0-.61,0-.72.44-1.1"/><path class="cls-4" d="M77.06,62.51c.69,0,.81.2.81.81-.71.62-1.5-.11-.81-.81"/><path class="cls-4" d="M78.74,64.26c.69,0,1,.34.51,1-.73,0-.94-.35-.51-1"/><path class="cls-4" d="M78.74,61c.69,0,1,.33.51,1-.73,0-.94-.35-.51-1"/><path class="cls-4" d="M68.75,63.83c.61,0,.76,0,1.17.48,0,.47.12.88-.36,1.13-1.16.62-1.71-.9-.81-1.61"/><path class="cls-4" d="M72.05,63.83c1.19-.06,1.6,1,.69,1.72-1.15.06-1.66-1-.69-1.72"/><path class="cls-4" d="M65.49,63.87c.55,0,1,0,1.12.61a.83.83,0,0,1-.42,1c-1.17.35-1.5-1-.7-1.61"/><path class="cls-4" d="M75.3,64c.56,0,.69-.08,1,.41,0,.49,0,.6-.33,1-.93-.05-1.35-.54-.7-1.36"/><path class="cls-4" d="M62.27,64.12c.56,0,1,.19.77.82s-1.74,0-.77-.82"/><path class="cls-4" d="M67.1,65.48c.69,0,1.17.07,1.17.88a.72.72,0,0,1-.75.82c-1.14.13-1.08-1.15-.42-1.7"/><path class="cls-4" d="M73.73,65.51c.91,0,1.73,1.14.66,1.62-.58,0-1.2,0-1.17-.73a1,1,0,0,1,.51-.89"/><path class="cls-4" d="M63.84,65.66c.6,0,1.61.47.85,1.18s-1.63-.5-.85-1.18"/><path class="cls-4" d="M77.06,65.77c.81.06,1.09.49.52,1.14-.78-.06-1.07-.5-.52-1.14"/><path class="cls-4" d="M72.05,67.13c.58,0,1.08,0,1.19.7a.82.82,0,0,1-.87,1c-1.08,0-1-1.23-.32-1.71"/><path class="cls-4" d="M75.38,67.27c.86,0,1.58,1.17.53,1.4s-1.25-.89-.53-1.4"/><path class="cls-4" d="M78.75,67.49c.56,0,.84.22.59.79s-1.27-.11-.59-.79"/><path class="cls-4" d="M67.14,68.78c.6,0,.73,0,1.13.47,0,.55,0,1.22-.69,1.26-1.13.07-1.23-1.21-.44-1.73"/><path class="cls-4" d="M77.06,69.07c.55,0,1.07.19.79.85s-1.53,0-.79-.85"/><path class="cls-4" d="M72.05,70.42c.5,0,1.17,0,1.19.67,0,.43-.12,1-.62,1.11-1.23.25-1.35-1.18-.57-1.78"/><path class="cls-4" d="M75.34,70.57c.51,0,.68,0,1,.37,0,.39.06.83-.37,1-1,.34-1.26-.79-.66-1.39"/><path class="cls-4" d="M78.71,70.83c.48,0,1.05.27.61.78s-1.17-.22-.61-.78"/><path class="cls-4" d="M73.69,72.11c.86,0,1.67.65.86,1.49a.84.84,0,0,1-1.27-.26c-.27-.56,0-.89.41-1.23"/><path class="cls-4" d="M77.06,72.36c.76,0,.85.22.85.88-.75.65-1.51-.12-.85-.88"/><path class="cls-4" d="M75.34,73.86c.73,0,1.49.51.83,1.25s-1.59-.48-.83-1.25"/></g></g></svg>