<svg xmlns="http://www.w3.org/2000/svg" viewBox="0 0 165 165"><defs><style>.cls-1{fill:#233944;}.cls-2,.cls-3,.cls-4,.cls-5,.cls-6{fill:none;stroke:#fff;}.cls-2,.cls-5,.cls-6{stroke-miterlimit:10;}.cls-2{stroke-width:0.78px;}.cls-3{stroke-linecap:round;}.cls-3,.cls-4{stroke-linejoin:round;}.cls-3,.cls-4,.cls-6{stroke-width:1.3px;}.cls-4{stroke-linecap:square;}.cls-5{stroke-width:2.6px;}.cls-7{fill:#fff;}.cls-8{fill:#a4ae4a;}</style></defs><g id="Capa_2" data-name="Capa 2"><g id="Capa_1-2" data-name="Capa 1"><rect class="cls-1" width="165" height="165"/><path class="cls-2" d="M35.36,117v-.16h.32v12.28h-.32V117Z"/><path class="cls-2" d="M44,117.4h-.17v-.32h.35v.32H44Zm-.17,3.14v-.16h.33v8.78h-.33v-8.62Z"/><path class="cls-2" d="M51.33,120.6l-.1-.22h.36l0,.09,3.44,8.11,3.44-8.11,0-.09h.35l-.09.22-3.59,8.46,0,.1H55l0-.1Z"/><path class="cls-2" d="M65.33,124.94h0v-.33h0a3.93,3.93,0,1,1,7.83.17v.16h-7.5c.09,2.21,1.95,4.16,3.85,3.9s2.69-.86,3-2l0-.12h.32l0,.21c-.39,1.28-1.24,2-3.34,2.27S65.43,127.3,65.33,124.94Zm.32-.33h7.17a3.6,3.6,0,1,0-7.17,0Z"/><path class="cls-2" d="M80.64,122.51a3.5,3.5,0,0,1,3.1-2.13,3.58,3.58,0,0,1,3.42,3.67v5l0,.17h-.31l0-.16v-5a3.11,3.11,0,1,0-6.2,0v5.11h-.33v-8.78h.33v2.13Z"/><path class="cls-2" d="M94.5,120.8v6.06c0,1.31.79,2,2.27,2h.16v.32h-.16c-1.61,0-2.58-.83-2.59-2.3V120.8H92.91v-.33h1.27v-2h.32v2h2v.33h-2Z"/><path class="cls-2" d="M103.77,120.54v-.15h.36l0,.16V126a3.1,3.1,0,0,0,6.19,0v-5.58h.36v.16l0,5.42a3.43,3.43,0,0,1-6.85,0Z"/><path class="cls-2" d="M123.49,122.64a3.06,3.06,0,0,1,2.77-2.26,3.19,3.19,0,0,1,2.94,3.36V129l0,.17h-.31l0-.16,0-5.27a2.64,2.64,0,1,0-5.22,0V129l0,.17h-.31l0-.16V123.9h0v-.16a2.64,2.64,0,1,0-5.22,0v5.42h-.33v-8.78h.33v1.84a3,3,0,0,1,2.61-1.84A3,3,0,0,1,123.49,122.64Z"/><line class="cls-3" x1="102.74" y1="83.37" x2="106.13" y2="77.34"/><line class="cls-3" x1="109.54" y1="83.36" x2="106.13" y2="77.35"/><line class="cls-3" x1="109.54" y1="83.53" x2="106.15" y2="89.56"/><line class="cls-3" x1="102.74" y1="83.54" x2="106.15" y2="89.54"/><line class="cls-4" x1="106.13" y1="107.63" x2="106.13" y2="89.03"/><path class="cls-5" d="M129.64,108.47l-93.38-.06-.08-30,23.33-18.2"/><path class="cls-6" d="M88.48,36.41,59,59.77"/><polyline class="cls-6" points="81.04 77.39 94.93 77.39 95.14 102.21 117.71 102.21 117.71 60.93 88.22 36.67"/><polyline class="cls-5" points="82.2 107.67 82.2 77.84 58.94 60.63"/><rect class="cls-7" x="88.31" y="35.76" width="0.34" height="1.02" transform="translate(4.66 82.29) rotate(-51.06)"/><rect class="cls-7" x="87.72" y="35.76" width="0.34" height="1.01" transform="translate(113.99 127.69) rotate(-128.36)"/><polygon class="cls-8" points="106.14 78.66 103.45 83.44 106.15 88.23 108.84 83.44 106.14 78.66"/></g></g></svg>