<svg xmlns="http://www.w3.org/2000/svg" viewBox="0 0 165 165"><defs><style>.cls-1{fill:#fff;}.cls-2{fill:#050505;}.cls-3{fill:#1d1d1d;}</style></defs><g id="Capa_2" data-name="Capa 2"><g id="Capa_1-2" data-name="Capa 1"><rect class="cls-1" width="165" height="165"/><path class="cls-1" d="M117,101.64s0,0,0,0h0a.1.1,0,0,1-.1-.12s0-.08,0-.1c-.34-.33-.45-.94-1.09-.9a1.85,1.85,0,0,0-1.22-.25,9.29,9.29,0,0,0,2.07,1.42c.13,0,0-.38.26-.18ZM83.52,83.56v0a5.09,5.09,0,0,0,.56,1.54c-.07-.26-.14-.52-.23-.77S83.74,83.77,83.52,83.56ZM38.84,62.17a3.12,3.12,0,0,0,.75-.56c.16-.13.13-.29,0-.48l-.82,1a.73.73,0,0,0-.27.36A.53.53,0,0,0,38.84,62.17Zm84-10.34h0c0,.18.1.25.21.33s.4.2.59.32a.51.51,0,0,0,.73-.09A7.05,7.05,0,0,1,122.84,51.83ZM103.54,95s0,0,0,0h0c0-.22-.18-.33-.3-.47a10.19,10.19,0,0,0-2.12-1.64.61.61,0,0,0-.4-.13A34.52,34.52,0,0,1,103.54,95ZM41.41,68.6c.18-.09.25.08.36.16a2.29,2.29,0,0,0,1.07.46,24.37,24.37,0,0,1-2.32-2.16,2.32,2.32,0,0,0,.64,1.15c.1.12.32.17.27.4-.34.09,0,.2,0,.31s0,.06,0,.09c1,1.95,2,3.89,2.92,5.84.12.24.23.24.45.14.84-.39,1.69-.76,2.56-1.08a25.82,25.82,0,0,1,3.94-1.17c.22,0,.26-.13.15-.33-.37-.73-.73-1.46-1.09-2.19-.08-.15-.16-.27-.36-.24s-.64.08-1,.13a9.48,9.48,0,0,1-2.06.14,18.15,18.15,0,0,1-3.58-.63,5.36,5.36,0,0,1-1.88-.82ZM99.7,112.77h-.53c-.15,0-.23,0-.23.22v2.87c0,.18.08.25.26.25s.22-.09.22-.24c0-.4,0-.8,0-1.2a1.08,1.08,0,0,1,.56-.06,1.59,1.59,0,0,0,.74-.18.84.84,0,0,0,.46-.83.77.77,0,0,0-.53-.72A1.68,1.68,0,0,0,99.7,112.77Zm30.69-16.62a13.73,13.73,0,0,0,2.63-3.9,1.39,1.39,0,0,0-.8.64c-.57,1-1.15,2-1.73,2.93a.42.42,0,0,0-.09.32s0,0,0,0ZM71,69.68c-.13-.26.18-.05.18-.2a.82.82,0,0,0-.28-.38c-.12.05,0,.27-.21.26-.13-.17-.24-.34-.38-.5s-.28-.21-.4,0l-1,2.34a.36.36,0,0,0,0,.32,11.54,11.54,0,0,0,1,1.12c.33-.78.65-1.56,1-2.33A1,1,0,0,0,71,69.68Zm38-20.22a1.52,1.52,0,0,0,1.09.23,16.3,16.3,0,0,1,5.26.14,25.24,25.24,0,0,1,2.68.72.71.71,0,0,0,.3.15,13.83,13.83,0,0,1,5.7,4.11c.07.08.12.19.26.22a3.28,3.28,0,0,0,.19-.93c.05-.23,0-.35-.27-.41a3.47,3.47,0,0,1-1.54-.86,3.78,3.78,0,0,0-1.67-1,2.81,2.81,0,0,1-.56-.26c-.07,0-.18-.08-.16-.16,0-.36-.25-.43-.46-.56a26.22,26.22,0,0,0-3.45-1.79A1,1,0,0,0,116,49a1.09,1.09,0,0,0,.37.26c1.07.61,2.16,1.2,3.27,1.73.17.08.38.11.43.34-.17.11-.3,0-.43-.1-.49-.24-1-.53-1.45-.73-1.07-.59-2.13-1.18-3.17-1.81a2.18,2.18,0,0,0-1.33-.32,31.81,31.81,0,0,0-4.85.68.55.55,0,0,0-.32.14c.06.14.18.16.27.21-.22.29-.41,0-.66,0a3.23,3.23,0,0,0,.91.53C109.09,49.7,108.85,49.59,109,49.46Zm21.86,9.29c.13,0,.17-.07.22-.15.72-1.13,1.43-2.27,2.15-3.41a.26.26,0,0,0-.05-.4c-.47-.43-.95-.86-1.45-1.26-.28-.22-.27-.25-.53,0a2.75,2.75,0,0,1-2,1c-.1,0-.23,0-.31.1l.12.14c-.16.19-.28,0-.4-.06s-.39-.33-.68-.3a6.1,6.1,0,0,1,1.88,2.49c.2.44.37.89.55,1.33s.14.35.47.49C130.87,58.71,130.87,58.74,130.87,58.75ZM63.73,84.26l.05-.07c.2-.09.23-.3.32-.47A10.22,10.22,0,0,1,66,80.92a5.84,5.84,0,0,0,1.45-2.32l.15-.36c.5-1.16,1-2.33,1.48-3.49.15-.36.15-.37-.21-.52a4.66,4.66,0,0,0-.82-.28c-.15,0-.25,0-.3.15s-.11.23-.16.35c-1,2.27-1.93,4.54-2.87,6.81-.63,1.52-1.35,3-1.91,4.55a8.28,8.28,0,0,0-.58,1.45A6.48,6.48,0,0,0,63,85.85a2.91,2.91,0,0,1,.23-.55C63.42,85,63.57,84.61,63.73,84.26Zm49.15,16.86a15.51,15.51,0,0,0-4.19-1.49,13.23,13.23,0,0,1-4.61-1.7,1.06,1.06,0,0,0-.6-.11,17.89,17.89,0,0,0-3.34.37s-.06,0-.1.08a1.55,1.55,0,0,0,.5.31,30,30,0,0,0,13.17,3.2c.14,0,.29,0,.41-.08.07-.27.23-.1.32,0s.32.21.51.08c0,0,0-.07,0-.08a.91.91,0,0,0-.16-.11,14.68,14.68,0,0,0-3.45-1.56l-5.8-1.68c-.1,0-.19-.08-.3,0a.59.59,0,0,0,.26.17,14.12,14.12,0,0,0,3.54,1,12.42,12.42,0,0,1,3.52,1.2C112.71,100.77,112.94,100.84,112.88,101.12ZM36.24,51.62c.08-.24.16-.48.23-.73.14-.42.28-.85.4-1.28s.06-.29-.24-.31H31.49a.72.72,0,0,0-.41.05.8.8,0,0,0,.1.41c.17.47.36.93.51,1.4a1.61,1.61,0,0,0,.36.62,12.77,12.77,0,0,1,1.51,1.92,13.28,13.28,0,0,1,1.78,3.4,11.47,11.47,0,0,0,.42-1.78c.13-.94.12-1.89.27-2.82.12,0,.19,0,.17.13a2.29,2.29,0,0,0,0,1.19c0,.06,0,.12-.1.13h-.09a.12.12,0,0,1,0-.17c0-.13.18-.21.21-.36l.41-2c-.12.18-.15.3-.24.37S36.27,51.69,36.24,51.62Zm71.55,46.3c.1,0,.23.06.36-.06l-.59-.39a13.75,13.75,0,0,1-4.2-4.42,13.11,13.11,0,0,1-1.71-5.41c0-.12,0-.27-.07-.37a9.06,9.06,0,0,0-.94-.91L97.92,90.7c-.14.22,0,.28.15.36.71.39,1.42.81,2.16,1.15a9.87,9.87,0,0,1,3.62,2.71c.42.51.76,1.08,1.18,1.58a1.55,1.55,0,0,1,.34.63.62.62,0,0,0,.53.47c.62.14,1.26.19,1.89.33l.13,0c0,.32.29.35.52.4a2.72,2.72,0,0,0,1.29.24c.06,0,.11.06.09.13a.11.11,0,0,1-.14.09.21.21,0,0,1-.1-.09,1.57,1.57,0,0,0-1-.51c-.22,0-.44,0-.66-.07S107.68,98.06,107.79,97.92ZM40.62,53.29c-.17,0,0-.27-.17-.34-.21.34-.21.34.08.49-1,.88-1.86,1.81-2.86,2.64a4.6,4.6,0,0,0-1.83,3.1,18.36,18.36,0,0,0-.37,2.22,16.06,16.06,0,0,1-.19,2.49,4.17,4.17,0,0,0,0,1c.32-.24.59-.44.85-.65.72-.57.58-.28.59-1.22s0-1.92,0-2.88c0-.1-.06-.23.11-.3l1.29,2.57a9.15,9.15,0,0,0,1.05-1.11,1.23,1.23,0,0,0,.45-1.1.67.67,0,0,1,0-.28A5.39,5.39,0,0,1,41,57.28a3.09,3.09,0,0,0,.56-.94,3.85,3.85,0,0,1,.91-1.56.26.26,0,0,0,0-.31c-.34-.65-.66-1.31-1-2-.07-.13-.14-.13-.27-.07A1,1,0,0,0,40.62,53.29Zm-5.84,47.33a5.31,5.31,0,0,0,.2-2.41c-.07-.36-.1-.72-.15-1.09l.11-.11a7.17,7.17,0,0,1,1.15.48,8.15,8.15,0,0,1,3.71,3.08.29.29,0,0,0,.27.17h2.06c.09,0,.16,0,.17-.13s0-.2-.12-.23a2.74,2.74,0,0,0-.28,0,4.75,4.75,0,0,1-3.14-2,8.61,8.61,0,0,1-1-2,21.6,21.6,0,0,1-1-5.52c-.14-2-.08-4-.09-6,0-1,0-1-1-1.2-.3-.07-.32-.1-.2-.39a1.39,1.39,0,0,1,.22-.37c.25-.29.49-.59.75-.88s.23-.26,0-.53-.61-.7-.93-1c-.06-.07-.11-.21-.28-.15v.52c0,2.88,0,5.76,0,8.64a31.2,31.2,0,0,1-.46,5.79A9.62,9.62,0,0,1,33.84,98,4.2,4.2,0,0,1,31,100.15c-.36.08-.72.14-1.08.19-.16,0-.29,0-.27.25s.18.15.29.15h4.47c.13,0,.26,0,.34-.12a.56.56,0,0,1,0-.08,0,0,0,0,1,.05,0c.16.06.18,0,.17-.16a1.68,1.68,0,0,1-.14.3S34.8,100.69,34.78,100.62Zm96.46-8.56c-.12-.1,0-.23-.06-.36a4.26,4.26,0,0,1,0-3.18,6.93,6.93,0,0,0,.37-2.06,2.63,2.63,0,0,1,.91-2c.37-.33.74-.66,1.14-1a.53.53,0,0,0,.21-.65,11.83,11.83,0,0,0-1.57-3.33c-.06-.1-.1-.24-.27-.27s-.05.15-.07.22a9.35,9.35,0,0,1-1.72,3.61c-.16.19-.31.41-.46.61a.33.33,0,0,0-.09.31c-.23.16-.42.33-.31.66.12,0,.06-.24.22-.14s0,.28-.07.4c-.36.73-.72,1.46-1.1,2.18a.89.89,0,0,0-.11.64,12.19,12.19,0,0,1-.21,5.57,3.53,3.53,0,0,0,.05,2.36c-.06.12-.14.13-.2,0s-.14-.37-.2-.53a8.73,8.73,0,0,0,.4,2,.64.64,0,0,1,0-.41c0-.06.11,0,.17,0a2.52,2.52,0,0,0,.09.67s0,.07,0,.07.06,0,.06-.08a24.62,24.62,0,0,0,2-3.61c0-.07,0-.2.18-.14s0,.17.1.23c.23-.38.45-.77.69-1.15a.34.34,0,0,0-.11-.49C131.29,92.16,131.17,92.19,131.24,92.06ZM83,63.41c.17.1.05.22,0,.32-.15.45-.32.89-.48,1.33a3.71,3.71,0,0,0,.65-.93c.25-.43.23-.49-.17-.73a1.52,1.52,0,0,0-.13-.69,2.93,2.93,0,0,1-.18-.84,5.25,5.25,0,0,1,.3-2.22,4.68,4.68,0,0,0,.29-1.74,2.88,2.88,0,0,1,1.13-2.38c.37-.31.72-.63,1.1-.93a.65.65,0,0,0,.27-.57,4.81,4.81,0,0,1,0-1.2,3.07,3.07,0,0,1,1.74-2.17A7.34,7.34,0,0,1,89.63,50a.61.61,0,0,0,.54-.59s0-.06,0-.06l-6.1,0a.23.23,0,0,0-.27.25,6.06,6.06,0,0,1-.1.76,9.16,9.16,0,0,1-1.58,3.78c-.21.26-.4.54-.59.82s-.22.24-.14.43c0,0-.06.11-.08.11-.19,0-.24.07-.25.23s0,.27.17.31,0,.13,0,.21c-.64,1.19-1.24,2.41-1.88,3.61a4.18,4.18,0,0,0-.49,2.83A19.44,19.44,0,0,0,79.6,66a10.22,10.22,0,0,1,.46,1.81,4.07,4.07,0,0,0,.17.93c.16-.28.29-.53.45-.77a18,18,0,0,0,2.11-4.29C82.82,63.58,82.83,63.45,83,63.41Zm18.31-6.82a4.43,4.43,0,0,0,0,1.15,4.77,4.77,0,0,0,.08,1c-.18.2-.21-.05-.3-.11a.18.18,0,0,1-.07-.25.15.15,0,0,1,.11-.06.11.11,0,0,1,.14.08.19.19,0,0,1,0,.22.54.54,0,0,0-.11.4v1.43c0,.22.08.37.3.41s0-.27.17-.29a2.12,2.12,0,0,0,.78,1.08,2.68,2.68,0,0,1,.41.53,5.39,5.39,0,0,1,.78,2,4,4,0,0,0,.51,1.39,3.16,3.16,0,0,1,.26,3,24.27,24.27,0,0,0-.92,2.89c-.16.65-.38,1.28-.6,1.92a.37.37,0,0,0,.17.51c.36.23.69.48,1,.7a31.69,31.69,0,0,0,8.8,3.65c2.1.56,4.24,1,6.32,1.65a20.78,20.78,0,0,1,5.59,2.49.12.12,0,0,0,.17,0c0-.31,0-.64-.06-1a8.26,8.26,0,0,0-.42-2.31.67.67,0,0,1,.35-.75c.25-.09.48.06.6.4a10.22,10.22,0,0,1,.35,1.55c.15.92.15,1.85.24,2.77a1,1,0,0,0,.29.63,7.32,7.32,0,0,1,1.38,2c0,.09.06.21.2.26a3.68,3.68,0,0,0,.38-.77c.36-.89.37-.9-.12-1.73a12.52,12.52,0,0,1-1.64-5.23,11.81,11.81,0,0,1,.15-3.25c0-.24,0-.36-.22-.45l-.25-.13a33.15,33.15,0,0,0-7.07-2.6c-2.06-.53-4.15-1-6.18-1.61,0,0-.08,0-.12,0l.29.43a10.51,10.51,0,0,1,1.65,3.71c.09.45.13.92.18,1.38a7.41,7.41,0,0,0,.6,2.44c-.07,0-.11,0-.13,0-1.47-.6-3-1.12-4.39-1.83a6.13,6.13,0,0,1-2.09-1.66,9,9,0,0,1-1.8-6,5.51,5.51,0,0,1,.08-.71.72.72,0,0,0-.35-.8,9.54,9.54,0,0,1-3.48-4.78,12.65,12.65,0,0,1-.51-4.7c0-.36.22-.76.07-1.08a4.08,4.08,0,0,0-.76-.86c.19-.11.3,0,.41.13s.22.26.4.31c-.24-.31-.5-.58-.74-.87a1,1,0,0,0-.54-.32c-.1.13-.12,0-.19,0s0-.15-.14-.11,0,.11,0,.16ZM85.64,92.07l.1,0v-.8A2.68,2.68,0,0,0,85,88.87a2.75,2.75,0,0,1-.57-1.4,8.28,8.28,0,0,0-.73-2.67,6,6,0,0,1-.42-1.58c-.07-.45-.16-.91-.23-1.37a.74.74,0,0,0-.47-.6c-1.28-.58-2.58-1.14-3.88-1.67-.12,0-.23-.13-.39-.07a1.67,1.67,0,0,0,0,.55V94.72c0,.63,0,1.25,0,1.87a3,3,0,0,1-1.45,2.61,6.29,6.29,0,0,1-1.17.56,11.12,11.12,0,0,1-2.05.49l-.71.11a.19.19,0,0,0-.19.23c0,.12.09.15.19.15h6.88a.58.58,0,0,0,.42-.07,16.57,16.57,0,0,0-.43-1.82,6.25,6.25,0,0,0-.63-1.65.57.57,0,0,1,0-.59.41.41,0,0,1,.71-.09,1.69,1.69,0,0,1,.24.41,13.32,13.32,0,0,1,.76,2.23c.1.43.21.87.31,1.31,0,.21.15.28.36.28.47,0,.93,0,1.39,0,.09,0,.2,0,.25-.11a2.14,2.14,0,0,0-.13-.19,11.55,11.55,0,0,1-1.92-3.9,10.24,10.24,0,0,1-.32-5.35,11.14,11.14,0,0,0,.59-3.4A29.71,29.71,0,0,1,85.64,92.07ZM49.22,84.54c2.82,5.66,5.64,11.3,8.51,17,.11-.25.16-.4.24-.54a.54.54,0,0,0-.08-.69,8.49,8.49,0,0,1-1.18-2A11.25,11.25,0,0,1,56,90.16,6.15,6.15,0,0,0,56.31,88c0-.07,0-.13.14-.15C57.64,89,59,90.08,60.06,91.38A6,6,0,0,1,61,93a.68.68,0,0,0,.2.34L63,89.17l-.77-.25c-.63-.21-.63-.21-.9.41l-.61,1.43a3,3,0,0,1-.42-.72q-2-4-4-8.07c-.18-.35-.19-.35-.51-.14a17.53,17.53,0,0,1-5.6,2.46A5.65,5.65,0,0,0,49.22,84.54Zm36.5-21.79a10.12,10.12,0,0,1-1,.74,2.43,2.43,0,0,0-.88.92l-2.59,4.44a5.6,5.6,0,0,0-.33.7A2.48,2.48,0,0,0,81.08,72a10.27,10.27,0,0,1,1.33,3.58A7.16,7.16,0,0,0,83,77.44a2,2,0,0,1,.4,1.34.36.36,0,0,0,0,.14c.12.53.26,1.06.42,1.58a.91.91,0,0,0,.51.65c.36.17.7.39,1.05.58.1.06.2.17.35.09Zm5.89,10.17a3.51,3.51,0,1,0,3.46,3.5A3.48,3.48,0,0,0,91.61,72.92Zm6.33-5a3.49,3.49,0,0,0,.31-1A37,37,0,0,1,100,61.84a4.36,4.36,0,0,0,.37-1.9v-.09c0-1.4,0-2.79,0-4.19a6.74,6.74,0,0,0-.08-1.19,1.11,1.11,0,0,0-.25-.69,12.05,12.05,0,0,0-3.16,7.09A13.6,13.6,0,0,0,97.94,68ZM36.6,80.43l.12-.06V66a1,1,0,0,1,0-.24c.06-.25-.17-.27-.29-.37s-.22,0-.3.09-.4.37-.6.55a.82.82,0,0,0-.28.68c0,1.14,0,2.27,0,3.41v8.36c0,.17,0,.36.07.51Zm45.87-.35A7,7,0,0,0,82.34,79c-.18-.88-.36-1.76-.55-2.63a4.61,4.61,0,0,0-.22-.83.94.94,0,0,0-.5-.55,2.41,2.41,0,0,1-.68-.44c-.57-.49-1.16-1-1.69-1.5a1.44,1.44,0,0,0-.43-.36c0,.19,0,.33,0,.47,0,1.34,0,2.69,0,4a.69.69,0,0,0,.35.67c.8.56,1.68,1,2.52,1.49ZM126.7,50.47a26.34,26.34,0,0,0-9.32-2.14c.06.19.21.19.32.23a12.79,12.79,0,0,1,2.92,1.66,18.81,18.81,0,0,0,1.67,1.13,7,7,0,0,0,1.77.73,1.14,1.14,0,0,0,.83-.09A5.38,5.38,0,0,0,126.7,50.47Zm-48.31,9s.07,0,.08,0A35.8,35.8,0,0,0,80,56.16,1.2,1.2,0,0,0,79.88,55a11.78,11.78,0,0,1-1.74-4.88c0-.07,0-.16-.14-.19-.17.41-.34.82-.52,1.23a1.09,1.09,0,0,0-.1.64c.06.46.09.93.13,1.39s.08.8.13,1.26c.27-.28.24-.66.52-.86a.78.78,0,0,1,.08.53c0,1.47,0,2.94,0,4.42A2.54,2.54,0,0,0,78.39,59.47ZM36.53,55.74a.29.29,0,0,0,.27-.13c.69-.67,1.38-1.33,2.07-2,.2-.2.36-.44.55-.66a.76.76,0,0,0,.14-.67,18,18,0,0,1-.31-2.19c0-.25.12-.57-.08-.73s-.5-.05-.75-.05c-.43,0-.43,0-.55.42-.37,1.31-.7,2.62-.95,4C36.8,54.37,36.66,55.05,36.53,55.74Zm40-2.27c-.85,2-1.67,4-2.5,5.9a.4.4,0,0,0,0,.32,10.51,10.51,0,0,1,.57,2.05.72.72,0,0,0,.2-.31c.64-1.51,1.28-3,1.93-4.54a1.36,1.36,0,0,0,.08-.56c-.06-.72-.09-1.44-.15-2.16A2.22,2.22,0,0,0,76.48,53.47Zm4.25,20.18A1.74,1.74,0,0,0,80.6,73c-.21-.54-.4-1.08-.64-1.61a14.48,14.48,0,0,1-1.34-5.22,8.71,8.71,0,0,0-.33-1.91c0,.15,0,.21,0,.27q0,3.27,0,6.54a.56.56,0,0,0,.23.45L80.05,73ZM46.18,61.89c-.28-.55-.51-1-.73-1.47-.1-.21-.21-.23-.41-.14q-.78.33-1.56.63a18.07,18.07,0,0,1-2.78.91,1,1,0,0,0-.42.23l-1.49,1.21a.23.23,0,0,0-.1.26,14.9,14.9,0,0,1,3.6-1.24A24.53,24.53,0,0,1,46.18,61.89Zm58.72-9.65c-.05,0-.07-.07-.1-.08-.74-.11-1.49-.2-2.22-.37a.51.51,0,0,0-.41.09c-.36.29-.72.58-1.09.86-.2.15-.17.26,0,.4a11.86,11.86,0,0,1,1.72,1.6c.12.14.21.33.43.43A8.11,8.11,0,0,1,104.9,52.24Zm21.84,8.48a23.69,23.69,0,0,1,.22,4.42l2.22-3.52A9.34,9.34,0,0,1,126.74,60.72ZM89,100a5.09,5.09,0,0,1-2.74-1.62,12.91,12.91,0,0,1-1,2.36.86.86,0,0,0,.15,0h2.69a.37.37,0,0,0,.34-.14A3.59,3.59,0,0,0,89,100Zm35.75-1.43.9.79a.26.26,0,0,0,.35,0l1.34-.75c.15-.08.17-.19.12-.35a11.45,11.45,0,0,1-.38-1.39,2,2,0,0,0-.16-.7A9.13,9.13,0,0,1,124.71,98.52Zm9.35,16,.34-.15c.43-.19.63-.47.59-.83a.84.84,0,0,0-.7-.71,1.26,1.26,0,0,0-.28,0h-1c-.18,0-.26.06-.26.25,0,1,0,1.92,0,2.88a.27.27,0,0,0,.43.18.31.31,0,0,0,.07-.26c0-.34,0-.68,0-1,0-.11,0-.24.13-.28a.3.3,0,0,1,.31.09l.17.24c.24.34.47.68.72,1s.24.34.74.17Zm-27.84,0c.1-.15.2-.14.29-.18.43-.21.63-.48.59-.84a.84.84,0,0,0-.7-.71,2.83,2.83,0,0,0-.42-.06q-.36,0-.72,0c-.4,0-.41,0-.41.39,0,.55,0,1.09,0,1.64v1c0,.14,0,.26.19.27s.31,0,.31-.26,0-.7,0-1c0-.11,0-.24.13-.27a.26.26,0,0,1,.3.08l.18.24c.24.33.47.68.72,1s.24.34.74.17Zm-39.84-.14v1.39c0,.14,0,.31.2.31a5.56,5.56,0,0,0,1.63-.11,1.51,1.51,0,0,0,1.07-1.62A1.63,1.63,0,0,0,68,112.85a5,5,0,0,0-1.33-.11c-.23,0-.32.08-.31.31Zm-6-.06a1.45,1.45,0,0,0-1.16-1.6,1.73,1.73,0,0,0-1.83.65,2,2,0,0,0-.08,2.1,1.36,1.36,0,0,0,.93.63A1.75,1.75,0,0,0,60.42,114.34Zm16.76,1.81a1.82,1.82,0,0,0,1.59-2.75,1.37,1.37,0,0,0-.9-.66A1.78,1.78,0,0,0,75.71,115,1.41,1.41,0,0,0,77.18,116.15Zm14.6,0a1.81,1.81,0,0,0,1.61-2.73,1.34,1.34,0,0,0-.89-.68A1.78,1.78,0,0,0,90.34,115,1.41,1.41,0,0,0,91.78,116.15Zm33.7-1.84a1.47,1.47,0,0,0-1.42-1.62,1.67,1.67,0,0,0-1.64.81,1.94,1.94,0,0,0,0,2,1.21,1.21,0,0,0,.93.61A1.74,1.74,0,0,0,125.48,114.31Zm-82.33.1v1.39c0,.16,0,.3.22.3A5.59,5.59,0,0,0,45,116,1.45,1.45,0,0,0,46,114.79a1.68,1.68,0,0,0-1.25-2,5,5,0,0,0-1.34-.09c-.24,0-.3.09-.3.31C43.16,113.51,43.15,114,43.15,114.41Zm81.7-14.61a6.07,6.07,0,0,0-.8-.56.47.47,0,0,0-.53,0,9.07,9.07,0,0,1-2,.77c-.52.14-.52.14-.46.7,0,.39,0,.39.44.29a21.53,21.53,0,0,0,3-1A.55.55,0,0,0,124.85,99.8ZM81,114.52c.14-.16.31-.15.45-.23a.78.78,0,0,0,.44-.74.75.75,0,0,0-.49-.66,1.06,1.06,0,0,0-.5-.13h-1c-.24,0-.3.1-.3.31,0,.92,0,1.83,0,2.74,0,.19,0,.31.26.3s.24-.16.24-.32v-1c0-.09,0-.21.1-.25a.29.29,0,0,1,.35.09,2,2,0,0,1,.17.23l.69,1c.27.37.27.37.79.23Zm-46.35,0c.13-.17.31-.16.45-.24a.77.77,0,0,0,.43-.74.72.72,0,0,0-.48-.66,1.21,1.21,0,0,0-.41-.12c-.37,0-.74,0-1.11,0-.18,0-.24.09-.24.27v2.83c0,.18.07.25.26.25s.23-.11.23-.27c0-.36,0-.71,0-1.06,0-.09,0-.21.1-.24a.29.29,0,0,1,.35.07l.17.24.69,1c.26.37.26.37.78.23Zm21.43.52a1,1,0,0,1-.4-.37l-1.4-1.77a.34.34,0,0,0-.38-.15c-.18,0-.13.2-.13.32v2.74c0,.09,0,.19.13.26a.59.59,0,0,0,.09-.43v-1.58a1.94,1.94,0,0,1,0-.34c0-.11.11-.15.21-.07a2.75,2.75,0,0,1,.22.26l1.47,1.83c.1.12.17.28.33.34.11-.11.07-.25.07-.37v-2.55c0-.13.06-.37-.1-.37s-.12.25-.12.38C56,113.78,56,114.39,56,115.05Zm38.3,1a.66.66,0,0,0,.09-.47c0-.48,0-1,0-1.44a2.81,2.81,0,0,1,0-.29c0-.09,0-.2.09-.25s.18.08.26.15l.15.19,1.5,1.88c.07.08.12.22.31.21V112.9c0-.06,0-.13-.12-.12s-.09.08-.09.14c0,.36,0,.71,0,1.06v1.09a1.1,1.1,0,0,1-.42-.41l-1.37-1.74c-.12-.14-.25-.22-.42-.15s-.1.22-.1.34v2.69A.26.26,0,0,0,94.34,116.09Zm34.38-.75c0-.14,0-.29,0-.43s-.12-.24-.28-.25-.23.07-.22.23,0,.51,0,.77,0,.26-.23.3a1.37,1.37,0,0,1-1.52-.83,1.87,1.87,0,0,1,0-1.17,1.23,1.23,0,0,1,1.68-.94l.23.07c.11,0,.22.1.27-.07s-.06-.21-.17-.24a2.12,2.12,0,0,0-2.2.57,1.66,1.66,0,0,0,.77,2.71,2.76,2.76,0,0,0,1,.08C128.7,116.1,128.72,116.08,128.72,115.34Zm-9.69-.92h0c0,.46,0,.92,0,1.39,0,.19,0,.3.27.29s.23-.12.23-.28v-1.11c0-.18.07-.26.25-.26h1c.22,0,.32.07.31.3s0,.74,0,1.11c0,.19.09.25.27.24s.22-.08.22-.24V113c0-.15-.06-.23-.22-.23s-.27,0-.27.24,0,.64,0,1-.07.3-.28.3-.64,0-1,0-.29-.08-.28-.29v-.77c0-.41,0-.45-.26-.44s-.23.29-.23.47C119,113.62,119,114,119,114.42ZM103.62,51c.84.08,1.67,0,2.5.06a.19.19,0,0,0,.13,0,14.29,14.29,0,0,1,1.56-.83,7.26,7.26,0,0,1-.56-.49.49.49,0,0,0-.6-.13c-.6.22-1.2.44-1.78.72A5.7,5.7,0,0,0,103.62,51ZM52.45,114.41c0-.21-.17-.16-.27-.16-.8,0-.8,0-.78-.8,0-.46.07-.53.53-.5.24,0,.47.07.71.1s.24,0,.24-.14-.13-.16-.24-.16H51.16c-.18,0-.27.07-.27.26,0,.94,0,1.89,0,2.83,0,.21.11.27.31.27h1.58a.18.18,0,0,0,.14-.22c0-.1-.11-.1-.19-.09l-.95.09c-.37,0-.37,0-.38-.35s0-.51,0-.77.08-.31.31-.31A2.31,2.31,0,0,0,52.45,114.41Zm19.12-.09a2.19,2.19,0,0,0-.83-.07c-.19,0-.31-.06-.3-.27s0-.48,0-.72.11-.29.29-.3a1.89,1.89,0,0,1,.53,0l.42.07c.12,0,.24,0,.24-.14s-.09-.16-.19-.16H70.2c-.18,0-.27.07-.26.26v2.83c0,.17.07.27.25.26h1.64a.19.19,0,0,0,.13-.22c0-.1-.11-.1-.19-.09l-1,.09c-.37,0-.37,0-.38-.35,0-.21,0-.42,0-.62,0-.45,0-.44.46-.46C71.1,114.43,71.33,114.52,71.57,114.32Zm-30.83,0c-.1-.12-.24-.07-.35-.07-.81,0-.72.11-.73-.76,0-.51.08-.58.6-.54.14,0,.28,0,.42.07a1.87,1.87,0,0,0,.34,0c.07,0,.11,0,.12-.11a.13.13,0,0,0-.1-.18h-.19c-.45,0-.9,0-1.34,0s-.35,0-.35.37v2.4c0,.13,0,.25,0,.38s0,.2.16.2H41c.12,0,.17-.09.18-.19s-.1-.14-.2-.13l-1.05.1c-.19,0-.27,0-.27-.23s0-.54,0-.81,0-.38.38-.39h.43C40.57,114.44,40.7,114.49,40.74,114.32ZM84.33,82.05a12,12,0,0,0,1.37,4.14c0-1,0-2.1,0-3.16a.32.32,0,0,0-.18-.31ZM32.71,116c-.48-1.12-.94-2.24-1.49-3.37-.07.1-.11.14-.13.18l-1.29,2.93a1.27,1.27,0,0,0-.06.18.09.09,0,0,0,.05.12.18.18,0,0,0,.13,0,.45.45,0,0,0,.12-.21c.11-.62.52-.77,1.08-.67h0c.79,0,.61-.06.9.59C32.22,116.13,32.22,116.13,32.71,116Zm98-3.32a.26.26,0,0,0-.21.19c-.41,1-.83,1.9-1.25,2.85l-.07.18c0,.06,0,.14.08.15a.17.17,0,0,0,.12,0,.53.53,0,0,0,.11-.21c.11-.6.5-.7,1.05-.67.84.06.66-.08,1,.63.15.37.17.37.64.22Zm-16.69,1.63a1.55,1.55,0,0,0-.79-.1c-.19,0-.3-.08-.29-.29s0-.41,0-.62.05-.36.36-.39a1.83,1.83,0,0,1,.52,0,3,3,0,0,0,.43.06c.1,0,.19,0,.19-.16s-.1-.14-.19-.14c-.5,0-1,0-1.49,0-.27,0-.33.12-.32.35,0,.47,0,.93,0,1.39v1.35c0,.17.05.27.25.27h1.58a.18.18,0,0,0,.2-.21c0-.14-.12-.12-.22-.11l-.91.08c-.39,0-.39,0-.4-.37,0-.22,0-.45,0-.67s0-.35.38-.37A1.39,1.39,0,0,0,114.07,114.35Zm-4.82-1.65a.48.48,0,0,0-.23.3c-.4.91-.8,1.81-1.19,2.72,0,.11-.22.27,0,.35s.2-.16.25-.28c.31-.71.15-.6.93-.61h.15a.74.74,0,0,1,.93.62c.12.37.17.37.64.22Zm-25.23,0c-.17,0-.18.14-.22.23l-1.23,2.8a.67.67,0,0,0-.07.18c0,.06,0,.13.06.15s.12,0,.16-.07a.67.67,0,0,0,.06-.12c.12-.68.56-.81,1.15-.72a.33.33,0,0,0,.14,0,.52.52,0,0,1,.67.44c0,.06.05.12.07.17.16.37.16.37.65.24Zm20.31,3.33-1.46-3.33a.24.24,0,0,0-.19.15c-.43,1-.86,2-1.28,2.94a.48.48,0,0,0-.06.18.08.08,0,0,0,.07.1s.08,0,.09,0,.12-.12.13-.19c.12-.69.58-.75,1.16-.71s.57-.08.86.58C103.81,116.12,103.81,116.12,104.33,116.05ZM48,115.82a.13.13,0,0,0,.1.18,2.3,2.3,0,0,0,1.32.1.87.87,0,0,0,.25-1.62c-.23-.17-.49-.31-.73-.46a1.1,1.1,0,0,1-.45-.48c-.16-.37,0-.64.44-.61a2.33,2.33,0,0,1,.69.17c.09,0,.19.08.24,0s0-.22-.14-.25a1.89,1.89,0,0,0-1.13,0,.8.8,0,0,0-.36,1.34,2.4,2.4,0,0,0,.59.41,2.19,2.19,0,0,1,.59.4.6.6,0,0,1-.3,1,1.32,1.32,0,0,1-.71,0C48.31,115.87,48.19,115.76,48,115.82Zm27.3,0c-.15-.09-.27,0-.4.07A1.44,1.44,0,0,1,73,114.3a1.28,1.28,0,0,1,.06-.33,1.24,1.24,0,0,1,1.66-1l.36.13c.07,0,.13,0,.16-.06s.05-.16,0-.21a.58.58,0,0,0-.18-.08,2.27,2.27,0,0,0-1.92.34A1.7,1.7,0,0,0,73.4,116a2.82,2.82,0,0,0,1.79.07C75.29,116,75.37,116,75.34,115.84Zm12.28.31a3.09,3.09,0,0,0,.8-.11c.08,0,.15-.07.13-.17s-.12-.06-.19,0a1.9,1.9,0,0,1-1.08.09,1.15,1.15,0,0,1-.88-.67,1.88,1.88,0,0,1,0-1.67,1.14,1.14,0,0,1,1.27-.65,3.18,3.18,0,0,1,.6.18c.06,0,.13,0,.16-.05s0-.16,0-.22a.38.38,0,0,0-.17-.08,2.2,2.2,0,0,0-1.88.32,1.66,1.66,0,0,0-.67,1.65A1.47,1.47,0,0,0,86.77,116,2.43,2.43,0,0,0,87.62,116.15ZM62,112.8c.23.42.43.84.67,1.23a2.43,2.43,0,0,1,.43,1.67,1.21,1.21,0,0,0,0,.19c0,.17.11.21.26.21s.25-.16.23-.32a3.34,3.34,0,0,1,.52-2c.13-.24.24-.49.35-.74,0-.07.09-.13,0-.22-.23.08-.22.09-.56.8a3.19,3.19,0,0,1-.53,1c-.25-.51-.48-1-.73-1.49S62.47,112.73,62,112.8Zm55.45-12.28a.68.68,0,0,0,.08.15c.19.24.38.47.57.72a.38.38,0,0,0,.41.16c.33-.06.66-.09,1-.15.71-.13.67,0,.55-.77,0-.25-.15-.31-.38-.28a13.78,13.78,0,0,1-1.82.1A.6.6,0,0,0,117.42,100.52Zm-80.31,14h0v1.3c0,.16,0,.28.23.29s.27-.12.27-.3v-.34c0-.69,0-1.38,0-2.06,0-.45.07-.5.52-.41l.33.06c.11,0,.18,0,.18-.14s0-.17-.17-.17H36.26c-.11,0-.19,0-.17.17s.09.15.2.14a3.89,3.89,0,0,1,.47-.09c.28,0,.34,0,.35.31S37.11,114.11,37.11,114.52Zm78.73-.24h0c0-.41,0-.83,0-1.24,0-.16,0-.29-.23-.29s-.29.07-.28.28c0,.37,0,.74,0,1.1v1.68c0,.16,0,.29.23.29H117a.18.18,0,0,0,.2-.21c0-.14-.13-.1-.22-.09a5.77,5.77,0,0,1-.71.1c-.34,0-.43-.08-.43-.42S115.84,114.68,115.84,114.28Zm-26.22.2h0V113c0-.14,0-.25-.2-.25s-.24.07-.24.23v2.87c0,.17.08.26.26.24s.18-.14.18-.27Zm-42.44,0h0V113c0-.22-.11-.28-.3-.26s-.17.17-.17.29v2.87c0,.15.1.19.23.19s.24-.1.24-.27ZM81.81,80.69c-1.14-.75-2.3-1.44-3.52-2.09-.07.57-.07.57.37.76l2.46,1Zm3.91,8.8a29.7,29.7,0,0,0-1.44-3.78,6.68,6.68,0,0,1,.23,1.35A4.36,4.36,0,0,0,85.72,89.49ZM55.87,111.82a.78.78,0,0,1-.85.06c-.32-.11-.51,0-.66.47.26-.26.49-.17.74-.09S55.63,112.31,55.87,111.82Zm-14,4.87a.75.75,0,0,0,.52-.93c0-.07,0-.15-.08-.16a.42.42,0,0,0-.42.17.16.16,0,0,0,0,.25c.26.15.18.33,0,.51Zm38-48.32a2.32,2.32,0,0,0,0-.56c-.15-.56-.12-1.18-.59-1.62a.1.1,0,0,1,0-.16.18.18,0,0,1,.17,0,.13.13,0,0,1,.09.15c0,.11-.11.2-.08.32A10.91,10.91,0,0,0,79.89,68.37Zm3.53,11.69a12.58,12.58,0,0,1-.23-1.6c0-.19,0-.35-.28-.43A12.56,12.56,0,0,0,83.42,80.06Zm8.23,32.32.07.1.83-.59c.09-.06.14-.14,0-.23s-.18-.12-.28,0Zm-7.28-29a4.73,4.73,0,0,0-.45-1.47A5.82,5.82,0,0,0,84.37,83.37Zm.78,2.33a5.62,5.62,0,0,0,.56,1.39A3.84,3.84,0,0,0,85.15,85.7ZM68.28,72.87c.15.46.43-.09.62.08l-.38-.42C68.59,72.83,68.59,72.83,68.28,72.87Zm36.43-21c.17.1.31.18.49,0A.75.75,0,0,0,104.71,51.85ZM77,55.57c0,.15-.11.3,0,.42Z"/><path class="cls-2" d="M101.42,55c.07,0,.09.18.19,0h0c-.07.12,0,.15.1.15,0,.3.21.42.36.6a4.08,4.08,0,0,1,.76.86c.15.32,0,.72-.07,1.08a12.65,12.65,0,0,0,.51,4.7,9.54,9.54,0,0,0,3.48,4.78.72.72,0,0,1,.35.8,5.51,5.51,0,0,0-.08.71,9,9,0,0,0,1.8,6,6.13,6.13,0,0,0,2.09,1.66c1.42.71,2.92,1.23,4.39,1.83,0,0,.06,0,.13,0a7.41,7.41,0,0,1-.6-2.44c0-.46-.09-.93-.18-1.38A10.51,10.51,0,0,0,113,70.66l-.29-.43c0-.07.08-.07.12,0,2,.65,4.12,1.08,6.18,1.61a33.15,33.15,0,0,1,7.07,2.6l.25.13c.21.09.26.21.22.45a11.81,11.81,0,0,0-.15,3.25,12.52,12.52,0,0,0,1.64,5.23c.49.83.48.84.12,1.73a3.68,3.68,0,0,1-.38.77c-.14,0-.15-.17-.2-.26a7.32,7.32,0,0,0-1.38-2,1,1,0,0,1-.29-.63c-.09-.92-.09-1.85-.24-2.77a10.22,10.22,0,0,0-.35-1.55c-.12-.34-.35-.49-.6-.4a.67.67,0,0,0-.35.75,8.26,8.26,0,0,1,.42,2.31c0,.33,0,.66.06,1a.12.12,0,0,1-.17,0,20.78,20.78,0,0,0-5.59-2.49c-2.08-.65-4.22-1.09-6.32-1.65a31.69,31.69,0,0,1-8.8-3.65c-.35-.22-.68-.47-1-.7a.37.37,0,0,1-.17-.51c.22-.64.44-1.27.6-1.92a24.27,24.27,0,0,1,.92-2.89,3.16,3.16,0,0,0-.26-3,4,4,0,0,1-.51-1.39,5.39,5.39,0,0,0-.78-2,2.68,2.68,0,0,0-.41-.53,2.12,2.12,0,0,1-.78-1.08h0c.13-.14,0-.29,0-.44a.15.15,0,0,0,0-.19c-.1-.16,0-.39-.19-.53h0c.13-.23,0-.45,0-.68h0a4.77,4.77,0,0,1-.08-1,2,2,0,0,0,0-1.15V55.05Z"/><path class="cls-2" d="M85.64,92.07a29.71,29.71,0,0,0-4.26-4.28,11.14,11.14,0,0,1-.59,3.4,10.24,10.24,0,0,0,.32,5.35,11.55,11.55,0,0,0,1.92,3.9,2.14,2.14,0,0,1,.13.19c0,.15-.16.11-.25.11-.46,0-.92,0-1.39,0-.21,0-.32-.07-.36-.28-.1-.44-.21-.88-.31-1.31a13.32,13.32,0,0,0-.76-2.23,1.69,1.69,0,0,0-.24-.41.41.41,0,0,0-.71.09.57.57,0,0,0,0,.59,6.25,6.25,0,0,1,.63,1.65,16.57,16.57,0,0,1,.43,1.82.58.58,0,0,1-.42.07H72.86c-.1,0-.19,0-.19-.15a.19.19,0,0,1,.19-.23l.71-.11a11.12,11.12,0,0,0,2.05-.49,6.29,6.29,0,0,0,1.17-.56,3,3,0,0,0,1.45-2.61c0-.62,0-1.24,0-1.87V80.06a1.67,1.67,0,0,1,0-.55c.16-.06.27,0,.39.07,1.3.53,2.6,1.09,3.88,1.67a.74.74,0,0,1,.47.6c.07.46.16.92.23,1.37a6,6,0,0,0,.42,1.58,8.28,8.28,0,0,1,.73,2.67,2.75,2.75,0,0,0,.57,1.4,2.68,2.68,0,0,1,.77,2.38v.8Z"/><path class="cls-2" d="M49.22,84.54a5.65,5.65,0,0,1,.91-.25,17.53,17.53,0,0,0,5.6-2.46c.32-.21.33-.21.51.14q2,4,4,8.07a3,3,0,0,0,.42.72l.61-1.43c.27-.62.27-.62.9-.41l.77.25-1.75,4.15A.68.68,0,0,1,61,93a6,6,0,0,0-1-1.6c-1.1-1.3-2.42-2.37-3.61-3.54-.12,0-.14.08-.14.15A6.15,6.15,0,0,1,56,90.16a11.25,11.25,0,0,0,.72,8.14,8.49,8.49,0,0,0,1.18,2A.54.54,0,0,1,58,101c-.08.14-.13.29-.24.54C54.86,95.84,52,90.2,49.22,84.54Z"/><path class="cls-2" d="M81.34,55.34c-.08-.19,0-.3.14-.43s.38-.56.59-.82a9.16,9.16,0,0,0,1.58-3.78,6.06,6.06,0,0,0,.1-.76A.23.23,0,0,1,84,49.3l6.1,0s0,0,0,.06a.61.61,0,0,1-.54.59,7.34,7.34,0,0,0-2.09.69,3.07,3.07,0,0,0-1.74,2.17,4.81,4.81,0,0,0,0,1.2.65.65,0,0,1-.27.57c-.38.3-.73.62-1.1.93a2.88,2.88,0,0,0-1.13,2.38A4.68,4.68,0,0,1,83,59.65a5.25,5.25,0,0,0-.3,2.22,2.93,2.93,0,0,0,.18.84,1.52,1.52,0,0,1,.13.69h0c-.13,0-.14.17-.17.27A18,18,0,0,1,80.68,68c-.16.24-.29.49-.45.77a4.07,4.07,0,0,1-.17-.93A10.22,10.22,0,0,0,79.6,66a19.44,19.44,0,0,1-.76-3.36,4.18,4.18,0,0,1,.49-2.83c.64-1.2,1.24-2.42,1.88-3.61l0-.14,0-.14A.48.48,0,0,0,81.34,55.34Z"/><path class="cls-2" d="M85.72,62.75V81.82c-.15.08-.25,0-.35-.09-.35-.19-.69-.41-1.05-.58a.91.91,0,0,1-.51-.65c-.16-.52-.3-1-.42-1.58a.36.36,0,0,1,0-.14,2,2,0,0,0-.4-1.34,7.16,7.16,0,0,1-.56-1.88A10.27,10.27,0,0,0,81.08,72a2.48,2.48,0,0,1-.15-2.43,5.6,5.6,0,0,1,.33-.7l2.59-4.44a2.43,2.43,0,0,1,.88-.92A10.12,10.12,0,0,0,85.72,62.75Z"/><path class="cls-2" d="M129.62,84a.33.33,0,0,1,.09-.31c.15-.2.3-.42.46-.61a9.35,9.35,0,0,0,1.72-3.61c0-.07,0-.14.07-.22s.21.17.27.27a11.83,11.83,0,0,1,1.57,3.33.53.53,0,0,1-.21.65c-.4.3-.77.63-1.14,1a2.63,2.63,0,0,0-.91,2,6.93,6.93,0,0,1-.37,2.06,4.26,4.26,0,0,0,0,3.18c0,.13-.06.26.06.36h0c-.14.06-.23.14-.09.3h0c-.16,0-.18.07-.1.2h0c-.13,0-.13.1-.1.2h0a.6.6,0,0,0-.2.59h0c-.13.06-.24.14-.09.3h0c-.15-.06-.15.07-.18.14a24.62,24.62,0,0,1-2,3.61h-.07a2.52,2.52,0,0,1-.09-.67l-.07-.11c.05-.15,0-.29,0-.43h0l-.1-.48h0a3.53,3.53,0,0,1-.05-2.36,12.19,12.19,0,0,0,.21-5.57.89.89,0,0,1,.11-.64c.38-.72.74-1.45,1.1-2.18.06-.12.17-.25.07-.4h0c.16-.1.08-.26.1-.39Z"/><path class="cls-2" d="M34.83,97.12c.05.37.08.73.15,1.09a5.18,5.18,0,0,1-.21,2.41h0c-.08.13-.21.12-.34.12H30c-.11,0-.27.06-.29-.15s.11-.22.27-.25c.36,0,.72-.11,1.08-.19A4.2,4.2,0,0,0,33.84,98a9.62,9.62,0,0,0,.95-2.81,31.2,31.2,0,0,0,.46-5.79c0-2.88,0-5.76,0-8.64v-.52c.17-.06.22.08.28.15.32.34.63.69.93,1s.24.27,0,.53-.5.59-.75.88a1.39,1.39,0,0,0-.22.37c-.12.29-.1.32.2.39,1,.2,1,.2,1,1.2,0,2,0,4,.09,6a21.6,21.6,0,0,0,1,5.52,8.61,8.61,0,0,0,1,2,4.75,4.75,0,0,0,3.14,2,2.74,2.74,0,0,1,.28,0c.12,0,.12.13.12.23s-.08.13-.17.13H40.07a.29.29,0,0,1-.27-.17,8.15,8.15,0,0,0-3.71-3.08A7.17,7.17,0,0,0,34.94,97C34.81,97,34.79,97,34.83,97.12Z"/><path class="cls-2" d="M91.61,72.92a3.51,3.51,0,1,1-3.43,3.53A3.48,3.48,0,0,1,91.61,72.92Z"/><path class="cls-2" d="M40.62,53.29a1,1,0,0,1,.59-.86c.13-.06.2-.06.27.07.33.66.65,1.32,1,2a.26.26,0,0,1,0,.31,3.85,3.85,0,0,0-.91,1.56,3.09,3.09,0,0,1-.56.94,5.39,5.39,0,0,0-1.3,2.64.67.67,0,0,0,0,.28,1.23,1.23,0,0,1-.45,1.1,9.15,9.15,0,0,1-1.05,1.11l-1.29-2.57c-.17.07-.11.2-.11.3,0,1,0,1.92,0,2.88s.13.65-.59,1.22c-.26.21-.53.41-.85.65a4.17,4.17,0,0,1,0-1,16.06,16.06,0,0,0,.19-2.49,18.36,18.36,0,0,1,.37-2.22,4.6,4.6,0,0,1,1.83-3.1c1-.83,1.91-1.76,2.86-2.64Z"/><path class="cls-2" d="M41.53,68.8a5.36,5.36,0,0,0,1.88.82,18.15,18.15,0,0,0,3.58.63,9.48,9.48,0,0,0,2.06-.14c.31,0,.63-.07,1-.13s.28.09.36.24c.36.73.72,1.46,1.09,2.19.11.2.07.28-.15.33a25.82,25.82,0,0,0-3.94,1.17c-.87.32-1.72.69-2.56,1.08-.22.1-.33.1-.45-.14-1-1.95-1.94-3.89-2.92-5.84,0,0,0-.06,0-.09Z"/><path class="cls-2" d="M97.94,68a13.6,13.6,0,0,1-1.08-7.09A12.05,12.05,0,0,1,100,53.78a1.11,1.11,0,0,1,.25.69,6.74,6.74,0,0,1,.08,1.19c-.06,1.4,0,2.79,0,4.19v.09a4.36,4.36,0,0,1-.37,1.9A37,37,0,0,0,98.25,67,3.49,3.49,0,0,1,97.94,68Z"/><path class="cls-2" d="M107.79,97.93c-.63-.14-1.27-.19-1.89-.33a.62.62,0,0,1-.53-.47,1.55,1.55,0,0,0-.34-.63c-.42-.5-.76-1.07-1.18-1.58a9.87,9.87,0,0,0-3.62-2.71c-.74-.34-1.45-.76-2.16-1.15-.15-.08-.29-.14-.15-.36l2.72-4.34a9.06,9.06,0,0,1,.94.91c.1.1.06.25.07.37a13.11,13.11,0,0,0,1.71,5.41,13.75,13.75,0,0,0,4.2,4.42l.59.39c-.13.12-.26,0-.36.06Z"/><path class="cls-2" d="M36,52.5c-.15.93-.14,1.88-.27,2.82a11.47,11.47,0,0,1-.42,1.78,13.28,13.28,0,0,0-1.78-3.4,12.77,12.77,0,0,0-1.51-1.92,1.61,1.61,0,0,1-.36-.62c-.15-.47-.34-.93-.51-1.4a.8.8,0,0,1-.1-.41.72.72,0,0,1,.41-.05h5.14c.3,0,.32,0,.24.31s-.26.86-.4,1.28c-.07.25-.15.49-.23.73v.11l0,.24a.13.13,0,0,0,0,.14l-.1.39Z"/><path class="cls-2" d="M36.6,80.43,35.33,79c-.12-.15-.07-.34-.07-.51V70.09c0-1.14,0-2.27,0-3.41a.82.82,0,0,1,.28-.68c.2-.18.39-.38.6-.55s.15-.23.3-.09.35.12.29.37a1,1,0,0,0,0,.24v14.4Z"/><path class="cls-2" d="M114.12,101.7c-.12.12-.27.08-.41.08a30,30,0,0,1-13.17-3.2,1.55,1.55,0,0,1-.5-.31s.07-.07.1-.08a17.89,17.89,0,0,1,3.34-.37,1.06,1.06,0,0,1,.6.11,13.23,13.23,0,0,0,4.61,1.7,15.51,15.51,0,0,1,4.19,1.49,2.59,2.59,0,0,0,.71.29.28.28,0,0,0,.26.1h0a.46.46,0,0,0,.29.2Z"/><path class="cls-2" d="M82.47,80.08l-1.36-.78c-.84-.5-1.72-.93-2.52-1.49a.69.69,0,0,1-.35-.67c0-1.34,0-2.69,0-4,0-.14,0-.28,0-.47a1.44,1.44,0,0,1,.43.36c.53.53,1.12,1,1.69,1.5a2.41,2.41,0,0,0,.68.44.94.94,0,0,1,.5.55,4.61,4.61,0,0,1,.22.83c.19.87.37,1.75.55,2.63A7,7,0,0,1,82.47,80.08Z"/><path class="cls-2" d="M126.7,50.47A5.38,5.38,0,0,1,124.89,52a1.14,1.14,0,0,1-.83.09,7,7,0,0,1-1.77-.73,18.81,18.81,0,0,1-1.67-1.13,12.79,12.79,0,0,0-2.92-1.66c-.11,0-.26,0-.32-.23A26.34,26.34,0,0,1,126.7,50.47Z"/><path class="cls-2" d="M62.82,85.81c.56-1.55,1.28-3,1.91-4.55.94-2.27,1.91-4.54,2.87-6.81.05-.12.11-.23.16-.35s.15-.18.3-.15a4.66,4.66,0,0,1,.82.28c.36.15.36.16.21.52-.49,1.16-1,2.33-1.48,3.49l-.15.36A5.84,5.84,0,0,1,66,80.92a10.22,10.22,0,0,0-1.91,2.8c-.09.17-.12.38-.32.47,0,0,0,0-.05.07-.16.35-.31.7-.48,1a2.91,2.91,0,0,0-.23.55Z"/><path class="cls-2" d="M78.39,59.47a2.54,2.54,0,0,1-.14-1c0-1.48,0-3,0-4.42a.78.78,0,0,0-.08-.53c-.28.2-.25.58-.52.86,0-.46-.09-.86-.13-1.26s-.07-.93-.13-1.39a1.09,1.09,0,0,1,.1-.64c.18-.41.35-.82.52-1.23.13,0,.13.12.14.19A11.78,11.78,0,0,0,79.88,55,1.2,1.2,0,0,1,80,56.16a35.8,35.8,0,0,1-1.53,3.26S78.42,59.45,78.39,59.47Z"/><path class="cls-2" d="M129.05,54.76l-.13-.14c.08-.13.21-.09.31-.1a2.75,2.75,0,0,0,2-1c.26-.28.25-.25.53,0,.5.4,1,.83,1.45,1.26a.26.26,0,0,1,.05.4c-.72,1.14-1.43,2.28-2.15,3.41-.05.08-.09.18-.22.15h0a3.36,3.36,0,0,0-.38-1.49h0a.2.2,0,0,0-.1-.29h0A3.76,3.76,0,0,0,129,54.8S129.06,54.77,129.05,54.76Z"/><path class="cls-2" d="M36.53,55.74c.13-.69.27-1.37.39-2.06.25-1.34.58-2.65.95-4,.12-.42.12-.42.55-.42.25,0,.57-.1.75.05s.06.48.08.73a18,18,0,0,0,.31,2.19.76.76,0,0,1-.14.67c-.19.22-.35.46-.55.66-.69.68-1.38,1.34-2.07,2A.29.29,0,0,1,36.53,55.74Z"/><path class="cls-2" d="M76.48,53.47a2.22,2.22,0,0,1,.11.7c.06.72.09,1.44.15,2.16a1.36,1.36,0,0,1-.08.56c-.65,1.51-1.29,3-1.93,4.54a.72.72,0,0,1-.2.31A10.51,10.51,0,0,0,74,59.69a.4.4,0,0,1,0-.32C74.81,57.43,75.63,55.49,76.48,53.47Z"/><path class="cls-2" d="M118,50.55a25.24,25.24,0,0,0-2.68-.72,16.3,16.3,0,0,0-5.26-.14,1.52,1.52,0,0,1-1.09-.23l-.24-.11c-.09-.05-.21-.07-.27-.21a.55.55,0,0,1,.32-.14,31.81,31.81,0,0,1,4.85-.68,2.18,2.18,0,0,1,1.33.32c1,.63,2.1,1.22,3.17,1.81Z"/><path class="cls-2" d="M80.73,73.65,80.05,73l-1.58-1.48a.56.56,0,0,1-.23-.45q0-3.27,0-6.54c0-.06,0-.12,0-.27a8.71,8.71,0,0,1,.33,1.91A14.48,14.48,0,0,0,80,71.43c.24.53.43,1.07.64,1.61A1.74,1.74,0,0,1,80.73,73.65Z"/><path class="cls-2" d="M46.18,61.89a24.53,24.53,0,0,0-3.89.39,14.9,14.9,0,0,0-3.6,1.24.23.23,0,0,1,.1-.26l1.49-1.21a1,1,0,0,1,.42-.23,18.07,18.07,0,0,0,2.78-.91q.78-.3,1.56-.63c.2-.09.31-.07.41.14C45.67,60.89,45.9,61.34,46.18,61.89Z"/><path class="cls-2" d="M104.9,52.24a8.11,8.11,0,0,0-1.65,2.93c-.22-.1-.31-.29-.43-.43a11.86,11.86,0,0,0-1.72-1.6c-.19-.14-.22-.25,0-.4.37-.28.73-.57,1.09-.86a.51.51,0,0,1,.41-.09c.73.17,1.48.26,2.22.37C104.83,52.17,104.85,52.2,104.9,52.24Z"/><path class="cls-2" d="M126.74,60.72a9.34,9.34,0,0,0,2.44.9L127,65.14A23.69,23.69,0,0,0,126.74,60.72Z"/><path class="cls-2" d="M71,69.68a1,1,0,0,1-.08.68c-.35.77-.67,1.55-1,2.33a11.54,11.54,0,0,1-1-1.12.36.36,0,0,1,0-.32l1-2.34c.12-.26.2-.28.4,0s.25.33.38.5a.06.06,0,0,0,.07,0c0,.13.08.26.24.29Z"/><path class="cls-2" d="M89,100a3.59,3.59,0,0,1-.51.65.37.37,0,0,1-.34.14H85.42a.86.86,0,0,1-.15,0,12.91,12.91,0,0,0,1-2.36A5.09,5.09,0,0,0,89,100Z"/><path class="cls-2" d="M124.71,98.52a9.13,9.13,0,0,0,2.17-2.35,2,2,0,0,1,.16.7,11.45,11.45,0,0,0,.38,1.39c0,.16,0,.27-.12.35l-1.34.75a.26.26,0,0,1-.35,0Z"/><path class="cls-3" d="M118,50.55l.13-.1c.5.2,1,.49,1.45.73.13.06.26.21.43.1,0-.23-.26-.26-.43-.34-1.11-.53-2.2-1.12-3.27-1.73A1.09,1.09,0,0,1,116,49a1,1,0,0,1,.4.12,26.22,26.22,0,0,1,3.45,1.79c.21.13.51.2.46.56,0,.08.09.12.16.16a2.81,2.81,0,0,0,.56.26,3.78,3.78,0,0,1,1.67,1,3.47,3.47,0,0,0,1.54.86c.24.06.32.18.27.41a3.28,3.28,0,0,1-.19.93c-.14,0-.19-.14-.26-.22a13.83,13.83,0,0,0-5.7-4.11A.71.71,0,0,1,118,50.55Z"/><path class="cls-3" d="M134.06,114.5l1.26,1.53c-.5.17-.5.17-.74-.17s-.48-.68-.72-1l-.17-.24a.3.3,0,0,0-.31-.09c-.15,0-.13.17-.13.28,0,.33,0,.67,0,1a.31.31,0,0,1-.07.26.27.27,0,0,1-.43-.18c0-1,0-1.92,0-2.88,0-.19.08-.26.26-.25h1a1.26,1.26,0,0,1,.28,0,.84.84,0,0,1,.7.71c0,.36-.16.64-.59.83Zm-.82-.86v.14c0,.59.09.66.67.52H134a.57.57,0,0,0,.47-.48.71.71,0,0,0-.24-.73.81.81,0,0,0-.78-.08c-.26.08-.14.32-.17.49Z"/><path class="cls-3" d="M106.22,114.54l1.21,1.49c-.5.17-.5.17-.74-.17s-.48-.69-.72-1l-.18-.24a.26.26,0,0,0-.3-.08c-.15,0-.13.16-.13.27,0,.35,0,.7,0,1s-.12.27-.31.26-.19-.13-.19-.27v-1c0-.55,0-1.09,0-1.64,0-.38,0-.39.41-.39q.36,0,.72,0a2.83,2.83,0,0,1,.42.06.84.84,0,0,1,.7.71c0,.36-.16.63-.59.84C106.42,114.4,106.32,114.39,106.22,114.54Zm-.87-.87v.14c0,.56.07.61.61.5l.14,0a.62.62,0,0,0,.44-.79.66.66,0,0,0-.82-.53c-.36,0-.37.05-.37.61Z"/><path class="cls-3" d="M66.38,114.4v-1.35c0-.23.08-.31.31-.31a5,5,0,0,1,1.33.11,1.63,1.63,0,0,1,1.26,1.52A1.51,1.51,0,0,1,68.21,116a5.56,5.56,0,0,1-1.63.11c-.21,0-.2-.17-.2-.31Zm2.36,0s0-.16,0-.27a1.34,1.34,0,0,0-1.5-1.16c-.22,0-.34.12-.34.37,0,.75,0,1.51,0,2.26,0,.25.12.32.35.33A1.36,1.36,0,0,0,68.74,114.39Z"/><path class="cls-3" d="M60.42,114.34a1.75,1.75,0,0,1-2.14,1.78,1.36,1.36,0,0,1-.93-.63,2,2,0,0,1,.08-2.1,1.73,1.73,0,0,1,1.83-.65A1.45,1.45,0,0,1,60.42,114.34Zm-2.77,0a2.16,2.16,0,0,0,.23,1.09,1,1,0,0,0,1.65.12,2.2,2.2,0,0,0,.09-2.23,1,1,0,0,0-1.45-.2A1.56,1.56,0,0,0,57.65,114.39Z"/><path class="cls-3" d="M77.18,116.15A1.41,1.41,0,0,1,75.71,115a1.78,1.78,0,0,1,2.16-2.22,1.37,1.37,0,0,1,.9.66A1.82,1.82,0,0,1,77.18,116.15Zm1.26-1.76a1.75,1.75,0,0,0-.09-.63,1,1,0,0,0-1.92-.21,2.14,2.14,0,0,0,0,1.85.92.92,0,0,0,.86.58.93.93,0,0,0,.91-.51A2,2,0,0,0,78.44,114.39Z"/><path class="cls-3" d="M91.78,116.15A1.41,1.41,0,0,1,90.34,115a1.78,1.78,0,0,1,2.16-2.25,1.34,1.34,0,0,1,.89.68A1.81,1.81,0,0,1,91.78,116.15Zm-1-1.64a1.93,1.93,0,0,0,.23,1,1,1,0,0,0,1.63.14,2.18,2.18,0,0,0,.1-2.27,1,1,0,0,0-1.45-.18A1.67,1.67,0,0,0,90.83,114.51Z"/><path class="cls-3" d="M125.48,114.31a1.74,1.74,0,0,1-2.11,1.81,1.21,1.21,0,0,1-.93-.61,1.94,1.94,0,0,1,0-2,1.67,1.67,0,0,1,1.64-.81A1.47,1.47,0,0,1,125.48,114.31Zm-.55,0a3.14,3.14,0,0,0-.05-.43,1.05,1.05,0,0,0-.94-.94,1.08,1.08,0,0,0-1.07.73,2.1,2.1,0,0,0,0,1.72.93.93,0,0,0,.9.6.94.94,0,0,0,.9-.53A2.18,2.18,0,0,0,124.93,114.3Z"/><path class="cls-3" d="M43.15,114.41c0-.45,0-.9,0-1.35,0-.22.06-.32.3-.31a5,5,0,0,1,1.34.09,1.68,1.68,0,0,1,1.25,2A1.45,1.45,0,0,1,45,116a5.59,5.59,0,0,1-1.58.1c-.21,0-.22-.14-.22-.3Zm.5,0v1.2c0,.14,0,.25.2.27a1.36,1.36,0,0,0,1.56-.83,1.82,1.82,0,0,0,0-1.22,1.3,1.3,0,0,0-1.5-.89c-.18,0-.28.12-.27.32C43.66,113.68,43.65,114.06,43.65,114.44Z"/><path class="cls-2" d="M124.85,99.8a.55.55,0,0,1-.35.22,21.53,21.53,0,0,1-3,1c-.4.1-.4.1-.44-.29-.06-.56-.06-.56.46-.7a9.07,9.07,0,0,0,2-.77.47.47,0,0,1,.53,0A6.07,6.07,0,0,1,124.85,99.8Z"/><path class="cls-3" d="M81,114.52l1.24,1.53c-.52.14-.52.14-.79-.23l-.69-1a2,2,0,0,0-.17-.23.29.29,0,0,0-.35-.09c-.11,0-.1.16-.1.25v1c0,.16,0,.32-.24.32s-.26-.11-.26-.3c0-.91,0-1.82,0-2.74,0-.21.06-.32.3-.31h1a1.06,1.06,0,0,1,.5.13.75.75,0,0,1,.49.66.78.78,0,0,1-.44.74C81.27,114.37,81.1,114.36,81,114.52Zm-.86-.84v.09c0,.6.1.68.7.53a1,1,0,0,0,.22-.09.65.65,0,0,0,.25-.83.7.7,0,0,0-.87-.42c-.3.06-.3.06-.3.57Z"/><path class="cls-3" d="M34.61,114.53l1.23,1.52c-.52.14-.52.14-.78-.23l-.69-1-.17-.24a.29.29,0,0,0-.35-.07c-.12,0-.1.15-.1.24,0,.35,0,.7,0,1.06,0,.16,0,.27-.23.27s-.26-.07-.26-.25V113c0-.18.06-.28.24-.27.37,0,.74,0,1.11,0a1.21,1.21,0,0,1,.41.12.72.72,0,0,1,.48.66.77.77,0,0,1-.43.74C34.92,114.37,34.74,114.36,34.61,114.53Zm-.87-.77c.08.14-.13.43.11.55a.91.91,0,0,0,.75-.07.63.63,0,0,0,.34-.79.69.69,0,0,0-.86-.49c-.33.05-.34.05-.34.59Z"/><path class="cls-3" d="M56,115.05c0-.66,0-1.27,0-1.87,0-.13-.11-.38.12-.38s.1.24.1.37v2.55c0,.12,0,.26-.07.37-.16-.06-.23-.22-.33-.34l-1.47-1.83a2.75,2.75,0,0,0-.22-.26c-.1-.08-.19,0-.21.07a1.94,1.94,0,0,0,0,.34v1.58a.59.59,0,0,1-.09.43c-.15-.07-.13-.17-.13-.26v-2.74c0-.12,0-.28.13-.32a.34.34,0,0,1,.38.15l1.4,1.77A1,1,0,0,0,56,115.05Z"/><path class="cls-3" d="M94.34,116.09a.26.26,0,0,1-.12-.29v-2.69c0-.12-.06-.28.1-.34s.3,0,.42.15l1.37,1.74a1.1,1.1,0,0,0,.42.41V114c0-.35,0-.7,0-1.06,0-.06,0-.13.09-.14s.11.06.12.12v3.17c-.19,0-.24-.13-.31-.21L94.94,114l-.15-.19c-.08-.07-.12-.21-.26-.15s-.08.16-.09.25a2.81,2.81,0,0,0,0,.29c0,.48,0,1,0,1.44A.66.66,0,0,1,94.34,116.09Z"/><path class="cls-3" d="M128.72,115.34c0,.74,0,.76-.78.8a2.76,2.76,0,0,1-1-.08,1.66,1.66,0,0,1-.77-2.71,2.12,2.12,0,0,1,2.2-.57c.11,0,.22.09.17.24s-.16.1-.27.07l-.23-.07a1.23,1.23,0,0,0-1.68.94,1.87,1.87,0,0,0,0,1.17A1.37,1.37,0,0,0,128,116c.19,0,.23-.14.23-.3s0-.51,0-.77.06-.24.22-.23.29,0,.28.25S128.72,115.2,128.72,115.34Z"/><path class="cls-3" d="M119,114.42c0-.4,0-.8,0-1.2,0-.18-.13-.45.23-.47s.25,0,.26.44V114c0,.21.09.29.28.29s.64,0,1,0,.29-.1.28-.3,0-.64,0-1,.09-.25.27-.24.22.08.22.23v2.88c0,.16-.05.24-.22.24s-.27,0-.27-.24c0-.37,0-.74,0-1.11s-.09-.31-.31-.3h-1c-.18,0-.26.08-.25.26v1.11c0,.16,0,.28-.23.28s-.27-.1-.27-.29c0-.47,0-.93,0-1.39Z"/><path class="cls-2" d="M103.62,51a5.7,5.7,0,0,1,1.25-.7c.58-.28,1.18-.5,1.78-.72a.49.49,0,0,1,.6.13,7.26,7.26,0,0,0,.56.49,14.29,14.29,0,0,0-1.56.83.19.19,0,0,1-.13,0C105.29,51,104.46,51.12,103.62,51Z"/><path class="cls-3" d="M52.45,114.41a2.31,2.31,0,0,1-.74,0c-.23,0-.32.09-.31.31s0,.52,0,.77,0,.38.38.35l.95-.09c.08,0,.17,0,.19.09a.18.18,0,0,1-.14.22H51.2c-.2,0-.31-.06-.31-.27,0-.94,0-1.89,0-2.83,0-.19.09-.26.27-.26h1.48c.11,0,.24,0,.24.16s-.13.15-.24.14-.47-.09-.71-.1c-.46,0-.53,0-.53.5,0,.77,0,.77.78.8C52.28,114.25,52.42,114.2,52.45,114.41Z"/><path class="cls-3" d="M71.57,114.32c-.24.2-.47.11-.67.12-.45,0-.46,0-.46.46,0,.2,0,.41,0,.62,0,.38,0,.38.38.35l1-.09c.08,0,.17,0,.19.09a.19.19,0,0,1-.13.22H70.19c-.18,0-.25-.09-.25-.26V113c0-.19.08-.26.26-.26h1.53c.1,0,.2,0,.19.16s-.12.15-.24.14l-.42-.07a1.89,1.89,0,0,0-.53,0c-.18,0-.3.09-.29.3s0,.48,0,.72.11.26.3.27A2.19,2.19,0,0,1,71.57,114.32Z"/><path class="cls-3" d="M40.74,114.32c0,.17-.17.12-.27.12H40c-.36,0-.37,0-.38.39s0,.54,0,.81.08.26.27.23l1.05-.1c.1,0,.2,0,.2.13s-.06.19-.18.19H39.33c-.12,0-.16-.1-.16-.2s0-.25,0-.38v-2.4c0-.35,0-.36.35-.37s.89,0,1.34,0H41a.13.13,0,0,1,.1.18c0,.07,0,.12-.12.11a1.87,1.87,0,0,1-.34,0c-.14,0-.28-.06-.42-.07-.52,0-.6,0-.6.54,0,.87-.08.74.73.76C40.5,114.25,40.64,114.2,40.74,114.32Z"/><path class="cls-2" d="M84.33,82.05l1.23.67a.32.32,0,0,1,.18.31c0,1.06,0,2.11,0,3.16A12,12,0,0,1,84.33,82.05Z"/><path class="cls-3" d="M32.71,116c-.49.09-.49.09-.65-.27-.29-.65-.11-.59-.9-.59h0c-.56-.1-1,0-1.08.67a.45.45,0,0,1-.12.21.18.18,0,0,1-.13,0,.09.09,0,0,1-.05-.12,1.27,1.27,0,0,1,.06-.18l1.29-2.93s.06-.08.13-.18C31.77,113.8,32.23,114.92,32.71,116Zm-2.27-1.1a4.91,4.91,0,0,0,1.27,0,15.08,15.08,0,0,0-.65-1.52C30.83,114,30.61,114.42,30.44,114.94Z"/><path class="cls-3" d="M130.76,112.72,132.2,116c-.47.15-.49.15-.64-.22-.31-.71-.13-.57-1-.63-.55,0-.94.07-1.05.67a.53.53,0,0,1-.11.21.17.17,0,0,1-.12,0c-.09,0-.09-.09-.08-.15l.07-.18c.42-1,.84-1.9,1.25-2.85A.26.26,0,0,1,130.76,112.72Zm.44,2.22-.64-1.57-.65,1.57A4.64,4.64,0,0,0,131.2,114.94Z"/><path class="cls-3" d="M114.07,114.35a1.39,1.39,0,0,1-.7.1c-.37,0-.37,0-.38.37s0,.45,0,.67c0,.41,0,.41.4.37l.91-.08c.1,0,.2,0,.22.11a.18.18,0,0,1-.2.21h-1.58c-.2,0-.25-.1-.25-.27v-1.35c0-.46,0-.92,0-1.39,0-.23.05-.35.32-.35.49,0,1,0,1.49,0,.09,0,.19,0,.19.14s-.09.16-.19.16a3,3,0,0,1-.43-.06,1.83,1.83,0,0,0-.52,0c-.31,0-.35.08-.36.39s0,.41,0,.62.1.28.29.29A1.55,1.55,0,0,1,114.07,114.35Z"/><path class="cls-3" d="M109.25,112.7l1.46,3.31c-.47.15-.52.15-.64-.22a.74.74,0,0,0-.93-.62H109c-.78,0-.62-.1-.93.61,0,.12-.07.35-.25.28s0-.24,0-.35c.39-.91.79-1.81,1.19-2.72A.48.48,0,0,1,109.25,112.7Zm.43,2.24a11.37,11.37,0,0,0-.63-1.54l-.63,1.54A4.43,4.43,0,0,0,109.68,114.94Z"/><path class="cls-3" d="M84,112.72l1.44,3.3c-.49.13-.49.13-.65-.24,0,0,0-.11-.07-.17a.52.52,0,0,0-.67-.44.33.33,0,0,1-.14,0c-.59-.09-1,0-1.15.72a.67.67,0,0,1-.06.12c0,.06-.09.1-.16.07s-.08-.09-.06-.15a.67.67,0,0,1,.07-.18L83.8,113C83.84,112.86,83.85,112.76,84,112.72Zm.43,2.22a13.68,13.68,0,0,0-.63-1.5,10.06,10.06,0,0,0-.63,1.53A7.63,7.63,0,0,0,84.45,114.94Z"/><path class="cls-3" d="M104.33,116.05c-.52.07-.52.07-.68-.3-.29-.66-.16-.53-.86-.58s-1,0-1.16.71c0,.07-.08.13-.13.19s-.06,0-.09,0a.08.08,0,0,1-.07-.1.48.48,0,0,1,.06-.18c.42-1,.85-2,1.28-2.94a.24.24,0,0,1,.19-.15Zm-1-1.11a15.21,15.21,0,0,0-.66-1.52,15.56,15.56,0,0,0-.6,1.53A5.32,5.32,0,0,0,103.31,114.94Z"/><path class="cls-3" d="M48,115.82c.15-.06.27.05.4.08a1.32,1.32,0,0,0,.71,0,.6.6,0,0,0,.3-1,2.19,2.19,0,0,0-.59-.4,2.4,2.4,0,0,1-.59-.41.8.8,0,0,1,.36-1.34,1.89,1.89,0,0,1,1.13,0c.13,0,.2.11.14.25s-.15.08-.24,0a2.33,2.33,0,0,0-.69-.17c-.4,0-.6.24-.44.61A1.1,1.1,0,0,0,49,114c.24.15.5.29.73.46a.87.87,0,0,1-.25,1.62,2.3,2.3,0,0,1-1.32-.1A.13.13,0,0,1,48,115.82Z"/><path class="cls-3" d="M113.59,101.41a2.59,2.59,0,0,1-.71-.29c.06-.28-.17-.35-.35-.44a12.42,12.42,0,0,0-3.52-1.2,14.12,14.12,0,0,1-3.54-1,.59.59,0,0,1-.26-.17c.11,0,.2,0,.3,0l5.8,1.68a14.68,14.68,0,0,1,3.45,1.56.91.91,0,0,1,.16.11s0,0,0,.08c-.19.13-.34,0-.51-.08s-.25-.22-.32,0h0c.09,0,.12-.11.05-.16s-.21-.21-.34,0h0C113.81,101.3,113.74,101.28,113.59,101.41Z"/><path class="cls-3" d="M75.34,115.84c0,.13,0,.17-.15.2A2.82,2.82,0,0,1,73.4,116a1.7,1.7,0,0,1-.29-2.86,2.27,2.27,0,0,1,1.92-.34.58.58,0,0,1,.18.08c.08.05.06.14,0,.21s-.09.08-.16.06l-.36-.13a1.24,1.24,0,0,0-1.66,1,1.28,1.28,0,0,0-.06.33,1.44,1.44,0,0,0,1.94,1.61C75.07,115.89,75.19,115.75,75.34,115.84Z"/><path class="cls-3" d="M87.62,116.15a2.43,2.43,0,0,1-.85-.12,1.47,1.47,0,0,1-1.07-1.29,1.66,1.66,0,0,1,.67-1.65,2.2,2.2,0,0,1,1.88-.32.38.38,0,0,1,.17.08c.08.06.06.14,0,.22s-.1.07-.16.05a3.18,3.18,0,0,0-.6-.18,1.14,1.14,0,0,0-1.27.65,1.88,1.88,0,0,0,0,1.67,1.15,1.15,0,0,0,.88.67,1.9,1.9,0,0,0,1.08-.09c.07,0,.15-.11.19,0s0,.14-.13.17A3.09,3.09,0,0,1,87.62,116.15Z"/><path class="cls-3" d="M62,112.8c.5-.07.51-.07.68.28s.48,1,.73,1.49a3.19,3.19,0,0,0,.53-1c.34-.71.33-.72.56-.8,0,.09,0,.15,0,.22-.11.25-.22.5-.35.74a3.34,3.34,0,0,0-.52,2c0,.16,0,.34-.23.32s-.25,0-.26-.21a1.21,1.21,0,0,1,0-.19,2.43,2.43,0,0,0-.43-1.67C62.4,113.64,62.2,113.22,62,112.8Z"/><path class="cls-2" d="M117.42,100.52a.6.6,0,0,1,.4-.07,13.78,13.78,0,0,0,1.82-.1c.23,0,.34,0,.38.28.12.76.16.64-.55.77-.33.06-.66.09-1,.15a.38.38,0,0,1-.41-.16c-.19-.25-.38-.48-.57-.72A.68.68,0,0,1,117.42,100.52Z"/><path class="cls-3" d="M37.11,114.52c0-.41,0-.83,0-1.24s-.07-.34-.35-.31a3.89,3.89,0,0,0-.47.09c-.11,0-.19,0-.2-.14s.06-.17.17-.17h2.21c.12,0,.17,0,.17.17s-.07.16-.18.14l-.33-.06c-.45-.09-.52,0-.52.41,0,.68,0,1.37,0,2.06v.34c0,.18,0,.31-.27.3s-.23-.13-.23-.29v-1.3Z"/><path class="cls-3" d="M115.84,114.28c0,.4,0,.8,0,1.2s.09.43.43.42a5.77,5.77,0,0,0,.71-.1c.09,0,.2,0,.22.09a.18.18,0,0,1-.2.21h-1.44c-.21,0-.23-.13-.23-.29v-1.68c0-.36,0-.73,0-1.1,0-.21.08-.28.28-.28s.23.13.23.29c0,.41,0,.83,0,1.24Z"/><path class="cls-3" d="M130.4,96.14a.42.42,0,0,1,.09-.32c.58-1,1.16-1.95,1.73-2.93a1.39,1.39,0,0,1,.8-.64,13.73,13.73,0,0,1-2.63,3.9Z"/><path class="cls-3" d="M130.87,58.75h0s0,0,0,0c-.33-.14-.33-.14-.47-.49s-.35-.89-.55-1.33A6.1,6.1,0,0,0,128,54.4c.29,0,.47.16.68.3s.24.25.4.06c0,0,0,0,0,0s-.14.06-.1.11a7.72,7.72,0,0,1,1.38,2.1l.07,0h0c-.15.15-.09.25.1.29h0l0,0a6.4,6.4,0,0,0,.28,1.5C130.74,58.84,130.83,58.81,130.87,58.75Z"/><path class="cls-3" d="M116.9,101.5c-.26-.2-.13.16-.26.18a9.29,9.29,0,0,1-2.07-1.42,1.85,1.85,0,0,1,1.22.25c.64,0,.75.57,1.09.9,0,0,0,.06,0,.1Zm-.32-.34s-.08-.14-.17-.07,0,.12,0,.17.08.15.17.08S116.62,101.22,116.58,101.16Zm-.55-.56s0,0,0,0,0,.11.08.14,0,0,.06,0S116.1,100.63,116,100.6Z"/><path class="cls-2" d="M89.62,114.48v1.34c0,.13,0,.26-.18.27s-.26-.07-.26-.24V113c0-.16.07-.23.24-.23s.2.11.2.25v1.48Z"/><path class="cls-3" d="M47.18,114.44v1.39c0,.17,0,.28-.24.27s-.22,0-.23-.19V113c0-.12,0-.27.17-.29s.3,0,.3.26v1.43Z"/><path class="cls-2" d="M99.41,114.66c0,.4,0,.8,0,1.2,0,.15,0,.23-.22.24s-.26-.07-.26-.25V113c0-.17.08-.23.23-.22h.53v.17a.31.31,0,0,0-.28.36c0,.39,0,.77,0,1.16Z"/><path class="cls-3" d="M81.81,80.69l-.69-.28-2.46-1c-.44-.19-.44-.19-.37-.76C79.51,79.25,80.67,79.94,81.81,80.69Z"/><path class="cls-3" d="M85.72,89.49a4.36,4.36,0,0,1-1.21-2.43,6.68,6.68,0,0,0-.23-1.35A29.7,29.7,0,0,1,85.72,89.49Z"/><path class="cls-3" d="M99.41,114.66l0-.2a4.69,4.69,0,0,0,.53,0,.75.75,0,0,0,.69-.82.67.67,0,0,0-.75-.68h-.2v-.17a1.68,1.68,0,0,1,.94.1.77.77,0,0,1,.53.72.84.84,0,0,1-.46.83,1.59,1.59,0,0,1-.74.18A1.08,1.08,0,0,0,99.41,114.66Z"/><path class="cls-3" d="M41.43,68.61c0-.23-.17-.28-.27-.4a2.32,2.32,0,0,1-.64-1.15,24.37,24.37,0,0,0,2.32,2.16,2.29,2.29,0,0,1-1.07-.46c-.11-.08-.18-.25-.36-.16Z"/><path class="cls-3" d="M103.55,95c-.88-.8-1.83-1.5-2.84-2.25a.61.61,0,0,1,.4.13,10.19,10.19,0,0,1,2.12,1.64c.12.14.3.25.3.47Z"/><path class="cls-3" d="M101.54,60.58h0c-.2,0,0,.24-.17.29s-.3-.19-.3-.41V59a.54.54,0,0,1,.11-.4.19.19,0,0,0,0-.22.11.11,0,0,0-.14-.08.15.15,0,0,0-.11.06.18.18,0,0,0,.07.25c.09.06.12.31.3.11h0c-.09,0-.18,0-.18.08a.6.6,0,0,0,.18.6h0a.52.52,0,0,0,.05.63c.06.1.1,0,.14-.1a.15.15,0,0,1,0,.19c-.07,0-.16-.06-.17,0S101.37,60.5,101.54,60.58Z"/><path class="cls-3" d="M36,52.5h0c.24.12.21-.1.24-.2s0-.22-.14-.19a.13.13,0,0,1,0-.14s0,.1.07.09.14-.15.14-.25-.08-.11-.16-.08v-.11c0,.07,0,.19.14.11s.12-.19.24-.37l-.41,2c0,.15-.16.23-.21.36a.12.12,0,0,0,0,.17h.09c.08,0,.12-.07.1-.13a2.29,2.29,0,0,1,0-1.19C36.22,52.52,36.15,52.45,36,52.5Z"/><path class="cls-3" d="M55.87,111.82c-.24.49-.39.58-.77.44s-.48-.17-.74.09c.15-.45.34-.58.66-.47A.78.78,0,0,0,55.87,111.82Z"/><path class="cls-3" d="M131.24,92.06c-.07.13,0,.1.11.14a.34.34,0,0,1,.11.49c-.24.38-.46.77-.69,1.15-.14-.06,0-.19-.1-.23h0c.12-.07.21-.15.09-.3h0c.25-.23.28-.33.2-.59h0c.17,0,.19-.07.1-.2h0c.16,0,.15-.09.1-.2h0c.12-.07.22-.15.09-.3Z"/><path class="cls-3" d="M128.22,96.59l.07.11c-.06,0-.14,0-.17,0a.64.64,0,0,0,0,.41,8.73,8.73,0,0,1-.4-2c.06.16.12.35.2.53s.14.11.2,0h0c-.21-.06-.2.1-.16.21s0,.38.26.27h0s-.08,0-.09,0a.38.38,0,0,0,.07.54C128.22,96.72,128.2,96.62,128.22,96.59Z"/><path class="cls-3" d="M41.88,116.69l.1-.16c.13-.18.21-.36,0-.51a.16.16,0,0,1,0-.25.42.42,0,0,1,.42-.17c.06,0,.07.09.08.16A.75.75,0,0,1,41.88,116.69Z"/><path class="cls-3" d="M107.79,97.93h0c-.11.14,0,.21.09.23s.44,0,.66.07a1.57,1.57,0,0,1,1,.51.21.21,0,0,0,.1.09.11.11,0,0,0,.14-.09c0-.07,0-.14-.09-.13a2.72,2.72,0,0,1-1.29-.24c-.23,0-.48-.08-.52-.4Z"/><path class="cls-3" d="M83,63.4c.4.24.42.3.17.73a3.71,3.71,0,0,1-.65.93c.16-.44.33-.88.48-1.33,0-.1.16-.22,0-.32Z"/><path class="cls-3" d="M79.89,68.37a10.91,10.91,0,0,1-.43-1.91c0-.12.08-.21.08-.32a.13.13,0,0,0-.09-.15.18.18,0,0,0-.17,0,.1.1,0,0,0,0,.16c.47.44.44,1.06.59,1.62A2.32,2.32,0,0,1,79.89,68.37Z"/><path class="cls-3" d="M122.84,51.83a7.05,7.05,0,0,0,1.54.56.51.51,0,0,1-.73.09c-.19-.12-.4-.2-.59-.32s-.26-.15-.21-.33Z"/><path class="cls-3" d="M102.08,55.8c-.15-.18-.4-.3-.36-.6,0-.1,0-.16-.1-.15h0a1,1,0,0,1,.54.32c.24.29.5.56.74.87-.18-.05-.27-.2-.4-.31S102.27,55.69,102.08,55.8Z"/><path class="cls-3" d="M83.42,80.06a12.56,12.56,0,0,1-.51-2c.24.08.26.24.28.43A12.58,12.58,0,0,0,83.42,80.06Z"/><path class="cls-3" d="M108.77,49.35l.24.11c-.16.13.08.24,0,.39a3.23,3.23,0,0,1-.91-.53C108.36,49.31,108.55,49.64,108.77,49.35Z"/><path class="cls-3" d="M62.82,85.81l.2,0a6.48,6.48,0,0,1-.78,1.41A8.28,8.28,0,0,1,62.82,85.81Z"/><path class="cls-3" d="M91.65,112.38l.66-.73c.1-.11.19-.08.28,0s0,.17,0,.23l-.83.59Z"/><path class="cls-3" d="M84.37,83.37a5.82,5.82,0,0,1-.45-1.47A4.73,4.73,0,0,1,84.37,83.37Z"/><path class="cls-3" d="M38.76,62.1l.82-1c.14.19.17.35,0,.48a3.12,3.12,0,0,1-.75.56Z"/><path class="cls-3" d="M85.15,85.7a3.84,3.84,0,0,1,.56,1.39A5.62,5.62,0,0,1,85.15,85.7Z"/><path class="cls-3" d="M68.28,72.87c.31,0,.31,0,.24-.34l.38.42C68.71,72.78,68.43,73.33,68.28,72.87Z"/><path class="cls-3" d="M81.34,55.34a.48.48,0,0,1,0,.58s0-.1-.08-.09-.11.11-.11.17.08.09.15.06l0,.14c0-.08,0-.2,0-.21s-.18-.17-.17-.31.06-.26.25-.23C81.28,55.45,81.31,55.37,81.34,55.34Z"/><path class="cls-3" d="M83.52,83.57c.22.2.23.5.33.76s.16.51.23.77a5.09,5.09,0,0,1-.56-1.54Z"/><path class="cls-3" d="M40.62,53.29l-.09.15c-.29-.15-.29-.15-.08-.49C40.6,53,40.45,53.24,40.62,53.29Z"/><path class="cls-3" d="M70.8,69.38a.06.06,0,0,1-.07,0c.18,0,.09-.21.21-.26a.82.82,0,0,1,.28.38c0,.15-.31-.06-.18.2h0c.13-.1,0-.19,0-.27S70.88,69.25,70.8,69.38Z"/><path class="cls-3" d="M101.27,56.59a2,2,0,0,1,0,1.15A4.43,4.43,0,0,1,101.27,56.59Z"/><path class="cls-3" d="M129.62,84v.13c-.2.09-.21.23-.1.39h0c-.16-.1-.1.17-.22.14C129.2,84.34,129.39,84.17,129.62,84Z"/><path class="cls-3" d="M34.78,100.62h0c0,.07.09.11.14.06a1.68,1.68,0,0,0,.14-.3c0,.21,0,.22-.17.16a0,0,0,0,0-.05,0A.56.56,0,0,0,34.78,100.62Z"/><path class="cls-3" d="M104.71,51.85a.75.75,0,0,1,.49,0C105,52,104.88,52,104.71,51.85Z"/><path class="cls-3" d="M77,55.57,77,56C76.86,55.87,76.92,55.72,77,55.57Z"/><path class="cls-3" d="M38.84,62.17a.53.53,0,0,1-.35.29.73.73,0,0,1,.27-.36Z"/><path class="cls-3" d="M41.53,68.8l-.12.12c0-.11-.32-.22,0-.31h0Z"/><path class="cls-3" d="M101.42,55l-.14,0s0-.14,0-.16S101.4,54.93,101.42,55Z"/><path class="cls-3" d="M128.38,97.37h.07s0,.1-.06.08S128.39,97.39,128.38,97.37Z"/><path class="cls-3" d="M83.52,83.56v0Z"/><path class="cls-3" d="M122.85,51.83h0Z"/><path class="cls-3" d="M116.89,101.51a.1.1,0,0,0,.1.12h0l-.1-.14Z"/><path class="cls-3" d="M117,101.63h0s0,0,0,0Z"/><path class="cls-3" d="M103.53,95h0s0,0,0,0Z"/><path class="cls-3" d="M130.39,96.15v0s0,0,0,0Z"/><path class="cls-3" d="M63.73,84.26s0-.06.05-.07Z"/><path class="cls-1" d="M101.54,60c0,.06-.08.2-.14.1a.52.52,0,0,1-.05-.63C101.52,59.56,101.44,59.79,101.54,60Z"/><path class="cls-1" d="M101.35,59.43a.6.6,0,0,1-.18-.6c0-.09.09-.12.18-.08C101.31,59,101.48,59.2,101.35,59.43Z"/><path class="cls-1" d="M101.54,60.58c-.17-.08-.17-.25-.15-.4s.1-.09.17,0S101.67,60.44,101.54,60.58Z"/><path class="cls-1" d="M101.62,55.05c.12,0,.14.05.1.15S101.55,55.17,101.62,55.05Z"/><path class="cls-1" d="M81.25,56.06c-.07,0-.14,0-.15-.06s0-.15.11-.17.06.05.08.09Z"/><path class="cls-1" d="M131,92.74c.08.26,0,.36-.2.59A.6.6,0,0,1,131,92.74Z"/><path class="cls-1" d="M128.18,96.16c-.29.11-.22-.16-.26-.27s0-.27.16-.21Z"/><path class="cls-1" d="M128.22,96.59s0,.13-.06.09a.38.38,0,0,1-.07-.54s.06,0,.09,0S128.27,96.44,128.22,96.59Z"/><path class="cls-1" d="M131.24,92.07c.13.15,0,.23-.09.3C131,92.21,131.1,92.13,131.24,92.07Z"/><path class="cls-1" d="M129.52,84.53c-.11-.16-.1-.3.1-.39C129.6,84.27,129.68,84.43,129.52,84.53Z"/><path class="cls-1" d="M130.76,93.32c.12.15,0,.23-.09.3C130.52,93.46,130.63,93.38,130.76,93.32Z"/><path class="cls-1" d="M131.05,92.55c.09.13.07.2-.1.2S130.92,92.57,131.05,92.55Z"/><path class="cls-1" d="M131.15,92.36c0,.11.06.19-.1.2S131,92.36,131.15,92.36Z"/><path class="cls-1" d="M34.83,97.12c0-.1,0-.15.11-.11Z"/><path class="cls-1" d="M36.13,52.11c.17,0,.18.08.14.19s0,.32-.24.2Z"/><path class="cls-1" d="M36.23,51.73c.08,0,.15,0,.16.08s0,.22-.14.25,0-.06-.07-.09Z"/><path class="cls-1" d="M113.84,101.5c.13-.17.24,0,.34,0s0,.13-.05.16A.46.46,0,0,1,113.84,101.5Z"/><path class="cls-1" d="M113.59,101.41c.15-.13.22-.11.26.1A.28.28,0,0,1,113.59,101.41Z"/><path class="cls-1" d="M130.39,57l-.07,0a7.72,7.72,0,0,0-1.38-2.1s0-.11.1-.11A3.76,3.76,0,0,1,130.39,57Z"/><path class="cls-1" d="M130.87,58.75c0,.06-.13.09-.14,0a6.4,6.4,0,0,1-.28-1.5l0,0A3.36,3.36,0,0,1,130.87,58.75Z"/><path class="cls-1" d="M130.49,57.26c-.19,0-.25-.14-.1-.29A.2.2,0,0,1,130.49,57.26Z"/><path class="cls-1" d="M70.8,69.38c.08-.13.16,0,.22,0s.15.17,0,.27S70.84,69.51,70.8,69.38Z"/><path class="cls-1" d="M133.24,113.64v-.15c0-.17-.09-.41.17-.49a.81.81,0,0,1,.78.08.71.71,0,0,1,.24.73.57.57,0,0,1-.47.48h-.05c-.58.14-.67.07-.67-.52Z"/><path class="cls-1" d="M105.35,113.67v-.1c0-.56,0-.57.37-.61a.66.66,0,0,1,.82.53.62.62,0,0,1-.44.79l-.14,0c-.54.11-.6.06-.61-.5Z"/><path class="cls-1" d="M68.74,114.39a1.36,1.36,0,0,1-1.51,1.53c-.23,0-.35-.08-.35-.33,0-.75,0-1.51,0-2.26,0-.25.12-.33.34-.37a1.34,1.34,0,0,1,1.5,1.16C68.74,114.23,68.73,114.34,68.74,114.39Z"/><path class="cls-1" d="M57.65,114.39a1.56,1.56,0,0,1,.52-1.22,1,1,0,0,1,1.45.2,2.2,2.2,0,0,1-.09,2.23,1,1,0,0,1-1.65-.12A2.16,2.16,0,0,1,57.65,114.39Z"/><path class="cls-1" d="M78.44,114.39a2,2,0,0,1-.27,1.08.93.93,0,0,1-.91.51.92.92,0,0,1-.86-.58,2.14,2.14,0,0,1,0-1.85,1,1,0,0,1,1.92.21A1.75,1.75,0,0,1,78.44,114.39Z"/><path class="cls-1" d="M90.83,114.51a1.67,1.67,0,0,1,.51-1.33,1,1,0,0,1,1.45.18,2.18,2.18,0,0,1-.1,2.27,1,1,0,0,1-1.63-.14A1.93,1.93,0,0,1,90.83,114.51Z"/><path class="cls-1" d="M124.93,114.3a2.18,2.18,0,0,1-.24,1.15.94.94,0,0,1-.9.53.93.93,0,0,1-.9-.6,2.1,2.1,0,0,1,0-1.72,1.08,1.08,0,0,1,1.07-.73,1.05,1.05,0,0,1,.94.94A3.14,3.14,0,0,1,124.93,114.3Z"/><path class="cls-1" d="M43.65,114.44c0-.38,0-.76,0-1.15,0-.2.09-.28.27-.32a1.3,1.3,0,0,1,1.5.89,1.82,1.82,0,0,1,0,1.22,1.36,1.36,0,0,1-1.56.83c-.16,0-.2-.13-.2-.27Z"/><path class="cls-1" d="M80.1,113.68v-.15c0-.51,0-.51.3-.57a.7.7,0,0,1,.87.42.65.65,0,0,1-.25.83,1,1,0,0,1-.22.09c-.6.15-.7.07-.7-.53Z"/><path class="cls-1" d="M33.74,113.76v-.21c0-.54,0-.54.34-.59a.69.69,0,0,1,.86.49.63.63,0,0,1-.34.79.91.91,0,0,1-.75.07C33.61,114.19,33.82,113.9,33.74,113.76Z"/><path class="cls-1" d="M30.44,114.94c.17-.52.39-1,.62-1.52a15.08,15.08,0,0,1,.65,1.52A4.91,4.91,0,0,1,30.44,114.94Z"/><path class="cls-1" d="M131.2,114.94a4.64,4.64,0,0,1-1.29,0l.65-1.57Z"/><path class="cls-1" d="M109.68,114.94a4.43,4.43,0,0,1-1.26,0l.63-1.54A11.37,11.37,0,0,1,109.68,114.94Z"/><path class="cls-1" d="M84.45,114.94a7.63,7.63,0,0,1-1.26,0,10.06,10.06,0,0,1,.63-1.53A13.68,13.68,0,0,1,84.45,114.94Z"/><path class="cls-1" d="M103.31,114.94a5.32,5.32,0,0,1-1.26,0,15.56,15.56,0,0,1,.6-1.53A15.21,15.21,0,0,1,103.31,114.94Z"/><path class="cls-1" d="M116,100.6c.07,0,.12.06.09.14s0,.05-.06,0-.1-.06-.08-.14S116,100.58,116,100.6Z"/><path class="cls-1" d="M116.58,101.16c0,.06.13.11,0,.18s-.12,0-.17-.08Z"/><path class="cls-1" d="M116.46,101.26c0-.05-.13-.1,0-.17s.12,0,.17.07Z"/><path class="cls-1" d="M99.7,112.94h.2a.67.67,0,0,1,.75.68.75.75,0,0,1-.69.82,4.69,4.69,0,0,1-.53,0c0-.39,0-.77,0-1.16A.31.31,0,0,1,99.7,112.94Z"/></g></g></svg>