<svg xmlns="http://www.w3.org/2000/svg" viewBox="0 0 165 165"><defs><style>.cls-1{fill:#fff;}.cls-2{font-size:32.68px;fill:#3f3e3e;font-family:FuturaBT-Bold, FuturaBT Bold;font-weight:700;}.cls-3{fill:#3e3e3d;fill-rule:evenodd;}</style></defs><g id="Capa_2" data-name="Capa 2"><g id="Capa_1-2" data-name="Capa 1"><rect class="cls-1" width="165" height="165"/><text class="cls-2" transform="translate(18.42 93.97)">MAJIME</text><path class="cls-3" d="M20,98.69h.23a1.12,1.12,0,0,0,.6-.12.43.43,0,0,0,.18-.39.55.55,0,0,0-.16-.43,1.13,1.13,0,0,0-.62-.12H20v1.06Zm0,1.62h.21l.47,0a.67.67,0,0,0,.24-.09.42.42,0,0,0,.17-.2.6.6,0,0,0,.06-.27.58.58,0,0,0-.07-.3.53.53,0,0,0-.21-.21.6.6,0,0,0-.19-.06l-.29,0H20v1.17Zm-.59.5V97.13h.93a2.73,2.73,0,0,1,.59.05.67.67,0,0,1,.32.14.8.8,0,0,1,.27.33,1.06,1.06,0,0,1,.09.45.85.85,0,0,1-.13.49.76.76,0,0,1-.4.27.77.77,0,0,1,.51.3,1,1,0,0,1,.18.61,1.16,1.16,0,0,1-.08.42.8.8,0,0,1-.22.34.81.81,0,0,1-.37.22,3.26,3.26,0,0,1-.75.06Zm4.45,0V97.13h2.05v.51H24.44v.92h1.45v.53H24.44v1.19h1.45v.53ZM31,98a1.74,1.74,0,0,0-.53-.33,1.72,1.72,0,0,0-.6-.1,1.35,1.35,0,0,0-1,.38,1.54,1.54,0,0,0,0,2,1.23,1.23,0,0,0,.93.38,1.59,1.59,0,0,0,.62-.11,1.91,1.91,0,0,0,.57-.35v.67a1.54,1.54,0,0,1-.53.26,2,2,0,0,1-.61.09,2.21,2.21,0,0,1-.78-.14,1.84,1.84,0,0,1-1-1,2,2,0,0,1,0-1.52,1.75,1.75,0,0,1,.42-.62,1.81,1.81,0,0,1,.62-.41,2,2,0,0,1,.77-.14,2.11,2.11,0,0,1,.62.09,2.19,2.19,0,0,1,.57.29l0,.6Zm3,1.34h1l-.37-.84a1.07,1.07,0,0,1-.07-.19,1.25,1.25,0,0,1-.07-.23,1.55,1.55,0,0,1-.07.23,1.07,1.07,0,0,1-.07.19l-.37.84Zm1.65,1.44-.42-.94H33.8l-.43.94h-.63L34.52,97l1.78,3.82ZM38,97.13h.59v2.24a1,1,0,0,0,.23.74.86.86,0,0,0,.68.25.89.89,0,0,0,.69-.25,1.06,1.06,0,0,0,.23-.74V97.13H41v2.29a1.51,1.51,0,0,1-.37,1.12,1.93,1.93,0,0,1-2.27,0A1.51,1.51,0,0,1,38,99.42V97.13Zm5.11,3,.48-.23a.64.64,0,0,0,.25.38.74.74,0,0,0,.46.13.57.57,0,0,0,.42-.15.51.51,0,0,0,.16-.4q0-.32-.54-.57l-.11-.06a2.53,2.53,0,0,1-.81-.53.89.89,0,0,1-.21-.59,1,1,0,0,1,.31-.73,1.12,1.12,0,0,1,.8-.28,1.29,1.29,0,0,1,.68.16.81.81,0,0,1,.38.45l-.47.24a.64.64,0,0,0-.24-.25.52.52,0,0,0-.3-.08.61.61,0,0,0-.39.12.44.44,0,0,0-.14.34c0,.22.21.43.63.62l.07,0a2.24,2.24,0,0,1,.75.49.87.87,0,0,1,.2.6,1.07,1.07,0,0,1-.33.83,1.22,1.22,0,0,1-.89.31,1.25,1.25,0,0,1-.77-.22,1,1,0,0,1-.39-.61Zm4.52.73V97.13h2.05v.51H48.26v.92h1.45v.53H48.26v1.19h1.45v.53Zm7.48,0V97.13h2v.51H55.74v.92h1.45v.53H55.74v1.19h1.45v.53Zm5.39.15-1.64-3.83h.62l.83,2c0,.12.08.22.12.32s0,.19.07.27c0-.09,0-.18.08-.28l.12-.31.82-2h.62L60.53,101Zm3.5-.15V97.13h2v.51H64.62v.92h1.46v.53H64.62v1.19h1.46v.53Zm4.82-2.11H69a1.13,1.13,0,0,0,.63-.11.42.42,0,0,0,.16-.39.52.52,0,0,0-.17-.43,1.11,1.11,0,0,0-.62-.12h-.1v1Zm0,.47v1.64h-.56V97.13h.83a2.65,2.65,0,0,1,.57.05.94.94,0,0,1,.35.16.88.88,0,0,1,.26.34,1.19,1.19,0,0,1,.09.47,1.05,1.05,0,0,1-.21.69,1,1,0,0,1-.63.3l1.26,1.67H70.1l-1.22-1.64Zm4.51,1.64V99.13l-1.24-2h.62l.78,1.25.07.13.08.17c0-.06.05-.12.07-.17l.08-.14.8-1.24h.59l-1.26,2v1.68Zm4.93-3.17v3.17h-.6V97.64h-1v-.51h2.55v.51Zm2.91,3.17V97.13h.6v1.36h1.81V97.13h.59v3.68h-.59V99H81.76v1.78Zm5.34,0V97.13h.6v3.68Zm2.94,0V97l2.34,2.25.19.2a2.57,2.57,0,0,1,.21.24V97.13h.55V101l-2.38-2.29-.19-.2L90,98.25v2.56Zm7.66-1.88h1.45V99c0,.12,0,.2,0,.25a1.62,1.62,0,0,1-.44,1.2,1.74,1.74,0,0,1-1.26.43,2.44,2.44,0,0,1-.8-.13,1.64,1.64,0,0,1-.62-.41,1.62,1.62,0,0,1-.4-.62A2,2,0,0,1,94.9,99a2,2,0,0,1,.14-.77,1.71,1.71,0,0,1,.42-.62,1.88,1.88,0,0,1,.63-.4,2.19,2.19,0,0,1,.77-.14,1.78,1.78,0,0,1,.78.16,1.85,1.85,0,0,1,.61.48l-.43.33a1.38,1.38,0,0,0-.42-.32,1.44,1.44,0,0,0-1.5.28,1.38,1.38,0,0,0-.38,1,1.41,1.41,0,0,0,.38,1,1.33,1.33,0,0,0,1,.38,1.27,1.27,0,0,0,.8-.23.79.79,0,0,0,.3-.65v-.06H97.1v-.5Zm6.84,1.88V97.13h.6v3.68Zm2.73-.73.48-.23a.69.69,0,0,0,.25.38.74.74,0,0,0,.46.13.61.61,0,0,0,.43-.15.54.54,0,0,0,.15-.4q0-.32-.54-.57l-.11-.06a2.53,2.53,0,0,1-.81-.53.88.88,0,0,1-.2-.59,1,1,0,0,1,.3-.73,1.12,1.12,0,0,1,.8-.28,1.29,1.29,0,0,1,.68.16.77.77,0,0,1,.38.45l-.46.24a.74.74,0,0,0-.25-.25.52.52,0,0,0-.3-.08.56.56,0,0,0-.38.12.42.42,0,0,0-.15.34c0,.22.21.43.63.62l.07,0a2.14,2.14,0,0,1,.75.49.87.87,0,0,1,.2.6,1.06,1.06,0,0,1-.32.83,1.44,1.44,0,0,1-1.66.09,1,1,0,0,1-.4-.61Zm8.38-1.41h.15a1.3,1.3,0,0,0,.67-.11.42.42,0,0,0,.16-.38.46.46,0,0,0-.18-.41,1.21,1.21,0,0,0-.65-.12h-.15v1Zm0,.49v1.65h-.56V97.13h.91a2.79,2.79,0,0,1,.59.05,1.22,1.22,0,0,1,.33.14,1,1,0,0,1,.27.35,1.06,1.06,0,0,1,.1.48,1.12,1.12,0,0,1-.1.48.85.85,0,0,1-.27.34,1,1,0,0,1-.33.15,2.94,2.94,0,0,1-.59,0H115Zm6.81-.18a1.35,1.35,0,0,0-.1-.53,1.51,1.51,0,0,0-.29-.45,1.37,1.37,0,0,0-1-.4,1.55,1.55,0,0,0-.52.1,1.39,1.39,0,0,0-.43.3,1.2,1.2,0,0,0-.29.45,1.45,1.45,0,0,0,0,1.06,1.25,1.25,0,0,0,.29.44,1.39,1.39,0,0,0,.43.3,1.3,1.3,0,0,0,.52.1,1.25,1.25,0,0,0,.51-.1,1.43,1.43,0,0,0,.44-.3,1.6,1.6,0,0,0,.29-.44,1.39,1.39,0,0,0,.1-.53Zm.62,0a1.84,1.84,0,0,1-.14.74,1.87,1.87,0,0,1-.43.62,1.78,1.78,0,0,1-.64.42,1.93,1.93,0,0,1-.75.15,2,2,0,0,1-.76-.15,2,2,0,0,1-1.06-1,1.81,1.81,0,0,1-.15-.74,1.85,1.85,0,0,1,.15-.74,1.91,1.91,0,0,1,.43-.63,2,2,0,0,1,.63-.42,2.14,2.14,0,0,1,.76-.14,1.94,1.94,0,0,1,1.39.56,2,2,0,0,1,.43.63,1.84,1.84,0,0,1,.14.74Zm2,1.1.48-.23a.64.64,0,0,0,.25.38.74.74,0,0,0,.46.13.57.57,0,0,0,.42-.15.51.51,0,0,0,.16-.4q0-.32-.54-.57l-.11-.06a2.53,2.53,0,0,1-.81-.53.88.88,0,0,1-.2-.59,1,1,0,0,1,.3-.73,1.12,1.12,0,0,1,.8-.28,1.29,1.29,0,0,1,.68.16.81.81,0,0,1,.38.45l-.47.24a.64.64,0,0,0-.24-.25.52.52,0,0,0-.3-.08.61.61,0,0,0-.39.12.44.44,0,0,0-.14.34c0,.22.21.43.63.62l.07,0a2.14,2.14,0,0,1,.75.49.87.87,0,0,1,.2.6,1.07,1.07,0,0,1-.33.83,1.21,1.21,0,0,1-.89.31,1.27,1.27,0,0,1-.77-.22,1,1,0,0,1-.39-.61Zm4.31,0,.48-.23a.6.6,0,0,0,.25.38.74.74,0,0,0,.46.13.57.57,0,0,0,.42-.15.51.51,0,0,0,.16-.4q0-.32-.54-.57l-.12-.06a2.79,2.79,0,0,1-.81-.53,1,1,0,0,1,.11-1.32,1.12,1.12,0,0,1,.8-.28,1.29,1.29,0,0,1,.68.16.81.81,0,0,1,.38.45l-.47.24a.64.64,0,0,0-.24-.25.52.52,0,0,0-.3-.08.61.61,0,0,0-.39.12.44.44,0,0,0-.14.34c0,.22.21.43.62.62l.08,0a2.35,2.35,0,0,1,.75.49.92.92,0,0,1,.2.6,1.07,1.07,0,0,1-.33.83,1.22,1.22,0,0,1-.89.31,1.25,1.25,0,0,1-.77-.22,1,1,0,0,1-.39-.61Zm4.53.73V97.13h.59v3.68Zm3.53-2.12H137a1.14,1.14,0,0,0,.61-.12.45.45,0,0,0,.17-.39.52.52,0,0,0-.16-.43,1.11,1.11,0,0,0-.62-.12h-.22v1.06Zm0,1.62h.2l.47,0a.73.73,0,0,0,.25-.09.48.48,0,0,0,.17-.2.6.6,0,0,0,.06-.27.58.58,0,0,0-.08-.3.45.45,0,0,0-.2-.21.66.66,0,0,0-.2-.06l-.29,0h-.38v1.17Zm-.59.5V97.13h.93a2.62,2.62,0,0,1,.58.05.71.71,0,0,1,.33.14.78.78,0,0,1,.26.33,1.06,1.06,0,0,1,.1.45.86.86,0,0,1-.14.49.69.69,0,0,1-.39.27.75.75,0,0,1,.5.3,1,1,0,0,1,.18.61,1.16,1.16,0,0,1-.07.42.91.91,0,0,1-.22.34.85.85,0,0,1-.38.22,3.26,3.26,0,0,1-.75.06Zm4.45,0V97.13h.59v3.15h1.34v.53Zm3.9,0V97.13h2.05v.51h-1.45v.92h1.45v.53h-1.45v1.19h1.45v.53Z"/></g></g></svg>