<svg xmlns="http://www.w3.org/2000/svg" viewBox="0 0 165 165"><defs><style>.cls-1{fill:#fff;}.cls-2{fill:#444;}.cls-3{fill:#8f8f8f;}</style></defs><g id="Capa_2" data-name="Capa 2"><g id="Capa_1-2" data-name="Capa 1"><rect class="cls-1" width="165" height="165"/><path class="cls-2" d="M73.12,62v1.82h0a3.18,3.18,0,0,1,1.32-1.55,4.07,4.07,0,0,1,2.09-.55,4.23,4.23,0,0,1,1.91.41,4,4,0,0,1,1.34,1.11,4.59,4.59,0,0,1,.8,1.61,7.27,7.27,0,0,1,.26,1.94,7.34,7.34,0,0,1-.26,2,4.59,4.59,0,0,1-.8,1.61,3.87,3.87,0,0,1-1.34,1.1,4.37,4.37,0,0,1-1.91.4,4.19,4.19,0,0,1-1-.14,3.49,3.49,0,0,1-1.75-1,2.76,2.76,0,0,1-.53-.91h0v5.34H72V62Zm6.41,3.32A4,4,0,0,0,79,64.05a3,3,0,0,0-1-.94,2.69,2.69,0,0,0-1.43-.36,3.52,3.52,0,0,0-1.61.33,2.84,2.84,0,0,0-1,.89,3.5,3.5,0,0,0-.55,1.31,7.08,7.08,0,0,0-.16,1.55,6.18,6.18,0,0,0,.18,1.48A3.78,3.78,0,0,0,74,69.62a3.24,3.24,0,0,0,1,.94,3.17,3.17,0,0,0,1.57.36A2.69,2.69,0,0,0,78,70.56a3.14,3.14,0,0,0,1-.94,4,4,0,0,0,.55-1.31,6.13,6.13,0,0,0,0-3Z"/><path class="cls-2" d="M83.56,68.46a3.7,3.7,0,0,0,.57,1.22,3.35,3.35,0,0,0,1,.89,3.24,3.24,0,0,0,3.44-.32,3.47,3.47,0,0,0,1-1.78h1.17A4.66,4.66,0,0,1,89.36,71a4.06,4.06,0,0,1-2.82.9,4.6,4.6,0,0,1-2-.4,3.53,3.53,0,0,1-1.34-1.1,4.54,4.54,0,0,1-.77-1.61,7.34,7.34,0,0,1-.25-2A6.77,6.77,0,0,1,82.47,65a4.81,4.81,0,0,1,.77-1.63,3.85,3.85,0,0,1,1.34-1.15,4.2,4.2,0,0,1,2-.44,3.91,3.91,0,0,1,2,.47,3.81,3.81,0,0,1,1.33,1.22,5,5,0,0,1,.73,1.72,7.74,7.74,0,0,1,.19,2H83.39A5.54,5.54,0,0,0,83.56,68.46Zm5.8-3.57a3.41,3.41,0,0,0-.61-1.09,2.89,2.89,0,0,0-.94-.76,2.95,2.95,0,0,0-2.55,0,2.89,2.89,0,0,0-.94.76,3.66,3.66,0,0,0-.63,1.09,5.67,5.67,0,0,0-.3,1.28h6.2A4.15,4.15,0,0,0,89.36,64.89Z"/><path class="cls-2" d="M99.6,75.15V69.81h0a2.76,2.76,0,0,1-.53.91,3.26,3.26,0,0,1-.79.64,3.17,3.17,0,0,1-.95.39,4.15,4.15,0,0,1-1.05.14,4.37,4.37,0,0,1-1.91-.4A3.78,3.78,0,0,1,93,70.39a4.59,4.59,0,0,1-.8-1.61,7.34,7.34,0,0,1-.26-2,7.27,7.27,0,0,1,.26-1.94,4.59,4.59,0,0,1,.8-1.61,3.91,3.91,0,0,1,1.34-1.11,4.23,4.23,0,0,1,1.91-.41,4.36,4.36,0,0,1,1.05.15,4,4,0,0,1,1,.43,4.46,4.46,0,0,1,.83.66,2.5,2.5,0,0,1,.54.86h0V62h1.08V75.15Zm-6.33-6.84a4.18,4.18,0,0,0,.56,1.31,3.14,3.14,0,0,0,1,.94,2.69,2.69,0,0,0,1.43.36,3.17,3.17,0,0,0,1.57-.36,3.24,3.24,0,0,0,1-.94,4,4,0,0,0,.57-1.31,6.13,6.13,0,0,0,0-3,4,4,0,0,0-.57-1.31,3.13,3.13,0,0,0-1-.94,3.17,3.17,0,0,0-1.57-.36,2.69,2.69,0,0,0-1.43.36,3,3,0,0,0-1,.94,4.18,4.18,0,0,0-.56,1.31,6.48,6.48,0,0,0,0,3Z"/><path class="cls-2" d="M109.68,71.63V69.9h0a3.46,3.46,0,0,1-1.35,1.48,4,4,0,0,1-2,.51,4.19,4.19,0,0,1-1.55-.26,2.51,2.51,0,0,1-1-.71,3,3,0,0,1-.59-1.13,6,6,0,0,1-.18-1.53V62h1.17v6.24a3.06,3.06,0,0,0,.6,2,3,3,0,0,0,3.26.34,2.61,2.61,0,0,0,.89-.86,3.77,3.77,0,0,0,.52-1.23,6.2,6.2,0,0,0,.17-1.42V62h1.17v9.59Z"/><path class="cls-2" d="M113.83,68.46a3.7,3.7,0,0,0,.57,1.22,3.23,3.23,0,0,0,1,.89,2.81,2.81,0,0,0,1.43.35,2.84,2.84,0,0,0,2-.67,3.54,3.54,0,0,0,1-1.78H121A4.66,4.66,0,0,1,119.63,71a4.08,4.08,0,0,1-2.82.9,4.57,4.57,0,0,1-2-.4,3.53,3.53,0,0,1-1.34-1.1,4.54,4.54,0,0,1-.77-1.61,7.34,7.34,0,0,1-.25-2,6.77,6.77,0,0,1,.25-1.85,4.81,4.81,0,0,1,.77-1.63,3.85,3.85,0,0,1,1.34-1.15,4.17,4.17,0,0,1,2-.44,3.93,3.93,0,0,1,2,.47,3.81,3.81,0,0,1,1.33,1.22,5,5,0,0,1,.73,1.72,7.74,7.74,0,0,1,.19,2h-7.37A5.07,5.07,0,0,0,113.83,68.46Zm5.8-3.57A3.62,3.62,0,0,0,119,63.8a2.93,2.93,0,0,0-1-.76,2.72,2.72,0,0,0-1.26-.29,2.77,2.77,0,0,0-1.28.29,2.93,2.93,0,0,0-1,.76,3.87,3.87,0,0,0-.62,1.09,5.18,5.18,0,0,0-.3,1.28h6.2A4.46,4.46,0,0,0,119.63,64.89Z"/><path class="cls-2" d="M123.76,62V63.7h0A2.86,2.86,0,0,1,125,62.29a3.54,3.54,0,0,1,1.88-.53,4.55,4.55,0,0,1,1.68.27,2.56,2.56,0,0,1,1.08.73,2.6,2.6,0,0,1,.58,1.16,6.6,6.6,0,0,1,.17,1.54v6.17H129.2v-6a6,6,0,0,0-.11-1.15,2.51,2.51,0,0,0-.39-.91,1.86,1.86,0,0,0-.76-.62,2.7,2.7,0,0,0-1.18-.22,2.94,2.94,0,0,0-1.25.25,2.9,2.9,0,0,0-.93.69,3.1,3.1,0,0,0-.59,1,4.23,4.23,0,0,0-.23,1.31v5.59h-1.17V62Zm5.45-2.93a2.27,2.27,0,0,1-.32.57,1.85,1.85,0,0,1-.47.41,1.36,1.36,0,0,1-.65.15,2,2,0,0,1-.73-.13,4.43,4.43,0,0,1-.67-.3c-.21-.11-.4-.21-.59-.29a1.17,1.17,0,0,0-.52-.13,1,1,0,0,0-.7.24.88.88,0,0,0-.28.71h-.73a2.38,2.38,0,0,1,.5-1.22,1.71,1.71,0,0,1,.51-.41,1.39,1.39,0,0,1,.65-.16,2.3,2.3,0,0,1,.74.13c.23.09.45.18.66.28l.57.28a1.18,1.18,0,0,0,.53.13.78.78,0,0,0,.64-.26,2,2,0,0,0,.33-.63h.7A3,3,0,0,1,129.21,59.11Z"/><path class="cls-2" d="M132.82,63.53a2.75,2.75,0,0,1,.81-1,3.39,3.39,0,0,1,1.19-.58,6,6,0,0,1,1.53-.19,6.74,6.74,0,0,1,1.26.13,3,3,0,0,1,1.13.45,2.44,2.44,0,0,1,.82.94,3.37,3.37,0,0,1,.32,1.57v5.09c0,.47.22.7.68.7a1,1,0,0,0,.38-.07v1l-.37.06-.4,0a1.61,1.61,0,0,1-.71-.13,1,1,0,0,1-.42-.34,1.12,1.12,0,0,1-.19-.53,3.56,3.56,0,0,1,0-.68h0a7.23,7.23,0,0,1-.64.83,3.38,3.38,0,0,1-.72.6,3.22,3.22,0,0,1-.91.37,4.82,4.82,0,0,1-1.22.14,5,5,0,0,1-1.25-.16,2.86,2.86,0,0,1-1-.5,2.42,2.42,0,0,1-.69-.88,2.85,2.85,0,0,1-.25-1.25,2.53,2.53,0,0,1,.44-1.57,2.81,2.81,0,0,1,1.18-.86,6.61,6.61,0,0,1,1.66-.42L137.2,66c.25,0,.47-.06.65-.1a1.11,1.11,0,0,0,.47-.19.92.92,0,0,0,.28-.38,1.6,1.6,0,0,0,.1-.63,2.17,2.17,0,0,0-.19-1,1.56,1.56,0,0,0-.54-.6,2.19,2.19,0,0,0-.8-.31,6,6,0,0,0-1-.08,2.89,2.89,0,0,0-1.82.53,2.06,2.06,0,0,0-.74,1.7h-1.17A3.73,3.73,0,0,1,132.82,63.53Zm5.85,2.86a.76.76,0,0,1-.43.3c-.21.06-.4.1-.55.13l-1.54.23a8.49,8.49,0,0,0-1.44.31,2.7,2.7,0,0,0-1.06.58,1.39,1.39,0,0,0-.42,1.09,1.76,1.76,0,0,0,.17.78,2,2,0,0,0,.48.6,2.16,2.16,0,0,0,.68.38,2.44,2.44,0,0,0,.8.13,4.18,4.18,0,0,0,1.28-.2,3.19,3.19,0,0,0,1.07-.6,2.75,2.75,0,0,0,.73-1,2.84,2.84,0,0,0,.26-1.26V66.39Z"/><path class="cls-2" d="M73.45,87A3.49,3.49,0,0,0,74,88.25a3.26,3.26,0,0,0,1,.89,2.78,2.78,0,0,0,1.43.35,2.81,2.81,0,0,0,2-.67,3.53,3.53,0,0,0,1-1.78h1.17a4.67,4.67,0,0,1-1.37,2.52,4,4,0,0,1-2.81.89,4.54,4.54,0,0,1-2-.39A3.74,3.74,0,0,1,73.12,89a4.86,4.86,0,0,1-.77-1.62,7.21,7.21,0,0,1-.25-1.94,6.77,6.77,0,0,1,.25-1.85,5.21,5.21,0,0,1,.77-1.63,4,4,0,0,1,1.35-1.15,4.14,4.14,0,0,1,2-.44,3.93,3.93,0,0,1,2,.47A3.86,3.86,0,0,1,79.72,82a5,5,0,0,1,.74,1.72,7.31,7.31,0,0,1,.18,2H73.27A5.1,5.1,0,0,0,73.45,87Zm5.79-3.58a3.45,3.45,0,0,0-.6-1.08,2.93,2.93,0,0,0-1-.76,2.6,2.6,0,0,0-1.26-.29,2.66,2.66,0,0,0-1.28.29,2.93,2.93,0,0,0-1,.76,3.64,3.64,0,0,0-.62,1.09,5.2,5.2,0,0,0-.31,1.28h6.2A4.26,4.26,0,0,0,79.24,83.45Z"/><path class="cls-2" d="M87.74,82.48a1.87,1.87,0,0,0-.55-.66,2.32,2.32,0,0,0-.79-.38,3.64,3.64,0,0,0-1-.12,4.32,4.32,0,0,0-.79.08,2.57,2.57,0,0,0-.73.28,1.65,1.65,0,0,0-.54.51,1.46,1.46,0,0,0-.2.78,1.09,1.09,0,0,0,.19.66,1.84,1.84,0,0,0,.5.46,3.14,3.14,0,0,0,.64.3l.65.2,1.56.35a4.49,4.49,0,0,1,1,.27,3.12,3.12,0,0,1,.87.51,2.52,2.52,0,0,1,.62.78,2.35,2.35,0,0,1,.24,1.1,2.32,2.32,0,0,1-.35,1.32,2.64,2.64,0,0,1-.9.89,3.84,3.84,0,0,1-1.23.5,6.35,6.35,0,0,1-1.36.14,4.41,4.41,0,0,1-2.74-.79,3.42,3.42,0,0,1-1.2-2.57h1.17a2.32,2.32,0,0,0,.87,1.8,3.1,3.1,0,0,0,2,.6,4.56,4.56,0,0,0,.89-.09,3,3,0,0,0,.84-.32,2,2,0,0,0,.64-.57A1.57,1.57,0,0,0,88.12,87a1.57,1.57,0,0,0-.48-.48,2.77,2.77,0,0,0-.67-.32c-.26-.09-.52-.16-.77-.23l-1.51-.33a9.42,9.42,0,0,1-1.06-.34,3.44,3.44,0,0,1-.84-.49,2,2,0,0,1-.57-.7,2.31,2.31,0,0,1-.2-1,2.37,2.37,0,0,1,.32-1.25,2.59,2.59,0,0,1,.85-.83,3.87,3.87,0,0,1,1.16-.47,5.57,5.57,0,0,1,1.27-.15,4.89,4.89,0,0,1,1.35.19,3,3,0,0,1,1.09.58,2.72,2.72,0,0,1,.75,1,3.32,3.32,0,0,1,.32,1.36H88A2.28,2.28,0,0,0,87.74,82.48Z"/><path class="cls-2" d="M97,81.93a2.54,2.54,0,0,0-1.82-.61,3,3,0,0,0-1.46.35,3.15,3.15,0,0,0-1,.93,4.32,4.32,0,0,0-.64,1.31,5.43,5.43,0,0,0,0,3,4.32,4.32,0,0,0,.64,1.31,3.15,3.15,0,0,0,1,.93,3,3,0,0,0,1.46.35,2.69,2.69,0,0,0,1-.2,2.93,2.93,0,0,0,.86-.57,3.18,3.18,0,0,0,.61-.86,3.32,3.32,0,0,0,.3-1.1h1.17a4.44,4.44,0,0,1-1.28,2.72,3.77,3.77,0,0,1-2.68,1,4.57,4.57,0,0,1-1.94-.39A4.15,4.15,0,0,1,91.84,89,4.8,4.8,0,0,1,91,87.36a6.52,6.52,0,0,1,0-3.91,4.8,4.8,0,0,1,.87-1.61,4.31,4.31,0,0,1,1.42-1.1,4.43,4.43,0,0,1,1.94-.41,4.19,4.19,0,0,1,2.61.82,3.48,3.48,0,0,1,1.27,2.47H97.91A3.23,3.23,0,0,0,97,81.93Z"/><path class="cls-2" d="M101,82.1a2.75,2.75,0,0,1,.81-1,3.35,3.35,0,0,1,1.2-.58,6,6,0,0,1,1.52-.19,6.74,6.74,0,0,1,1.26.13,3.17,3.17,0,0,1,1.14.45,2.5,2.5,0,0,1,.81.94,3.37,3.37,0,0,1,.32,1.57v5.09a.61.61,0,0,0,.69.7.9.9,0,0,0,.37-.07v1l-.36.06-.4,0a1.63,1.63,0,0,1-.72-.13,1,1,0,0,1-.42-.34,1.24,1.24,0,0,1-.19-.53,4.61,4.61,0,0,1,0-.68h0a7.26,7.26,0,0,1-.65.83,3,3,0,0,1-.72.6,3.22,3.22,0,0,1-.91.37,4.85,4.85,0,0,1-1.22.13,5,5,0,0,1-1.25-.15,2.86,2.86,0,0,1-1-.5,2.42,2.42,0,0,1-.69-.88,3,3,0,0,1-.25-1.25,2.46,2.46,0,0,1,.45-1.57,2.75,2.75,0,0,1,1.18-.86,6.64,6.64,0,0,1,1.65-.42l1.87-.23c.24,0,.46-.06.65-.1a1.07,1.07,0,0,0,.46-.19.94.94,0,0,0,.29-.38,1.8,1.8,0,0,0,.1-.63,2.17,2.17,0,0,0-.19-1,1.59,1.59,0,0,0-.55-.6,2.14,2.14,0,0,0-.79-.31,6.08,6.08,0,0,0-1-.08,2.91,2.91,0,0,0-1.82.53,2.06,2.06,0,0,0-.74,1.7h-1.17A4.12,4.12,0,0,1,101,82.1ZM106.88,85a.69.69,0,0,1-.43.3c-.21.06-.39.1-.55.13l-1.53.23a9.11,9.11,0,0,0-1.44.3,2.76,2.76,0,0,0-1.07.59,1.39,1.39,0,0,0-.42,1.09,1.63,1.63,0,0,0,.18.78,1.82,1.82,0,0,0,.47.6,2.11,2.11,0,0,0,.69.38,2.44,2.44,0,0,0,.8.13,4.23,4.23,0,0,0,1.28-.2,3.29,3.29,0,0,0,1.07-.6,2.86,2.86,0,0,0,1-2.21V85Z"/><path class="cls-2" d="M111.62,76.94V90.2h-1.17V76.94Z"/><path class="cls-2" d="M114.11,82.1a2.63,2.63,0,0,1,.8-1,3.35,3.35,0,0,1,1.2-.58,6,6,0,0,1,1.52-.19,6.76,6.76,0,0,1,1.27.13,3.12,3.12,0,0,1,1.13.45,2.52,2.52,0,0,1,.82.94,3.37,3.37,0,0,1,.31,1.57v5.09a.61.61,0,0,0,.69.7.87.87,0,0,0,.37-.07v1l-.36.06-.4,0a1.63,1.63,0,0,1-.72-.13,1,1,0,0,1-.41-.34,1.25,1.25,0,0,1-.2-.53,4.7,4.7,0,0,1,0-.68h0a8.56,8.56,0,0,1-.64.83,3.2,3.2,0,0,1-.73.6,3.1,3.1,0,0,1-.91.37,4.77,4.77,0,0,1-1.21.13,5.06,5.06,0,0,1-1.26-.15,2.86,2.86,0,0,1-1-.5,2.42,2.42,0,0,1-.69-.88,3,3,0,0,1-.25-1.25,2.46,2.46,0,0,1,.45-1.57,2.81,2.81,0,0,1,1.18-.86,6.64,6.64,0,0,1,1.65-.42l1.87-.23c.25,0,.46-.06.65-.1a1.07,1.07,0,0,0,.46-.19.86.86,0,0,0,.29-.38,1.6,1.6,0,0,0,.1-.63,2.17,2.17,0,0,0-.19-1,1.56,1.56,0,0,0-.54-.6,2.27,2.27,0,0,0-.8-.31,6,6,0,0,0-1-.08,2.89,2.89,0,0,0-1.82.53,2.06,2.06,0,0,0-.75,1.7h-1.17A3.91,3.91,0,0,1,114.11,82.1ZM120,85a.76.76,0,0,1-.43.3c-.21.06-.4.1-.56.13l-1.53.23a9.11,9.11,0,0,0-1.44.3,2.83,2.83,0,0,0-1.07.59,1.39,1.39,0,0,0-.41,1.09,1.63,1.63,0,0,0,.17.78,1.94,1.94,0,0,0,1.16,1,2.44,2.44,0,0,0,.8.13,4.23,4.23,0,0,0,1.28-.2,3.19,3.19,0,0,0,1.07-.6,2.86,2.86,0,0,0,1-2.21V85Z"/><path class="cls-3" d="M76.63,103.11h0a1.59,1.59,0,0,1-.33.51,2.28,2.28,0,0,1-.52.44,2.94,2.94,0,0,1-.7.29,3.32,3.32,0,0,1-.86.11,2.68,2.68,0,0,1-1.61-.42,1.5,1.5,0,0,1-.57-1.3,1.56,1.56,0,0,1,.23-.87,1.73,1.73,0,0,1,.58-.53,2.71,2.71,0,0,1,.77-.28l.81-.12.75-.06a4.39,4.39,0,0,0,.81-.11,1,1,0,0,0,.45-.21.58.58,0,0,0,.19-.35,2.7,2.7,0,0,0,0-.54,1.06,1.06,0,0,0-.1-.46,1.12,1.12,0,0,0-.32-.38,1.76,1.76,0,0,0-.55-.26,3.37,3.37,0,0,0-.84-.09,2.29,2.29,0,0,0-1.41.4,1.57,1.57,0,0,0-.58,1.22h-.48A2,2,0,0,1,73,98.59a2.94,2.94,0,0,1,1.82-.5,2.72,2.72,0,0,1,1.71.43,1.39,1.39,0,0,1,.54,1.13v3.8a.85.85,0,0,0,0,.24.31.31,0,0,0,.13.17.42.42,0,0,0,.25.06l.35,0v.38a1.6,1.6,0,0,1-.39,0,1.39,1.39,0,0,1-.46-.07.76.76,0,0,1-.26-.19.7.7,0,0,1-.12-.28,2,2,0,0,1,0-.35Zm0-2.25a1,1,0,0,1-.54.27c-.24.05-.51.08-.8.11l-.81.07c-.24,0-.47.06-.71.1a2.2,2.2,0,0,0-.64.22,1.24,1.24,0,0,0-.46.42,1.22,1.22,0,0,0-.17.69,1.15,1.15,0,0,0,.45,1,2.09,2.09,0,0,0,1.25.33,2.64,2.64,0,0,0,1.3-.28,2.36,2.36,0,0,0,.74-.64,2.07,2.07,0,0,0,.32-.7,3.63,3.63,0,0,0,.07-.45Z"/><path class="cls-3" d="M79.9,99.58h0a1.59,1.59,0,0,1,.32-.56,2.58,2.58,0,0,1,.57-.45,3.54,3.54,0,0,1,.75-.29,3.41,3.41,0,0,1,.85-.08v.44a2.42,2.42,0,0,0-.86.08,2.07,2.07,0,0,0-.93.52,4.57,4.57,0,0,0-.31.34,1.51,1.51,0,0,0-.22.37,1.83,1.83,0,0,0-.14.45,3.08,3.08,0,0,0-.07.59v3.33h-.48V98.23h.48Z"/><path class="cls-3" d="M88.59,103h0a2.14,2.14,0,0,1-.37.64,2.34,2.34,0,0,1-.56.48,2.92,2.92,0,0,1-1.47.39,3.18,3.18,0,0,1-1.28-.25,2.55,2.55,0,0,1-.9-.68,2.64,2.64,0,0,1-.53-1,4.26,4.26,0,0,1-.18-1.26,4.7,4.7,0,0,1,.16-1.2,2.92,2.92,0,0,1,.51-1,2.49,2.49,0,0,1,.87-.7,2.94,2.94,0,0,1,1.27-.26,2.62,2.62,0,0,1,2.49,1.44h0v-1.3h.47v8.26h-.47Zm-2.43,1.12a2.34,2.34,0,0,0,1.09-.24,2.3,2.3,0,0,0,.75-.63,2.88,2.88,0,0,0,.43-.9,3.63,3.63,0,0,0,.15-1,3.5,3.5,0,0,0-.15-1,2.52,2.52,0,0,0-.44-.9,2.21,2.21,0,0,0-.74-.62,2.25,2.25,0,0,0-1.07-.24,2.44,2.44,0,0,0-1.09.23,2.15,2.15,0,0,0-.75.62,2.52,2.52,0,0,0-.44.9,3.57,3.57,0,0,0-.15,1,4.05,4.05,0,0,0,.13,1.06,2.63,2.63,0,0,0,.43.89,2.13,2.13,0,0,0,.76.63A2.41,2.41,0,0,0,86.16,104.07Z"/><path class="cls-3" d="M96.53,104.32h-.48V103h0a2,2,0,0,1-.36.61,2.45,2.45,0,0,1-.55.46,2.21,2.21,0,0,1-.67.28,2.76,2.76,0,0,1-.75.1,3.4,3.4,0,0,1-1-.13,1.92,1.92,0,0,1-.65-.35,1.76,1.76,0,0,1-.4-.47,2.37,2.37,0,0,1-.2-.54,2.62,2.62,0,0,1-.08-.53c0-.17,0-.32,0-.44V98.23h.48v3.85a4.21,4.21,0,0,0,0,.57,1.57,1.57,0,0,0,.22.65,1.5,1.5,0,0,0,.55.54,2,2,0,0,0,1,.23,2.52,2.52,0,0,0,1-.19,2.09,2.09,0,0,0,.74-.53,2,2,0,0,0,.46-.8,3.13,3.13,0,0,0,.16-1V98.23h.48Z"/><path class="cls-3" d="M98.85,97.08V95.86h.48v1.22Zm0,7.24V98.23h.48v6.09Z"/><path class="cls-3" d="M104,98.62h-1.41v4.25a1.5,1.5,0,0,0,.09.58.73.73,0,0,0,.27.33,1,1,0,0,0,.44.13,3.86,3.86,0,0,0,.6,0v.4a5.58,5.58,0,0,1-.71,0,1.55,1.55,0,0,1-.62-.18,1.12,1.12,0,0,1-.42-.44,1.62,1.62,0,0,1-.13-.82V98.62h-1.2v-.39h1.2V96.34h.48v1.89H104Z"/><path class="cls-3" d="M105.71,101.33v.07a3.4,3.4,0,0,0,.15,1,2.39,2.39,0,0,0,.45.85,2.1,2.1,0,0,0,.74.58,2.69,2.69,0,0,0,2.6-.26,2.47,2.47,0,0,0,.78-1.33h.48a2.64,2.64,0,0,1-.93,1.63,2.92,2.92,0,0,1-1.89.57,2.85,2.85,0,0,1-1.25-.25,2.51,2.51,0,0,1-.9-.66,2.79,2.79,0,0,1-.54-1,4.18,4.18,0,0,1,0-2.46,2.76,2.76,0,0,1,.55-1,2.69,2.69,0,0,1,.91-.72,3.08,3.08,0,0,1,1.3-.26,2.87,2.87,0,0,1,1.21.24,2.47,2.47,0,0,1,.88.64,2.84,2.84,0,0,1,.53,1,3.34,3.34,0,0,1,.19,1.15s0,.09,0,.14,0,.09,0,.12Zm4.77-.39a3.26,3.26,0,0,0-.17-.94,2.49,2.49,0,0,0-.45-.78,2.08,2.08,0,0,0-.73-.54,2.27,2.27,0,0,0-1-.2,2.35,2.35,0,0,0-1,.21,2.33,2.33,0,0,0-.75.54,2.51,2.51,0,0,0-.47.79,3.3,3.3,0,0,0-.2.92Z"/><path class="cls-3" d="M117.77,100.11a1.6,1.6,0,0,0-.7-1.22,2.28,2.28,0,0,0-.67-.3,3.2,3.2,0,0,0-.83-.11,2.45,2.45,0,0,0-1.08.23,2.26,2.26,0,0,0-.78.62,2.63,2.63,0,0,0-.48.87,3.2,3.2,0,0,0-.17,1,3.79,3.79,0,0,0,.16,1.14,2.52,2.52,0,0,0,.46.91,2.31,2.31,0,0,0,.79.59,2.51,2.51,0,0,0,1.1.22,2.32,2.32,0,0,0,.84-.15,2.08,2.08,0,0,0,.68-.39,2,2,0,0,0,.49-.59,2.49,2.49,0,0,0,.25-.77h.48a2.64,2.64,0,0,1-.32,1,2.36,2.36,0,0,1-.6.72,2.69,2.69,0,0,1-.84.44,2.92,2.92,0,0,1-1,.16,3.11,3.11,0,0,1-1.36-.27,2.53,2.53,0,0,1-.92-.71,3.12,3.12,0,0,1-.54-1,4.51,4.51,0,0,1-.17-1.23,3.68,3.68,0,0,1,.2-1.2,2.86,2.86,0,0,1,.58-1,2.64,2.64,0,0,1,.93-.67,3,3,0,0,1,1.28-.25,4,4,0,0,1,1,.12,2.69,2.69,0,0,1,.82.38,1.88,1.88,0,0,1,.59.63,2.27,2.27,0,0,1,.28.89Z"/><path class="cls-3" d="M122.61,98.62H121.2v4.25a1.75,1.75,0,0,0,.08.58.69.69,0,0,0,.28.33,1,1,0,0,0,.44.13,3.86,3.86,0,0,0,.6,0v.4a5.74,5.74,0,0,1-.72,0,1.5,1.5,0,0,1-.61-.18,1,1,0,0,1-.42-.44,1.52,1.52,0,0,1-.13-.82V98.62h-1.21v-.39h1.21V96.34h.48v1.89h1.41Z"/><path class="cls-3" d="M129.16,104.32h-.48V103h0a2,2,0,0,1-.36.61,2.63,2.63,0,0,1-.54.46,2.38,2.38,0,0,1-.68.28,2.71,2.71,0,0,1-.75.1,3.28,3.28,0,0,1-1-.13,1.88,1.88,0,0,1-.66-.35,1.72,1.72,0,0,1-.39-.47,2,2,0,0,1-.21-.54,3.59,3.59,0,0,1-.08-.53c0-.17,0-.32,0-.44V98.23h.48v3.85a4.21,4.21,0,0,0,0,.57,1.57,1.57,0,0,0,.77,1.19,2,2,0,0,0,1,.23,2.59,2.59,0,0,0,1-.19,2.05,2.05,0,0,0,.73-.53,2.2,2.2,0,0,0,.47-.8,3.42,3.42,0,0,0,.15-1V98.23h.48Z"/><path class="cls-3" d="M131.85,99.58h0a1.33,1.33,0,0,1,.32-.56,2.18,2.18,0,0,1,.57-.45,3.26,3.26,0,0,1,.74-.29,3.49,3.49,0,0,1,.86-.08v.44a2.46,2.46,0,0,0-.87.08,2.13,2.13,0,0,0-.93.52,4.57,4.57,0,0,0-.31.34,1.51,1.51,0,0,0-.22.37,1.83,1.83,0,0,0-.14.45,4.32,4.32,0,0,0-.06.59v3.33h-.48V98.23h.48Z"/><path class="cls-3" d="M139.73,103.11h0a2,2,0,0,1-.33.51,2.52,2.52,0,0,1-.52.44,2.94,2.94,0,0,1-.7.29,3.37,3.37,0,0,1-.86.11,2.66,2.66,0,0,1-1.61-.42,1.5,1.5,0,0,1-.57-1.3,1.56,1.56,0,0,1,.23-.87,1.7,1.7,0,0,1,.57-.53,2.78,2.78,0,0,1,.78-.28l.81-.12.75-.06a4.53,4.53,0,0,0,.81-.11,1,1,0,0,0,.45-.21.64.64,0,0,0,.19-.35,2.7,2.7,0,0,0,0-.54,1.23,1.23,0,0,0-.1-.46,1.25,1.25,0,0,0-.32-.38,1.72,1.72,0,0,0-.56-.26,3.23,3.23,0,0,0-.83-.09,2.29,2.29,0,0,0-1.41.4,1.58,1.58,0,0,0-.59,1.22h-.48a2,2,0,0,1,.69-1.51,2.92,2.92,0,0,1,1.82-.5,2.72,2.72,0,0,1,1.71.43,1.39,1.39,0,0,1,.54,1.13v3.8a.85.85,0,0,0,0,.24.3.3,0,0,0,.12.17.48.48,0,0,0,.26.06l.35,0v.38a1.74,1.74,0,0,1-.39,0,1.35,1.35,0,0,1-.46-.07.68.68,0,0,1-.26-.19.7.7,0,0,1-.12-.28,2,2,0,0,1,0-.35Zm0-2.25a1,1,0,0,1-.54.27,8,8,0,0,1-.81.11l-.8.07c-.24,0-.48.06-.71.1a2.1,2.1,0,0,0-.64.22,1.24,1.24,0,0,0-.46.42,1.22,1.22,0,0,0-.18.69,1.14,1.14,0,0,0,.46,1,2.09,2.09,0,0,0,1.25.33,2.64,2.64,0,0,0,1.3-.28,2.32,2.32,0,0,0,.73-.64,1.93,1.93,0,0,0,.33-.7,3.63,3.63,0,0,0,.07-.45Z"/><polygon class="cls-2" points="24.01 58.5 66.67 58.5 66.7 90.52 45.35 90.52 45.35 79.84 56.02 79.84 56.02 69.17 34.68 69.17 34.68 95.85 66.7 95.85 66.7 106.52 24.01 106.52 24.01 58.5"/></g></g></svg>