<svg xmlns="http://www.w3.org/2000/svg" viewBox="0 0 165 165"><defs><style>.cls-1{fill:#d15770;}.cls-2{fill:#b5c647;}.cls-3{fill:#a9b647;}.cls-4{fill:#fff;}.cls-5{fill:#473219;}.cls-6{fill:none;}</style></defs><g id="Capa_2" data-name="Capa 2"><g id="Capa_1-2" data-name="Capa 1"><rect class="cls-1" width="165" height="165"/><path class="cls-2" d="M61.83,96.14S72.05,64.39,24.65,60.68c0,0-18.07,41.41,37.18,35.46"/><path class="cls-3" d="M25,61.5l36,34.65s-28.13,3.6-36-12.56c0,0-4.46-12.83,0-22.09"/><path class="cls-4" d="M107.49,98.72a1.05,1.05,0,0,0,1.08,1.19,2.1,2.1,0,0,0,.88-.17l.11.44a2.45,2.45,0,0,1-1.07.22,1.55,1.55,0,0,1-1.56-1.73c0-1,.57-1.85,1.5-1.85s1.3,1,1.3,1.61a1.28,1.28,0,0,1,0,.3Zm1.69-.45c0-.39-.16-1-.8-1s-.84.58-.89,1Z"/><path class="cls-4" d="M112.21,99.7a1.59,1.59,0,0,0,.77.24c.42,0,.61-.22.61-.51s-.16-.46-.58-.63c-.58-.23-.85-.56-.85-1a1,1,0,0,1,1.1-1A1.44,1.44,0,0,1,114,97l-.14.45a1.25,1.25,0,0,0-.65-.2.47.47,0,0,0-.53.47c0,.29.19.42.6.59s.83.51.83,1a1,1,0,0,1-1.18,1,1.7,1.7,0,0,1-.89-.24Z"/><path class="cls-4" d="M116.74,98c0-.44,0-.79,0-1.12h.52l0,.59h0a1.2,1.2,0,0,1,1.12-.67c.78,0,1.36.7,1.36,1.74,0,1.24-.71,1.84-1.45,1.84a1.08,1.08,0,0,1-1-.53h0v1.86h-.58Zm.58.91a1.1,1.1,0,0,0,0,.26.91.91,0,0,0,.86.73c.62,0,1-.54,1-1.33s-.33-1.27-.94-1.27a1,1,0,0,0-.88.76,2.6,2.6,0,0,0,0,.26Z"/><path class="cls-4" d="M124.56,99.5a6.86,6.86,0,0,0,0,.83h-.52l0-.44h0a1.15,1.15,0,0,1-1,.51.94.94,0,0,1-1-1c0-.83.69-1.28,1.92-1.27v-.08a.69.69,0,0,0-.73-.79,1.39,1.39,0,0,0-.83.26l-.13-.42a1.91,1.91,0,0,1,1-.3c1,0,1.21.72,1.21,1.4Zm-.56-.92c-.63,0-1.35.1-1.35.77a.52.52,0,0,0,.54.59.8.8,0,0,0,.78-.57.64.64,0,0,0,0-.2Z"/><path class="cls-4" d="M129.6,100.21a2.26,2.26,0,0,1-.91.19,1.58,1.58,0,0,1-1.59-1.75,1.69,1.69,0,0,1,1.71-1.83,1.59,1.59,0,0,1,.8.19l-.13.47a1.31,1.31,0,0,0-.67-.16,1.15,1.15,0,0,0-1.12,1.3,1.14,1.14,0,0,0,1.1,1.28,1.52,1.52,0,0,0,.71-.16Z"/><path class="cls-4" d="M132.4,96.27a.38.38,0,0,1-.37-.4.38.38,0,0,1,.38-.4.4.4,0,0,1,0,.8Zm-.28.63h.58v3.43h-.58Z"/><path class="cls-4" d="M136.79,100.4a1.58,1.58,0,0,1-1.52-1.76,1.62,1.62,0,0,1,1.58-1.82,1.58,1.58,0,0,1,1.53,1.76,1.62,1.62,0,0,1-1.58,1.82Zm0-.46c.56,0,1-.56,1-1.34,0-.58-.27-1.31-.95-1.31s-1,.68-1,1.33.4,1.32,1,1.32Z"/><path class="cls-4" d="M140.87,99.7a1.59,1.59,0,0,0,.77.24c.41,0,.61-.22.61-.51s-.16-.46-.58-.63c-.58-.23-.85-.56-.85-1a1,1,0,0,1,1.1-1,1.38,1.38,0,0,1,.77.21l-.14.45a1.19,1.19,0,0,0-.65-.2.47.47,0,0,0-.52.47c0,.29.18.42.6.59s.83.51.83,1a1,1,0,0,1-1.18,1,1.76,1.76,0,0,1-.9-.24Z"/><path class="cls-5" d="M47.11,85.08a2.86,2.86,0,0,0-1,.72v-.94H44v10h2.26V90.13a3.66,3.66,0,0,1,.77-2.6,3.52,3.52,0,0,1,2.54-.77h.5V84.68h-.69A5.49,5.49,0,0,0,47.11,85.08Z"/><path class="cls-5" d="M58.9,90.12a3.58,3.58,0,0,1-1,2.11,3,3,0,0,1-4.15-.16,2.57,2.57,0,0,1-.21-.24L60.89,88l-.09-.18a5.83,5.83,0,0,0-2-2.32,5.3,5.3,0,0,0-2.87-.8,5.51,5.51,0,0,0-2.06.39,5.34,5.34,0,0,0-2.91,2.82,5.15,5.15,0,0,0-.4,2,5,5,0,0,0,.7,2.6,5.42,5.42,0,0,0,2,1.92,5.2,5.2,0,0,0,1.29.52,5.41,5.41,0,0,0,1.39.18,5.15,5.15,0,0,0,3.49-1.25,5.68,5.68,0,0,0,1.83-3.36l0-.21-2.29-.33ZM57.77,87.4,52.84,90v-.17a3.1,3.1,0,0,1,.87-2.24,2.84,2.84,0,0,1,2.15-.9,2.91,2.91,0,0,1,1.15.22A3.28,3.28,0,0,1,57.77,87.4Z"/><path class="cls-5" d="M67.2,84.68A4.38,4.38,0,0,0,63.9,86a4.81,4.81,0,0,0-1.24,3.46v5.45h2.25V89.12a2.29,2.29,0,0,1,.65-1.71,2.41,2.41,0,0,1,3.29,0,2.32,2.32,0,0,1,.64,1.71v5.76h2.23V89.43A4.84,4.84,0,0,0,70.5,86,4.36,4.36,0,0,0,67.2,84.68Z"/><path class="cls-5" d="M82.38,86.18a5.21,5.21,0,0,0-1.73-1.12,5.61,5.61,0,0,0-2.05-.38,5.28,5.28,0,0,0-3.75,1.5,5.38,5.38,0,0,0-1.18,1.69,5,5,0,0,0-.41,2,5.09,5.09,0,0,0,.41,2,5.17,5.17,0,0,0,1.18,1.69,5.28,5.28,0,0,0,3.75,1.5,5.61,5.61,0,0,0,2.05-.38,5.21,5.21,0,0,0,1.73-1.12,5.14,5.14,0,0,0,1.17-1.69,5.26,5.26,0,0,0,.4-2,5,5,0,0,0-1.57-3.67Zm-.76,3.65a3.11,3.11,0,0,1-.89,2.24,2.95,2.95,0,0,1-4.26,0,3.11,3.11,0,0,1-.89-2.24,3.06,3.06,0,0,1,.89-2.22,3,3,0,0,1,4.27,0A3.05,3.05,0,0,1,81.62,89.83Z"/><path class="cls-5" d="M89.34,92l-2.75-7.16H84.26l3.48,8.92a2.43,2.43,0,0,0,.62,1,1.48,1.48,0,0,0,1,.32,1.53,1.53,0,0,0,1-.32,2.33,2.33,0,0,0,.63-1l3.5-8.92H92.08Z"/><path class="cls-5" d="M103.1,90.12a3.5,3.5,0,0,1-1,2.11,3,3,0,0,1-4.15-.16,2.57,2.57,0,0,1-.21-.24L105.09,88l-.09-.18a5.81,5.81,0,0,0-2-2.32,5.33,5.33,0,0,0-2.88-.8,5.44,5.44,0,0,0-3.8,1.52,5.32,5.32,0,0,0-1.16,1.69,5,5,0,0,0-.41,2,5.09,5.09,0,0,0,.7,2.6,5.5,5.5,0,0,0,2,1.92,5.36,5.36,0,0,0,1.29.52,5.47,5.47,0,0,0,1.39.18,5.18,5.18,0,0,0,3.5-1.25,5.67,5.67,0,0,0,1.82-3.36l0-.21-2.29-.33ZM102,87.4,97.05,90a.91.91,0,0,1,0-.17,3.11,3.11,0,0,1,.88-2.24,2.83,2.83,0,0,1,2.14-.9,2.91,2.91,0,0,1,1.15.22A3.08,3.08,0,0,1,102,87.4Z"/><path class="cls-5" d="M117.32,84.68a4.22,4.22,0,0,0-1.82.39,4.14,4.14,0,0,0-1.29,1,4.1,4.1,0,0,0-1.28-1,4.15,4.15,0,0,0-1.83-.4,4.11,4.11,0,0,0-3.09,1.2,4.51,4.51,0,0,0-1.14,3.24v5.76h2.24V88.79a2,2,0,0,1,.55-1.48,1.9,1.9,0,0,1,1.44-.55,1.93,1.93,0,0,1,1.44.55,2,2,0,0,1,.56,1.48v6.09h2.24V88.79a2,2,0,0,1,.55-1.48,1.91,1.91,0,0,1,1.43-.55,1.93,1.93,0,0,1,1.44.55,2,2,0,0,1,.55,1.48v6.09h2.23V89.12a4.45,4.45,0,0,0-1.15-3.23A4.07,4.07,0,0,0,117.32,84.68Z"/><path class="cls-5" d="M132.19,86.18a5.21,5.21,0,0,0-1.73-1.12,5.61,5.61,0,0,0-2.05-.38,5.51,5.51,0,0,0-2,.38,5.37,5.37,0,0,0-1.72,1.12,5.22,5.22,0,0,0-1.18,1.69,4.81,4.81,0,0,0-.41,2,4.92,4.92,0,0,0,.41,2,5,5,0,0,0,1.18,1.69,5.37,5.37,0,0,0,1.72,1.12,5.51,5.51,0,0,0,2,.38,5.61,5.61,0,0,0,2.05-.38,5.21,5.21,0,0,0,1.73-1.12,5.16,5.16,0,0,0,1.57-3.7,5.11,5.11,0,0,0-1.57-3.67Zm-.76,3.65a3.11,3.11,0,0,1-.89,2.24,2.95,2.95,0,0,1-4.26,0,3.11,3.11,0,0,1-.89-2.24,3.06,3.06,0,0,1,.89-2.22,3,3,0,0,1,4.27,0A3.1,3.1,0,0,1,131.43,89.83Z"/><path class="cls-5" d="M142.38,90.34A6.93,6.93,0,0,0,140,89l-1.83-.7a2.74,2.74,0,0,1-.79-.43.5.5,0,0,1-.19-.38.49.49,0,0,1,.2-.44,1.07,1.07,0,0,1,.67-.18h4.46v-2h-4a4.55,4.55,0,0,0-2.65.66,2.29,2.29,0,0,0-1,2,2.35,2.35,0,0,0,.64,1.7,5.77,5.77,0,0,0,2.19,1.25l1.73.67a3.45,3.45,0,0,1,1,.53.6.6,0,0,1-.06,1,1.69,1.69,0,0,1-.92.21h-4.6v2.06h3.64a6.54,6.54,0,0,0,3.34-.68,2.59,2.59,0,0,0,.49-3.86Z"/><rect class="cls-6" x="14.7" y="54.11" width="135.59" height="56.78"/></g></g></svg>