<svg xmlns="http://www.w3.org/2000/svg" viewBox="0 0 165 165"><defs><style>.cls-1{fill:#fff;}.cls-2,.cls-3{fill:#294b5b;}.cls-3{opacity:0.6;}</style></defs><g id="Capa_2" data-name="Capa 2"><g id="Capa_1-2" data-name="Capa 1"><rect class="cls-1" width="165" height="165"/><path class="cls-2" d="M43.09,88v.16h-3.4c-1.41,0-3.91,0-5.13-1.38-2.79-3.06-2.14-9.41-5.45-9.6H28v7.38c0,2.28.19,3.44,2,3.44v.16H21V88c1.83,0,2-1.16,2-3.44V69.89c0-2.31-.19-3.44-2-3.44V66.3H31.2c3.11,0,7.15,1.34,7.15,5.44,0,3.59-3,5.06-6.09,5.41,3.68.72,4.61,3.12,6,6.19C39.21,85.34,40.85,88,43.09,88Zm-12.63-11c2.37,0,2.63-2.81,2.63-5.31s-.8-5.29-2.63-5.29H30c-1.83,0-2,1.13-2,3.44v7.16Z"/><path class="cls-2" d="M52.09,84.57c0,2.32.19,3.44,2,3.44v.16H45.28V88c1.78,0,1.93-1.12,2-3.44V69.88c0-2.29-.19-3.44-2-3.44v-.16h8.78v.16c-1.78,0-2,1.15-2,3.44Z"/><path class="cls-2" d="M102.44,88v.16H93.51V88c1.47,0,1.69-.59.84-2.88-.3-.87-1.21-3.31-2-5.63H86.71c-.46,1.19-.88,2.32-1,2.54-.93,2.62-.69,6,1.33,6v.16H80.64V88c1.93-.38,3.35-1.75,4.53-4.85L91.54,66.3h.67s5.92,15.51,6.7,17.51S100.54,88,102.44,88Zm-10.23-8.7c-1.26-3.41-2.48-6.75-2.69-7.28-1,2.63-2,5.25-2.76,7.28Z"/><path class="cls-2" d="M118.78,70.8h-.16c-.87-2-2.21-4.32-5.26-4.35-1.71,0-1.87,1.16-1.9,3.1V84.24c0,2.63.19,3.79,2,3.79v.16h-8.75V88c1.78,0,2-1.16,2-3.79V69.55c0-1.94-.18-3.07-1.9-3.1-3,0-4.35,2.32-5.26,4.35h-.15l.59-4.5h18.28Z"/><path class="cls-2" d="M134.19,88.24c-6,.52-11.59-3.39-12.1-10s3.78-11.31,9.79-11.86,11.6,3.3,12.05,9.7C144.41,83,140.21,87.69,134.19,88.24Zm4.75-11.53c-.4-6.07-3.73-10.52-7.09-10.21s-5.3,5.42-4.74,11.28,3.73,10.58,7.08,10.3S139.33,82.81,138.94,76.71Z"/><path class="cls-2" d="M82.44,66.27a2.88,2.88,0,0,0-.31.17l-.13.09-.11.09a2.91,2.91,0,0,0-.34.38l-.14.18-.15.18a1.74,1.74,0,0,1-.43.34,2.36,2.36,0,0,0-.59.62,2.75,2.75,0,0,0-.15.25q-.07.14-.15.3a2.52,2.52,0,0,0-.14.33c0,.12-.08.24-.11.37A3.3,3.3,0,0,1,80,69a1.62,1.62,0,0,1,.31-.29,1.14,1.14,0,0,1,.29-.15l.32-.08a1.84,1.84,0,0,0,1.54-1.24,1.83,1.83,0,0,1,.14-.28,1.15,1.15,0,0,1,.14-.2,1.18,1.18,0,0,1,.27-.25c.17-.11.29-.12.32-.17S82.92,66.05,82.44,66.27Z"/><path class="cls-2" d="M81.37,68.79a1,1,0,0,0-.31,0,1.12,1.12,0,0,0-.34.11,2.13,2.13,0,0,0-.53.38,1.45,1.45,0,0,0-.17.19l-.14.2c-.09.13-.17.26-.27.38a1.84,1.84,0,0,1-.4.38.53.53,0,0,0-.12.1.67.67,0,0,0-.14.15,4.1,4.1,0,0,0-.28.41c0,.09-.09.18-.14.27a2.83,2.83,0,0,0-.11.31,3.58,3.58,0,0,0-.11.35l0,.09-.15.62.24-.66a1.57,1.57,0,0,1,1-.84,3.69,3.69,0,0,0,.48-.19,1.8,1.8,0,0,0,.4-.25,1.42,1.42,0,0,0,.31-.37,2.93,2.93,0,0,0,.25-.53,1,1,0,0,1,.12-.28,1.07,1.07,0,0,1,.13-.21,1.25,1.25,0,0,1,.25-.26c.16-.11.28-.13.31-.18S81.55,68.82,81.37,68.79Z"/><path class="cls-3" d="M78.33,68.49l0,.14c0,.06,0,.11,0,.16a2.53,2.53,0,0,1,.12.72,3.3,3.3,0,0,1-.25,1.06,4.76,4.76,0,0,0,.37-.64,4.9,4.9,0,0,0,.27-.58l.09-.26c0-.08,0-.16.07-.23a2.32,2.32,0,0,0,.07-.39,1.53,1.53,0,0,1,0-.32,2.13,2.13,0,0,1,.08-.27c.07-.16.15-.3.22-.46l.13-.23q.06-.12.12-.27A5,5,0,0,0,80,66.2c.12-.6-.13-1.12-.24-1a3.55,3.55,0,0,0-.13.43,3,3,0,0,1-.2.4,3.8,3.8,0,0,1-.41.51l-.13.14-.11.15a1.67,1.67,0,0,0-.18.28,1.73,1.73,0,0,0-.21.54,2.12,2.12,0,0,0,0,.56Z"/><path class="cls-2" d="M77.84,73.65c0-.08.16-.78.17-.86s0-.22,0-.33,0-.21,0-.31a4.67,4.67,0,0,0,0-.53c0-.08,0-.15,0-.21s0-.13,0-.18a2.17,2.17,0,0,1,0-.6c0-.18.06-.35.09-.52s0-.17,0-.26,0-.2,0-.3a3.93,3.93,0,0,0,0-.76,1.3,1.3,0,0,0-.09-.42,1.12,1.12,0,0,0-.15-.31c-.11-.16-.22-.23-.25-.16s0,.22,0,.46a2.39,2.39,0,0,1-.08.45,1.43,1.43,0,0,1-.1.29c0,.1-.09.22-.15.34a4.08,4.08,0,0,0-.24.69,2,2,0,0,0,.08,1.14,3.31,3.31,0,0,0,.27.53,2.11,2.11,0,0,1,.42,1.28v.57Z"/><path class="cls-3" d="M82.88,63.65l-.38.21-.46.3a2.15,2.15,0,0,0-.32.26c-.11.11-.22.25-.35.41l-.18.25a2.75,2.75,0,0,0-.19.28q-.18.28-.36.6l-.2.46-.12.29L80.2,67l-.23.63a4.18,4.18,0,0,1-.21.53l.36-.42q.21-.23.45-.45l.22-.22.22-.2q.21-.19.33-.33l.45-.49.21-.23.19-.23a4.92,4.92,0,0,0,.31-.41,2,2,0,0,0,.21-.34c.09-.18.16-.35.24-.51s.14-.28.19-.4.17-.4.13-.43S83.1,63.53,82.88,63.65Z"/><path class="cls-2" d="M77.22,72.13a1.06,1.06,0,0,1,.29.27,1,1,0,0,1,.11.17s0-.1-.06-.15a2.47,2.47,0,0,0-.27-.44,1.44,1.44,0,0,0-.28-.27.87.87,0,0,0-.8-.07h0a1,1,0,0,0-.57.63,1,1,0,0,0,.14.79.66.66,0,0,0,.57.3.73.73,0,0,0,.46-.23.94.94,0,0,0,.25-.42,1.8,1.8,0,0,0,.06-.65h0l0,0Z"/><path class="cls-2" d="M78.53,73.26h0a6.88,6.88,0,0,0-.44,2.58V87.37a6.89,6.89,0,0,0,.39,2.29h0v-15c0-.2,0-.41,0-.61Z"/><path class="cls-2" d="M60.83,82.13v-12l-.55-.57,0,0,0,12.59c0,3.72-1.69,5.91-4,5.91v.16h8.47V88C62.48,88,60.83,85.85,60.83,82.13Z"/><path class="cls-2" d="M76,79.5l.16.19L76,79.5,65.48,67.16l-.27-.32a1.44,1.44,0,0,0-1.1-.52H58v.15a1.89,1.89,0,0,1,1,.24,1.49,1.49,0,0,1,.2.15,1,1,0,0,1,.18.22l.16.19,0,.06a0,0,0,0,1,0,0l1.81,2.16h0l3.09,3.7,12.51,15h.2V83A5.49,5.49,0,0,0,76,79.5Z"/><path class="cls-2" d="M61.09,100.75a1.32,1.32,0,0,1-.64.15,1.57,1.57,0,0,1-.67-.13,1.43,1.43,0,0,1-.5-.36,1.79,1.79,0,0,1-.32-.53,2,2,0,0,1-.1-.64,1.87,1.87,0,0,1,.11-.68,1.66,1.66,0,0,1,.32-.55,1.7,1.7,0,0,1,.5-.38,1.59,1.59,0,0,1,.66-.13,1.28,1.28,0,0,1,.57.13,1.16,1.16,0,0,1,.46.36l.48-.37a1.47,1.47,0,0,0-.67-.5,2.14,2.14,0,0,0-.82-.16,2.24,2.24,0,0,0-.91.17,2,2,0,0,0-.7.47,2.07,2.07,0,0,0-.46.72,2.51,2.51,0,0,0-.16.92,2.25,2.25,0,0,0,.59,1.5,2.21,2.21,0,0,0,.69.51,2.1,2.1,0,0,0,.92.19,2.06,2.06,0,0,0,.64-.09,2.15,2.15,0,0,0,.48-.22,1.48,1.48,0,0,0,.32-.24l.17-.19-.49-.37A1.35,1.35,0,0,1,61.09,100.75Z"/><path class="cls-2" d="M70.87,99.73a2.09,2.09,0,0,1-.05.42,1.38,1.38,0,0,1-.18.39,1.1,1.1,0,0,1-.34.3,1.06,1.06,0,0,1-.5.11,1.13,1.13,0,0,1-.51-.11,1,1,0,0,1-.33-.3,1.38,1.38,0,0,1-.18-.39,1.58,1.58,0,0,1-.06-.42V97.12h-.57v2.7a1.83,1.83,0,0,0,.12.68,1.63,1.63,0,0,0,.35.53,1.55,1.55,0,0,0,.53.34,1.82,1.82,0,0,0,1.3,0A1.42,1.42,0,0,0,71,101a1.49,1.49,0,0,0,.35-.53,1.65,1.65,0,0,0,.13-.68v-2.7h-.58Z"/><path class="cls-2" d="M80.53,100.8a1.36,1.36,0,0,1-.65.15,1.6,1.6,0,0,1-.67-.13,1.64,1.64,0,0,1-.5-.36,1.76,1.76,0,0,1-.31-.53,2,2,0,0,1-.11-.64,2.15,2.15,0,0,1,.11-.68,1.68,1.68,0,0,1,.33-.55,1.42,1.42,0,0,1,.5-.37,1.51,1.51,0,0,1,.65-.14,1.33,1.33,0,0,1,.58.13,1.13,1.13,0,0,1,.45.36l.49-.37a1.67,1.67,0,0,0-.67-.5,2.35,2.35,0,0,0-1.73,0,2,2,0,0,0-.71.47,2.2,2.2,0,0,0-.45.72,2.51,2.51,0,0,0-.16.92,2.26,2.26,0,0,0,.15.8,2.1,2.1,0,0,0,.43.7,2.26,2.26,0,0,0,.7.51,2.06,2.06,0,0,0,.91.19,2.13,2.13,0,0,0,.65-.09,2.18,2.18,0,0,0,.8-.46l.17-.19-.49-.37A1.44,1.44,0,0,1,80.53,100.8Z"/><rect class="cls-2" x="87.58" y="97.12" width="0.58" height="4.27"/><polygon class="cls-2" points="97.38 100.58 97.37 100.58 95.01 97.06 94.25 97.06 94.25 101.33 94.83 101.33 94.83 97.83 94.84 97.83 97.22 101.33 97.96 101.33 97.96 97.06 97.38 97.06 97.38 100.58"/><polygon class="cls-2" points="104.63 100.79 104.63 99.42 106.66 99.42 106.66 98.88 104.63 98.88 104.63 97.61 106.81 97.61 106.81 97.06 104.05 97.06 104.05 101.33 106.92 101.33 106.92 100.79 104.63 100.79"/></g></g></svg>