<svg xmlns="http://www.w3.org/2000/svg" viewBox="0 0 165 165"><defs><style>.cls-1{fill:#ab8774;}.cls-2{fill:#2f4844;}.cls-3{fill:#986b53;}</style></defs><g id="Capa_2" data-name="Capa 2"><g id="Capa_1-2" data-name="Capa 1"><rect class="cls-1" width="165" height="165"/><path class="cls-2" d="M71,39.8a0,0,0,0,1,0,.06l-1.08.37a.06.06,0,0,1-.07,0,1.66,1.66,0,0,0-2-.66,1.64,1.64,0,0,0-1.08,1.11,3.13,3.13,0,0,0,.13,1.91c.49,1.43,1.43,2.06,2.56,1.68a1.9,1.9,0,0,0,.94-.71,1.57,1.57,0,0,0,.18-.44,1.5,1.5,0,0,0,.07-.61.08.08,0,0,1,0-.07l1.07-.36a0,0,0,0,1,.06,0,2.76,2.76,0,0,1-2,3.19c-2,.68-3.4-.33-4.08-2.31s-.21-3.78,1.76-4.46A2.78,2.78,0,0,1,71,39.8"/><path class="cls-2" d="M76.56,39.94a3.11,3.11,0,0,0,.65,1.79,1.85,1.85,0,0,0,2.8-.25,3.1,3.1,0,0,0,.33-1.88,3,3,0,0,0-.66-1.77,1.62,1.62,0,0,0-1.45-.54,1.64,1.64,0,0,0-1.34.77,3,3,0,0,0-.33,1.88m-1.23.11a3.42,3.42,0,0,1,1.11-3.22,3.13,3.13,0,0,1,1.69-.62,2.84,2.84,0,0,1,2.93,1.46,4.79,4.79,0,0,1,.51,1.82,3.49,3.49,0,0,1-1.12,3.24,3.2,3.2,0,0,1-1.68.61,2.84,2.84,0,0,1-2.93-1.47,4.56,4.56,0,0,1-.51-1.82"/><path class="cls-2" d="M85,42.09a.28.28,0,0,1,.07-.11l4-4.22s0-.07,0-.08l-3.32-.44a0,0,0,0,1,0-.06l.13-1s0,0,0,0l4.89.65s0,0,0,.06l-.12.93a.36.36,0,0,1,0,.09l-4,4.21s0,.08,0,.09l3.32.44a.05.05,0,0,1,0,0l-.13,1a.06.06,0,0,1-.06.05L85,43.06a.05.05,0,0,1,0-.06Z"/><path class="cls-2" d="M96.57,38.28a.08.08,0,0,1,.05.07l.48,3.17s.06.06.08,0l2.4-2.12s.06,0,.1,0l1.21.44a.05.05,0,0,1,0,.09l-3.59,2.92a.13.13,0,0,0,0,.06l-1,2.62a0,0,0,0,1-.06,0l-1-.37a0,0,0,0,1,0-.06l1-2.62a.22.22,0,0,0,0-.08l-.87-4.54s0-.07.07-.06Z"/><path class="cls-2" d="M58.57,113.25s0,0,.07,0l.89.62a.05.05,0,0,1,0,.07l-3.29,4.76s0,0,0,.06L59,120.65s0,0,0,.07l-.56.81a0,0,0,0,1-.07,0L54.69,119a.05.05,0,0,1,0-.07Z"/><path class="cls-2" d="M65.13,117.42a0,0,0,0,1,.06,0l4.46,1.87a0,0,0,0,1,0,.06l-.38.91s0,0-.07,0l-3.36-1.41a.05.05,0,0,0-.07,0l-.65,1.57s0,0,0,.06l2.91,1.22a0,0,0,0,1,0,.06l-.38.91a.05.05,0,0,1-.07,0l-2.91-1.22a0,0,0,0,0-.06,0L64,123.2a0,0,0,0,0,0,.06l3.37,1.41a0,0,0,0,1,0,.06l-.38.92s0,0-.06,0l-4.46-1.86a.05.05,0,0,1,0-.07Z"/><path class="cls-2" d="M73.17,120.29s0,0,.06,0l1.06.24a0,0,0,0,1,0,.06l-1.51,6.68s0,.05-.06,0L71.69,127s0,0,0-.06Z"/><path class="cls-2" d="M77.55,126.18l1.14.06a0,0,0,0,1,0,.05.78.78,0,0,0,.4.66,1.86,1.86,0,0,0,1,.33,1.59,1.59,0,0,0,1-.26.88.88,0,0,0,.45-.72c0-.47-.43-.88-1.38-1-1.61-.23-2.63-.73-2.56-2.14a2.26,2.26,0,0,1,2.56-1.93c1.31.06,2.48.84,2.42,2.13,0,0,0,0,0,0l-1.15,0s0,0,0-.07a.8.8,0,0,0-.32-.63,1.49,1.49,0,0,0-.92-.34,1.43,1.43,0,0,0-.89.25.82.82,0,0,0-.38.66.61.61,0,0,0,.28.55,2.85,2.85,0,0,0,1.1.35,5.11,5.11,0,0,1,.74.15,3.68,3.68,0,0,1,.77.27,1.76,1.76,0,0,1,1,1.84,1.9,1.9,0,0,1-.79,1.53,3,3,0,0,1-2,.47c-2-.09-2.65-1.2-2.6-2.13a0,0,0,0,1,0,0"/><path class="cls-2" d="M86.37,121.32s0,0,0-.06l1.07-.18s0,0,0,0l.76,4.44a1.23,1.23,0,0,0,.54.85,1.31,1.31,0,0,0,1,.23,1.35,1.35,0,0,0,1.1-1.53l-.76-4.43a.06.06,0,0,1,0-.06l1.07-.18s0,0,.06,0l.75,4.43a2.52,2.52,0,0,1-5,.84Z"/><path class="cls-2" d="M97,122a0,0,0,0,0,.07,0l1.53-.62a1.05,1.05,0,0,0,.5-1.34,1,1,0,0,0-.56-.57.94.94,0,0,0-.77,0L96.3,120s0,0,0,0Zm-2.26-2.44a0,0,0,0,1,0-.06l2.68-1.09a2,2,0,0,1,1.6,0,2.05,2.05,0,0,1,1.14,1.17,2.16,2.16,0,0,1-.29,2.15,0,0,0,0,0,0,0l2.22,2.15a.05.05,0,0,1,0,.09l-1.05.42H101l-2-2s-.05,0-.06,0l-1.44.58s0,0,0,0l1,2.39a0,0,0,0,1,0,.06l-1,.41a.05.05,0,0,1-.07,0Z"/><path class="cls-2" d="M102.5,116a0,0,0,0,1,0-.07l4-2.74a0,0,0,0,1,.07,0l.56.82a0,0,0,0,1,0,.07l-3,2.06a0,0,0,0,0,0,.07l1,1.4a.05.05,0,0,0,.07,0l2.6-1.79a0,0,0,0,1,.07,0l.56.81a0,0,0,0,1,0,.07l-2.6,1.79a0,0,0,0,0,0,.07l1,1.48s0,0,.06,0l3-2.06a0,0,0,0,1,.07,0l.56.81a0,0,0,0,1,0,.07l-4,2.74s-.06,0-.07,0Z"/><path class="cls-3" d="M82.5,137.59a54.76,54.76,0,0,1-39-16.13,1.65,1.65,0,1,1,2.33-2.33,51.81,51.81,0,0,0,73.26,0,1.64,1.64,0,0,1,2.33,0,1.65,1.65,0,0,1,0,2.33,54.76,54.76,0,0,1-39,16.13"/><path class="cls-3" d="M44.71,46.35a1.65,1.65,0,0,1-1.17-2.81,55.1,55.1,0,0,1,77.91,0,1.64,1.64,0,0,1,0,2.33,1.65,1.65,0,0,1-2.33,0,51.8,51.8,0,0,0-73.25,0,1.64,1.64,0,0,1-1.16.48"/><path class="cls-2" d="M105.4,104.89l-.34-.15a.59.59,0,0,0-.76.3l-1.72,3.71a.62.62,0,0,0,.37.8l.41.18a.62.62,0,0,0,.85-.28l1.5-3.8a.61.61,0,0,0-.31-.76"/><path class="cls-2" d="M103,103.72a3.21,3.21,0,0,1-.31-.19.59.59,0,0,0-.78.21l-2.14,3.48a.63.63,0,0,0,.28.86l.39.23a.66.66,0,0,0,.88-.2l1.9-3.62a.57.57,0,0,0-.22-.77"/><path class="cls-2" d="M100.81,102.29l-.28-.22a.61.61,0,0,0-.8.12l-2.64,3.12a.63.63,0,0,0,.18.89l.37.28a.62.62,0,0,0,.9,0l2.36-3.34a.6.6,0,0,0-.09-.8"/><path class="cls-2" d="M99,100.63l-.24-.23a.63.63,0,0,0-.86-.08L94.76,103a.59.59,0,0,0,0,.85l.34.34a.67.67,0,0,0,.93.11l2.9-2.89a.55.55,0,0,0,0-.77"/><path class="cls-2" d="M92.75,101.64l.27.3a.63.63,0,0,0,.86.08L97,99.34a.58.58,0,0,0,0-.84l-.27-.31a.63.63,0,0,0-.86-.07l-3.08,2.68a.58.58,0,0,0,0,.84"/><path class="cls-2" d="M90.75,99.44l.28.3a.61.61,0,0,0,.85.08L95,97.14a.59.59,0,0,0,0-.85l-.27-.3a.62.62,0,0,0-.86-.08L90.77,98.6a.59.59,0,0,0,0,.84"/><path class="cls-2" d="M89,97.55a.63.63,0,0,0,.86.07L93,94.93a.6.6,0,0,0,0-.85l-.27-.3a.62.62,0,0,0-.86-.08l-3.07,2.7a.59.59,0,0,0,0,.84Z"/><path class="cls-2" d="M87,95.35a.62.62,0,0,0,.86.07L91,92.72a.6.6,0,0,0,0-.85l-.27-.3a.62.62,0,0,0-.86-.07l-3.06,2.7a.6.6,0,0,0,0,.85Z"/><path class="cls-2" d="M83.91,91l3-2.72a.6.6,0,0,0,0-.85l-.28-.3a.61.61,0,0,0-.85-.08l-3,2.73a.59.59,0,0,0,0,.84l.28.31a.61.61,0,0,0,.85.07"/><path class="cls-2" d="M83.85,84.88l-3,2.73a.6.6,0,0,0,0,.85l.27.3a.61.61,0,0,0,.85.07l3-2.73a.6.6,0,0,0,0-.85L84.7,85a.6.6,0,0,0-.85-.07"/><path class="cls-2" d="M83,83.05l-.27-.31a.61.61,0,0,0-.85-.07l-3,2.74a.61.61,0,0,0,0,.85l.27.3a.6.6,0,0,0,.85.07l3-2.73a.6.6,0,0,0,0-.85"/><path class="cls-2" d="M77.93,84.43l3-2.74a.6.6,0,0,0,0-.85l-.27-.31a.61.61,0,0,0-.85-.07l-3,2.75a.6.6,0,0,0,0,.85l.27.31a.6.6,0,0,0,.85.06"/><path class="cls-2" d="M74.81,81.87l.28.3a.61.61,0,0,0,.85.07l3-2.76a.6.6,0,0,0,0-.85l-.28-.3a.58.58,0,0,0-.84-.07l-3,2.75a.62.62,0,0,0,0,.86"/><path class="cls-2" d="M73.21,80.12c.09.07,0,0,.06,0l0,0a.59.59,0,0,0,.62-.09l3-2.76a.59.59,0,0,0,.18-.39.91.91,0,0,0,0-.23,3,3,0,0,0-.25-.36l-.07,0-.4-.32a.58.58,0,0,0-.8.08l-2.71,3.06A.65.65,0,0,0,73,80l.18.15"/><path class="cls-2" d="M71.84,78.09l2.87-2.91a.57.57,0,0,0,0-.8l-.25-.27a.59.59,0,0,0-.81,0l-3.07,2.7a.63.63,0,0,0,0,.9l.31.32a.63.63,0,0,0,.9.08"/><path class="cls-2" d="M68.53,75.1l.27.37a.64.64,0,0,0,.89.21l3.22-2.51a.61.61,0,0,0,.14-.8l-.21-.28a.58.58,0,0,0-.79-.13l-3.43,2.23a.64.64,0,0,0-.09.91"/><path class="cls-2" d="M84.77,92.85l.14.15.14.15a.61.61,0,0,0,.85.08L89,90.52a.6.6,0,0,0,0-.85l-.14-.15-.14-.15a.61.61,0,0,0-.85-.08L84.79,92a.59.59,0,0,0,0,.84"/><path class="cls-2" d="M71,68.08a1.6,1.6,0,0,1,0-.29.57.57,0,0,0-.64-.4l-4.07.35c-.33,0-.54.4-.48.84,0,0,0,.13,0,.26s0,.25,0,.25c.1.43.43.7.74.62l4-1a.56.56,0,0,0,.47-.59"/><path class="cls-2" d="M66.24,66.1l4.07.29a.58.58,0,0,0,.63-.38l0-.27a.55.55,0,0,0-.45-.57l-3.94-1.1a.69.69,0,0,0-.76.64l-.09.53a.69.69,0,0,0,.5.86"/><path class="cls-2" d="M67.14,62.54l3.72,1.68a.58.58,0,0,0,.74-.15l.14-.27a.56.56,0,0,0-.23-.71L68.12,60.8a.67.67,0,0,0-.9.33l-.25.46a.66.66,0,0,0,.17.95"/><path class="cls-2" d="M72.17,62.22a.55.55,0,0,0,.77,0l.24-.23a.59.59,0,0,0,0-.8l-2.77-3a.65.65,0,0,0-.92.09l-.34.34a.66.66,0,0,0,0,.94Z"/><path class="cls-2" d="M74,60.45a.59.59,0,0,0,.8.13l.29-.21a.54.54,0,0,0,.21-.37.72.72,0,0,0-.14-.39L73,56.15c-.07-.14-.28-.19-.45-.2a.66.66,0,0,0-.49.15l-.38.27a.62.62,0,0,0-.2.87Z"/><path class="cls-2" d="M75.91,59.3c.1.31.33.5.57.46a2.3,2.3,0,0,1,.28-.06.57.57,0,0,0,.4-.65L76.68,55c0-.32-.41-.53-.83-.46l-.51.1c-.44.09-.74.47-.64.77Z"/><path class="cls-2" d="M78.83,59.55h.35a.58.58,0,0,0,.58-.55L80,54.93a.63.63,0,0,0-.66-.62h-.47a.65.65,0,0,0-.71.59L78.29,59a.57.57,0,0,0,.54.58"/><path class="cls-2" d="M81.4,59.78l.34.06a.58.58,0,0,0,.64-.46l.9-4a.65.65,0,0,0-.58-.72l-.46-.08a.63.63,0,0,0-.77.48l-.53,4a.59.59,0,0,0,.46.66"/><path class="cls-2" d="M66.92,72.31l.1.22a.65.65,0,0,0,.85.38L71.46,71a.56.56,0,0,0,.28-.73l-.06-.15-.07-.15a.58.58,0,0,0-.73-.24l-3.81,1.48a.66.66,0,0,0-.26.91Z"/><path class="cls-2" d="M83.64,60.41l.13.05.14.07a.61.61,0,0,0,.69-.33l2-3.56c.16-.29,0-.67-.43-.85l-.24-.11-.24-.11c-.4-.17-.82-.06-.92.24l-1.36,3.85a.62.62,0,0,0,.22.75"/><path class="cls-2" d="M85.45,61.54l.22.2a.6.6,0,0,0,.77-.1l3-2.78c.24-.21.17-.64-.15-.94l-.38-.35a.65.65,0,0,0-1,0l-2.48,3.25a.62.62,0,0,0,0,.76"/><path class="cls-2" d="M86.86,63.19l.15.27a.59.59,0,0,0,.76.14l3.67-1.8a.64.64,0,0,0,.14-.93l-.26-.45a.65.65,0,0,0-.9-.32l-3.33,2.37a.59.59,0,0,0-.23.72"/><path class="cls-2" d="M87.75,65.22l.06.3a.58.58,0,0,0,.68.35l4-.69c.32-.05.5-.44.41-.86l-.12-.5a.65.65,0,0,0-.78-.55l-3.87,1.31a.57.57,0,0,0-.41.64"/><path class="cls-2" d="M88.6,66.93a.59.59,0,0,0-.56.43s0,.08,0,.08a.83.83,0,0,0,.5.41l3.9,1.22c.29.08.72-.15.79-.79l.08-.73c0-.55-.29-.8-.6-.81Z"/><path class="cls-2" d="M91.58,72l.27-.43a.66.66,0,0,0-.12-.94l-3.58-2a.57.57,0,0,0-.76.13l-.17.27a.56.56,0,0,0,.17.76l3.3,2.41a.66.66,0,0,0,.89-.24"/><path class="cls-2" d="M85.85,70.82l-.25.28a.59.59,0,0,0,0,.82l3,2.81a.63.63,0,0,0,.89-.09l.29-.34a.61.61,0,0,0,0-.89l-3.13-2.63a.6.6,0,0,0-.81,0"/><path class="cls-2" d="M87.24,76.9l.32-.3a.63.63,0,0,0,.07-.88L84.76,72.8a.58.58,0,0,0-.82,0l-.28.27a.6.6,0,0,0,0,.83l2.74,3a.62.62,0,0,0,.88,0"/><path class="cls-2" d="M85.33,77.82l-2.65-3.1a.6.6,0,0,0-.83-.06l-.3.24a.72.72,0,0,0-.13.86l2.63,3.13c.12.31.55.31.83.08l.33-.28a.61.61,0,0,0,.12-.87"/><path class="cls-2" d="M98.87,84.84l4.08.29a.59.59,0,0,0,.62-.58l0-.42a.59.59,0,0,0-.54-.65L99,83.27a.6.6,0,0,0-.62.56l0,.38a.59.59,0,0,0,.54.63"/><path class="cls-2" d="M98.61,87.66l4.07.44a.61.61,0,0,0,.65-.56l0-.41a.61.61,0,0,0-.53-.68l-4.07-.36a.6.6,0,0,0-.63.54l0,.38a.58.58,0,0,0,.51.65"/><path class="cls-2" d="M98.26,90.45l4,.63a.61.61,0,0,0,.66-.54l.06-.42a.6.6,0,0,0-.49-.7l-4-.51a.61.61,0,0,0-.67.5l0,.38a.6.6,0,0,0,.5.66"/><path class="cls-2" d="M97.74,93.12l4,1a.63.63,0,0,0,.72-.53l.08-.42a.62.62,0,0,0-.44-.75l-4-.75a.58.58,0,0,0-.68.44l-.07.37a.55.55,0,0,0,.44.65"/><path class="cls-2" d="M96.94,95.57l3.62,1.56a.59.59,0,0,0,.85-.37l.16-.3c.18-.43.07-.87-.24-1l-3.89-1.28c-.74-.2-1.16,1-.5,1.35"/><path class="cls-2" d="M91.23,102.67a.53.53,0,0,0-.77-.06.67.67,0,0,1-.14.11l-.14.1a.55.55,0,0,0-.08.78l2.49,3.24a.66.66,0,0,0,.91,0l.18-.13.18-.14a.66.66,0,0,0,.09-.91Z"/><path class="cls-2" d="M89.16,104.28a.54.54,0,0,0-.75-.17,1.75,1.75,0,0,1-.29.18.53.53,0,0,0-.18.75l2,3.57a.66.66,0,0,0,.9.18,2,2,0,0,0,.39-.24.67.67,0,0,0,.23-.88Z"/><path class="cls-2" d="M86.92,105.56a.53.53,0,0,0-.7-.28s-.33.11-.33.11a.55.55,0,0,0-.29.71L87,110a.66.66,0,0,0,.86.32s.44-.15.43-.16a.68.68,0,0,0,.38-.84Z"/><path class="cls-2" d="M84.53,106.47a.58.58,0,0,0-.65-.43l-.33,0a.55.55,0,0,0-.4.66l.69,4a.64.64,0,0,0,.79.45l.46-.08a.61.61,0,0,0,.52-.74Z"/><path class="cls-2" d="M81.47,106.36h-.34a.58.58,0,0,0-.51.6l0,4.09a.63.63,0,0,0,.7.56h.47a.6.6,0,0,0,.65-.6L82,106.94a.61.61,0,0,0-.56-.58"/><path class="cls-2" d="M79,106.28l-.34,0a.62.62,0,0,0-.61.52l-.71,4a.61.61,0,0,0,.59.66l.46,0a.62.62,0,0,0,.74-.5l.33-4.08a.58.58,0,0,0-.46-.64"/><path class="cls-2" d="M76.59,105.81l-.33-.08a.56.56,0,0,0-.69.37L74.24,110a.66.66,0,0,0,.46.79l.45.11a.63.63,0,0,0,.81-.4l1-4a.55.55,0,0,0-.36-.69"/><path class="cls-2" d="M74.24,105l-.31-.16a.56.56,0,0,0-.74.28l-1.89,3.62a.63.63,0,0,0,.34.83l.4.21a.64.64,0,0,0,.87-.27l1.59-3.77a.59.59,0,0,0-.26-.74"/><path class="cls-2" d="M72,103.72l-.28-.19a.6.6,0,0,0-.79.18L68.56,107a.62.62,0,0,0,.23.86l.38.25a.61.61,0,0,0,.88-.12l2.13-3.49a.6.6,0,0,0-.14-.79"/><path class="cls-2" d="M70.06,102.21l-.14-.11L69.8,102a.54.54,0,0,0-.76,0l-2.92,2.86a.66.66,0,0,0,.07.92l.17.15.18.15a.64.64,0,0,0,.91,0L70.08,103a.55.55,0,0,0,0-.78"/><path class="cls-2" d="M68.42,100.44l-.18-.25a.6.6,0,0,0-.79-.08L64,102.33a.61.61,0,0,0-.06.9l.28.39a.62.62,0,0,0,.88.21l3.14-2.62a.59.59,0,0,0,.16-.77"/><path class="cls-2" d="M67.27,98.53l-.09-.29a.55.55,0,0,0-.7-.25l-3.91,1.2a.67.67,0,0,0-.31.9l.16.47a.68.68,0,0,0,.86.42L67,99.19a.53.53,0,0,0,.31-.66"/><path class="cls-2" d="M66.23,97a.53.53,0,0,0,.49-.56,2.77,2.77,0,0,1,0-.3.54.54,0,0,0-.59-.45L62,95.8a.67.67,0,0,0-.56.76,4.1,4.1,0,0,0,.06.49c.07.42.38.71.7.65Z"/><path class="cls-2" d="M62,94.29l4.07.31a.56.56,0,0,0,.63-.44l0-.32a.55.55,0,0,0-.48-.6l-4-.79a.66.66,0,0,0-.71.6l0,.47a.65.65,0,0,0,.51.77"/><path class="cls-2" d="M62.63,91l3.93,1.12a.59.59,0,0,0,.72-.34l.09-.32a.57.57,0,0,0-.36-.7l-3.82-1.46a.62.62,0,0,0-.78.44l-.14.44a.62.62,0,0,0,.36.82"/><path class="cls-2" d="M63.74,88l3.72,1.7a.58.58,0,0,0,.76-.25l.16-.31a.59.59,0,0,0-.26-.76l-3.59-2a.62.62,0,0,0-.83.31l-.2.4a.63.63,0,0,0,.24.86"/><path class="cls-2" d="M65.23,85.24l3.48,2.13a.57.57,0,0,0,.79-.16l.2-.3a.57.57,0,0,0-.17-.78l-3.35-2.35a.64.64,0,0,0-.86.22l-.24.37a.62.62,0,0,0,.15.87"/><path class="cls-2" d="M71.2,84.06l-3-2.8a.59.59,0,0,0-.92,0l-.25.23c-.33.35-.37.79-.12,1l3.35,2.62c.63.44,1.44-.57.93-1.08"/><path class="cls-3" d="M26.92,81.83c0,.22.09.31.3.31h11.2a7.85,7.85,0,0,0,7.34-7.83c0-4.32-3.67-8.08-7.59-8.08h-11c-.21,0-.3.13-.3.34ZM21,61.22c0-.22.1-.31.31-.31H38.94c6.82,0,12.78,5.93,12.78,13.4a12.78,12.78,0,0,1-2.11,7.28,12.94,12.94,0,0,1-5.35,4.71.29.29,0,0,0-.12.43l8,18c.09.21,0,.3-.3.3h-5.2a.6.6,0,0,1-.65-.3L38.48,87.8a.42.42,0,0,0-.43-.31H27.22c-.21,0-.3.09-.3.31v16.91c0,.21-.13.3-.34.3H21.26c-.21,0-.31-.09-.31-.3Z"/><path class="cls-3" d="M126.19,100.31c4.06,0,7-1.54,8.86-4.62s2.79-7.31,2.79-12.73c0-10.85-3-17.34-11.65-17.34-8.11,0-11.66,6.49-11.66,17.34s3.55,17.35,11.66,17.35m0-40c12.53,0,17.86,9.45,17.86,22.66,0,13.37-5.33,22.67-17.86,22.67s-17.9-9.3-17.9-22.67c0-13.21,5.35-22.66,17.9-22.66"/></g></g></svg>