<svg xmlns="http://www.w3.org/2000/svg" viewBox="0 0 165 165"><defs><style>.cls-1{fill:#526370;}.cls-2{fill:#c7d4d9;}</style></defs><g id="Capa_2" data-name="Capa 2"><g id="Capa_1-2" data-name="Capa 1"><rect class="cls-1" width="165" height="165"/><path class="cls-2" d="M43.24,75.31a3.69,3.69,0,0,1,3.94-3.61,3.88,3.88,0,0,1,3.69,2.19c0,.07.05.13.07.2l0,0c.89,1.65,1.29,3.55,3.15,3.55a2,2,0,0,0,2.16-2c0-1.44-1.18-2.66-2.79-4A5.55,5.55,0,0,1,52.85,64a4.51,4.51,0,0,1,6.65-.4,3.38,3.38,0,0,0,3.67,3,3.34,3.34,0,0,0,3.63-3.51,3.89,3.89,0,0,0-2.41-3.51,11.29,11.29,0,0,0-12.92,3.12c-1.6,1.84-2.11,4.4-1.56,7.61a15.64,15.64,0,0,0-3-.28c-5.4,0-9.2,2.86-9.2,6.66,0,9.38,13.65,5.21,13.65,11.54,0,2.39-1.83,3.61-4.31,3.61-5.49,0-3.94-6-7.46-6A2.08,2.08,0,0,0,37.23,88c0,2.58,3.66,5.4,9.81,5.4s9.85-2.87,9.85-6.53C56.89,77.61,43.24,81.69,43.24,75.31Z"/><path class="cls-2" d="M66.46,89.05V71c0-.75-.61-1.31-1.69-.79l-4.69,2.34c-.52.28-.84.47-.84.85v.14c0,.84,1.73,1.31,1.73,3.23V89.05c0,1.83-1.73,2-1.73,3v.19c0,.42.37.7,1,.7h7.13c.61,0,1-.28,1-.7V92.1C68.38,91.07,66.46,90.88,66.46,89.05Z"/><path class="cls-2" d="M89.27,86.08l0,0a6.5,6.5,0,0,1-6,3.4,7.06,7.06,0,0,1-3.33-.79,8.33,8.33,0,0,1-3.22-3.54,10.64,10.64,0,0,1-1-3.46,15.15,15.15,0,0,1-.16-2.29c0-4.51,1.88-7.65,4.83-7.65h.22a3.55,3.55,0,0,1,2,.79,6.4,6.4,0,0,1,2.28,4.5,2,2,0,0,1-1.22,2l-3.16,1.51a1.72,1.72,0,0,0-1.18,1.6c0,.82.84.86,1.71.54l6.71-2.52a4,4,0,0,0,1.56-1,3.23,3.23,0,0,0,.83-2.33,6.54,6.54,0,0,0-3.73-5.79,10.84,10.84,0,0,0-5-1.1A11.17,11.17,0,0,0,70.12,81.55c0,7.27,4.83,11.91,11.12,11.91,5.73,0,8.85-3.82,9.46-6.57l.06-.32C90.85,85.64,89.8,85.45,89.27,86.08Z"/><path class="cls-2" d="M99.91,89.1V60c0-.71-.61-1.27-1.69-.75l-4.74,2.34c-.47.24-.8.42-.8.84v.15c0,.84,1.74,1.22,1.74,3.19V89.1c0,1.83-1.74,2-1.74,3.05v.14c0,.42.38.7,1,.7h7.13c.61,0,1-.28,1-.7v-.14C101.83,91.07,99.91,90.93,99.91,89.1Z"/><path class="cls-2" d="M125.66,88.58V70.9c0-.7-.52-.84-1.5-.7l-5,.79a.87.87,0,0,0-.8.85V72c0,.94,1.83,1.22,1.83,3.14v9.76c0,3.84-2.2,6.33-5,6.33-3.05,0-4.69-2.53-4.69-7.46l.09-12.85c0-.7-.6-.84-1.59-.7L104,71a.92.92,0,0,0-.84.85V72c0,.94,1.78,1.22,1.78,3.14v8.12c0,6.84,3.71,10.22,8.73,10.22,3.33,0,5.72-1.31,7-3.66,0,2.63,1.32,3.47,3.8,3.47,2.3,0,3.52-.23,3.52-1.17C128.05,90.55,125.66,92.15,125.66,88.58Z"/><path class="cls-2" d="M29.33,102.58a2.18,2.18,0,0,1,2-1.17,2.31,2.31,0,0,1,.92.2,2,2,0,0,1,.73.54v-2.3h1v6.41h-1v-.72a1.88,1.88,0,0,1-.67.57,2.13,2.13,0,0,1-1,.23,2.18,2.18,0,0,1-1.14-.32,2.3,2.3,0,0,1-.81-.88,2.73,2.73,0,0,1-.3-1.29A2.62,2.62,0,0,1,29.33,102.58Zm3.4.43a1.4,1.4,0,0,0-1.24-.74,1.47,1.47,0,0,0-.71.18,1.4,1.4,0,0,0-.53.55,1.65,1.65,0,0,0-.2.85,1.75,1.75,0,0,0,.2.87,1.39,1.39,0,0,0,.54.56,1.35,1.35,0,0,0,.7.2,1.45,1.45,0,0,0,.71-.19,1.43,1.43,0,0,0,.53-.56,1.71,1.71,0,0,0,.21-.86A1.69,1.69,0,0,0,32.73,103Z"/><path class="cls-2" d="M36.15,100.67a.63.63,0,0,1,.45-1.08.6.6,0,0,1,.44.18.65.65,0,0,1,0,.9.6.6,0,0,1-.44.18A.61.61,0,0,1,36.15,100.67Zm.94.82v4.77h-1v-4.77Z"/><path class="cls-2" d="M40,106.13a1.76,1.76,0,0,1-.7-.55,1.43,1.43,0,0,1-.28-.79h1a.79.79,0,0,0,.29.55,1.06,1.06,0,0,0,.67.22,1.08,1.08,0,0,0,.64-.17.56.56,0,0,0,.23-.46.45.45,0,0,0-.26-.4,3.82,3.82,0,0,0-.8-.27,9.09,9.09,0,0,1-.87-.28,1.46,1.46,0,0,1-.57-.42,1.09,1.09,0,0,1-.24-.73,1.32,1.32,0,0,1,.21-.72,1.61,1.61,0,0,1,.63-.51,2.24,2.24,0,0,1,1-.19,2,2,0,0,1,1.31.41,1.47,1.47,0,0,1,.53,1.12h-1a.74.74,0,0,0-.26-.55.93.93,0,0,0-.63-.2,1,1,0,0,0-.6.16.5.5,0,0,0-.2.43.44.44,0,0,0,.13.32,1.19,1.19,0,0,0,.35.2l.59.18a6.67,6.67,0,0,1,.85.27,1.65,1.65,0,0,1,.56.42,1.11,1.11,0,0,1,.23.74,1.32,1.32,0,0,1-.21.73,1.53,1.53,0,0,1-.63.51,2.4,2.4,0,0,1-1,.19A2.29,2.29,0,0,1,40,106.13Z"/><path class="cls-2" d="M49.08,104.21H45.43a1.33,1.33,0,0,0,.42.94,1.31,1.31,0,0,0,.94.35,1.16,1.16,0,0,0,1.13-.66H49a2.18,2.18,0,0,1-.79,1.08,2.31,2.31,0,0,1-1.41.42,2.48,2.48,0,0,1-1.22-.31,2.22,2.22,0,0,1-.85-.87,2.57,2.57,0,0,1-.31-1.29,2.71,2.71,0,0,1,.3-1.3,2.11,2.11,0,0,1,.84-.86,2.69,2.69,0,0,1,2.45,0,2.15,2.15,0,0,1,.82.82,2.45,2.45,0,0,1,.3,1.22A3.57,3.57,0,0,1,49.08,104.21Zm-1-.72a1.16,1.16,0,0,0-.38-.91,1.35,1.35,0,0,0-1-.34,1.25,1.25,0,0,0-.89.34,1.4,1.4,0,0,0-.43.91Z"/><path class="cls-2" d="M54.37,101.64a1.7,1.7,0,0,1,.69.69,2.28,2.28,0,0,1,.26,1.11v2.82h-1v-2.67a1.39,1.39,0,0,0-.32-1,1.31,1.31,0,0,0-1.76,0,1.39,1.39,0,0,0-.32,1v2.67H51v-4.77h1V102a1.71,1.71,0,0,1,.62-.46,2,2,0,0,1,.8-.16A2.24,2.24,0,0,1,54.37,101.64Zm-2.25-1.41a.94.94,0,0,1,.94-.2l.29.16.22.13a.45.45,0,0,0,.2,0,.37.37,0,0,0,.25-.09.43.43,0,0,0,.13-.27h.55a1.25,1.25,0,0,1-.33.75.89.89,0,0,1-.65.26.65.65,0,0,1-.29-.06,1.44,1.44,0,0,1-.29-.16,1.51,1.51,0,0,0-.24-.13.34.34,0,0,0-.18,0,.37.37,0,0,0-.25.09.43.43,0,0,0-.12.28h-.56A1.34,1.34,0,0,1,52.12,100.23Z"/><path class="cls-2" d="M58.29,106a2.25,2.25,0,0,1-.86-.87,2.57,2.57,0,0,1-.31-1.29,2.47,2.47,0,0,1,.32-1.29,2.14,2.14,0,0,1,.87-.87,2.71,2.71,0,0,1,2.48,0,2.14,2.14,0,0,1,.87.87,2.47,2.47,0,0,1,.32,1.29,2.62,2.62,0,0,1-.32,1.29,2.35,2.35,0,0,1-.9.87,2.66,2.66,0,0,1-1.25.31A2.48,2.48,0,0,1,58.29,106Zm1.93-.72a1.39,1.39,0,0,0,.54-.56,1.74,1.74,0,0,0,.21-.88,1.89,1.89,0,0,0-.2-.89,1.28,1.28,0,0,0-.53-.55,1.4,1.4,0,0,0-1.41,0,1.3,1.3,0,0,0-.51.55,1.89,1.89,0,0,0-.2.89,1.91,1.91,0,0,0,.19.89,1.3,1.3,0,0,0,.5.56,1.44,1.44,0,0,0,1.41,0Z"/><path class="cls-2" d="M71.63,104.21H68a1.38,1.38,0,0,0,.42.94,1.33,1.33,0,0,0,.95.35,1.15,1.15,0,0,0,1.12-.66h1.07a2.18,2.18,0,0,1-.79,1.08,2.28,2.28,0,0,1-1.4.42,2.5,2.5,0,0,1-1.23-.31,2.29,2.29,0,0,1-.85-.87,2.67,2.67,0,0,1-.31-1.29,2.71,2.71,0,0,1,.3-1.3,2.11,2.11,0,0,1,.84-.86,2.54,2.54,0,0,1,1.25-.3,2.48,2.48,0,0,1,1.2.29,2.09,2.09,0,0,1,.82.82,2.45,2.45,0,0,1,.3,1.22A3.57,3.57,0,0,1,71.63,104.21Zm-1-.72a1.2,1.2,0,0,0-.39-.91,1.35,1.35,0,0,0-1-.34,1.27,1.27,0,0,0-.89.34,1.39,1.39,0,0,0-.42.91Z"/><path class="cls-2" d="M77,100.67a.63.63,0,0,1,.45-1.08.6.6,0,0,1,.44.18.65.65,0,0,1,0,.9.6.6,0,0,1-.44.18A.61.61,0,0,1,77,100.67Zm.93.82v4.77H77v-4.77Z"/><path class="cls-2" d="M81.11,99.85v6.41h-1V99.85Z"/><path class="cls-2" d="M87.59,101.49v4.77h-1v-.57a1.45,1.45,0,0,1-.61.47,1.94,1.94,0,0,1-.8.17,2.12,2.12,0,0,1-1-.24,1.66,1.66,0,0,1-.7-.69,2.28,2.28,0,0,1-.25-1.11v-2.8h1v2.65a1.37,1.37,0,0,0,.32,1,1.12,1.12,0,0,0,.87.34,1.15,1.15,0,0,0,.88-.34,1.37,1.37,0,0,0,.32-1v-2.65Z"/><path class="cls-2" d="M96.54,101.64a1.72,1.72,0,0,1,.7.69,2.28,2.28,0,0,1,.26,1.11v2.82h-1v-2.67a1.39,1.39,0,0,0-.32-1,1.12,1.12,0,0,0-.87-.34,1.14,1.14,0,0,0-.88.34,1.35,1.35,0,0,0-.33,1v2.67h-1v-2.67a1.35,1.35,0,0,0-.32-1,1.12,1.12,0,0,0-.87-.34,1.15,1.15,0,0,0-.88.34,1.35,1.35,0,0,0-.33,1v2.67h-1v-4.77h1V102a1.8,1.8,0,0,1,.62-.46,1.94,1.94,0,0,1,.8-.16,2.13,2.13,0,0,1,1,.24,1.66,1.66,0,0,1,.69.7,1.61,1.61,0,0,1,.68-.69,2,2,0,0,1,1-.25A2.18,2.18,0,0,1,96.54,101.64Z"/><path class="cls-2" d="M99.67,100.67a.63.63,0,0,1,.45-1.08.63.63,0,0,1,.45.18.65.65,0,0,1,0,.9.63.63,0,0,1-.45.18A.61.61,0,0,1,99.67,100.67Zm.94.82v4.77h-1v-4.77Z"/><path class="cls-2" d="M106.19,101.64a1.72,1.72,0,0,1,.7.69,2.39,2.39,0,0,1,.25,1.11v2.82h-1v-2.67a1.39,1.39,0,0,0-.32-1,1.3,1.3,0,0,0-1.75,0,1.35,1.35,0,0,0-.33,1v2.67h-1v-4.77h1V102a1.71,1.71,0,0,1,.62-.46,2,2,0,0,1,.8-.16A2.21,2.21,0,0,1,106.19,101.64Z"/><path class="cls-2" d="M109.23,102.58a2.18,2.18,0,0,1,2-1.17,2.07,2.07,0,0,1,1,.22,2,2,0,0,1,.67.55v-.69h1v4.77h-1v-.71a2,2,0,0,1-.69.56A2.18,2.18,0,0,1,110,106a2.3,2.3,0,0,1-.81-.88,2.73,2.73,0,0,1-.3-1.29A2.62,2.62,0,0,1,109.23,102.58Zm3.4.43a1.34,1.34,0,0,0-.53-.55,1.38,1.38,0,0,0-.71-.19,1.47,1.47,0,0,0-.71.18,1.4,1.4,0,0,0-.53.55,1.65,1.65,0,0,0-.21.85,1.75,1.75,0,0,0,.21.87,1.43,1.43,0,0,0,.53.56,1.41,1.41,0,0,0,.71.2,1.48,1.48,0,0,0,.71-.19,1.43,1.43,0,0,0,.53-.56,1.71,1.71,0,0,0,.21-.86A1.69,1.69,0,0,0,112.63,103Z"/><path class="cls-2" d="M116,102.57a2.13,2.13,0,0,1,.82-.86,2.45,2.45,0,0,1,1.22-.3,2.35,2.35,0,0,1,1.43.41,2,2,0,0,1,.77,1.17h-1.07a1.15,1.15,0,0,0-.41-.55,1.25,1.25,0,0,0-.72-.2,1.19,1.19,0,0,0-1,.43,1.79,1.79,0,0,0-.36,1.2,1.83,1.83,0,0,0,.36,1.2,1.19,1.19,0,0,0,1,.43,1.09,1.09,0,0,0,1.13-.75h1.07a2.15,2.15,0,0,1-.78,1.16,2.35,2.35,0,0,1-1.42.43,2.46,2.46,0,0,1-1.22-.31,2.22,2.22,0,0,1-.82-.87,2.67,2.67,0,0,1-.3-1.29A2.71,2.71,0,0,1,116,102.57Z"/><path class="cls-2" d="M122.11,100.67a.63.63,0,0,1,.45-1.08.63.63,0,0,1,0,1.26A.61.61,0,0,1,122.11,100.67Zm.94.82v4.77h-1v-4.77Z"/><path class="cls-2" d="M126.06,106a2.32,2.32,0,0,1-.86-.87,2.67,2.67,0,0,1-.31-1.29,2.57,2.57,0,0,1,.32-1.29,2.23,2.23,0,0,1,.88-.87,2.69,2.69,0,0,1,2.47,0,2.23,2.23,0,0,1,.88.87,2.57,2.57,0,0,1,.32,1.29,2.53,2.53,0,0,1-.33,1.29,2.35,2.35,0,0,1-.9.87,2.6,2.6,0,0,1-1.25.31A2.48,2.48,0,0,1,126.06,106Zm1.94-.72a1.39,1.39,0,0,0,.54-.56,1.74,1.74,0,0,0,.21-.88,1.89,1.89,0,0,0-.2-.89,1.34,1.34,0,0,0-.53-.55,1.38,1.38,0,0,0-.71-.19,1.29,1.29,0,0,0-.7.19,1.26,1.26,0,0,0-.52.55,1.89,1.89,0,0,0-.19.89,2,2,0,0,0,.18.89,1.37,1.37,0,0,0,.5.56,1.43,1.43,0,0,0,.7.18A1.41,1.41,0,0,0,128,105.31Zm.22-5.11-1.92,1v-.73l1.92-1.06Z"/><path class="cls-2" d="M135,101.64a1.72,1.72,0,0,1,.7.69,2.39,2.39,0,0,1,.25,1.11v2.82h-1v-2.67a1.39,1.39,0,0,0-.32-1,1.14,1.14,0,0,0-.88-.34,1.12,1.12,0,0,0-.87.34,1.35,1.35,0,0,0-.33,1v2.67h-1v-4.77h1V102a1.71,1.71,0,0,1,.62-.46,2,2,0,0,1,.8-.16A2.21,2.21,0,0,1,135,101.64Z"/></g></g></svg>