<svg xmlns="http://www.w3.org/2000/svg" viewBox="0 0 165 165"><defs><style>.cls-1{fill:#fff;}.cls-2{fill:#221a17;}</style></defs><g id="Capa_2" data-name="Capa 2"><g id="Capa_1-2" data-name="Capa 1"><rect class="cls-1" width="165" height="165"/><path d="M65.49,97.33c.23-.75.44-1.51.69-2.25a12.87,12.87,0,0,1,3.95-6.19,6.11,6.11,0,0,1,6.2-1.31,5.07,5.07,0,0,1,3.26,4A11.65,11.65,0,0,1,79.83,94c0,4.44,0,8.88,0,13.32,0,.59-.12.83-.77.81-1.38,0-1.38,0-1.37-1.41,0-4.39.08-8.77.06-13.15a7.67,7.67,0,0,0-.47-2.86,4.09,4.09,0,0,0-6-2,9.77,9.77,0,0,0-4.15,4.82,19.9,19.9,0,0,0-1.9,8.38c0,1.86,0,3.71,0,5.56,0,.54-.15.71-.69.7-1.39,0-1.39,0-1.39-1.39V84.34c0-.88,0-.89.85-.88,1.35,0,1.22-.19,1.22,1.19V97.3Z"/><path d="M106.77,96.23c.09-.46.15-.93.28-1.38a14.23,14.23,0,0,1,2.65-5.49,5.63,5.63,0,0,1,3.35-2.07,3.93,3.93,0,0,1,4.67,2.7,33.33,33.33,0,0,1,.78,4.24,6.14,6.14,0,0,1,0,1l.18,0c.18-.66.36-1.33.57-2a10.4,10.4,0,0,1,2.44-4.37,5.08,5.08,0,0,1,6.52-.83,4.9,4.9,0,0,1,2,3.45,18.19,18.19,0,0,1,.24,2.86c0,4.34,0,8.68,0,13,0,.61-.15.81-.78.8-1.36,0-1.36,0-1.36-1.36,0-4.58,0-9.17,0-13.75a10.37,10.37,0,0,0-.53-2.92c-.71-2.15-2.8-2.84-4.85-1.67a7,7,0,0,0-2.9,3.59,18.93,18.93,0,0,0-1.47,7.31c0,2.71,0,5.42,0,8.13,0,.51-.15.67-.66.66-1.42,0-1.42,0-1.42-1.43,0-4.26,0-8.52,0-12.77a10.37,10.37,0,0,0-.59-3.9,3,3,0,0,0-4.8-1.56,7.38,7.38,0,0,0-2.81,3.66c-.55,1.32-1,2.7-1.43,4Z"/><path d="M55.92,105.47a21,21,0,0,1-2,1.6,9.37,9.37,0,0,1-5.55,1.58,6,6,0,0,1-6-6.48c.09-3.23,1.92-5.31,4.47-6.9a25.58,25.58,0,0,1,8-3l.65-.17c1-.26,1-.27.86-1.31a3.71,3.71,0,0,0-3.16-3.19c-2.76-.41-5.11.63-7.31,2.12-.47.32-.9.69-1.36,1-.06-.07-.12-.11-.13-.16-.55-1.86-.51-1.57,1-2.14a15.67,15.67,0,0,1,8.13-1.11,5.57,5.57,0,0,1,5,5.5c.07,4.93,0,9.87,0,14.8,0,.42-.17.51-.55.51-1.87,0-1.52.25-1.56-1.53,0-.37,0-.73,0-1.1,0,0,0-.1-.1-.18l-.45.14c.75-.75.59-1.71.59-2.62v-9.6c0-.18,0-.37,0-.55s-.13-.43-.47-.36a27.08,27.08,0,0,0-6,1.88c-4.28,2-6.09,5.27-5.39,9.73a4.65,4.65,0,0,0,5.46,4.08,10.75,10.75,0,0,0,5.16-2.18A5.52,5.52,0,0,1,55.92,105.47Z"/><path d="M97,105.47a19.61,19.61,0,0,1-1.94,1.6,9.39,9.39,0,0,1-5.55,1.58,6,6,0,0,1-6-6.48c.09-3.23,1.92-5.31,4.47-6.9a25.49,25.49,0,0,1,8-3l.65-.17c1-.26,1-.27.86-1.31a3.71,3.71,0,0,0-3.16-3.19c-2.77-.41-5.11.63-7.32,2.12-.46.32-.89.69-1.35,1-.06-.07-.12-.11-.14-.16-.54-1.86-.5-1.57,1-2.14a15.67,15.67,0,0,1,8.13-1.11,5.58,5.58,0,0,1,5,5.5c.07,4.93,0,9.87,0,14.8,0,.42-.17.51-.55.51-1.87,0-1.53.25-1.56-1.53,0-.42,0-.84,0-1.32l-.59.18c.75-.75.58-1.71.58-2.62q0-4.8,0-9.6c0-.18,0-.37,0-.55s-.13-.43-.47-.36a27.16,27.16,0,0,0-6,1.88c-4.27,2-6.08,5.27-5.39,9.73a4.66,4.66,0,0,0,5.47,4.08,10.72,10.72,0,0,0,5.15-2.18A6.44,6.44,0,0,1,97,105.47Z"/><path d="M23.64,85.22c0-.6,0-1,0-1.47,0-.11.19-.24.31-.28a2.51,2.51,0,0,1,.55,0H42.17c1.13,0,1-.12,1,1v.63l-2.83-.8a21.42,21.42,0,0,0-5.47-.46c-.15,0-.35.29-.45.48a1.42,1.42,0,0,0,0,.55V107.3c0,.85,0,.86-.87.85-1.33,0-1.19.19-1.19-1.22V84.87c0-1.06,0-1.05-1.09-1A17.73,17.73,0,0,0,23.64,85.22Z"/><path d="M106.58,96.94c0,.09.15.18.14.25,0,.39-.15.76-.18,1.14-.07,1-.15,2.07-.17,3.11q0,3,0,6c0,.49-.12.68-.65.67-1.42,0-1.42,0-1.42-1.41V88.66c0-.82,0-.83.85-.82,1.34,0,1.21-.17,1.22,1.19V97Z"/><path d="M137.47,98.08c0,3.11,0,6.23,0,9.35,0,.54-.14.75-.72.73-1.37,0-1.37,0-1.37-1.39V88.63c0-.79,0-.8.8-.79,1.44,0,1.28-.17,1.28,1.26C137.48,92.09,137.47,95.09,137.47,98.08Z"/><path class="cls-2" d="M51.22,116.63a.7.7,0,0,1-.69.78,1.61,1.61,0,0,1-.82-.35l-1.14-.81,1.67-2.33,1.06.76a1.44,1.44,0,0,1,.54.62.67.67,0,0,1-.44.86.71.71,0,0,1-.45,0A.86.86,0,0,1,51.22,116.63Zm-.76.57a.55.55,0,0,0,.52-.73,1.31,1.31,0,0,0-.48-.51l-1-.68-.69,1,1,.68A1.4,1.4,0,0,0,50.46,117.2Zm-.14-3-.66.93.87.62a1.15,1.15,0,0,0,.6.25.45.45,0,0,0,.42-.22.48.48,0,0,0,.07-.47,1.18,1.18,0,0,0-.43-.49Z"/><path class="cls-2" d="M53.27,115.79l.19.12-1.61,2.57-.19-.12Z"/><path class="cls-2" d="M53.36,119.24a1.09,1.09,0,0,1-.18-.54,1.13,1.13,0,0,1,.54-1,1,1,0,0,1,.55-.13,1.27,1.27,0,0,1,.59.16,1.25,1.25,0,0,1,.46.42,1,1,0,0,1,.18.54,1,1,0,0,1-.14.56,1,1,0,0,1-.4.41,1,1,0,0,1-.55.14,1.29,1.29,0,0,1-.59-.17A1.23,1.23,0,0,1,53.36,119.24Zm1,.38a1,1,0,0,0,.45-.11.86.86,0,0,0,.33-.35.83.83,0,0,0,.12-.47.85.85,0,0,0-.14-.44,1,1,0,0,0-.36-.33,1,1,0,0,0-.48-.14.89.89,0,0,0-.45.12,1,1,0,0,0-.45.81.91.91,0,0,0,.14.45,1.15,1.15,0,0,0,.36.33A1,1,0,0,0,54.38,119.62Z"/><path class="cls-2" d="M56.21,120.74a1,1,0,0,1-.22-.53,1.05,1.05,0,0,1,.1-.57,1,1,0,0,1,.38-.44A1,1,0,0,1,57,119a1.19,1.19,0,0,1,.6.13,1.21,1.21,0,0,1,.48.38,1.14,1.14,0,0,1,.22.52,1.11,1.11,0,0,1-.1.57,1.08,1.08,0,0,1-.92.62,1.44,1.44,0,0,1-.6-.13A1.31,1.31,0,0,1,56.21,120.74Zm1,.31a1,1,0,0,0,.44-.14,1,1,0,0,0,.4-.85,1,1,0,0,0-.17-.43,1.1,1.1,0,0,0-.39-.31,1,1,0,0,0-.48-.1.86.86,0,0,0-.44.15.81.81,0,0,0-.31.37.78.78,0,0,0-.09.47.85.85,0,0,0,.17.43,1,1,0,0,0,.39.31A.93.93,0,0,0,57.25,121.05Z"/><path class="cls-2" d="M62.86,121.55a.87.87,0,0,1,0,.71l-.44,1.17-.21-.08.44-1.15a.78.78,0,0,0,0-.58.79.79,0,0,0-.44-.37.84.84,0,0,0-.66,0,.77.77,0,0,0-.43.48l-.4,1.07-.21-.08.43-1.15a.67.67,0,0,0-.42-.95.87.87,0,0,0-.67,0,.8.8,0,0,0-.42.49l-.4,1.06-.21-.08.75-2,.2.08-.16.43a.86.86,0,0,1,.44-.21,1.13,1.13,0,0,1,.56.08,1,1,0,0,1,.46.31.71.71,0,0,1,.16.47.89.89,0,0,1,.47-.22,1.16,1.16,0,0,1,.6.07A.92.92,0,0,1,62.86,121.55Z"/><path class="cls-2" d="M64.36,121.78l.21.06-.63,2-.21-.06Zm.14-.55a.15.15,0,0,1,0-.13.16.16,0,0,1,.08-.1.17.17,0,0,1,.14,0,.15.15,0,0,1,.11.08.15.15,0,0,1,0,.13.13.13,0,0,1-.09.09.15.15,0,0,1-.13,0A.2.2,0,0,1,64.5,121.23Z"/><path class="cls-2" d="M67.5,122.88a.85.85,0,0,1,.08.71l-.31,1.21-.22-.06.31-1.19a.7.7,0,0,0-.06-.58.74.74,0,0,0-.49-.32.92.92,0,0,0-.68,0,.79.79,0,0,0-.38.53l-.29,1.1-.22-.06.54-2.06.21.05-.12.45a.81.81,0,0,1,.44-.25,1.15,1.15,0,0,1,.58,0A.94.94,0,0,1,67.5,122.88Z"/><path class="cls-2" d="M71.08,123.42l-.37,1.87a1,1,0,0,1-.43.72,1.27,1.27,0,0,1-.89.08,1.92,1.92,0,0,1-.58-.21,1.36,1.36,0,0,1-.4-.33l.15-.13a1.22,1.22,0,0,0,.37.3,1.57,1.57,0,0,0,.5.19,1,1,0,0,0,.71-.07.78.78,0,0,0,.34-.57l.07-.35a.93.93,0,0,1-.46.27,1.26,1.26,0,0,1-.58,0A1.43,1.43,0,0,1,69,125a1,1,0,0,1-.34-.45.93.93,0,0,1,0-.55,1,1,0,0,1,.25-.5,1,1,0,0,1,.49-.27,1.21,1.21,0,0,1,.6,0,1.39,1.39,0,0,1,.55.25,1,1,0,0,1,.32.43l.09-.47Zm-1,1.6a.84.84,0,0,0,.4-.23.94.94,0,0,0,.21-.41.79.79,0,0,0,0-.46.78.78,0,0,0-.27-.36,1.05,1.05,0,0,0-.47-.2.94.94,0,0,0-.5,0,.86.86,0,0,0-.39.23.77.77,0,0,0-.21.4.79.79,0,0,0,0,.46.76.76,0,0,0,.27.37,1.13,1.13,0,0,0,.46.2A1.19,1.19,0,0,0,70.06,125Z"/><path class="cls-2" d="M76,124.83l.22,0-.12,1.06a1.48,1.48,0,0,1-.53.22,2.2,2.2,0,0,1-.63,0,1.9,1.9,0,0,1-.81-.28,1.47,1.47,0,0,1-.52-.59,1.31,1.31,0,0,1-.13-.76,1.36,1.36,0,0,1,.3-.72,1.39,1.39,0,0,1,.64-.44,1.88,1.88,0,0,1,.86-.1,2,2,0,0,1,.62.18,1.41,1.41,0,0,1,.45.34l-.15.13a1.2,1.2,0,0,0-.41-.31,1.72,1.72,0,0,0-.53-.14,1.52,1.52,0,0,0-.74.08,1.24,1.24,0,0,0-.56.39,1.22,1.22,0,0,0-.14,1.27,1.23,1.23,0,0,0,.45.51,1.51,1.51,0,0,0,.7.25,1.46,1.46,0,0,0,.92-.16Z"/><path class="cls-2" d="M79,124.52a.76.76,0,0,1,.2.61l-.09,1.35-.21,0,0-.38a.78.78,0,0,1-.34.28,1.22,1.22,0,0,1-.52.07,1.08,1.08,0,0,1-.61-.21.53.53,0,0,1-.2-.45.54.54,0,0,1,.24-.42,1.06,1.06,0,0,1,.67-.12l.8,0v-.18a.52.52,0,0,0-.15-.46.79.79,0,0,0-.5-.19,1.33,1.33,0,0,0-.45,0,1.15,1.15,0,0,0-.37.17l-.11-.15a1.48,1.48,0,0,1,.44-.2,1.51,1.51,0,0,1,.52,0A.92.92,0,0,1,79,124.52Zm-.4,1.65a.75.75,0,0,0,.33-.33l0-.4-.79,0a.83.83,0,0,0-.51.08.36.36,0,0,0-.17.3.37.37,0,0,0,.15.34.77.77,0,0,0,.47.15A.9.9,0,0,0,78.58,126.17Z"/><path class="cls-2" d="M81,124.51a1.08,1.08,0,0,1,.56-.11v.2h0a.84.84,0,0,0-.61.21.88.88,0,0,0-.24.62l0,1.11h-.23l0-2.13h.22v.46A.77.77,0,0,1,81,124.51Z"/><path class="cls-2" d="M84.54,123.49l.06,3h-.22V126a.92.92,0,0,1-.39.39,1.14,1.14,0,0,1-.56.15,1.25,1.25,0,0,1-.59-.13,1.05,1.05,0,0,1-.43-.38,1.11,1.11,0,0,1-.16-.55,1.2,1.2,0,0,1,.14-.57,1,1,0,0,1,.41-.39,1.43,1.43,0,0,1,.59-.15,1.13,1.13,0,0,1,.56.13,1,1,0,0,1,.4.37l0-1.4Zm-.63,2.76a.92.92,0,0,0,.33-.32,1,1,0,0,0,0-.94.93.93,0,0,0-.34-.31,1.1,1.1,0,0,0-1,0,.92.92,0,0,0-.33.32.94.94,0,0,0-.12.47,1,1,0,0,0,.13.47,1,1,0,0,0,.35.31,1.1,1.1,0,0,0,1,0Z"/><path class="cls-2" d="M87.86,125.31l-2,.14a.74.74,0,0,0,.17.43.89.89,0,0,0,.37.28,1.17,1.17,0,0,0,.5.07,1.19,1.19,0,0,0,.42-.11.81.81,0,0,0,.31-.24l.14.13a1.17,1.17,0,0,1-.37.28,1.5,1.5,0,0,1-1.12,0,1.08,1.08,0,0,1-.45-.36,1,1,0,0,1-.19-.55,1,1,0,0,1,.1-.56,1,1,0,0,1,.38-.42,1.15,1.15,0,0,1,.56-.17,1.13,1.13,0,0,1,.58.09,1,1,0,0,1,.42.36,1,1,0,0,1,.18.54Zm-1.6-.75a.81.81,0,0,0-.3.31.82.82,0,0,0-.11.42l1.79-.12a.85.85,0,0,0-.16-.4.8.8,0,0,0-.34-.26,1,1,0,0,0-.45-.08A1.14,1.14,0,0,0,86.26,124.56Z"/><path class="cls-2" d="M90.65,124.1a.86.86,0,0,1,.33.64l.15,1.24-.23,0-.14-1.22a.74.74,0,0,0-.26-.52.78.78,0,0,0-.58-.12.9.9,0,0,0-.62.3.79.79,0,0,0-.16.63l.13,1.13-.22,0-.25-2.12.21,0,.06.46a.93.93,0,0,1,.31-.4,1.33,1.33,0,0,1,.55-.19A1,1,0,0,1,90.65,124.1Z"/><path class="cls-2" d="M95.69,125.1a1.32,1.32,0,0,1-.54-.17l.07-.18a1.13,1.13,0,0,0,.49.16,1.53,1.53,0,0,0,.6,0,1.09,1.09,0,0,0,.62-.3.47.47,0,0,0,.14-.44.37.37,0,0,0-.19-.27.68.68,0,0,0-.33-.11,3.48,3.48,0,0,0-.5,0,4.45,4.45,0,0,1-.57,0,.91.91,0,0,1-.4-.14.61.61,0,0,1-.23-.37.68.68,0,0,1,0-.4.76.76,0,0,1,.3-.35,1.84,1.84,0,0,1,.58-.24,2.24,2.24,0,0,1,.52,0,1.63,1.63,0,0,1,.46.09l0,.18a1.27,1.27,0,0,0-.44-.08,1.65,1.65,0,0,0-.45,0,1.29,1.29,0,0,0-.61.3.48.48,0,0,0-.12.45.37.37,0,0,0,.18.28.91.91,0,0,0,.33.1,3.39,3.39,0,0,0,.51,0l.57,0a.93.93,0,0,1,.39.15.56.56,0,0,1,.23.36.69.69,0,0,1,0,.4.89.89,0,0,1-.31.34,1.52,1.52,0,0,1-.59.24A2.12,2.12,0,0,1,95.69,125.1Z"/><path class="cls-2" d="M97.81,121.91a.16.16,0,0,1-.08-.1.19.19,0,0,1,0-.13.21.21,0,0,1,.11-.08.22.22,0,0,1,.14,0,.16.16,0,0,1,.08.1.12.12,0,0,1,0,.13.15.15,0,0,1-.11.08A.22.22,0,0,1,97.81,121.91Zm.16.54.22-.06.54,2.07-.21.05Z"/><path class="cls-2" d="M101.23,121.73a.86.86,0,0,1,.44.56l.37,1.19-.21.07-.37-1.18a.74.74,0,0,0-.35-.46.75.75,0,0,0-.59,0,.87.87,0,0,0-.55.4.81.81,0,0,0,0,.65l.34,1.09-.22.06-.63-2,.21-.06.13.44A1,1,0,0,1,100,122a1.27,1.27,0,0,1,.51-.29A1,1,0,0,1,101.23,121.73Z"/><path class="cls-2" d="M103.58,122.81a1.13,1.13,0,0,1-.53-.22,1,1,0,0,1-.33-.47,1,1,0,0,1-.06-.58,1.1,1.1,0,0,1,.26-.5,1.35,1.35,0,0,1,.52-.34,1.22,1.22,0,0,1,.52-.09,1,1,0,0,1,.45.14l-.12.16a.8.8,0,0,0-.37-.11,1,1,0,0,0-.41.07.94.94,0,0,0-.42.28.81.81,0,0,0-.21.41.88.88,0,0,0,.05.48.86.86,0,0,0,.71.58,1,1,0,0,0,.5-.07.93.93,0,0,0,.35-.21.81.81,0,0,0,.21-.34l.19,0a.83.83,0,0,1-.24.4,1.28,1.28,0,0,1-.45.28A1.35,1.35,0,0,1,103.58,122.81Z"/><path class="cls-2" d="M107.41,120.27l-1.84.81a1,1,0,0,0,.31.35.94.94,0,0,0,.44.13,1.21,1.21,0,0,0,.86-.34.79.79,0,0,0,.2-.34l.18.07a.9.9,0,0,1-.25.39,1.37,1.37,0,0,1-.42.29,1.41,1.41,0,0,1-.63.12,1,1,0,0,1-.54-.18,1.1,1.1,0,0,1-.37-.45,1.14,1.14,0,0,1-.09-.57,1,1,0,0,1,.21-.52,1.19,1.19,0,0,1,.47-.35,1.2,1.2,0,0,1,.58-.11,1.1,1.1,0,0,1,.52.19,1.06,1.06,0,0,1,.35.45Zm-1.76-.16a.82.82,0,0,0-.18.39.92.92,0,0,0,0,.43l1.64-.72a.75.75,0,0,0-.29-.32.79.79,0,0,0-.4-.13,1,1,0,0,0-.45.08A1,1,0,0,0,105.65,120.11Z"/><path class="cls-2" d="M109.33,117.22l1.36,2.52-.2.11-1.27-2.36-.67.37-.09-.17Z"/><path class="cls-2" d="M112.06,116a1.58,1.58,0,0,1,.83.73,1.79,1.79,0,0,1,.27.77,1.14,1.14,0,0,1-.15.68,1.61,1.61,0,0,1-.54.53,1.51,1.51,0,0,1-.68.24v-.19a1.14,1.14,0,0,0,.59-.21,1.12,1.12,0,0,0,.56-.72,1.28,1.28,0,0,0-.22-1,3.39,3.39,0,0,0-.2-.28.82.82,0,0,1-.09.57,1.27,1.27,0,0,1-.46.46,1.34,1.34,0,0,1-.52.2.91.91,0,0,1-.47-.06.8.8,0,0,1-.34-.32.81.81,0,0,1-.13-.45.91.91,0,0,1,.16-.46,1.43,1.43,0,0,1,.4-.37A1.15,1.15,0,0,1,112.06,116Zm.17,1.14a.81.81,0,0,0,.14-.37.57.57,0,0,0-.09-.36.63.63,0,0,0-.26-.22.73.73,0,0,0-.39,0,1,1,0,0,0-.47.17.94.94,0,0,0-.4.47.58.58,0,0,0,.06.54.61.61,0,0,0,.45.3,1,1,0,0,0,.63-.17A1.1,1.1,0,0,0,112.23,117.17Z"/><path class="cls-2" d="M115.49,115.18a.63.63,0,0,1,.4.26.67.67,0,0,1,.09.67,1.56,1.56,0,0,1-.58.68,1.52,1.52,0,0,1-.83.34.69.69,0,0,1-.6-.3.6.6,0,0,1-.12-.46.93.93,0,0,1,.24-.5.86.86,0,0,1-.47,0,.56.56,0,0,1-.35-.24.61.61,0,0,1-.09-.61,1.34,1.34,0,0,1,.52-.62,1.38,1.38,0,0,1,.75-.3.64.64,0,0,1,.56.27.55.55,0,0,1,.11.41.88.88,0,0,1-.19.44A1,1,0,0,1,115.49,115.18Zm-1.62.56a1.15,1.15,0,0,0,.59-.24,1.1,1.1,0,0,0,.42-.49.47.47,0,0,0,0-.46.48.48,0,0,0-.43-.2,1,1,0,0,0-.6.24,1.13,1.13,0,0,0-.41.48.49.49,0,0,0,.06.47A.48.48,0,0,0,113.87,115.74Zm1.9.36a.55.55,0,0,0-.06-.53.52.52,0,0,0-.47-.21,1.58,1.58,0,0,0-1.15.82.51.51,0,0,0,.07.52.5.5,0,0,0,.47.22,1.35,1.35,0,0,0,.67-.27A1.3,1.3,0,0,0,115.77,116.1Z"/><path class="cls-2" d="M116.87,111.91l.1.11.74,2.94-.19.16-.73-2.9-1.33,1.15.35.42-.17.14-.47-.56Z"/><circle class="cls-2" cx="92.99" cy="124.43" r="0.59"/><path d="M86.87,54.39,84,54.2a1.2,1.2,0,0,1-.38-.05,4.07,4.07,0,0,0-1.7-.16l-3.45.12c-.21,0-.41,0-.71.08a3.52,3.52,0,0,0,.31.2c.58.28,1.15.57,1.74.82a14.33,14.33,0,0,1,4.26,3C85,59.18,86,60.09,86.88,61a10.62,10.62,0,0,0,3.34,2.3c1.69.73,3.31,1.6,4.93,2.46.33.17.66.34,1,.48a24.54,24.54,0,0,1,3.14,1.52,10.38,10.38,0,0,0,.94.48c.21.11.32.24.23.5s-.28.22-.47.19c-.81-.13-1.61-.28-2.41-.39-1-.13-2-.2-3-.34s-1.7-.28-2.55-.43a29,29,0,0,1-6.51-1.88,8.58,8.58,0,0,0-1.34-.38,3.91,3.91,0,0,1-1.7-.85,23.33,23.33,0,0,1-1.9-1.82,7.78,7.78,0,0,0-4.09-2.53A8.21,8.21,0,0,1,73,58.78c-.76-.63-1.5-1.3-2.24-2a1,1,0,0,1-.33-.87c0-.12,0-.25,0-.4A32.27,32.27,0,0,0,60.3,58a4.29,4.29,0,0,0,1.23,0c.54-.06,1.08-.14,1.63-.15a3.11,3.11,0,0,1,1.53.49,1.5,1.5,0,0,1,.71,1.2,4.64,4.64,0,0,1-.08,1.66c-.07.26-.09.53-.14.82l.91,0a9.88,9.88,0,0,1,3.44,1,38.86,38.86,0,0,1,3.94,2.2c.77.46,1.55.89,2.33,1.33.22.13.49.21.45.55s-.22.33-.67.32a16,16,0,0,1-4.65-.86,2,2,0,0,1-.75-.5,4.14,4.14,0,0,0-2.5-1.19c-1-.15-2.05-.35-3.07-.53a.13.13,0,0,1-.09,0c-.39-.32-.71-.09-1,.1a9.75,9.75,0,0,1-1,.57,5,5,0,0,1-1.19.36,9.25,9.25,0,0,1-1.58.1,3.44,3.44,0,0,1-2.21-1.13,2.43,2.43,0,0,1-.39-.86A4.3,4.3,0,0,1,57,63a4.58,4.58,0,0,0-.47.12c-.57.17-1.14.33-1.7.52a.67.67,0,0,0-.34.23A3.66,3.66,0,0,1,52,65.46c-.45.1-.91.14-1.37.23l-.88.18a1.19,1.19,0,0,0-.72.46c-.1.14-.22.31-.42.19s-.13-.34-.05-.51a1.91,1.91,0,0,0,.28-1.16l-1.71.38a.45.45,0,0,0-.2.12l-3.38,3s0,0,0,0a29.22,29.22,0,0,1,5.89-.67,25,25,0,0,1,5.11.37c1.3.24,2.61.46,3.92.69s2.68.41,4,.7a33.69,33.69,0,0,0,3.6.57,6.34,6.34,0,0,1,.84.19c.2.05.36.17.32.4s-.23.28-.44.27c-.69,0-1.37-.08-2.06-.09-1.41,0-2.82,0-4.22,0-1.07,0-2.14.16-3.21.23s-2,.07-3,.16c-.84.07-1.68.19-2.51.34a3.7,3.7,0,0,1-1.75,0,3.91,3.91,0,0,0-.89-.18,4.24,4.24,0,0,0-1.18.08,8.32,8.32,0,0,0-1.46.48,11.19,11.19,0,0,1-2.55.63h0a15.19,15.19,0,0,1-2.94-.18c-.31-.09-.59-.23-.9-.35-.2.19-.43.4-.65.63a17.17,17.17,0,0,0-2.24,2.5,3.56,3.56,0,0,1-.39.48c-.13.14-.3.22-.47.07s-.09-.3,0-.43a16.61,16.61,0,0,1,1.11-1.5c1.06-1.18,2.15-2.33,3.23-3.48.36-.39.74-.76,1.1-1.14a.5.5,0,0,0,.1-.13s0-.07,0-.07A3.52,3.52,0,0,1,41.23,67a13,13,0,0,1-.12-1.53,7.29,7.29,0,0,1,.2-1.85,25.17,25.17,0,0,1,2.47-6.11,9.23,9.23,0,0,1,1.31-2.06.79.79,0,0,0,.16-.84c-.12-.41-.21-.83-.31-1.25s0-.51.32-.55a4.81,4.81,0,0,0,2.46-1.31,4.18,4.18,0,0,1,1.46-.81,2,2,0,0,0,.23-.08c0-.47-.11-.91-.14-1.35a2.12,2.12,0,0,1,.31-1.2A4.23,4.23,0,0,1,51,46.45a2.07,2.07,0,0,0,.72-.69,2.84,2.84,0,0,1,2.6-1.26,2.61,2.61,0,0,1,2.84,1.76c.08.17.15.35.23.53a3.07,3.07,0,0,1,2.19,1c.83-.54,1.61-1.07,2.4-1.57a7.52,7.52,0,0,1,1-.52,4,4,0,0,0,1.26-.86,2,2,0,0,1,.21-.2c.23-.19.45-.12.48.17a12.34,12.34,0,0,1,.15,1.71c0,.67-.12,1.34-.18,2a1.72,1.72,0,0,0,0,.23l.32-.07a14.87,14.87,0,0,1,2.66-.32l1.25-.06h.19c.18,0,.38,0,.43.24s-.11.32-.27.4c-.54.31-1.1.59-1.64.91s-1.34.81-2,1.22-1.18.71-1.73,1.11c-.8.58-1.57,1.21-2.36,1.82l-.59.43A3.54,3.54,0,0,1,60.72,56c-.34.48-.66,1-1,1.48,1.65-.9,3.51-1.13,5.24-1.77.14-.45.27-.91.45-1.35a7.53,7.53,0,0,1,1.82-2.5c.87-.88,1.79-1.7,2.64-2.59a28.22,28.22,0,0,1,3.65-3.17c1-.73,1.89-1.54,2.86-2.27a19.39,19.39,0,0,1,3.44-2.07c1-.44,1.92-.89,2.9-1.28s2-.71,3-1.05l2.62-.92c.36-.13.55-.1.64.08s0,.36-.32.56a36.1,36.1,0,0,0-4.21,3.49c-1.37,1.22-2.78,2.41-4.17,3.61-.56.49-1.1,1-1.66,1.45-1.45,1.24-2.92,2.45-4.35,3.71a25.34,25.34,0,0,1-4.44,3,.38.38,0,0,0-.16.19c1-.23,2-.47,3.07-.68s2-.36,3.06-.53a4.82,4.82,0,0,1,1.93-3.08,15,15,0,0,1,5.15-3c2.36-.87,4.74-1.73,7.11-2.57,1.78-.62,3.57-1.21,5.36-1.8A13.18,13.18,0,0,1,97,42.51a27.93,27.93,0,0,0,4-1.08,1.71,1.71,0,0,1,.71-.07.61.61,0,0,1,.59.53l-.38.22c-1.31.67-2.63,1.31-3.93,2-.9.49-1.77,1-2.65,1.54-.42.24-.83.5-1.26.71-2.87,1.39-5.66,3-8.42,4.57-.83.48-1.7.89-2.55,1.34l-.48.26c.81.08,1.55.15,2.27.25s1.49.23,2.24.36l.48-.68a5.55,5.55,0,0,1,2.17-1.7,25.2,25.2,0,0,1,5.16-2c.81-.21,1.66-.32,2.49-.45.56-.09,1.11-.15,1.67-.21l2.28-.28,1.23-.2a1,1,0,0,1,.38,0,.4.4,0,0,1,.26.23.43.43,0,0,1-.13.32c-.07.08-.2.09-.3.13-.36.14-.73.25-1.07.42-1.36.67-2.74,1.31-4,2.08-1.66,1-3.39,1.85-5.09,2.77l-.45.26a10.26,10.26,0,0,0,1,.4c.69.2,1.38.38,2.08.55a10.68,10.68,0,0,0,1.13.2.83.83,0,0,0,.72-.39,2.85,2.85,0,0,1,.79-.6,3.62,3.62,0,0,0,.57-.35,7.17,7.17,0,0,1,2.17-1.1c.8-.28,1.61-.55,2.43-.76A11.32,11.32,0,0,1,105,51.4q1.29-.15,2.58-.18A14.16,14.16,0,0,1,112,52c.28.08.54.19.82.26a12.7,12.7,0,0,1,3.72,1.85c.83.53,1.66,1.08,2.47,1.65s1.61,1.16,2.42,1.73l5,3.46c.16.11.35.16.51.26a.39.39,0,0,1,.17.25c0,.06-.12.16-.19.18a1.86,1.86,0,0,1-.52.07,6.19,6.19,0,0,1-2.93-.62,17.2,17.2,0,0,0-3.76-1.41c-1.66-.45-3.32-.92-5-1.45a13.65,13.65,0,0,0-4.26-.57l-3.69,0h-.44a1.56,1.56,0,0,0,.22.26A7.44,7.44,0,0,0,109,59.34c.5.14,1,.21,1.55.32l1.17.26a4.07,4.07,0,0,1,2.2,1.29A12.53,12.53,0,0,0,117.82,64a7.17,7.17,0,0,0,1.48.4l1.78.41a4.35,4.35,0,0,1,2.42,1.7c.44.57.89,1.13,1.33,1.69.06.08.13.15.18.23.18.27.16.42-.1.61s-.38.24-.57.35l-.57.32a2.16,2.16,0,0,0,.87,1.36,4.05,4.05,0,0,1,.82.73c.72.74,1.44,1.46,2.11,2.24.89,1,1.73,2.09,2.59,3.14a.49.49,0,0,1,.13.2.45.45,0,0,1-.07.3.27.27,0,0,1-.25,0,8.81,8.81,0,0,1-.85-.62c-.8-.64-1.57-1.32-2.39-1.94a8.61,8.61,0,0,0-1.33-.75c-.62-.31-1.26-.6-1.93-.92a.52.52,0,0,0-.11.13,11.58,11.58,0,0,0-1.07,1.87l0,.09c-.19.32-.38.39-.65.14a1,1,0,0,0-1-.21c-.48.14-.56.1-1.22-.22-.13.25-.24.52-.39.76a1.74,1.74,0,0,1-1.39.9,1.37,1.37,0,0,0-.54.27c-.12.07-.2.21-.31.3s-.41.23-.58,0a1.52,1.52,0,0,0-1-.54,1.74,1.74,0,0,1-1.53,1.34,2.28,2.28,0,0,0-1.27.81c-.3.32-.44.33-.74,0a1.24,1.24,0,0,0-.74-.48.82.82,0,0,1-.35-.24c-.51-.53-1-1.06-1.51-1.6a1.31,1.31,0,0,1-.15-.23l-.51.36a.51.51,0,0,1-.62,0,4.94,4.94,0,0,1-.77-.47,1.55,1.55,0,0,1-.5-1.86c.1-.28.23-.56.31-.85s.17-.64.26-1l-.55-.24c-.16-.07-.33-.12-.49-.2a.22.22,0,0,1-.07-.39,2.47,2.47,0,0,1,2.54-1,.75.75,0,0,0,.79-.3,1.62,1.62,0,0,1,.33-.31c.4-.29.83-.51,1-1a1.94,1.94,0,0,1,.52-.6,1,1,0,0,0,.25-1,15.17,15.17,0,0,0-1.13-3.15,3,3,0,0,0-.38-.5l-1.5-1.67a4.1,4.1,0,0,0-.53-.49c-.49-.41-1-.81-1.47-1.22-.68-.58-1.34-1.2-2-1.75a9.69,9.69,0,0,0-1.31-.79,8.56,8.56,0,0,0-2.92-1,27,27,0,0,1-2.77-.75l-.75-.18c.27.31.47.51.64.74q1.29,1.71,2.55,3.42A14,14,0,0,0,102,62.82l4.26,3.51c.13.11.3.21.19.43a.42.42,0,0,1-.58.18,1.19,1.19,0,0,1-.25-.13c-.49-.3-1-.58-1.47-.91A8.12,8.12,0,0,0,102.3,65c-1.24-.46-2.49-.9-3.72-1.39a17.77,17.77,0,0,1-3.87-2.29c-.81-.61-1.63-1.18-2.44-1.79-1.06-.8-2.11-1.61-3.14-2.45a14.15,14.15,0,0,1-1.32-1.25,4.82,4.82,0,0,1-.56-.78C87.12,54.89,87,54.67,86.87,54.39Zm-15.57,1c0,.17,0,.27.08.35a4.36,4.36,0,0,0,1.67,2.11,11,11,0,0,0,2.33,1.33c.57.19,1.15.36,1.74.52a8.82,8.82,0,0,1,4.5,2.84,6.25,6.25,0,0,0,2.52,1.94c.85.32,1.69.67,2.53,1A23.21,23.21,0,0,0,92.46,67a33.52,33.52,0,0,1,4.1.73,8.85,8.85,0,0,0,.88.12.52.52,0,0,0-.26-.23c-1-.49-2-1-3-1.47l-5.07-2.6a11,11,0,0,1-2.89-2c-.87-.89-1.77-1.75-2.65-2.64a18.84,18.84,0,0,0-6.44-4.07,1,1,0,0,0-.74,0,8.48,8.48,0,0,1-1.11.25C74,55.17,72.68,55.29,71.3,55.44Zm52.41,4.83.05-.1c-.66-.45-1.3-.92-2-1.35-1.7-1.08-3.35-2.23-5-3.42a13.56,13.56,0,0,0-4.27-2.33c-.27-.08-.54-.19-.82-.27a14.06,14.06,0,0,0-4.31-.81c-.41,0-.83.06-1.24.1s-1.08.08-1.62.14a15.48,15.48,0,0,0-2.59.7,10.7,10.7,0,0,0-3.3,1.49c-.4.29-.81.55-1.29.88.45.16.79.3,1.14.4s1,.31,1.52.41c1.08.22,2.17.43,3.25.59a18.07,18.07,0,0,0,2.2.15c.62,0,1.25-.05,1.87-.09.37,0,.73-.08,1.1-.09,1,0,2-.1,3.06-.09a10.8,10.8,0,0,1,3.11.75q2.17.68,4.35,1.32a25.42,25.42,0,0,1,4.26,1.44A3.94,3.94,0,0,0,123.71,60.27Zm-37.83-20,0-.08c-.47.17-1,.33-1.42.52-1,.4-2,.85-3,1.23a18.94,18.94,0,0,0-4.28,2.34,56.27,56.27,0,0,0-5.38,4.48A46,46,0,0,0,68,52.39c-.31.37-.65.71-1,1.06a3.77,3.77,0,0,0-1,1.75l.3-.07a10.32,10.32,0,0,0,2.88-1.27,48.9,48.9,0,0,0,4.49-3c1.5-1.15,2.89-2.44,4.32-3.66l2.14-1.86c.36-.31.75-.6,1.11-.91l3.77-3.34Zm-9.32,13,.85-.14c.8-.13,1.6-.3,2.41-.38a5.91,5.91,0,0,0,1.44-.33,27.8,27.8,0,0,0,4-1.92c1.38-.75,2.71-1.58,4.08-2.33,1.52-.82,3.06-1.59,4.59-2.39.36-.18.7-.38,1-.59a27.52,27.52,0,0,1,2.77-1.63c.36-.17.7-.38,1-.57a.19.19,0,0,0-.17-.06c-1.42.41-2.87.73-4.28,1.22-2,.7-4.08,1.27-6.1,2s-3.84,1.4-5.75,2.14A7.32,7.32,0,0,0,80,49.62c-.49.46-1,.89-1.5,1.35A13.23,13.23,0,0,0,76.56,53.22Zm45,21.72c.29-.38.53-.75.83-1.07a1.46,1.46,0,0,0,.44-.88,1.69,1.69,0,0,1,.07-.38,17.44,17.44,0,0,0,.28-2.9c-.51-.46-.94-.87-1.38-1.26-1.14-1-2.28-2-3.44-3.06a9.67,9.67,0,0,0-.89-.65,2.85,2.85,0,0,0-.29-.12c.34.72.7,1.38,1,2.08.52,1.32,1,2.66,1.49,4a4.41,4.41,0,0,0,.79,1.36,11.64,11.64,0,0,1,.82,1.13,2.31,2.31,0,0,1,.15.38c-.29.09-.38-.08-.49-.21-.37-.42-.74-.84-1.1-1.27a2.22,2.22,0,0,1-.34-.52c-.29-.67-.57-1.35-.83-2-.43-1.14-.84-2.28-1.26-3.42a2.91,2.91,0,0,0-.17-.3l-.56.86a1.54,1.54,0,0,0-.15.35,4,4,0,0,0-.14,1.38,13.63,13.63,0,0,1-.12,3,.77.77,0,0,0,.3.76,9.65,9.65,0,0,0,.86.61,6.87,6.87,0,0,1,1.48,1.14,10.32,10.32,0,0,0,.81.81.45.45,0,0,0,.34.13A1.93,1.93,0,0,1,121.59,74.94Zm-65.51-21,.09,0A14.57,14.57,0,0,1,56.65,51a3.77,3.77,0,0,0,.2-.93c0-.8,0-1.6,0-2.4a2.92,2.92,0,0,0-.94-2.14,1.27,1.27,0,0,0-1.08-.4c-.54,0-1.08.07-1.62.09a.69.69,0,0,0-.56.23,2.93,2.93,0,0,0-.45.55,3.35,3.35,0,0,1-1.06,1.21,4.33,4.33,0,0,0-1,1.12,2.31,2.31,0,0,0,.13,2.37A5.55,5.55,0,0,0,52,52.26a1.31,1.31,0,0,1,.27.19L54.32,54l.5-.19a.68.68,0,0,1,0-1.06c-.11-.27-.22-.5-.31-.74-.51-1.39-1-2.79-1.52-4.19,0-.12-.09-.24.11-.33a1.12,1.12,0,0,1,.23.21A8.23,8.23,0,0,1,54,48.86a24.37,24.37,0,0,1,1.08,3.59l.09-.1c.18-.21.4-.16.62-.1s.24.28.24.47,0,.42,0,.63A5.81,5.81,0,0,0,56.08,53.93ZM40.51,71.36a.84.84,0,0,0,.24.18,3.51,3.51,0,0,0,1.5.25c.81-.09,1.61-.21,2.42-.27a6.18,6.18,0,0,0,1.59-.34q.38-.14.75-.3a3.51,3.51,0,0,1,2.3-.17,4.85,4.85,0,0,0,2,.08,33.83,33.83,0,0,1,4.49-.36c.75,0,1.5-.1,2.25-.15l3-.14c.21,0,.42,0,.63,0a19.48,19.48,0,0,0-2.24-.49c-1.43-.25-2.86-.51-4.3-.74s-2.77-.46-4.17-.56A26.18,26.18,0,0,0,45,68.6a5.58,5.58,0,0,0-2.79,1c-.62.5-1.16,1.1-1.73,1.65C40.51,71.29,40.52,71.31,40.51,71.36Zm61.34-7.23,0-.08c0-.07-.1-.15-.16-.22-.42-.47-.85-.92-1.24-1.4-.83-1-1.66-2-2.45-3.08a17.31,17.31,0,0,0-2.41-2.79,5.43,5.43,0,0,0-2-1.21,14.08,14.08,0,0,0-3.82-.58,14.78,14.78,0,0,1-1.62-.15h-.4c.14.17.22.3.33.41l.5.44c1.13,1,2.25,2,3.39,3a10.88,10.88,0,0,0,1.35,1q2.44,1.48,4.9,2.92c.79.46,1.6.87,2.41,1.29C101.05,63.84,101.45,64,101.85,64.13ZM57.56,59.4c-.38.15-.4.17-.27.54a4.24,4.24,0,0,1,.24,2.12,2.78,2.78,0,0,0,0,.91,9.28,9.28,0,0,0,.41,1.11A3,3,0,0,0,60,65c.38,0,.77,0,1.15-.11a4.66,4.66,0,0,0,1.14-.34,12,12,0,0,1,2-.88.85.85,0,0,0,.19-.09c.08-.63.15-1.2.24-1.76.06-.4.18-.78.23-1.18.16-1.23-.14-1.75-1.06-2.07a3.81,3.81,0,0,0-1.47,0,8.58,8.58,0,0,1-2.86,0,.5.5,0,0,0-.27,0l-1.44.69c.22.41.41.78.63,1.13a9.31,9.31,0,0,0,.68,1,7.86,7.86,0,0,0,.86,1,12.68,12.68,0,0,0,1,.78,1,1,0,0,1-.21.06l-.23,0A3,3,0,0,1,59,62a11.49,11.49,0,0,1-.89-1.37C57.92,60.25,57.75,59.82,57.56,59.4ZM45.44,56.14l-.13.2c-.2.39-.4.79-.62,1.18-.45.81-.92,1.61-1.36,2.42A13.69,13.69,0,0,0,42,63.39a6.71,6.71,0,0,0-.17,2.23c.07.76.13,1.53.21,2.29,0,.19.07.38.1.57l.12,0a3.55,3.55,0,0,1,.23-.31c.61-.61,1.2-1.24,1.84-1.82a4.53,4.53,0,0,0,1.24-2c.36-1.09.67-2.2,1-3.3a4.57,4.57,0,0,1,1-1.76,2.07,2.07,0,0,0,.51-.9A3.07,3.07,0,0,1,45.44,56.14Zm.94-2.4c.29-.2.3-.2.54-.1a2.73,2.73,0,0,0,.81.25,2.2,2.2,0,0,0,0-.23c0-.47.1-.54.55-.46l.56.11a3.08,3.08,0,0,1,2.24,1.57,9,9,0,0,0,.77,1.26c.45.58,1,1.1,1.47,1.68A6.82,6.82,0,0,0,54.65,56a4,4,0,0,1-2.14.29c.07-.27.26-.24.4-.28l1.49-.38c.16-.05.3-.14.55-.25-.2-.12-.29-.19-.4-.24L54,55l-2.11-.63c-.26-.08-.52-.16-.78-.26-.08,0-.15-.13-.22-.19l0-.14c.87.13,1.74.25,2.62.46A.56.56,0,0,0,53.3,54c-.7-.5-1.37-1-2.11-1.49a4,4,0,0,1-1.36-1.25c-.2-.3-.26-.32-.6-.2a4.06,4.06,0,0,0-1.36.87,3.93,3.93,0,0,1-2.34,1.3s-.05,0-.1.08,0,.26.07.4c.13.7.27,1.41.41,2.11,0,.11,0,.22.07.33a1.73,1.73,0,0,0,1.33,1.37c.75.15,1.5.28,2.25.41.29.05.58.06,1,.09-.45-.47-.8-.85-1.17-1.22a4.6,4.6,0,0,1-1.26-1.9c-.07-.25-.2-.49-.3-.76A1.1,1.1,0,0,1,46.38,53.74Zm3,11.66,1.43-.23c.29,0,.57-.07.85-.13A3.3,3.3,0,0,0,54.33,63a2.06,2.06,0,0,1,.12-.26c.35-.77.7-1.54,1.06-2.31.11-.23.24-.46.35-.66-.42,0-.82-.09-1.21-.11a.53.53,0,0,0-.38.09.79.79,0,0,1-.93.16.64.64,0,0,0-.78.1,1.22,1.22,0,0,1-.43.2,4.23,4.23,0,0,0-2.33,2.42A14.24,14.24,0,0,0,49.37,65.4Zm60.8,11.34v-.09A14.35,14.35,0,0,0,111.92,71a1.64,1.64,0,0,0-.09-.77,2.2,2.2,0,0,0-.23.25,5.34,5.34,0,0,1-1.47,1.41,2,2,0,0,1-1.06.4,3,3,0,0,0-.57,1.87A2.5,2.5,0,0,0,109,76c.38.49.81.93,1.18,1.35.62-.16,1.18-.29,1.72-.46a2.33,2.33,0,0,0,.91-.39,2.56,2.56,0,0,0,.85-1.33,5.86,5.86,0,0,1-1.53-2.45,2.54,2.54,0,0,0-.17.45c-.23.7-.43,1.41-.69,2.09a9,9,0,0,1-.6,1.15A.49.49,0,0,1,110.17,76.74Zm-49.46-24c-.37.34-.66.66-1,.92a4.81,4.81,0,0,1-.9.55,1.49,1.49,0,0,1-.7.25.76.76,0,0,0-.61.29A9.92,9.92,0,0,1,56,56a3.66,3.66,0,0,0-1.3,1.23c-.3.46-.62.92-1,1.42a2.58,2.58,0,0,0,.6.24,3.78,3.78,0,0,0,1.42.13,1.08,1.08,0,0,1,.47,0,1,1,0,0,0,.82-.16c.26-.19.54-.34.8-.53a.61.61,0,0,0,.25-.32A2.94,2.94,0,0,0,58,55.6a.35.35,0,0,1,0-.33c.12-.12.27-.07.38,0a1.74,1.74,0,0,1,.25.29,2.7,2.7,0,0,1,.27,1.91c0,.15-.06.29-.12.55.17-.12.31-.16.33-.23a6.1,6.1,0,0,1,1-1.69,3.26,3.26,0,0,0,.47-.88A11.87,11.87,0,0,0,60.71,52.74Zm38.7-3.84v-.07c-1.51.26-3,.5-4.52.79a18.77,18.77,0,0,0-2.09.52,14.84,14.84,0,0,0-3.31,1.71,18,18,0,0,0-1.56,1.2.61.61,0,0,0,.36.09,14.28,14.28,0,0,1,1.86.14,3,3,0,0,0,2-.35c.79-.4,1.57-.8,2.33-1.22,1-.56,2-1.14,3-1.72ZM46.29,64.63h.1c.86-.54,1.72-1.08,2.58-1.64a.5.5,0,0,0,.17-.27,4.51,4.51,0,0,1,3-3l.18-.11-1.17-.93a2.32,2.32,0,0,1-1.25,0,10.18,10.18,0,0,0-1.11-.12,24.22,24.22,0,0,0-1.55,3C46.86,62.51,46.53,63.55,46.29,64.63ZM114.51,68a6,6,0,0,1-.15-.71.6.6,0,0,0-.16-.43c-.41-.38-.78-.81-1.21-1.16-.69-.59-1.41-1.13-2.14-1.71,0,.09,0,.13,0,.14a8.47,8.47,0,0,1,.75,1.76,4.39,4.39,0,0,0,1.17,1.73,6.42,6.42,0,0,1,1.39,1.93.34.34,0,0,1-.06.47c-.56-.43-.72-1.17-1.36-1.64l.12.34.73,1.87c0,.14.16.3,0,.45a3.47,3.47,0,0,1-.76-1.31c-.25-.45-.47-.92-.74-1.44a.75.75,0,0,0,.16.59,3.2,3.2,0,0,1,.4,2c0,.18,0,.35,0,.53A3.93,3.93,0,0,0,114,74.9a.48.48,0,0,0,.58.06.83.83,0,0,0,.29-.88c-.19-.36-.41-.71-.63-1.06a4.81,4.81,0,0,1-.4-.6.87.87,0,0,1,.13-1,1,1,0,0,0,.21-.56A15.61,15.61,0,0,1,114.51,68ZM57.17,54a2.46,2.46,0,0,0,1-1.53c.09-.48.16-1,.23-1.46,0-.15,0-.35.2-.37s.26.16.29.32a2.57,2.57,0,0,1,.08.47,3.58,3.58,0,0,1-.17,1.42c-.06.16-.1.33-.18.58.61-.37,1.11-.69,1.22-1.37a3.33,3.33,0,0,1,.16-.6,3.7,3.7,0,0,0,.13-2,2.19,2.19,0,0,0-.69-1.29,4.89,4.89,0,0,0-1.65-1,1.69,1.69,0,0,0-.35,0,7.14,7.14,0,0,1,0,2.65c-.16,1-.37,2.08-.54,3.12a4.92,4.92,0,0,0,0,.67A.37.37,0,0,0,57.17,54ZM73.91,66.56v-.07l-.27-.19-3-1.88A10.66,10.66,0,0,0,66,62.59l-.91-.08a2,2,0,0,0,.09,1.33c.8.15,1.63.31,2.46.44a5.22,5.22,0,0,1,3,1.34,1.57,1.57,0,0,0,.69.41c.75.2,1.52.36,2.29.53A1.22,1.22,0,0,0,73.91,66.56ZM61.17,52.69a3.86,3.86,0,0,0,.66-1.29c.17-.48.3-1,.5-1.44a7.67,7.67,0,0,1,.61-1.08c.28-.44.62-.86.88-1.31a6.18,6.18,0,0,0,.66-2.29,7.85,7.85,0,0,0-4,6.26c.45-.1.53-.06.61.39C61.11,52.14,61.13,52.36,61.17,52.69Zm-13,1-.1.09a6.84,6.84,0,0,0,.74,1.79,7.87,7.87,0,0,0,1,1.11c.35.37.72.72,1.06,1.1a7.52,7.52,0,0,0,1.79,1.49.57.57,0,0,0,.56.08c-.1-.22-.27-.42-.26-.61a1.84,1.84,0,0,0-.71-1.45,7.77,7.77,0,0,1-1.6-2.07A2.51,2.51,0,0,0,49.29,54C48.93,53.85,48.56,53.76,48.2,53.65Zm67.26,9.94c-.12-.12-.23-.25-.36-.37l-1.71-1.6a3.27,3.27,0,0,0-1.3-.88c-1.23-.34-2.47-.62-3.71-.92-.07.59-.07.6.36.8s.56.26.84.37a14.44,14.44,0,0,1,3.94,2.35c.4.34.78.71,1.17,1.06.09.08.19.14.31.23Zm3.6,1.3a3.24,3.24,0,0,0,.23.3l1.38,1.32,2.47,2.27a.56.56,0,0,0,.6.19c.27-.1.52-.22.82-.35-.23-.25-.45-.46-.63-.69-.3-.38-.59-.76-.86-1.15C122.12,65.36,120.64,65.09,119.06,64.89Zm-4.62,1.35.31-1c-1.63-1.71-5-3.86-6.22-4a1.67,1.67,0,0,0,.88,1,30,30,0,0,1,3.79,2.84C113.61,65.48,114,65.85,114.44,66.24Zm2.63,7.17c.06.4.12.72.17,1,0,.15.09.36-.11.42s-.25-.15-.29-.3a2.85,2.85,0,0,1-.14-.5c0-.29,0-.58-.07-.86s-.06-.38-.32-.44c-.18.4-.35.81-.51,1.22a.37.37,0,0,0,0,.27,2.91,2.91,0,0,1,.36,1.94.89.89,0,0,0,.24.76,1.39,1.39,0,0,1,1.26-.75.46.46,0,0,0,.33-.16,13.2,13.2,0,0,0,.65-1.16.43.43,0,0,0,0-.31A4.88,4.88,0,0,0,117.07,73.41ZM61.2,53.6c2.15-1.67,3.73-4.78,3.38-6.41-.36.57-.72,1.21-1.17,1.79a4.85,4.85,0,0,0-.88,1.74,7.87,7.87,0,0,1-1.17,2.61C61.3,53.41,61.26,53.51,61.2,53.6Zm2.43-1.89,4.68-2.85a11.87,11.87,0,0,0-3.18.3.75.75,0,0,0-.59.6,2.92,2.92,0,0,1-.19.49C64.13,50.71,63.9,51.16,63.63,51.71Zm51.75,22.12c.09-.19.18-.36.24-.53s.16-.49.25-.73a.7.7,0,0,0,0-.55,1.76,1.76,0,0,1-.13-.78,10.66,10.66,0,0,0,0-3.52c0-.08-.06-.16-.08-.23a.48.48,0,0,0-.11.32c0,.81-.08,1.63-.15,2.44a3.56,3.56,0,0,0,.12,1.65,1.92,1.92,0,0,1,0,.79c0,.08-.12.14-.23.25a.91.91,0,0,1,0-.26,2.5,2.5,0,0,0-.21-1.11,2.15,2.15,0,0,1-.11-.8c0-.69.1-1.39.15-2.08a.8.8,0,0,0-.14.38c-.06.57-.1,1.15-.18,1.72a2,2,0,0,1-.23.76c-.28.47-.3.58,0,1S115,73.36,115.38,73.83Zm-1.4,1.7-.1.21a2.46,2.46,0,0,1-2.2,1.86l-.24,0-.56.14a2.87,2.87,0,0,1,.63.3,3.48,3.48,0,0,1,.44.49,5.3,5.3,0,0,1,.75-.52c.28-.14.6-.19.9-.32a4,4,0,0,0,.75-.42.79.79,0,0,0,.28-.89C114.43,76.12,114.22,75.85,114,75.53Zm10.58-4.08-.11.06a4.64,4.64,0,0,1,.1,1c-.07.68.27,1,.86,1.14a4.56,4.56,0,0,1,1.7,1c.21.19.44.34.66.51l.07-.07ZM116,64c-.36.82-.71,1.6-1,2.39a3.83,3.83,0,0,0-.15.79l.49-.24a1.56,1.56,0,0,0,.8-.72,8.26,8.26,0,0,0,.49-1.19c.18-.55.11-.66-.4-.94Zm-7.56,12.25c-.91-1.16-.65-2.44-.36-3.73-.32.14-.31.14-.39.35-.18.47-.36,1-.55,1.42a1.24,1.24,0,0,0,.37,1.66c.12.11.23.23.34.34S108.25,76.43,108.48,76.22ZM56.82,59.81a.74.74,0,0,0-.58.34,11.57,11.57,0,0,0-.84,1.65l1.78-.26ZM111.41,69c-.41,1-1.39,1.53-2.14,2.29l.53.1a.79.79,0,0,0,.77-.27c.33-.38.63-.77.93-1.16A.7.7,0,0,0,111.41,69Zm-5.11,3.15a1.29,1.29,0,0,0,1.55,0,1.68,1.68,0,0,1,.72-.2c.26,0,.52,0,.78-.06a6,6,0,0,0-1.08-.47,1,1,0,0,0-.51,0A2.55,2.55,0,0,0,106.3,72.13ZM107.52,60l.1-.09a1.09,1.09,0,0,0-.17-.36A4.37,4.37,0,0,0,106,58.47c-.78-.28-1.57-.52-2.36-.78l-.23,0C104.78,58.57,106.33,58.94,107.52,60ZM61.66,47A11.46,11.46,0,0,0,60,48.09l.56,1.1Zm53.69,29.59a1.44,1.44,0,0,0,0-1.81l-.75.86ZM54.91,63,57,62.52v-.47l-1.84.33Zm.37-8.53c.21.21.36.15.42.07V53a.84.84,0,0,0,0-.28c0-.07-.11-.11-.18-.17-.21.58-.21.58-.6.72l.41.52C55.54,54.1,55.54,54.12,55.28,54.45Zm68.53,17.16-.18,1.25c.08,0,.16.09.24.12l.18,0A2.82,2.82,0,0,0,123.81,71.61ZM48,64.37l0,.13.81-.08v-.6ZM107.62,61c0-.42-.3-.47-.48-.63s-.41-.32-.61-.48A3.6,3.6,0,0,0,107.62,61Z"/><path d="M54.36,53a3.17,3.17,0,0,1-.58-.37,5.27,5.27,0,0,1-1.57-2.8s0-.1,0-.13.08-.2.14-.21.17,0,.22.12a.88.88,0,0,1,.13.3,8.54,8.54,0,0,0,1.45,2.52l.34.45Z"/><path d="M64.32,63.1c-1,.38-3.54-.91-4-1.93.15-.13.28,0,.37.06a8.78,8.78,0,0,0,3.1,1.66Z"/><path d="M63.11,60.59a1,1,0,0,1-.72.28,2.8,2.8,0,0,1-1.4-.22c-.43-.2-.85-.44-1.26-.68a2.34,2.34,0,0,1-.4-.37c.15-.23.28-.14.41-.08l.89.46a4.34,4.34,0,0,0,2,.49,1.84,1.84,0,0,1,.33,0S63,60.54,63.11,60.59Z"/><path d="M141.37,78.45,134.26,85l-.17-.16c.12-.16.23-.33.36-.48,1.56-1.87,3.12-3.73,4.67-5.61a1,1,0,0,1,.91-.44c.43,0,.86,0,1.28,0Z"/></g></g></svg>