<svg xmlns="http://www.w3.org/2000/svg" viewBox="0 0 165 165"><defs><style>.cls-1{fill:#010200;}.cls-2{fill:#fff;}</style></defs><g id="Capa_2" data-name="Capa 2"><g id="Capa_1-2" data-name="Capa 1"><rect class="cls-1" width="165" height="165"/><path class="cls-2" d="M44.49,71.31h0s-2-3-13-.23c0,0-7.88,2-10.59-.21h0a1.29,1.29,0,0,0-2.39.67,1.31,1.31,0,0,0,.35.88h0s1.84,2.45,8.33,1.86c0,0,1.72-.09,1.76,2.4V93.81h0a1.29,1.29,0,0,0,2.56-.17,1.16,1.16,0,0,0-.06-.38V76.68s-.25-3.59,2.28-3.59c0,0,5.34-1.86,8.92,0a1.3,1.3,0,0,0,.38.22h0a1.23,1.23,0,0,0,.44.08,1.28,1.28,0,0,0,1-2.13"/><path class="cls-2" d="M47.19,76.68a1.29,1.29,0,0,0-2.57,0,.45.45,0,0,0,0,.12V91.34s.12,1.15-1.54,1.15c0,0-1.66-.13-1.66-1.32V77.11a1.21,1.21,0,0,0,.07-.43,1.28,1.28,0,0,0-1.28-1.28,1.3,1.3,0,0,0-1.29,1.28h0V91.43s.81,3.66,4.22,3.66a4,4,0,0,0,4-3.61V77a1.36,1.36,0,0,0,0-.36"/><path class="cls-2" d="M77.27,76.61a1.28,1.28,0,0,0-2.56.07,1.16,1.16,0,0,0,.07.42V91.34s.12,1.15-1.54,1.15c0,0-1.65-.13-1.65-1.32V76.82s0-.09,0-.14a1.29,1.29,0,0,0-2.57,0,1.55,1.55,0,0,0,0,.31V91.43s.82,3.66,4.23,3.66a4,4,0,0,0,4-3.61V76.61Z"/><path class="cls-2" d="M61.32,88.59A1.28,1.28,0,0,0,60,89.88a1.31,1.31,0,0,0,.14.59c-.1.76-.48,2.13-1.89,2.13,0,0-1.88.21-1.88-2.72V80.55S56.34,78,58.3,78c0,0,1.62-.22,1.84,2.1a1.35,1.35,0,0,0-.1.5,1.28,1.28,0,0,0,1.28,1.28,1.29,1.29,0,0,0,1.28-1.11h0s0-.11,0-.16a1.55,1.55,0,0,0,0-.31c-.12-1.31-.76-4.84-4.28-4.84,0,0-4.32-.22-4.32,5.32V91.17s.62,3.93,4,3.93A4.83,4.83,0,0,0,62.61,90h0s0-.06,0-.09a1.29,1.29,0,0,0-1.29-1.29"/><path class="cls-2" d="M130.29,88.59A1.29,1.29,0,0,0,129,89.88a1.2,1.2,0,0,0,.15.59c-.11.76-.49,2.13-1.9,2.13,0,0-1.88.21-1.88-2.72V85.76a1.21,1.21,0,0,0,0-1.09V80.55s-.07-2.6,1.9-2.6c0,0,1.61-.22,1.83,2.1a1.35,1.35,0,0,0-.1.5,1.29,1.29,0,0,0,2.56.17h0a.86.86,0,0,0,0-.16,1.06,1.06,0,0,0,0-.31c-.11-1.31-.76-4.84-4.28-4.84,0,0-4.32-.22-4.32,5.32V91.17s.62,3.93,4,3.93A4.83,4.83,0,0,0,131.57,90h0v-.09a1.28,1.28,0,0,0-1.28-1.29"/><path class="cls-2" d="M91.39,84.86s.78-.51,1.06-2.64a1.23,1.23,0,0,0,.06-.39v-.11a18.2,18.2,0,0,0,0-2.46S92,74.18,85.32,75.4A1.29,1.29,0,0,0,84,76.68a.71.71,0,0,0,0,.15h0v17.1h0a1.28,1.28,0,0,0,2.55-.17,1.12,1.12,0,0,0,0-.32V88.59s.33-2.61,1.32,0,0,.19,0,.19L90,94.18a1.08,1.08,0,0,0,.08.19v0h0a1.29,1.29,0,0,0,2.44-.57,1.31,1.31,0,0,0-.33-.86l-2.24-5.82s-.63-1.25,1.45-2.28m-3.32-1.13a1.4,1.4,0,0,1-1.5-1.48V79.53S86.33,77.77,88,77.8a1.75,1.75,0,0,1,1.87,1.94l0,2.45s.16,1.54-1.87,1.54"/><path class="cls-2" d="M101.24,77.25a1.35,1.35,0,0,0,.07-.41,1.29,1.29,0,0,0-2.57,0V94.08h0a1.27,1.27,0,0,0,1.25,1,1.29,1.29,0,0,0,1.29-1.28,1.35,1.35,0,0,0-.07-.41Z"/><path class="cls-2" d="M116.36,77.13a1.35,1.35,0,0,0,0-.29,1.29,1.29,0,0,0-2.57,0,1.36,1.36,0,0,0,0,.29v9.22l-3.4-9.43s0,0,0-.08a1.29,1.29,0,0,0-2.57,0,1.36,1.36,0,0,0,0,.29v16.4a1.36,1.36,0,0,0,0,.29,1.29,1.29,0,0,0,2.57,0,.92.92,0,0,0,0-.29v-9.3l3.4,9.45v.14a1.29,1.29,0,0,0,2.57,0,1.35,1.35,0,0,0,0-.29Z"/><path class="cls-2" d="M146.42,93.43V78.9c0-3.46-4.2-3.34-4.2-3.34A4.07,4.07,0,0,0,138,79V93.82a1.29,1.29,0,0,0,2.57,0h0V89.71c0-1.4,1-1.53,1.45-1.51h.2c1.77,0,1.69,1.42,1.69,1.42v4.19h0a1.29,1.29,0,0,0,2.57,0,1.23,1.23,0,0,0-.06-.39m-4.2-7.79s-1.77,0-1.77-1V79.46a2.05,2.05,0,0,1,1.77-1.33s1.68.09,1.68,1.33l0,5.18s-.07,1-1.72,1"/></g></g></svg>