<svg xmlns="http://www.w3.org/2000/svg" xmlns:xlink="http://www.w3.org/1999/xlink" viewBox="0 0 165 165"><defs><style>.cls-1,.cls-4{fill:none;}.cls-2{fill:#fff;}.cls-3{clip-path:url(#clip-path);}.cls-4{stroke:#272525;stroke-width:0.75px;}.cls-5{fill:#272525;}</style><clipPath id="clip-path"><rect class="cls-1" x="35.59" y="56.56" width="93.82" height="51.88"/></clipPath></defs><g id="Capa_2" data-name="Capa 2"><g id="Capa_1-2" data-name="Capa 1"><rect class="cls-2" width="165" height="165"/><g class="cls-3"><rect class="cls-4" x="36.65" y="57.62" width="91.71" height="49.76"/><path class="cls-5" d="M108.7,90.13H107V74.57h1.73Zm-13-1.61a9.7,9.7,0,0,0,2.75-.34,5.34,5.34,0,0,0,2.16-1.27,6,6,0,0,0,1.45-2.07,6.32,6.32,0,0,0,.49-2.49,6.6,6.6,0,0,0-.51-2.58,5.81,5.81,0,0,0-1.51-2.09,5.28,5.28,0,0,0-2.14-1.2,10.67,10.67,0,0,0-2.69-.3H94.46V88.52Zm-3-14h2.93A12.82,12.82,0,0,1,99,75a7.05,7.05,0,0,1,2.71,1.48,7.16,7.16,0,0,1,1.94,2.64,8.46,8.46,0,0,1,.64,3.29,8.05,8.05,0,0,1-.64,3.2,7.68,7.68,0,0,1-1.9,2.6,7.07,7.07,0,0,1-2.72,1.56,13,13,0,0,1-3.43.4H92.73ZM83.27,90.13H81.54V74.57h2.25a11.74,11.74,0,0,1,2.21.19,5.53,5.53,0,0,1,1.79.66A3.29,3.29,0,0,1,89,76.74a4.52,4.52,0,0,1,.45,2.12,4.25,4.25,0,0,1-1,3,4.18,4.18,0,0,1-2.85,1.33l5,7H88.41l-4.7-6.83h-.44Zm0-8.36h.54a10,10,0,0,0,1.52-.1,3.82,3.82,0,0,0,1.22-.41,2.12,2.12,0,0,0,.88-.85A2.88,2.88,0,0,0,87.75,79a3,3,0,0,0-.31-1.49,2.08,2.08,0,0,0-.84-.85,3.64,3.64,0,0,0-1.21-.37,12.26,12.26,0,0,0-1.6-.09h-.52Zm-12.75-7.2h8.07v1.61H72.25V80.8H78.4v1.61H72.25v6.11h6.34v1.61H70.52Zm-8,11.86,4.43-11.86h1.88L62.51,91.06,56.19,74.57h1.88Z"/></g></g></g></svg>