<svg xmlns="http://www.w3.org/2000/svg" viewBox="0 0 169.54 165"><defs><style>.cls-1{fill:#383230;}.cls-2{fill:#8c8e8f;}.cls-3{fill:#8bc7b9;}</style></defs><g id="Capa_2" data-name="Capa 2"><g id="Capa_1-2" data-name="Capa 1"><rect class="cls-1" width="169.54" height="165"/><polygon class="cls-2" points="130.8 59.42 117.42 97.47 119.77 97.47 130.8 65.82 141.84 97.47 144.19 97.47 130.8 59.42"/><polygon class="cls-2" points="38.6 98.69 51.98 60.64 49.49 60.64 38.6 91.95 27.7 60.64 25.36 60.64 38.6 98.69"/><path class="cls-2" d="M70.73,97.47H68.39V60.64h2.34Z"/><path class="cls-2" d="M93.2,95.27h9.38v2.2H90.85V60.64H93.2Z"/><polygon class="cls-3" points="130.8 85.73 126.67 97.47 134.93 97.47 130.8 85.73"/><polygon class="cls-2" points="130.8 56.33 132.87 50.47 128.74 50.47 130.8 56.33"/><path class="cls-2" d="M38.67,106.87h1.52c2.26,0,4.13,1.19,4.13,3.64s-1.83,3.72-4.16,3.72H38.67Zm.92,6.52h.32c1.87,0,3.5-.7,3.5-2.84s-1.63-2.84-3.5-2.84h-.32Z"/><path class="cls-2" d="M50.13,106.87h3.95v.84h-3v2.06h3v.84h-3v2.78h3v.84H50.13Z"/><path class="cls-2" d="M65.46,108.27a3,3,0,1,0,0,4.52v1.08a4,4,0,0,1-1.93.52,3.81,3.81,0,0,1-3.84-3.8,3.87,3.87,0,0,1,3.92-3.88,3.55,3.55,0,0,1,1.85.5Z"/><path class="cls-2" d="M78.64,110.55a3.86,3.86,0,0,1-7.71,0,3.86,3.86,0,0,1,7.71,0Zm-.91,0a2.94,2.94,0,1,0-5.88,0,2.94,2.94,0,1,0,5.88,0Z"/><path class="cls-2" d="M89,114.23H87.89l-2.17-3.11h-.38v3.11h-.92v-7.36h1.11a3.94,3.94,0,0,1,2,.34,2,2,0,0,1,1,1.76A2,2,0,0,1,86.67,111Zm-3.66-3.88h.29c.94,0,2-.17,2-1.34s-1.09-1.32-2-1.32h-.24Z"/><path class="cls-2" d="M95.65,112.39l-.84,1.84h-1l3.51-7.67,3.52,7.67h-1L99,112.39Zm1.69-3.82-1.31,3h2.62Z"/><path class="cls-2" d="M111.72,108.27a3,3,0,1,0,0,4.52v1.08a4,4,0,0,1-1.93.52,3.81,3.81,0,0,1-3.84-3.8,3.87,3.87,0,0,1,3.92-3.88,3.55,3.55,0,0,1,1.85.5Z"/><path class="cls-2" d="M118.59,114.23h-.92v-7.36h.92Z"/><path class="cls-2" d="M132.05,110.55a3.86,3.86,0,0,1-7.71,0,3.86,3.86,0,0,1,7.71,0Zm-.92,0a2.94,2.94,0,1,0-5.88,0,2.94,2.94,0,1,0,5.88,0Zm-1.63-5.61-1.6,1.46-.43-.26,1.22-1.63Z"/><path class="cls-2" d="M137.74,106.52l5.53,5.79v-5.44h.92v7.66l-5.53-5.79v5.49h-.92Z"/></g></g></svg>