<svg xmlns="http://www.w3.org/2000/svg" viewBox="0 0 165 165"><defs><style>.cls-1{fill:#fff;}.cls-2{fill:#60848c;}</style></defs><g id="Capa_2" data-name="Capa 2"><g id="Capa_1-2" data-name="Capa 1"><rect class="cls-1" width="165" height="165"/><path class="cls-2" d="M22.43,107.07a2.79,2.79,0,0,0,.77.11.47.47,0,0,0,.54-.49c0-4,.07-8.57,0-12.52-.22-.86-1.61-1.11-2.72-1.11,0-.49,0-.49,0-.86,0-.07,5.7-.12,6.23-.11a44.08,44.08,0,0,1,5.52.19,8.68,8.68,0,0,1,3.22,1,3.22,3.22,0,0,1,1.77,3.07,3.6,3.6,0,0,1-2.07,2.86,5.44,5.44,0,0,1-1.41.68c1.43.52,3.35,1,4,2.69.85,2.22-.19,4.41-2.33,5.65a8.4,8.4,0,0,1-8.12.06c2,.26,4.87.84,6.36-1.17.91-1.23,1.43-3.24.65-4.6-1-1.8-3.23-2-5.13-2.06-.51,0-1.14,0-1.65,0s-1,.19-1.11.83c-.35,2.93.95,6.28-2,7.16a2.73,2.73,0,0,1-2.47-.71l-.08-.66ZM27,94.26,27,98.88s-.11.75.79.75,4,0,5.41-.78,1.38-2.92,1.38-2.92.11-1.67-2.06-2.3a12.11,12.11,0,0,0-4.43-.3A1,1,0,0,0,27,94.26Z"/><path class="cls-2" d="M78,100a6.12,6.12,0,0,1,.33,7.89,7.89,7.89,0,0,1-5.12,2.3c1.53,3.79,7.19,2.38,7.19,2.38-6.61,2.86-9.5-2.43-9.5-2.43a7.92,7.92,0,0,1-3.44-1.3,6.05,6.05,0,0,1-2.15-6.28c1.47-5.07,7.3-4.57,7.3-4.57A8.37,8.37,0,0,1,78,100Zm-5.65-1.35s-4.64-.31-4.83,5.32c0,0-.25,5.3,4.62,5.58,0,0,4.88.58,5-5.39C77.18,104.12,77.59,98.73,72.36,98.61Z"/><path class="cls-2" d="M141.78,109.31H144L143.9,103s-.2-4.33-5.63-4.48a6.17,6.17,0,0,0-6.37,4.93,5.3,5.3,0,0,0,3.17,5.49,7,7,0,0,0,6-.5s-6,1.42-6.84-3.12c0,0-.82-5.83,3.86-5.78,3.94,0,3.69,4.13,3.69,4.13Z"/><path class="cls-2" d="M52.39,104.05c0,2.89-2.74,5.24-6.13,5.24s-6.12-2.35-6.12-5.24,2.76-5.54,6.15-5.54,6.1,2.34,6.1,5.54Zm-6.07-4.63c-2.12,0-3.84,2.19-3.84,4.58a4.1,4.1,0,0,0,3.82,4.33A4.11,4.11,0,0,0,50.13,104C50.13,101.35,48.43,99.42,46.32,99.42Z"/><path class="cls-2" d="M101.47,99.52c3.71,0,3.78,3.83,3.78,3.83H97.94s0-3.83,3.53-3.83Zm-3.77,4.91h9.89s.39-5.82-6-5.82a5.94,5.94,0,0,0-5.14,2.24,5.15,5.15,0,0,0,.6,6.88,6.35,6.35,0,0,0,4.85,1.44,11.88,11.88,0,0,0,5.89-2,20.48,20.48,0,0,1-5.89,1.12C99.78,108.32,97.82,107.27,97.7,104.43Z"/><path class="cls-2" d="M124.46,98.48s-2.9-.09-4.49,1.78c-1.59-1.87-4.5-1.78-4.5-1.78a5.4,5.4,0,0,0-5.43,4.58v6.11h2.33v-6.08s.13-3.59,3.18-3.59,3.47,3.24,3.47,3.24v6.43h1.9v-6.43s.42-3.24,3.47-3.24,3.18,3.59,3.18,3.59v6.08h2.33v-6.11A5.4,5.4,0,0,0,124.46,98.48Z"/><path class="cls-2" d="M90.74,98.6s0,3.7,0,5.47a6.29,6.29,0,0,1-.53,2.76,2.92,2.92,0,0,1-2.49,1.58l-.45,0-.45,0a2.92,2.92,0,0,1-2.49-1.58,6.19,6.19,0,0,1-.54-2.76c0-1.77,0-5.47,0-5.47a14.58,14.58,0,0,0-2.44,0v5.82s0,4.42,5.3,4.94c0,0,.44,0,.57,0s.57,0,.57,0c5.32-.52,5.29-4.94,5.29-4.94V98.6A14.45,14.45,0,0,0,90.74,98.6Z"/><path class="cls-2" d="M63.46,106.67a3,3,0,0,1-.24,1.14,2.64,2.64,0,0,1-.85,1.08,4.88,4.88,0,0,1-1.65.8,9.9,9.9,0,0,1-2.66.3,15,15,0,0,1-1.73-.09,12.44,12.44,0,0,1-1.29-.21,6.34,6.34,0,0,1-1.07-.31,2,2,0,0,1,0-.29c0-.1,0-.23,0-.38s0-.33,0-.53,0-.37,0-.54,0-.32,0-.44a3,3,0,0,1,0-.39c.26.29.52.55.78.8a4.76,4.76,0,0,0,.87.62,4.49,4.49,0,0,0,1.05.4,6.18,6.18,0,0,0,1.36.14,5.3,5.3,0,0,0,1.44-.16,2.67,2.67,0,0,0,.88-.39,1.36,1.36,0,0,0,.43-.55,1.53,1.53,0,0,0,.13-.62,1.31,1.31,0,0,0-.43-1,4.61,4.61,0,0,0-1.22-.72l-2.44-1.08-.89-.39a4.2,4.2,0,0,1-.89-.57,2.87,2.87,0,0,1-.68-.85,2.38,2.38,0,0,1-.28-1.21,2.63,2.63,0,0,1,.37-1.4,3.08,3.08,0,0,1,1-1,5.15,5.15,0,0,1,1.58-.55,11.52,11.52,0,0,1,2-.17,11.85,11.85,0,0,1,1.68.1c.49.07.89.15,1.22.23a6.58,6.58,0,0,1,1,.3,1.35,1.35,0,0,0,0,.31,2.18,2.18,0,0,0,0,.38v1.06a2.56,2.56,0,0,0,0,.42,1.73,1.73,0,0,0,0,.36c-.26-.28-.51-.54-.77-.78a4.13,4.13,0,0,0-.83-.61,4.46,4.46,0,0,0-1-.41,4.72,4.72,0,0,0-1.24-.16l-.78,0a3.47,3.47,0,0,0-.86.19,1.76,1.76,0,0,0-.7.45,1.12,1.12,0,0,0-.29.82,1.23,1.23,0,0,0,.56,1.08,9.64,9.64,0,0,0,1.61.84l1.89.8c.42.19.81.38,1.16.58a3.83,3.83,0,0,1,.92.67,2.67,2.67,0,0,1,.59.84A2.46,2.46,0,0,1,63.46,106.67Z"/><path class="cls-2" d="M68.83,84.42h0v.15a1.05,1.05,0,0,1-1.23,1.1,6.71,6.71,0,0,1-1.72-.25l.17,1.49c1.47,1.18,3.48,2.24,5.57,1.6a6.77,6.77,0,0,0,1.91-.9,26.42,26.42,0,0,1-4.7-3.43Z"/><path class="cls-2" d="M101.63,75.2c-1.38-3.63-5.55-4.91-8.9-6a21.53,21.53,0,0,0,5.21-3.09,7.29,7.29,0,0,0,2.16-7.65A9,9,0,0,0,95,53.57a17.61,17.61,0,0,0-4-1.21c-4.75-.89-9.52-.64-14.32-.74-1.19,0-14,.1-14,.25,0,.84,0,.83,0,2,2.49,0,5.62.55,6.13,2.49,0,2.27.06,4.62.06,7a16,16,0,0,1,9-7.87,19.37,19.37,0,0,1,9.8-.28,29.5,29.5,0,0,1,7.62,2.72,12.07,12.07,0,0,1-4.47,7.54,13.28,13.28,0,0,1-6.34,2.28,24.78,24.78,0,0,1-9.19-.79,8.57,8.57,0,0,1,3.81-4.67,26.33,26.33,0,0,1,8.17-3.39,31.85,31.85,0,0,0-4,0,25.79,25.79,0,0,0-4.18.84,22.39,22.39,0,0,0-11.79,8.82,11.67,11.67,0,0,0-2.47,7.25h0a2.45,2.45,0,0,0,0,.27v0l0,.26v0c0,.08,0,.16,0,.24s0,0,0,.08a1.77,1.77,0,0,1,0,.2l0,.14a.83.83,0,0,0,0,.15c0,.1,0,.19.07.29l.14.42s0,.09,0,.13l.12.32a1.11,1.11,0,0,0,.07.16l.12.28a2,2,0,0,1,.1.21l.07.13q.21.4.45.78h0l.07.1h0a10.3,10.3,0,0,0,.64.9,25.29,25.29,0,0,0,11.71,8h0l.44.15.24.07.24.07.32.09.06,0h0l.34.09c.43.12.87.22,1.31.31l.15,0a23.25,23.25,0,0,0,7.3.44,18.37,18.37,0,0,0,7.29-2.31C101.19,85.15,103.55,80.21,101.63,75.2Zm-8.28,5.35a8.31,8.31,0,0,1-2,4.82c-1.67,1.79-4.57,2.43-6.92,2.69a14.21,14.21,0,0,1-2.69,0h-.12A15.23,15.23,0,0,1,80,87.88h0l-.43-.09-.13,0-.32-.08-.13,0-.4-.11h0a15.85,15.85,0,0,1-2.29-.87,18.94,18.94,0,0,1-3-1.79,17.64,17.64,0,0,1-4.89-5h0a9.25,9.25,0,0,1-.51-1l0-.12c-.07-.16-.13-.32-.19-.48a7.09,7.09,0,0,1-.34-2,7.17,7.17,0,0,1,1.65-4.58A24.51,24.51,0,0,0,68.71,75c0,.92,0,1.84.05,2.76,0,.14,0,.29,0,.44h0v1.74a22.94,22.94,0,0,0,6.55,5.38l.09-.19s.15-3.95.24-5.91c.06-1.48.13-3,.22-4.44,0-.79.09-1.59.18-2.39.18-1.44,1.15-1.82,2.5-1.88,3.09-.15,6.59-.37,9.53.78A8.85,8.85,0,0,1,93.35,80.55Z"/></g></g></svg>