<svg xmlns="http://www.w3.org/2000/svg" viewBox="0 0 165 165"><defs><style>.cls-1{fill:#fff;}.cls-2{fill:#2e4687;}</style></defs><g id="Capa_2" data-name="Capa 2"><g id="Capa_1-2" data-name="Capa 1"><rect class="cls-1" width="165" height="165"/><path class="cls-2" d="M21,76h6.77c5.13,0,9.91,2.81,9.91,9s-4.78,9-9.91,9H21Zm6.66,15.3c3.46,0,7.14-1.46,7.14-6.3s-3.68-6.3-7.14-6.3H23.74v12.6Z"/><path class="cls-2" d="M40.92,86.29V76h2.8V86.25c0,3.42,2.08,5.46,5.43,5.46s5.42-2,5.42-5.46V76h2.81V86.29c0,5-3.57,8.08-8.23,8.08S40.92,91.31,40.92,86.29Z"/><path class="cls-2" d="M62,76h2.77v3.46a6.73,6.73,0,0,1,6.37-3.53v2.84c-3.24-.07-6.37,1.75-6.37,6.66V94H62Z"/><path class="cls-2" d="M72.67,85A9.37,9.37,0,0,1,82,75.58a8.54,8.54,0,0,1,7,3.28V76h2.77V94H88.91V91.09a8.54,8.54,0,0,1-7,3.28A9.37,9.37,0,0,1,72.67,85Zm16.2,0a6.46,6.46,0,0,0-6.66-6.67A6.67,6.67,0,1,0,88.87,85Z"/><path class="cls-2" d="M99.5,70.63V76h5.25v2.73h-8V70.63Zm0,10.6v7.21c0,3,1.9,3.78,5.5,2.94v2.55c-5.06,1.06-8.27-.76-8.27-5.24V81.23Z"/><path class="cls-2" d="M125.83,85.6H110.1a6.42,6.42,0,0,0,6.59,6c3.06,0,5-1.38,5.9-3.35h3c-1.13,3.75-4.88,6.12-9,6.12a9.4,9.4,0,1,1,0-18.79,9.07,9.07,0,0,1,9.25,9A6.81,6.81,0,0,1,125.83,85.6Zm-15.48-2.66h12.38a6,6,0,0,0-6.15-4.59A6.5,6.5,0,0,0,110.35,82.94Z"/><path class="cls-2" d="M133.84,84.83,127.21,76h3.31l5,6.74,5-6.74h3.31l-6.63,8.85L144,94h-3.31l-5.21-7-5.21,7H127Z"/></g></g></svg>