<svg xmlns="http://www.w3.org/2000/svg" viewBox="0 0 165 165"><defs><style>.cls-1{fill:#fff;}.cls-2{fill:#211915;}.cls-3{fill:none;stroke:#000;stroke-miterlimit:10;stroke-width:0.62px;}</style></defs><g id="Capa_2" data-name="Capa 2"><g id="Capa_1-2" data-name="Capa 1"><rect class="cls-1" width="165" height="165"/><path class="cls-2" d="M36.33,70.78a.63.63,0,0,1-.44-.12.64.64,0,0,1-.13-.44V51.66a.64.64,0,0,1,.13-.44.63.63,0,0,1,.44-.12H38a.46.46,0,0,1,.56.56V67.55a1,1,0,0,0,.08.52c0,.05.22.07.52.07h9.39a.59.59,0,0,1,.44.13.61.61,0,0,1,.12.43v1.52a.46.46,0,0,1-.56.56Z"/><path class="cls-2" d="M48.46,66.46H46.92a.33.33,0,0,1-.14-.09.38.38,0,0,1-.1-.23L46.48,65c0-.22-.08-.35-.13-.38a.59.59,0,0,0-.34-.06H44.07a.69.69,0,0,0-.37.06.92.92,0,0,0-.13.38l-.19,1.17a.45.45,0,0,1-.1.23.33.33,0,0,1-.14.09H41.38a.21.21,0,0,1-.12-.1.36.36,0,0,1,0-.26L44,51.64a.6.6,0,0,1,.13-.31.58.58,0,0,1,.35-.08h1.17a.56.56,0,0,1,.35.08.53.53,0,0,1,.13.31l2.74,14.45c0,.16,0,.26,0,.3a.63.63,0,0,1-.32.07m-3.52-9.69-.89,5.28a.73.73,0,0,0,0,.38.74.74,0,0,0,.37,0h1.22a.77.77,0,0,0,.37,0,1.08,1.08,0,0,0,0-.38l-.89-5.28q0-.09-.09-.09c-.05,0-.07,0-.09.09"/><path class="cls-2" d="M33.79,96.43A2.13,2.13,0,0,0,34.27,98a1.73,1.73,0,0,0,2.41,0,2.17,2.17,0,0,0,.47-1.53v-.19a.59.59,0,0,1,.13-.44.61.61,0,0,1,.43-.12h1.65c.41,0,.6.24.56.72a5,5,0,0,1-1.41,3.49,4.37,4.37,0,0,1-3,1.13,4.29,4.29,0,0,1-3.2-1.3,5.55,5.55,0,0,1-1.27-4V86.53a5.56,5.56,0,0,1,1.27-4,4.61,4.61,0,0,1,6.24-.16,5,5,0,0,1,1.41,3.48c0,.48-.15.73-.56.73H37.71a.61.61,0,0,1-.43-.13.57.57,0,0,1-.13-.43v-.2a2.13,2.13,0,0,0-.47-1.52,1.73,1.73,0,0,0-2.41,0,2.08,2.08,0,0,0-.48,1.52Z"/><path class="cls-2" d="M48.84,97H47.29a.33.33,0,0,1-.14-.09.45.45,0,0,1-.1-.23l-.19-1.17a.84.84,0,0,0-.13-.38s-.16,0-.35,0H44.45c-.2,0-.33,0-.37,0a.84.84,0,0,0-.13.38l-.2,1.17a.37.37,0,0,1-.09.23.35.35,0,0,1-.15.09H41.75a.17.17,0,0,1-.11-.1.4.4,0,0,1,0-.26l2.74-14.45a.56.56,0,0,1,.13-.31.56.56,0,0,1,.35-.08H46a.58.58,0,0,1,.35.08.65.65,0,0,1,.13.31L49.2,96.59c0,.16,0,.26-.05.3a.51.51,0,0,1-.31.07m-3.52-9.69-.89,5.28c0,.22,0,.34,0,.38s.15,0,.37,0H46c.22,0,.34,0,.37,0s0-.16,0-.38l-.89-5.28q0-.09-.09-.09s-.07,0-.08.09"/><path class="cls-2" d="M55.47,81.33a3.94,3.94,0,0,1,3.05,1.24,5.7,5.7,0,0,1,1.15,4v.89q0,3.31-1.71,4.56l1.68,8.34c.1.39,0,.59-.33.59H57.54l-.3,0a.35.35,0,0,1-.19-.11.52.52,0,0,1-.12-.29L55.5,93a.31.31,0,0,0-.33-.25h-.54a1,1,0,0,0-.49.07,1,1,0,0,0-.07.49v7.08a.61.61,0,0,1-.12.43.57.57,0,0,1-.43.13H51.84a.59.59,0,0,1-.44-.13.61.61,0,0,1-.12-.43V81.88a.63.63,0,0,1,.12-.43.64.64,0,0,1,.44-.12Zm0,2.46h-.84c-.28,0-.44,0-.49.07a1,1,0,0,0-.07.49v5.34a1,1,0,0,0,.07.49s.21.07.49.07h.84c.94,0,1.4-.66,1.4-2V85.8c0-1.34-.46-2-1.4-2"/><path class="cls-2" d="M62.78,81.33h3.35a4.3,4.3,0,0,1,3.21,1.3,5.56,5.56,0,0,1,1.27,4v2.43a5.6,5.6,0,0,1-1.27,4,4.3,4.3,0,0,1-3.21,1.3h-.84c-.13,0-.21.06-.23.13A1.21,1.21,0,0,0,65,95v5.4a.49.49,0,0,1-.56.56H62.78c-.23,0-.38,0-.45-.13a.62.62,0,0,1-.11-.43V81.88a.46.46,0,0,1,.56-.55M65,91.17a1.12,1.12,0,0,0,.07.52s.21.07.49.07h.56a1.57,1.57,0,0,0,1.2-.49,2.1,2.1,0,0,0,.48-1.52V86a2.13,2.13,0,0,0-.48-1.53,1.6,1.6,0,0,0-1.2-.48h-.56a1.08,1.08,0,0,0-.49.06,1,1,0,0,0-.07.49Z"/><path class="cls-2" d="M75.64,100.35a.61.61,0,0,1-.12.43.59.59,0,0,1-.44.13H73.41a.59.59,0,0,1-.44-.13.61.61,0,0,1-.12-.43V81.88a.63.63,0,0,1,.12-.43.64.64,0,0,1,.44-.12h1.67a.64.64,0,0,1,.44.12.63.63,0,0,1,.12.43Z"/><path class="cls-2" d="M87,100.91H85.72a.55.55,0,0,1-.57-.34L81.46,90.14a.16.16,0,0,0-.08-.11.08.08,0,0,0-.1,0,.13.13,0,0,0,0,.1v10.21a.48.48,0,0,1-.56.56H79a.55.55,0,0,1-.43-.13.57.57,0,0,1-.13-.43V81.88a.58.58,0,0,1,.13-.43.6.6,0,0,1,.43-.12h1.26a.54.54,0,0,1,.56.36l3.69,10.43a.19.19,0,0,0,.09.12.08.08,0,0,0,.09,0,.13.13,0,0,0,0-.1V81.88a.46.46,0,0,1,.56-.55H87a.64.64,0,0,1,.44.12.63.63,0,0,1,.12.43v18.47a.61.61,0,0,1-.12.43.59.59,0,0,1-.44.13"/><path class="cls-2" d="M89.35,81.88a.58.58,0,0,1,.13-.43.6.6,0,0,1,.43-.12h7.28a.45.45,0,0,1,.55.55V83.4a.46.46,0,0,1-.55.56H95.51A1,1,0,0,0,95,84s-.07.21-.07.49v15.84a.48.48,0,0,1-.56.56H92.71a.59.59,0,0,1-.44-.13.61.61,0,0,1-.12-.43V84.51a1,1,0,0,0-.07-.49,1,1,0,0,0-.46-.06H89.91a.59.59,0,0,1-.43-.13.58.58,0,0,1-.13-.43Z"/><path class="cls-2" d="M100.12,100.91a.57.57,0,0,1-.43-.13.61.61,0,0,1-.13-.43V81.88a.63.63,0,0,1,.13-.43.61.61,0,0,1,.43-.12H106a.61.61,0,0,1,.43.12.63.63,0,0,1,.12.43V83.4a.63.63,0,0,1-.12.43A.61.61,0,0,1,106,84h-3.11a1.08,1.08,0,0,0-.49.06c-.05,0-.07.21-.07.49v4.2c0,.28,0,.44.07.49s.21.07.49.07H106a.57.57,0,0,1,.43.13.61.61,0,0,1,.12.43v1.51a.64.64,0,0,1-.12.44.61.61,0,0,1-.43.12h-3.11c-.28,0-.44,0-.49.07s-.07.21-.07.49v5.26c0,.28,0,.44.07.49s.21.07.49.07H106a.61.61,0,0,1,.43.12.64.64,0,0,1,.12.44v1.51a.61.61,0,0,1-.12.43.57.57,0,0,1-.43.13Z"/><path class="cls-2" d="M113.3,81.33a4,4,0,0,1,3,1.24,5.75,5.75,0,0,1,1.14,4v.89c0,2.21-.56,3.73-1.7,4.56l1.68,8.34c.09.39,0,.59-.34.59h-1.76l-.31,0a.33.33,0,0,1-.18-.11.46.46,0,0,1-.13-.29L113.33,93a.31.31,0,0,0-.34-.25h-.53a1,1,0,0,0-.49.07s-.07.21-.07.49v7.08a.57.57,0,0,1-.13.43.55.55,0,0,1-.43.13h-1.68a.48.48,0,0,1-.56-.56V81.88a.58.58,0,0,1,.13-.43.61.61,0,0,1,.43-.12Zm0,2.46h-.84c-.28,0-.44,0-.49.07s-.07.21-.07.49v5.34c0,.28,0,.44.07.49s.21.07.49.07h.84c.93,0,1.4-.66,1.4-2V85.8c0-1.34-.47-2-1.4-2"/><path class="cls-2" d="M122.84,100.35a.48.48,0,0,1-.56.56H120.6a.55.55,0,0,1-.43-.13.57.57,0,0,1-.13-.43V84.07a.47.47,0,0,1,.56-.56h1.68a.61.61,0,0,1,.43.12.59.59,0,0,1,.13.44Z"/><path class="cls-2" d="M134,100.87h-1.67l-.31,0a.3.3,0,0,1-.18-.11.46.46,0,0,1-.13-.29l-.25-1.5a1,1,0,0,0-.17-.49.78.78,0,0,0-.44-.07h-2.48a.86.86,0,0,0-.47.07,1.09,1.09,0,0,0-.17.49l-.25,1.5a.46.46,0,0,1-.13.29.3.3,0,0,1-.18.11l-.3,0h-1.68l-.27,0a.25.25,0,0,1-.16-.12.58.58,0,0,1,0-.34l3.51-18.52a.72.72,0,0,1,.17-.41.74.74,0,0,1,.44-.09h1.51a.74.74,0,0,1,.44.09.72.72,0,0,1,.17.41l3.51,18.52c0,.21,0,.34-.07.39a.7.7,0,0,1-.4.09m-4.52-12.43-1.14,6.77c0,.28,0,.44,0,.49s.2.07.48.07h1.56c.27,0,.43,0,.47-.07s0-.21,0-.49l-1.14-6.77c0-.07-.06-.11-.11-.11s-.1,0-.12.11"/><path class="cls-2" d="M41.07,99.24a.37.37,0,0,1,.44-.44h7.8a.37.37,0,0,1,.43.44v1.17a.37.37,0,0,1-.43.44h-7.8a.37.37,0,0,1-.44-.44Z"/><path class="cls-2" d="M119.77,81.87a.36.36,0,0,1,.22-.39c.51-.18,2.36-.73,2.36-.73a.37.37,0,0,1,.44.43v1.18a.37.37,0,0,1-.44.43h-2.14a.37.37,0,0,1-.44-.43Z"/><path class="cls-2" d="M28.29,118.76a.18.18,0,0,1,0,.14.21.21,0,0,1-.13,0h-.53a.21.21,0,0,1-.13,0,.18.18,0,0,1,0-.14V113a.18.18,0,0,1,0-.14s.07,0,.13,0h.53c.06,0,.11,0,.13,0a.18.18,0,0,1,0,.14Z"/><path class="cls-2" d="M36.13,118.93h-.52a.26.26,0,0,1-.14,0,.24.24,0,0,1,0-.14v-.11a.89.89,0,0,1-.65.32,1,1,0,0,1-.85-.35,1.69,1.69,0,0,1-.32-1.13V116a1.74,1.74,0,0,1,.32-1.14,1.06,1.06,0,0,1,.85-.35.86.86,0,0,1,.65.34v-.13a.21.21,0,0,1,0-.13.2.2,0,0,1,.14,0h.52a.18.18,0,0,1,.14,0s0,.07,0,.13v4a.18.18,0,0,1,0,.14.24.24,0,0,1-.14,0m-.69-1.51v-1.19a2.59,2.59,0,0,0,0-.44.65.65,0,0,0-.13-.31.4.4,0,0,0-.32-.14.39.39,0,0,0-.25.07.34.34,0,0,0-.15.21,1,1,0,0,0-.05.28,2.63,2.63,0,0,0,0,.33v1.06c0,.18,0,.32,0,.43a.67.67,0,0,0,.14.31.4.4,0,0,0,.31.14.37.37,0,0,0,.37-.2,1.37,1.37,0,0,0,.11-.55"/><path class="cls-2" d="M43,119a1.27,1.27,0,0,1-.93-.39,1.7,1.7,0,0,1-.38-1.22v-1.22a1.71,1.71,0,0,1,.38-1.22,1.27,1.27,0,0,1,.93-.39,1.13,1.13,0,0,1,.95.44,1.24,1.24,0,0,1,.31.88.23.23,0,0,1,0,.14.2.2,0,0,1-.13,0h-.5a.16.16,0,0,1-.11,0,.15.15,0,0,1,0-.07s0-.07,0-.13a.46.46,0,0,0-.14-.36.42.42,0,0,0-.28-.1c-.29,0-.44.22-.44.66v1.5c0,.45.15.67.44.67a.43.43,0,0,0,.28-.11.46.46,0,0,0,.14-.36s0-.1,0-.12a.12.12,0,0,1,0-.07.16.16,0,0,1,.11,0H44c.06,0,.11,0,.13,0a.2.2,0,0,1,0,.13,1.28,1.28,0,0,1-.31.89A1.12,1.12,0,0,1,43,119"/><path class="cls-2" d="M52,118.93h-.53a.23.23,0,0,1-.13,0,.18.18,0,0,1,0-.14v-.11a.87.87,0,0,1-.65.32,1,1,0,0,1-.84-.35,1.64,1.64,0,0,1-.33-1.13V116a1.69,1.69,0,0,1,.33-1.14,1,1,0,0,1,.84-.35.84.84,0,0,1,.65.34v-.13c0-.06,0-.11,0-.13a.17.17,0,0,1,.13,0H52c.06,0,.11,0,.13,0s0,.07,0,.13v4a.18.18,0,0,1,0,.14.21.21,0,0,1-.13,0m-.7-1.51v-1.19c0-.18,0-.33,0-.44a.67.67,0,0,0-.14-.31.38.38,0,0,0-.31-.14.42.42,0,0,0-.26.07.33.33,0,0,0-.14.21,1.57,1.57,0,0,0-.06.28,3,3,0,0,0,0,.33v1.06a2.62,2.62,0,0,0,0,.43.65.65,0,0,0,.13.31.4.4,0,0,0,.32.14.36.36,0,0,0,.36-.2,1.37,1.37,0,0,0,.11-.55"/><path class="cls-2" d="M59.16,115.4a1.28,1.28,0,0,0-.28-.05.44.44,0,0,0-.25.07.41.41,0,0,0-.14.23c0,.1,0,.19,0,.26a3.13,3.13,0,0,0,0,.34v2.51a.18.18,0,0,1,0,.14.21.21,0,0,1-.13,0h-.53a.21.21,0,0,1-.13,0,.18.18,0,0,1,0-.14v-4c0-.06,0-.11,0-.13s.07,0,.13,0h.53c.06,0,.11,0,.13,0s0,.07,0,.13v.11a.92.92,0,0,1,.63-.28h.09c.06,0,.11,0,.13,0s0,.07,0,.13v.48a.25.25,0,0,1,0,.16s-.07,0-.13,0"/><path class="cls-2" d="M64.62,114.57h.52a.2.2,0,0,1,.14,0,.21.21,0,0,1,0,.13v.12a.86.86,0,0,1,.65-.33,1.06,1.06,0,0,1,.85.35,1.74,1.74,0,0,1,.32,1.14v1.47a1.69,1.69,0,0,1-.32,1.13A1,1,0,0,1,66,119a.88.88,0,0,1-.65-.33v1.69a.24.24,0,0,1,0,.14.2.2,0,0,1-.14,0h-.52a.15.15,0,0,1-.18-.18v-5.59c0-.11.06-.17.18-.17m.69,2.93c0,.45.16.67.48.67s.47-.22.47-.67V116c0-.44-.16-.66-.47-.66s-.48.22-.48.66Z"/><path class="cls-2" d="M72.41,113.69a.46.46,0,0,1,.14-.35.45.45,0,0,1,.35-.14.45.45,0,0,1,.34.14.51.51,0,0,1,0,.7.49.49,0,0,1-.34.14.48.48,0,0,1-.35-.14.46.46,0,0,1-.14-.35m.22,5.24a.21.21,0,0,1-.13,0,.18.18,0,0,1,0-.14v-4c0-.06,0-.11,0-.13s.07,0,.13,0h.53c.06,0,.11,0,.13,0s0,.07,0,.13v4a.18.18,0,0,1,0,.14.21.21,0,0,1-.13,0Z"/><path class="cls-2" d="M80.56,118.76V116c0-.44-.15-.66-.47-.66s-.47.22-.47.66v2.76a.18.18,0,0,1,0,.14.21.21,0,0,1-.13,0h-.53a.21.21,0,0,1-.13,0,.18.18,0,0,1,0-.14v-4c0-.06,0-.11,0-.13s.07,0,.13,0h.5a.2.2,0,0,1,.14,0,.2.2,0,0,1,0,.13v.17a.85.85,0,0,1,.67-.38,1.06,1.06,0,0,1,.85.35,1.74,1.74,0,0,1,.32,1.14v2.74a.18.18,0,0,1,0,.14.24.24,0,0,1-.14,0h-.52a.21.21,0,0,1-.13,0,.18.18,0,0,1,0-.14"/><path class="cls-2" d="M86.81,117.19v-1.71a.08.08,0,0,0-.09-.09c-.06,0-.11,0-.13,0a.18.18,0,0,1,0-.14v-.47c0-.06,0-.11,0-.13s.07,0,.13,0a.08.08,0,0,0,.09-.09v-.67a.2.2,0,0,1,0-.14.23.23,0,0,1,.14,0h.52a.2.2,0,0,1,.13,0,.2.2,0,0,1,0,.14v.67a.08.08,0,0,0,.09.09H88c.06,0,.11,0,.13,0s0,.07,0,.13v.47a.18.18,0,0,1,0,.14s-.07,0-.13,0h-.22a.08.08,0,0,0-.09.09v1.73c0,.14,0,.24,0,.3s0,.14,0,.24a.57.57,0,0,0,.07.2.53.53,0,0,0,.14.11.43.43,0,0,0,.24.06.22.22,0,0,1,.13,0s0,.06,0,.13v.47a.18.18,0,0,1,0,.14.23.23,0,0,1-.13,0,1.25,1.25,0,0,1-1-.37,2.31,2.31,0,0,1-.3-1.37"/><path class="cls-2" d="M94.27,117.07v.43c0,.45.14.67.44.67a.45.45,0,0,0,.28-.11.46.46,0,0,0,.13-.36,1,1,0,0,0,0-.12.12.12,0,0,1,0-.07.16.16,0,0,1,.11,0h.5a.17.17,0,0,1,.13,0,.2.2,0,0,1,0,.13,1.28,1.28,0,0,1-.31.89,1.12,1.12,0,0,1-1,.43,1.27,1.27,0,0,1-.93-.39,1.65,1.65,0,0,1-.39-1.22v-1.22a1.67,1.67,0,0,1,.39-1.22,1.27,1.27,0,0,1,.93-.39,1.25,1.25,0,0,1,.92.39,1.67,1.67,0,0,1,.39,1.22v.59a.18.18,0,0,1,0,.13.21.21,0,0,1-.15,0H94.44c-.06,0-.11,0-.13,0s0,.07,0,.13m.87-1.12c0-.41-.15-.61-.43-.61s-.42.2-.44.61c0,.09,0,.14,0,.15a.36.36,0,0,0,.15,0H95a.36.36,0,0,0,.15,0,.32.32,0,0,0,0-.15"/><path class="cls-2" d="M102.93,115.4a1.19,1.19,0,0,0-.28-.05.46.46,0,0,0-.25.07.4.4,0,0,0-.13.23,1.51,1.51,0,0,0,0,.26,3.13,3.13,0,0,0,0,.34v2.51a.23.23,0,0,1,0,.14.24.24,0,0,1-.14,0h-.52a.24.24,0,0,1-.14,0,.23.23,0,0,1,0-.14v-4a.2.2,0,0,1,0-.13.18.18,0,0,1,.14,0H102a.18.18,0,0,1,.14,0,.2.2,0,0,1,0,.13v.11a.88.88,0,0,1,.63-.28h.08a.18.18,0,0,1,.14,0,.2.2,0,0,1,0,.13v.48a.34.34,0,0,1,0,.16.13.13,0,0,1-.14,0"/><path class="cls-2" d="M108.16,113.69a.5.5,0,0,1,.14-.35.51.51,0,0,1,.7,0,.5.5,0,1,1-.84.35m.23,5.24a.21.21,0,0,1-.13,0,.18.18,0,0,1,0-.14v-4c0-.06,0-.11,0-.13s.07,0,.13,0h.53a.17.17,0,0,1,.13,0s0,.07,0,.13v4a.18.18,0,0,1,0,.14.23.23,0,0,1-.13,0Z"/><path class="cls-2" d="M116.93,118.93h-.52a.26.26,0,0,1-.14,0,.24.24,0,0,1,0-.14v-.11a.89.89,0,0,1-.65.32,1,1,0,0,1-.85-.35,1.64,1.64,0,0,1-.32-1.13V116a1.69,1.69,0,0,1,.32-1.14,1.06,1.06,0,0,1,.85-.35.86.86,0,0,1,.65.34v-.13a.21.21,0,0,1,0-.13.2.2,0,0,1,.14,0h.52a.18.18,0,0,1,.14,0s0,.07,0,.13v4a.18.18,0,0,1,0,.14.24.24,0,0,1-.14,0m-.69-1.51v-1.19a2.59,2.59,0,0,0,0-.44.65.65,0,0,0-.13-.31.4.4,0,0,0-.32-.14.39.39,0,0,0-.25.07.34.34,0,0,0-.15.21,1,1,0,0,0,0,.28,2.63,2.63,0,0,0,0,.33v1.06c0,.18,0,.32,0,.43a.67.67,0,0,0,.14.31.4.4,0,0,0,.31.14.38.38,0,0,0,.37-.2,1.37,1.37,0,0,0,.11-.55"/><path class="cls-2" d="M122.49,118.79a.52.52,0,0,1-.14-.35.48.48,0,0,1,.49-.49.52.52,0,0,1,.35.14.47.47,0,0,1,.15.35.49.49,0,0,1-.15.35.47.47,0,0,1-.35.14.46.46,0,0,1-.35-.14"/><path class="cls-2" d="M129.62,119a1.23,1.23,0,0,1-.92-.39,1.65,1.65,0,0,1-.39-1.22v-1.22a1.67,1.67,0,0,1,.39-1.22,1.23,1.23,0,0,1,.92-.39,1.13,1.13,0,0,1,1,.44,1.24,1.24,0,0,1,.31.88.34.34,0,0,1,0,.14.23.23,0,0,1-.14,0h-.49a.21.21,0,0,1-.12,0,.25.25,0,0,1,0-.07,1.23,1.23,0,0,1,0-.13.46.46,0,0,0-.13-.36.45.45,0,0,0-.29-.1c-.29,0-.43.22-.43.66v1.5c0,.45.14.67.43.67a.46.46,0,0,0,.29-.11.46.46,0,0,0,.13-.36,1,1,0,0,1,0-.12.16.16,0,0,1,0-.07.21.21,0,0,1,.12,0h.49a.18.18,0,0,1,.14,0,.28.28,0,0,1,0,.13,1.28,1.28,0,0,1-.31.89,1.13,1.13,0,0,1-1,.43"/><path class="cls-2" d="M138.76,116.14v1.22a1.7,1.7,0,0,1-.38,1.22,1.3,1.3,0,0,1-1.86,0,1.7,1.7,0,0,1-.38-1.22v-1.22a1.71,1.71,0,0,1,.38-1.22,1.3,1.3,0,0,1,1.86,0,1.71,1.71,0,0,1,.38,1.22m-.87-.14c0-.44-.15-.66-.44-.66s-.44.22-.44.66v1.5c0,.45.15.67.44.67s.44-.22.44-.67Z"/><polygon class="cls-3" points="26 108.31 26 44.49 58.89 44.49 58.89 75.43 139 75.43 139 108.31 26 108.31"/><line class="cls-3" x1="58.89" y1="75.43" x2="26" y2="75.43"/></g></g></svg>