<svg xmlns="http://www.w3.org/2000/svg" xmlns:xlink="http://www.w3.org/1999/xlink" viewBox="0 0 165 165"><defs><style>.cls-1{fill:none;clip-rule:evenodd;}.cls-2{fill:#fff;}.cls-3{clip-path:url(#clip-path);}.cls-4{fill:url(#Degradado_sin_nombre_6);}.cls-5{clip-path:url(#clip-path-2);}.cls-6{fill:url(#Degradado_sin_nombre_5);}.cls-7{clip-path:url(#clip-path-3);}.cls-8{fill:url(#Degradado_sin_nombre_6-2);}.cls-9{clip-path:url(#clip-path-4);}.cls-10{fill:url(#Degradado_sin_nombre_7);}</style><clipPath id="clip-path"><path id="SVGID" class="cls-1" d="M74.39,46.26l7.85,0c11.37,10.93,24.31,19.94,45.68,19.92v9c.18,8.72-8,9.08-10.13,5,0-1.89-.13-5.08-.13-6.95C97,68.71,81.41,60.36,74.39,46.26"/></clipPath><linearGradient id="Degradado_sin_nombre_6" x1="74.39" y1="65.19" x2="127.93" y2="65.19" gradientUnits="userSpaceOnUse"><stop offset="0" stop-color="#d0d0d0"/><stop offset="0.25" stop-color="#ecebeb"/><stop offset="0.99" stop-color="#ecebeb"/><stop offset="1" stop-color="#ecebeb"/></linearGradient><clipPath id="clip-path-2"><path id="SVGID-2" data-name="SVGID" class="cls-1" d="M62.91,46.18l11.57.07c7.13,14.55,23.38,22.59,43.14,26.9,0,2.31.16,4.81.16,7.11,2,18.09-12.71,21.58-17.88,13.19,0-4.09-.11-8.08-.11-12.18C79.28,74.78,67.4,63.76,62.91,46.18"/></clipPath><linearGradient id="Degradado_sin_nombre_5" x1="62.91" y1="74.01" x2="117.96" y2="74.01" gradientUnits="userSpaceOnUse"><stop offset="0" stop-color="#712422"/><stop offset="0.13" stop-color="#891e20"/><stop offset="0.29" stop-color="#9e191f"/><stop offset="0.46" stop-color="#ad161e"/><stop offset="0.67" stop-color="#b5141d"/><stop offset="1" stop-color="#b8131d"/></linearGradient><clipPath id="clip-path-3"><path id="SVGID-3" data-name="SVGID" class="cls-1" d="M53.32,46.17H63.54C68.18,66.28,82,76.06,99.9,81.14V91c1.67,16.09-16.61,25.88-26.48,9.75,0-4.18.15-8.43.15-12.62C60.17,77.75,54.76,62.64,53.32,46.17"/></clipPath><linearGradient id="Degradado_sin_nombre_6-2" x1="53.32" y1="81.51" x2="100.01" y2="81.51" xlink:href="#Degradado_sin_nombre_6"/><clipPath id="clip-path-4"><path id="SVGID-4" data-name="SVGID" class="cls-1" d="M53.1,46.18l-16-.08V97.17c-1.46,27.22,34.35,29.8,36.39,2.46V87.69c-10.76-8.22-17.67-22-20.41-41.51"/></clipPath><linearGradient id="Degradado_sin_nombre_7" x1="54.58" y1="118.9" x2="54.58" y2="46.1" gradientUnits="userSpaceOnUse"><stop offset="0" stop-color="#b8131d"/><stop offset="0.38" stop-color="#b4151d"/><stop offset="0.76" stop-color="#a8191e"/><stop offset="1" stop-color="#9c1e1e"/></linearGradient></defs><g id="Capa_2" data-name="Capa 2"><g id="Capa_1-2" data-name="Capa 1"><rect class="cls-2" width="165" height="165"/><g class="cls-3"><rect class="cls-4" x="74.39" y="46.21" width="53.71" height="37.97"/></g><g class="cls-5"><rect class="cls-6" x="62.91" y="46.18" width="56.88" height="55.66"/></g><g class="cls-7"><rect class="cls-8" x="53.32" y="46.17" width="48.25" height="70.68"/></g><g class="cls-9"><rect class="cls-10" x="35.66" y="46.1" width="37.85" height="80.88"/></g></g></g></svg>