<svg xmlns="http://www.w3.org/2000/svg" viewBox="0 0 165 165"><defs><style>.cls-1{fill:#010200;}.cls-2{fill:#c8002d;}</style></defs><g id="Capa_2" data-name="Capa 2"><g id="Capa_1-2" data-name="Capa 1"><rect class="cls-1" width="165" height="165"/><path class="cls-2" d="M95.2,114.38c-2.32,5-7,9.2-12.42,10.31a11.82,11.82,0,0,1-10.53-3.19c-4.33-4.59-1.54-12.31,1.6-16.76a59.94,59.94,0,0,0,22.23-1.21c.35-.08.7-.19,1-.28C97.77,107,96.61,111.34,95.2,114.38ZM92.63,97.17a8.13,8.13,0,0,1,3,2.4,8,8,0,0,1,.49.79,48,48,0,0,1-20,1.54C80.43,97.33,86.4,94.29,92.63,97.17Zm42-59.57c-.3-1.73-3.19-1.18-2.94.52,3.7,25.57-7.89,51.63-32.63,61.22A10,10,0,0,0,97.15,96a9.76,9.76,0,0,0-3.9-2.65c-8.17-3-15.38,1.75-20.13,8.09a72.84,72.84,0,0,1-15.84-4.8c-14-6-28.66-22-27.24-38,.05-.61-.4-.43-.43-.12C28.13,73.4,38.18,88.38,50.14,96.25a55.87,55.87,0,0,0,21,8.09c-3.43,5.72-6.15,15.55-.38,20.77A14.53,14.53,0,0,0,84,127.94c6.55-1.91,11.8-7.47,14.13-13.83a26.82,26.82,0,0,0,1.63-11.66C126.06,93.6,139.28,64.23,134.61,37.6Z"/></g></g></svg>