<svg xmlns="http://www.w3.org/2000/svg" viewBox="0 0 165 165"><defs><style>.cls-1{fill:#ff442b;}.cls-2{fill:#fff;}</style></defs><g id="Capa_2" data-name="Capa 2"><g id="Capa_1-2" data-name="Capa 1"><rect class="cls-1" width="165" height="165"/><path class="cls-2" d="M25,81.35l-.31-.06c-1-.18-2-.26-2-.79s.54-.62,1.23-.62a5.64,5.64,0,0,1,2.75.8l1.12-2.12a7.76,7.76,0,0,0-4-1c-2.3,0-3.81,1.22-3.87,3s.87,2.63,3.06,3l.36.07c1.18.19,1.78.29,1.78.78s-.52.67-1.21.67a5.73,5.73,0,0,1-3.12-1l-1.26,2.11a7.52,7.52,0,0,0,4.35,1.18c2,0,4.06-.88,4.06-3.3C27.94,82.67,27,81.73,25,81.35Z"/><polygon class="cls-2" points="112.51 77.56 109.89 77.56 109.89 81.19 106.26 81.19 106.26 83.81 109.89 83.81 109.89 87.44 112.51 87.44 112.51 83.81 116.14 83.81 116.14 81.19 112.51 81.19 112.51 77.56"/><path class="cls-2" d="M140.58,77.56a4.89,4.89,0,1,0,4.89,4.89A4.89,4.89,0,0,0,140.58,77.56Zm0,7.17a2.28,2.28,0,1,1,2.28-2.28A2.28,2.28,0,0,1,140.58,84.73Z"/><path class="cls-2" d="M54.65,78.12a4.8,4.8,0,0,0-2.27-.56,4.89,4.89,0,1,0,2.27,9.22v.66h2.63V77.56H54.65Zm-2.27,6.61a2.28,2.28,0,1,1,2.27-2.46v.35A2.28,2.28,0,0,1,52.38,84.73Z"/><polygon class="cls-2" points="83.08 77.56 80.46 77.56 80.46 81.19 76.83 81.19 76.83 83.81 80.46 83.81 80.46 87.44 83.08 87.44 83.08 83.81 86.71 83.81 86.71 81.19 83.08 81.19 83.08 77.56"/></g></g></svg>