<svg xmlns="http://www.w3.org/2000/svg" viewBox="0 0 165 165"><defs><style>.cls-1{fill:#0e1218;}.cls-2{fill:#d4d4d4;}.cls-3{fill:#757575;}</style></defs><g id="Capa_2" data-name="Capa 2"><g id="Capa_1-2" data-name="Capa 1"><rect class="cls-1" width="165" height="165"/><path class="cls-2" d="M81.35,114.1c-.15-.14-.29-.29-.48-.5a2.12,2.12,0,0,1-1.5.58,1.45,1.45,0,0,1-1.58-1.44,1.69,1.69,0,0,1,1-1.5v0a1.81,1.81,0,0,1-.42-1.08,1.24,1.24,0,0,1,1.3-1.26A1.07,1.07,0,0,1,80.81,110c0,.54-.32,1-1.13,1.37v0c.43.51.92,1.07,1.25,1.44a3.94,3.94,0,0,0,.49-1.5H82a3.85,3.85,0,0,1-.74,1.89l.85.91Zm-.81-.88c-.31-.34-.88-1-1.45-1.62a1.27,1.27,0,0,0-.66,1,1,1,0,0,0,1,1A1.46,1.46,0,0,0,80.54,113.22ZM79,110.08a1.42,1.42,0,0,0,.39.93c.51-.3.85-.58.85-1a.61.61,0,0,0-.6-.66A.66.66,0,0,0,79,110.08Z"/><rect class="cls-3" x="70.71" y="52.15" width="8.33" height="8.67" transform="translate(-0.14 0.19) rotate(-0.14)"/><rect class="cls-3" x="92.75" y="52.11" width="8.6" height="8.67" transform="translate(-0.14 0.24) rotate(-0.14)"/><rect class="cls-3" x="70.79" y="74.34" width="8.33" height="8.36" transform="translate(-0.2 0.19) rotate(-0.14)"/><path class="cls-2" d="M59.6,49.67l8.35,0,0-8.36-6,0a2.31,2.31,0,0,0-2.31,2.32Z"/><path class="cls-2" d="M70.86,49.64l8,0,0-8.35-8,0Z"/><path class="cls-2" d="M81.93,49.62l8,0,0-8.35-8,0Z"/><path class="cls-2" d="M92.9,49.45l8.27,0v-6a2.32,2.32,0,0,0-2.33-2.32h-6Z"/><path class="cls-2" d="M59.62,60.7l8.36,0,0-8.36-8.36,0Z"/><path class="cls-2" d="M82,60.65l8,0,0-8.35-8,0Z"/><path class="cls-2" d="M59.65,71.61l8.35,0,0-8.05-8.35,0Z"/><path class="cls-2" d="M70.94,71.58l8,0,0-8-8,0Z"/><path class="cls-2" d="M81.92,71.41l8,0,0-8-8,0Z"/><path class="cls-2" d="M92.94,71.54l8.28,0,0-8-8.28,0Z"/><path class="cls-2" d="M61.84,82.73l6,0,0-8-8.35,0v5.72A2.34,2.34,0,0,0,61.84,82.73Z"/><path class="cls-2" d="M81.94,82.53l8,0,0-8-8,0Z"/><path class="cls-3" d="M99.07,82.8l-6.26,0,0-8.36,8.59,0,0,6A2.33,2.33,0,0,1,99.07,82.8Z"/><path class="cls-2" d="M39.94,106.17,38.69,103H34.63l-1.25,3.22H32.19l4-10.16h1l4,10.16Zm-1.62-4.28-1.18-3.13c-.15-.4-.31-.89-.47-1.46a15,15,0,0,1-.43,1.46l-1.19,3.13Z"/><path class="cls-2" d="M50,97a3.3,3.3,0,0,0-2.63,1.11,4.49,4.49,0,0,0-1,3,4.58,4.58,0,0,0,.93,3.07A3.3,3.3,0,0,0,50,105.26a9.13,9.13,0,0,0,2.41-.38v1a7.46,7.46,0,0,1-2.59.4A4.41,4.41,0,0,1,46.36,105a5.58,5.58,0,0,1-1.21-3.86,6.1,6.1,0,0,1,.58-2.74,4.22,4.22,0,0,1,1.69-1.81A5.14,5.14,0,0,1,50,95.9a6.22,6.22,0,0,1,2.78.59l-.5,1A5.34,5.34,0,0,0,50,97Z"/><path class="cls-2" d="M64.09,106.17,62.83,103h-4l-1.25,3.22H56.34l4-10.16h1l4,10.16Zm-1.63-4.28-1.17-3.13c-.15-.4-.31-.89-.47-1.46a12.85,12.85,0,0,1-.44,1.46l-1.19,3.13Z"/><path class="cls-2" d="M69.82,96.05h2.85a5.42,5.42,0,0,1,2.92.6,2.13,2.13,0,0,1,.9,1.9A2.24,2.24,0,0,1,76,100a2.48,2.48,0,0,1-1.47.76v.07c1.54.26,2.31,1.07,2.31,2.42a2.62,2.62,0,0,1-.92,2.12,4,4,0,0,1-2.56.76H69.82ZM71,100.38h1.94a3.14,3.14,0,0,0,1.79-.39,1.5,1.5,0,0,0,.55-1.32,1.35,1.35,0,0,0-.61-1.23,3.84,3.84,0,0,0-1.94-.37H71Zm0,1v3.78H73.1a3,3,0,0,0,1.85-.47,1.76,1.76,0,0,0,.62-1.48,1.57,1.57,0,0,0-.64-1.39,3.4,3.4,0,0,0-1.92-.44Z"/><path class="cls-2" d="M88.48,106.17,87.22,103H83.16l-1.24,3.22H80.73l4-10.16h1l4,10.16Zm-1.63-4.28-1.18-3.13c-.15-.4-.3-.89-.47-1.46a12.65,12.65,0,0,1-.43,1.46l-1.19,3.13Z"/><path class="cls-2" d="M102.28,101a5.09,5.09,0,0,1-1.36,3.83A5.36,5.36,0,0,1,97,106.17H94.2V96.05h3.1a4.55,4.55,0,0,1,5,5Zm-1.25,0a4.08,4.08,0,0,0-1-3,4,4,0,0,0-3-1H95.38v8.08h1.43a4.41,4.41,0,0,0,3.17-1A4.14,4.14,0,0,0,101,101.05Z"/><path class="cls-2" d="M116.44,101.09a5.55,5.55,0,0,1-1.23,3.82,4.32,4.32,0,0,1-3.42,1.4,4.38,4.38,0,0,1-3.45-1.37,5.62,5.62,0,0,1-1.21-3.86,5.51,5.51,0,0,1,1.22-3.83,4.38,4.38,0,0,1,3.46-1.36,4.32,4.32,0,0,1,3.4,1.38A5.57,5.57,0,0,1,116.44,101.09Zm-8.07,0a4.83,4.83,0,0,0,.88,3.12,3.59,3.59,0,0,0,5.08,0,4.91,4.91,0,0,0,.86-3.13,4.8,4.8,0,0,0-.85-3.09,3.06,3.06,0,0,0-2.53-1.06A3.15,3.15,0,0,0,109.25,98,4.78,4.78,0,0,0,108.37,101.09Z"/><path class="cls-2" d="M127.52,103.48a2.47,2.47,0,0,1-1,2.08,4.19,4.19,0,0,1-2.63.75,6.58,6.58,0,0,1-2.77-.47v-1.13a7.72,7.72,0,0,0,1.36.41,7.21,7.21,0,0,0,1.45.15,2.89,2.89,0,0,0,1.77-.44,1.46,1.46,0,0,0,.6-1.24,1.65,1.65,0,0,0-.21-.87,2,2,0,0,0-.71-.62,11.07,11.07,0,0,0-1.5-.64,4.75,4.75,0,0,1-2-1.2,2.65,2.65,0,0,1-.61-1.8,2.26,2.26,0,0,1,.88-1.86,3.67,3.67,0,0,1,2.33-.7,6.82,6.82,0,0,1,2.77.56l-.36,1a6.31,6.31,0,0,0-2.44-.52,2.35,2.35,0,0,0-1.46.4,1.33,1.33,0,0,0-.53,1.11,1.68,1.68,0,0,0,.2.86,1.85,1.85,0,0,0,.65.62,8.4,8.4,0,0,0,1.41.62,5.53,5.53,0,0,1,2.19,1.22A2.38,2.38,0,0,1,127.52,103.48Z"/><path class="cls-2" d="M59.08,123.84h-.43v-6.27h3.43v.4h-3v2.66h2.83V121H59.08Z"/><path class="cls-2" d="M70.26,120.69a3.48,3.48,0,0,1-.75,2.36,2.86,2.86,0,0,1-4.11,0,3.51,3.51,0,0,1-.75-2.37,3.45,3.45,0,0,1,.75-2.35,2.89,2.89,0,0,1,4.11,0A3.5,3.5,0,0,1,70.26,120.69Zm-5.13,0a3.2,3.2,0,0,0,.6,2.08,2.06,2.06,0,0,0,1.72.74,2.09,2.09,0,0,0,1.73-.73,3.19,3.19,0,0,0,.6-2.09,3.15,3.15,0,0,0-.6-2.07,2.09,2.09,0,0,0-1.72-.73,2.15,2.15,0,0,0-1.73.73A3.19,3.19,0,0,0,65.13,120.69Z"/><path class="cls-2" d="M74.07,121.1v2.74h-.44v-6.27h1.49a2.83,2.83,0,0,1,1.73.43,1.54,1.54,0,0,1,.55,1.29,1.71,1.71,0,0,1-.33,1.07,1.86,1.86,0,0,1-1,.62l1.7,2.86h-.52l-1.62-2.74Zm0-.37h1.19a1.88,1.88,0,0,0,1.23-.36,1.25,1.25,0,0,0,.44-1,1.2,1.2,0,0,0-.43-1,2.31,2.31,0,0,0-1.4-.33h-1Z"/><path class="cls-2" d="M83.54,123.84l-2.34-5.79h0c0,.35,0,.71,0,1.09v4.7h-.42v-6.27h.68l2.22,5.51h0l2.23-5.51h.66v6.27h-.45v-4.76a9,9,0,0,1,.06-1h0l-2.34,5.78Z"/><path class="cls-2" d="M93.31,121.62H90.76l-.87,2.22H89.4l2.52-6.3h.28l2.47,6.3h-.49Zm-2.39-.39h2.24L92.31,119c-.07-.18-.16-.42-.26-.74-.08.28-.16.52-.25.75Z"/><path class="cls-2" d="M101,122.22a1.5,1.5,0,0,1-.57,1.24,2.39,2.39,0,0,1-1.54.46,4.79,4.79,0,0,1-1.76-.25v-.44a4.49,4.49,0,0,0,1.73.29,2,2,0,0,0,1.22-.35,1.14,1.14,0,0,0,.45-.93,1.05,1.05,0,0,0-.15-.59,1.36,1.36,0,0,0-.48-.43,6.13,6.13,0,0,0-1-.42,3.41,3.41,0,0,1-1.33-.71,1.44,1.44,0,0,1-.36-1,1.41,1.41,0,0,1,.55-1.15,2.17,2.17,0,0,1,1.42-.44,4.24,4.24,0,0,1,1.66.33l-.16.38a3.84,3.84,0,0,0-1.5-.33,1.75,1.75,0,0,0-1.1.32,1,1,0,0,0-.41.88,1.2,1.2,0,0,0,.12.57,1.16,1.16,0,0,0,.42.4,5.89,5.89,0,0,0,1,.43,5.13,5.13,0,0,1,1.1.49,1.54,1.54,0,0,1,.54.54A1.39,1.39,0,0,1,101,122.22Z"/><rect class="cls-2" x="32.73" y="120.32" width="20.29" height="0.17" transform="translate(-0.47 0.17) rotate(-0.22)"/><rect class="cls-2" x="105.74" y="120.44" width="21.24" height="0.17"/><path class="cls-2" d="M130,91.56v.88h-.25V90.33h.58a.88.88,0,0,1,.57.15.53.53,0,0,1,.19.45.55.55,0,0,1-.42.56l.57,1h-.29l-.51-.88Zm0-.21h.33a.56.56,0,0,0,.38-.1.36.36,0,0,0,.13-.31.36.36,0,0,0-.13-.3.66.66,0,0,0-.39-.09H130Z"/><path class="cls-2" d="M130.46,93.74a2.35,2.35,0,1,1,2.35-2.35A2.36,2.36,0,0,1,130.46,93.74Zm0-4.31a2,2,0,1,0,1.95,2A2,2,0,0,0,130.46,89.43Z"/></g></g></svg>