<svg xmlns="http://www.w3.org/2000/svg" viewBox="0 0 165 165"><defs><style>.cls-1{fill:#f5f5f5;}.cls-2{fill:#38647d;}</style></defs><g id="Capa_2" data-name="Capa 2"><g id="Capa_1-2" data-name="Capa 1"><rect class="cls-1" width="165" height="165"/><path d="M44.78,74.33l6.71,13.59H38.08Zm0-12.4L30.52,92.25H59.05Z"/><path d="M93.12,79.6a6.19,6.19,0,0,1,5.82-4.17,5.67,5.67,0,0,1,5.3,4.17Zm16,2a10.48,10.48,0,0,0-10.19-10.7,10.7,10.7,0,0,0,0,21.4,10.6,10.6,0,0,0,8-3.65l-3.44-3a6,6,0,0,1-4.58,2.08,6.15,6.15,0,0,1-6-5h16.17A7.81,7.81,0,0,0,109.13,81.55Z"/><path d="M123.78,87.66a6.12,6.12,0,1,1,6.11-6.11A6.08,6.08,0,0,1,123.78,87.66Zm5.61-16.3v2.25a9.19,9.19,0,0,0-6.63-2.76c-5.51,0-9.67,4.58-9.67,10.7s4.16,10.7,9.67,10.7a9.19,9.19,0,0,0,6.63-2.76v2.76h5.09V71.36Z"/><polygon points="84.28 88.17 80.72 88.17 80.72 75.94 84.03 75.94 84.03 71.87 80.72 71.87 80.72 68.47 75.62 68.47 75.62 92.25 84.28 92.25 84.28 88.17"/><polygon points="71.66 88.17 68.1 88.17 68.1 61.92 63.01 61.92 63.01 92.25 71.66 92.25 71.66 88.17"/><rect class="cls-2" x="38.08" y="98.75" width="13.41" height="4.33"/></g></g></svg>