<svg xmlns="http://www.w3.org/2000/svg" viewBox="0 0 165 165"><defs><style>.cls-1{fill:#fff;}.cls-2{fill:#465072;}.cls-3{fill:#9bc9c8;}</style></defs><g id="Capa_2" data-name="Capa 2"><g id="Capa_1-2" data-name="Capa 1"><rect class="cls-1" width="165" height="165"/><path class="cls-2" d="M37,113.49H35a.25.25,0,0,1-.27-.26v-3.08a.26.26,0,0,1,.27-.25h2a.24.24,0,1,1,0,.47H35.22v1h1a.23.23,0,0,1,.23.24.23.23,0,0,1-.23.24h-1V113H37a.23.23,0,0,1,.25.24A.24.24,0,0,1,37,113.49Z"/><path class="cls-2" d="M38.79,112l.65-.8a.19.19,0,0,1,.16-.07.21.21,0,0,1,.18.36l-.71.85.72.84a.23.23,0,0,1,.06.16.23.23,0,0,1-.23.22.25.25,0,0,1-.18-.08l-.65-.81-.64.81a.25.25,0,0,1-.18.08.23.23,0,0,1-.23-.22.23.23,0,0,1,.06-.16l.72-.84-.71-.85a.22.22,0,0,1-.06-.14.21.21,0,0,1,.23-.22.21.21,0,0,1,.17.07Z"/><path class="cls-2" d="M41.89,113.56a1,1,0,0,1-.83-.47v1.2a.26.26,0,1,1-.51,0v-2.93a.23.23,0,0,1,.24-.25.24.24,0,0,1,.25.25v.19a1,1,0,0,1,.85-.47A1.17,1.17,0,0,1,43,112.32,1.15,1.15,0,0,1,41.89,113.56Zm-.1-2a.76.76,0,0,0-.73.81.77.77,0,0,0,.73.82.82.82,0,0,0,0-1.63Z"/><path class="cls-2" d="M45.86,112.33a.17.17,0,0,1-.19.17H44.05a.68.68,0,0,0,.73.65.83.83,0,0,0,.63-.26.25.25,0,0,1,.17-.08.2.2,0,0,1,.21.21.21.21,0,0,1-.07.14,1.27,1.27,0,0,1-1,.4,1.17,1.17,0,0,1-1.23-1.24,1.19,1.19,0,0,1,1.21-1.24A1.15,1.15,0,0,1,45.86,112.33Zm-1.12-.84a.67.67,0,0,0-.68.6h1.33A.65.65,0,0,0,44.74,111.49Z"/><path class="cls-2" d="M47.72,111.57c-.43,0-.68.28-.68.83v.88a.26.26,0,0,1-.26.26.24.24,0,0,1-.25-.26v-1.92a.24.24,0,0,1,.26-.25.24.24,0,0,1,.25.25v.24a.68.68,0,0,1,.68-.51.24.24,0,0,1,0,.48Z"/><path class="cls-2" d="M49,113.54a.25.25,0,0,1-.26-.26v-1.71h-.41a.21.21,0,0,1,0-.42h.41v-.71a.24.24,0,0,1,.26-.25.24.24,0,0,1,.25.25v.71h.46a.21.21,0,1,1,0,.42h-.46v1.71A.25.25,0,0,1,49,113.54Z"/><path class="cls-2" d="M51.34,113.56a1.24,1.24,0,1,1,1.24-1.24A1.19,1.19,0,0,1,51.34,113.56Zm0-2a.73.73,0,0,0-.73.8.73.73,0,1,0,1.46,0A.72.72,0,0,0,51.34,111.52Z"/><path class="cls-2" d="M54.11,113.56a1.41,1.41,0,0,1-.86-.28.26.26,0,0,1-.11-.21.18.18,0,0,1,.2-.18.36.36,0,0,1,.2.08,1,1,0,0,0,.61.21c.29,0,.45-.11.45-.27s-.16-.26-.53-.36c-.67-.18-.91-.41-.91-.8s.37-.67,1-.67a1.54,1.54,0,0,1,.67.16c.15.07.25.15.25.26a.17.17,0,0,1-.19.19.42.42,0,0,1-.22-.08,1.08,1.08,0,0,0-.52-.12c-.27,0-.45.07-.45.26s.16.24.55.36c.58.16.89.32.89.76S54.75,113.56,54.11,113.56Z"/><path class="cls-2" d="M59.47,112.33a.17.17,0,0,1-.19.17H57.66a.68.68,0,0,0,.73.65.83.83,0,0,0,.63-.26.25.25,0,0,1,.16-.08.2.2,0,0,1,.21.21.2.2,0,0,1-.06.14,1.29,1.29,0,0,1-1,.4,1.16,1.16,0,0,1-1.23-1.24,1.19,1.19,0,0,1,1.21-1.24A1.15,1.15,0,0,1,59.47,112.33Zm-1.12-.84a.67.67,0,0,0-.68.6H59A.65.65,0,0,0,58.35,111.49Z"/><path class="cls-2" d="M62.15,113.54a.25.25,0,0,1-.26-.26V112.2a.59.59,0,0,0-.61-.66.63.63,0,0,0-.64.67v1.07a.26.26,0,1,1-.51,0v-1.92a.24.24,0,0,1,.26-.25.23.23,0,0,1,.25.25v.18a.83.83,0,0,1,.78-.46,1,1,0,0,1,1,1.1v1.1A.24.24,0,0,1,62.15,113.54Z"/><path class="cls-2" d="M65.8,114.55a1.88,1.88,0,0,1-.94-.24.22.22,0,1,1,.23-.37,1.35,1.35,0,0,0,.68.2c.61,0,.79-.29.79-.78V113a1,1,0,0,1-.82.45,1.2,1.2,0,0,1,0-2.39,1,1,0,0,1,.84.46v-.18a.23.23,0,0,1,.24-.25.24.24,0,0,1,.25.25v2A1.1,1.1,0,0,1,65.8,114.55Zm0-3a.77.77,0,0,0,0,1.54.77.77,0,0,0,0-1.54Z"/><path class="cls-2" d="M69.07,111.57c-.42,0-.68.28-.68.83v.88a.26.26,0,0,1-.26.26.24.24,0,0,1-.25-.26v-1.92a.24.24,0,0,1,.26-.25.24.24,0,0,1,.25.25v.24a.68.68,0,0,1,.68-.51.24.24,0,1,1,0,.48Z"/><path class="cls-2" d="M70,110.14a.3.3,0,1,1-.3.3A.3.3,0,0,1,70,110.14Zm0,3.4a.25.25,0,0,1-.26-.26v-1.92a.26.26,0,0,1,.51,0v1.92A.25.25,0,0,1,70,113.54Z"/><path class="cls-2" d="M72.41,110.3h-.15c-.27,0-.43.1-.43.45v.4h.53a.21.21,0,1,1,0,.42h-.53v1.71a.26.26,0,1,1-.51,0v-1.71H71a.21.21,0,0,1,0-.42h.32v-.36a.81.81,0,0,1,.9-.92h.19a.21.21,0,0,1,.21.21A.21.21,0,0,1,72.41,110.3Z"/><path class="cls-2" d="M75.12,112.33a.17.17,0,0,1-.19.17H73.31a.68.68,0,0,0,.73.65.83.83,0,0,0,.63-.26.25.25,0,0,1,.16-.08A.2.2,0,0,1,75,113a.2.2,0,0,1-.06.14,1.29,1.29,0,0,1-1,.4,1.16,1.16,0,0,1-1.23-1.24A1.19,1.19,0,0,1,74,111.08,1.15,1.15,0,0,1,75.12,112.33ZM74,111.49a.67.67,0,0,0-.68.6h1.33A.65.65,0,0,0,74,111.49Z"/><path class="cls-2" d="M77,111.57c-.43,0-.69.28-.69.83v.88a.26.26,0,0,1-.25.26.24.24,0,0,1-.25-.26v-1.92a.25.25,0,0,1,.5,0v.24a.69.69,0,0,1,.69-.51.23.23,0,0,1,.24.24A.24.24,0,0,1,77,111.57Z"/><path class="cls-2" d="M77.94,113.54a.25.25,0,0,1-.25-.26v-1.92a.26.26,0,0,1,.51,0v1.92A.26.26,0,0,1,77.94,113.54Zm-.18-3.12.3-.41a.19.19,0,0,1,.17-.09.19.19,0,0,1,.21.2.22.22,0,0,1,0,.14l-.3.4a.21.21,0,0,1-.18.1.22.22,0,0,1-.21-.2A.25.25,0,0,1,77.76,110.42Z"/><path class="cls-2" d="M80.78,113.54a.25.25,0,0,1-.25-.26v0a.91.91,0,0,1-.76.33c-.53,0-.9-.3-.9-.73s.4-.74.92-.74a1.07,1.07,0,0,1,.73.28v-.23c0-.43-.18-.62-.65-.62a1.53,1.53,0,0,0-.53.09.48.48,0,0,1-.17,0,.21.21,0,0,1-.22-.21c0-.13.1-.19.24-.25a2.31,2.31,0,0,1,.72-.12c.72,0,1.12.37,1.12,1v1.17A.24.24,0,0,1,80.78,113.54Zm-.84-1.09c-.34,0-.56.14-.56.38s.23.38.55.38.59-.15.59-.38S80.23,112.45,79.94,112.45Z"/><path class="cls-2" d="M82.69,113.56a1.38,1.38,0,0,1-.86-.28.26.26,0,0,1-.11-.21.18.18,0,0,1,.19-.18.33.33,0,0,1,.2.08,1,1,0,0,0,.61.21c.3,0,.45-.11.45-.27s-.15-.26-.53-.36c-.66-.18-.9-.41-.9-.8s.37-.67,1-.67a1.57,1.57,0,0,1,.67.16c.15.07.25.15.25.26a.17.17,0,0,1-.19.19.49.49,0,0,1-.23-.08,1,1,0,0,0-.51-.12c-.27,0-.45.07-.45.26s.16.24.55.36c.58.16.88.32.88.76S83.33,113.56,82.69,113.56Z"/><path class="cls-2" d="M86.84,111.08a1,1,0,0,1,.83.47v-1.44a.26.26,0,0,1,.26-.26.25.25,0,0,1,.25.26v3.17a.24.24,0,0,1-.24.26.24.24,0,0,1-.25-.26v-.19a1,1,0,0,1-.85.47,1.17,1.17,0,0,1-1.13-1.24A1.16,1.16,0,0,1,86.84,111.08Zm.1,2.06a.77.77,0,0,0,.73-.82.76.76,0,0,0-.73-.81.82.82,0,0,0,0,1.63Z"/><path class="cls-2" d="M91.18,112.33c0,.08-.05.17-.2.17H89.37a.67.67,0,0,0,.73.65.81.81,0,0,0,.62-.26.27.27,0,0,1,.17-.08.2.2,0,0,1,.21.21.25.25,0,0,1-.06.14,1.31,1.31,0,0,1-1,.4,1.17,1.17,0,0,1-1.23-1.24,1.19,1.19,0,0,1,1.21-1.24A1.16,1.16,0,0,1,91.18,112.33Zm-1.13-.84a.67.67,0,0,0-.67.6h1.33A.66.66,0,0,0,90.05,111.49Z"/><path class="cls-2" d="M94.75,113.56a1,1,0,0,1-.85-.47v.19a.24.24,0,0,1-.25.26.24.24,0,0,1-.24-.26v-3.17a.25.25,0,0,1,.25-.26.26.26,0,0,1,.26.26v1.44a1,1,0,0,1,.83-.47,1.16,1.16,0,0,1,1.13,1.24A1.17,1.17,0,0,1,94.75,113.56Zm-.1-2a.76.76,0,0,0-.73.81.77.77,0,0,0,.73.82.82.82,0,0,0,0-1.63Z"/><path class="cls-2" d="M98.31,113.54a.25.25,0,0,1-.25-.26v0a.91.91,0,0,1-.76.33c-.53,0-.9-.3-.9-.73s.4-.74.92-.74a1.07,1.07,0,0,1,.73.28v-.23c0-.43-.18-.62-.65-.62a1.53,1.53,0,0,0-.53.09.48.48,0,0,1-.17,0,.21.21,0,0,1-.22-.21c0-.13.11-.19.24-.25a2.31,2.31,0,0,1,.72-.12c.72,0,1.12.37,1.12,1v1.17A.24.24,0,0,1,98.31,113.54Zm-.84-1.09c-.34,0-.56.14-.56.38s.23.38.55.38.59-.15.59-.38S97.76,112.45,97.47,112.45Z"/><path class="cls-2" d="M101.34,113.54a.25.25,0,0,1-.25-.26V112.2a.59.59,0,0,0-.61-.66.62.62,0,0,0-.64.67v1.07a.26.26,0,0,1-.26.26.25.25,0,0,1-.25-.26v-1.92a.26.26,0,0,1,.51,0v.18a.83.83,0,0,1,.78-.46,1,1,0,0,1,1,1.1v1.1A.25.25,0,0,1,101.34,113.54Zm-.54-2.79a1,1,0,0,1-.39-.11.58.58,0,0,0-.25-.09.2.2,0,0,0-.18.09.2.2,0,0,1-.16.1.17.17,0,0,1-.18-.15.38.38,0,0,1,.11-.23.47.47,0,0,1,.35-.18.9.9,0,0,1,.38.1.83.83,0,0,0,.29.1c.17,0,.18-.17.29-.17a.17.17,0,0,1,.17.17A.43.43,0,0,1,100.8,110.75Z"/><path class="cls-2" d="M103.46,113.56a1.24,1.24,0,1,1,1.24-1.24A1.19,1.19,0,0,1,103.46,113.56Zm0-2a.72.72,0,0,0-.72.8.73.73,0,1,0,.72-.8Z"/><path class="cls-2" d="M106.23,113.56a1.41,1.41,0,0,1-.86-.28.29.29,0,0,1-.11-.21.18.18,0,0,1,.2-.18.33.33,0,0,1,.2.08,1,1,0,0,0,.61.21c.29,0,.45-.11.45-.27s-.15-.26-.53-.36c-.67-.18-.91-.41-.91-.8s.37-.67,1-.67a1.57,1.57,0,0,1,.67.16c.14.07.25.15.25.26a.18.18,0,0,1-.2.19.42.42,0,0,1-.22-.08,1.07,1.07,0,0,0-.51-.12c-.27,0-.46.07-.46.26s.16.24.55.36c.59.16.89.32.89.76S106.87,113.56,106.23,113.56Z"/><path class="cls-2" d="M111.25,111.46c-.17.45-.41,1.1-.72,1.8a2.26,2.26,0,0,1-1,1.25.25.25,0,0,1-.13,0,.21.21,0,0,1-.22-.21.23.23,0,0,1,.13-.21,1.63,1.63,0,0,0,.61-.67l-.84-2a.52.52,0,0,1,0-.11.21.21,0,0,1,.23-.22.21.21,0,0,1,.21.14l.69,1.72.62-1.68a.23.23,0,0,1,.24-.18.21.21,0,0,1,.22.23A.43.43,0,0,1,111.25,111.46Z"/><path class="cls-2" d="M115.33,111.42a.23.23,0,0,1,.08.18.22.22,0,0,1-.23.21c-.1,0-.16-.08-.22-.13a.67.67,0,0,0-.46-.17.81.81,0,0,0,0,1.62A.67.67,0,0,0,115,113a.34.34,0,0,1,.22-.12.21.21,0,0,1,.23.2.23.23,0,0,1-.08.18,1.15,1.15,0,0,1-.84.34,1.24,1.24,0,1,1,0-2.48A1.15,1.15,0,0,1,115.33,111.42Z"/><path class="cls-2" d="M117.16,113.56a1.24,1.24,0,1,1,1.24-1.24A1.19,1.19,0,0,1,117.16,113.56Zm0-2a.73.73,0,0,0-.73.8.73.73,0,1,0,1.46,0A.72.72,0,0,0,117.16,111.52Z"/><path class="cls-2" d="M121,111.42a.27.27,0,0,1,.07.18.21.21,0,0,1-.23.21c-.09,0-.15-.08-.22-.13a.66.66,0,0,0-.45-.17.81.81,0,0,0,0,1.62.66.66,0,0,0,.45-.17c.07,0,.13-.12.22-.12a.2.2,0,0,1,.23.2.27.27,0,0,1-.07.18,1.16,1.16,0,0,1-.84.34,1.24,1.24,0,1,1,0-2.48A1.16,1.16,0,0,1,121,111.42Z"/><path class="cls-2" d="M122,110.14a.3.3,0,0,1,0,.6.3.3,0,0,1,0-.6Zm0,3.4a.25.25,0,0,1-.25-.26v-1.92a.26.26,0,0,1,.51,0v1.92A.26.26,0,0,1,122,113.54Z"/><path class="cls-2" d="M125.1,113.54a.26.26,0,0,1-.26-.26V112.2a.59.59,0,0,0-.61-.66.62.62,0,0,0-.63.67v1.07a.26.26,0,0,1-.26.26.25.25,0,0,1-.25-.26v-1.92a.24.24,0,0,1,.25-.25.24.24,0,0,1,.26.25v.18a.83.83,0,0,1,.77-.46,1,1,0,0,1,1,1.1v1.1A.24.24,0,0,1,125.1,113.54Z"/><path class="cls-2" d="M127.91,113.54a.25.25,0,0,1-.25-.26v0a.91.91,0,0,1-.76.33c-.53,0-.9-.3-.9-.73s.39-.74.92-.74a1.07,1.07,0,0,1,.73.28v-.23c0-.43-.18-.62-.65-.62a1.64,1.64,0,0,0-.54.09.38.38,0,0,1-.16,0,.21.21,0,0,1-.22-.21c0-.13.1-.19.24-.25a2.31,2.31,0,0,1,.72-.12c.72,0,1.12.37,1.12,1v1.17A.24.24,0,0,1,127.91,113.54Zm-.84-1.09c-.34,0-.56.14-.56.38s.22.38.55.38.59-.15.59-.38S127.36,112.45,127.07,112.45Z"/><path class="cls-2" d="M129.82,113.56a1.38,1.38,0,0,1-.86-.28.26.26,0,0,1-.11-.21.18.18,0,0,1,.19-.18.33.33,0,0,1,.2.08,1,1,0,0,0,.61.21c.3,0,.45-.11.45-.27s-.15-.26-.53-.36c-.66-.18-.91-.41-.91-.8s.38-.67,1-.67a1.57,1.57,0,0,1,.67.16c.15.07.25.15.25.26a.18.18,0,0,1-.2.19.42.42,0,0,1-.22-.08,1.07,1.07,0,0,0-.51-.12c-.27,0-.45.07-.45.26s.16.24.55.36c.58.16.88.32.88.76S130.46,113.56,129.82,113.56Z"/><path class="cls-2" d="M82.5,74.66A24.21,24.21,0,1,1,58.29,50.45,24.21,24.21,0,0,1,82.5,74.66"/><path class="cls-1" d="M57.88,61.65c8.15,0,14,5.32,14,12.94S66,87.68,57.88,87.68H47.39v-26Zm0,20.21a7.2,7.2,0,1,0,0-14.39h-4V81.86Z"/><path class="cls-3" d="M130.92,74.66a24.21,24.21,0,1,1-24.21-24.21,24.21,24.21,0,0,1,24.21,24.21"/><path class="cls-1" d="M106.3,61.65c8.15,0,14,5.32,14,12.94s-5.9,13.09-14,13.09H95.81v-26Zm0,20.21a7.2,7.2,0,1,0,0-14.39h-4V81.86Z"/><path class="cls-1" d="M89.64,74.66a7.26,7.26,0,1,1-7.26-7.26,7.26,7.26,0,0,1,7.26,7.26"/><path class="cls-2" d="M85.1,77.29a4.35,4.35,0,0,0,.73-2.65v-.23H84.51v.22a3.76,3.76,0,0,1-.29,1.59L82.36,74l.17-.11c.2-.14.42-.29.61-.45a2,2,0,0,0,.21-2.84,2.17,2.17,0,0,0-1.89-.68,2,2,0,0,0-1.42.76,2,2,0,0,0-.42,1.53,2.81,2.81,0,0,0,.64,1.38l.16.21-.11.08-.64.5a2.6,2.6,0,0,0-1,2.46A2.48,2.48,0,0,0,80.46,79a4.22,4.22,0,0,0,1.24.2,3.85,3.85,0,0,0,2.45-.92s0,0,0,0l0,0,.53.64a.5.5,0,0,0,.34.16h1l.45-.07Zm-4-5.83a.76.76,0,0,1,.66-.3.7.7,0,0,1,.68.46.67.67,0,0,1-.12.81,6.82,6.82,0,0,1-.64.51l-.13.1h0a2.74,2.74,0,0,1-.55-.86.82.82,0,0,1,.11-.71M81,77.82a1.4,1.4,0,0,1-1-1.23,1.58,1.58,0,0,1,.66-1.44c.15-.13.32-.25.48-.37l.06,0,2.11,2.54a2.46,2.46,0,0,1-2.33.55"/></g></g></svg>