<svg xmlns="http://www.w3.org/2000/svg" viewBox="0 0 165 165"><defs><style>.cls-1{fill:#fff;}.cls-2{fill:#b85e21;}.cls-3{fill:#f2c43e;}.cls-4{fill:#c53f34;}.cls-5{fill:#91373c;}.cls-6{fill:#5b3637;}.cls-7{fill:#d98918;}.cls-8{fill:#3e3e3d;}</style></defs><g id="Capa_2" data-name="Capa 2"><g id="Capa_1-2" data-name="Capa 1"><rect class="cls-1" width="165" height="165"/><rect class="cls-2" x="24.8" y="97.33" width="12.83" height="1.34"/><rect class="cls-3" x="24.88" y="68.07" width="3.41" height="5.23"/><rect class="cls-4" x="24.88" y="73.88" width="3.41" height="17.3"/><rect class="cls-5" x="28.88" y="68.07" width="8.79" height="5.23"/><rect class="cls-3" x="24.88" y="91.76" width="3.41" height="5.23"/><rect class="cls-6" x="28.88" y="91.76" width="8.79" height="5.23"/><rect class="cls-7" x="29" y="73.88" width="8.71" height="17.36"/><rect class="cls-2" x="24.88" y="66.33" width="12.83" height="1.34"/><rect class="cls-2" x="38.07" y="66.33" width="1.82" height="32.34"/><rect class="cls-2" x="22.55" y="66.33" width="1.82" height="32.34"/><path class="cls-8" d="M44.29,71.37h4l3.55,10.37,3.28-10.37h4V72h-1a1.06,1.06,0,0,0-.7.17.77.77,0,0,0-.18.58v10.4a.55.55,0,0,0,.22.48,1.24,1.24,0,0,0,.74.17h.91v.66H53.69v-.66h1a1,1,0,0,0,.65-.18.59.59,0,0,0,.21-.47V72L51.63,84.5h-.54L46.85,72.09v9.55A3.35,3.35,0,0,0,47,82.91a1.49,1.49,0,0,0,.56.65,2.7,2.7,0,0,0,1.18.28v.66H44.29v-.66a2.15,2.15,0,0,0,1.5-.53,2.38,2.38,0,0,0,.39-1.57v-9a.64.64,0,0,0-.18-.5,1.15,1.15,0,0,0-.69-.15h-1Z"/><path class="cls-8" d="M65,75.94a3.22,3.22,0,0,1,2.56,1.21,4.74,4.74,0,0,1,1,3.19,5.32,5.32,0,0,1-.46,2.33,3.69,3.69,0,0,1-1.32,1.52,3.27,3.27,0,0,1-1.85.56,3.14,3.14,0,0,1-2.48-1.22,5.48,5.48,0,0,1,0-6.37A3.2,3.2,0,0,1,65,75.94m0,.63a1.72,1.72,0,0,0-1.48.9,5.46,5.46,0,0,0-.58,2.84,5.65,5.65,0,0,0,.58,2.9,1.7,1.7,0,0,0,1.48.91,1.75,1.75,0,0,0,1.53-.91,5.78,5.78,0,0,0,.58-3,5.19,5.19,0,0,0-.57-2.79A1.77,1.77,0,0,0,65,76.57"/><path class="cls-8" d="M71,76.19,73.5,76a15.67,15.67,0,0,1,.23,1.83,3.65,3.65,0,0,1,1.19-1.36A2.8,2.8,0,0,1,76.48,76a2.22,2.22,0,0,1,1.25.33,2.31,2.31,0,0,1,.82,1,4,4,0,0,1,.3,1.58v4a.93.93,0,0,0,.19.65.82.82,0,0,0,.62.19h.53v.66h-4v-.66h.38a1.08,1.08,0,0,0,.74-.19.7.7,0,0,0,.21-.56V79.53a3.62,3.62,0,0,0-.32-1.72,1.48,1.48,0,0,0-1.37-.8,1.84,1.84,0,0,0-1.52.81,3.44,3.44,0,0,0-.6,2.1V83a.89.89,0,0,0,.19.65.82.82,0,0,0,.62.19h.52v.66h-4v-.66h.52a.86.86,0,0,0,.6-.18.56.56,0,0,0,.21-.44V77.85a1.14,1.14,0,0,0-.26-.81,1,1,0,0,0-.76-.28H71Z"/><path class="cls-8" d="M84.37,72.79h.54v3.4h2.44V77H84.91v5.34a1.65,1.65,0,0,0,.3,1.06,1,1,0,0,0,.76.37,1.13,1.13,0,0,0,.93-.56,3.63,3.63,0,0,0,.45-1.85h.54a4.18,4.18,0,0,1-.68,2.47,2,2,0,0,1-1.65.8,1.92,1.92,0,0,1-1.46-.56,2.1,2.1,0,0,1-.53-1.48V77H82.26v-.62a2.06,2.06,0,0,0,1.36-.82,4.93,4.93,0,0,0,.75-2.77"/><path class="cls-8" d="M96.74,82a2.89,2.89,0,0,1-2.54,2,2.14,2.14,0,0,1-1.76-.88,4.62,4.62,0,0,1-.64-2.68h5.4a6.6,6.6,0,0,0-.3-2.06,3.75,3.75,0,0,0-1.2-1.78,2.94,2.94,0,0,0-1.89-.62,3.11,3.11,0,0,0-2.51,1.24,5,5,0,0,0-1,3.28,4.6,4.6,0,0,0,1,3.09,3.23,3.23,0,0,0,2.54,1.2c1.48,0,2.62-.84,3.4-2.52ZM92.4,77.3a1.7,1.7,0,0,1,1.42-.83,1.63,1.63,0,0,1,1.3.68,2.56,2.56,0,0,1,.55,1.66,1.31,1.31,0,0,1-.16.75.52.52,0,0,1-.45.21H91.8A4.34,4.34,0,0,1,92.4,77.3Z"/><path class="cls-8" d="M105.45,82l.52.17c-.42,1.69-1.34,2.54-2.77,2.54a3.26,3.26,0,0,1-2.57-1.14,4.52,4.52,0,0,1-1-3,4.91,4.91,0,0,1,1.1-3.41,3.36,3.36,0,0,1,2.57-1.21,2.57,2.57,0,0,1,1.84.67,2,2,0,0,1,.72,1.5,1.23,1.23,0,0,1-.27.82.8.8,0,0,1-.64.33.78.78,0,0,1-.61-.28,1,1,0,0,1-.25-.66,1.14,1.14,0,0,1,.28-.74.58.58,0,0,0,.13-.27.67.67,0,0,0-.32-.5,1.36,1.36,0,0,0-.85-.24,1.65,1.65,0,0,0-1.49.79,5.56,5.56,0,0,0-.72,3,4.68,4.68,0,0,0,.64,2.7,2,2,0,0,0,1.64.92C104.32,84,105,83.34,105.45,82Z"/><path class="cls-8" d="M116.29,83.59l.29.5a1.75,1.75,0,0,1-1.31.66,1.35,1.35,0,0,1-.92-.33,2.54,2.54,0,0,1-.65-1.15,5,5,0,0,1-1.35,1.19,3.13,3.13,0,0,1-1.39.29,2.51,2.51,0,0,1-1.76-.55,1.78,1.78,0,0,1-.61-1.41A2.5,2.5,0,0,1,110,80.64a9.13,9.13,0,0,1,3.68-1.14V78.24a1.6,1.6,0,0,0-.49-1.16,1.73,1.73,0,0,0-1.25-.48,2.25,2.25,0,0,0-1.21.32c-.24.16-.36.32-.36.47a.88.88,0,0,0,.19.42,1.19,1.19,0,0,1,.24.63.9.9,0,0,1-.24.65.79.79,0,0,1-.61.26.84.84,0,0,1-.67-.31,1.1,1.1,0,0,1-.27-.77,2.06,2.06,0,0,1,.9-1.6,3.57,3.57,0,0,1,2.35-.73,2.93,2.93,0,0,1,2,.64,2,2,0,0,1,.71,1.57v4.54a1.69,1.69,0,0,0,.18.89.51.51,0,0,0,.46.29,1,1,0,0,0,.66-.28m-2.64-3.51a6.11,6.11,0,0,0-2.9,1,1.85,1.85,0,0,0-.64,1.5,1.57,1.57,0,0,0,.33,1.07,1.08,1.08,0,0,0,.86.39,2.11,2.11,0,0,0,1.65-.79,3,3,0,0,0,.7-2Z"/><path class="cls-8" d="M118.68,76.19,121.4,76V79.4a7.91,7.91,0,0,1,1-2.51A1.83,1.83,0,0,1,124,76a1.24,1.24,0,0,1,1,.42,1.6,1.6,0,0,1,.36,1.1,1.37,1.37,0,0,1-.24.87.76.76,0,0,1-.62.31.69.69,0,0,1-.58-.26,1.09,1.09,0,0,1-.22-.72,1.26,1.26,0,0,1,.12-.55,1.2,1.2,0,0,0,.12-.28c0-.09,0-.13-.15-.13a1.13,1.13,0,0,0-.75.43,4,4,0,0,0-.89,1.63,9.66,9.66,0,0,0-.48,2.58v1.79a.56.56,0,0,0,.19.46,1,1,0,0,0,.66.16h1v.66h-4.69v-.66h.75a.86.86,0,0,0,.57-.17.49.49,0,0,0,.2-.39V78a1.32,1.32,0,0,0-.24-.88.8.8,0,0,0-.66-.28h-.67Z"/><path class="cls-8" d="M130.29,71.22V83.28a.51.51,0,0,0,.14.38.71.71,0,0,0,.49.18h.8v.66h-4.28v-.66h.76a.73.73,0,0,0,.55-.2.78.78,0,0,0,.18-.55V73a.85.85,0,0,0-.22-.65A1,1,0,0,0,128,72h-.68v-.67Z"/><path class="cls-8" d="M137.51,75.94a3.24,3.24,0,0,1,2.56,1.21,4.79,4.79,0,0,1,1,3.19,5.32,5.32,0,0,1-.46,2.33,3.69,3.69,0,0,1-1.32,1.52,3.27,3.27,0,0,1-1.85.56A3.12,3.12,0,0,1,135,83.53a5.48,5.48,0,0,1,0-6.37,3.17,3.17,0,0,1,2.52-1.22m0,.63a1.72,1.72,0,0,0-1.48.9,5.36,5.36,0,0,0-.58,2.84,5.67,5.67,0,0,0,.57,2.9,1.71,1.71,0,0,0,1.49.91,1.75,1.75,0,0,0,1.53-.91,5.88,5.88,0,0,0,.58-3,5.09,5.09,0,0,0-.58-2.79,1.74,1.74,0,0,0-1.53-.86"/><rect class="cls-8" x="44.54" y="89.5" width="35.58" height="0.64"/><rect class="cls-8" x="105.82" y="89.5" width="36.64" height="0.64"/><path class="cls-8" d="M85.29,89.55c0,1.51-.56,2.26-1.67,2.26h-1V87.36h1a1.46,1.46,0,0,1,1.25.55A2.66,2.66,0,0,1,85.29,89.55Zm-.26,0a4.58,4.58,0,0,0-.06-.78,1.65,1.65,0,0,0-.23-.59,1,1,0,0,0-.44-.37,1.68,1.68,0,0,0-.68-.13h-.75v3.8h.75a1.53,1.53,0,0,0,.68-.13,1,1,0,0,0,.44-.38,1.93,1.93,0,0,0,.23-.6A5,5,0,0,0,85,89.55Z"/><path class="cls-8" d="M88.23,91.89a.93.93,0,0,1-.44-.11,1,1,0,0,1-.35-.33,1.66,1.66,0,0,1-.22-.52,2.93,2.93,0,0,1-.08-.7,2.84,2.84,0,0,1,.08-.69,1.77,1.77,0,0,1,.21-.52,1.15,1.15,0,0,1,.33-.33.88.88,0,0,1,.42-.11.89.89,0,0,1,.43.11,1,1,0,0,1,.33.33,1.77,1.77,0,0,1,.21.52,2.93,2.93,0,0,1,.07.69v.08H87.38a3.5,3.5,0,0,0,.09.55,1.42,1.42,0,0,0,.18.39.73.73,0,0,0,.26.24.68.68,0,0,0,.32.07,1,1,0,0,0,.24,0,.94.94,0,0,0,.22-.12.6.6,0,0,0,.16-.19.57.57,0,0,0,.08-.26h.24a1.25,1.25,0,0,1-.12.4,1.27,1.27,0,0,1-.21.29.75.75,0,0,1-.28.18A.88.88,0,0,1,88.23,91.89ZM89,90a1.61,1.61,0,0,0-.27-.81.66.66,0,0,0-.53-.27.68.68,0,0,0-.28.07.64.64,0,0,0-.24.2,1,1,0,0,0-.17.34,1.91,1.91,0,0,0-.11.47Z"/><path class="cls-8" d="M92,91.89c-.58,0-.89-.31-.94-.93h.24a.67.67,0,0,0,.2.44.66.66,0,0,0,.49.16.79.79,0,0,0,.28,0,.46.46,0,0,0,.2-.13.35.35,0,0,0,.12-.19.59.59,0,0,0,0-.23.69.69,0,0,0,0-.22.36.36,0,0,0-.12-.16.76.76,0,0,0-.22-.14,2.93,2.93,0,0,0-.37-.14c-.12,0-.24-.09-.33-.14a.65.65,0,0,1-.25-.17.72.72,0,0,1-.16-.25,1.13,1.13,0,0,1,0-.35.9.9,0,0,1,.06-.34.69.69,0,0,1,.17-.26.6.6,0,0,1,.25-.16.9.9,0,0,1,.34-.06.93.93,0,0,1,.63.19.83.83,0,0,1,.24.59h-.25a.46.46,0,0,0-.16-.34.67.67,0,0,0-.43-.12.9.9,0,0,0-.44.13.48.48,0,0,0-.12.16.51.51,0,0,0,0,.22.78.78,0,0,0,0,.14.4.4,0,0,0,.09.15,1.27,1.27,0,0,0,.23.16A3,3,0,0,0,92,90l.35.15a1.21,1.21,0,0,1,.25.17.68.68,0,0,1,.14.25.8.8,0,0,1,0,.32,1.23,1.23,0,0,1-.06.39.87.87,0,0,1-.18.31.68.68,0,0,1-.27.2A.86.86,0,0,1,92,91.89Z"/><path class="cls-8" d="M95.06,91.81h-.24V88.66h.24Zm0-3.94h-.24v-.51h.24Z"/><path class="cls-8" d="M98.94,91.62a3.06,3.06,0,0,1-.06.65,1.21,1.21,0,0,1-.18.43.7.7,0,0,1-.3.24A1.07,1.07,0,0,1,98,93a1,1,0,0,1-.36-.06.73.73,0,0,1-.28-.17.91.91,0,0,1-.18-.27,1.35,1.35,0,0,1-.07-.37h.24a.56.56,0,0,0,.17.41.71.71,0,0,0,.47.13,1,1,0,0,0,.31,0,.55.55,0,0,0,.23-.2,1.16,1.16,0,0,0,.14-.35,2.83,2.83,0,0,0,0-.54v-.2a2,2,0,0,1-.22.29.76.76,0,0,1-.2.17.67.67,0,0,1-.18.07h-.18a.69.69,0,0,1-.39-.12,1,1,0,0,1-.28-.33,1.7,1.7,0,0,1-.17-.51,3.48,3.48,0,0,1-.06-.67,3,3,0,0,1,.07-.7,1.73,1.73,0,0,1,.2-.53,1,1,0,0,1,.29-.34.7.7,0,0,1,.37-.11.52.52,0,0,1,.17,0l.19.05a1,1,0,0,1,.19.12.89.89,0,0,1,.2.19v-.3h.24Zm-.24-2.26a1.22,1.22,0,0,0-.34-.34A.65.65,0,0,0,98,88.9a.52.52,0,0,0-.29.09.6.6,0,0,0-.22.25,1.37,1.37,0,0,0-.15.42,3.45,3.45,0,0,0,0,.6,2.09,2.09,0,0,0,.18,1,.58.58,0,0,0,.52.33.56.56,0,0,0,.39-.16,1.55,1.55,0,0,0,.35-.47Z"/><path class="cls-8" d="M101.28,89.13a1.07,1.07,0,0,1,.23-.3.87.87,0,0,1,.22-.17,1,1,0,0,1,.2-.07h.18q.72,0,.72,1.14v2.09h-.24V89.75a2.17,2.17,0,0,0,0-.38.88.88,0,0,0-.09-.26.52.52,0,0,0-.17-.16.67.67,0,0,0-.26,0,.65.65,0,0,0-.39.16,2.22,2.22,0,0,0-.37.45v2.3H101V88.66h.25Z"/></g></g></svg>