<svg xmlns="http://www.w3.org/2000/svg" viewBox="0 0 165 165"><defs><style>.cls-1{fill:#fff;}.cls-2{fill:#222221;}</style></defs><g id="Capa_2" data-name="Capa 2"><g id="Capa_1-2" data-name="Capa 1"><rect class="cls-1" width="165" height="165"/><polygon class="cls-2" points="38.38 91.87 23.6 73.8 23.6 91.2 22.31 91.2 22.31 71.58 23.43 71.58 38.21 89.65 38.21 72.06 39.49 72.06 39.49 91.87 38.38 91.87"/><path class="cls-2" d="M83.86,81.74a10,10,0,1,1-10-10.13,10.06,10.06,0,0,1,10,10.13M73.85,73a8.78,8.78,0,1,0,8.68,8.78A8.73,8.73,0,0,0,73.85,73"/><path class="cls-2" d="M43.2,79.81a8.67,8.67,0,0,1,17,0Zm16,6.33A8.67,8.67,0,0,1,43,81.73c0-.2,0-.39,0-.59H61.69a10.11,10.11,0,1,0-1.34,5.67Z"/><polygon class="cls-2" points="87.6 91.2 87.6 72.06 91 72.06 91 87.72 101.35 87.72 101.35 91.2 87.6 91.2"/><polygon class="cls-2" points="101.35 67.37 101.35 66.85 108.22 66.85 108.22 71.58 101.35 67.37"/><polygon class="cls-2" points="104.79 91.2 104.79 72.06 105.1 72.06 108.22 73.97 108.22 89.3 105.1 91.2 104.79 91.2"/><polygon class="cls-2" points="115.09 91.2 118.53 91.2 118.53 75.58 123.68 75.58 123.68 72.06 109.94 72.06 109.94 75.58 115.09 75.58 115.09 91.2"/><polygon class="cls-2" points="125.4 91.2 128.84 91.2 128.84 82.19 139.15 82.19 139.15 91.2 142.58 91.2 142.58 72.06 139.15 72.06 139.15 78.8 128.84 78.8 128.84 72.06 125.4 72.06 125.4 91.2"/><path class="cls-2" d="M106,94.82a1.46,1.46,0,0,0-.69-.17c-.46,0-.66.27-.66.52s.22.49.71.7.93.62.93,1.15-.49,1.13-1.36,1.13a1.88,1.88,0,0,1-.94-.23l.14-.49a1.63,1.63,0,0,0,.84.23c.46,0,.72-.24.72-.59s-.2-.53-.66-.73-1-.58-1-1.11a1.12,1.12,0,0,1,1.26-1.07,1.78,1.78,0,0,1,.82.18Z"/><path class="cls-2" d="M106.94,94.22h.59V98.1h-.59Z"/><path class="cls-2" d="M111.11,98.1h-.59l-1-1.82a13.2,13.2,0,0,1-.64-1.31h0c0,.49,0,1,0,1.67V98.1h-.54V94.22H109L110,96a12.7,12.7,0,0,1,.63,1.29h0c0-.53-.06-1-.06-1.64V94.22h.54Z"/><path class="cls-2" d="M114.23,94.72h-1V98.1h-.59V94.72h-1v-.5h2.68Z"/><path class="cls-2" d="M116.78,98.1h-2.11V94.22h2v.49h-1.44v1.12h1.36v.49h-1.36v1.29h1.53Z"/><path class="cls-2" d="M119,96.25a1,1,0,0,1,.54.79,8.1,8.1,0,0,0,.29,1.06h-.61a6.41,6.41,0,0,1-.24-.93c-.11-.52-.29-.71-.7-.71H118V98.1h-.58V94.27a5.07,5.07,0,0,1,.94-.08,1.6,1.6,0,0,1,1.11.31,1,1,0,0,1,.3.76,1,1,0,0,1-.69,1Zm-.68-.24a.7.7,0,0,0,.79-.69c0-.5-.36-.67-.78-.67a1.82,1.82,0,0,0-.41,0V96Z"/><path class="cls-2" d="M122.51,98.1h-2.12V94.22h2v.49H121v1.12h1.36v.49H121v1.29h1.53Z"/><path class="cls-2" d="M123.1,94.27a5.83,5.83,0,0,1,1-.08c1.66,0,2,1,2,1.88h0a2.07,2.07,0,0,1-.56,1.54,2.22,2.22,0,0,1-1.58.51,6.61,6.61,0,0,1-.85,0Zm.59,3.37a2.24,2.24,0,0,0,.38,0c.87,0,1.4-.5,1.4-1.57s-.48-1.43-1.32-1.43a2.43,2.43,0,0,0-.46,0Z"/><path class="cls-2" d="M129.64,94.82a1.43,1.43,0,0,0-.69-.17c-.46,0-.65.27-.65.52s.22.49.71.7.92.62.92,1.15-.48,1.13-1.35,1.13a1.86,1.86,0,0,1-.94-.23l.13-.49a1.66,1.66,0,0,0,.84.23c.46,0,.72-.24.72-.59s-.19-.53-.66-.73-1-.58-1-1.11A1.12,1.12,0,0,1,129,94.16a1.7,1.7,0,0,1,.81.18Z"/><path class="cls-2" d="M132.87,94.72h-1.05V98.1h-.59V94.72h-1v-.5h2.69Z"/><path class="cls-2" d="M136.38,96.12c0,1.35-.72,2-1.66,2s-1.63-.8-1.63-2,.68-2,1.68-2S136.38,95,136.38,96.12Zm-2.67,0c0,.78.36,1.5,1,1.5s1-.7,1-1.53-.33-1.5-1-1.5S133.71,95.41,133.71,96.17Z"/><path class="cls-2" d="M139.76,98.1h-.59l-1-1.82a13.2,13.2,0,0,1-.64-1.31h0c0,.49,0,1,0,1.67V98.1H137V94.22h.63l1,1.79a12.7,12.7,0,0,1,.63,1.29h0c0-.53-.06-1-.06-1.64V94.22h.54Z"/><path class="cls-2" d="M142.69,98.1h-2.12V94.22h2v.49h-1.44v1.12h1.36v.49h-1.36v1.29h1.53Z"/></g></g></svg>