<svg xmlns="http://www.w3.org/2000/svg" xmlns:xlink="http://www.w3.org/1999/xlink" viewBox="0 0 165 165"><defs><style>.cls-1,.cls-2,.cls-5{fill:none;}.cls-2{clip-rule:evenodd;}.cls-3{fill:#fff;}.cls-4{fill:#3e3e3d;}.cls-5{stroke:#3e3e3d;stroke-miterlimit:22.93;stroke-width:0.07px;}.cls-6{fill:#616161;}.cls-7{clip-path:url(#clip-path);}.cls-8{fill:url(#Degradado_sin_nombre_3);}.cls-9{clip-path:url(#clip-path-2);}.cls-10{fill:url(#Degradado_sin_nombre_6);}.cls-11{clip-path:url(#clip-path-3);}.cls-12{fill:url(#Degradado_sin_nombre_5);}.cls-13{clip-path:url(#clip-path-4);}.cls-14{fill:url(#Degradado_sin_nombre_6-2);}.cls-15{clip-path:url(#clip-path-5);}.cls-16{fill:url(#Degradado_sin_nombre_7);}</style><clipPath id="clip-path"><path id="SVGID" class="cls-1" d="M15,89V62a2.3,2.3,0,0,0,.06-.28,3.24,3.24,0,0,1,1.73-2.45,5.37,5.37,0,0,1,1.16-.36H48.56c.12,0,.24.07.37.09a3.14,3.14,0,0,1,2,1.36,5.12,5.12,0,0,1,.55,1.32V89.18c-.06.22-.11.46-.19.68a3.12,3.12,0,0,1-3,2.16H18a3.1,3.1,0,0,1-2.29-1.18A3.93,3.93,0,0,1,15,89"/></clipPath><linearGradient id="Degradado_sin_nombre_3" x1="15.83" y1="92.86" x2="50.61" y2="58.07" gradientUnits="userSpaceOnUse"><stop offset="0" stop-color="#96969c"/><stop offset="0.04" stop-color="#96969c"/><stop offset="0.54" stop-color="#bebfc3"/><stop offset="1" stop-color="#aaaaaf"/></linearGradient><clipPath id="clip-path-2"><path id="SVGID-2" data-name="SVGID" class="cls-2" d="M30.73,64.1l2.58,0c3.75,3.6,8,6.57,15,6.57V73.6c.06,2.87-2.62,3-3.33,1.65,0-.62,0-1.67,0-2.28C38.17,71.5,33,68.74,30.73,64.1"/></clipPath><linearGradient id="Degradado_sin_nombre_6" x1="30.73" y1="70.34" x2="48.36" y2="70.34" gradientUnits="userSpaceOnUse"><stop offset="0" stop-color="#d5d5d5"/><stop offset="0.25" stop-color="#f1f0f0"/><stop offset="0.99" stop-color="#f1f0f0"/><stop offset="1" stop-color="#f1f0f0"/></linearGradient><clipPath id="clip-path-3"><path id="SVGID-3" data-name="SVGID" class="cls-2" d="M26.94,64.07l3.81,0C33.1,68.89,38.45,71.54,45,73c0,.76.06,1.58.06,2.34.66,6-4.19,7.11-5.89,4.34,0-1.34,0-2.66,0-4-6.75-2.13-10.67-5.76-12.15-11.56"/></clipPath><linearGradient id="Degradado_sin_nombre_5" x1="26.94" y1="73.24" x2="45.07" y2="73.24" gradientUnits="userSpaceOnUse"><stop offset="0" stop-color="#712422"/><stop offset="0.01" stop-color="#742322"/><stop offset="0.15" stop-color="#8e1d20"/><stop offset="0.3" stop-color="#a3191f"/><stop offset="0.48" stop-color="#b2161e"/><stop offset="0.68" stop-color="#ba141d"/><stop offset="1" stop-color="#bd131d"/></linearGradient><clipPath id="clip-path-4"><path id="SVGID-4" data-name="SVGID" class="cls-2" d="M23.79,64.07h3.36c1.53,6.62,6.07,9.84,12,11.52v3.23c.55,5.3-5.47,8.53-8.73,3.21,0-1.37.06-2.77.06-4.15-4.42-3.41-6.2-8.38-6.67-13.81"/></clipPath><linearGradient id="Degradado_sin_nombre_6-2" x1="23.79" y1="75.71" x2="39.16" y2="75.71" xlink:href="#Degradado_sin_nombre_6"/><clipPath id="clip-path-5"><path id="SVGID-5" data-name="SVGID" class="cls-2" d="M23.71,64.07l-5.26,0V80.87c-.48,9,11.31,9.81,12,.81V77.74c-3.55-2.7-5.82-7.24-6.73-13.67"/></clipPath><linearGradient id="Degradado_sin_nombre_7" x1="24.2" y1="88.02" x2="24.2" y2="64.05" gradientUnits="userSpaceOnUse"><stop offset="0" stop-color="#bd131d"/><stop offset="0.38" stop-color="#b9151d"/><stop offset="0.76" stop-color="#ad191e"/><stop offset="1" stop-color="#a11e1e"/></linearGradient></defs><g id="Capa_2" data-name="Capa 2"><g id="Capa_1-2" data-name="Capa 1"><rect class="cls-3" width="165" height="165"/><rect class="cls-4" x="15.98" y="96.2" width="133.33" height="0.29"/><rect class="cls-5" x="15.98" y="96.2" width="133.33" height="0.29"/><path class="cls-6" d="M149.08,91.13h0c.15,0,.22-.07.22-.18s-.07-.18-.22-.18h-.17v.36Zm.15.1h0l.22.39h-.14l-.2-.36h-.2v.36h-.13v-1h.29c.25,0,.36.15.36.3A.26.26,0,0,1,149.23,91.23Zm.71-.1h0a.88.88,0,1,0-.88.89A.87.87,0,0,0,149.94,91.13Zm.07,0a1,1,0,1,1-.95-.94A.94.94,0,0,1,150,91.13Z"/><g class="cls-7"><rect class="cls-8" x="14.99" y="58.92" width="36.47" height="33.1"/></g><g class="cls-9"><rect class="cls-10" x="30.73" y="64.08" width="17.69" height="12.5"/></g><path class="cls-3" d="M45.24,75.19h0a1.48,1.48,0,0,0,1.65.6c.39-.11,1.28-.54,1.24-2.19V70.87C41,70.82,36.76,67.7,33.22,64.31l-2.13,0C33.28,68.39,38,71.22,45,72.74l.18,0V73c0,.3,0,.72,0,1.13s0,.79,0,1.09m1.24,1.11a1.85,1.85,0,0,1-1.65-.94l0,0v-.06c0-.3,0-.73,0-1.14s0-.67,0-1c-7.29-1.6-12.07-4.61-14.23-8.94l-.17-.34,3,0,.06.07c3.51,3.37,7.75,6.5,14.88,6.5h.23V73.6A2.41,2.41,0,0,1,47,76.23,1.93,1.93,0,0,1,46.48,76.3Z"/><g class="cls-11"><rect class="cls-12" x="26.94" y="64.07" width="18.73" height="18.33"/></g><path class="cls-3" d="M39.35,79.57h0a2.68,2.68,0,0,0,3.2,1.1c1.32-.49,2.6-2.15,2.25-5.35v0c0-.38,0-.78,0-1.16l0-1c-7.33-1.63-12-4.51-14.12-8.81l-3.39,0c1.5,5.47,5.3,9,11.92,11.1l.16,0v.17c0,.68,0,1.35,0,2s0,1.28,0,1.93m2.27,1.73a3.17,3.17,0,0,1-2.68-1.53l0-.06v-.07c0-.67,0-1.34,0-2s0-1.22,0-1.84c-6.81-2.19-10.67-5.9-12.14-11.67l-.07-.29,4.23,0L31,64C33,68.27,37.64,71.13,45,72.73l.17,0V73c0,.37,0,.77,0,1.16s0,.79,0,1.16c.38,3.46-1.06,5.28-2.54,5.82A3.13,3.13,0,0,1,41.62,81.3Z"/><g class="cls-13"><rect class="cls-14" x="23.79" y="64.07" width="15.89" height="23.28"/></g><path class="cls-3" d="M30.63,82h0c1.34,2.16,3.3,3,5.24,2.32a5.09,5.09,0,0,0,3-5.44V75.76C32.19,73.82,28.39,70.17,27,64.3H24c.57,6,2.72,10.44,6.56,13.39l.09.07v.12c0,.69,0,1.4,0,2.08s0,1.34,0,2m3.95,3a5.13,5.13,0,0,1-4.36-2.82l0-.06V82c0-.69,0-1.4,0-2.08s0-1.31,0-2c-3.94-3.08-6.12-7.63-6.67-13.9l0-.25h3.79l0,.18c1.34,5.84,5.1,9.45,11.81,11.35l.17,0v3.4A5.53,5.53,0,0,1,36,84.72,4.23,4.23,0,0,1,34.58,85Z"/><g class="cls-15"><rect class="cls-16" x="17.97" y="64.05" width="12.47" height="26.64"/></g><path class="cls-3" d="M18.67,64.28h0V80.87c-.24,4.48,2.61,6.72,5.36,6.91s5.85-1.64,6.18-6.11V77.86c-3.52-2.74-5.77-7.3-6.69-13.56Zm5.75,24H24c-3-.21-6-2.6-5.77-7.38v-17l5.68,0,0,.19c.89,6.29,3.12,10.83,6.64,13.52l.09.07v4.06C30.32,86.26,27.26,88.25,24.42,88.25Z"/><path class="cls-4" d="M18.41,103.25h0l-.64-1.75-.64,1.75Zm.29.8H16.83l-.35,1h-1l1.8-4.57h.92L20,105h-1Z"/><path class="cls-4" d="M24.82,101.33h-.76v1.59h.76a.74.74,0,0,0,.85-.8c0-.5-.28-.79-.85-.79m.87,3.7-.78-1.27h-.85V105h-.94v-4.57h1.75a1.59,1.59,0,0,1,1.75,1.66,1.5,1.5,0,0,1-.83,1.44l.9,1.47Z"/><path class="cls-4" d="M32,104.21h0a1.48,1.48,0,1,0-1.26-1.46A1.32,1.32,0,0,0,32,104.21m2.41,1.31a1.31,1.31,0,0,1-1.09.56c-.6,0-1-.25-1.64-1a2.38,2.38,0,0,1,.32-4.7,2.21,2.21,0,0,1,2.2,2.36A2.28,2.28,0,0,1,32.74,105a.71.71,0,0,0,.57.32A.83.83,0,0,0,34,105Z"/><path class="cls-4" d="M37.51,103v-2.56h.93V103c0,.87.33,1.23.9,1.23s.9-.36.9-1.23v-2.52h.92V103c0,1.35-.68,2.09-1.83,2.09s-1.82-.74-1.82-2.09"/><rect class="cls-4" x="44.74" y="100.46" width="0.93" height="4.57"/><polygon class="cls-4" points="50.13 101.33 48.84 101.33 48.84 100.47 52.35 100.47 52.35 101.33 51.06 101.33 51.06 105.03 50.13 105.03 50.13 101.33"/><polygon class="cls-4" points="58.64 104.18 58.64 105.03 55.52 105.03 55.52 100.47 58.56 100.47 58.56 101.31 56.44 101.31 56.44 102.3 58.31 102.3 58.31 103.13 56.44 103.13 56.44 104.18 58.64 104.18"/><path class="cls-4" d="M61.78,102.75A2.2,2.2,0,0,1,64,100.39a2,2,0,0,1,1.65.81l-.6.62a1.24,1.24,0,0,0-1-.53,1.47,1.47,0,0,0,0,2.92,1.22,1.22,0,0,0,1-.54l.6.62a2,2,0,0,1-1.66.82,2.21,2.21,0,0,1-2.18-2.36"/><polygon class="cls-4" points="69.71 101.33 68.42 101.33 68.42 100.47 71.93 100.47 71.93 101.33 70.64 101.33 70.64 105.03 69.71 105.03 69.71 101.33"/><path class="cls-4" d="M75,103v-2.56h.94V103c0,.87.33,1.23.89,1.23s.9-.36.9-1.23v-2.52h.92V103c0,1.35-.68,2.09-1.82,2.09S75,104.37,75,103"/><path class="cls-4" d="M83.92,101.33h-.76v1.59h.76a.75.75,0,0,0,.86-.8c0-.5-.29-.79-.86-.79m.88,3.7L84,103.76h-.86V105h-.93v-4.57H84a1.59,1.59,0,0,1,1.75,1.66,1.48,1.48,0,0,1-.83,1.44L85.8,105Z"/><path class="cls-4" d="M91.48,103.25h0l-.64-1.75-.63,1.75Zm.3.8H89.91l-.36,1h-1l1.8-4.57h.92l1.8,4.57h-1Z"/><polygon class="cls-4" points="103.61 104.18 103.61 105.03 100.49 105.03 100.49 100.47 103.54 100.47 103.54 101.31 101.42 101.31 101.42 102.3 103.29 102.3 103.29 103.13 101.42 103.13 101.42 104.18 103.61 104.18"/><polygon class="cls-4" points="109.52 105.03 108.54 103.45 107.59 105.03 106.52 105.03 108.01 102.71 106.59 100.47 107.65 100.47 108.58 101.95 109.49 100.47 110.5 100.47 109.09 102.67 110.59 105.03 109.52 105.03"/><polygon class="cls-4" points="114.42 101.33 113.13 101.33 113.13 100.47 116.64 100.47 116.64 101.33 115.35 101.33 115.35 105.03 114.42 105.03 114.42 101.33"/><polygon class="cls-4" points="122.92 104.18 122.92 105.03 119.8 105.03 119.8 100.47 122.85 100.47 122.85 101.31 120.73 101.31 120.73 102.3 122.6 102.3 122.6 103.13 120.73 103.13 120.73 104.18 122.92 104.18"/><path class="cls-4" d="M128,101.33h-.76v1.59H128a.75.75,0,0,0,.86-.8c0-.5-.29-.79-.86-.79m.88,3.7-.78-1.27h-.86V105h-.93v-4.57h1.74a1.59,1.59,0,0,1,1.75,1.66,1.48,1.48,0,0,1-.83,1.44l.91,1.47Z"/><rect class="cls-4" x="133.22" y="100.46" width="0.93" height="4.57"/><path class="cls-4" d="M141,102.75h0a1.27,1.27,0,1,0-1.26,1.46,1.32,1.32,0,0,0,1.26-1.46m-3.47,0a2.21,2.21,0,1,1,2.21,2.36A2.22,2.22,0,0,1,137.52,102.75Z"/><path class="cls-4" d="M147,101.33h-.76v1.59H147a.75.75,0,0,0,.86-.8c0-.5-.29-.79-.86-.79m.88,3.7-.78-1.27h-.86V105h-.93v-4.57H147a1.59,1.59,0,0,1,1.75,1.66,1.48,1.48,0,0,1-.83,1.44l.91,1.47Z"/><path class="cls-4" d="M57.07,61h0v7a4.17,4.17,0,0,0,2.78-1,3.45,3.45,0,0,0,0-5,4.12,4.12,0,0,0-2.76-1M55.82,73.28V59.64H56A7,7,0,0,1,60.54,61a4.44,4.44,0,0,1,1.67,3.63,4.33,4.33,0,0,1-1.4,3.3,5.94,5.94,0,0,1-3.74,1.49v3.88Z"/><path class="cls-4" d="M65.52,67.06h6.17a12.31,12.31,0,0,0-1.1-3,17.16,17.16,0,0,0-2-3A16.06,16.06,0,0,0,66.67,64a13.84,13.84,0,0,0-1.15,3.11m-1.69,6.22c0-.12,0-.25,0-.39v-.63A20.52,20.52,0,0,1,65,65a15.74,15.74,0,0,1,3.65-5.56A15.66,15.66,0,0,1,72.26,65a20.29,20.29,0,0,1,1.15,7.18v.66c0,.15,0,.3,0,.43H72.16V72.8c0-1,0-1.82-.06-2.56s-.11-1.39-.19-1.94H65.29c-.08.66-.15,1.41-.19,2.23S65,72.27,65,73.28Z"/><path class="cls-4" d="M77.6,73.28H76.22V59.64h.13a6.54,6.54,0,0,1,4.3,1.4,4.53,4.53,0,0,1,1,5.94,8.08,8.08,0,0,1-2.23,2.15,4.92,4.92,0,0,0,1.13,1.73,6.34,6.34,0,0,0,1.86,1.28v1.4a9.66,9.66,0,0,1-1.85-.92,6.5,6.5,0,0,1-1.36-1.19,7.32,7.32,0,0,1-1-1.69,4.05,4.05,0,0,1-.43-1.36c0-.06.15-.15.44-.26a3.92,3.92,0,0,0,.81-.43,4.78,4.78,0,0,0,1.44-1.43,3.12,3.12,0,0,0,.49-1.68,3.24,3.24,0,0,0-.93-2.3,3.86,3.86,0,0,0-2.38-1.19Z"/><path class="cls-4" d="M86.59,67.06h6.17a13.19,13.19,0,0,0-1.1-3,17.16,17.16,0,0,0-2-3A15.55,15.55,0,0,0,87.74,64a13.84,13.84,0,0,0-1.15,3.11m-1.7,6.22c0-.12,0-.25,0-.39v-.63A20.52,20.52,0,0,1,86,65a15.61,15.61,0,0,1,3.65-5.56A15.79,15.79,0,0,1,93.33,65a20.29,20.29,0,0,1,1.15,7.18v.66c0,.15,0,.3,0,.43H93.23V72.8c0-1,0-1.82-.07-2.56A18.47,18.47,0,0,0,93,68.3H86.35c-.08.66-.14,1.41-.18,2.23s-.06,1.74-.06,2.75Z"/><path class="cls-4" d="M98.12,73.28a4.39,4.39,0,0,0,1.48-1.49,3.73,3.73,0,0,0,.51-1.92,2.78,2.78,0,0,0-.33-1.32,5.19,5.19,0,0,0-1.1-1.34s-.1-.09-.17-.17c-1.35-1.27-2-2.43-2-3.48a4,4,0,0,1,1.24-3,4.19,4.19,0,0,1,3.06-1.23,4.81,4.81,0,0,1,1.2.15,5.89,5.89,0,0,1,1.23.44v1.3a4.06,4.06,0,0,0-1.09-.57,3.69,3.69,0,0,0-1.18-.19,3,3,0,0,0-2.16.84,2.83,2.83,0,0,0-.86,2.1,2.75,2.75,0,0,0,.37,1.36,6.1,6.1,0,0,0,1.28,1.45A6.14,6.14,0,0,1,101,68a3.94,3.94,0,0,1,.45,1.87,4.82,4.82,0,0,1-.34,1.79,5.48,5.48,0,0,1-1,1.63Z"/><path class="cls-4" d="M106.16,66.46h0a5.63,5.63,0,0,0,1.76,4.21,6.24,6.24,0,0,0,8.58,0,5.92,5.92,0,0,0,0-8.41,6,6,0,0,0-4.31-1.71,5.81,5.81,0,0,0-4.27,1.7,5.68,5.68,0,0,0-1.73,4.21m-1.33,0a7.18,7.18,0,0,1,.41-2.41A6.81,6.81,0,0,1,106.47,62,7,7,0,0,1,109,60.08a7.67,7.67,0,0,1,3.18-.66,7.85,7.85,0,0,1,2.51.4A7.28,7.28,0,0,1,116.86,61a6.67,6.67,0,0,1,2,2.4,6.82,6.82,0,0,1,.69,3,7,7,0,0,1-.42,2.42A6.7,6.7,0,0,1,117.91,71a7.16,7.16,0,0,1-2.53,1.89,7.45,7.45,0,0,1-3.14.65,7.7,7.7,0,0,1-2.87-.53,7.16,7.16,0,0,1-2.4-1.52,6.65,6.65,0,0,1-2.14-5Z"/><polygon class="cls-4" points="122.15 73.28 122.15 59.64 123.49 59.64 123.49 72.11 127.5 72.11 127.5 73.28 122.15 73.28"/><path class="cls-4" d="M140.19,71.1v1.42a8.84,8.84,0,0,1-1.86.75,7.08,7.08,0,0,1-1.86.23,7.39,7.39,0,0,1-5.31-2,7,7,0,0,1,0-10,7.39,7.39,0,0,1,5.31-2,7.77,7.77,0,0,1,1.89.23,7.9,7.9,0,0,1,1.83.74v1.43a6.83,6.83,0,0,0-1.83-1,6.47,6.47,0,0,0-2.05-.29A5.75,5.75,0,0,0,132.37,62a6,6,0,0,0-2,3.81h6.92V67H130.4a5.9,5.9,0,0,0,1.91,3.89,5.76,5.76,0,0,0,4,1.5,6.46,6.46,0,0,0,2.05-.3,6.56,6.56,0,0,0,1.83-1"/><path class="cls-4" d="M144.08,73.28a4.44,4.44,0,0,0,1.47-1.49,3.73,3.73,0,0,0,.51-1.92,2.78,2.78,0,0,0-.33-1.32,5,5,0,0,0-1.1-1.34l-.17-.17c-1.35-1.27-2-2.43-2-3.48a4,4,0,0,1,1.24-3,4.19,4.19,0,0,1,3.06-1.23,4.93,4.93,0,0,1,1.2.15,6.32,6.32,0,0,1,1.23.44v1.3a4.12,4.12,0,0,0-1.1-.57,3.64,3.64,0,0,0-1.18-.19,3,3,0,0,0-2.16.84,2.82,2.82,0,0,0-.85,2.1,2.65,2.65,0,0,0,.37,1.36,5.89,5.89,0,0,0,1.28,1.45A6.5,6.5,0,0,1,147,68a3.94,3.94,0,0,1,.45,1.87,5,5,0,0,1-.34,1.79,5.51,5.51,0,0,1-1,1.63Z"/><path class="cls-4" d="M54.83,78.93A6.22,6.22,0,0,1,56.65,78a6.72,6.72,0,0,1,4.16,0,6.29,6.29,0,0,1,1.81.92l-.55,1a5.48,5.48,0,0,0-1.26-.68,6.28,6.28,0,0,0-1.45-.38V91.72H58.09V78.91a6.39,6.39,0,0,0-1.43.38A5.92,5.92,0,0,0,55.4,80Z"/><path class="cls-4" d="M65.72,91.72H64.37V77.9h.13a6.16,6.16,0,0,1,4.18,1.42,4.49,4.49,0,0,1,1.65,3.56,4.64,4.64,0,0,1-.66,2.45,8.24,8.24,0,0,1-2.17,2.18,5,5,0,0,0,1.09,1.75,6.21,6.21,0,0,0,1.82,1.3V92A9.27,9.27,0,0,1,68.6,91a6.57,6.57,0,0,1-1.32-1.2,7.45,7.45,0,0,1-1-1.72,4.17,4.17,0,0,1-.42-1.37c0-.06.14-.15.43-.26a3.73,3.73,0,0,0,.78-.44,4.83,4.83,0,0,0,1.41-1.45,3.24,3.24,0,0,0,.48-1.7A3.34,3.34,0,0,0,68,80.57a3.67,3.67,0,0,0-2.31-1.2Z"/><path class="cls-4" d="M73.44,84.81h0a5.82,5.82,0,0,0,1.72,4.26,5.76,5.76,0,0,0,4.23,1.73,5.7,5.7,0,0,0,4.21-1.73,6.15,6.15,0,0,0,0-8.52,5.75,5.75,0,0,0-4.23-1.73,5.62,5.62,0,0,0-4.2,1.72,5.85,5.85,0,0,0-1.7,4.27m-1.31,0a7.31,7.31,0,0,1,.41-2.44,6.87,6.87,0,0,1,1.2-2.12,7,7,0,0,1,2.47-1.91,7.41,7.41,0,0,1,3.13-.66,7.55,7.55,0,0,1,2.46.4A7.33,7.33,0,0,1,84,79.28a6.77,6.77,0,0,1,2,2.44,7.13,7.13,0,0,1,.68,3.09,7.37,7.37,0,0,1-.41,2.45,6.83,6.83,0,0,1-1.2,2.1,7.07,7.07,0,0,1-2.48,1.92,7.26,7.26,0,0,1-3.09.66,7.45,7.45,0,0,1-2.82-.54,7.1,7.1,0,0,1-2.35-1.54,6.7,6.7,0,0,1-1.57-2.29A7,7,0,0,1,72.13,84.81Z"/><path class="cls-4" d="M89.86,79.3h0v7.14a4,4,0,0,0,2.73-1,3.3,3.3,0,0,0,1-2.52,3.34,3.34,0,0,0-1.05-2.52,4,4,0,0,0-2.71-1.06M88.63,91.72V77.9h.21a6.7,6.7,0,0,1,4.43,1.36,4.53,4.53,0,0,1,1.63,3.67,4.44,4.44,0,0,1-1.36,3.34,5.79,5.79,0,0,1-3.68,1.52v3.93Z"/><rect class="cls-4" x="96.82" y="77.9" width="1.32" height="13.81"/><path class="cls-4" d="M111.14,89.51v1.42a6.36,6.36,0,0,1-1.75.76,8,8,0,0,1-2.06.25,7.26,7.26,0,0,1-2.74-.53,6.85,6.85,0,0,1-2.31-1.53,6.71,6.71,0,0,1-1.56-2.3,7.12,7.12,0,0,1-.53-2.77,6.85,6.85,0,0,1,2.08-5.09,7.12,7.12,0,0,1,5.21-2,7,7,0,0,1,1.85.23,8.23,8.23,0,0,1,1.81.74v1.46a6.47,6.47,0,0,0-1.8-1,6.25,6.25,0,0,0-2-.3,5.52,5.52,0,0,0-4.14,1.73,6.21,6.21,0,0,0,0,8.52,5.56,5.56,0,0,0,4.14,1.73,6.4,6.4,0,0,0,2.06-.32,5.7,5.7,0,0,0,1.75-1"/><path class="cls-4" d="M114.59,85.42h6.06a13.05,13.05,0,0,0-1.09-3.06,16.84,16.84,0,0,0-1.94-3,16,16,0,0,0-1.9,2.92,14.18,14.18,0,0,0-1.13,3.16m-1.67,6.3c0-.12,0-.26,0-.4s0-.36,0-.64A21.25,21.25,0,0,1,114,83.35a15.89,15.89,0,0,1,3.58-5.64,16,16,0,0,1,3.59,5.63,21.23,21.23,0,0,1,1.13,7.27v.67l0,.44h-1.2v-.5c0-1,0-1.84-.07-2.59s-.1-1.4-.18-2h-6.5c-.08.68-.14,1.44-.18,2.27s-.06,1.76-.06,2.79Z"/><polygon class="cls-4" points="124.13 91.72 124.13 77.9 125.46 77.9 125.46 90.52 129.4 90.52 129.4 91.72 124.13 91.72"/><path class="cls-4" d="M141,89.51v1.43a8.19,8.19,0,0,1-1.83.76,6.83,6.83,0,0,1-1.82.24,7.13,7.13,0,0,1-5.22-2,7.26,7.26,0,0,1,0-10.17,7.16,7.16,0,0,1,5.22-2,7.05,7.05,0,0,1,1.85.23,8.36,8.36,0,0,1,1.8.74v1.46a6.47,6.47,0,0,0-1.8-1,6.25,6.25,0,0,0-2-.3,5.57,5.57,0,0,0-3.88,1.47,6.1,6.1,0,0,0-1.93,3.85h6.8v1.2h-6.8a6,6,0,0,0,1.88,3.94,5.55,5.55,0,0,0,3.93,1.52,6.25,6.25,0,0,0,2-.3,6.47,6.47,0,0,0,1.8-1"/><path class="cls-4" d="M144.27,91.72a4.49,4.49,0,0,0,1.46-1.52,3.89,3.89,0,0,0,.5-1.94,2.86,2.86,0,0,0-.33-1.34,5.46,5.46,0,0,0-1.08-1.36l-.17-.17c-1.32-1.28-2-2.45-2-3.52a4.14,4.14,0,0,1,1.22-3,4.06,4.06,0,0,1,3-1.24,5.21,5.21,0,0,1,1.18.14,7,7,0,0,1,1.21.45v1.32A4,4,0,0,0,148.2,79a3.58,3.58,0,0,0-1.16-.2,2.85,2.85,0,0,0-2.12.85,2.89,2.89,0,0,0-.84,2.13,2.84,2.84,0,0,0,.36,1.38,6.41,6.41,0,0,0,1.26,1.46,6.24,6.24,0,0,1,1.42,1.76,4,4,0,0,1,.45,1.88,4.94,4.94,0,0,1-.34,1.82,5.58,5.58,0,0,1-1,1.66Z"/></g></g></svg>