<svg xmlns="http://www.w3.org/2000/svg" viewBox="0 0 165 165"><defs><style>.cls-1{fill:#fff;}.cls-2{fill:#006edd;}.cls-3{fill:#58ba49;}</style></defs><g id="Capa_2" data-name="Capa 2"><g id="Capa_1-2" data-name="Capa 1"><rect class="cls-1" width="165" height="165"/><path class="cls-2" d="M34.89,69.64a17.14,17.14,0,0,1,1.49-7.46,18.51,18.51,0,0,1,2.89-4.49,16,16,0,0,1,5-4,19,19,0,0,1,5.83-1.95,17.91,17.91,0,0,1,8.2.84,15.85,15.85,0,0,1,5.54,3.24c2.82,2.55,5.4,5.32,8.12,8,1.37,1.34,2.67,2.73,4.07,4S78.83,70.6,80.22,72c.51.49.5.52,0,1l-6.15,6.15c-.52.52-.52.52-1,0-4.89-4.89-9.77-9.8-14.69-14.67a8.37,8.37,0,0,0-3.9-2.28A6.93,6.93,0,0,0,51.32,62a8.14,8.14,0,0,0-3.91,1.87,7.54,7.54,0,0,0-1.32,1.65,6.14,6.14,0,0,0-.77,1.77,6.89,6.89,0,0,0-.25,2.6,16,16,0,0,0,.27,1.84c.07.26-.13.39-.27.53l-5.61,5.53c-.39.4-.77.82-1.15,1.23s-.43.24-.63-.07a17.5,17.5,0,0,1-2.55-6.38A11.11,11.11,0,0,1,34.89,69.64Z"/><path class="cls-2" d="M113.74,112.12a14.42,14.42,0,0,1-5.91-.84,15,15,0,0,1-5.58-3.24c-5.6-5.21-10.85-10.78-16.31-16.13-.51-.5-.5-.51,0-1L92,84.71c.46-.46.48-.46.94,0,3.38,3.38,6.73,6.79,10.14,10.13,1.65,1.62,3.27,3.26,4.94,4.85a8,8,0,0,0,3.55,2,7.45,7.45,0,0,0,7.07-1.72A7.09,7.09,0,0,0,121,95.39a7,7,0,0,0-.26-3,.63.63,0,0,1,.19-.7c1.24-1.18,2.4-2.44,3.67-3.6.44-.41.82-.89,1.26-1.31.7-.69,1.43-1.36,2.12-2.06.22-.22.31-.13.43.08a18.61,18.61,0,0,1,2.62,7,19.06,19.06,0,0,1-.28,6.73,17.56,17.56,0,0,1-1.85,4.81,18.06,18.06,0,0,1-2.16,2.92,16.13,16.13,0,0,1-6.19,4.42,20.22,20.22,0,0,1-4.1,1.32A18.34,18.34,0,0,1,113.74,112.12Z"/><path class="cls-3" d="M96,34.45a18.29,18.29,0,0,1,3.08.14,16.77,16.77,0,0,1,3.4,1,21.13,21.13,0,0,1,3.62,1.89,15.76,15.76,0,0,1,3.13,2.75,21.75,21.75,0,0,1,2.93,4.42,13.13,13.13,0,0,1,.49,1.32,19.48,19.48,0,0,1,1,4c.07.46,0,.94,0,1.41a16.61,16.61,0,0,1-.75,5.78,15.22,15.22,0,0,1-2.1,4.42c-.23.33-.37.11-.53,0q-1.52-1.5-3-3c-1.23-1.23-2.45-2.46-3.68-3.67a.71.71,0,0,1-.21-.81,7.54,7.54,0,0,0-7-9.6,10.62,10.62,0,0,0-3.18.49,5.32,5.32,0,0,0-1.5.85A11.55,11.55,0,0,0,90.32,47c-3.66,3.66-7.3,7.34-11,11-1.31,1.29-2.62,2.57-3.92,3.87-.26.27-.45.22-.68,0l-1.48-1.48-4.84-4.75c-.45-.44-.44-.47,0-.91L83.89,39.22a17.08,17.08,0,0,1,4-2.78,17.57,17.57,0,0,1,2.7-1.19A14.49,14.49,0,0,1,96,34.45Z"/><path class="cls-3" d="M70.53,130a15.51,15.51,0,0,1-7.05-1.37,17.62,17.62,0,0,1-9-8.8c-.3-.65-.58-1.3-.82-2a19.71,19.71,0,0,1-.77-4,16.15,16.15,0,0,1,.2-4.39,15.26,15.26,0,0,1,1.93-5.45c.19-.33.39-.65.55-1s.33-.3.6-.07c1.64,1.43,3,3.08,4.6,4.6.71.7,1.43,1.4,2.17,2.07a.78.78,0,0,1,.24.93,6.61,6.61,0,0,0-.16,3.58,8.16,8.16,0,0,0,1.8,3.49A7.39,7.39,0,0,0,70.18,120a7.3,7.3,0,0,0,4.89-1.47,15.05,15.05,0,0,0,1.51-1.37c4.89-4.79,9.73-9.63,14.57-14.47.41-.42.42-.41.85,0,.88.89,1.79,1.73,2.63,2.65,1.17,1.28,2.41,2.49,3.63,3.71.32.33.12.52-.11.75-2.47,2.47-4.93,4.94-7.41,7.4-1.47,1.47-3,2.88-4.44,4.37-1,1-2,2.12-3.06,3.12a18.8,18.8,0,0,1-4.74,3.49A15.57,15.57,0,0,1,70.53,130Z"/><path class="cls-2" d="M80.6,108.44a.58.58,0,0,1-.21.35c-2.16,2.13-4.33,4.25-6.49,6.39-.34.33-.54.13-.79-.11l-8.66-8.66-14-14c-.46-.45-.46-.48,0-.94l5.27-5.35c.37-.38.78-.72,1.16-1.08a.34.34,0,0,1,.55,0c1.44,1.48,2.94,2.89,4.35,4.41,1.19,1.29,2.47,2.5,3.72,3.75L80.29,108C80.42,108.13,80.58,108.24,80.6,108.44Z"/><path class="cls-2" d="M92.71,49.59a.71.71,0,0,1,.37.24c1.37,1.38,2.78,2.72,4.11,4.13,2.35,2.48,4.81,4.85,7.22,7.26,2.8,2.8,5.59,5.62,8.38,8.42,1,1,2,2,3.07,3.06.31.31.3.52,0,.82q-3.21,3.14-6.39,6.29c-.34.34-.55.2-.82-.07Q102.9,74,97.14,68.24,91.56,62.66,86,57.07c-.42-.42-.42-.48,0-.88l6.34-6.34C92.41,49.73,92.52,49.59,92.71,49.59Z"/><path class="cls-3" d="M97.9,73.93c0,.2-.19.31-.32.43q-5.35,5.37-10.72,10.72C84.94,87,83,88.89,81.11,90.86S77,95,75,97c-.44.45-.52.44-1,0l-5.06-5c-.4-.41-.77-.86-1.18-1.26s-.28-.52,0-.82l6-6L89.72,68.1c.29-.28.62-.53.9-.83s.47-.3.77,0c1.33,1.35,2.68,2.69,4,4l2.22,2.22C97.74,73.64,97.88,73.74,97.9,73.93Z"/><path class="cls-3" d="M61.55,75.46c0,.2-.17.3-.29.43l-8.5,8.5L39.33,97.82c-.28.28-.53.58-.78.88s-.46.3-.74,0c-1.7-1.72-3.41-3.42-5.12-5.12-.43-.43-.85-.87-1.29-1.29-.25-.24-.24-.44,0-.69C34,89,36.53,86.43,39.15,83.9c3.05-2.94,6-5.94,9-9,2-2.05,4.07-4.08,6.08-6.14.37-.37.5-.37.87,0q3.12,3.17,6.23,6.32A.59.59,0,0,1,61.55,75.46Z"/><path class="cls-3" d="M133.78,73.93c0,.2-.19.31-.32.43-2.28,2.29-4.6,4.55-6.84,6.87C121.46,86.55,116.16,91.72,111,97c-.52.53-.56.52-1.08,0-1.79-1.79-3.59-3.58-5.38-5.38-.3-.3-.56-.63-.85-.94s0-.47.14-.65l2.93-2.93q9.44-9.43,18.87-18.86c.35-.35.74-.67,1.1-1a.38.38,0,0,1,.6,0c1.32,1.34,2.69,2.63,4,4,.73.8,1.51,1.54,2.27,2.3C133.63,73.64,133.77,73.75,133.78,73.93Z"/><path class="cls-2" d="M80.6,37.77a.64.64,0,0,1-.21.34q-3.24,3.24-6.47,6.47c-.26.26-.46.25-.72,0Q70,41.35,66.77,38.13c-.29-.27-.28-.48,0-.75Q70,34.19,73.17,31c.3-.3.5-.28.79,0l6.4,6.41A.59.59,0,0,1,80.6,37.77Z"/><path class="cls-2" d="M92.52,134.24a.53.53,0,0,1-.35-.21c-2.16-2.16-4.31-4.32-6.48-6.47-.26-.26-.25-.46,0-.72,2.16-2.12,4.33-4.25,6.48-6.38.24-.24.44-.24.66,0l.06.06,6.32,6.24c.44.43.44.47,0,.9L93,133.91C92.84,134,92.73,134.22,92.52,134.24Z"/></g></g></svg>