<svg xmlns="http://www.w3.org/2000/svg" viewBox="0 0 165 165"><defs><style>.cls-1{fill:#3c4b46;}.cls-2{fill:#c28f6c;}</style></defs><g id="Capa_2" data-name="Capa 2"><g id="Capa_1-2" data-name="Capa 1"><rect class="cls-1" width="165" height="165"/><polygon class="cls-2" points="74.1 79.08 76.95 79.08 90.75 59.57 87.89 59.57 74.1 79.08"/><polygon class="cls-2" points="83.51 52.2 81.5 52.2 72.94 52.2 66.28 61.63 71.46 65.04 72.81 63.13 69.57 61 74.15 54.53 81.5 54.53 83.51 54.53 100.24 54.53 96.12 60.65 83.09 79.07 85.94 79.07 98.03 61.99 104.62 52.2 83.51 52.2"/><polygon class="cls-2" points="92.2 75.51 95.43 77.64 90.85 84.11 83.51 84.11 81.5 84.11 64.76 84.11 68.89 77.99 81.92 59.57 79.06 59.57 66.97 76.65 60.38 86.44 81.5 86.44 83.51 86.44 92.06 86.44 98.72 77.01 93.55 73.61 92.2 75.51"/><path class="cls-2" d="M38.94,106.15H33.43v6.37H31.77V96.74h7.17a4.71,4.71,0,0,1,0,9.41Zm0-7.85H33.43v6.29H39a3.16,3.16,0,0,0,0-6.29Z"/><path class="cls-2" d="M52.43,112.8a5.93,5.93,0,0,1-6.29-6.15V96.74H47.8v9.91a4.65,4.65,0,0,0,9.3,0V96.74h1.68v9.91A6,6,0,0,1,52.43,112.8Z"/><path class="cls-2" d="M72.52,112.52l-3.66-6.7H64.15v6.7H62.49V96.74h6.84a4.51,4.51,0,0,1,1.3,8.85l3.84,6.93ZM69.35,98.3h-5.2v6h5.2a3,3,0,0,0,0-6Z"/><path class="cls-2" d="M77.24,112.52V96.74h11.1V98.3H78.92v5.08h8v1.54h-8v6h9.42v1.56Z"/><path class="cls-2" d="M90.58,112.52V111l9.61-12.66H91V96.74h11.3V98.3L92.67,111h9.79v1.56Z"/><path class="cls-2" d="M104.55,112.52V111l9.6-12.66h-9.22V96.74h11.31V98.3L106.63,111h9.8v1.56Z"/><polygon class="cls-2" points="126.72 96.74 124.45 96.74 117.94 112.52 119.6 112.52 121.56 107.76 122.2 106.2 122.2 106.2 125.56 98.04 129.49 107.76 131.46 112.52 133.23 112.52 126.72 96.74"/><path class="cls-2" d="M102.24,85l-.55-1.1h-.55V85h-.75V81.82h1.48a1,1,0,0,1,1.12,1,1,1,0,0,1-.55.91l.68,1.24Zm-.39-2.49h-.71v.78h.71a.36.36,0,0,0,.37-.39A.37.37,0,0,0,101.85,82.5Z"/><path class="cls-2" d="M101.76,80.37a3,3,0,1,0,3,3A3,3,0,0,0,101.76,80.37Zm0,5.53a2.5,2.5,0,1,1,2.49-2.49A2.5,2.5,0,0,1,101.76,85.9Z"/></g></g></svg>