<svg xmlns="http://www.w3.org/2000/svg" viewBox="0 0 165 165"><defs><style>.cls-1{fill:#fff;}.cls-2{fill:#222221;}.cls-3{fill:#b8291d;}.cls-4{fill:#4d4d4d;}.cls-5{fill:#181814;}</style></defs><g id="Capa_2" data-name="Capa 2"><g id="Capa_1-2" data-name="Capa 1"><rect class="cls-1" width="165" height="165"/><path class="cls-2" d="M121.74,71.28a4.64,4.64,0,1,0,4.64-4.63A4.64,4.64,0,0,0,121.74,71.28Z"/><path class="cls-3" d="M130.43,66.14h0a.25.25,0,0,0-.12,0,.27.27,0,0,0-.27.27.2.2,0,0,0,0,.11s0,0,0,0l.09.08a5.77,5.77,0,0,1,2.09,5.94v0a1.23,1.23,0,0,0,0,.2,1.16,1.16,0,0,0,.34.82h0A8.57,8.57,0,0,1,131,86.86h0l0,0-.09.06a.52.52,0,0,1-.82-.29V79.92a.91.91,0,0,0,0-.17V76.57h0a.27.27,0,0,0-.27-.27.16.16,0,0,0-.12,0s0,0,0,0a5.89,5.89,0,0,1-3.27,1,6.14,6.14,0,0,1-3.14-.85l-.16-.11h0a.35.35,0,0,0-.11,0,.27.27,0,0,0-.27.27.43.43,0,0,0,0,0v3a1.83,1.83,0,0,0,0,.33v6.3s0,0,0,.06c-.13.71-.47.77-.72.69a8.65,8.65,0,0,1-4.18-7.37,8.75,8.75,0,0,1,2.4-5.92,1.16,1.16,0,0,0,.4-.88.77.77,0,0,0,0-.15l0,0a5.7,5.7,0,0,1-.13-2.25,5.4,5.4,0,0,1,2.29-3.86h0l0,0v0l0-.07a.52.52,0,0,0,0-.11.32.32,0,0,0-.39-.28,14.08,14.08,0,0,0,.22,27.08v3.31A2.51,2.51,0,0,0,125.16,99h2.41a2.52,2.52,0,0,0,2.52-2.52V93.13a14,14,0,0,0,.34-27Z"/><path class="cls-4" d="M39.8,79.22v2.47a.19.19,0,0,1-.22.22H32.05a.14.14,0,0,1-.09,0l-.27,0h-.26c-2.56,0-4.44-.64-5.67-1.93A3.73,3.73,0,0,1,25,78.9a5.36,5.36,0,0,1-.39-1.52c0-.28-.05-.69-.06-1.24s0-1.35,0-2.4V72.29q0-.58,0-1c0-.27,0-.51,0-.71a2.43,2.43,0,0,1,.09-.55,12.59,12.59,0,0,1,.41-1.5,4,4,0,0,1,.62-1.2,3.62,3.62,0,0,1,1.11-1,6.44,6.44,0,0,1,1.47-.58,8.12,8.12,0,0,1,1.27-.18q.84-.06,1.95-.06c.79,0,1.43,0,1.93,0a7.21,7.21,0,0,1,1.27.13,4.54,4.54,0,0,1,2.5,1.6,3.54,3.54,0,0,1,.53,1.12c.13.45.25,1,.37,1.53a9.81,9.81,0,0,1,.13,1.53c0,.63,0,1.38,0,2.24s0,1.76,0,2.4,0,1.08-.07,1.32A5.7,5.7,0,0,1,37.83,79h1.75A.19.19,0,0,1,39.8,79.22ZM30.28,68.64a5.45,5.45,0,0,0-.88.13,2.14,2.14,0,0,0-1.21.77,2.82,2.82,0,0,0-.44,1.7v5a3,3,0,0,0,.51,1.85,2,2,0,0,0,1.33.8,1.83,1.83,0,0,0,.33,0l.52,0L31,79h.53a9,9,0,0,0,1,0l.83-.07a1.91,1.91,0,0,0,1.34-.79,3.47,3.47,0,0,0,.39-1.84v-5a3.66,3.66,0,0,0-.32-1.75,1.7,1.7,0,0,0-1.12-.77,4.62,4.62,0,0,0-.94-.15c-.34,0-.74,0-1.19,0S30.7,68.61,30.28,68.64Z"/><path class="cls-4" d="M49.38,65.9h2.74a.19.19,0,0,1,.22.21V76.52a9.44,9.44,0,0,1-.09,1.39,4.52,4.52,0,0,1-.24,1,3.74,3.74,0,0,1-.39.73,4.8,4.8,0,0,1-.55.71,3.11,3.11,0,0,1-.77.56,7.74,7.74,0,0,1-.84.39c-.26.08-.55.16-.87.23a5.67,5.67,0,0,1-1.05.1H45a5.81,5.81,0,0,1-1.35-.16A3.52,3.52,0,0,1,42.56,81a4.14,4.14,0,0,1-.78-.61,5.06,5.06,0,0,1-.71-.86,4.79,4.79,0,0,1-.45-1,4.26,4.26,0,0,1-.16-1.15V66.11a.19.19,0,0,1,.22-.21h2.74a.19.19,0,0,1,.22.21v10.7a2.08,2.08,0,0,0,.1.6A2,2,0,0,0,44,78a2,2,0,0,0,.49.51,1.17,1.17,0,0,0,.69.21h2.31a1.21,1.21,0,0,0,.68-.21,2.06,2.06,0,0,0,.51-.51,2.36,2.36,0,0,0,.33-.63,1.89,1.89,0,0,0,.12-.63V66.11C49.16,66,49.23,65.9,49.38,65.9Z"/><path class="cls-4" d="M53.87,65.9h2.74a.19.19,0,0,1,.22.21V81.39a.2.2,0,0,1-.22.22H53.87a.2.2,0,0,1-.22-.22V66.11C53.65,66,53.72,65.9,53.87,65.9Z"/><path class="cls-4" d="M58.23,68.39a2.54,2.54,0,0,1,.26-1.2,2.17,2.17,0,0,1,.7-.77,3,3,0,0,1,1-.4,4.88,4.88,0,0,1,1.15-.12,9.06,9.06,0,0,1,1.53.1,1.84,1.84,0,0,1,1,.5,2.49,2.49,0,0,1,.6,1.15,19.37,19.37,0,0,1,.44,2.08L66.07,77a2,2,0,0,1,.06.29,2.74,2.74,0,0,0,.09.39,2.42,2.42,0,0,0,.11.35c0,.11.06.16.09.16s.07,0,.11-.16a1.2,1.2,0,0,0,.11-.35l.09-.38a2,2,0,0,0,0-.23l1.14-7.41a16.37,16.37,0,0,1,.42-2A2.67,2.67,0,0,1,69,66.49,1.93,1.93,0,0,1,70,66a9.8,9.8,0,0,1,1.58-.1,4.27,4.27,0,0,1,2.26.54,2.07,2.07,0,0,1,.87,1.89V81.39a.2.2,0,0,1-.22.22H71.7a.19.19,0,0,1-.21-.22v-12a1.23,1.23,0,0,0,0-.18c0-.1,0-.14-.13-.14a.18.18,0,0,0-.16.07,1,1,0,0,0-.1.17,1.07,1.07,0,0,0-.06.19l-.06.33-.06.35q0,.18-.06.27c-.09.36-.17.75-.25,1.15s-.2.93-.34,1.6-.33,1.51-.54,2.54-.49,2.35-.84,3.95a3.18,3.18,0,0,1-.22.68,2.08,2.08,0,0,1-.43.59,2,2,0,0,1-.73.43,3.53,3.53,0,0,1-1.17.17,3.07,3.07,0,0,1-1-.16,2.08,2.08,0,0,1-.66-.38,1.52,1.52,0,0,1-.4-.52A2.7,2.7,0,0,1,64,80l-2.2-10.43a2.35,2.35,0,0,1-.07-.26c0-.13-.09-.21-.15-.23h-.11c-.05,0-.08.06-.08.16V81.39a.2.2,0,0,1-.22.22H58.45a.2.2,0,0,1-.22-.22Z"/><path class="cls-4" d="M76.24,65.9H79c.15,0,.22.07.22.21V81.39a.2.2,0,0,1-.22.22H76.24a.2.2,0,0,1-.22-.22V66.11C76,66,76.09,65.9,76.24,65.9Z"/><path class="cls-4" d="M80.47,70.78A6,6,0,0,1,80.73,69a3,3,0,0,1,.36-.83,7.74,7.74,0,0,1,.47-.62,4.91,4.91,0,0,1,1.63-1.23,4.68,4.68,0,0,1,2-.43H91a.19.19,0,0,1,.22.21v2.41a.2.2,0,0,1-.22.22H85.33a1.85,1.85,0,0,0-1.27.89,3.62,3.62,0,0,0-.41,1.85V77a1.88,1.88,0,0,0,.49,1.21,1.8,1.8,0,0,0,1.19.52H91a.2.2,0,0,1,.22.22v2.41a.2.2,0,0,1-.22.22H85.4a5,5,0,0,1-1.16-.13,5.12,5.12,0,0,1-.88-.27,3.92,3.92,0,0,1-1.49-1,5.4,5.4,0,0,1-1.07-1.65,3.47,3.47,0,0,1-.22-.65,3.56,3.56,0,0,1-.11-1Z"/><path class="cls-4" d="M92.48,73.74c0-.86,0-1.61,0-2.24A9.81,9.81,0,0,1,92.63,70c.12-.57.24-1.08.37-1.53a3.33,3.33,0,0,1,.53-1.12,4.56,4.56,0,0,1,1.09-1,4.67,4.67,0,0,1,1.4-.6,8,8,0,0,1,1.39-.13c.56,0,1.24,0,2,0s1.47,0,2,0a7.88,7.88,0,0,1,1.38.13,4.54,4.54,0,0,1,2.5,1.6,3.33,3.33,0,0,1,.52,1.12c.14.45.26,1,.38,1.53a11.22,11.22,0,0,1,.13,1.53c0,.63,0,1.38,0,2.24v.13c0,.86,0,1.61,0,2.24a11.37,11.37,0,0,1-.13,1.53c-.12.57-.24,1.08-.38,1.53a3.33,3.33,0,0,1-.52,1.12,4.54,4.54,0,0,1-2.5,1.6,7.88,7.88,0,0,1-1.38.13c-.57,0-1.25,0-2,0s-1.47,0-2,0A8,8,0,0,1,96,81.89a4.67,4.67,0,0,1-1.4-.6,4.56,4.56,0,0,1-1.09-1A3.33,3.33,0,0,1,93,79.17c-.13-.45-.25-1-.37-1.53a9.93,9.93,0,0,1-.13-1.53c0-.63,0-1.38,0-2.24Zm5.67-5.12a4.9,4.9,0,0,0-1.05.15,1.68,1.68,0,0,0-1.12.77,3.64,3.64,0,0,0-.33,1.75v5A3.63,3.63,0,0,0,96,78.07a1.68,1.68,0,0,0,1.12.77,5.62,5.62,0,0,0,1.05.15q.61,0,1.29,0c.45,0,.88,0,1.3,0a5.88,5.88,0,0,0,1.05-.15,1.66,1.66,0,0,0,1.11-.77,3.63,3.63,0,0,0,.33-1.74v-5a3.64,3.64,0,0,0-.33-1.75,1.66,1.66,0,0,0-1.11-.77,5.09,5.09,0,0,0-1.05-.15c-.42,0-.85,0-1.3,0S98.56,68.6,98.15,68.62Z"/><path class="cls-5" d="M24.54,86.68a.15.15,0,0,1,.17-.17h5.6a3.94,3.94,0,0,1,1.66.31,2.71,2.71,0,0,1,1.11.85A3.51,3.51,0,0,1,33.69,89a6.67,6.67,0,0,1,.19,1.65,6.83,6.83,0,0,1-.19,1.69,3.51,3.51,0,0,1-.61,1.29,2.69,2.69,0,0,1-1.11.84,4.29,4.29,0,0,1-1.66.29h-3c-.12,0-.18.06-.18.17v4c0,.11-.06.17-.18.17H24.71a.15.15,0,0,1-.17-.17V86.68Zm2.72,2.11c-.12,0-.18.06-.18.17v3.3a.16.16,0,0,0,.18.18H30.6a.66.66,0,0,0,.51-.22,1.51,1.51,0,0,0,.27-.52,3.16,3.16,0,0,0,.11-.6c0-.21,0-.37,0-.49s0-.27,0-.48a3,3,0,0,0-.11-.6,1.43,1.43,0,0,0-.27-.52.63.63,0,0,0-.51-.22Z"/><path class="cls-5" d="M42.25,97v1.93c0,.11-.06.17-.18.17H36.78a2.94,2.94,0,0,1-2.07-.86A3.32,3.32,0,0,1,34.1,96V86.68a.15.15,0,0,1,.17-.17h2.19c.12,0,.18.06.18.17v9.55c0,.38.22.57.68.57h4.75A.16.16,0,0,1,42.25,97Z"/><path class="cls-5" d="M46.3,87.55a1.2,1.2,0,0,1,.77-.87,5.54,5.54,0,0,1,1.52-.17,5.92,5.92,0,0,1,1.58.17,1.18,1.18,0,0,1,.77.87L54.47,99c0,.07,0,.1-.12.1h-2.3a.22.22,0,0,1-.23-.16l-.93-3a.21.21,0,0,0-.23-.17H46.54a.21.21,0,0,0-.22.19l-.93,3a.23.23,0,0,1-.23.17H42.88c-.1,0-.14,0-.14-.1Zm2.51,1.56a2.25,2.25,0,0,0-.09-.26.15.15,0,0,0-.13-.06c-.05,0-.12.1-.19.32l-1.23,4v.06a0,0,0,0,0,0,0c0,.08,0,.12.14.12h2.61c.09,0,.14,0,.14-.12a0,0,0,0,0,0,0s0,0,0-.06Z"/><path class="cls-5" d="M58.13,93.86A5.47,5.47,0,0,1,57,93.72a2.84,2.84,0,0,1-1.13-.55,2.14,2.14,0,0,1-.5-.58,3.28,3.28,0,0,1-.33-.74,4.36,4.36,0,0,1-.2-.81,5.52,5.52,0,0,1-.06-.81v-.34a1.1,1.1,0,0,1,0-.31,3.25,3.25,0,0,1,1.14-2.37,4,4,0,0,1,.73-.47,1.88,1.88,0,0,1,.86-.23h5.81a.15.15,0,0,1,.17.17v1.93c0,.12-.06.18-.17.18H58.26a.59.59,0,0,0-.45.22,1.64,1.64,0,0,0-.29.41.93.93,0,0,0-.1.35c0,.12,0,.23,0,.35a5.78,5.78,0,0,0,0,.58,1,1,0,0,0,.25.53.83.83,0,0,0,.53.22,5.86,5.86,0,0,0,.75,0h2a4.64,4.64,0,0,1,1.14.15,2.8,2.8,0,0,1,1.11.57,2.11,2.11,0,0,1,.5.6,4.25,4.25,0,0,1,.33.75,4.66,4.66,0,0,1,.19.84,8.21,8.21,0,0,1,0,.84v.37a1.39,1.39,0,0,1,0,.3,3.56,3.56,0,0,1-1.13,2.45,3.85,3.85,0,0,1-.73.48,1.66,1.66,0,0,1-.81.24H55.15a.15.15,0,0,1-.17-.17V97c0-.12.06-.18.17-.18H60.8a.56.56,0,0,0,.46-.25,2.41,2.41,0,0,0,.28-.47,1,1,0,0,0,.1-.36c0-.12,0-.24,0-.37s0-.38,0-.59a1.06,1.06,0,0,0-.25-.55.93.93,0,0,0-.5-.27,2.91,2.91,0,0,0-.76-.08Z"/><path class="cls-5" d="M69.5,98.91c0,.11-.06.17-.18.17H67.13a.15.15,0,0,1-.17-.17V89c0-.11-.06-.17-.18-.17H63.92c-.12,0-.17-.06-.17-.18V86.68a.15.15,0,0,1,.17-.17h8.61c.12,0,.18.06.18.17v1.93a.16.16,0,0,1-.18.18H69.67a.15.15,0,0,0-.17.17Z"/><path class="cls-5" d="M73.23,86.51h2.19c.12,0,.18.06.18.17V98.91c0,.11-.06.17-.18.17H73.23a.15.15,0,0,1-.17-.17V86.68A.15.15,0,0,1,73.23,86.51Z"/><path class="cls-5" d="M76,90.42A4.69,4.69,0,0,1,76.16,89a2.23,2.23,0,0,1,.29-.66,5,5,0,0,1,.38-.5,3.82,3.82,0,0,1,2.91-1.33h4.64c.12,0,.18.06.18.17v1.93a.16.16,0,0,1-.18.18H79.84a1.44,1.44,0,0,0-1,.71A2.82,2.82,0,0,0,78.49,91v4.44a1.57,1.57,0,0,0,.4,1,1.38,1.38,0,0,0,1,.41h4.54a.16.16,0,0,1,.18.18v1.93c0,.11-.06.17-.18.17H79.9A4.19,4.19,0,0,1,79,99a5.33,5.33,0,0,1-.7-.22,3.05,3.05,0,0,1-1.2-.8,4.62,4.62,0,0,1-.86-1.33,3.34,3.34,0,0,1-.17-.51,3,3,0,0,1-.09-.8Z"/><path class="cls-5" d="M85.24,92.79c0-.69,0-1.29,0-1.79a7.65,7.65,0,0,1,.11-1.23c.09-.45.19-.86.29-1.23a2.73,2.73,0,0,1,.43-.89,3.53,3.53,0,0,1,.87-.8,3.45,3.45,0,0,1,1.12-.48,7.25,7.25,0,0,1,1.11-.11h3.26a7.12,7.12,0,0,1,1.11.11,3.45,3.45,0,0,1,1.12.48,3.53,3.53,0,0,1,.87.8,2.73,2.73,0,0,1,.43.89c.1.37.2.78.29,1.23A7.65,7.65,0,0,1,96.38,91c0,.5,0,1.1,0,1.79v.1c0,.69,0,1.29,0,1.79a7.65,7.65,0,0,1-.11,1.23c-.09.45-.19.86-.29,1.23a2.73,2.73,0,0,1-.43.89,3.53,3.53,0,0,1-.87.8,3.45,3.45,0,0,1-1.12.48,6.07,6.07,0,0,1-1.11.11H89.19a6.17,6.17,0,0,1-1.11-.11A3.45,3.45,0,0,1,87,98.83a3.53,3.53,0,0,1-.87-.8,2.73,2.73,0,0,1-.43-.89c-.1-.37-.2-.78-.29-1.23a7.65,7.65,0,0,1-.11-1.23c0-.5,0-1.1,0-1.79Zm4.54-4.1a4.7,4.7,0,0,0-.84.12,1.3,1.3,0,0,0-.89.62,2.84,2.84,0,0,0-.26,1.39v4a2.84,2.84,0,0,0,.26,1.39,1.3,1.3,0,0,0,.89.62,4.7,4.7,0,0,0,.84.12l1,0,1,0a4.69,4.69,0,0,0,.85-.12,1.3,1.3,0,0,0,.89-.62,3,3,0,0,0,.26-1.39v-4a3,3,0,0,0-.26-1.39,1.3,1.3,0,0,0-.89-.62,4.69,4.69,0,0,0-.85-.12c-.32,0-.67,0-1,0S90.11,88.67,89.78,88.69Z"/><path class="cls-5" d="M100.32,93.86a5.47,5.47,0,0,1-1.16-.14A2.84,2.84,0,0,1,98,93.17a2.14,2.14,0,0,1-.5-.58,3.82,3.82,0,0,1-.34-.74A5.31,5.31,0,0,1,97,91a5.52,5.52,0,0,1-.06-.81v-.34a1.63,1.63,0,0,1,0-.31,3.32,3.32,0,0,1,1.14-2.37,4.51,4.51,0,0,1,.74-.47,1.88,1.88,0,0,1,.86-.23h5.8c.12,0,.18.06.18.17v1.93a.16.16,0,0,1-.18.18h-5.06A.58.58,0,0,0,100,89a1.64,1.64,0,0,0-.29.41.93.93,0,0,0-.1.35,2.06,2.06,0,0,0,0,.35,5.78,5.78,0,0,0,0,.58,1,1,0,0,0,.25.53.83.83,0,0,0,.53.22,5.86,5.86,0,0,0,.75,0h2a4.64,4.64,0,0,1,1.14.15,2.8,2.8,0,0,1,1.11.57,2.28,2.28,0,0,1,.5.6,4.25,4.25,0,0,1,.33.75,3.93,3.93,0,0,1,.18.84,6.15,6.15,0,0,1,.06.84v.37a1.36,1.36,0,0,1,0,.3,3.52,3.52,0,0,1-1.12,2.45,3.85,3.85,0,0,1-.73.48,1.69,1.69,0,0,1-.81.24H97.34a.15.15,0,0,1-.17-.17V97c0-.12.06-.18.17-.18H103a.56.56,0,0,0,.46-.25,2.41,2.41,0,0,0,.28-.47,1.3,1.3,0,0,0,.1-.36c0-.12,0-.24,0-.37a4.08,4.08,0,0,0,0-.59.9.9,0,0,0-.74-.82,2.91,2.91,0,0,0-.76-.08Z"/></g></g></svg>