<svg xmlns="http://www.w3.org/2000/svg" viewBox="0 0 165 165"><defs><style>.cls-1{fill:#fff;}.cls-2{fill:#e2041d;}.cls-3{fill:#fffefe;}</style></defs><g id="Capa_2" data-name="Capa 2"><g id="Capa_1-2" data-name="Capa 1"><rect class="cls-1" width="165" height="165"/><path class="cls-2" d="M46,55.88h.55c.82,2.95,1.72,5.88,2.49,8.84-1.19-2.93-2.35-5.87-3.53-8.8l.49,0Z"/><path class="cls-2" d="M50.1,56l.92.17c.23,2,.47,4,.7,6,.06.6.17,1.21.17,1.82-.58-2.68-1.19-5.35-1.79-8Z"/><path class="cls-2" d="M40.73,56.8l1.11-.3c1.35,2.82,2.65,5.66,4,8.49.13.28.26.56.37.86-1.86-3-3.64-6-5.47-9Z"/><path class="cls-2" d="M54.57,56.94l.74.25c-.09,1.7-.16,3.41-.25,5.11a7.83,7.83,0,0,1-.14,1.45c0-2.27-.23-4.54-.35-6.81Z"/><path class="cls-2" d="M36.17,58.66a9.75,9.75,0,0,1,1.12-.56c1.85,2.73,3.72,5.44,5.58,8.17a9.71,9.71,0,0,1,.78,1.22q-3.74-4.41-7.48-8.83Z"/><path class="cls-2" d="M58.54,58.59l.54.31c-.37,1.72-.75,3.44-1.08,5.16.09-1.83.35-3.65.54-5.47Z"/><path class="cls-2" d="M32,61.47c.34-.29.69-.56,1.05-.83,2.79,2.93,5.57,5.88,8.38,8.79v.14l-.33-.33L32,61.47Z"/><path class="cls-2" d="M60.9,64.75c.28-1.34.71-2.65,1.05-4l.38.28c-.48,1.23-1,2.46-1.43,3.69Z"/><path class="cls-2" d="M63.7,65.82c.32-.85.75-1.67,1.11-2.51l.26.22c-.46.76-.88,1.55-1.37,2.29Z"/><path class="cls-2" d="M28.4,65.11c.29-.36.59-.71.9-1.06,3.11,2.34,6.2,4.7,9.3,7,.31.24.63.46.91.72-3.73-2.2-7.4-4.49-11.11-6.71Z"/><path class="cls-2" d="M67.13,66.06l.15.17c-.35.42-.68.85-1.06,1.24.27-.49.62-.93.91-1.41Z"/><path class="cls-2" d="M26.26,68.17c3.92,2.09,7.85,4.15,11.76,6.26a9.75,9.75,0,0,1-1-.35c-3.84-1.56-7.69-3.1-11.52-4.67.23-.42.46-.84.71-1.24Z"/><path class="cls-2" d="M44.52,72.86a6.2,6.2,0,0,1,5.54-2.49A6.07,6.07,0,0,1,54,72.14a6.32,6.32,0,0,1,1.74,4.18c-1.32,0-2.65,0-4,0a3.25,3.25,0,0,0-.72-1.49,2.19,2.19,0,0,0-3.33.26,2,2,0,0,0-.22,2,3,3,0,0,0,1.28,1.14c1.27.62,2.58,1.13,3.87,1.71A6.06,6.06,0,0,1,55.83,83a7.38,7.38,0,0,1,.07,4.34,6.22,6.22,0,0,1-3.82,4.11A6.93,6.93,0,0,1,45.82,91a6.48,6.48,0,0,1-3.13-5.34h4.07a2.88,2.88,0,0,0,1,2,3.06,3.06,0,0,0,4.62-1.88,2.3,2.3,0,0,0-.17-1.63,2.81,2.81,0,0,0-1.28-.85c-2-.92-4.17-1.53-5.81-3a4.93,4.93,0,0,1-1.53-2.91,5.75,5.75,0,0,1,.92-4.57Z"/><path class="cls-2" d="M121.16,70.73H125c0,6.92,0,13.84,0,20.77h-3.45c0-.72,0-1.45,0-2.17a6.28,6.28,0,0,1-4,2.52,6.57,6.57,0,0,1-4.67-.74,8.41,8.41,0,0,1-4.29-6.34,8.9,8.9,0,0,1,.83-5,8,8,0,0,1,8.28-4.34,6.87,6.87,0,0,1,3.43,1.94c0-2.23,0-4.46,0-6.69Z"/><path class="cls-2" d="M24,72.86Q30.49,75,37,77.25c-.47-.06-.93-.18-1.39-.28l-12-2.74c.16-.46.31-.91.46-1.37Z"/><path class="cls-2" d="M64.31,75.51a7.87,7.87,0,0,1,5.4,1.27,8.57,8.57,0,0,1,3.58,4.86,8.19,8.19,0,0,1-.72,6,8.51,8.51,0,0,1-3.95,3.71,8.24,8.24,0,0,1-10.87-4.07A8.17,8.17,0,0,1,60,77.34a9,9,0,0,1,4.29-1.83Z"/><path class="cls-2" d="M77,77.47a8.26,8.26,0,0,1,6.38-2,8.13,8.13,0,0,1,6.86,5.7H86a3.62,3.62,0,0,0-1.65-1.63,5.79,5.79,0,0,0-2.67-.38,3.92,3.92,0,0,0-3,2.1A6,6,0,0,0,77.94,84a4.69,4.69,0,0,0,2.43,3.79,4.55,4.55,0,0,0,3.29.39A4.27,4.27,0,0,0,86,86.38h4.28a7.69,7.69,0,0,1-3.59,4.48A7.61,7.61,0,0,1,81.89,92,8.64,8.64,0,0,1,76,88.81a7.58,7.58,0,0,1-1.75-5.66A8.66,8.66,0,0,1,77,77.47Z"/><path class="cls-2" d="M98.69,75.5a8.41,8.41,0,0,1,8.9,5.81,8.29,8.29,0,0,1-.48,6,8.53,8.53,0,0,1-4.19,4,8.34,8.34,0,0,1-6.66,0,8.46,8.46,0,0,1-4.92-8,8.79,8.79,0,0,1,2.12-5.16,9.42,9.42,0,0,1,5.23-2.65Z"/><path class="cls-2" d="M130,76.54a8.07,8.07,0,0,1,6.41-.68A5.12,5.12,0,0,1,139.29,78V75.91h3.35V91.5h-3.35V89.41A7.08,7.08,0,0,1,132,91.79a7.27,7.27,0,0,1-4.59-3.48,9.5,9.5,0,0,1-.88-7.14A7.53,7.53,0,0,1,130,76.54Z"/><path class="cls-2" d="M22.71,77.91c4.54.74,9.08,1.55,13.63,2.26a14.12,14.12,0,0,1-2-.06c-4-.24-7.91-.51-11.87-.73a12.32,12.32,0,0,1,.19-1.47Z"/><path class="cls-3" d="M64.17,79.25a4.54,4.54,0,0,1,3.85,1,4.87,4.87,0,0,1,1.17,5.65,4.39,4.39,0,0,1-5.36,2.27,4.67,4.67,0,0,1-2.37-6.93,4,4,0,0,1,2.71-1.94Z"/><path class="cls-3" d="M98.55,79.25a4.56,4.56,0,0,1,3.71.82,4.85,4.85,0,0,1,1.14,6.13,4.41,4.41,0,0,1-5.18,1.91,4.66,4.66,0,0,1-2.93-5.61,4.33,4.33,0,0,1,3.26-3.25Z"/><path class="cls-3" d="M115.79,79.24A4.58,4.58,0,0,1,121,81.8a4.7,4.7,0,0,1-3.92,6.48,4.35,4.35,0,0,1-3.7-1.69,5,5,0,0,1-1-3.55,4.69,4.69,0,0,1,3.43-3.8Z"/><path class="cls-3" d="M133.48,79.25a4.92,4.92,0,0,1,3.33.4,4.42,4.42,0,0,1,2.25,3,5,5,0,0,1-1,4.17,4.68,4.68,0,0,1-7.81-1.33,5,5,0,0,1,.28-4,4.57,4.57,0,0,1,2.91-2.16Z"/><path class="cls-2" d="M22.36,83.14l13.9.07c-.75.13-1.51.18-2.27.25-3.86.39-7.72.76-11.58,1.16,0-.2,0-.41-.05-.61v-.87Z"/><path class="cls-2" d="M35.68,86.34c.27,0,.54-.07.82-.09-4.4,1.2-8.81,2.35-13.22,3.52q-.18-.7-.33-1.41c4.24-.69,8.49-1.34,12.73-2Z"/><path class="cls-2" d="M24.5,93.34c4.32-1.42,8.64-2.85,13-4.25-.39.22-.81.4-1.22.58l-11.16,5c-.2-.44-.4-.88-.59-1.32Z"/><path class="cls-2" d="M37.69,92.35a10.84,10.84,0,0,1,1-.5c-3.62,2.43-7.29,4.8-10.94,7.22-.28-.38-.55-.76-.82-1.16q5.37-2.77,10.73-5.56Z"/><path class="cls-2" d="M74.17,94.17h.74v5.52h2.47v.7c-1.07,0-2.14,0-3.21,0V94.17Z"/><path class="cls-2" d="M85.41,94.17h.7v6.22h-.64l0-.47a1.22,1.22,0,0,1-2,0A4.26,4.26,0,0,1,83,97.33a1.9,1.9,0,0,1,.88-1.59,1.37,1.37,0,0,1,1.5.29c0-.62,0-1.24,0-1.86Z"/><path class="cls-2" d="M109,94.17h.71V95H109v-.87Z"/><path class="cls-2" d="M123.07,94.17h.67v6.22h-.67V94.17Z"/><path class="cls-2" d="M30.23,101.89q5.1-3.81,10.22-7.59a12.07,12.07,0,0,1-1,.93c-2.76,2.53-5.51,5.07-8.28,7.59-.34-.29-.66-.61-1-.93Z"/><path class="cls-2" d="M112.77,94.17h.7v6.22h-.64c0-.15,0-.3,0-.46a1.24,1.24,0,0,1-2.08,0,4.35,4.35,0,0,1-.4-2.44,2.11,2.11,0,0,1,.76-1.67,1.35,1.35,0,0,1,1.66.25c0-.63,0-1.26,0-1.89Z"/><path class="cls-2" d="M78.41,95.87a1.4,1.4,0,0,1,2,.32,3.53,3.53,0,0,1,.29,1.93H78.48a3.23,3.23,0,0,0,.23,1.48.65.65,0,0,0,1,.2,1.57,1.57,0,0,0,.35-1h.66A2.38,2.38,0,0,1,80.4,100a1.4,1.4,0,0,1-2.29-.08,4.58,4.58,0,0,1-.32-2.29,2.6,2.6,0,0,1,.62-1.74Z"/><path class="cls-2" d="M87.27,95.91a1.87,1.87,0,0,1,1.66-.21,1,1,0,0,1,.64,1c.05,1,0,2,0,2.92,0,.23.18.3.37.32v.5c-.43.1-.94,0-1-.52a1.16,1.16,0,0,1-1.91.21,1.81,1.81,0,0,1,0-1.79c.42-.51,1.14-.55,1.67-.89.3-.19.21-.59.18-.89s-.65-.43-1-.3-.3.5-.37.77h-.63a1.79,1.79,0,0,1,.38-1.1Z"/><path class="cls-2" d="M91.09,96.23a1.33,1.33,0,0,1,2.23,0c.5-.81,2.05-.85,2.32.16.09,1.33,0,2.67,0,4H95c0-1.11,0-2.21,0-3.31,0-.27,0-.61-.29-.77a.89.89,0,0,0-1.25.76c0,1.1,0,2.21,0,3.32h-.7c0-1.06,0-2.12,0-3.18,0-.32,0-.7-.31-.89a.91.91,0,0,0-1.28.74c0,1.11,0,2.22,0,3.33h-.67V95.74h.64c0,.17,0,.33,0,.49Z"/><path class="cls-2" d="M97.46,95.68a1.63,1.63,0,0,1,1.66.38,2.66,2.66,0,0,1,.5,1.69,3.79,3.79,0,0,1-.39,2.2,1.59,1.59,0,0,1-1.82.49,1.54,1.54,0,0,1-1-1.29,5.54,5.54,0,0,1,.08-2.43,1.43,1.43,0,0,1,.94-1Z"/><path class="cls-2" d="M101,95.72a1.65,1.65,0,0,1,1.76.3,1.79,1.79,0,0,1,.3,1h-.66a1.06,1.06,0,0,0-.32-.7,1,1,0,0,0-1,.09.7.7,0,0,0,.1,1c.58.33,1.37.33,1.77.93a1.46,1.46,0,0,1-.65,2.06,1.85,1.85,0,0,1-1.75-.21,1.55,1.55,0,0,1-.37-1.21h.63c.05.24,0,.55.23.72a1,1,0,0,0,1,.14.7.7,0,0,0,.19-1.16c-.52-.42-1.28-.43-1.74-.94a1.4,1.4,0,0,1,.5-2Z"/><path class="cls-2" d="M115,95.69c.65-.18,1.66-.15,1.87.64a30.61,30.61,0,0,1,.08,3.32c0,.22.24.21.37.29v.48c-.43.11-.94,0-1-.51a1.2,1.2,0,0,1-1.82.33,1.78,1.78,0,0,1-.13-1.88c.45-.61,1.36-.54,1.85-1.08.15-.39.1-1.06-.43-1.09a.72.72,0,0,0-.88.83h-.61a1.24,1.24,0,0,1,.73-1.33Z"/><path class="cls-2" d="M120,95.84a1.91,1.91,0,0,1,1.5-.16,1,1,0,0,1,.7,1c0,1,0,2,0,2.93,0,.21.19.28.36.31v.5c-.43.09-.95,0-1-.53a1.22,1.22,0,0,1-1.71.44,1.68,1.68,0,0,1-.36-1.77c.31-.74,1.22-.75,1.82-1.14.26-.16.17-.5.18-.76,0-.48-.62-.58-1-.42s-.33.49-.4.77h-.63c.06-.42.1-.92.49-1.17Z"/><path class="cls-2" d="M126.86,95.76a2,2,0,0,1,1.67,0c.56.41.4,1.2.43,1.81a14.93,14.93,0,0,0,.06,2.22l.31.1v.49a.82.82,0,0,1-1.05-.5,1.16,1.16,0,0,1-1.9.18,2,2,0,0,1-.12-1.55c.3-.71,1.18-.74,1.76-1.1.33-.18.24-.6.22-.91s-.61-.42-.93-.32-.36.5-.42.79h-.63c0-.46.12-1,.6-1.25Z"/><path class="cls-2" d="M130.1,96.21a1.48,1.48,0,0,1,2.36,0,1.88,1.88,0,0,1,.26,1h-.66a1.72,1.72,0,0,0-.22-.74.71.71,0,0,0-1.17.14,3.34,3.34,0,0,0-.21,1.4,3.57,3.57,0,0,0,.21,1.49.7.7,0,0,0,1,.28c.33-.24.34-.7.39-1.07h.66a1.84,1.84,0,0,1-.6,1.54,1.47,1.47,0,0,1-2-.3,3.46,3.46,0,0,1-.4-1.67,3.91,3.91,0,0,1,.38-2.08Z"/><path class="cls-2" d="M133.84,96a1.38,1.38,0,0,1,2.22.26,4.32,4.32,0,0,1,.24,1.82h-2.23a3.11,3.11,0,0,0,.24,1.51.65.65,0,0,0,1,.16,1.49,1.49,0,0,0,.33-1h.67A2.24,2.24,0,0,1,136,100a1.39,1.39,0,0,1-2.26-.15,4.53,4.53,0,0,1-.32-2.13,3.13,3.13,0,0,1,.47-1.71Z"/><path class="cls-2" d="M137.6,96.39a1.3,1.3,0,0,1,1.39-.76c0,.24,0,.48,0,.72a1,1,0,0,0-1.29.85c-.06,1.07,0,2.13,0,3.19H137V95.74h.64c0,.22,0,.44,0,.65Z"/><path class="cls-2" d="M140.28,95.67a1.6,1.6,0,0,1,1.7.46,3.59,3.59,0,0,1,.45,2,3.09,3.09,0,0,1-.53,2,1.72,1.72,0,0,1-1.79.3,1.55,1.55,0,0,1-.89-1.29,5.79,5.79,0,0,1,.06-2.31,1.46,1.46,0,0,1,1-1.14Z"/><path class="cls-2" d="M105.22,95.74H106c.3,1.18.59,2.35.88,3.53.34-1.16.63-2.34.93-3.51l.73,0c-.43,1.56-.86,3.11-1.3,4.66h-.74c-.4-1.55-.84-3.1-1.24-4.65Z"/><path class="cls-2" d="M109,95.74h.71c0,1.55,0,3.1,0,4.65H109c0-1.55,0-3.1,0-4.66Z"/><path class="cls-3" d="M78.87,96.31a.66.66,0,0,1,.95.17A2.6,2.6,0,0,1,80,97.55H78.47c0-.43,0-1,.4-1.24Z"/><path class="cls-3" d="M134.49,96.3a.63.63,0,0,1,.9.16,2.67,2.67,0,0,1,.24,1.09h-1.57c.05-.43,0-1,.43-1.25Z"/><path class="cls-3" d="M84.33,96.3a.73.73,0,0,1,1,.44A5.11,5.11,0,0,1,85.39,99a1,1,0,0,1-.48.8.7.7,0,0,1-1-.37,4.58,4.58,0,0,1-.19-2c0-.43.13-1,.57-1.19Z"/><path class="cls-3" d="M97.59,96.31a.8.8,0,0,1,1.09.32,3.84,3.84,0,0,1,.21,1.65,3.07,3.07,0,0,1-.22,1.27.79.79,0,0,1-1.39-.06,4.55,4.55,0,0,1-.19-1.87c0-.46.06-1,.5-1.31Z"/><path class="cls-3" d="M111.64,96.32a.72.72,0,0,1,1,.38,3.94,3.94,0,0,1,.18,1.45,2.83,2.83,0,0,1-.3,1.46.71.71,0,0,1-1.15,0,4,4,0,0,1-.27-2c0-.45.1-1,.54-1.28Z"/><path class="cls-3" d="M140.39,96.3a.81.81,0,0,1,1.16.53,5.06,5.06,0,0,1-.05,2.62.79.79,0,0,1-1.43,0,4.8,4.8,0,0,1-.17-2.16,1.28,1.28,0,0,1,.49-1Z"/><path class="cls-2" d="M38,101.11c1.52-1.53,3-3.12,4.52-4.62-2.41,3.12-4.87,6.2-7.31,9.3-.37-.22-.73-.44-1.09-.68,1.27-1.35,2.6-2.66,3.88-4Z"/><path class="cls-2" d="M67.44,96.54c.29.27.72.5.8.93a5,5,0,0,1-.8-.93Z"/><path class="cls-3" d="M127.18,98.47c.36-.19.76-.31,1.12-.52a3.12,3.12,0,0,1-.26,1.66c-.26.37-.95.44-1.14,0a.93.93,0,0,1,.28-1.1Z"/><path class="cls-3" d="M87.82,98.46c.36-.19.76-.31,1.11-.5,0,.56.09,1.23-.31,1.7a.64.64,0,0,1-1.07-.07.93.93,0,0,1,.27-1.13Z"/><path class="cls-3" d="M115,98.59a9.21,9.21,0,0,1,1.26-.62,8.52,8.52,0,0,1,0,1.24.82.82,0,0,1-1.09.64,1,1,0,0,1-.13-1.26Z"/><path class="cls-3" d="M120.46,98.45c.35-.18.72-.3,1.07-.48a3.11,3.11,0,0,1-.21,1.6c-.23.38-.92.5-1.14.05a.91.91,0,0,1,.28-1.17Z"/><path class="cls-2" d="M38.56,107.42c2.14-3,4.24-6.11,6.4-9.14-1.71,3.19-3.49,6.36-5.26,9.52a5.27,5.27,0,0,1-1.14-.38Z"/><path class="cls-2" d="M65,98.28c.46.56.85,1.17,1.29,1.75l-.18.23c-.37-.66-.77-1.3-1.11-2Z"/><path class="cls-2" d="M46.81,101.34c.28-.53.5-1.1.82-1.62-1.08,3.08-2.2,6.15-3.31,9.21l-1.08-.17,3.57-7.42Z"/><path class="cls-2" d="M63.49,102.9c-.34-1.06-.86-2.08-1.11-3.17.45,1,1,2,1.43,2.94l-.32.23Z"/><path class="cls-2" d="M59.44,100.65c.54,1.43.91,2.91,1.38,4.36l-.45.29c-.32-1.55-.61-3.1-.93-4.65Z"/><path class="cls-2" d="M50.45,100.73c0,.23,0,.46-.08.69-.48,2.55-1,5.11-1.43,7.66l-.69,0H48c.84-2.79,1.65-5.6,2.49-8.39Z"/><path class="cls-2" d="M52.5,108.59c.33-2.5.6-5,1-7.5l-.18,7.29-.81.21Z"/><path class="cls-2" d="M56.54,101.09c.18,2,.52,3.92.77,5.88l-.62.28c-.07-1.2-.09-2.41-.14-3.61a21.69,21.69,0,0,1,0-2.55Z"/></g></g></svg>