<svg xmlns="http://www.w3.org/2000/svg" viewBox="0 0 165 165"><defs><style>.cls-1{fill:#fff;}.cls-2{fill:#222221;}</style></defs><g id="Capa_2" data-name="Capa 2"><g id="Capa_1-2" data-name="Capa 1"><rect class="cls-1" width="165" height="165"/><path class="cls-2" d="M88.74,59.37a6.86,6.86,0,0,1-4.22,1.06c-2.08,0-2.7-.08-2.82-.21a3.27,3.27,0,0,1-.12-1.35V49.31c0-1.15.12-1.31,2.66-1.31,4.54,0,6.54,3.06,6.54,6.29,0,2.79-.94,4.22-2,5.08m-10.5,1.54a16.27,16.27,0,0,0-2.57-1.86l-3.27-2c-1.52-.9-3.48-2.55-3.48-4.83,0-1.8.86-4.35,4.87-4.35.46,0,1.9.24,1.9.24a4.62,4.62,0,0,1,2.48,1.65c.07,1.5.08,6.5.07,11.11m22.44,12.81c.37-.36,0-.59-.58-.64C98.67,73,97.67,71.77,97,71.17a30,30,0,0,1-3.56-4.33c-1.17-1.65-2.41-3-3.87-5.35-.2-.32-.4-.73-.2-1,2-.82,5.11-2.94,5.11-6.83A6.09,6.09,0,0,0,91.11,48a14.4,14.4,0,0,0-6.83-1.23c-3.07,0-9.71,0-11,.06C70,47,66.5,48.48,66.06,53.44c-.29,3.21,2.37,5.46,4.41,6.75l3.89,2.43c3,1.85,3.35,3.77,3.35,5.5,0,2.35-1.67,4.51-5.11,4.51-4.74,0-6.42-3.84-7-5.85-.17-.23-.78-.15-1,.12a17.52,17.52,0,0,0,1.1,5.5,8.84,8.84,0,0,0,1.94,1.08,6.7,6.7,0,0,0,1.82.4H85a1.24,1.24,0,0,0-.11-.94L84,72.82c-2.37-.33-2.45-.82-2.45-5.11V62.56c0-.86.08-.9,1.92-.9,1.64,0,2.29.4,2.9,1.3,1.27,1.84,2.95,4.06,4,5.58,2.19,3.1,4.26,5,7.13,5.34h2c.35,0,.71-.08,1.09-.16"/><path class="cls-2" d="M142.29,107.14h-8.67a.64.64,0,0,1,0-.83l1-.1c.76-.08,1.26-.29,1.26-.65s-2-6.81-2-6.81c-.22-.7-.36-.87-1.13-.9h-6.22c-.55,0-.73.23-.94.85,0,0-2,6.38-2,6.78s.18.64,1,.72l1.19.1a.6.6,0,0,1,0,.83h-7.39a.74.74,0,0,1,0-.83l1.19-.1a2.42,2.42,0,0,0,2.16-1.77c.65-1.66,6.85-17.77,6.85-17.77a5.17,5.17,0,0,0,.61-2.56,4,4,0,0,0,1.87-1.37.51.51,0,0,1,.54.33c.47,1.58,1.05,3.24,1.59,4.83l4.94,14.49c1,3.1,1.51,3.64,3.06,3.82l1,.1a.72.72,0,0,1,.07.83m-71.09,0H54.1c-.12-.22-.13-.65,0-.76l.58-.07c2.12-.25,2.19-1.14,2.19-4.86V88.78c0-3.72-.07-4.25-2.19-4.5l-.58-.07c-.17-.12-.16-.54,0-.77h16a44.93,44.93,0,0,1,.54,4.63.68.68,0,0,1-.53.2.49.49,0,0,1-.37-.13c-.54-1.68-.86-2.93-2.74-3.4a17.31,17.31,0,0,0-3.49-.21H61c-1.08,0-1.08.07-1.08,1.43v7.5c0,1,.11,1,1.19,1,0,0,4.72-.07,5.15-.21s.69-.36.87-1.25l.29-1.47a.62.62,0,0,1,.46-.16.53.53,0,0,1,.47.19V99a.53.53,0,0,1-.47.19.62.62,0,0,1-.46-.15l-.29-1.47c-.18-.89-.43-1.11-.87-1.25s-5.15-.21-5.15-.21c-1.08,0-1.19,0-1.19,1v7.5c0,1.36,0,1.43,1.08,1.43h3.66a17.09,17.09,0,0,0,3.49-.22c1.88-.46,2.2-1.71,2.74-3.39a.5.5,0,0,1,.38-.13.64.64,0,0,1,.52.2,44.35,44.35,0,0,1-.54,4.62m-21.23,0H40.66a.72.72,0,0,1,.05-.75l.9-.11c1.28-.15,1.81-.4,2-1.39.15-.66.14-19-.11-19.61s-.82-.93-1.93-1l-.9-.08c-.18-.12-.16-.58,0-.8h9.25c.14.22.16.68,0,.8l-.9.08c-1.11.09-1.66.3-1.93,1s-.26,19-.11,19.61c.23,1,.76,1.24,2,1.39l.9.11a.74.74,0,0,1,0,.75m-20.53,0a13.1,13.1,0,0,1-5.85-1.24,15.14,15.14,0,0,1-1-4.84.74.74,0,0,1,.55-.23.38.38,0,0,1,.32.13c.54,1.76,2,5.15,6.2,5.15,3,0,4.5-1.9,4.5-4,0-1.52-.32-3.22-2.95-4.84L27.8,95.14C26,94,23.66,92,23.91,89.2c.44-4.85,4.15-5.9,7.33-5.9a21.75,21.75,0,0,1,4.64.6,14.77,14.77,0,0,1,.64,4.22.73.73,0,0,1-.56.22.45.45,0,0,1-.34-.11c-.47-1.66-1.44-3.91-4.9-3.91s-4.29,2.25-4.29,3.84c0,2,1.73,3.46,3.07,4.25l2.88,1.73c2.27,1.35,4.72,3.36,4.5,6.64-.33,5.06-4,6.36-7.44,6.36M83.15,84.58c-2.23,0-2.34.14-2.34,1.15v8.44a2.75,2.75,0,0,0,.11,1.18c.11.11.65.18,2.48.18a6.08,6.08,0,0,0,3.72-.93c1-.76,1.8-2,1.8-4.47,0-2.85-1.77-5.55-5.77-5.55m19.65,0c-2.23,0-2.34.14-2.34,1.15v8.44a2.75,2.75,0,0,0,.11,1.18c.11.11.65.18,2.49.18a6.07,6.07,0,0,0,3.71-.93c1-.76,1.8-2,1.8-4.47,0-2.85-1.77-5.55-5.77-5.55m27.1,2.56c-.11.18-3.14,8.4-3.14,8.4-.29.83-.25.86.76.86H132c1.05,0,1.12-.14.8-1.11,0,0-2.56-7.72-2.78-8.15h-.07m-26.46,20.14H94.29c-2.23-.48-3.93-2.08-5.7-4.6-.93-1.33-2.41-3.29-3.53-4.91a2.58,2.58,0,0,0-2.56-1.15c-1.62,0-1.69,0-1.69.79V102c0,3.78.07,4.22,2.16,4.51l.76.1a.73.73,0,0,1,.06.72H74.73a.72.72,0,0,1,.06-.72l.9-.1c1.73-.21,2.08-.57,2.15-2.82,0-.47.1-17.24-.07-17.85s-.7-.9-1.5-1l-1.16-.14a.6.6,0,0,1,0-.9c2-.18,4.51-.29,8-.29a12.79,12.79,0,0,1,6,1.08,5.38,5.38,0,0,1,3,5c0,3.42-2.71,5.3-4.51,6-.18.21,0,.57.18.86,1.29,2.07,2.38,3.26,3.41,4.71A25.59,25.59,0,0,0,94.42,105a5.61,5.61,0,0,0,1.86,1.28c.92-.28,1.15-.88,1.21-2.64,0-.47.1-17.24-.07-17.85s-.7-.9-1.5-1l-1.15-.14a.59.59,0,0,1,0-.9c2-.18,4.51-.29,8-.29a12.79,12.79,0,0,1,6,1.08,5.38,5.38,0,0,1,3,5c0,3.42-2.7,5.3-4.51,6-.18.21,0,.57.18.86,1.29,2.07,2.38,3.26,3.41,4.71a25.59,25.59,0,0,0,3.14,3.82,4.63,4.63,0,0,0,2.72,1.48c.54,0,.83.24.5.56a10.39,10.39,0,0,1-2,.21c-2.94,0-4.93-1.56-7-4.57-.94-1.33-2.42-3.29-3.54-4.91a2.57,2.57,0,0,0-2.56-1.15c-1.62,0-1.69,0-1.69.79V102c0,3.78.07,4.22,2.16,4.51l.76.1a.7.7,0,0,1,.06.72"/><path class="cls-2" d="M104.34,117.07a1.49,1.49,0,0,0-.82-1.26l-.52-.32a1,1,0,0,1-.56-.8.69.69,0,0,1,.78-.73.86.86,0,0,1,.89.74s.13,0,.16,0a2.87,2.87,0,0,0-.12-.8.69.69,0,0,1-.22,0,2.9,2.9,0,0,0-.61-.08c-.85,0-1.33.5-1.33,1.12a1.38,1.38,0,0,0,.7,1.12l.62.41a1,1,0,0,1,.54.91.74.74,0,0,1-.82.75,1.18,1.18,0,0,1-1.12-1s-.12,0-.16,0a3.09,3.09,0,0,0,.18.91,1.94,1.94,0,0,0,1,.24,1.23,1.23,0,0,0,1.39-1.2m-8.14.11c0,.69,0,.78-.4.83l-.16,0a.12.12,0,0,0,0,.16l.82,0,.81,0s.06-.14,0-.16l-.17,0c-.38-.05-.39-.14-.39-.83v-2.32c0-.7,0-.81.39-.84h.17s0-.15,0-.17c-.32,0-.54,0-.81,0s-.49,0-.82,0a.14.14,0,0,0,0,.17h.16c.39,0,.4.14.4.84Zm-7.72,0c0,.69,0,.78-.41.82l-.21,0a.12.12,0,0,0,0,.16l.89,0h.58l1.75,0a5.71,5.71,0,0,0,.3-.91.12.12,0,0,0-.17,0,1.55,1.55,0,0,1-.46.63,1.92,1.92,0,0,1-.84.1c-.57,0-.71-.07-.79-.15s-.12-.33-.12-.68v-.92c0-.17,0-.18.22-.18h.37a1.91,1.91,0,0,1,.51,0c.13,0,.17.13.2.24l.06.26a.12.12,0,0,0,.17,0c0-.14,0-.39,0-.62s0-.51,0-.66a.12.12,0,0,0-.17,0l-.05.27c0,.16-.08.2-.16.23a3.18,3.18,0,0,1-.56,0h-.37c-.2,0-.22,0-.22-.18v-1.3c0-.25,0-.26.2-.26h.47a2.66,2.66,0,0,1,.63,0c.34.08.4.31.49.62a.15.15,0,0,0,.17,0,8.4,8.4,0,0,0-.11-.87,8.54,8.54,0,0,1-.88,0H88.76c-.27,0-.49,0-.77,0,0,0-.06.14,0,.17h.11c.38,0,.4.14.4.82Zm-7.36.2a8.93,8.93,0,0,1,.3.87h.17c.11-.35.41-1.11.67-1.71l.36-.8a13.36,13.36,0,0,1,.73-1.5.4.4,0,0,1,.34-.23h.19a.15.15,0,0,0,0-.17c-.22,0-.42,0-.63,0s-.5,0-.68,0a.12.12,0,0,0,0,.17h.12c.23,0,.3.08.3.12a.78.78,0,0,1-.06.26c-.11.28-.42,1-.61,1.46s-.42,1-.63,1.45c-.32-.74-.62-1.5-.92-2.25a6.43,6.43,0,0,1-.33-.92s.06-.09.31-.12h.1a.12.12,0,0,0,0-.17c-.27,0-.5,0-.79,0a6.75,6.75,0,0,1-.68,0,.12.12,0,0,0,0,.17h.12c.28,0,.38.17.53.54Zm-7.3-4.33A.46.46,0,0,0,74,113a.36.36,0,0,0,0-.27.27.27,0,0,0-.19-.15.36.36,0,0,0-.17.08l-.92.75a.13.13,0,0,0,.06.16Zm-.74,5c-1.29,0-1.76-1.25-1.76-2.22,0-1.42.88-1.89,1.56-1.89,1.25,0,1.72,1.16,1.72,2.24,0,1.29-.74,1.87-1.52,1.87m-.09.2A2.22,2.22,0,0,0,75.26,116,2.15,2.15,0,0,0,73,113.76a2.26,2.26,0,0,0-2.32,2.3A2.19,2.19,0,0,0,73,118.27M62.3,114.92a2.47,2.47,0,0,1-.34-1.08c-.22,0-.39,0-.54,0a4.88,4.88,0,0,1-.52,0,.12.12,0,0,0,0,.17H61c.4,0,.45.15.44.56s0,.92-.07,1.46-.08,1-.11,1.43-.14.5-.41.54l-.14,0a.12.12,0,0,0,0,.16l.67,0,.72,0s0-.12,0-.16l-.25,0c-.26,0-.29-.13-.29-.61s0-1.13,0-1.53,0-.76.07-1.16h0c.14.3.28.64.42.94l.58,1.25a14.05,14.05,0,0,1,.58,1.31.08.08,0,0,0,.12,0c.12-.3.41-.91.71-1.49l.58-1.14c.13-.25.38-.78.42-.85h0l0,2.72c0,.42,0,.52-.32.56l-.18,0a.11.11,0,0,0,0,.16l.79,0,.77,0a.12.12,0,0,0,0-.16L66,118c-.3,0-.3-.2-.32-.53,0-.94-.06-2.15-.07-2.84,0-.46.05-.58.46-.62h.13a.14.14,0,0,0,0-.17c-.2,0-.42,0-.58,0a4.82,4.82,0,0,1-.49,0,3.94,3.94,0,0,1-.5,1.26L64,116.34c-.16.34-.33.68-.5,1h0l-.45-.89Z"/></g></g></svg>