<svg xmlns="http://www.w3.org/2000/svg" viewBox="0 0 165 165"><defs><style>.cls-1{fill:#4b5967;}.cls-2{fill:#fff;}</style></defs><g id="Capa_2" data-name="Capa 2"><g id="Capa_1-2" data-name="Capa 1"><rect class="cls-1" width="165" height="165"/><path class="cls-2" d="M34.82,94.28H32.09V92.42h7.56v1.86H36.93v9.88H34.82Z"/><path class="cls-2" d="M45.82,92.42h2.1V102h-2.1Z"/><path class="cls-2" d="M56.82,94.28H54.09V92.42h7.56v1.86H58.92V102h-2.1Z"/><path class="cls-2" d="M69.75,92.42h1.74L75.64,102H73.27l-.82-2H68.73l-.79,2H65.62Zm.81,2.78-1.16,3h2.33Z"/><path class="cls-2" d="M81.73,92.42h2.86l4.06,6.64h0V89.74h2.11V102H88l-4.17-6.8h0v9H81.73Z"/><path class="cls-2" d="M97.83,92.42h2.11V102H97.83Z"/><path class="cls-2" d="M115,98.29a4.6,4.6,0,0,1-.26,1.56,3.35,3.35,0,0,1-.76,1.24,3.46,3.46,0,0,1-1.26.83,5.43,5.43,0,0,1-3.5,0,3.46,3.46,0,0,1-1.26-.83,3.35,3.35,0,0,1-.76-1.24,4.6,4.6,0,0,1-.26-1.56V92.42h2.11v5.79a2.21,2.21,0,0,0,.14.82,1.73,1.73,0,0,0,.4.65,1.8,1.8,0,0,0,.61.44,2.08,2.08,0,0,0,1.55,0,2,2,0,0,0,1-1.09,2.21,2.21,0,0,0,.14-.82V92.42H115Z"/><path class="cls-2" d="M122.11,92.42h3.18l2.2,6.23h0l2.21-6.23h3.18v11.74H130.8V94.64h0L128.26,102h-1.6l-2.42-7.33h0v9.52h-2.1Z"/><path class="cls-2" d="M37.94,110h.7l1.1,2.62h0L40.85,110h.7v3.46h-.47v-2.85h0l-1.17,2.85h-.31l-1.17-2.85h0v2.85h-.47Z"/><path class="cls-2" d="M43.87,110H46.1v.44H44.34v1H46v.44H44.34V113h1.85v.44H43.87Z"/><path class="cls-2" d="M48.42,112.73a.77.77,0,0,0,.33.29.93.93,0,0,0,.4.09,1,1,0,0,0,.24,0,.76.76,0,0,0,.22-.11.58.58,0,0,0,.17-.18.51.51,0,0,0,.06-.25.37.37,0,0,0-.13-.31,1,1,0,0,0-.31-.17l-.41-.14a1.38,1.38,0,0,1-.41-.18,1,1,0,0,1-.32-.32,1,1,0,0,1-.12-.53,1,1,0,0,1,.06-.32,1.11,1.11,0,0,1,.21-.32,1.31,1.31,0,0,1,.36-.23,1.27,1.27,0,0,1,.54-.1,1.91,1.91,0,0,1,.54.08.94.94,0,0,1,.46.32l-.39.34a.64.64,0,0,0-.24-.22.87.87,0,0,0-.37-.08,1,1,0,0,0-.33.05.77.77,0,0,0-.2.13.44.44,0,0,0-.11.18.55.55,0,0,0,0,.17.45.45,0,0,0,.12.34,1.23,1.23,0,0,0,.32.19l.41.13a1.84,1.84,0,0,1,.41.16,1,1,0,0,1,.31.28.82.82,0,0,1,.13.5,1,1,0,0,1-.1.45.9.9,0,0,1-.25.33,1.28,1.28,0,0,1-.38.21,1.5,1.5,0,0,1-.47.08,1.68,1.68,0,0,1-.63-.12,1.09,1.09,0,0,1-.48-.36Z"/><path class="cls-2" d="M54.09,113.55a1.9,1.9,0,0,1-.73-.14,1.75,1.75,0,0,1-.57-.39,1.7,1.7,0,0,1-.37-.57,1.92,1.92,0,0,1,0-1.44,1.85,1.85,0,0,1,.37-.58,1.73,1.73,0,0,1,.57-.38,1.95,1.95,0,0,1,1.45,0,1.54,1.54,0,0,1,.57.38,1.69,1.69,0,0,1,.37.58,1.92,1.92,0,0,1,0,1.44,1.75,1.75,0,0,1-.94,1A1.89,1.89,0,0,1,54.09,113.55Zm0-.44a1.29,1.29,0,0,0,.53-.11,1.4,1.4,0,0,0,.41-.3,1.16,1.16,0,0,0,.27-.44,1.51,1.51,0,0,0,.09-.53,1.61,1.61,0,0,0-.09-.54,1.21,1.21,0,0,0-.27-.43,1.12,1.12,0,0,0-.41-.3,1.29,1.29,0,0,0-.53-.11,1.33,1.33,0,0,0-.54.11,1.12,1.12,0,0,0-.41.3,1.18,1.18,0,0,0-.26.43,1.4,1.4,0,0,0-.1.54,1.32,1.32,0,0,0,.1.53,1.14,1.14,0,0,0,.26.44,1.4,1.4,0,0,0,.41.3A1.33,1.33,0,0,0,54.09,113.11Z"/><path class="cls-2" d="M58,110h.61l1.91,2.84h0V110H61v3.46h-.6l-1.92-2.85h0v2.85H58Z"/><path class="cls-2" d="M63.38,110h2.23v.44H63.85v1h1.64v.44H63.85V113H65.7v.44H63.38Z"/><path class="cls-2" d="M67.93,112.73a.83.83,0,0,0,.33.29,1,1,0,0,0,.41.09,1.09,1.09,0,0,0,.24,0,.91.91,0,0,0,.22-.11.55.55,0,0,0,.16-.18.52.52,0,0,0,.07-.25.41.41,0,0,0-.13-.31,1.2,1.2,0,0,0-.32-.17l-.41-.14a1.65,1.65,0,0,1-.41-.18,1,1,0,0,1-.31-.32.93.93,0,0,1-.13-.53.77.77,0,0,1,.07-.32.91.91,0,0,1,.2-.32,1.33,1.33,0,0,1,.9-.33,2,2,0,0,1,.55.08.92.92,0,0,1,.45.32l-.38.34a.67.67,0,0,0-.25-.22.87.87,0,0,0-.37-.08.93.93,0,0,0-.32.05.69.69,0,0,0-.21.13.58.58,0,0,0-.11.18.55.55,0,0,0,0,.17.42.42,0,0,0,.13.34,1.17,1.17,0,0,0,.31.19l.41.13a1.67,1.67,0,0,1,.41.16,1.08,1.08,0,0,1,.32.28.9.9,0,0,1,.12.5,1.13,1.13,0,0,1-.09.45.93.93,0,0,1-.26.33,1.17,1.17,0,0,1-.38.21,1.45,1.45,0,0,1-.47.08,1.68,1.68,0,0,1-.63-.12,1.06,1.06,0,0,1-.47-.36Z"/><path class="cls-2" d="M75.65,112l-1.31-2h.6l1,1.52,1-1.52h.57l-1.31,2v1.48h-.47Z"/><path class="cls-2" d="M82.22,112.73a.74.74,0,0,0,.32.29,1,1,0,0,0,.41.09,1,1,0,0,0,.24,0,.91.91,0,0,0,.22-.11.55.55,0,0,0,.16-.18.43.43,0,0,0,.07-.25.37.37,0,0,0-.13-.31,1.14,1.14,0,0,0-.31-.17l-.41-.14a1.38,1.38,0,0,1-.41-.18,1,1,0,0,1-.32-.32,1,1,0,0,1-.13-.53,1,1,0,0,1,.07-.32.81.81,0,0,1,.21-.32,1.06,1.06,0,0,1,.36-.23,1.27,1.27,0,0,1,.54-.1,2,2,0,0,1,.54.08.92.92,0,0,1,.45.32l-.38.34a.67.67,0,0,0-.25-.22.86.86,0,0,0-.36-.08,1,1,0,0,0-.33.05.84.84,0,0,0-.21.13.58.58,0,0,0-.11.18.55.55,0,0,0,0,.17.42.42,0,0,0,.13.34,1.17,1.17,0,0,0,.31.19l.41.13a1.67,1.67,0,0,1,.41.16A1.08,1.08,0,0,1,84,112a.9.9,0,0,1,.13.5,1.14,1.14,0,0,1-.1.45.93.93,0,0,1-.26.33,1.07,1.07,0,0,1-.38.21,1.4,1.4,0,0,1-.47.08,1.68,1.68,0,0,1-.63-.12,1.12,1.12,0,0,1-.47-.36Z"/><path class="cls-2" d="M86.7,110v2.12a1.86,1.86,0,0,0,0,.33.86.86,0,0,0,.15.32.78.78,0,0,0,.27.24.89.89,0,0,0,.82,0,.78.78,0,0,0,.27-.24.86.86,0,0,0,.15-.32,1.86,1.86,0,0,0,0-.33V110h.47v2.19a1.58,1.58,0,0,1-.1.55,1.3,1.3,0,0,1-.29.43,1.34,1.34,0,0,1-.42.28,1.45,1.45,0,0,1-1.06,0,1.34,1.34,0,0,1-.42-.28,1.3,1.3,0,0,1-.29-.43,1.58,1.58,0,0,1-.1-.55V110Z"/><path class="cls-2" d="M91.2,110h1.22a1.38,1.38,0,0,1,.54.09.88.88,0,0,1,.34.23.81.81,0,0,1,.18.31,1.37,1.37,0,0,1,0,.34,1.29,1.29,0,0,1,0,.33.75.75,0,0,1-.18.31.79.79,0,0,1-.34.23,1.38,1.38,0,0,1-.54.09h-.75v1.53H91.2Zm.47,1.52h.61a1.18,1.18,0,0,0,.27,0,.62.62,0,0,0,.24-.08.4.4,0,0,0,.17-.17A.49.49,0,0,0,93,111a.5.5,0,0,0-.07-.29.46.46,0,0,0-.17-.17.85.85,0,0,0-.24-.08l-.27,0h-.61Z"/><path class="cls-2" d="M95.56,110h2.23v.44H96v1h1.64v.44H96V113h1.85v.44H95.56Z"/><path class="cls-2" d="M100,110h1.22a1.38,1.38,0,0,1,.54.09.88.88,0,0,1,.34.23.81.81,0,0,1,.18.31,1.4,1.4,0,0,1,0,.34.91.91,0,0,1-.06.32,1,1,0,0,1-.17.27.71.71,0,0,1-.27.21.85.85,0,0,1-.35.11l1,1.58h-.59l-.88-1.53h-.52v1.53H100Zm.47,1.52h.62a1.23,1.23,0,0,0,.27,0,.62.62,0,0,0,.24-.08.38.38,0,0,0,.16-.17.49.49,0,0,0,.07-.28.5.5,0,0,0-.07-.29.44.44,0,0,0-.16-.17.85.85,0,0,0-.24-.08l-.27,0h-.62Z"/><path class="cls-2" d="M104.46,110h2.17v.44h-1.7v1.08h1.59V112h-1.59v1.5h-.47Z"/><path class="cls-2" d="M108.73,110h.47v3.46h-.47Z"/><path class="cls-2" d="M114,110.75a1,1,0,0,0-.37-.3,1.23,1.23,0,0,0-.46-.1,1.25,1.25,0,0,0-.53.11,1.12,1.12,0,0,0-.41.3,1.43,1.43,0,0,0-.26.45,1.63,1.63,0,0,0-.09.55,1.82,1.82,0,0,0,.08.52,1.45,1.45,0,0,0,.26.43,1.18,1.18,0,0,0,.4.29,1.35,1.35,0,0,0,.55.11,1,1,0,0,0,.52-.13,1,1,0,0,0,.38-.34l.4.3-.14.15a1.11,1.11,0,0,1-.26.2,1.76,1.76,0,0,1-.39.18,1.67,1.67,0,0,1-.52.08,1.75,1.75,0,0,1-.74-.16,2,2,0,0,1-.57-.41,1.82,1.82,0,0,1-.47-1.22,2,2,0,0,1,.13-.74,1.79,1.79,0,0,1,.37-.59,1.73,1.73,0,0,1,.57-.38,1.9,1.9,0,0,1,.73-.14,2,2,0,0,1,.67.13,1.3,1.3,0,0,1,.54.41Z"/><path class="cls-2" d="M116.46,110h.47v3.46h-.47Z"/><path class="cls-2" d="M119.28,110h2.23v.44h-1.76v1h1.64v.44h-1.64V113h1.85v.44h-2.32Z"/><path class="cls-2" d="M123.83,112.73a.83.83,0,0,0,.33.29,1,1,0,0,0,.41.09,1,1,0,0,0,.23,0A.82.82,0,0,0,125,113a.69.69,0,0,0,.16-.18.51.51,0,0,0,.06-.25.4.4,0,0,0-.12-.31,1.2,1.2,0,0,0-.32-.17l-.41-.14a1.5,1.5,0,0,1-.41-.18,1,1,0,0,1-.31-.32.93.93,0,0,1-.13-.53.77.77,0,0,1,.07-.32.91.91,0,0,1,.2-.32,1.33,1.33,0,0,1,.9-.33,1.91,1.91,0,0,1,.54.08.9.9,0,0,1,.46.32l-.38.34a.67.67,0,0,0-.25-.22.87.87,0,0,0-.37-.08.93.93,0,0,0-.32.05.69.69,0,0,0-.21.13.58.58,0,0,0-.11.18.55.55,0,0,0,0,.17.45.45,0,0,0,.12.34,1.23,1.23,0,0,0,.32.19l.41.13a1.67,1.67,0,0,1,.41.16,1.08,1.08,0,0,1,.32.28.9.9,0,0,1,.12.5,1.13,1.13,0,0,1-.09.45,1.06,1.06,0,0,1-.26.33,1.17,1.17,0,0,1-.38.21,1.45,1.45,0,0,1-.47.08,1.68,1.68,0,0,1-.63-.12,1,1,0,0,1-.47-.36Z"/><rect class="cls-2" x="60.97" y="80.73" width="43.06" height="0.97"/><path class="cls-2" d="M82,81.68H70V55.27l12-3.82Zm-11-1H81V52.79L70.94,56Z"/><path class="cls-2" d="M104,77.67H81v-6h23ZM82,76.7H103v-4H82Z"/><path class="cls-2" d="M103,64.87,87.46,58.65,81,60.36V54.21l6.54-1.6L103,58.81Zm-15.5-7.25L102,63.43v-4L87.46,53.63,82,55V59.1Z"/><path class="cls-2" d="M60.94,67.91V61.83l10-4.48v6.11Zm1-5.45v3.95l8-3.58v-4Z"/><rect class="cls-2" x="99.82" y="77.18" width="0.97" height="4.01"/><path class="cls-2" d="M70.94,77.67h-10v-6h10Zm-9-1h8v-4h-8Z"/><rect class="cls-2" x="100.06" y="63.15" width="0.49" height="9.04"/><rect class="cls-2" x="87.25" y="58.14" width="0.49" height="14.04"/><rect class="cls-2" x="87.25" y="77.18" width="0.49" height="4.01"/><rect class="cls-2" x="64.01" y="65.92" width="0.49" height="6.25"/><rect class="cls-2" x="64.01" y="77.23" width="0.49" height="3.96"/></g></g></svg>