<svg width="320" height="109" viewBox="0 0 320 109" fill="none" xmlns="http://www.w3.org/2000/svg">
<path d="M320 0.772217V72.701H296.264V31.8684C296.264 23.5116 289.134 16.7406 280.338 16.7406C271.542 16.7406 264.413 23.5116 264.413 31.8684V72.701H239.784V31.8684C239.784 23.5116 232.655 16.7406 223.858 16.7406C215.066 16.7406 207.937 23.5116 207.937 31.8684V72.701H184.415V31.8684C184.415 23.5116 177.286 16.7406 168.494 16.7406C159.698 16.7406 152.568 23.5116 152.568 31.8684V72.701H129.047V31.8684C129.047 23.5116 121.917 16.7406 113.121 16.7406C104.325 16.7406 97.1954 23.5116 97.1954 31.8684V72.701H35.4395V0.772217H320Z" fill="#B3B0F8"/>
<path d="M35.2552 48.1239C40.2427 48.1239 44.2859 44.0195 44.2859 38.9564C44.2859 33.8933 40.2427 29.7888 35.2552 29.7888C30.2677 29.7888 26.2246 33.8933 26.2246 38.9564C26.2246 44.0195 30.2677 48.1239 35.2552 48.1239Z" fill="#6A66E2"/>
<path d="M35.2559 38.9561V83.9833" stroke="#0A0926" stroke-width="2.35" stroke-miterlimit="10"/>
<path d="M66.4713 26.234C66.4713 31.1922 62.5113 44.5855 57.6312 44.5855C52.7511 44.5855 48.791 31.1922 48.791 26.234C48.791 23.8539 49.7224 21.5712 51.3803 19.8882C53.0381 18.2052 55.2866 17.2598 57.6312 17.2598C59.9757 17.2598 62.2242 18.2052 63.8821 19.8882C65.5399 21.5712 66.4713 23.8539 66.4713 26.234Z" fill="#6A66E2"/>
<path d="M57.6328 30.9243V83.9834" stroke="#0A0926" stroke-width="2.25" stroke-miterlimit="10"/>
<path d="M26.725 19.4946C26.725 25.0412 22.2988 40.027 16.8391 40.027C11.3794 40.027 6.94922 25.0412 6.94922 19.4946C7.00161 16.8676 8.0664 14.3662 9.91504 12.5271C11.7637 10.688 14.2488 9.65796 16.8371 9.65796C19.4254 9.65796 21.9105 10.688 23.7592 12.5271C25.6078 14.3662 26.6726 16.8676 26.725 19.4946Z" fill="#6A66E2"/>
<path d="M16.8418 24.7407V84.1118" stroke="#0A0926" stroke-width="2.83" stroke-miterlimit="10"/>
<path d="M320 72H0V109H320V72Z" fill="#8D89EF"/>
<rect y="85" width="320" height="24" fill="#0A0926"/>
<path d="M154.018 25.3289C154.018 25.3289 133.347 48.1285 147.128 75.483H287.962V25.3289H154.018Z" fill="#3A37E0" stroke="white" stroke-width="2" stroke-miterlimit="10"/>
<path d="M151.5 30.2832H287.029V57.325L176.61 57.3004L144.067 57.2098C144.067 57.2098 141.971 42.9647 151.5 30.2832Z" fill="#26269B"/>
<path d="M159.407 63.9906V31.8423L150.45 31.7683C145.72 38.5617 140.758 51.6958 144.804 66.9161C144.804 66.9161 151.532 67.9901 159.407 63.9906Z" fill="#18185B"/>
<path d="M176.593 31.8425H161.523V36.8913H176.593V31.8425Z" fill="#18185B"/>
<path d="M191.514 31.8425H178.52V36.8913H191.514V31.8425Z" fill="#18185B"/>
<path d="M191.514 38.4382H178.52V55.1316H191.514V38.4382Z" fill="#18185B"/>
<path d="M222.431 31.8425H193.479V36.8913H222.431V31.8425Z" fill="#18185B"/>
<path d="M222.431 38.4382H193.479V55.1316H222.431V38.4382Z" fill="#18185B"/>
<path d="M253.349 31.8425H224.396V36.8913H253.349V31.8425Z" fill="#18185B"/>
<path d="M253.349 38.4382H224.396V55.1316H253.349V38.4382Z" fill="#18185B"/>
<path d="M283.989 31.8425H255.037V36.8913H283.989V31.8425Z" fill="#18185B"/>
<path d="M283.989 38.4382H255.037V55.1316H283.989V38.4382Z" fill="#18185B"/>
<path d="M161.523 38.4382H176.593V57.1643C176.593 57.1643 168.6 61.0321 161.523 62.9042V38.4382Z" fill="#18185B"/>
<path d="M182.689 85.2555C188.006 85.2555 192.315 80.8803 192.315 75.4831C192.315 70.086 188.006 65.7107 182.689 65.7107C177.372 65.7107 173.062 70.086 173.062 75.4831C173.062 80.8803 177.372 85.2555 182.689 85.2555Z" fill="#0A0926"/>
<path d="M182.689 81.1034C185.747 81.1034 188.226 78.587 188.226 75.4827C188.226 72.3785 185.747 69.8621 182.689 69.8621C179.631 69.8621 177.152 72.3785 177.152 75.4827C177.152 78.587 179.631 81.1034 182.689 81.1034Z" fill="#26269B"/>
<path d="M245.414 85.2555C250.73 85.2555 255.04 80.8803 255.04 75.4831C255.04 70.086 250.73 65.7107 245.414 65.7107C240.097 65.7107 235.787 70.086 235.787 75.4831C235.787 80.8803 240.097 85.2555 245.414 85.2555Z" fill="#0A0926"/>
<path d="M245.412 81.1034C248.47 81.1034 250.948 78.587 250.948 75.4827C250.948 72.3785 248.47 69.8621 245.412 69.8621C242.354 69.8621 239.875 72.3785 239.875 75.4827C239.875 78.587 242.354 81.1034 245.412 81.1034Z" fill="#26269B"/>
</svg>
