<svg width="320" height="125" viewBox="0 0 320 125" fill="none" xmlns="http://www.w3.org/2000/svg">
<path opacity="0.5" d="M320 0V86H293.304V37.1989C293.304 27.2077 285.289 19.1152 275.399 19.1152C265.513 19.1152 257.489 27.2118 257.489 37.1989V86H229.809V37.1989C229.809 27.2077 221.793 19.1152 211.899 19.1152C202.013 19.1152 193.994 27.2118 193.994 37.1989V86H167.543V37.1989C167.543 27.2077 159.527 19.1152 149.638 19.1152C139.752 19.1152 131.728 27.2118 131.728 37.1989V86H105.293V37.1989C105.293 27.2077 97.2777 19.1152 87.3878 19.1152C77.5018 19.1152 69.4784 27.2118 69.4784 37.1989V86H0V0H320Z" fill="#BFBDF3"/>
<rect y="86" width="320" height="24" fill="#D4D3F7"/>
<rect y="101" width="320" height="24" fill="#0A0926"/>
<path d="M24.099 75.3317C27.7371 75.3317 30.6863 72.3836 30.6863 68.7469C30.6863 65.1101 27.7371 62.162 24.099 62.162C20.461 62.162 17.5117 65.1101 17.5117 68.7469C17.5117 72.3836 20.461 75.3317 24.099 75.3317Z" fill="#6A66E2"/>
<path d="M24.0996 68.7474V101.094" stroke="#0A0926" stroke-width="1.77" stroke-miterlimit="10"/>
<path d="M46.872 59.6065C46.872 63.1643 43.9854 72.788 40.4223 72.788C36.8593 72.788 33.9766 63.1643 33.9766 59.6065C33.9553 58.7467 34.1064 57.8913 34.4209 57.0908C34.7354 56.2902 35.2069 55.5606 35.8077 54.945C36.4086 54.3294 37.1265 53.8401 37.9194 53.5061C38.7122 53.1721 39.5639 53 40.4243 53C41.2847 53 42.1363 53.1721 42.9292 53.5061C43.722 53.8401 44.44 54.3294 45.0409 54.945C45.6417 55.5606 46.1132 56.2902 46.4277 57.0908C46.7422 57.8913 46.8932 58.7467 46.872 59.6065Z" fill="#6A66E2"/>
<path d="M40.4199 62.9753V101.093" stroke="#0A0926" stroke-width="1.7" stroke-miterlimit="10"/>
<path d="M185.462 91.5792C188.057 84.3613 187.35 80.6581 187.35 80.6581C182.237 73.3695 151.955 72.5912 151.955 72.5912C134.612 58.6509 117.764 59.2249 117.764 59.2249H99.3588C92.1384 59.2249 75.9277 68.9194 75.9277 68.9194L66.5639 70.0987C65.8564 70.1862 65.2081 70.538 64.7493 71.0834C64.2905 71.6288 64.055 72.3275 64.0902 73.0393L64.4599 80.5402L62.4935 82.2424C62.2528 82.457 62.0808 82.7379 61.999 83.0498C61.9171 83.3616 61.9291 83.6906 62.0334 83.9957C62.4732 85.5366 62.6068 87.1486 62.4267 88.7408C62.3967 89.105 62.4946 89.4682 62.7034 89.7681C62.9123 90.0679 63.2191 90.2857 63.5711 90.384L74.8383 93.4662C74.7545 92.9119 74.7124 92.3521 74.7125 91.7915C74.714 90.271 75.0297 88.7672 75.6399 87.3744C76.25 85.9815 77.1414 84.7297 78.2582 83.6974C79.375 82.6651 80.6931 81.8745 82.1298 81.3753C83.5665 80.8761 85.091 80.679 86.6075 80.7963C88.124 80.9136 89.6 81.3428 90.9428 82.0571C92.2856 82.7713 93.4663 83.7551 94.411 84.9469C95.3556 86.1386 96.0438 87.5126 96.4323 88.9827C96.8208 90.4527 96.9014 91.9872 96.6689 93.4898H150.37C150.127 91.9162 150.227 90.3085 150.663 88.7771C151.1 87.2457 151.863 85.8269 152.899 84.618C153.936 83.409 155.222 82.4385 156.669 81.7732C158.116 81.1078 159.691 80.7634 161.283 80.7634C162.876 80.7634 164.45 81.1078 165.898 81.7732C167.345 82.4385 168.631 83.409 169.668 84.618C170.704 85.8269 171.467 87.2457 171.904 88.7771C172.34 90.3085 172.44 91.9162 172.197 93.4898H185.533C185.644 93.4899 185.753 93.4603 185.848 93.404C185.944 93.3477 186.023 93.2667 186.077 93.1695C186.131 93.0724 186.157 92.9626 186.154 92.8516C186.151 92.7406 186.119 92.6325 186.06 92.5385L185.462 91.5792Z" fill="#3A37E0" stroke="white" stroke-width="2" stroke-miterlimit="10"/>
<path d="M111.338 61.9296C112.101 65.2567 112.599 68.639 112.828 72.0448H86.1684C85.9978 72.0441 85.8311 71.9944 85.6881 71.9016C85.5451 71.8088 85.4317 71.6768 85.3617 71.5214C85.2916 71.366 85.2678 71.1937 85.293 71.0251C85.3181 70.8565 85.3913 70.6987 85.5037 70.5706C88.0757 67.6418 94.549 61.3596 102.918 61.3596H110.618C110.785 61.3596 110.947 61.4159 111.077 61.5194C111.208 61.6229 111.3 61.7674 111.338 61.9296Z" fill="#18185B"/>
<path d="M115.622 61.7649C115.901 63.3375 116.845 68.8097 116.723 72.0255H145.18C145.325 72.0268 145.467 71.9806 145.583 71.8937C145.7 71.8069 145.785 71.6843 145.825 71.5448C145.865 71.4052 145.858 71.2563 145.806 71.1209C145.753 70.9855 145.658 70.8711 145.534 70.7951C141.003 67.9842 129.315 61.3403 120.05 61.3403H115.975C115.923 61.34 115.87 61.3514 115.822 61.3736C115.774 61.3959 115.732 61.4285 115.698 61.469C115.664 61.5096 115.64 61.5573 115.627 61.6084C115.613 61.6596 115.612 61.713 115.622 61.7649Z" fill="#18185B"/>
<path d="M174.69 78.7556C174.569 78.753 174.448 78.7779 174.337 78.8285C174.226 78.8791 174.128 78.954 174.05 79.0477C173.972 79.1414 173.917 79.2515 173.887 79.3697C173.858 79.4879 173.855 79.6112 173.88 79.7305C174.152 80.9846 174.883 82.9935 176.798 82.9935H184.444C184.444 82.9935 186.158 78.9678 174.69 78.7556Z" fill="#18185B"/>
<path d="M68.4088 71.4595L69.8246 73.72C69.8845 73.8147 69.9179 73.9238 69.9212 74.0358C69.9244 74.1478 69.8975 74.2587 69.8433 74.3568C69.789 74.4548 69.7093 74.5364 69.6126 74.5932C69.5159 74.6499 69.4058 74.6796 69.2936 74.6792H65.3609C65.3609 74.6792 63.8783 71.4595 68.4088 71.4595Z" fill="#18185B"/>
<path d="M178.293 92.1217H182.344C182.344 92.1217 184.609 89.7629 183.476 88.6189C182.344 87.4749 178.592 90.1403 178.293 92.1217Z" fill="#18185B"/>
<path d="M85.7179 100.778C90.7742 100.778 94.8732 96.6804 94.8732 91.6259C94.8732 86.5714 90.7742 82.4739 85.7179 82.4739C80.6615 82.4739 76.5625 86.5714 76.5625 91.6259C76.5625 96.6804 80.6615 100.778 85.7179 100.778Z" fill="#0A0926"/>
<path d="M85.7174 96.9334C88.6495 96.9334 91.0265 94.5573 91.0265 91.6262C91.0265 88.6951 88.6495 86.319 85.7174 86.319C82.7852 86.319 80.4082 88.6951 80.4082 91.6262C80.4082 94.5573 82.7852 96.9334 85.7174 96.9334Z" fill="#18185B"/>
<path d="M161.222 100.778C166.278 100.778 170.377 96.6805 170.377 91.626C170.377 86.5715 166.278 82.474 161.222 82.474C156.165 82.474 152.066 86.5715 152.066 91.626C152.066 96.6805 156.165 100.778 161.222 100.778Z" fill="#0A0926"/>
<path d="M161.225 96.9334C164.157 96.9334 166.534 94.5573 166.534 91.6262C166.534 88.6951 164.157 86.319 161.225 86.319C158.293 86.319 155.916 88.6951 155.916 91.6262C155.916 94.5573 158.293 96.9334 161.225 96.9334Z" fill="#18185B"/>
</svg>
