<svg width="320" height="136" viewBox="0 0 320 136" fill="none" xmlns="http://www.w3.org/2000/svg">
<rect y="112" width="320" height="24" fill="#0A0926"/>
<path d="M60.5692 52.3637C67.5606 52.3637 73.2282 46.8058 73.2282 39.9497C73.2282 33.0937 67.5606 27.5358 60.5692 27.5358C53.5778 27.5358 47.9102 33.0937 47.9102 39.9497C47.9102 46.8058 53.5778 52.3637 60.5692 52.3637Z" fill="#BFBDF3"/>
<path d="M60.5703 39.9492V100.921" stroke="#0A0926" stroke-width="2.35" stroke-miterlimit="10"/>
<path d="M104.317 22.7221C104.317 29.4361 98.7719 47.5722 91.9254 47.5722C85.0788 47.5722 79.5391 29.4361 79.5391 22.7221C79.6084 19.545 80.9442 16.5208 83.2601 14.2979C85.5759 12.075 88.6876 10.8302 91.9282 10.8302C95.1688 10.8302 98.2805 12.075 100.596 14.2979C102.912 16.5208 104.248 19.545 104.317 22.7221V22.7221Z" fill="#BFBDF3"/>
<path d="M91.9297 29.0724V100.921" stroke="#0A0926" stroke-width="2.25" stroke-miterlimit="10"/>
<path d="M48.6119 13.5951C48.6119 21.1059 42.4017 41.3985 34.7483 41.3985C27.095 41.3985 20.8848 21.1059 20.8848 13.5951C20.8848 9.98946 22.3454 6.53147 24.9453 3.98188C27.5452 1.43228 31.0715 0 34.7483 0C38.4252 0 41.9514 1.43228 44.5513 3.98188C47.1513 6.53147 48.6119 9.98946 48.6119 13.5951V13.5951Z" fill="#BFBDF3"/>
<path d="M34.748 20.6998V101.095" stroke="#0A0926" stroke-width="2.83" stroke-miterlimit="10"/>
<path d="M303.175 52.3637C310.166 52.3637 315.834 46.8058 315.834 39.9497C315.834 33.0937 310.166 27.5358 303.175 27.5358C296.183 27.5358 290.516 33.0937 290.516 39.9497C290.516 46.8058 296.183 52.3637 303.175 52.3637Z" fill="#BFBDF3"/>
<path d="M303.176 39.9504V100.923" stroke="#0A0926" stroke-width="2.35" stroke-miterlimit="10"/>
<path d="M291.219 13.5951C291.219 21.1059 285.015 41.3984 277.362 41.3984C269.708 41.3984 263.498 21.1059 263.498 13.5951C263.571 10.0378 265.064 6.6506 267.655 4.16031C270.247 1.67001 273.731 0.275146 277.359 0.275146C280.987 0.275146 284.471 1.67001 287.062 4.16031C289.653 6.6506 291.146 10.0378 291.219 13.5951V13.5951Z" fill="#BFBDF3"/>
<path d="M277.357 20.6998V101.095" stroke="#0A0926" stroke-width="2.83" stroke-miterlimit="10"/>
<g opacity="0.4">
<path opacity="0.3" d="M319.991 64.4281H0V65.9491H319.991V64.4281Z" fill="#0A0926"/>
<path opacity="0.3" d="M319.991 70.7343H0V72.2553H319.991V70.7343Z" fill="#0A0926"/>
<path opacity="0.3" d="M319.991 98.2242H0V99.7453H319.991V98.2242Z" fill="#0A0926"/>
<path opacity="0.3" d="M14.0098 104.516L14.0098 64.4275H14.968L14.968 104.516C14.968 104.57 14.9504 104.622 14.919 104.66C14.8876 104.698 14.845 104.719 14.8006 104.719H14.1771C14.1327 104.719 14.0902 104.698 14.0588 104.66C14.0274 104.622 14.0098 104.57 14.0098 104.516V104.516Z" fill="#0A0926"/>
<path opacity="0.3" d="M22.7891 104.516L22.7891 64.4275H23.7473L23.7473 104.516C23.7473 104.57 23.7297 104.622 23.6983 104.66C23.6669 104.698 23.6243 104.719 23.5799 104.719H22.9564C22.912 104.719 22.8695 104.698 22.8381 104.66C22.8067 104.622 22.7891 104.57 22.7891 104.516Z" fill="#0A0926"/>
<path opacity="0.3" d="M43.377 104.516V64.4275H44.3352V104.516C44.3352 104.57 44.3176 104.622 44.2862 104.66C44.2548 104.698 44.2122 104.719 44.1678 104.719H43.5443C43.4999 104.719 43.4574 104.698 43.426 104.66C43.3946 104.622 43.377 104.57 43.377 104.516Z" fill="#0A0926"/>
<path opacity="0.3" d="M52.1562 104.516V64.4275H53.1145V104.516C53.1145 104.57 53.0969 104.622 53.0655 104.66C53.0341 104.698 52.9915 104.719 52.9471 104.719H52.3236C52.2792 104.719 52.2366 104.698 52.2053 104.66C52.1739 104.622 52.1562 104.57 52.1562 104.516Z" fill="#0A0926"/>
<path opacity="0.3" d="M76.0723 104.516V64.4275H77.0305V104.516C77.0305 104.57 77.0129 104.622 76.9815 104.66C76.9501 104.698 76.9075 104.719 76.8631 104.719H76.2396C76.1952 104.719 76.1527 104.698 76.1213 104.66C76.0899 104.622 76.0723 104.57 76.0723 104.516V104.516Z" fill="#0A0926"/>
<path opacity="0.3" d="M84.8555 104.516V64.4275H85.8137V104.516C85.8137 104.57 85.7961 104.622 85.7647 104.66C85.7333 104.698 85.6907 104.719 85.6463 104.719H85.0228C84.9784 104.719 84.9359 104.698 84.9045 104.66C84.8731 104.622 84.8555 104.57 84.8555 104.516V104.516Z" fill="#0A0926"/>
<path opacity="0.3" d="M105.445 104.516V64.4022H106.404V104.516C106.404 104.57 106.386 104.622 106.355 104.66C106.323 104.698 106.281 104.719 106.236 104.719H105.613C105.568 104.719 105.526 104.698 105.494 104.66C105.463 104.622 105.445 104.57 105.445 104.516V104.516Z" fill="#0A0926"/>
<path opacity="0.3" d="M114.227 104.522V64.4327H115.185V104.522C115.185 104.575 115.167 104.627 115.136 104.665C115.104 104.703 115.062 104.724 115.017 104.724H114.394C114.35 104.724 114.307 104.703 114.276 104.665C114.244 104.627 114.227 104.575 114.227 104.522V104.522Z" fill="#0A0926"/>
<path opacity="0.3" d="M137.281 104.506V64.453H138.239V104.506C138.239 104.56 138.222 104.612 138.19 104.65C138.159 104.688 138.117 104.709 138.072 104.709H137.449C137.404 104.709 137.362 104.688 137.33 104.65C137.299 104.612 137.281 104.56 137.281 104.506Z" fill="#0A0926"/>
<path opacity="0.3" d="M146.066 104.497V64.4435H147.025V104.497C147.025 104.551 147.007 104.602 146.976 104.64C146.944 104.678 146.902 104.7 146.857 104.7H146.234C146.189 104.7 146.147 104.678 146.115 104.64C146.084 104.602 146.066 104.551 146.066 104.497Z" fill="#0A0926"/>
<path opacity="0.3" d="M166.65 104.522V64.4327H167.609V104.522C167.609 104.575 167.591 104.627 167.56 104.665C167.528 104.703 167.486 104.724 167.441 104.724H166.818C166.773 104.724 166.731 104.703 166.699 104.665C166.668 104.627 166.65 104.575 166.65 104.522V104.522Z" fill="#0A0926"/>
<path opacity="0.3" d="M175.438 104.516V64.4275H176.396V104.516C176.396 104.57 176.378 104.622 176.347 104.66C176.315 104.698 176.273 104.719 176.228 104.719H175.605C175.56 104.719 175.518 104.698 175.487 104.66C175.455 104.622 175.438 104.57 175.438 104.516V104.516Z" fill="#0A0926"/>
<path opacity="0.3" d="M199.742 104.516V64.4275H200.7V104.516C200.7 104.57 200.683 104.622 200.651 104.66C200.62 104.698 200.577 104.719 200.533 104.719H199.91C199.865 104.719 199.823 104.698 199.791 104.66C199.76 104.622 199.742 104.57 199.742 104.516Z" fill="#0A0926"/>
<path opacity="0.3" d="M208.527 104.516V64.4275H209.486V104.516C209.486 104.57 209.468 104.622 209.437 104.66C209.405 104.698 209.363 104.719 209.318 104.719H208.695C208.65 104.719 208.608 104.698 208.576 104.66C208.545 104.622 208.527 104.57 208.527 104.516Z" fill="#0A0926"/>
<path opacity="0.3" d="M229.113 104.516V64.4275H230.072V104.516C230.072 104.57 230.054 104.622 230.022 104.66C229.991 104.698 229.949 104.719 229.904 104.719H229.281C229.236 104.719 229.194 104.698 229.162 104.66C229.131 104.622 229.113 104.57 229.113 104.516Z" fill="#0A0926"/>
<path opacity="0.3" d="M237.898 104.516V64.4275H238.857V104.516C238.857 104.57 238.839 104.622 238.808 104.66C238.776 104.698 238.734 104.719 238.689 104.719H238.066C238.021 104.719 237.979 104.698 237.947 104.66C237.916 104.622 237.898 104.57 237.898 104.516V104.516Z" fill="#0A0926"/>
<path opacity="0.3" d="M261.074 104.516V64.4275H262.032V104.516C262.032 104.57 262.015 104.622 261.983 104.66C261.952 104.698 261.909 104.719 261.865 104.719H261.242C261.197 104.719 261.155 104.698 261.123 104.66C261.092 104.622 261.074 104.57 261.074 104.516V104.516Z" fill="#0A0926"/>
<path opacity="0.3" d="M269.859 104.516V64.4275H270.818V104.516C270.818 104.57 270.8 104.622 270.769 104.66C270.737 104.698 270.695 104.719 270.65 104.719H270.027C269.982 104.719 269.94 104.698 269.908 104.66C269.877 104.622 269.859 104.57 269.859 104.516Z" fill="#0A0926"/>
<path opacity="0.3" d="M290.449 104.522V64.4326H291.407V104.522C291.407 104.575 291.39 104.627 291.358 104.665C291.327 104.703 291.284 104.724 291.24 104.724H290.617C290.572 104.724 290.53 104.703 290.498 104.665C290.467 104.627 290.449 104.575 290.449 104.522Z" fill="#0A0926"/>
<path opacity="0.3" d="M299.234 104.516V64.4275H300.193V104.516C300.193 104.57 300.175 104.622 300.144 104.66C300.112 104.698 300.07 104.719 300.025 104.719H299.402C299.357 104.719 299.315 104.698 299.283 104.66C299.252 104.622 299.234 104.57 299.234 104.516Z" fill="#0A0926"/>
<path opacity="0.3" d="M311.209 104.532C311.206 104.586 311.185 104.637 311.151 104.673C311.118 104.709 311.074 104.727 311.029 104.724H310.451C310.407 104.727 310.363 104.709 310.329 104.673C310.295 104.637 310.275 104.586 310.271 104.532" fill="#0A0926"/>
<path opacity="0.3" d="M319.041 104.522V64.4326H319.999V104.522C319.999 104.575 319.982 104.627 319.95 104.665C319.919 104.703 319.876 104.724 319.832 104.724H319.208C319.164 104.724 319.121 104.703 319.09 104.665C319.059 104.627 319.041 104.575 319.041 104.522V104.522Z" fill="#0A0926"/>
</g>
<path d="M309.78 97.8455H8.82253L0 112H320L309.78 97.8455Z" fill="#26269B"/>
<path d="M101.205 80.5556C103.71 80.5543 106.159 81.2762 108.242 82.6298C110.325 83.9834 111.949 85.908 112.909 88.1602C113.868 90.4123 114.12 92.8909 113.632 95.2823C113.144 97.6737 111.938 99.8705 110.168 101.595C108.397 103.319 106.141 104.494 103.684 104.97C101.228 105.446 98.6816 105.202 96.3674 104.27C94.0533 103.337 92.0752 101.757 90.6836 99.73C89.2919 97.7029 88.5491 95.3196 88.5491 92.8815C88.5525 89.6146 89.8869 86.4824 92.2594 84.1717C94.6319 81.8611 97.849 80.5606 101.205 80.5556V80.5556ZM101.205 78.7993C98.3439 78.7993 95.5469 79.6252 93.1678 81.1726C90.7887 82.72 88.9345 84.9193 87.8395 87.4925C86.7446 90.0657 86.4581 92.8971 87.0163 95.6288C87.5745 98.3605 88.9523 100.87 90.9755 102.839C92.9988 104.809 95.5765 106.15 98.3828 106.693C101.189 107.236 104.098 106.958 106.741 105.892C109.385 104.826 111.644 103.021 113.234 100.705C114.824 98.3893 115.672 95.6667 115.672 92.8815C115.672 89.1467 114.148 85.5648 111.435 82.9239C108.722 80.283 105.042 78.7993 101.205 78.7993V78.7993Z" fill="white"/>
<path d="M150.346 80.5556C152.851 80.5543 155.3 81.2762 157.383 82.6298C159.466 83.9834 161.09 85.908 162.05 88.1602C163.009 90.4123 163.261 92.8909 162.773 95.2823C162.285 97.6737 161.08 99.8705 159.309 101.595C157.538 103.319 155.282 104.494 152.826 104.97C150.369 105.446 147.823 105.202 145.509 104.27C143.195 103.337 141.217 101.757 139.825 99.73C138.433 97.7029 137.69 95.3196 137.69 92.8815C137.694 89.6146 139.028 86.4824 141.401 84.1717C143.773 81.8611 146.99 80.5606 150.346 80.5556V80.5556ZM150.346 78.7993C147.487 78.8056 144.693 79.6368 142.318 81.188C139.943 82.7392 138.094 84.9407 137.004 87.5144C135.914 90.0881 135.632 92.9186 136.194 95.6482C136.756 98.3777 138.136 100.884 140.161 102.85C142.185 104.817 144.763 106.155 147.569 106.695C150.374 107.236 153.281 106.955 155.923 105.889C158.564 104.822 160.822 103.017 162.41 100.702C163.998 98.3867 164.846 95.6653 164.846 92.8815C164.847 91.0319 164.473 89.2004 163.746 87.4915C163.02 85.7826 161.954 84.2298 160.611 82.922C159.267 81.6142 157.672 80.5769 155.916 79.8695C154.161 79.1621 152.279 78.7985 150.379 78.7993H150.346Z" fill="white"/>
<path d="M120.518 72.4199H111.542C110.808 72.4199 110.213 72.9976 110.213 73.7102C110.213 74.4228 110.808 75.0005 111.542 75.0005H120.518C121.251 75.0005 121.846 74.4228 121.846 73.7102C121.846 72.9976 121.251 72.4199 120.518 72.4199Z" fill="white"/>
<path d="M138.821 56.8284H133.428C133.061 56.8284 132.764 57.1179 132.764 57.4751C132.764 57.8323 133.061 58.1218 133.428 58.1218H138.821C139.188 58.1218 139.486 57.8323 139.486 57.4751C139.486 57.1179 139.188 56.8284 138.821 56.8284Z" fill="white"/>
<path d="M143.891 78.7982C142.308 73.7258 140.367 64.8491 140.367 64.8491H138.628C138.628 64.8491 139.221 67.5755 140.022 70.8789L121.341 87.0154L118.162 74.6959H116.475L117.068 77.0291L103.917 89.5706L100.797 92.6584C100.698 92.7563 100.631 92.8803 100.605 93.0148C100.578 93.1494 100.593 93.2887 100.647 93.4151C100.701 93.5416 100.792 93.6498 100.909 93.7261C101.026 93.8023 101.164 93.8434 101.305 93.8441H118.755C118.969 94.6193 119.46 95.2947 120.14 95.749C120.82 96.2033 121.644 96.4067 122.464 96.3227C123.284 96.2386 124.047 95.8727 124.614 95.2905C125.182 94.7084 125.518 93.9482 125.562 93.1467C125.607 92.4568 125.432 91.7701 125.06 91.1811L141.201 75.5138C141.52 76.6994 141.852 77.8344 142.145 78.8299C144.901 88.7464 149.845 93.4129 149.845 93.4129L150.959 92.3224C147.614 88.3721 145.202 83.7554 143.891 78.7982V78.7982ZM106.366 89.5389L117.543 78.8932L120.24 89.5389H106.366ZM123.809 89.9574C123.334 89.6938 122.8 89.5459 122.253 89.5262H121.999L121.738 88.5244L140.393 72.3372C140.511 72.8191 140.634 73.3009 140.758 73.7828L123.809 89.9574Z" fill="white" stroke="white" stroke-width="0.821968" stroke-miterlimit="10"/>
<path d="M150.348 97.8713C148.989 97.8713 147.685 97.3456 146.723 96.4098C145.762 95.474 145.222 94.2048 145.222 92.8813H139.105C139.119 95.7797 140.308 98.5555 142.413 100.605C144.519 102.654 147.371 103.812 150.348 103.825C150.726 103.825 151.097 103.825 151.468 103.774L150.863 97.8459C150.692 97.864 150.52 97.8725 150.348 97.8713V97.8713Z" stroke="white" stroke-width="0.40485" stroke-miterlimit="10"/>
<path d="M150.35 81.9309C149.978 81.9309 149.606 81.95 149.236 81.988L149.842 87.91C150.011 87.91 150.181 87.91 150.35 87.91C151.711 87.91 153.017 88.4364 153.98 89.3733C154.942 90.3103 155.483 91.5812 155.483 92.9063H161.593C161.586 90.0029 160.4 87.22 158.294 85.164C156.188 83.1081 153.333 81.946 150.35 81.9309V81.9309Z" stroke="white" stroke-width="0.40485" stroke-miterlimit="10"/>
<path d="M106.225 93.8135C106.002 94.9546 105.377 95.9842 104.458 96.725C103.539 97.4657 102.383 97.8711 101.189 97.8714V103.825C104.002 103.812 106.708 102.78 108.78 100.928C110.852 99.0768 112.14 96.54 112.393 93.8135" stroke="white" stroke-width="0.40485" stroke-miterlimit="10"/>
<path d="M89.9375 92.8809C89.9375 93.243 89.9571 93.605 89.9961 93.9651L96.0799 93.3755C96.0799 93.2106 96.0799 93.0457 96.0799 92.8809C96.079 92.2251 96.211 91.5755 96.4682 90.9694C96.7255 90.3632 97.1029 89.8124 97.5791 89.3483C98.0552 88.8843 98.6206 88.5162 99.2429 88.265C99.8653 88.0139 100.532 87.8846 101.206 87.8846V81.9309C98.2241 81.9409 95.3668 83.0972 93.2563 85.148C91.1458 87.1988 89.9529 89.9781 89.9375 92.8809V92.8809Z" stroke="white" stroke-width="0.40485" stroke-miterlimit="10"/>
<path d="M93.9053 103.831H76.377" stroke="white" stroke-width="1.00599" stroke-miterlimit="10" stroke-linecap="round"/>
<path d="M90.6097 102.062H73.0879" stroke="white" stroke-width="0.502995" stroke-miterlimit="10"/>
<path d="M86.057 100.141H77.4785" stroke="white" stroke-width="0.40485" stroke-miterlimit="10" stroke-linecap="round"/>
<path d="M86.4149 77.3857H75.5762" stroke="white" stroke-width="0.564336" stroke-miterlimit="10" stroke-linecap="round"/>
<path d="M105.109 75.0005H79.543" stroke="white" stroke-width="0.564336" stroke-miterlimit="10" stroke-linecap="round"/>
<path d="M139.49 64.8178V63.2771C139.489 63.2121 139.502 63.1476 139.528 63.0876C139.553 63.0276 139.591 62.9734 139.64 62.9284L142.688 59.942L142.831 59.8025C143.06 59.5482 143.185 59.2212 143.183 58.8832C143.183 58.5082 143.03 58.1485 142.758 57.8834C142.485 57.6182 142.116 57.4692 141.731 57.4692H139.066" stroke="white" stroke-width="0.502995" stroke-miterlimit="10"/>
<path d="M143.442 104.293H125.92" stroke="white" stroke-width="1.00599" stroke-miterlimit="10" stroke-linecap="round"/>
<path d="M140.155 102.525H122.633" stroke="white" stroke-width="0.502995" stroke-miterlimit="10"/>
<path d="M135.594 100.611H127.016" stroke="white" stroke-width="0.40485" stroke-miterlimit="10" stroke-linecap="round"/>
<path d="M118.36 41.1746C117.792 42.1901 116.983 43.0595 116.002 43.7107C115.894 43.5703 115.753 43.4569 115.591 43.3798C115.429 43.3026 115.251 43.2639 115.07 43.2669C114.908 43.2909 114.755 43.3563 114.627 43.4566C114.498 43.5568 114.4 43.6883 114.341 43.8376C114.282 44.0522 114.286 44.2788 114.354 44.491C114.422 44.7032 114.551 44.8921 114.725 45.0359C115.09 45.4671 113.422 46.938 112.523 46.8239" stroke="white" stroke-width="0.87104" stroke-miterlimit="10"/>
<path d="M112.085 44.4461C113.342 43.6218 117.081 39.7859 117.081 39.7859C117.205 39.642 117.319 39.4895 117.42 39.3294C117.824 38.6953 115.388 37.2243 112.763 37.0785C111.467 37.0641 110.21 37.5029 109.219 38.3149C108.086 39.2913 107.806 40.5087 107.447 41.9416C106.796 44.592 105.409 47.3691 103.051 48.8464C101.194 50.013 98.947 50.4506 97.0385 51.5348C95.5579 52.3305 94.3795 53.5686 93.6774 55.0664C93.0261 56.5627 92.3421 64.1143 101.155 64.0826C105.063 64.4693 108.972 61.4639 109.747 57.7421C109.277 57.1768 109.01 56.4779 108.985 55.7513C108.96 55.0247 109.18 54.3101 109.61 53.7159C111.082 51.4333 110.945 51.9025 111.232 50.7929C111.518 49.6833 111.818 48.6181 112.938 48.6181L112.085 44.4461Z" fill="white" stroke="white" stroke-width="0.87104" stroke-miterlimit="10"/>
<path d="M112.188 44.3518L112.904 48.638H116.317V47.7376C116.317 47.7376 116.806 47.7376 118.063 47.6552C119.196 47.5791 119.027 45.7531 119.027 45.7531C119.678 45.9116 120.395 45.4678 119.776 44.9605C119.58 44.7737 119.431 44.5457 119.339 44.294C119.248 44.0424 119.217 43.7737 119.248 43.5085V43.5085C119.269 43.3614 119.28 43.2132 119.281 43.0647C119.281 41.6888 117.144 39.8247 117.144 39.8247" stroke="white" stroke-width="0.87104" stroke-miterlimit="10"/>
<path d="M117.244 42.5635C117.448 42.7047 117.684 42.7976 117.931 42.8351C118.179 42.8725 118.432 42.8533 118.671 42.7791C118.766 42.7578 118.855 42.7144 118.93 42.6526C119.005 42.5908 119.063 42.5125 119.101 42.4241" stroke="white" stroke-width="0.87104" stroke-miterlimit="10"/>
<path d="M117.133 50.2289C117.133 49.988 117.133 49.9182 117.133 49.6773C117.084 49.4473 116.979 49.2323 116.826 49.0511C116.672 48.8698 116.476 48.7278 116.253 48.6375H112.886C112.508 48.7243 112.163 48.9113 111.888 49.1777C111.613 49.4441 111.42 49.7794 111.329 50.1465C111.231 50.5016 111.231 50.8756 111.14 51.2307C110.887 51.8657 110.524 52.4535 110.065 52.968C109.571 53.619 109.237 54.3717 109.088 55.1681C108.949 55.9691 109.108 56.7921 109.538 57.4887C109.74 57.7867 109.987 58.0467 110.189 58.3447C110.41 58.7637 110.593 59.2007 110.736 59.6508C110.882 60.1034 111.158 60.5059 111.531 60.8112" stroke="white" stroke-width="0.87104" stroke-miterlimit="10"/>
<path d="M119.386 58.6677C119.494 59.1484 119.531 59.6415 119.497 60.1324C119.461 60.2968 119.382 60.4495 119.268 60.576C119.154 60.7025 119.008 60.7985 118.846 60.8552" stroke="white" stroke-width="0.87104" stroke-miterlimit="10"/>
<path d="M124.768 60.1574C124.385 60.3622 123.963 60.4896 123.527 60.5321C123.092 60.5746 122.652 60.5313 122.235 60.4047C121.244 60.0306 120.606 59.0034 119.584 58.7181C119.016 58.6166 118.436 58.6038 117.864 58.6801C117.187 58.7007 116.51 58.6216 115.858 58.4455C115.377 58.3288 114.924 58.1244 114.522 57.8431C113.829 57.2761 113.376 56.4785 113.252 55.605C113.141 54.7361 113.161 53.8561 113.311 52.9927C113.382 52.4294 113.487 51.8705 113.623 51.3188C113.72 50.8877 113.892 50.4759 114.132 50.1014C114.378 49.7274 114.763 49.4596 115.206 49.3533C116.001 49.1948 116.717 49.7781 117.258 50.3741C117.762 50.9966 118.23 51.6465 118.659 52.3206C119.961 54.0579 121.16 54.8568 123.12 55.8205C123.615 56.0741 124.019 56.258 124.951 56.797C124.951 57.8558 125.114 59.1176 124.788 60.1257C124.775 60.1574 124.788 60.1955 124.768 60.1574Z" stroke="white" stroke-width="0.87104" stroke-miterlimit="10"/>
<path d="M118.845 60.8237H111.504V62.6181H118.845V60.8237Z" stroke="white" stroke-width="0.87104" stroke-miterlimit="10"/>
<path d="M135.589 92.2469C135.611 91.9702 135.587 91.6919 135.518 91.4227C135.493 91.0908 135.347 90.7784 135.107 90.5413C134.782 90.3087 134.39 90.1821 133.987 90.1799C133.229 90.1237 132.489 89.9302 131.805 89.6093C131.283 89.3349 130.842 88.9362 130.522 88.4505C130.202 87.9648 130.013 87.408 129.975 86.8322C129.975 86.8322 130.958 71.8243 131.127 69.1739C131.162 68.8301 131.125 68.483 131.017 68.1538C130.909 67.8247 130.733 67.5204 130.5 67.2598C130.267 66.9992 129.982 66.7876 129.662 66.6381C129.342 66.4886 128.994 66.4044 128.639 66.3905L119.52 66.194L118.836 62.6116H111.508C110.653 63.6227 110.053 64.8149 109.756 66.0925C109.417 67.9946 110.166 70.8288 112.785 71.8877C115.403 72.9465 126.705 71.2536 126.705 71.2536C126.705 71.2536 124.288 73.1558 125.513 77.1503C126.737 81.1448 127.525 86.3249 127.356 88.6455C127.317 89.1464 126.841 89.5523 126.568 89.9771C126.141 90.6537 125.984 91.4587 126.125 92.2406L135.589 92.2469Z" stroke="white" stroke-width="0.87104" stroke-miterlimit="10"/>
<path d="M122.385 71.8044L123.948 73.1486C123.948 73.1486 126.977 75.4629 123.167 78.7092C119.903 82.019 113.846 88.1819 113.846 88.1819L112.738 85.9944C112.738 85.9944 117.949 76.3569 120.385 75.9955L115.656 72.2356C117.906 72.2229 120.153 72.0789 122.385 71.8044V71.8044Z" stroke="white" stroke-width="0.87104" stroke-miterlimit="10"/>
<path d="M128.64 66.3909L126.699 71.2604" stroke="white" stroke-width="0.87104" stroke-miterlimit="10"/>
<path d="M126.698 66.3528L124.32 71.5837" stroke="white" stroke-width="0.87104" stroke-miterlimit="10"/>
<path d="M119.511 66.1682L116.268 64.1899" stroke="white" stroke-width="0.87104" stroke-miterlimit="10"/>
<path d="M124.895 59.7015C124.895 59.7015 130.757 58.3573 133.024 57.4316L137.205 57.6852L137.492 57.0955L133.317 56.2712L124.96 57.2477" stroke="white" stroke-width="0.87104" stroke-miterlimit="10"/>
</svg>
