<svg width="320" height="87" viewBox="0 0 320 87" fill="none" xmlns="http://www.w3.org/2000/svg">
<rect y="63" width="320" height="24" fill="#0A0926"/>
<path d="M289.888 4.81525C289.204 2.83082 287.664 1.55444 285.968 1.55444H0V61.572H25.9794C25.9794 58.3672 27.1618 55.2937 29.2664 53.0276C31.371 50.7615 34.2254 49.4884 37.2018 49.4884C40.1782 49.4884 43.0326 50.7615 45.1372 53.0276C47.2419 55.2937 48.4242 58.3672 48.4242 61.572H144.788C144.788 58.3672 145.97 55.2937 148.075 53.0276C150.18 50.7615 153.034 49.4884 156.01 49.4884C158.987 49.4884 161.841 50.7615 163.946 53.0276C166.051 55.2937 167.233 58.3672 167.233 61.572H234.113C234.113 58.3672 235.295 55.2937 237.4 53.0276C239.505 50.7615 242.359 49.4884 245.335 49.4884C248.312 49.4884 251.166 50.7615 253.271 53.0276C255.376 55.2937 256.558 58.3672 256.558 61.572H290.891C292.336 61.572 293.626 60.3934 294.088 58.6419C299.752 37.1066 292.83 13.3353 289.888 4.81525Z" fill="#3A37E0"/>
<path d="M0.177734 1.61023H285.908C287.604 1.61023 289.14 2.8866 289.801 4.87104C292.743 13.3864 299.661 37.1577 293.998 58.6791C293.539 60.4306 292.267 61.6092 290.805 61.6092H256.498" stroke="white" stroke-width="2.49437" stroke-miterlimit="10"/>
<path d="M234.113 61.6096H167.111" stroke="white" stroke-width="3.23021" stroke-miterlimit="10"/>
<path d="M144.654 61.6096H48.4023" stroke="white" stroke-width="3.21774" stroke-miterlimit="10"/>
<path d="M25.9753 61.6096H0.0175781" stroke="white" stroke-width="3.21774" stroke-miterlimit="10"/>
<path d="M245.531 71.6379C250.676 71.6379 254.846 67.1476 254.846 61.6085C254.846 56.0695 250.676 51.5792 245.531 51.5792C240.387 51.5792 236.217 56.0695 236.217 61.6085C236.217 67.1476 240.387 71.6379 245.531 71.6379Z" fill="#26269B"/>
<path d="M155.885 71.6379C161.029 71.6379 165.199 67.1476 165.199 61.6085C165.199 56.0695 161.029 51.5792 155.885 51.5792C150.741 51.5792 146.57 56.0695 146.57 61.6085C146.57 67.1476 150.741 71.6379 155.885 71.6379Z" fill="#26269B"/>
<path d="M37.1856 71.6379C42.3299 71.6379 46.5001 67.1476 46.5001 61.6085C46.5001 56.0695 42.3299 51.5792 37.1856 51.5792C32.0413 51.5792 27.8711 56.0695 27.8711 61.6085C27.8711 67.1476 32.0413 71.6379 37.1856 71.6379Z" fill="#26269B"/>
<path d="M257.186 60.9763V2.21643" stroke="#26269B" stroke-width="3.50459" stroke-miterlimit="10"/>
<path d="M219.285 60.9763V2.21643" stroke="#26269B" stroke-width="3.50459" stroke-miterlimit="10"/>
<path d="M167.697 60.9763V2.21643" stroke="#26269B" stroke-width="3.50459" stroke-miterlimit="10"/>
<path opacity="0.56" d="M270.073 31.5958H0.0175781V28.0834H259.677C260.702 28.083 261.719 28.2785 262.68 28.661L270.073 31.5958Z" fill="#26269B"/>
<path opacity="0.89" d="M279.02 35.1176H0.0175781V31.6099H270.073L279.02 35.1176Z" fill="#26269B"/>
<path d="M0.0175781 9.66028H283.667C283.667 9.66028 289.689 22.8526 289.291 38.5044C289.291 38.5044 269.546 30.6506 262.944 28.0838C261.834 27.6532 260.663 27.4341 259.483 27.4363H0.0175781" fill="#26269B"/>
<path d="M0.0175781 9.66028H283.667C283.667 9.66028 289.689 22.8526 289.291 38.5044C289.291 38.5044 269.546 30.6506 262.944 28.0838C261.834 27.6532 260.662 27.4341 259.483 27.4363H0.0175781" stroke="white" stroke-width="2.49437" stroke-miterlimit="10"/>
<path d="M109.955 1H74.1328V62.1868H109.955V1Z" fill="white"/>
<path d="M74.1328 1V62.1915" stroke="#3A37E0" stroke-width="1.24718" stroke-miterlimit="10"/>
<path d="M77.8691 1V62.1915" stroke="#3A37E0" stroke-width="1.24718" stroke-miterlimit="10"/>
<path d="M82.0723 1V62.1915" stroke="#3A37E0" stroke-width="1.24718" stroke-miterlimit="10"/>
<path d="M86.127 1V62.1915" stroke="#3A37E0" stroke-width="1.24718" stroke-miterlimit="10"/>
<path d="M90.3281 1V62.1915" stroke="#3A37E0" stroke-width="1.24718" stroke-miterlimit="10"/>
<path d="M94.4199 1V62.1915" stroke="#3A37E0" stroke-width="1.24718" stroke-miterlimit="10"/>
<path d="M98.625 1V62.1915" stroke="#3A37E0" stroke-width="1.24718" stroke-miterlimit="10"/>
<path d="M102.477 1V62.1915" stroke="#3A37E0" stroke-width="1.24718" stroke-miterlimit="10"/>
<path d="M106.684 1V62.1915" stroke="#3A37E0" stroke-width="1.24718" stroke-miterlimit="10"/>
<path d="M109.951 1V62.1915" stroke="#3A37E0" stroke-width="1.24718" stroke-miterlimit="10"/>
</svg>
