<svg width="320" height="110" viewBox="0 0 320 110" fill="none" xmlns="http://www.w3.org/2000/svg">
<mask id="mask0_718_1401" style="mask-type:alpha" maskUnits="userSpaceOnUse" x="0" y="0" width="320" height="110">
<rect width="320" height="110" fill="#C4C4C4"/>
</mask>
<g mask="url(#mask0_718_1401)">
<rect y="86" width="320" height="24" fill="#0A0926"/>
<path d="M-581 41.8403H859V87.5203H-581V41.8403Z" fill="#5252AA"/>
<path d="M123.001 87.4631V44.2487C123.001 38.5419 124.125 32.8911 126.309 27.6187C128.493 22.3463 131.694 17.5557 135.729 13.5204C139.764 9.48504 144.555 6.28405 149.827 4.10015C155.1 1.91626 160.75 0.792236 166.457 0.792236H648.004V87.4361L123.001 87.4631Z" fill="#3A37E0"/>
<path opacity="0.81" d="M648.004 67.6586H235.719C151.416 67.6586 123.001 87.4629 123.001 87.4629V77.5607C123.001 77.5607 145.065 57.7563 230.445 57.7563H648.004V67.6586Z" fill="#BFBDF3"/>
<path d="M123.001 88.4142V44.2487C123.001 38.5419 124.125 32.8911 126.309 27.6187C128.493 22.3463 131.694 17.5557 135.729 13.5204C139.764 9.48504 144.555 6.28404 149.827 4.10015C155.1 1.91626 160.75 0.792236 166.457 0.792236H648.004" stroke="white" stroke-width="2" stroke-miterlimit="10"/>
<path d="M647.666 39.2305V13.2642H161.646C155.469 13.2695 149.547 15.7256 145.179 20.0932C140.812 24.4609 138.356 30.3831 138.35 36.5598V39.2506L647.666 39.2305Z" fill="#26269B"/>
<path d="M161.647 13.5938C155.558 13.6009 149.72 16.0228 145.415 20.3282C141.11 24.6336 138.688 30.471 138.681 36.5597V38.9008H647.337V13.5938H161.647ZM161.647 12.9211H648.01V39.5398H138.021V36.5329C138.021 30.2653 140.511 24.2544 144.943 19.8225C149.375 15.3907 155.386 12.9009 161.653 12.9009L161.647 12.9211Z" fill="white"/>
<path d="M161.647 13.5938C155.558 13.6009 149.72 16.0228 145.415 20.3282C141.11 24.6336 138.688 30.471 138.681 36.5597V38.9008H647.337V13.5938H161.647ZM161.647 12.9211H648.01V39.5398H138.021V36.5329C138.021 30.2653 140.511 24.2544 144.943 19.8225C149.375 15.3907 155.386 12.9009 161.653 12.9009L161.647 12.9211Z" stroke="white"/>
<path d="M215.026 12.9279V69.4348C215.008 74.2044 216.885 78.7858 220.244 82.1717C223.604 85.5575 228.17 87.4706 232.94 87.4901H251.351C256.121 87.4706 260.688 85.5575 264.047 82.1717C267.406 78.7858 269.283 74.2044 269.265 69.4348V12.9279" stroke="white" stroke-width="1.9172" stroke-miterlimit="10"/>
<path d="M123.001 87.463H648.004" stroke="white" stroke-width="2" stroke-miterlimit="10"/>
</g>
</svg>
